<svg width="193" height="177" viewBox="0 0 193 177" fill="none" xmlns="http://www.w3.org/2000/svg">
<path d="M97.2719 176.437C93.4409 176.47 90.1399 174.021 87.2269 171.86C85.1069 170.287 83.1049 168.802 81.3029 168.461C79.3889 168.097 76.8009 168.793 74.2969 169.465C70.6849 170.434 66.9499 171.435 63.5169 170.046C60.0149 168.63 58.0089 165.276 56.0699 162.032C54.6989 159.74 53.4049 157.576 51.8339 156.544C50.2369 155.495 47.5999 155.147 45.0499 154.811C41.3239 154.32 37.4709 153.812 34.8039 151.191C32.1369 148.569 31.5629 144.726 31.0079 141.008C30.6279 138.464 30.2359 135.834 29.1589 134.256C28.0999 132.704 25.9139 131.447 23.5989 130.115C20.3219 128.232 16.9339 126.283 15.4579 122.807C14.0099 119.398 14.9469 115.647 15.8539 112.019C16.4819 109.504 17.1319 106.904 16.7369 104.996C16.3659 103.2 14.8459 101.224 13.2369 99.131C11.0259 96.256 8.5199 92.9981 8.4869 89.1671C8.4539 85.3361 10.9029 82.035 13.0639 79.123C14.6369 77.003 16.1219 75.0001 16.4629 73.1991C16.8249 71.285 16.1309 68.696 15.4589 66.192C14.4899 62.581 13.4889 58.846 14.8779 55.412C16.2949 51.91 19.6489 49.904 22.8929 47.965C25.1849 46.594 27.3489 45.3 28.3819 43.729C29.4309 42.133 29.7779 39.496 30.1139 36.946C30.6049 33.22 31.1129 29.366 33.7349 26.699C36.3569 24.032 40.1999 23.458 43.9179 22.903C46.4619 22.523 49.0919 22.131 50.6699 21.054C52.2229 19.995 53.4799 17.809 54.8109 15.494C56.6939 12.218 58.6419 8.83004 62.1189 7.35304C65.5289 5.90404 69.2789 6.84204 72.9069 7.74804C75.4209 8.37605 78.0209 9.02704 79.9289 8.63104C81.7259 8.26004 83.7019 6.74004 85.7949 5.13104C88.6699 2.92104 91.9269 0.415044 95.7579 0.382044C99.5889 0.349044 102.89 2.79804 105.802 4.95904C107.922 6.53204 109.924 8.01705 111.726 8.35805C113.642 8.72005 116.229 8.02604 118.733 7.35404C122.344 6.38404 126.078 5.38305 129.513 6.77305C133.015 8.19005 135.021 11.544 136.96 14.787C138.331 17.079 139.625 19.243 141.196 20.276C142.792 21.325 145.429 21.672 147.979 22.008C151.705 22.499 155.559 23.007 158.226 25.629C160.893 28.251 161.467 32.094 162.022 35.812C162.402 38.356 162.795 40.986 163.871 42.565C164.93 44.117 167.116 45.374 169.431 46.706C172.708 48.589 176.095 50.538 177.572 54.014C179.02 57.423 178.083 61.174 177.176 64.802C176.548 67.317 175.898 69.9171 176.293 71.8241C176.665 73.62 178.185 75.597 179.793 77.689C182.004 80.564 184.51 83.822 184.542 87.653C184.575 91.484 182.126 94.785 179.965 97.6971C178.392 99.8171 176.907 101.819 176.566 103.621C176.204 105.536 176.898 108.125 177.57 110.628C178.539 114.239 179.54 117.974 178.151 121.408C176.734 124.91 173.38 126.915 170.137 128.855C167.845 130.226 165.68 131.52 164.648 133.091C163.599 134.687 163.252 137.324 162.916 139.874C162.425 143.601 161.917 147.454 159.295 150.121C156.673 152.788 152.83 153.362 149.112 153.917C146.568 154.297 143.938 154.69 142.36 155.766C140.808 156.825 139.55 159.012 138.219 161.327C136.336 164.604 134.388 167.991 130.911 169.468C127.502 170.917 123.751 169.979 120.123 169.072C117.609 168.444 115.007 167.794 113.101 168.189C111.305 168.561 109.329 170.08 107.236 171.689C104.361 173.898 101.103 176.404 97.2719 176.437ZM80.0179 163.36C80.7599 163.354 81.4989 163.409 82.2309 163.548C85.1619 164.102 87.7269 166.005 90.2059 167.845C92.7089 169.702 95.0739 171.457 97.2279 171.438C99.3819 171.42 101.716 169.625 104.186 167.725C106.634 165.843 109.165 163.896 112.086 163.292C115.113 162.666 118.274 163.457 121.334 164.221C124.293 164.961 127.087 165.657 128.955 164.865C130.888 164.044 132.343 161.513 133.883 158.834C135.436 156.133 137.042 153.339 139.541 151.635C142.065 149.914 145.271 149.435 148.372 148.972C151.41 148.519 154.279 148.09 155.728 146.616C157.177 145.142 157.556 142.266 157.958 139.221C158.367 136.113 158.791 132.899 160.469 130.345C162.131 127.816 164.896 126.163 167.57 124.563C170.222 122.977 172.728 121.479 173.516 119.532C174.277 117.651 173.531 114.869 172.741 111.923C171.924 108.878 171.08 105.729 171.653 102.693C172.207 99.762 174.11 97.198 175.95 94.717C177.807 92.214 179.561 89.85 179.542 87.696C179.524 85.541 177.729 83.2081 175.829 80.7381C173.946 78.2901 171.999 75.758 171.395 72.8371C170.77 69.812 171.56 66.649 172.324 63.591C173.063 60.632 173.762 57.837 172.968 55.97C172.147 54.037 169.616 52.582 166.937 51.042C164.236 49.489 161.442 47.883 159.738 45.384C158.016 42.859 157.537 39.653 157.075 36.553C156.622 33.515 156.193 30.647 154.719 29.198C153.245 27.749 150.368 27.37 147.324 26.969C144.216 26.56 141.002 26.136 138.448 24.458C135.92 22.796 134.266 20.031 132.667 17.357C131.081 14.704 129.582 12.199 127.636 11.411C125.753 10.65 122.972 11.396 120.027 12.186C116.983 13.003 113.836 13.847 110.797 13.274C107.866 12.72 105.302 10.817 102.821 8.97704C100.318 7.12004 97.9539 5.36605 95.7999 5.38505C93.6449 5.40405 91.3119 7.19804 88.8409 9.09804C86.3929 10.98 83.8609 12.928 80.9399 13.531C77.9139 14.157 74.7509 13.366 71.6929 12.602C68.7339 11.863 65.9409 11.164 64.0719 11.958C62.1389 12.779 60.6839 15.31 59.1439 17.989C57.5909 20.69 55.9849 23.484 53.4849 25.188C50.9609 26.909 47.7549 27.388 44.6539 27.851C41.6159 28.304 38.7469 28.733 37.2979 30.207C35.8489 31.681 35.4699 34.557 35.0689 37.602C34.6599 40.71 34.2359 43.924 32.5579 46.477C30.8959 49.006 28.1309 50.659 25.4569 52.259C22.8049 53.845 20.2989 55.344 19.5109 57.29C18.7499 59.171 19.4959 61.953 20.2859 64.899C21.1029 67.944 21.9469 71.093 21.3739 74.129C20.8199 77.06 18.9169 79.624 17.0769 82.105C15.2199 84.608 13.4659 86.972 13.4849 89.127C13.5039 91.282 15.2979 93.6151 17.1979 96.0851C19.0799 98.5331 21.0269 101.065 21.6309 103.985C22.2559 107.01 21.4659 110.173 20.7019 113.232C19.9629 116.191 19.2639 118.986 20.0579 120.854C20.8789 122.787 23.4099 124.242 26.0889 125.782C28.7899 127.335 31.5839 128.941 33.2879 131.44C35.0089 133.964 35.4879 137.17 35.9509 140.271C36.4039 143.309 36.8329 146.178 38.3069 147.627C39.7799 149.076 42.6559 149.454 45.7009 149.856C48.8099 150.266 52.0239 150.689 54.5779 152.368C57.1059 154.029 58.7599 156.794 60.3589 159.468C61.9449 162.12 63.4439 164.626 65.3899 165.413C67.2719 166.176 70.0529 165.428 72.9989 164.638C75.3119 164.015 77.6829 163.38 80.0179 163.36Z" fill="white"/>
<path d="M97.1619 163.714C96.3699 163.721 95.4249 163.372 94.1879 162.618L94.5789 161.978C95.6759 162.647 96.5189 162.97 97.1559 162.964L97.1619 163.714ZM97.8849 163.618L97.7069 162.889C98.3749 162.726 99.1809 162.311 100.243 161.585L100.666 162.204C99.5279 162.983 98.6439 163.432 97.8849 163.618ZM91.6949 160.891L91.3149 160.61C90.6429 160.111 89.9679 159.61 89.2769 159.135L89.7019 158.517C90.3999 158.998 91.0819 159.504 91.7569 160.005L92.1389 160.288L91.6949 160.891ZM103.093 160.404L102.636 159.809C103.489 159.154 104.26 158.567 105.065 158.015L105.489 158.633C104.7 159.176 103.937 159.756 103.093 160.404ZM69.3659 158.46C68.9419 158.44 68.5899 158.371 68.2879 158.249C67.7449 158.029 67.1899 157.579 66.5919 156.872L67.1649 156.388C67.6819 156.999 68.1409 157.381 68.5689 157.553C68.7909 157.643 69.0629 157.694 69.3999 157.71L69.3659 158.46ZM125.571 157.876L125.385 157.149C125.479 157.125 125.566 157.096 125.646 157.062C126.172 156.839 126.749 156.289 127.411 155.379L128.017 155.82C127.263 156.857 126.602 157.471 125.938 157.753C125.825 157.801 125.703 157.842 125.571 157.876ZM122.432 157.769C121.531 157.601 120.578 157.363 119.569 157.111L119.664 156.362C120.749 156.633 121.691 156.869 122.569 157.032L122.432 157.769ZM72.4339 158.064L72.2649 157.333C72.9559 157.173 73.6829 156.978 74.4269 156.779L75.1579 156.584L75.3509 157.309L74.6449 157.497C73.8679 157.705 73.1329 157.902 72.4339 158.064ZM86.7569 157.604C85.8199 157.128 84.9319 156.793 84.0399 156.581L84.2129 155.851C85.1629 156.078 86.1069 156.432 87.0969 156.935L86.7569 157.604ZM108.022 157.143L107.699 156.466C108.642 156.016 109.549 155.705 110.473 155.514L110.624 155.483L110.769 156.219L110.625 156.248C109.761 156.427 108.91 156.719 108.022 157.143ZM116.583 156.418C115.501 156.205 114.546 156.081 113.665 156.038L113.701 155.289C114.619 155.334 115.609 155.462 116.727 155.682L116.583 156.418ZM78.2429 156.627L78.1029 155.89C79.2109 155.679 80.2049 155.566 81.1419 155.545L81.1589 156.295C80.2639 156.315 79.3099 156.424 78.2429 156.627ZM64.8499 154.363C64.6149 153.98 64.3799 153.589 64.1479 153.2C63.8689 152.733 63.5869 152.262 63.2989 151.795L63.9369 151.402C64.2269 151.872 64.5099 152.345 64.7909 152.815C65.0219 153.202 65.2539 153.59 65.4879 153.97L64.8499 154.363ZM129.636 153.249L128.987 152.873L129.34 152.261C129.72 151.6 130.104 150.932 130.506 150.276L131.145 150.668C130.747 151.318 130.367 151.98 129.991 152.635L129.636 153.249ZM61.6369 149.345C60.9849 148.496 60.3359 147.796 59.6529 147.205L60.1429 146.637C60.8659 147.262 61.5489 147.998 62.2319 148.887L61.6369 149.345ZM132.82 148.234L132.233 147.766C132.926 146.896 133.631 146.178 134.391 145.572L134.859 146.158C134.144 146.729 133.477 147.408 132.82 148.234ZM57.2319 145.627C56.4179 145.24 55.5149 144.925 54.4739 144.663L54.6569 143.936C55.7469 144.21 56.6939 144.541 57.5529 144.949L57.2319 145.627ZM137.343 144.679L137.045 143.991C137.906 143.618 138.859 143.309 139.957 143.046L140.131 143.775C139.076 144.029 138.164 144.324 137.343 144.679ZM51.5649 144.108C51.0399 144.031 50.5219 143.962 50.0139 143.895C49.4949 143.827 49.0399 143.767 48.5919 143.702L48.6999 142.96C49.1439 143.024 49.5959 143.084 50.0439 143.142C50.6229 143.219 51.1449 143.288 51.6739 143.366L51.5649 144.108ZM143.049 143.225L142.933 142.484L143.844 142.346C144.58 142.236 145.249 142.136 145.892 142.023L146.022 142.761C145.373 142.876 144.698 142.977 144.029 143.077L143.049 143.225ZM45.5979 143.096C44.7409 142.834 44.1269 142.513 43.7229 142.115C43.4759 141.873 43.2599 141.559 43.0639 141.153L43.7389 140.826C43.8949 141.147 44.0659 141.401 44.2479 141.579C44.5609 141.886 45.0879 142.155 45.8169 142.379L45.5979 143.096ZM149 141.977L148.707 141.287C149.139 141.103 149.469 140.897 149.688 140.674C149.96 140.398 150.202 139.952 150.408 139.348L151.118 139.59C150.872 140.311 150.579 140.838 150.223 141.199C149.93 141.498 149.53 141.752 149 141.977ZM42.2099 138.181C42.0759 137.459 41.9619 136.699 41.8499 135.946L41.7389 135.206L42.4799 135.093L42.5879 135.813C42.7029 136.579 42.8139 137.331 42.9469 138.044L42.2099 138.181ZM151.769 136.596L151.027 136.485C151.105 135.964 151.175 135.43 151.245 134.901C151.306 134.432 151.366 133.976 151.433 133.515L152.175 133.621C152.11 134.08 152.049 134.533 151.992 134.977C151.918 135.533 151.847 136.071 151.769 136.596ZM41.2069 132.281C40.9649 131.218 40.6829 130.3 40.3439 129.476L41.0379 129.191C41.3919 130.054 41.6869 131.01 41.9379 132.114L41.2069 132.281ZM152.707 130.704L151.977 130.531C152.238 129.435 152.553 128.483 152.94 127.62L153.624 127.927C153.257 128.746 152.957 129.655 152.707 130.704ZM38.9219 126.957C38.3659 126.225 37.7009 125.546 36.8909 124.879L37.3669 124.3C38.2229 125.004 38.9269 125.725 39.5179 126.503L38.9219 126.957ZM155.143 125.468L154.565 124.99C155.178 124.248 155.902 123.551 156.778 122.858L157.243 123.447C156.409 124.107 155.722 124.767 155.143 125.468ZM34.4819 123.179C33.7589 122.729 33.0209 122.305 32.2899 121.885L31.9059 121.664L32.2809 121.014L32.6629 121.234C33.4019 121.659 34.1479 122.088 34.8769 122.542L34.4819 123.179ZM159.676 121.765L159.279 121.129C159.811 120.796 160.349 120.474 160.883 120.154L161.849 119.573L162.239 120.213L161.351 120.748L161.076 120.476L161.269 120.798C160.738 121.115 160.204 121.434 159.676 121.765ZM29.3259 120.069C28.1539 119.249 27.4689 118.538 27.1699 117.832L27.4919 117.626L27.8429 117.494C28.0999 118.102 28.7199 118.729 29.7569 119.455L29.3259 120.069ZM164.765 118.508L164.295 117.923C165.023 117.339 165.469 116.825 165.66 116.354C165.727 116.189 165.774 115.991 165.8 115.765L166.545 115.85C166.511 116.144 166.448 116.408 166.355 116.635C166.115 117.229 165.595 117.841 164.765 118.508ZM27.8449 114.721L27.1059 114.593C27.2639 113.676 27.5089 112.672 27.7689 111.638L28.4959 111.82C28.2309 112.88 27.9989 113.828 27.8449 114.721ZM165.498 112.917C165.323 112.127 165.1 111.295 164.879 110.473L164.759 110.026L165.484 109.833L165.603 110.278C165.827 111.111 166.054 111.955 166.23 112.756L165.498 112.917ZM29.1859 108.885L28.4509 108.735C28.6729 107.648 28.8079 106.693 28.8659 105.817L29.6139 105.866C29.5549 106.778 29.4139 107.765 29.1859 108.885ZM164.051 107.086C163.829 105.973 163.702 104.981 163.663 104.056L164.413 104.024C164.45 104.911 164.573 105.864 164.787 106.939L164.051 107.086ZM28.7469 102.913C28.7249 102.781 28.7009 102.65 28.6729 102.519C28.5099 101.73 28.2539 100.956 27.8879 100.152L28.5709 99.841C28.9599 100.697 29.2329 101.523 29.4069 102.367C29.4359 102.508 29.4629 102.649 29.4859 102.791L28.7469 102.913ZM164.63 101.134L163.896 100.979C164.099 100.017 164.434 99.066 164.919 98.07L165.594 98.398C165.136 99.338 164.821 100.233 164.63 101.134ZM26.4369 97.6C25.8689 96.753 25.2329 95.916 24.6809 95.197L25.2759 94.741C25.8349 95.469 26.4789 96.317 27.0589 97.182L26.4369 97.6ZM167.091 95.863L166.47 95.442C166.997 94.665 167.558 93.909 168.113 93.16L168.235 92.996L168.837 93.443L168.716 93.606C168.167 94.348 167.612 95.095 167.091 95.863ZM22.8709 92.783C22.0909 91.668 21.6189 90.803 21.3839 90.059L22.0989 89.833C22.3109 90.502 22.7509 91.302 23.4859 92.353L22.8709 92.783ZM170.581 90.967L169.947 90.566C170.63 89.485 170.994 88.642 171.061 87.992L171.807 88.068C171.727 88.848 171.338 89.769 170.581 90.967ZM22.5099 87.241L21.8429 86.899C22.2989 86.009 22.9629 85.056 23.4899 84.326L24.0979 84.765C23.5859 85.474 22.9429 86.396 22.5099 87.241ZM170.179 85.428C169.697 84.636 169.073 83.798 168.472 83.009L169.068 82.554C169.682 83.359 170.32 84.216 170.82 85.038L170.179 85.428ZM25.8759 82.348L25.2679 81.91C25.9649 80.942 26.4669 80.179 26.8949 79.435L27.5449 79.809C27.1039 80.576 26.5889 81.359 25.8759 82.348ZM166.654 80.611C165.959 79.653 165.433 78.841 165 78.054L165.657 77.692C166.075 78.451 166.585 79.238 167.261 80.17L166.654 80.611ZM28.8169 77.014L28.1039 76.782C28.2469 76.343 28.3609 75.901 28.4429 75.468C28.5349 74.978 28.5939 74.464 28.6169 73.939L29.3659 73.973C29.3399 74.533 29.2779 75.083 29.1789 75.608C29.0919 76.072 28.9689 76.545 28.8169 77.014ZM163.808 75.216C163.737 74.965 163.674 74.709 163.621 74.45C163.471 73.73 163.39 72.958 163.381 72.157L164.131 72.148C164.14 72.902 164.216 73.625 164.355 74.299C164.406 74.541 164.464 74.779 164.53 75.014L163.808 75.216ZM28.4419 71.02C28.3159 70.172 28.1249 69.251 27.8399 68.119L28.5669 67.936C28.8579 69.092 29.0539 70.036 29.1839 70.909L28.4419 71.02ZM164.368 69.225L163.628 69.106C163.8 68.034 164.038 67.006 164.248 66.141L164.977 66.318C164.771 67.169 164.536 68.179 164.368 69.225ZM27.0769 65.22C26.8519 64.339 26.5819 63.202 26.4899 62.22L27.2359 62.15C27.3239 63.08 27.5849 64.179 27.8029 65.033L27.0769 65.22ZM165.688 63.396L164.956 63.233C165.232 61.989 165.358 61.084 165.351 60.383L166.101 60.344V60.376C166.108 61.136 165.977 62.095 165.688 63.396ZM27.9119 59.651L27.3559 59.148C27.8749 58.575 28.6449 57.966 29.7809 57.232L30.1879 57.862C29.1089 58.56 28.3859 59.128 27.9119 59.651ZM164.174 58.057C163.619 57.574 162.875 57.061 161.76 56.395L162.145 55.751C163.3 56.442 164.078 56.979 164.666 57.492L164.174 58.057ZM32.7399 56.306L32.3539 55.664C33.1629 55.176 34.0269 54.645 34.8569 54.06L35.2889 54.674C34.4389 55.272 33.5619 55.812 32.7399 56.306ZM159.168 54.888C158.451 54.465 157.511 53.896 156.615 53.25L157.053 52.642C157.925 53.271 158.845 53.828 159.549 54.243L159.168 54.888ZM37.6469 52.723L37.1159 52.192C37.6879 51.62 38.1649 51.04 38.5729 50.418C38.6839 50.249 38.7879 50.079 38.8879 49.905L39.5379 50.279C39.4309 50.465 39.3179 50.649 39.1989 50.829C38.7629 51.495 38.2549 52.114 37.6469 52.723ZM154.295 51.243C153.88 50.799 153.502 50.331 153.174 49.85C152.935 49.5 152.709 49.121 152.501 48.725L153.166 48.377C153.36 48.747 153.571 49.1 153.794 49.426C154.101 49.875 154.454 50.314 154.843 50.73L154.295 51.243ZM40.7379 47.446L40.0199 47.228C40.2739 46.395 40.4879 45.453 40.6739 44.351L41.4129 44.476C41.2229 45.61 41.0009 46.582 40.7379 47.446ZM151.387 45.863C151.142 45.004 150.936 44.061 150.737 42.894L151.476 42.768C151.67 43.907 151.871 44.825 152.108 45.658L151.387 45.863ZM41.8399 41.492L41.0969 41.393C41.2299 40.396 41.3769 39.344 41.5889 38.399L42.3209 38.564C42.1149 39.479 41.9699 40.512 41.8399 41.492ZM150.277 39.924C150.132 38.999 149.948 37.933 149.682 37.035L150.401 36.822C150.679 37.761 150.869 38.858 151.018 39.807L150.277 39.924ZM43.4219 36.067L42.9209 35.509C43.4919 34.997 44.4179 34.609 45.8349 34.289L46.0009 35.021C44.7309 35.307 43.8879 35.649 43.4219 36.067ZM148.236 34.848C147.635 34.523 146.761 34.267 145.483 34.041L145.613 33.302C146.973 33.543 147.919 33.824 148.592 34.189L148.236 34.848ZM48.9279 34.509L48.8199 33.767L48.9969 33.741C49.8969 33.607 50.8259 33.468 51.7619 33.286L51.9059 34.022C50.9529 34.208 50.0159 34.348 49.1099 34.483L48.9279 34.509ZM142.528 33.614C141.627 33.494 140.579 33.349 139.541 33.142L139.687 32.406C140.704 32.609 141.737 32.752 142.627 32.871L142.528 33.614ZM54.8589 33.259L54.6169 32.549C55.6159 32.208 56.4759 31.805 57.2479 31.317L57.6489 31.95C56.8259 32.47 55.9139 32.899 54.8589 33.259ZM136.593 32.336C135.657 31.991 134.839 31.585 134.092 31.094L133.846 30.928L134.273 30.312L134.502 30.466C135.202 30.925 135.97 31.306 136.852 31.632L136.593 32.336ZM60.0109 29.964L59.4619 29.453C60.0639 28.805 60.6519 28.046 61.2589 27.131L61.8839 27.546C61.2539 28.495 60.6409 29.286 60.0109 29.964ZM131.561 28.859C130.96 28.178 130.362 27.38 129.73 26.419L130.356 26.007C130.968 26.938 131.546 27.708 132.122 28.363L131.561 28.859ZM63.4539 24.963L62.8039 24.589L63.0369 24.184C63.4649 23.439 63.8989 22.685 64.3379 21.992L64.9709 22.394C64.5369 23.078 64.1089 23.822 63.6859 24.559L63.4539 24.963ZM128.149 23.853C127.585 22.911 127.076 22.072 126.561 21.339L127.174 20.908C127.703 21.662 128.22 22.513 128.791 23.468L128.149 23.853ZM111.686 21.274C111.116 21.279 110.553 21.248 110.015 21.18L110.107 20.436C111.035 20.552 112.043 20.546 113.018 20.45L113.092 21.196C112.61 21.244 112.136 21.271 111.686 21.274ZM80.1909 21.545C79.5309 21.55 78.8569 21.511 78.1299 21.426L78.2169 20.681C79.2689 20.804 80.2189 20.83 81.1349 20.75L81.1999 21.497C80.8699 21.526 80.5329 21.542 80.1909 21.545ZM116.094 20.679L115.925 19.948C116.751 19.757 117.567 19.539 118.372 19.323L118.818 19.203L119.013 19.927L118.578 20.044C117.752 20.265 116.928 20.486 116.094 20.679ZM84.2169 20.823L83.9559 20.12C84.7979 19.808 85.6519 19.382 86.5699 18.817L86.9629 19.455C86.0029 20.047 85.1039 20.494 84.2169 20.823ZM75.1399 20.885C74.5139 20.742 73.8929 20.587 73.2779 20.434L72.2209 20.172L72.3979 19.443L73.4589 19.706C74.0699 19.858 74.6859 20.012 75.3069 20.154L75.1399 20.885ZM107.03 20.386C106.168 20.032 105.281 19.565 104.321 18.959L104.722 18.325C105.645 18.908 106.493 19.356 107.314 19.692L107.03 20.386ZM66.7659 20.148L66.2859 19.572C66.5559 19.347 66.8269 19.176 67.0909 19.064C67.6469 18.827 68.4549 18.772 69.4019 18.871L69.3249 19.617C68.5179 19.535 67.8159 19.571 67.3829 19.755C67.1879 19.837 66.9799 19.97 66.7659 20.148ZM124.61 19.333C124.56 19.307 124.51 19.284 124.459 19.263C123.934 19.05 123.091 19.047 121.898 19.25L121.772 18.511C123.121 18.279 124.071 18.297 124.74 18.568C124.813 18.597 124.886 18.631 124.959 18.669L124.61 19.333ZM89.4549 17.723L89.0039 17.123C89.3369 16.872 89.6679 16.619 89.9959 16.366L90.0749 16.305C90.5139 15.968 90.9549 15.629 91.3939 15.303L91.8409 15.906C91.4059 16.228 90.9679 16.565 90.5329 16.9L90.4539 16.961C90.1219 17.216 89.7899 17.471 89.4549 17.723ZM101.836 17.231L101.312 16.843C100.644 16.347 100.026 15.889 99.4199 15.472L99.8449 14.854C100.458 15.276 101.083 15.739 101.7 16.198L102.28 16.627L101.836 17.231ZM94.3019 14.318L93.9689 13.646C94.6969 13.285 95.3169 13.107 95.8639 13.102C95.8639 13.102 95.8649 13.102 95.8669 13.102C96.2539 13.099 96.6729 13.18 97.1469 13.351L96.8929 14.056C96.5089 13.918 96.1659 13.849 95.8729 13.852H95.8719C95.4459 13.856 94.9179 14.012 94.3019 14.318Z" fill="white"/>
<path d="M97.0909 155.375C95.6159 155.388 93.7119 153.975 91.8709 152.608C89.7639 151.045 87.5909 149.434 85.0069 148.946C84.3869 148.829 83.7249 148.773 83.0379 148.779C81.0169 148.796 79.0229 149.331 77.0959 149.847C75.4529 150.287 73.9169 150.699 72.6709 150.71C72.1609 150.714 71.7489 150.651 71.4129 150.514C70.0909 149.979 68.8859 147.968 67.7219 146.022C66.3599 143.744 64.9589 141.4 62.7299 139.935C60.4819 138.458 57.6359 138.083 55.1249 137.752C52.8859 137.457 50.5719 137.152 49.5699 136.167C48.5689 135.184 48.2249 132.877 47.8909 130.646C47.5159 128.136 47.0919 125.296 45.5749 123.074C44.0739 120.872 41.7079 119.511 39.4199 118.195C37.4469 117.061 35.4089 115.89 34.8499 114.573C34.3129 113.309 34.8749 111.061 35.4189 108.887C36.0359 106.417 36.7349 103.617 36.1849 100.956C35.6519 98.378 34.0019 96.232 32.4049 94.157C31.0069 92.339 29.5619 90.459 29.5489 88.984C29.5359 87.509 30.9489 85.605 32.3159 83.763C33.8789 81.657 35.4909 79.484 35.9789 76.899C36.4829 74.23 35.7359 71.444 35.0769 68.986C34.4949 66.817 33.8949 64.579 34.4099 63.306C34.9469 61.981 36.9619 60.775 38.9099 59.609C41.1809 58.251 43.5239 56.85 44.9879 54.622C46.4659 52.373 46.8409 49.527 47.1709 47.017C47.4669 44.775 47.7719 42.462 48.7559 41.462C49.7409 40.46 52.0499 40.115 54.2829 39.782C56.7899 39.407 59.6279 38.983 61.8499 37.468C64.0519 35.965 65.4129 33.598 66.7279 31.309C67.8639 29.334 69.0349 27.299 70.3499 26.741C70.6829 26.599 71.0929 26.529 71.6039 26.524C72.8549 26.513 74.4009 26.9 76.0379 27.31C77.9769 27.794 79.9799 28.294 82.0029 28.277C82.6879 28.271 83.3489 28.203 83.9689 28.076C86.5429 27.544 88.6879 25.895 90.7619 24.301C92.5859 22.898 94.4649 21.453 95.9399 21.44C97.4149 21.427 99.3189 22.84 101.16 24.207C103.263 25.768 105.437 27.381 108.025 27.87C108.646 27.987 109.308 28.043 109.993 28.037C112.014 28.02 114.008 27.485 115.935 26.969C117.569 26.53 119.107 26.117 120.359 26.106C120.869 26.102 121.28 26.165 121.616 26.3C122.943 26.837 124.149 28.855 125.317 30.805C126.674 33.075 128.076 35.416 130.302 36.88C132.549 38.356 135.393 38.731 137.902 39.062C140.148 39.359 142.462 39.664 143.463 40.647C144.465 41.632 144.809 43.941 145.143 46.174C145.517 48.679 145.94 51.518 147.456 53.741C148.958 55.942 151.324 57.303 153.612 58.619C155.586 59.753 157.623 60.925 158.182 62.242C158.72 63.508 158.158 65.755 157.613 67.929C156.996 70.398 156.297 73.197 156.847 75.859C157.38 78.437 159.031 80.583 160.627 82.658C162.025 84.476 163.471 86.355 163.484 87.831C163.497 89.306 162.084 91.21 160.717 93.051C159.154 95.157 157.542 97.33 157.054 99.915C156.55 102.586 157.297 105.373 157.956 107.831C158.538 109.994 159.138 112.232 158.622 113.507C158.086 114.833 156.069 116.04 154.117 117.206C151.85 118.563 149.507 119.964 148.044 122.191C146.566 124.441 146.191 127.286 145.861 129.797C145.565 132.039 145.261 134.352 144.277 135.352C143.291 136.354 140.982 136.698 138.749 137.032C136.245 137.406 133.407 137.829 131.183 139.345C128.98 140.849 127.62 143.216 126.304 145.504C125.169 147.477 123.998 149.513 122.683 150.072C122.348 150.213 121.939 150.284 121.429 150.288C120.18 150.299 118.633 149.912 116.995 149.502C115.056 149.018 113.053 148.518 111.03 148.535C110.343 148.541 109.682 148.609 109.064 148.736C106.487 149.269 104.342 150.919 102.267 152.514C100.446 153.917 98.5659 155.362 97.0909 155.375ZM83.0309 148.029C83.7669 148.023 84.4779 148.083 85.1449 148.21C87.8979 148.729 90.1419 150.394 92.3119 152.003C94.0589 153.3 95.8609 154.636 97.0839 154.626C98.3079 154.615 100.086 153.248 101.806 151.926C103.95 150.277 106.165 148.574 108.911 148.006C109.576 147.868 110.286 147.795 111.022 147.789C113.141 147.771 115.191 148.283 117.174 148.778C118.766 149.176 120.268 149.551 121.421 149.541C121.83 149.537 122.147 149.486 122.389 149.384C123.471 148.923 124.629 146.912 125.649 145.137C127.009 142.771 128.413 140.328 130.759 138.728C133.125 137.115 136.053 136.679 138.637 136.292C140.65 135.993 142.931 135.652 143.741 134.829C144.548 134.007 144.85 131.723 145.115 129.708C145.457 127.111 145.843 124.176 147.416 121.782C148.974 119.412 151.391 117.965 153.729 116.567C155.491 115.514 157.484 114.321 157.926 113.228C158.348 112.186 157.754 109.977 157.231 108.028C156.551 105.492 155.78 102.617 156.316 99.778C156.836 97.024 158.501 94.78 160.11 92.61C161.406 90.864 162.743 89.062 162.732 87.839C162.722 86.614 161.292 84.756 160.031 83.116C158.383 80.974 156.679 78.759 156.111 76.012C155.526 73.183 156.247 70.295 156.884 67.748C157.374 65.79 157.929 63.571 157.49 62.537C157.03 61.451 155.015 60.294 153.239 59.272C150.875 57.913 148.433 56.508 146.835 54.165C145.223 51.8 144.785 48.871 144.399 46.287C144.099 44.274 143.758 41.992 142.936 41.184C142.114 40.377 139.828 40.075 137.811 39.809C135.214 39.466 132.28 39.079 129.889 37.508C127.519 35.951 126.073 33.534 124.674 31.197C123.619 29.434 122.427 27.44 121.334 26.997C121.092 26.9 120.775 26.854 120.365 26.857C119.209 26.867 117.716 27.268 116.135 27.692C114.156 28.222 112.116 28.769 109.999 28.787C109.266 28.793 108.555 28.733 107.885 28.606C105.127 28.085 102.883 26.42 100.713 24.81C98.9699 23.516 97.1679 22.18 95.9449 22.19C94.7219 22.2 92.9439 23.568 91.2239 24.891C89.0769 26.541 86.8619 28.243 84.1189 28.81C83.4509 28.948 82.7409 29.021 82.0079 29.027C79.8889 29.045 77.8399 28.534 75.8569 28.038C74.2649 27.64 72.7639 27.264 71.6089 27.274C71.1989 27.278 70.8829 27.329 70.6429 27.431C69.5589 27.891 68.4019 29.901 67.3819 31.675C66.0199 34.044 64.6159 36.486 62.2719 38.086C59.9079 39.698 56.9789 40.135 54.3959 40.522C52.3789 40.823 50.0979 41.162 49.2889 41.986C48.4809 42.808 48.1799 45.092 47.9139 47.108C47.5719 49.704 47.1849 52.641 45.6129 55.033C44.0539 57.404 41.6359 58.85 39.2979 60.249C37.5369 61.303 35.5459 62.494 35.1029 63.587C34.6829 64.626 35.2759 66.836 35.7989 68.786C36.4799 71.326 37.2509 74.199 36.7149 77.037C36.1949 79.791 34.5299 82.034 32.9209 84.205C31.6249 85.951 30.2879 87.753 30.2989 88.976C30.3099 90.2 31.6769 91.978 32.9999 93.698C34.6479 95.841 36.3519 98.056 36.9189 100.803C37.5039 103.632 36.7829 106.519 36.1459 109.068C35.6559 111.026 35.1009 113.246 35.5399 114.279C36.0009 115.364 38.0149 116.522 39.7909 117.543C42.1549 118.902 44.5969 120.306 46.1949 122.65C47.8099 125.015 48.2459 127.943 48.6329 130.528C48.9339 132.545 49.2749 134.823 50.0959 135.631C50.9189 136.44 53.2059 136.741 55.2239 137.007C57.8149 137.349 60.7509 137.735 63.1419 139.307C65.5149 140.866 66.9609 143.284 68.3599 145.624C69.4159 147.389 70.6059 149.377 71.6959 149.817C71.9389 149.915 72.2559 149.962 72.6659 149.958C73.8159 149.948 75.3079 149.548 76.8869 149.125C78.8739 148.594 80.9139 148.047 83.0309 148.029Z" fill="white"/>
<path d="M137.362 98.8122C142.013 76.2618 127.503 54.2107 104.953 49.5597C82.4022 44.9087 60.3511 59.419 55.7001 81.9695C51.0491 104.52 65.5594 126.571 88.1099 131.222C110.66 135.873 132.711 121.363 137.362 98.8122Z" fill="white"/>
<path d="M192.979 109.961L0.924961 111.613L7.76796 93.533L0.610962 75.143L192.665 73.49L185.82 91.334L192.979 109.961Z" fill="#E3E3E3"/>
<path d="M45.5723 89.522L43.5472 89.5395C43.4224 88.958 43.2085 88.4481 42.9053 88.0097C42.6075 87.5713 42.245 87.2042 41.8179 86.9085C41.3961 86.6072 40.9287 86.3826 40.4156 86.2346C39.9026 86.0866 39.3685 86.0149 38.8132 86.0197C37.8007 86.0284 36.8856 86.2922 36.068 86.8109C35.2559 87.3297 34.6118 88.0892 34.1359 89.0896C33.6654 90.0899 33.4364 91.3141 33.4489 92.7621C33.4613 94.2102 33.7113 95.4302 34.199 96.4223C34.692 97.4143 35.349 98.1627 36.17 98.6674C36.9964 99.172 37.9159 99.42 38.9284 99.4113C39.4836 99.4065 40.0165 99.3257 40.5269 99.1689C41.0373 99.0121 41.5008 98.7821 41.9174 98.4791C42.3394 98.1706 42.6954 97.7946 42.9856 97.3512C43.2812 96.9022 43.4863 96.3887 43.6011 95.8106L45.6262 95.7932C45.4811 96.6492 45.2101 97.4164 44.8131 98.0949C44.416 98.7734 43.9201 99.352 43.3254 99.8308C42.7306 100.304 42.0614 100.666 41.3177 100.918C40.5795 101.169 39.7885 101.298 38.9447 101.306C37.5184 101.318 36.247 100.98 35.1305 100.293C34.014 99.606 33.1318 98.6227 32.4838 97.3435C31.8358 96.0643 31.5043 94.5427 31.4891 92.779C31.4739 91.0152 31.7793 89.4882 32.4052 88.198C33.031 86.9078 33.8962 85.9096 35.0008 85.2032C36.1053 84.4969 37.3707 84.1376 38.7969 84.1253C39.6407 84.118 40.4338 84.2337 41.1763 84.4723C41.9242 84.7109 42.5996 85.0644 43.2024 85.5328C43.8053 85.9958 44.311 86.5631 44.7197 87.2347C45.1283 87.9008 45.4125 88.6632 45.5723 89.522ZM62.9817 92.5081C62.9969 94.2719 62.6916 95.7989 62.0657 97.0891C61.4398 98.3793 60.5746 99.3776 59.4701 100.084C58.3656 100.79 57.1002 101.15 55.6739 101.162C54.2477 101.174 52.9763 100.837 51.8598 100.149C50.7433 99.4621 49.861 98.4789 49.2131 97.1996C48.5651 95.9204 48.2335 94.3989 48.2184 92.6351C48.2032 90.8713 48.5085 89.3444 49.1344 88.0542C49.7603 86.764 50.6255 85.7657 51.73 85.0593C52.8345 84.353 54.0999 83.9937 55.5262 83.9814C56.9524 83.9692 58.2238 84.3067 59.3403 84.9939C60.4568 85.6811 61.3391 86.6644 61.987 87.9436C62.635 89.2229 62.9666 90.7444 62.9817 92.5081ZM61.022 92.525C61.0096 91.077 60.7568 89.8569 60.2637 88.8649C59.7761 87.8728 59.1191 87.1245 58.2927 86.6198C57.4718 86.1151 56.555 85.8671 55.5425 85.8758C54.5299 85.8846 53.6149 86.1483 52.7973 86.6671C51.9851 87.1858 51.3411 87.9454 50.8651 88.9457C50.3947 89.946 50.1657 91.1702 50.1781 92.6183C50.1906 94.0663 50.4406 95.2863 50.9282 96.2784C51.4213 97.2705 52.0783 98.0188 52.8992 98.5235C53.7256 99.0282 54.6451 99.2761 55.6576 99.2674C56.6702 99.2587 57.5825 98.995 58.3947 98.4763C59.2123 97.9575 59.8563 97.1979 60.3268 96.1976C60.8027 95.1972 61.0345 93.973 61.022 92.525ZM66.4587 100.84L66.3149 84.1173L71.9655 84.0687C73.2774 84.0574 74.3519 84.285 75.1888 84.7514C76.0312 85.2124 76.6572 85.8412 77.0669 86.638C77.4767 87.4348 77.6858 88.3258 77.6942 89.3111C77.7027 90.2964 77.509 91.1937 77.1131 92.0028C76.7226 92.8119 76.113 93.4595 75.2842 93.9458C74.4554 94.4265 73.3905 94.6725 72.0894 94.6837L68.0393 94.7185L68.0238 92.9221L72.0087 92.8878C72.9069 92.8801 73.6268 92.7187 74.1685 92.4038C74.7102 92.0888 75.1013 91.6662 75.3417 91.1361C75.5876 90.6005 75.7076 89.9978 75.7018 89.3283C75.6961 88.6587 75.5657 88.061 75.3108 87.5351C75.0613 87.0091 74.6603 86.5988 74.1079 86.3041C73.5555 86.004 72.8247 85.8579 71.9156 85.8657L68.3554 85.8963L68.4838 100.823L66.4587 100.84ZM79.4737 84.0041L81.7928 83.9842L86.498 91.7506L86.6939 91.7489L91.2649 83.9027L93.5839 83.8828L87.6259 93.7661L87.6852 100.658L85.6601 100.675L85.6008 93.7835L79.4737 84.0041ZM96.3468 100.583L96.203 83.8603L101.854 83.8117C103.16 83.8004 104.234 84.0144 105.077 84.4536C105.919 84.8873 106.545 85.4889 106.954 86.2585C107.363 87.028 107.572 87.9055 107.581 88.8908C107.589 89.8761 107.396 90.7515 106.999 91.5171C106.603 92.2827 105.99 92.8868 105.161 93.3295C104.332 93.7667 103.269 93.9909 101.974 94.002L97.4012 94.0414L97.3854 92.2123L101.893 92.1735C102.786 92.1658 103.503 92.029 104.045 91.763C104.593 91.497 104.987 91.1234 105.228 90.6422C105.474 90.1556 105.594 89.5775 105.589 88.9079C105.583 88.2383 105.453 87.6542 105.198 87.1555C104.943 86.6569 104.54 86.2738 103.987 86.0064C103.435 85.7335 102.707 85.6009 101.804 85.6087L98.2435 85.6393L98.3719 100.566L96.3468 100.583ZM104.154 93.0033L108.334 100.48L105.982 100.501L101.867 93.023L104.154 93.0033ZM112.936 83.7164L113.08 100.439L111.055 100.457L110.911 83.7338L112.936 83.7164ZM128.473 88.8091C128.289 88.2608 128.048 87.7702 127.75 87.3372C127.458 86.8988 127.109 86.5261 126.704 86.2193C126.304 85.9124 125.85 85.6795 125.342 85.5206C124.834 85.3616 124.278 85.2847 123.674 85.2899C122.683 85.2984 121.785 85.562 120.978 86.0807C120.171 86.5994 119.533 87.3589 119.062 88.3592C118.592 89.3596 118.363 90.5837 118.375 92.0318C118.388 93.4798 118.64 94.6998 119.133 95.6919C119.626 96.6839 120.289 97.4322 121.121 97.9368C121.953 98.4414 122.886 98.6893 123.92 98.6804C124.878 98.6721 125.72 98.4607 126.446 98.0462C127.177 97.6261 127.744 97.0387 128.146 96.284C128.553 95.5237 128.752 94.6319 128.743 93.6085L129.365 93.7338L124.335 93.7771L124.32 91.9806L130.689 91.9259L130.704 93.7223C130.716 95.0996 130.432 96.2997 129.853 97.3227C129.28 98.3457 128.481 99.142 127.457 99.7115C126.438 100.276 125.264 100.563 123.936 100.575C122.456 100.588 121.151 100.25 120.024 99.5631C118.902 98.8759 118.023 97.8927 117.386 96.6133C116.754 95.334 116.43 93.8124 116.415 92.0486C116.404 90.7258 116.571 89.5348 116.915 88.4757C117.266 87.4111 117.764 86.5031 118.411 85.7517C119.058 85.0002 119.826 84.422 120.715 84.0169C121.605 83.6119 122.585 83.4047 123.658 83.3955C124.54 83.3879 125.363 83.5142 126.127 83.7744C126.897 84.0291 127.583 84.3961 128.186 84.8755C128.795 85.3493 129.303 85.9193 129.712 86.5854C130.12 87.2461 130.404 87.9813 130.564 88.7911L128.473 88.8091ZM134.229 100.258L134.085 83.5345L136.11 83.5171L136.174 90.9641L145.091 90.8874L145.027 83.4404L147.052 83.423L147.196 100.146L145.171 100.164L145.107 92.6838L136.19 92.7605L136.254 100.24L134.229 100.258ZM150.207 85.1924L150.192 83.396L162.734 83.2881L162.75 85.0845L157.491 85.1297L157.619 100.056L155.594 100.074L155.466 85.1472L150.207 85.1924Z" fill="#A61C21"/>
</svg>
