<svg width="164" height="230" viewBox="0 0 164 230" fill="none" xmlns="http://www.w3.org/2000/svg">
<path d="M56.9348 166.481C56.9348 166.481 52.0339 156.36 30.7899 138.08C9.54585 119.8 -10.7101 80.2748 8.06385 40.7509C26.8379 1.22685 89.6519 -9.65616 122.472 10.6068C155.291 30.8698 177.169 78.7388 150.421 115.573C124.235 151.634 110.498 153.748 109.767 165.698C109.751 165.954 109.741 166.215 109.737 166.481H56.9348Z" fill="white" fill-opacity="0.28"/>
<path d="M56.9766 214.051L110.59 214.761C110.59 214.761 101.543 229.752 83.1466 229.626C64.7496 229.5 56.9766 214.051 56.9766 214.051Z" fill="#A1A1A1"/>
<path d="M108.5 176.676C108.5 179.573 105.776 181.923 102.415 181.923H62.3848C59.0248 181.923 56.2998 179.574 56.2998 176.676C56.2998 173.779 59.0238 171.43 62.3848 171.43H102.415C105.776 171.43 108.5 173.779 108.5 176.676Z" fill="#A1A1A1"/>
<path d="M109.779 190.056C109.779 192.9 107.055 195.206 103.694 195.206H63.6636C60.3036 195.206 57.5796 192.9 57.5796 190.056C57.5796 187.212 60.3036 184.906 63.6636 184.906H103.694C107.055 184.906 109.779 187.212 109.779 190.056Z" fill="#A1A1A1"/>
<path d="M103 203.661C103 206.505 100.615 208.811 97.6727 208.811H62.6307C59.6897 208.811 57.3047 206.505 57.3047 203.661C57.3047 200.817 59.6897 198.511 62.6307 198.511H97.6727C100.615 198.511 103 200.816 103 203.661Z" fill="#A1A1A1"/>
<path d="M160.669 55.3329C144.919 2.59587 79.0469 -12.3151 35.7699 16.0619C8.45393 33.9749 -2.79707 70.3269 7.65793 100.932C12.5859 115.356 22.8709 127.495 34.6319 136.883C44.2859 144.59 54.8199 152.982 56.3019 166.252C56.3289 166.487 56.7879 166.482 56.9339 166.482C74.5349 166.482 92.1349 166.482 109.736 166.482C110.077 166.482 111.192 166.277 111.244 165.801C113.423 146.259 134.326 137.32 146.037 123.95C162.858 104.747 167.182 79.6519 160.669 55.3329C160.504 54.7169 158.356 55.2929 158.521 55.9089C163.638 75.0109 162.339 94.1679 152.791 111.636C148.887 118.779 143.522 125.07 137.692 130.7C131.51 136.67 123.989 140.929 118.211 147.328C114.341 151.615 111.551 156.969 109.89 162.472C109.54 163.634 109.281 164.838 109.122 166.041C109.218 165.316 111.513 165.444 109.715 165.444C108.549 165.444 107.382 165.444 106.217 165.444C98.0909 165.444 89.9639 165.444 81.8389 165.444C76.5599 165.444 71.2799 165.444 66.0009 165.444C63.7959 165.444 61.5909 165.444 59.3859 165.444C57.5089 165.444 58.5359 165.989 58.2489 164.407C55.6629 150.169 44.2699 142.457 33.9079 133.872C4.43593 109.459 -2.90407 67.7809 18.2589 35.3129C34.0489 11.0889 64.6109 0.31587 92.5269 3.04687C123.078 6.03687 149.679 26.2989 158.521 55.9069C158.707 56.5309 160.848 55.9319 160.669 55.3329Z" fill="white"/>
<path d="M108.432 176.779C106.937 184.189 89.5821 180.986 84.6111 180.986C79.6101 180.986 74.6091 180.986 69.6091 180.986C66.3471 180.986 62.6861 181.63 59.8171 179.696C58.6641 174.68 59.4301 172.203 62.1181 172.267C62.5571 172.267 62.9961 172.267 63.4351 172.267C65.2041 172.267 66.9731 172.267 68.7421 172.267C73.7421 172.267 78.7431 172.267 83.7441 172.267C89.5151 172.267 106.855 169.12 108.428 176.915C108.559 177.562 110.717 177.034 110.576 176.339C109.583 171.422 106.178 171.171 102.029 171.171C95.2401 171.171 88.4521 171.171 81.6631 171.171C75.2021 171.171 58.1581 167.622 56.3091 176.781C54.6001 185.251 80.4561 182.084 83.7441 182.084C90.0211 182.084 96.3001 182.084 102.577 182.084C106.659 182.084 109.683 180.873 110.571 176.474C110.715 175.754 108.565 176.121 108.432 176.779Z" fill="white"/>
<path d="M108.424 190.288C106.948 197.603 89.461 194.425 84.584 194.425C77.309 194.425 70.035 194.425 62.76 194.425C55.959 194.425 60.148 185.907 63.461 185.907C64.867 185.907 66.273 185.907 67.678 185.907C72.55 185.907 77.422 185.907 82.294 185.907C87.295 185.907 92.296 185.907 97.297 185.907C101.201 185.907 107.243 184.586 108.427 190.454C108.589 191.256 110.743 190.715 110.575 189.878C109.596 185.031 106.187 184.609 102.001 184.609C95.212 184.609 88.424 184.609 81.635 184.609C75.084 184.609 58.159 181.08 56.299 190.289C54.557 198.914 80.385 195.724 83.769 195.724C90.046 195.724 96.325 195.724 102.602 195.724C106.738 195.724 109.692 194.428 110.577 190.044C110.756 189.161 108.582 189.504 108.424 190.288Z" fill="white"/>
<path d="M108.424 203.823C106.95 211.126 89.4459 207.952 84.5809 207.952C77.3059 207.952 70.0309 207.952 62.7569 207.952C55.9789 207.952 60.1599 199.457 63.4649 199.457C64.8699 199.457 66.2759 199.457 67.6819 199.457C72.5539 199.457 77.4259 199.457 82.2979 199.457C87.2989 199.457 92.2989 199.457 97.2989 199.457C101.195 199.457 107.245 198.138 108.427 203.993C108.593 204.814 110.747 204.271 110.575 203.417C109.595 198.567 106.188 198.136 101.998 198.136C95.2089 198.136 88.4199 198.136 81.6319 198.136C75.0669 198.136 58.1599 194.604 56.2989 203.824C54.5529 212.471 80.3809 209.274 83.7729 209.274C90.0499 209.274 96.3279 209.274 102.606 209.274C106.748 209.274 109.693 207.976 110.579 203.586C110.761 202.686 108.585 203.024 108.424 203.823Z" fill="white"/>
<path d="M83.4189 229.621C93.4859 229.351 109.846 225.807 110.793 213.262C110.821 212.885 110.451 212.701 110.114 212.701C92.6679 212.701 75.2229 212.701 57.7769 212.701C57.2249 212.701 56.2489 212.945 56.3029 213.664C57.2349 226.008 73.2369 229.362 83.1469 229.626C84.0439 229.65 85.4029 228.314 83.9459 228.275C74.4669 228.022 59.3409 224.896 58.4509 213.087C57.9599 213.408 57.4689 213.73 56.9769 214.05C68.3769 214.05 79.7759 214.05 91.1759 214.05C96.7859 214.05 102.396 214.05 108.005 214.05C110.869 214.05 106.381 219.751 105.266 221.005C100.113 226.799 90.9379 228.087 83.6729 228.281C82.5409 228.313 81.9449 229.66 83.4189 229.621Z" fill="white"/>
<path d="M57.7721 166.568C63.7831 161.852 68.2821 154.993 69.2891 147.378C70.3671 139.217 64.2621 129.203 60.9021 122.096C56.3451 112.457 51.1651 103.059 45.0041 94.3482C41.0771 88.7962 35.1141 80.5852 27.7941 79.4222C14.9751 77.3862 15.5231 91.4512 22.6971 98.0042C36.9491 111.024 51.9391 90.8872 57.3651 79.5562C57.5861 79.0952 55.5221 79.2952 55.2361 79.8922C51.0641 88.6042 44.0441 101.595 32.5731 100.801C27.0811 100.421 22.4851 95.9862 20.2621 91.2472C17.8861 86.1812 19.6261 78.6832 27.1431 80.6022C32.9561 82.0862 37.6141 88.1432 41.1131 92.5962C50.3411 104.337 57.1091 118.339 62.9671 132.006C65.6861 138.35 68.1201 144.194 66.5281 151.261C65.2091 157.11 60.7651 162.732 56.0971 166.394C55.1931 167.104 57.3441 166.904 57.7721 166.568Z" fill="white"/>
<path d="M102.761 165.157C92.8621 139.995 106.669 112.591 120.414 91.7469C123.855 86.5279 127.822 81.2859 133.024 77.7109C139.079 73.5499 142.011 78.3849 140.443 83.5609C139.014 88.2779 134.801 92.4859 130.186 93.9989C121.228 96.9339 114.752 85.7569 111.654 79.4359C111.275 78.6639 109.177 79.3409 109.506 80.0119C114.993 91.2059 125.276 101.161 137.003 91.5099C141.862 87.5109 147.766 73.6229 136.483 75.0259C131.389 75.6589 126.857 80.6679 123.857 84.3429C117.187 92.5069 112.004 101.741 107.368 111.177C99.0671 128.069 93.3811 147.346 100.615 165.734C100.923 166.521 103.046 165.883 102.761 165.157Z" fill="white"/>
<path d="M56.2492 34.8983C56.9862 34.8413 57.3842 35.1823 57.4402 35.6353C57.4972 36.3723 56.9862 37.0533 56.3062 37.0533C55.7952 37.0533 55.1152 36.4293 55.1152 35.9183C55.1152 35.4653 55.6832 34.8983 56.2492 34.8983ZM55.6262 79.7643C55.6262 77.4953 55.5692 74.9433 55.5122 72.8443C55.4562 69.8953 55.6832 68.1933 55.8532 66.0383C56.1372 62.6913 56.3072 59.6853 56.0802 56.2253C55.9102 53.6163 56.0802 50.4403 55.9102 47.8313C55.7962 45.9593 55.9672 43.1233 55.5132 40.6273C55.4572 40.4573 55.5132 40.2313 55.5702 40.0603C55.7972 39.6073 56.4782 39.4943 56.8752 39.7773C57.1582 40.0043 57.3852 40.4573 57.4412 40.7983C57.5552 41.4223 57.5552 42.0463 57.5552 42.6703L57.7252 50.1573C57.8392 53.8443 57.8952 58.5523 57.8392 61.5583C57.7822 64.1103 57.4992 66.6063 57.3852 68.7613C57.3282 69.8963 57.3852 71.0293 57.3852 73.0153C57.3852 74.6033 57.5552 76.7023 57.6122 78.2903C57.6122 78.6313 57.6122 79.0283 57.5552 79.3683C57.4982 79.9923 57.0452 80.2763 56.4202 80.1053C56.1362 80.0483 55.9092 79.8773 55.6262 79.7643Z" fill="white"/>
<path d="M65.3231 79.5941C65.2091 79.3101 65.0391 79.1401 65.0391 79.0271C65.0961 77.2111 65.0961 75.3971 65.2091 73.5251C65.2661 72.2201 65.4931 70.9151 65.6061 69.5551C65.6631 68.3061 65.6061 67.1161 65.6061 65.9811C65.6061 65.0741 65.4921 64.2231 65.5491 63.3151C65.6631 60.7621 65.4361 58.2671 65.2081 55.6581C65.0381 53.1051 65.1521 50.4391 65.2081 47.8301C65.3221 45.5611 65.3791 43.2921 64.9811 41.0231C64.8111 39.5481 64.8111 38.0731 64.7541 36.5421C64.6971 35.7481 65.3211 35.1241 65.7181 34.5001C65.8311 34.3301 66.3421 34.2161 66.5121 34.3301C68.4401 35.4081 70.5961 35.8611 72.4111 36.9951C73.8291 37.9601 75.1331 39.1501 75.8141 40.8521C76.3241 42.2131 76.7221 43.6311 76.7221 45.1621C76.7221 48.2821 76.8351 51.4021 76.8351 54.6351C76.8351 54.9191 76.8921 55.1451 76.8351 55.3731C76.3811 61.1581 76.4951 66.9431 76.6651 72.7291C76.7221 74.5441 75.9841 75.7921 74.8501 76.9261C72.9221 79.0251 70.3701 79.9891 67.7041 80.3861C67.4201 80.4431 67.1371 80.3301 66.9671 80.2731C66.6271 80.1031 66.4571 79.8761 66.2301 79.7631C65.9471 79.6501 65.6071 79.6501 65.3231 79.5941ZM66.9681 78.0631C67.3081 78.1761 67.5911 78.3471 67.8191 78.2901C70.0311 78.0631 72.0161 77.2121 73.7751 75.5111C74.4561 74.8871 74.8521 73.9791 74.8521 72.9021V71.0871C74.7961 68.4781 74.7391 65.8681 74.7961 63.2591C74.8521 60.8771 75.0801 58.6081 75.1921 56.2251C75.2491 55.4311 75.1351 54.6371 75.1351 53.7861C75.1351 53.0491 75.0791 52.1991 75.0791 51.4051C75.0221 49.3631 74.9651 47.2641 74.8511 45.1651C74.6811 41.8751 73.1501 39.5501 70.3711 38.3021C69.5761 37.9041 68.7831 37.5651 67.9321 37.2811C67.6491 37.1111 67.1381 37.0541 66.6851 36.8851C66.5151 38.0751 66.6281 39.1531 66.6281 40.1741C66.9681 44.5981 67.0241 49.0791 66.7421 53.4471C66.6851 54.5251 66.6851 55.6021 66.9121 56.6801C67.1961 58.2681 67.1391 59.8561 67.1391 61.5011V63.7131C67.1391 66.0381 67.2531 68.3641 67.0251 70.7461C66.7421 73.1851 66.7981 75.5101 66.9681 78.0631Z" fill="white"/>
<path d="M85.0611 77.835C85.7981 77.778 86.4231 77.722 87.1601 77.608C87.3311 77.608 87.5011 77.608 87.6711 77.551H88.5791C88.6921 77.551 88.8061 77.551 88.9191 77.551H89.6561C90.2801 77.551 90.9031 77.551 91.6411 77.324C91.9241 77.267 92.2081 77.267 92.4921 77.154H92.6621C92.7181 77.154 92.7181 77.154 92.7761 77.154C93.3421 77.154 93.6831 77.55 93.7401 77.948C93.7961 78.345 93.7401 78.912 93.5121 79.253C93.3991 79.537 93.0581 79.99 92.5481 79.99C92.4341 79.99 92.3211 79.933 92.1511 79.877C91.9811 79.764 91.8111 79.764 91.6411 79.764C91.3571 79.764 91.0741 79.82 90.7891 79.877L90.7331 79.934C90.6761 79.934 90.6191 79.934 90.5631 79.991C90.3931 80.048 90.2231 80.104 90.0531 80.104C89.9961 80.104 89.9391 80.104 89.9391 80.048C89.5981 79.991 89.2021 79.991 88.8041 79.991C88.1801 79.991 87.6131 80.048 86.9891 80.104C86.3651 80.162 85.7981 80.218 85.2311 80.218H84.9471C84.3801 80.218 83.6991 80.162 82.9051 80.048C82.4511 79.991 81.9971 79.254 81.9971 78.687V78.403C81.9971 78.346 82.0541 78.289 82.0541 78.233C82.3371 75.964 82.3371 73.638 82.2811 71.086C82.2811 70.519 82.3381 70.008 82.3951 69.441L82.5091 68.306C82.5091 67.796 82.5091 67.342 82.5091 66.889C82.5651 64.79 82.6791 62.691 82.8491 60.65C82.9631 59.401 82.9061 58.211 82.7931 57.076C82.5651 53.219 82.6221 49.248 82.6791 45.448V44.144C82.6791 42.499 82.6221 40.74 82.5091 39.152C82.4521 38.471 82.4521 37.791 82.3951 37.11C82.3951 36.996 82.3951 36.826 82.3381 36.656C82.3381 36.316 82.2811 35.976 82.2811 35.692C82.3381 35.351 82.7351 34.727 83.0751 34.727H83.1321C83.5291 34.727 83.8701 34.671 84.3231 34.557C84.7771 34.557 85.2311 34.5 85.6841 34.5H86.2511C87.2721 34.613 88.4071 34.67 89.4281 34.67C89.8821 34.726 90.4491 34.726 90.9031 34.726H91.1871C91.5271 34.783 91.8111 34.783 92.0951 34.84C92.4351 34.897 92.6051 35.124 92.7761 35.407C92.9461 35.634 93.0021 35.974 92.9461 36.201C92.7761 36.882 92.3791 37.222 91.9241 37.222H91.6411C90.7891 36.938 89.8821 36.825 88.7481 36.825H87.3871C86.8761 36.882 86.3091 36.882 85.7421 36.825C85.5721 36.825 85.4581 36.768 85.4021 36.768C85.0051 36.768 84.7211 36.882 84.4941 37.052V38.186C84.4941 39.094 84.4941 40.058 84.4941 41.079V43.461C84.4941 44.085 84.4941 44.652 84.4371 45.333V45.446V49.53C84.4371 50.438 84.4371 51.459 84.4941 52.423V53.501C84.8901 53.501 85.2881 53.501 85.6281 53.445C86.7631 53.331 87.8971 53.218 88.9741 53.161C89.0881 53.161 89.2021 53.161 89.3711 53.104C89.5981 53.104 89.8251 53.047 89.9951 53.047C90.3351 53.047 90.7891 53.104 91.2431 53.558L91.3561 53.671V53.784C91.1861 54.919 91.0161 55.769 90.0521 55.769C89.8811 55.769 89.6551 55.712 89.3141 55.656C88.8601 55.542 88.2361 55.485 87.6121 55.485C86.6481 55.485 85.6841 55.656 84.4931 55.996C84.4931 56.053 84.4931 56.11 84.4931 56.167C84.8891 58.776 84.7201 61.272 84.4931 63.824C84.3791 65.298 84.3231 66.83 84.3231 68.475V75.111C84.3231 76.076 84.3231 76.983 84.3231 77.834H85.0611V77.835Z" fill="white"/>
<path d="M108.939 74.0921C105.82 73.4681 102.983 74.6021 99.9774 74.4321L99.6374 75.8491C99.4104 76.9271 99.2404 78.0611 99.0704 79.1391C98.9004 79.8191 98.5034 80.0471 97.8794 79.9331C97.2554 79.7631 96.9724 79.4231 97.0854 78.6851L97.5954 76.0191C97.8794 74.5441 98.1064 73.0131 98.3904 71.5391L99.1274 67.0581C99.6374 63.4841 100.205 59.9121 100.715 56.3941C101.169 52.9341 101.736 49.5311 102.132 46.1281C102.473 43.4621 102.643 40.7391 102.87 38.0731C102.927 36.9391 103.381 36.0881 104.345 35.5201C104.743 35.2371 105.423 35.4071 105.593 35.8611C105.82 36.4851 106.104 37.1651 106.104 37.8461C105.99 39.4341 106.274 40.9651 106.5 42.5541C106.84 44.9371 107.011 47.3751 107.294 49.7581C107.747 53.6141 108.258 57.4151 108.769 61.2721L110.13 70.9141C110.3 71.9931 110.527 73.0701 110.753 74.1481C111.037 75.5661 111.32 76.9841 111.548 78.4021C111.604 78.7421 111.604 79.0821 111.604 79.4231C111.548 79.9331 111.037 80.3311 110.583 80.2741C110.073 80.2741 109.619 79.8771 109.562 79.4231C109.392 78.1741 109.279 76.9841 109.165 75.7361C109.11 75.2831 108.996 74.7731 108.939 74.0921ZM104.401 42.1021C104.117 44.5411 103.947 46.4701 103.664 48.3981C103.437 49.8151 103.097 51.2331 102.87 52.6521C102.473 55.2611 102.189 57.8701 101.849 60.4801C101.508 62.8621 101.054 65.2441 100.77 67.6261C100.6 69.0441 100.034 70.4051 100.316 71.9941C100.713 72.1641 101.11 72.3901 101.565 72.4481C102.189 72.5051 102.813 72.4481 103.437 72.3911C105.082 72.2211 106.669 72.0511 108.372 71.8811V70.9161C108.088 68.8751 107.747 66.8331 107.465 64.7911C107.068 61.8411 106.614 58.8921 106.216 55.9991C105.932 53.7871 105.592 51.6311 105.366 49.4201C105.196 47.4351 105.082 45.4491 104.855 43.4081C104.855 43.1231 104.685 42.8391 104.401 42.1021Z" fill="white"/>
</svg>
