<svg width="288" height="710" viewBox="0 0 288 710" fill="none" xmlns="http://www.w3.org/2000/svg">
<path d="M269.231 343.34C256.641 381.889 240.493 393.999 225.106 451.257C222.19 462.107 218.337 478.168 207.268 496.8C199.663 509.601 183.603 536.633 154.555 542.882C150.961 543.655 138.217 546.036 124.348 541.555C95.448 532.218 82.461 499.807 63.515 453.51C10.083 322.942 7.65503 322.377 6.35903 302.748C4.96503 281.626 2.42804 234.208 28.273 185.393C37.953 167.11 70.921 104.841 134.039 97.806C190.255 91.54 236.9 132.82 258.903 168.1C303.243 239.195 274.073 328.514 269.231 343.34Z" fill="#C63C41"/>
<path d="M186.547 670.607C183.579 659.112 177.085 649.563 168.515 642.37C183.588 640.561 198.33 635.667 211.713 627.698C213.389 626.7 213.265 624.405 211.713 623.381C204.801 618.819 197.466 615.043 189.858 612.052C198.63 608.451 206.979 603.712 214.631 597.853C216.116 596.716 216.347 594.632 214.631 593.536C206.916 588.606 198.712 584.652 190.211 581.692C200.126 576.845 209.374 570.47 217.552 562.64C218.943 561.308 218.209 558.99 216.449 558.462C204.446 554.86 192.157 552.468 179.773 551.288C193.33 543.925 204.628 532.968 212.446 519.674C220.094 506.67 224.345 492.087 228.846 477.793C239.841 442.874 251.884 407.268 258.39 370.926C260.502 364.65 262.545 358.35 264.489 352.014C269.109 336.963 273.234 321.774 277.236 306.549C280.362 294.658 283.706 282.699 285.48 270.512C288.172 252.016 288.146 232.611 285.72 214.116C282.089 186.43 271.838 159.797 253.552 138.439C235.255 117.067 210.07 101.729 183.136 93.9281C130.137 78.5771 72.26 94.9321 37.52 138.258C17.698 162.98 4.26303 194.703 1.06403 226.363C-0.382967 240.68 1.05004 254.952 3.28104 269.109C5.91004 285.785 8.99904 302.432 13.375 318.746C15.496 326.652 17.921 334.463 20.615 342.176C30.168 391.235 55.595 436.621 80.001 479.667C87.628 493.12 94.759 507.179 103.635 519.868C110.647 529.892 119.459 539.089 130.887 543.955C142.834 549.042 156.587 548.775 168.516 543.771C180.102 538.911 188.84 529.63 195.622 519.283C204.072 506.39 209.921 491.94 215.988 477.835C222.494 462.71 228.971 447.572 235.239 432.346C238.19 425.177 241.073 417.982 243.884 410.76C238.129 431.909 231.461 452.823 224.888 473.715C220.391 488.011 216.328 502.686 208.901 515.808C201.133 529.532 189.663 540.6 175.636 547.829C173.679 548.838 171.683 549.743 169.668 550.596C149.319 549.741 128.856 552.139 109.119 557.797C106.25 558.619 107.093 562.414 109.784 562.708C130.149 564.933 151.451 563.413 170.518 555.648C184.081 556.297 197.586 558.433 210.791 562.05C202.445 569.386 193.078 575.219 183.096 579.469C159.175 572.816 133.388 573.847 109.786 583.13C107.557 584.007 107.28 587.173 109.786 587.951C134.236 595.546 160.27 594.128 183.336 584.761C192.2 587.366 200.792 591.079 208.901 595.887C200.715 601.678 191.83 606.214 182.54 609.444C159.336 602.026 134.056 601.746 110.453 609.129C108.006 609.894 108.159 613.124 110.453 613.95C133.847 622.374 159.401 622.408 182.588 614.74C190.567 617.42 198.282 620.989 205.579 625.423C192.182 632.697 177.463 636.901 162.531 637.951C154.084 632.456 144.229 628.925 133.993 627.672C125.788 626.668 117.184 626.677 109.037 628.256C107.004 628.65 106.521 631.932 108.44 632.825C125.248 640.651 143.544 644.012 161.593 642.984C180.198 656.306 189.698 682.24 176.602 702.69C174.893 705.359 172.921 707.786 170.751 710H177.07C185.994 699.466 190.477 685.827 186.547 670.607ZM8.64603 271.134C6.32003 257.063 4.67702 242.87 5.86002 228.601C6.89102 216.165 9.91703 203.931 13.951 192.147C27.541 152.443 55.06 117.101 95.107 101.788C148.398 81.4111 212.327 98.4431 249.552 141.439C279.419 175.936 287.225 225.955 280.517 270.122C278.759 281.701 275.602 293.073 272.632 304.384C269.332 316.956 265.939 329.501 262.267 341.968C263.006 333.259 263.337 324.508 263.169 315.714C262.919 302.663 261.426 289.761 259.743 276.832C260.474 268.219 261.085 259.612 261.62 251.05C262.957 229.625 263.289 207.061 255.775 186.618C247.662 164.546 230.605 146.541 211.075 133.93C185.984 117.728 155.24 110.376 125.703 116.089C101.593 120.752 80.242 134.226 63.971 152.39C53.402 164.188 44.673 177.76 38.231 192.229C32.851 204.311 29.636 216.799 28.184 229.472C27.769 230.893 27.364 232.318 26.981 233.748C20.103 259.411 15.587 285.916 16.939 312.548C13.506 298.888 10.943 285.03 8.64603 271.134ZM21.979 313.475C20.845 293.181 23.241 273.103 27.44 253.332C27.917 263.486 29.346 273.671 31.546 283.78C38.179 314.262 49.426 344.258 61.27 373.079C71.107 397.017 82.833 420.155 96.298 442.257C113.605 470.668 133.738 497.282 156.017 521.974C157.147 523.226 159.109 522.748 159.943 521.468C184.739 483.451 206.787 441.213 215.807 396.393C220.117 374.977 218.556 350.069 205.954 331.55C195.098 315.596 175.394 305.562 156.8 313.334C151.356 312.157 145.619 312.23 140.36 313.613C120.685 318.787 103.892 336.558 98.166 355.822C91.298 378.929 99.08 403.731 109.048 424.697C118.862 445.337 131.257 465.077 146.683 481.974C148.857 484.356 152.385 480.812 150.218 478.438C138.303 465.386 128.693 450.734 120.151 435.31C111.641 419.944 104.226 403.496 101.522 386.012C98.507 366.519 103.441 347.585 117.423 333.347C125.642 324.978 137.638 317.278 149.739 317.363C144.596 321.276 140.673 326.864 139.82 333.36C138.681 342.033 143.519 350.826 150.543 355.716C167.488 367.513 185.146 348.186 178.497 330.716C175.956 324.041 170.922 319.155 164.843 316.133C183.004 312.728 199.036 326.483 206.368 342.466C215.113 361.529 214.033 383.247 209.161 403.121C199.263 443.499 179.905 481.287 157.465 516.103C119.619 473.679 88.279 425.379 66.517 372.783C55.346 345.786 44.989 317.79 37.986 289.413C33.202 270.029 30.959 250.198 33.038 230.763C39.871 207.511 50.914 185.719 69.814 169.809C91.378 151.656 120.238 142.718 148.231 143.242C175.243 143.747 202.567 153.638 220.922 173.999C237.74 192.655 244.874 217.675 249.42 241.824C251.476 252.744 253.365 263.827 254.864 274.973C253.17 295.314 250.864 315.717 247.166 335.666C242.954 358.392 236.243 380.524 228.501 402.275C218.386 430.694 207.115 458.762 195.697 486.678C188.57 504.103 174.644 540.097 149.72 525.938C139.081 519.894 130.857 509.478 123.303 500.103C113.749 488.245 104.692 475.951 95.602 463.735C67.02 425.323 41.335 385.32 25.369 340.389C23.663 331.517 22.485 322.54 21.979 313.475ZM157.425 318.54C158.035 318.729 158.644 318.933 159.25 319.172C166.534 322.036 173.413 327.725 174.742 335.834C176.271 345.16 169.485 356.727 158.854 354.146C150.787 352.187 144.26 343.47 144.661 335.19C145.03 327.59 150.8 321.717 157.425 318.54ZM252.966 234.067C247.811 209.514 239.148 184.708 220.886 166.732C180.482 126.962 109.829 130.725 67.511 165.253C56.922 173.893 48.5961 184.381 42.0321 195.948C42.0991 195.792 42.161 195.635 42.229 195.479C57.333 160.728 86.204 129.952 124.173 121.507C153.253 115.038 183.77 122.246 208.553 138.248C227.774 150.659 244.647 168.677 251.918 190.711C258.515 210.702 257.872 232.409 256.487 253.145C256.48 253.25 256.472 253.355 256.466 253.46C255.448 246.969 254.316 240.497 252.966 234.067ZM233.661 423.079C227.869 437.376 221.847 451.579 215.773 465.758C209.699 479.938 203.959 494.399 196.551 507.954C190.342 519.313 182.533 530.541 171.01 537.02C159.409 543.543 144.77 544.61 132.53 539.24C120.73 534.063 112.048 523.895 105.23 513.269C97.065 500.543 89.9261 487.068 82.4891 473.908C67.2731 446.981 52.259 419.709 40.678 390.979C39.307 387.577 37.994 384.15 36.734 380.703C39.959 387.284 43.3851 393.77 47.0021 400.153C61.2431 425.286 78.153 448.769 95.464 471.85C104.947 484.494 114.287 497.333 124.516 509.39C131.783 517.955 140.03 527.353 150.56 531.936C174.413 542.317 188.762 515.192 196.601 497.302C209.468 467.938 221.001 437.707 231.904 407.558C240.232 384.53 247.52 361.103 251.988 336.995C254.255 324.763 256.03 312.363 257.46 299.907C257.932 306.635 258.203 313.358 258.215 320.055C258.246 336.914 256.402 353.629 253.37 370.159C247.357 387.998 240.732 405.622 233.661 423.079ZM127.249 558.641C136.21 556.953 145.263 555.935 154.334 555.578C145.496 557.662 136.373 558.6 127.249 558.641ZM118.938 585.217C137.203 579.557 156.404 578.753 174.761 582.603C156.94 588.449 137.623 589.467 118.938 585.217ZM120.047 611.713C137.791 607.595 156.161 607.805 173.606 612.124C156.175 616.52 137.712 616.473 120.047 611.713ZM153.444 638.201C141.89 638.022 130.347 635.954 119.324 631.954C130.899 631.241 143.086 633.277 153.444 638.201Z" fill="white"/>
<path d="M66.1211 235.836C58.4021 256.207 72.2061 280.569 95.1201 280.38C114.008 280.224 135.418 261.817 123.172 242.37C118.512 234.969 109.829 230.411 101.293 233.854C92.4701 237.412 87.0371 247.893 87.9141 257.156C88.7661 266.146 96.0441 275.626 105.319 277.001C114.576 278.373 121.452 270.117 123.992 262.166C127.958 249.749 128.785 235.148 127.786 222.23C126.723 208.478 123.697 195.001 119.111 182.003C118.34 179.818 114.892 179.442 114.29 182.003C110.386 198.598 107.794 216.138 109.308 233.222C110.662 248.499 113.446 277.716 134.604 277.57C142.976 277.512 151.227 272.54 156.052 265.859C159.785 260.691 163.074 252.599 160.44 246.347C157.192 238.635 146.839 238.046 140.368 241.78C133.274 245.874 131.596 254.803 133.692 262.225C139.268 281.973 167.973 280.865 179.635 267.935C180.314 267.182 180.697 265.814 180.026 264.905C174.97 258.067 174.795 249.239 179.693 242.262C178.254 241.421 176.815 240.58 175.376 239.738C168.788 249.671 170.175 263.93 179.789 271.514C189.32 279.034 202.926 274.595 209.636 265.47C217.294 255.056 213.77 240.774 203.339 233.672C193.406 226.91 182.044 230.726 175.377 239.905C174.578 241.006 175.204 242.687 176.274 243.326C185.707 248.955 197.82 246.049 203.861 236.971C202.338 236.329 200.815 235.687 199.292 235.045C195.124 245.53 196.849 257.994 204.798 266.22C213.111 274.822 226.182 274.368 235.137 267.019C237.626 264.977 234.071 261.457 231.602 263.483C223.908 269.796 212.74 268.812 206.716 260.794C201.391 253.706 200.9 244.457 204.114 236.374C205.21 233.617 201.028 232.218 199.545 234.448C195.014 241.257 185.77 243.17 178.799 239.009C179.098 240.149 179.397 241.289 179.696 242.43C184.61 235.665 192.864 232.896 200.252 237.601C209.144 243.264 211.738 255.515 204.723 263.652C199.047 270.235 188.645 273.187 181.801 266.642C175.071 260.205 174.705 249.788 179.696 242.264C181.491 239.558 177.206 237.137 175.379 239.74C169.547 248.049 169.669 259.257 175.712 267.43C175.842 266.42 175.973 265.41 176.103 264.4C168.157 273.21 146.809 277.091 139.895 264.364C136.68 258.446 136.728 249.207 143.459 245.776C146.775 244.086 152.25 243.706 154.937 246.769C157.417 249.596 156.186 254.113 155.023 257.217C150.347 269.701 133.522 278.683 123.426 266.728C118.092 260.412 116.948 251.772 115.659 243.875C114.745 238.273 114.095 232.595 113.911 226.918C113.439 212.331 115.787 197.478 119.115 183.333C117.508 183.333 115.901 183.333 114.294 183.333C120.035 199.605 123.781 217.149 123.088 234.49C122.699 244.208 120.016 281.805 101.323 270.18C93.4491 265.284 90.8171 255.164 94.7701 246.958C98.5261 239.161 107.469 234.46 115.015 240.502C121.502 245.697 123.99 255.339 119.477 262.524C115.392 269.026 107.785 273.34 100.399 274.828C78.4571 279.248 63.5821 256.599 70.9461 237.166C72.0841 234.153 67.2531 232.851 66.1211 235.836Z" fill="white"/>
<path d="M73.2891 218.29C76.7301 220.287 75.4271 226.283 71.0631 225.404C65.7301 224.329 67.9211 217.401 72.8091 218.034C75.9911 218.446 75.9611 213.442 72.8091 213.034C68.0741 212.421 63.5551 216.26 62.8941 220.89C62.2581 225.342 65.4831 229.228 69.7341 230.226C73.9681 231.219 78.3281 229.182 79.7701 224.971C81.1671 220.893 79.5591 216.147 75.8131 213.974C73.0241 212.355 70.5041 216.674 73.2891 218.29Z" fill="white"/>
<path d="M143.902 71.608C142.132 48.591 140.363 25.575 138.593 2.55799C138.348 -0.630013 133.346 -0.656013 133.593 2.55799C135.363 25.575 137.132 48.591 138.902 71.608C139.147 74.795 144.149 74.822 143.902 71.608Z" fill="white"/>
<path d="M161.599 73.6699C165.583 62.1649 169.567 50.6599 173.551 39.1549C174.606 36.1079 169.778 34.7989 168.73 37.8259C164.746 49.3309 160.762 60.8359 156.778 72.341C155.723 75.387 160.551 76.6969 161.599 73.6699Z" fill="white"/>
<path d="M122.864 72.2911C113.792 61.8541 104.72 51.4181 95.649 40.9811C93.534 38.5481 90.01 42.0971 92.114 44.5171C101.186 54.9541 110.258 65.3901 119.329 75.8271C121.443 78.2601 124.967 74.7111 122.864 72.2911Z" fill="white"/>
<path d="M179.54 81.1709C185.012 75.6439 190.483 70.1159 195.955 64.5889C198.221 62.2999 194.688 58.7619 192.42 61.0529C186.948 66.5799 181.477 72.1079 176.005 77.6349C173.738 79.9239 177.272 83.4619 179.54 81.1709Z" fill="white"/>
<path d="M93.023 82.3698C87.261 77.6928 81.5 73.0158 75.738 68.3388C73.261 66.3278 69.702 69.8448 72.203 71.8748C77.965 76.5518 83.726 81.2288 89.488 85.9058C91.965 87.9158 95.523 84.3988 93.023 82.3698Z" fill="white"/>
</svg>
