<svg width="255" height="256" viewBox="0 0 255 256" fill="none" xmlns="http://www.w3.org/2000/svg">
<path d="M158.614 19.9999C153.704 15.54 147.898 12.1889 141.589 10.1727C135.279 8.15648 128.612 7.52194 122.037 8.31189C111.059 9.81297 100.914 15.0145 93.266 23.0635C85.6183 31.1126 80.9218 41.5315 79.9465 52.6119C78.5378 65.9628 82.437 79.3321 90.7959 89.8119C98.3984 100.33 102.84 112.815 103.594 125.788V132C103.594 133.061 104.013 134.078 104.761 134.828C105.508 135.578 106.521 136 107.578 136H147.422C148.479 136 149.492 135.578 150.239 134.828C150.986 134.078 151.406 133.061 151.406 132V124.748C152.32 111.977 156.858 99.7356 164.483 89.4719C172.416 79.285 176.22 66.4638 175.131 53.5794C174.043 40.695 168.143 28.7001 158.614 19.9999Z" fill="white"/>
<path d="M242.999 151.832L242.059 151C239.879 149.065 237.068 148 234.158 148.006C231.248 148.012 228.441 149.088 226.269 151.032L189.09 184.324C186.02 187.073 182.498 189.264 178.679 190.8L150.295 202.268C149.58 202.557 148.797 202.628 148.042 202.471C147.288 202.314 146.597 201.938 146.055 201.388L142.015 197.32L167.344 186.572C167.512 186.499 167.675 186.416 167.834 186.324C171.637 184.042 174.81 180.839 177.062 177.008C178.257 175.033 178.854 172.752 178.78 170.442C178.707 168.133 177.966 165.894 176.647 164C175.367 162.102 173.563 160.619 171.456 159.734C169.35 158.849 167.031 158.599 164.786 159.016L122.097 166.616C116.577 167.597 111.3 169.645 106.558 172.648L91.0191 182.46C85.3599 186.041 78.8065 187.939 72.1172 187.936H43.8281V240L76.3327 236.732C80.8147 236.272 85.3431 236.679 89.6723 237.932L104.813 242.296C108.712 243.424 112.749 243.996 116.806 243.996H138.357C144.59 244.005 150.75 242.658 156.415 240.048L195.553 222.088C201.75 219.233 207.199 214.967 211.467 209.628L244.414 168.368C246.34 165.957 247.267 162.895 247.004 159.816C246.741 156.737 245.306 153.878 242.999 151.832Z" fill="white"/>
<path d="M43.8281 180H11.9531C9.75262 180 7.96875 181.791 7.96875 184V244C7.96875 246.209 9.75262 248 11.9531 248H43.8281C46.0286 248 47.8125 246.209 47.8125 244V184C47.8125 181.791 46.0286 180 43.8281 180Z" fill="#9D9D9D"/>
<path d="M31.875 224H23.9062V232H31.875V224Z" fill="#FF606A"/>
<path d="M143.438 144H111.562V152H143.438V144Z" fill="#C6C6C6"/>
<path d="M154.952 64.844L153.331 63.944C153.219 63.8941 153.125 63.8126 153.059 63.7095C152.993 63.6065 152.959 63.4864 152.96 63.364C153.118 62.2496 153.198 61.1255 153.199 60C153.199 58.8742 153.118 57.75 152.956 56.636C152.956 56.5139 152.991 56.3944 153.057 56.2916C153.123 56.1889 153.216 56.1071 153.327 56.056L154.952 55.156C155.508 54.8536 155.997 54.4404 156.388 53.9418C156.779 53.4431 157.065 52.8694 157.227 52.256C157.388 51.6598 157.426 51.0371 157.339 50.4257C157.252 49.8144 157.042 49.2272 156.721 48.7L152.227 41.232C151.566 40.1685 150.525 39.3997 149.317 39.0835C148.109 38.7672 146.826 38.9278 145.733 39.532L144.091 40.44C143.922 40.5207 143.733 40.5519 143.547 40.5299C143.361 40.508 143.185 40.4338 143.039 40.316C141.286 39.027 139.378 37.964 137.361 37.152C137.094 37.044 136.788 36.808 136.788 36.492V34.688C136.77 33.4308 136.257 32.2318 135.361 31.3533C134.465 30.4748 133.259 29.9882 132.006 30H123.01C121.757 29.9882 120.551 30.4748 119.655 31.3533C118.759 32.2318 118.246 33.4308 118.228 34.688V36.492C118.228 36.808 117.922 37.044 117.655 37.152C115.638 37.9632 113.732 39.0262 111.981 40.316C111.834 40.4338 111.657 40.5078 111.471 40.5298C111.284 40.5517 111.095 40.5206 110.925 40.44L109.283 39.532C108.189 38.9265 106.906 38.7654 105.697 39.0816C104.488 39.3979 103.446 40.1675 102.785 41.232L98.2985 48.7C97.9768 49.2266 97.7656 49.8136 97.6779 50.4251C97.5902 51.0366 97.6278 51.6596 97.7885 52.256C97.951 52.8694 98.2366 53.4431 98.6278 53.9418C99.0191 54.4404 99.5076 54.8536 100.064 55.156L101.685 56.056C101.797 56.1059 101.891 56.1873 101.957 56.2904C102.023 56.3934 102.057 56.5136 102.056 56.636C101.898 57.7503 101.818 58.8744 101.817 60C101.817 61.1257 101.898 62.25 102.06 63.364C102.06 63.4861 102.025 63.6055 101.959 63.7083C101.893 63.8111 101.8 63.8928 101.689 63.944L100.064 64.844C99.5076 65.1463 99.0191 65.5595 98.6278 66.0582C98.2366 66.5568 97.951 67.1305 97.7885 67.744C97.6282 68.3402 97.5904 68.9629 97.6774 69.5742C97.7644 70.1855 97.9743 70.7727 98.2945 71.3L102.789 78.768C103.45 79.8314 104.491 80.6003 105.699 80.9165C106.907 81.2327 108.19 81.0722 109.283 80.468L110.925 79.56C111.094 79.4788 111.283 79.4473 111.469 79.4693C111.655 79.4912 111.831 79.5657 111.977 79.684C113.73 80.973 115.638 82.0359 117.655 82.848C117.922 82.956 118.228 83.192 118.228 83.508V85.312C118.246 86.5692 118.759 87.7681 119.655 88.6466C120.551 89.5251 121.757 90.0117 123.01 90H131.99C133.243 90.0117 134.449 89.5251 135.345 88.6466C136.241 87.7681 136.754 86.5692 136.772 85.312V83.508C136.772 83.192 137.078 82.956 137.345 82.848C139.362 82.0367 141.268 80.9737 143.019 79.684C143.165 79.5635 143.342 79.4878 143.529 79.4658C143.716 79.4438 143.906 79.4765 144.075 79.56L145.717 80.468C146.811 81.0724 148.094 81.233 149.303 80.9168C150.512 80.6007 151.554 79.8317 152.215 78.768L156.701 71.3C157.023 70.7733 157.234 70.1863 157.322 69.5748C157.41 68.9633 157.372 68.3403 157.211 67.744C157.051 67.1319 156.768 66.5591 156.379 66.0605C155.991 65.5619 155.505 65.148 154.952 64.844Z" fill="#992F36"/>
<path d="M127.5 72C134.102 72 139.453 66.6274 139.453 60C139.453 53.3726 134.102 48 127.5 48C120.898 48 115.547 53.3726 115.547 60C115.547 66.6274 120.898 72 127.5 72Z" fill="white"/>
<path d="M81.4636 108.671L69.509 116.672L73.9292 123.328L85.8839 115.327L81.4636 108.671Z" fill="#FF606A"/>
<path d="M67.7344 60H51.7969V68H67.7344V60Z" fill="#FF606A"/>
<path d="M69.9443 8.67074L65.524 15.3271L77.4787 23.3281L81.8989 16.6717L69.9443 8.67074Z" fill="#FF606A"/>
<path d="M173.536 108.671L169.116 115.328L181.07 123.329L185.49 116.672L173.536 108.671Z" fill="#FF606A"/>
<path d="M203.203 60H187.266V68H203.203V60Z" fill="#FF606A"/>
<path d="M185.057 8.67284L173.102 16.6738L177.522 23.3302L189.477 15.3292L185.057 8.67284Z" fill="#FF606A"/>
<path d="M101.362 112C102.139 114.621 102.724 117.294 103.116 120C103.423 121.918 103.583 123.857 103.594 125.8V132C103.594 133.061 104.014 134.078 104.761 134.828C105.508 135.579 106.521 136 107.578 136H147.422C148.479 136 149.492 135.579 150.239 134.828C150.986 134.078 151.406 133.061 151.406 132V124.76C151.414 123.167 151.534 121.576 151.765 120C152.15 117.297 152.723 114.623 153.478 112H101.362Z" fill="#C6C6C6"/>
</svg>
