<svg width="263" height="264" viewBox="0 0 263 264" fill="none" xmlns="http://www.w3.org/2000/svg">
<path d="M246.562 90.75H230.125C229.035 90.75 227.99 91.1848 227.219 91.9582C226.449 92.7317 226.016 93.7811 226.016 94.875C226.016 95.9689 226.449 97.0183 227.219 97.7918C227.99 98.5652 229.035 99 230.125 99H246.562C247.652 99 248.698 98.5652 249.468 97.7918C250.239 97.0183 250.672 95.9689 250.672 94.875C250.672 93.7811 250.239 92.7317 249.468 91.9582C248.698 91.1848 247.652 90.75 246.562 90.75Z" fill="#FF9182"/>
<path d="M222.798 70.3192C223.031 71.1962 223.546 71.9713 224.263 72.5249C224.98 73.0785 225.859 73.3788 226.764 73.38C227.123 73.3804 227.481 73.3317 227.828 73.2356L243.706 68.9662C244.759 68.6829 245.657 67.9911 246.202 67.0436C246.747 66.0957 246.894 64.9699 246.612 63.9131C246.329 62.8563 245.641 61.955 244.696 61.408C243.752 60.8614 242.631 60.7134 241.578 60.9967L225.703 65.2702C224.651 65.5532 223.754 66.2442 223.21 67.1908C222.665 68.1375 222.517 69.2628 222.798 70.3192Z" fill="#FF9182"/>
<path d="M213.351 47.4376C213.895 48.3851 214.793 49.076 215.846 49.3594C216.899 49.6424 218.02 49.4943 218.964 48.9473L233.203 40.6973C234.139 40.1464 234.82 39.2462 235.098 38.1931C235.375 37.14 235.226 36.0195 234.684 35.0762C234.141 34.1328 233.249 33.4432 232.201 33.1578C231.154 32.8724 230.037 33.0144 229.094 33.5528L214.855 41.8028C213.911 42.3498 213.222 43.2507 212.94 44.3075C212.658 45.3644 212.806 46.4901 213.351 47.4376Z" fill="#FF9182"/>
<path d="M201.24 28.9948C202.33 28.9945 203.375 28.5598 204.146 27.7861L215.767 16.1206C216.159 15.7401 216.472 15.2849 216.688 14.7817C216.903 14.2784 217.016 13.7371 217.021 13.1894C217.026 12.6417 216.922 12.0985 216.715 11.5915C216.509 11.0846 216.204 10.6241 215.818 10.2367C215.432 9.84943 214.973 9.54315 214.468 9.33575C213.963 9.12834 213.422 9.02394 212.876 9.02872C212.331 9.03347 211.791 9.14727 211.29 9.36347C210.789 9.57966 210.335 9.8939 209.956 10.2879L198.335 21.9534C197.76 22.5303 197.369 23.2652 197.211 24.0653C197.052 24.8653 197.133 25.6945 197.444 26.4482C197.755 27.2018 198.282 27.846 198.957 28.2993C199.633 28.7525 200.427 28.9946 201.24 28.9948Z" fill="#FF9182"/>
<path d="M243.707 120.784L227.828 116.515C226.789 116.271 225.696 116.442 224.78 116.992C223.864 117.543 223.197 118.43 222.921 119.464C222.645 120.499 222.781 121.602 223.3 122.538C223.82 123.474 224.681 124.171 225.703 124.48L241.578 128.754C241.926 128.848 242.285 128.897 242.646 128.898C243.646 128.902 244.613 128.539 245.365 127.879C246.117 127.218 246.604 126.305 246.734 125.31C246.864 124.315 246.629 123.307 246.071 122.474C245.514 121.641 244.673 121.04 243.707 120.784Z" fill="#FF9182"/>
<path d="M233.203 149.053L218.964 140.803C218.496 140.527 217.979 140.348 217.442 140.274C216.905 140.201 216.359 140.234 215.835 140.373C215.311 140.512 214.82 140.754 214.389 141.084C213.959 141.415 213.598 141.828 213.327 142.299C213.056 142.77 212.88 143.29 212.81 143.83C212.74 144.369 212.778 144.917 212.919 145.442C213.062 145.967 213.306 146.459 213.638 146.889C213.97 147.318 214.383 147.678 214.854 147.947L229.093 156.197C230.037 156.735 231.154 156.878 232.201 156.592C233.248 156.307 234.141 155.617 234.683 154.674C235.226 153.73 235.375 152.61 235.097 151.557C234.82 150.504 234.139 149.604 233.203 149.053Z" fill="#FF9182"/>
<path d="M204.146 161.964C203.371 161.212 202.332 160.797 201.255 160.806C200.178 160.816 199.147 161.25 198.385 162.014C197.623 162.779 197.191 163.814 197.181 164.895C197.172 165.977 197.586 167.019 198.335 167.797L209.956 179.462C210.731 180.213 211.769 180.629 212.847 180.62C213.924 180.611 214.955 180.177 215.717 179.412C216.479 178.647 216.911 177.613 216.92 176.531C216.929 175.449 216.515 174.407 215.767 173.629L204.146 161.964Z" fill="#FF9182"/>
<path d="M32.875 99C33.9649 99 35.0101 98.5652 35.7808 97.7918C36.5514 97.0183 36.9844 95.9689 36.9844 94.875C36.9844 93.7811 36.5514 92.7317 35.7808 91.9582C35.0101 91.1848 33.9649 90.75 32.875 90.75H16.4375C15.3476 90.75 14.3024 91.1848 13.5317 91.9582C12.7611 92.7317 12.3281 93.7811 12.3281 94.875C12.3281 95.9689 12.7611 97.0183 13.5317 97.7918C14.3024 98.5652 15.3476 99 16.4375 99H32.875Z" fill="#FF9182"/>
<path d="M19.3142 68.9664L35.1928 73.2358C35.5394 73.3319 35.8975 73.3806 36.2571 73.3802C37.254 73.3793 38.2167 73.0151 38.9658 72.3551C39.715 71.6951 40.1996 70.7839 40.3293 69.7918C40.459 68.7998 40.225 67.7941 39.6709 66.9621C39.1167 66.1305 38.2803 65.529 37.3173 65.2704L21.4223 60.9969C20.8947 60.8377 20.3406 60.7865 19.793 60.8468C19.2454 60.9066 18.7154 61.0765 18.2346 61.3463C17.7537 61.6161 17.3318 61.9803 16.9939 62.4171C16.656 62.8536 16.409 63.3543 16.2676 63.8885C16.1263 64.4231 16.0934 64.9804 16.1709 65.5282C16.2485 66.0756 16.4349 66.6015 16.7191 67.0755C17.0033 67.5491 17.3795 67.9607 17.8253 68.2854C18.2711 68.6104 18.7774 68.8418 19.3142 68.9664Z" fill="#FF9182"/>
<path d="M29.797 40.6973L44.036 48.9472C44.5037 49.2223 45.0206 49.4022 45.5577 49.4756C46.0944 49.5494 46.6406 49.5156 47.1645 49.3766C47.6885 49.2376 48.1799 48.9958 48.6106 48.6654C49.0408 48.335 49.4021 47.9225 49.6729 47.451C49.9441 46.98 50.1196 46.4598 50.1894 45.9202C50.2593 45.3811 50.2219 44.8329 50.0801 44.3078C49.9379 43.7831 49.6942 43.2914 49.3622 42.8611C49.0298 42.4313 48.6163 42.0716 48.1454 41.8027L33.9063 33.5528C33.4388 33.2776 32.9217 33.0981 32.3848 33.0243C31.8478 32.9507 31.3017 32.9843 30.7777 33.1233C30.2538 33.2624 29.7624 33.5041 29.3319 33.8345C28.9014 34.165 28.5402 34.5777 28.2693 35.0488C27.9983 35.5199 27.8228 36.0402 27.753 36.5796C27.6831 37.1191 27.7203 37.6671 27.8622 38.1921C28.0043 38.7171 28.2483 39.2087 28.5804 39.6387C28.9124 40.0686 29.3259 40.4284 29.797 40.6973Z" fill="#FF9182"/>
<path d="M58.8544 27.7863C59.6295 28.5377 60.6675 28.9535 61.745 28.9441C62.8225 28.9347 63.8531 28.5009 64.615 27.7361C65.3768 26.9712 65.8091 25.9366 65.8182 24.8551C65.8276 23.7735 65.4134 22.7315 64.6651 21.9535L53.0438 10.288C52.2688 9.53664 51.2307 9.12088 50.1533 9.13028C49.0758 9.13969 48.0451 9.57347 47.2833 10.3383C46.521 11.1031 46.0891 12.1377 46.0796 13.2193C46.0702 14.3008 46.4844 15.3428 47.2331 16.1208L58.8544 27.7863Z" fill="#FF9182"/>
<path d="M40.2021 119.432C39.9199 118.376 39.2316 117.475 38.2884 116.928C37.3453 116.382 36.2245 116.233 35.1722 116.515L19.3141 120.785C18.3475 121.04 17.5068 121.641 16.9496 122.473C16.3923 123.307 16.1565 124.315 16.2866 125.31C16.4165 126.305 16.9033 127.218 17.6558 127.878C18.4083 128.539 19.3748 128.901 20.3744 128.898C20.7352 128.897 21.0944 128.848 21.4428 128.754L37.3173 124.481C38.3655 124.193 39.2575 123.5 39.7981 122.554C40.3387 121.608 40.484 120.485 40.2021 119.432Z" fill="#FF9182"/>
<path d="M49.6494 142.313C49.1045 141.365 48.2071 140.674 47.1542 140.391C46.1014 140.108 44.98 140.256 44.036 140.803L29.797 149.053C29.3259 149.322 28.9124 149.682 28.5804 150.112C28.2483 150.541 28.0043 151.033 27.8622 151.558C27.7203 152.083 27.6831 152.631 27.753 153.171C27.8228 153.71 27.9983 154.23 28.2693 154.701C28.5402 155.172 28.9014 155.585 29.3319 155.916C29.7624 156.246 30.2538 156.488 30.7777 156.627C31.3017 156.766 31.8478 156.8 32.3848 156.726C32.9217 156.652 33.4388 156.473 33.9063 156.198L48.1454 147.948C49.0893 147.401 49.7777 146.5 50.06 145.443C50.3419 144.386 50.1943 143.26 49.6494 142.313Z" fill="#FF9182"/>
<path d="M58.8545 161.964L47.2332 173.629C46.8407 174.01 46.5276 174.465 46.3123 174.968C46.0969 175.472 45.9835 176.013 45.979 176.561C45.9741 177.108 46.078 177.651 46.2847 178.158C46.4914 178.665 46.7963 179.126 47.1822 179.513C47.5681 179.901 48.0271 180.207 48.5321 180.414C49.0372 180.622 49.578 180.726 50.1237 180.721C50.6694 180.717 51.2086 180.603 51.7099 180.387C52.2113 180.17 52.6649 179.856 53.0438 179.462L64.6651 167.797C65.4139 167.019 65.8281 165.977 65.8186 164.895C65.8092 163.814 65.3769 162.779 64.615 162.014C63.8531 161.25 62.8225 160.816 61.745 160.806C60.6675 160.797 59.6295 161.212 58.8545 161.964Z" fill="#FF9182"/>
<path d="M162.772 175.601C174.65 170.966 185.358 163.748 194.126 154.465C202.895 145.183 209.506 134.066 213.486 121.913C217.466 109.761 218.715 96.8747 217.143 84.1804C215.572 71.4857 211.219 59.298 204.397 48.493C197.575 37.6877 188.455 28.5332 177.689 21.6871C166.924 14.8409 154.782 10.473 142.136 8.89713C129.489 7.32126 116.652 8.57654 104.546 12.5728C92.44 16.5691 81.366 23.2071 72.1195 32.01C61.5646 42.0538 53.71 54.612 49.285 68.519C44.8596 82.4256 44.0077 97.229 46.8078 111.555C49.608 125.88 55.9697 139.264 65.3017 150.46C74.6337 161.658 86.6334 170.306 100.187 175.601C100.939 175.907 101.584 176.431 102.038 177.108C102.492 177.784 102.735 178.581 102.734 179.396V181.5C99.4646 181.5 96.3291 182.804 94.0172 185.125C91.7048 187.445 90.4063 190.593 90.4063 193.875C90.4063 197.157 91.7048 200.305 94.0172 202.626C96.3291 204.946 99.4646 206.25 102.734 206.25V226.875C102.746 229.489 103.584 232.032 105.127 234.137C106.671 236.242 108.84 237.802 111.323 238.59C112.12 243.383 114.585 247.737 118.28 250.878C121.974 254.018 126.659 255.742 131.5 255.742C136.341 255.742 141.026 254.018 144.72 250.878C148.414 247.737 150.879 243.383 151.677 238.59C154.16 237.802 156.329 236.242 157.872 234.137C159.416 232.032 160.254 229.489 160.266 226.875V206.25C163.535 206.25 166.671 204.946 168.983 202.626C171.295 200.305 172.594 197.157 172.594 193.875C172.594 190.593 171.295 187.445 168.983 185.125C166.671 182.804 163.535 181.5 160.266 181.5V179.396C160.266 178.587 160.504 177.795 160.95 177.12C161.396 176.446 162.029 175.917 162.772 175.601ZM131.5 247.5C128.951 247.493 126.467 246.697 124.386 245.22C122.304 243.744 120.728 241.659 119.87 239.25H143.13C142.272 241.659 140.695 243.744 138.614 245.22C136.533 246.697 134.048 247.493 131.5 247.5ZM152.047 226.875C152.047 227.969 151.614 229.018 150.843 229.792C150.072 230.566 149.027 231 147.938 231H115.063C113.973 231 112.927 230.566 112.157 229.792C111.386 229.018 110.953 227.969 110.953 226.875V222.75H152.047V226.875ZM152.047 214.5H110.953V206.25H152.047V214.5ZM164.375 193.875C164.375 194.969 163.942 196.018 163.171 196.792C162.4 197.566 161.355 198 160.266 198H102.734C101.645 198 100.599 197.566 99.8286 196.792C99.0577 196.018 98.625 194.969 98.625 193.875C98.625 192.781 99.0577 191.732 99.8286 190.958C100.599 190.185 101.645 189.75 102.734 189.75H160.266C161.355 189.75 162.4 190.185 163.171 190.958C163.942 191.732 164.375 192.781 164.375 193.875ZM128.582 86.1299C123.194 80.7113 120.168 73.3675 120.168 65.7111C120.168 58.0551 123.194 50.7114 128.582 45.2924L131.5 42.3636L134.418 45.2924C139.806 50.7114 142.832 58.0551 142.832 65.7111C142.832 73.3675 139.806 80.7113 134.418 86.1299L131.5 89.0586L128.582 86.1299ZM159.814 167.929C157.526 168.843 155.564 170.424 154.18 172.468C152.796 174.512 152.053 176.925 152.047 179.396V181.5H135.609V146.066L149.622 132H156.156C165.96 131.985 175.359 128.068 182.291 121.109C189.224 114.151 193.125 104.717 193.141 94.8749V86.6249C193.141 85.5309 192.708 84.4819 191.937 83.7081C191.166 82.9347 190.121 82.4999 189.031 82.4999H180.813C171.008 82.5151 161.61 86.4314 154.677 93.3907C147.745 100.35 143.843 109.783 143.828 119.625V126.184L135.609 134.434V96.5661L140.212 91.9461C147.139 84.9778 151.03 75.5352 151.03 65.6905C151.03 55.8462 147.139 46.4037 140.212 39.435L134.418 33.6188C133.642 32.846 132.593 32.4123 131.5 32.4123C130.407 32.4123 129.358 32.846 128.582 33.6188L122.788 39.435C115.861 46.4037 111.97 55.8462 111.97 65.6905C111.97 75.5352 115.861 84.9778 122.788 91.9461L127.391 96.5661V146.809L119.172 138.559V132C119.157 122.158 115.255 112.725 108.322 105.766C101.39 98.8064 91.9917 94.8901 82.1875 94.8749H73.9688C72.879 94.8749 71.8335 95.3097 71.063 96.0831C70.2921 96.8569 69.8594 97.9059 69.8594 98.9999V107.25C69.8746 117.092 73.776 126.526 80.7086 133.484C87.6411 140.443 97.0396 144.36 106.844 144.375H113.378L127.391 158.441V181.5H110.953V179.396C110.947 176.925 110.204 174.512 108.82 172.468C107.436 170.424 105.474 168.843 103.186 167.929C90.0072 162.778 78.4698 154.13 69.8051 142.91C61.1409 131.689 55.6755 118.317 53.9927 104.221C52.3095 90.1254 54.4722 75.8355 60.25 62.8777C66.0274 49.9198 75.2028 38.7803 86.7958 30.6491C98.3891 22.5178 111.965 17.7001 126.073 16.7105C140.181 15.7209 154.293 18.5964 166.9 25.0301C179.507 31.4638 190.136 41.214 197.653 53.2396C205.17 65.2648 209.292 79.1141 209.578 93.3074C209.861 109.357 205.245 125.109 196.349 138.449C187.453 151.788 174.704 162.075 159.814 167.929ZM152.047 123.75V119.625C152.056 111.97 155.089 104.63 160.482 99.2169C165.875 93.8036 173.186 90.759 180.813 90.7499H184.922V94.8749C184.913 102.53 181.88 109.87 176.487 115.283C171.094 120.696 163.782 123.741 156.156 123.75H152.047ZM110.953 132V136.125H106.844C99.2172 136.116 91.9058 133.071 86.513 127.658C81.1203 122.245 78.0868 114.905 78.0781 107.25V103.125H82.1875C89.8137 103.134 97.1255 106.179 102.518 111.592C107.911 117.005 110.945 124.345 110.953 132Z" fill="white"/>
</svg>
