<?xml version="1.0" encoding="utf-8"?>
<!-- Generator: Adobe Illustrator 27.5.0, SVG Export Plug-In . SVG Version: 6.00 Build 0)  -->
<svg version="1.1" xmlns="http://www.w3.org/2000/svg" xmlns:xlink="http://www.w3.org/1999/xlink" x="0px" y="0px"
	 viewBox="0 0 500 500" style="enable-background:new 0 0 500 500;" xml:space="preserve">
<g id="Background_Complete">
	<g>
		<g>
			<g>
				<path style="fill:#F5F5F5;" d="M77.825,476.12c0,0-16.965-87.897-17.004-105.977c-0.053-25.022,19.101-34.985,19.101-34.985
					l-7.443-21.226h40.94l-6.464,21.077c0,0,21.557,11.427,18.55,37.382c-5.621,48.524-14.58,103.728-14.58,103.728H77.825z"/>
			</g>
		</g>
		<g>
			<g>
				<g>
					<path style="fill:#E0E0E0;" d="M116.871,345.125c-0.002,0.01-0.157-0.002-0.456-0.034c-0.299-0.031-0.747-0.069-1.334-0.06
						c-1.166,0.006-2.923,0.21-4.97,1.09c-2.049,0.859-4.33,2.458-6.377,4.871c-1.029,1.199-2.003,2.588-2.93,4.126
						c-0.918,1.543-1.839,3.213-2.574,5.057c-0.725,1.839-1.265,3.885-1.193,6.035c0.067,2.125,0.868,4.353,2.426,6.034
						c0.789,0.821,1.77,1.496,2.897,1.819c1.118,0.329,2.347,0.304,3.489-0.092c2.281-0.809,4.158-2.861,4.905-5.302
						c0.815-2.46-0.008-5.275-1.713-7.343c-1.706-2.093-4.263-3.549-7.02-4.069c-2.782-0.487-5.733-0.039-8.463,1.018
						c-2.736,1.063-5.314,2.667-7.601,4.638c-4.577,3.941-7.859,9.238-8.948,14.834c-0.548,2.785-0.539,5.644,0.165,8.284
						c0.623,2.65,2.028,5.064,4.034,6.692c0.996,0.81,2.163,1.391,3.39,1.556c1.221,0.195,2.478-0.071,3.493-0.689
						c2.066-1.27,3.081-3.74,3.124-5.996c0.025-1.142-0.19-2.272-0.652-3.267c-0.465-0.99-1.167-1.859-1.956-2.569
						c-1.602-1.427-3.594-2.207-5.522-2.57c-3.915-0.729-7.57,0.313-10.32,1.787c-2.789,1.493-4.756,3.472-6.086,5.243
						c-1.344,1.779-2.058,3.383-2.46,4.481c-0.409,1.101-0.544,1.709-0.58,1.699c0,0,0.093-0.617,0.469-1.739
						c0.369-1.119,1.055-2.755,2.388-4.577c1.319-1.814,3.289-3.848,6.113-5.396c2.783-1.527,6.514-2.63,10.551-1.907
						c1.988,0.361,4.058,1.152,5.748,2.639c0.835,0.746,1.572,1.641,2.081,2.708c0.501,1.065,0.734,2.266,0.713,3.476
						c-0.041,2.387-1.078,5.012-3.342,6.427c-1.118,0.687-2.504,0.98-3.834,0.773c-1.342-0.177-2.598-0.804-3.655-1.657
						c-2.123-1.71-3.588-4.24-4.239-6.975c-0.732-2.725-0.746-5.672-0.187-8.532c1.114-5.749,4.46-11.146,9.131-15.17
						c2.338-2.013,4.961-3.646,7.774-4.738c2.807-1.083,5.86-1.553,8.775-1.038c2.893,0.551,5.554,2.07,7.352,4.28
						c0.894,1.104,1.564,2.384,1.904,3.743c0.363,1.351,0.296,2.81-0.108,4.109c-0.811,2.606-2.789,4.763-5.255,5.634
						c-1.234,0.424-2.586,0.45-3.801,0.085c-1.221-0.356-2.274-1.09-3.107-1.966c-1.646-1.794-2.463-4.125-2.524-6.354
						c-0.062-2.237,0.51-4.336,1.26-6.203c0.761-1.874,1.702-3.548,2.64-5.096c0.947-1.544,1.945-2.942,3.001-4.147
						c2.098-2.427,4.443-4.029,6.537-4.867c2.094-0.862,3.882-1.03,5.059-0.998C116.268,344.948,116.871,345.125,116.871,345.125z"
						/>
				</g>
			</g>
		</g>
		<g>
			<g>
				<g>
					<path style="fill:#E0E0E0;" d="M117.934,411.516c0,0,0.214,1.617-0.375,4.469c-0.305,1.416-0.833,3.131-1.796,4.962
						c-0.949,1.828-2.327,3.791-4.29,5.516c-1.942,1.738-4.507,3.184-7.49,3.934c-2.967,0.752-6.372,0.859-9.701-0.141
						c-3.324-0.976-6.492-3.122-8.737-6.158c-2.257-2.997-3.674-6.911-3.354-10.945c0.183-1.986,0.885-4.033,2.42-5.389
						c1.522-1.39,3.757-1.656,5.586-1.105c1.851,0.532,3.474,1.784,4.323,3.464c0.845,1.671,0.95,3.586,0.567,5.29
						c-0.383,1.715-1.222,3.265-2.343,4.488c-1.126,1.225-2.512,2.099-3.928,2.706c-2.859,1.199-5.816,1.378-8.391,1.058
						c-2.593-0.31-4.847-1.112-6.679-2.055c-1.845-0.933-3.267-2.029-4.338-3.002c-2.136-1.979-2.894-3.424-2.894-3.424
						c0.008-0.006,0.076,0.069,0.2,0.219c0.142,0.178,0.319,0.4,0.537,0.674c0.502,0.565,1.217,1.428,2.31,2.36
						c1.082,0.936,2.504,1.989,4.334,2.88c1.817,0.9,4.04,1.658,6.579,1.935c2.522,0.289,5.405,0.083,8.152-1.093
						c1.36-0.593,2.682-1.442,3.74-2.608c1.053-1.161,1.842-2.637,2.195-4.255c0.355-1.609,0.242-3.391-0.539-4.922
						c-0.77-1.518-2.273-2.679-3.981-3.164c-1.697-0.5-3.686-0.25-5.041,0.99c-1.378,1.214-2.05,3.113-2.223,5.007
						c-0.307,3.846,1.05,7.646,3.23,10.546c2.169,2.945,5.222,5.026,8.432,5.985c3.218,0.983,6.531,0.9,9.427,0.187
						c2.913-0.711,5.422-2.097,7.336-3.775c1.935-1.665,3.312-3.573,4.272-5.357c0.974-1.786,1.528-3.467,1.863-4.859
						c0.349-1.394,0.43-2.512,0.514-3.263c0.019-0.35,0.035-0.633,0.048-0.861C117.912,411.615,117.924,411.516,117.934,411.516z"/>
				</g>
			</g>
		</g>
		<g>
			<g>
				<g>
					<path style="fill:#E0E0E0;" d="M110.307,452.939c-0.054,0.114-1.833-0.849-4.932-1.745c-0.776-0.219-1.626-0.452-2.561-0.612
						c-0.923-0.215-1.931-0.315-2.985-0.453c-2.118-0.19-4.463-0.222-6.906,0.034c-2.44,0.288-4.721,0.835-6.745,1.488
						c-0.998,0.367-1.959,0.687-2.813,1.099c-0.877,0.361-1.655,0.776-2.363,1.161c-2.825,1.557-4.348,2.888-4.426,2.789
						c-0.026-0.031,0.346-0.367,1.046-0.953c0.345-0.299,0.78-0.649,1.323-1.004c0.538-0.361,1.129-0.81,1.852-1.193
						c0.705-0.413,1.485-0.856,2.366-1.242c0.858-0.438,1.828-0.782,2.839-1.168c2.049-0.692,4.37-1.266,6.855-1.559
						c2.487-0.261,4.877-0.213,7.028,0.011c1.071,0.154,2.093,0.275,3.027,0.514c0.945,0.183,1.803,0.443,2.582,0.691
						c0.789,0.215,1.465,0.522,2.069,0.756c0.608,0.226,1.109,0.472,1.512,0.688C109.888,452.656,110.325,452.903,110.307,452.939z"
						/>
				</g>
			</g>
		</g>
		<g>
			<g>
				<g>
					<path style="fill:#E0E0E0;" d="M107.45,336.264c0.022,0.034-0.461,0.37-1.354,0.948c-0.887,0.587-2.218,1.366-3.899,2.258
						c-3.357,1.79-8.214,3.899-13.835,5.415c-5.627,1.502-10.888,2.108-14.69,2.238c-1.902,0.069-3.443,0.061-4.505-0.003
						c-1.063-0.054-1.648-0.102-1.647-0.143c0.002-0.04,0.59-0.069,1.65-0.086c1.059-0.006,2.593-0.061,4.481-0.183
						c3.775-0.236,8.98-0.901,14.559-2.391c5.574-1.503,10.412-3.532,13.799-5.217c1.695-0.84,3.05-1.559,3.971-2.085
						C106.905,336.499,107.429,336.229,107.45,336.264z"/>
				</g>
			</g>
		</g>
		<g>
			<g>
				<g>
					<path style="fill:#E0E0E0;" d="M112.606,314.94c-0.007,0.06-1.007-0.093-2.82-0.096c-1.805,0.009-4.455,0.208-7.527,1.228
						c-1.532,0.506-3.161,1.215-4.788,2.187c-0.812,0.487-1.623,1.04-2.412,1.667c-0.796,0.624-1.566,1.306-2.204,2.141
						c-0.642,0.82-1.173,1.783-1.348,2.828c-0.185,1.037,0.152,2.152,0.946,2.904c0.782,0.769,1.892,1.207,3.027,1.528
						c1.143,0.293,2.364,0.657,3.468,0.399c1.124-0.251,1.774-1.35,1.865-2.479c0.118-1.148-0.186-2.276-0.687-3.298
						c-0.981-2.063-2.717-3.598-4.563-4.587c-1.856-1.009-3.864-1.471-5.736-1.554c-1.881-0.047-3.636,0.278-5.167,0.765
						c-3.077,0.988-5.279,2.5-6.743,3.551c-0.726,0.544-1.277,0.985-1.647,1.288c-0.369,0.305-0.57,0.459-0.583,0.444
						c-0.014-0.015,0.16-0.198,0.505-0.533c0.347-0.333,0.876-0.805,1.587-1.381c1.434-1.114,3.623-2.701,6.753-3.765
						c1.56-0.524,3.355-0.884,5.31-0.857c1.946,0.065,4.033,0.525,5.976,1.564c1.932,1.017,3.772,2.619,4.826,4.813
						c0.531,1.073,0.882,2.328,0.75,3.608c-0.075,0.633-0.243,1.291-0.642,1.847c-0.382,0.563-0.995,0.981-1.661,1.142
						c-1.36,0.298-2.598-0.116-3.769-0.407c-1.173-0.337-2.369-0.793-3.272-1.681c-0.921-0.867-1.319-2.219-1.095-3.4
						c0.207-1.187,0.794-2.211,1.476-3.074c0.678-0.875,1.499-1.589,2.312-2.214c0.813-0.634,1.647-1.191,2.482-1.68
						c1.673-0.974,3.343-1.674,4.91-2.163c3.142-0.986,5.835-1.122,7.657-1.061c0.914,0.036,1.622,0.103,2.097,0.184
						C112.361,314.872,112.608,314.92,112.606,314.94z"/>
				</g>
			</g>
		</g>
	</g>
	<g>
		<g>
			<rect x="54.531" y="37.658" style="fill:#EBEBEB;" width="127.056" height="228.248"/>
		</g>
		<g>
			<rect x="59.608" y="44.277" style="fill:#FAFAFA;" width="115.593" height="214.83"/>
		</g>
		<g>
			<polygon style="fill:#E0E0E0;" points="186.961,267.964 181.587,265.906 181.587,33.787 186.961,33.787 			"/>
		</g>
		<g>
			<path style="fill:#F5F5F5;" d="M87.946,183.045c10.007-9.301,20.013-18.602,30.02-27.903c3.804-3.536,8.776-7.345,13.669-5.602
				c2.353,0.838,4.124,2.847,6.43,3.808c4.609,1.92,9.874-0.852,13.417-4.369c3.544-3.517,6.341-7.917,10.634-10.466
				c4.293-2.55,10.964-2.226,13.086,2.294v30.369l-43.628,18.679L87.946,183.045z"/>
		</g>
		<g>
			<path style="fill:#E0E0E0;" d="M59.608,165.591c11.062-4.505,22.102-0.676,30.019,8.267c1.667,1.883,3.184,4.057,5.474,5.096
				c3.101,1.406,6.684,0.354,10.067-0.029c9.247-1.048,18.905,3.633,23.811,11.541l-36.934,18.166l-32.437-0.236V165.591z"/>
		</g>
		<g>
			<path style="fill:#EBEBEB;" d="M175.201,165.741c-7.286-3.519-13.7,0.738-20.422,5.242c-6.722,4.504-12.968,10.28-20.853,12.094
				c-5.268,1.212-10.913,0.54-16.007,2.354c-10.376,3.695-16.376,16.871-27.373,17.5c-5.971,0.341-11.326-3.278-16.655-5.994
				c-5.329-2.715-9.532-5.294-14.284-1.662v63.831h115.593V165.741z"/>
		</g>
		<g>
			<rect x="59.608" y="106.077" style="fill:#E0E0E0;" width="118.104" height="2.287"/>
		</g>
		<g>
			<rect x="59.608" y="157.237" style="fill:#E0E0E0;" width="118.104" height="2.287"/>
		</g>
		<g>
			<rect x="59.608" y="208.396" style="fill:#E0E0E0;" width="118.104" height="2.287"/>
		</g>
		<g>
			
				<rect x="38.416" y="183.289" transform="matrix(6.123234e-17 -1 1 6.123234e-17 -68.8048 303.6141)" style="fill:#E0E0E0;" width="157.977" height="5.84"/>
		</g>
		<g>
			<rect x="81.866" y="44.277" style="fill:#E0E0E0;" width="2.646" height="62.944"/>
		</g>
		<g>
			<rect x="104.685" y="44.277" style="fill:#E0E0E0;" width="2.646" height="62.944"/>
		</g>
		<g>
			<rect x="127.504" y="44.277" style="fill:#E0E0E0;" width="2.646" height="62.944"/>
		</g>
		<g>
			<rect x="150.324" y="44.277" style="fill:#E0E0E0;" width="2.646" height="62.944"/>
		</g>
		<g>
			<rect x="49.157" y="33.787" style="fill:#E0E0E0;" width="5.374" height="233.532"/>
		</g>
		<g>
			<rect x="49.157" y="31.431" style="fill:#E0E0E0;" width="137.804" height="6.227"/>
		</g>
		<g>
			<rect x="45.345" y="268.732" style="fill:#E0E0E0;" width="145.255" height="5.802"/>
		</g>
		<g>
			<polygon style="fill:#EBEBEB;" points="181.587,265.906 190.599,268.732 45.345,268.732 54.531,265.906 			"/>
		</g>
	</g>
	<g>
		<g>
			<polygon style="fill:#EBEBEB;" points="422.75,472.823 422.75,173.113 419.042,173.113 419.042,472.886 388.368,475.193 
				419.042,475.193 422.75,475.193 453.423,475.193 			"/>
		</g>
		<g>
			<polygon style="fill:#E0E0E0;" points="399.715,147 385.937,208.568 455.855,208.568 440.129,147.187 			"/>
		</g>
		<g>
			<g>
				<path style="fill:#E0E0E0;" d="M412.528,233.517c-0.16,0-0.272-7.557-0.251-16.876c0.021-9.322,0.167-16.876,0.327-16.876
					c0.16,0,0.272,7.555,0.251,16.877C412.833,225.962,412.687,233.518,412.528,233.517z"/>
			</g>
		</g>
		<g>
			<g>
				<path style="fill:#E0E0E0;" d="M412.496,233.404c-0.007-0.076,0.501-0.018,0.723,0.626c0.094,0.299,0.113,0.736-0.18,1.124
					c-0.293,0.402-0.904,0.523-1.379,0.336c-0.483-0.167-0.869-0.656-0.831-1.152c0.03-0.485,0.329-0.805,0.594-0.971
					c0.587-0.346,1.01-0.06,0.956-0.007c-0.02,0.084-0.37,0.016-0.715,0.336c-0.164,0.152-0.315,0.399-0.302,0.648
					c0.001,0.245,0.198,0.489,0.498,0.603c0.302,0.109,0.61,0.05,0.77-0.134c0.172-0.182,0.218-0.467,0.191-0.689
					C412.766,233.656,412.456,233.48,412.496,233.404z"/>
			</g>
		</g>
	</g>
	<g>
		<g>
			<g>
				<g>
					<rect x="386.803" y="44.678" style="fill:#E0E0E0;" width="70.453" height="73.441"/>
				</g>
			</g>
		</g>
		<g>
			<g>
				<g>
					<rect x="382.032" y="44.678" style="fill:#EBEBEB;" width="70.453" height="73.441"/>
				</g>
			</g>
		</g>
		<g>
			<g>
				<g>
					<rect x="391.503" y="54.55" style="fill:#FAFAFA;" width="51.512" height="53.696"/>
				</g>
			</g>
		</g>
		<g>
			<g>
				<g>
					<g>
						<path style="fill:#E0E0E0;" d="M391.503,108.604c0.034,0.041-0.46,0.596-1.287,1.459c-0.827,0.864-1.986,2.036-3.282,3.312
							c-1.296,1.277-2.485,2.417-3.359,3.229c-0.874,0.812-1.434,1.295-1.471,1.257c-0.038-0.038,0.454-0.59,1.281-1.454
							c0.827-0.864,1.988-2.038,3.288-3.318c1.299-1.28,2.49-2.422,3.364-3.234C390.911,109.044,391.468,108.563,391.503,108.604z"
							/>
					</g>
				</g>
			</g>
		</g>
		<g>
			<g>
				<g>
					<g>
						<path style="fill:#E0E0E0;" d="M443.014,108.472c0.041-0.034,0.596,0.46,1.459,1.287c0.864,0.827,2.036,1.986,3.313,3.282
							c1.277,1.296,2.417,2.485,3.229,3.359c0.812,0.874,1.295,1.434,1.258,1.471c-0.038,0.038-0.591-0.454-1.454-1.281
							c-0.863-0.827-2.038-1.989-3.318-3.288c-1.28-1.299-2.422-2.49-3.234-3.364C443.455,109.064,442.974,108.507,443.014,108.472z
							"/>
					</g>
				</g>
			</g>
		</g>
		<g>
			<g>
				<g>
					<g>
						<path style="fill:#E0E0E0;" d="M442.873,54.694c-0.034-0.041,0.46-0.596,1.287-1.459c0.827-0.864,1.986-2.036,3.282-3.312
							c1.297-1.277,2.485-2.417,3.359-3.229c0.874-0.812,1.434-1.296,1.472-1.258c0.038,0.038-0.454,0.59-1.281,1.454
							c-0.827,0.863-1.989,2.038-3.288,3.318c-1.299,1.28-2.49,2.422-3.364,3.234C443.465,54.253,442.908,54.735,442.873,54.694z"/>
					</g>
				</g>
			</g>
		</g>
		<g>
			<g>
				<g>
					<g>
						<path style="fill:#E0E0E0;" d="M391.362,54.826c-0.041,0.034-0.596-0.46-1.46-1.287c-0.864-0.827-2.036-1.986-3.312-3.282
							c-1.277-1.297-2.417-2.485-3.229-3.359c-0.812-0.874-1.296-1.434-1.258-1.472c0.038-0.038,0.59,0.454,1.454,1.281
							c0.863,0.827,2.038,1.988,3.318,3.288c1.28,1.299,2.422,2.49,3.234,3.364C390.921,54.234,391.403,54.791,391.362,54.826z"/>
					</g>
				</g>
			</g>
		</g>
		<g>
			<g>
				<g>
					<g>
						<path style="fill:#E0E0E0;" d="M442.873,108.247c0,0-0.006-0.09-0.009-0.259c-0.002-0.179-0.006-0.426-0.01-0.748
							c-0.005-0.668-0.011-1.637-0.02-2.896c-0.01-2.539-0.025-6.238-0.044-10.94c-0.021-9.403-0.05-22.805-0.086-38.853
							l0.168,0.169c-14.994,0.007-32.606,0.016-51.366,0.025h-0.005l0.193-0.193c-0.01,19.709-0.019,38.148-0.027,53.696
							l-0.166-0.166c15.4,0.035,28.221,0.064,37.205,0.085c4.492,0.019,8.023,0.033,10.445,0.043
							c1.201,0.008,2.124,0.015,2.761,0.019c0.306,0.004,0.541,0.007,0.713,0.009C442.787,108.241,442.873,108.247,442.873,108.247
							s-0.074,0.006-0.229,0.009c-0.167,0.002-0.396,0.005-0.695,0.009c-0.63,0.004-1.542,0.011-2.729,0.019
							c-2.413,0.01-5.931,0.025-10.407,0.043c-9.009,0.02-21.867,0.05-37.311,0.085l-0.166,0v-0.166
							c-0.008-15.549-0.017-33.987-0.027-53.696l0-0.193h0.194h0.005c18.76,0.009,36.371,0.018,51.366,0.025l0.169,0l0,0.168
							c-0.035,16.093-0.065,29.533-0.086,38.961c-0.019,4.686-0.034,8.372-0.044,10.902c-0.009,1.245-0.015,2.203-0.02,2.863
							c-0.004,0.314-0.007,0.555-0.01,0.729C442.88,108.169,442.873,108.247,442.873,108.247z"/>
					</g>
				</g>
			</g>
		</g>
		<g>
			<g>
				<g>
					<g>
						<path style="fill:#EBEBEB;" d="M405.098,76.983c0,0-1.103,13.295,13.295,13.295C418.393,83.183,412.539,77.583,405.098,76.983
							z"/>
					</g>
				</g>
			</g>
			<g>
				<g>
					<g>
						<path style="fill:#EBEBEB;" d="M431.443,76.993c0,0-13.295-1.103-13.295,13.295C425.243,90.288,430.844,84.434,431.443,76.993
							z"/>
					</g>
				</g>
			</g>
			<g>
				<g>
					<g>
						<path style="fill:#E0E0E0;" d="M417.754,69.716c0,0-10.861,9.75,0.595,20.562C423.676,84.633,423.225,75.782,417.754,69.716z"
							/>
					</g>
				</g>
			</g>
		</g>
	</g>
</g>
<g id="Background_Simple" style="display:none;">
	<path style="display:inline;fill:#EBEBEB;" d="M432.769,110.229l-2.209-3.64c-18.62-30.684-52.285-49.18-87.779-46.936
		c-4.563,0.289-9.106,0.906-13.588,1.866c-32.271,6.908-60.351,31.312-71.99,62.566c-6.845,18.381-8.758,39.545-21.747,54.135
		c-16.906,18.988-45.607,19.584-70.841,18.798s-53.955-0.116-70.778,18.947C83.3,227.904,79.952,244.882,80.801,260.87
		c2.249,42.331,31.746,80.181,69.258,98.994s81.679,20.498,122.734,12.222c57.513-11.594,112.208-43.432,145.083-92.608
		C450.752,230.302,459.073,163.305,432.769,110.229z"/>
</g>
<g id="Screen">
	<g>
		<g>
			<g>
				<g>
					<path style="fill:#FAFAFA;" d="M336.933,381.655h-107.75c-14.01,0-25.367-11.357-25.367-25.367V78.192
						c0-14.01,11.357-25.367,25.367-25.367h107.75c14.01,0,25.367,11.357,25.367,25.367v278.096
						C362.3,370.298,350.943,381.655,336.933,381.655z"/>
				</g>
				<g>
					<g>
						<path style="fill:#263238;" d="M336.933,381.655c0,0,0.813-0.059,2.398-0.148c0.786-0.095,1.765-0.245,2.919-0.461
							c0.569-0.148,1.183-0.309,1.842-0.48c0.662-0.164,1.328-0.468,2.059-0.72c2.852-1.142,6.302-3.052,9.343-6.422
							c1.562-1.634,2.953-3.667,4.103-5.995c1.158-2.324,2.038-4.996,2.373-7.913c0.341-2.909,0.187-6.034,0.217-9.299
							c-0.004-3.269-0.007-6.698-0.011-10.281c-0.007-7.167-0.014-14.953-0.022-23.318c-0.011-16.732-0.024-35.784-0.038-56.844
							c-0.016-42.122-0.035-92.275-0.056-147.964c-0.002-6.961-0.003-14.009-0.005-21.138c-0.001-3.565-0.001-7.15-0.002-10.755
							c-0.002-0.901,0.015-1.807-0.05-2.697c-0.038-0.895-0.074-1.791-0.246-2.674l-0.203-1.331
							c-0.095-0.438-0.22-0.871-0.328-1.308c-0.117-0.434-0.212-0.875-0.348-1.304l-0.465-1.27
							c-1.275-3.369-3.266-6.504-5.881-9.048c-2.61-2.544-5.784-4.533-9.254-5.758c-1.727-0.638-3.544-1.015-5.375-1.258
							c-0.915-0.128-1.846-0.115-2.77-0.181c-0.932-0.02-1.872-0.005-2.81-0.01c-3.754,0-7.524,0.001-11.312,0.001
							c-30.301,0.002-61.673,0.003-93.806,0.005c-3.98,0.016-7.93,0.981-11.452,2.771c-3.547,1.758-6.564,4.466-8.884,7.622
							c-2.34,3.158-3.852,6.888-4.449,10.739l-0.217,1.446l-0.074,1.459c-0.07,0.968-0.053,1.954-0.054,2.936
							c0,1.964,0,3.924,0,5.88c-0.001,15.652-0.003,31.074-0.004,46.228c-0.005,30.308-0.01,59.542-0.015,87.392
							c-0.008,27.849-0.016,54.313-0.024,79.079c-0.005,12.383-0.01,24.342-0.015,35.838c-0.003,5.748-0.006,11.38-0.008,16.891
							c0.018,2.754-0.094,5.492,0.224,8.141c0.289,2.663,1.119,5.215,2.224,7.574c1.107,2.364,2.571,4.535,4.336,6.377
							c1.757,1.838,3.704,3.488,5.892,4.682c2.172,1.194,4.45,2.186,6.828,2.679c0.581,0.178,1.184,0.237,1.777,0.334
							c0.596,0.073,1.183,0.225,1.782,0.226c1.192,0.066,2.377,0.132,3.566,0.109c9.486,0.007,18.432,0.014,26.797,0.02
							c16.729,0.017,31.139,0.032,42.918,0.044c11.774,0.021,20.917,0.038,27.122,0.049c3.097,0.011,5.459,0.02,7.053,0.026
							C336.119,381.637,336.933,381.655,336.933,381.655s-0.814,0.018-2.403,0.027c-1.594,0.006-3.957,0.014-7.053,0.026
							c-6.206,0.011-15.349,0.028-27.122,0.049c-11.779,0.012-26.188,0.027-42.918,0.044c-8.365,0.006-17.311,0.013-26.797,0.02
							c-1.183,0.025-2.384-0.04-3.594-0.105c-0.607,0-1.202-0.153-1.806-0.226c-0.601-0.098-1.213-0.158-1.802-0.337
							c-2.41-0.498-4.721-1.498-6.925-2.707c-2.219-1.208-4.197-2.878-5.98-4.74c-1.792-1.866-3.28-4.066-4.405-6.464
							c-1.124-2.392-1.969-4.982-2.265-7.684c-0.327-2.704-0.214-5.438-0.236-8.189c-0.003-5.511-0.005-11.143-0.008-16.891
							c-0.005-11.496-0.01-23.455-0.015-35.838c-0.007-24.767-0.015-51.23-0.024-79.079c-0.005-27.849-0.01-57.084-0.015-87.392
							c-0.001-15.154-0.003-30.577-0.004-46.228c0-1.956,0-3.916,0-5.88c0.001-0.982-0.016-1.962,0.055-2.958l0.075-1.489
							l0.221-1.476c0.61-3.931,2.153-7.74,4.541-10.963c2.367-3.221,5.447-5.984,9.067-7.78c3.595-1.828,7.629-2.813,11.689-2.829
							c32.132,0.002,63.505,0.004,93.806,0.005c3.788,0,7.558,0.001,11.312,0.001c0.939,0.005,1.874-0.01,2.814,0.011
							c0.942,0.066,1.891,0.054,2.825,0.185c1.868,0.249,3.722,0.634,5.484,1.285c3.54,1.251,6.776,3.281,9.437,5.877
							c2.667,2.595,4.697,5.792,5.995,9.229l0.474,1.295c0.139,0.437,0.236,0.887,0.355,1.33c0.11,0.445,0.237,0.887,0.333,1.334
							l0.207,1.358c0.174,0.901,0.211,1.814,0.249,2.726c0.065,0.915,0.048,1.814,0.049,2.716c-0.001,3.605-0.001,7.19-0.002,10.755
							c-0.002,7.129-0.003,14.177-0.005,21.138c-0.021,55.689-0.04,105.842-0.056,147.964c-0.014,21.06-0.027,40.112-0.039,56.844
							c-0.008,8.365-0.015,16.151-0.021,23.318c-0.004,3.583-0.008,7.012-0.011,10.281c-0.038,3.266,0.109,6.382-0.242,9.325
							c-0.345,2.939-1.24,5.63-2.413,7.967c-1.166,2.341-2.573,4.382-4.15,6.021c-3.072,3.38-6.549,5.283-9.419,6.415
							c-0.735,0.249-1.406,0.55-2.071,0.711c-0.662,0.168-1.28,0.325-1.852,0.469c-1.159,0.208-2.141,0.35-2.93,0.437
							C337.746,381.632,336.933,381.655,336.933,381.655z"/>
					</g>
				</g>
			</g>
			<g>
				<g>
					<g>
						<path style="fill:#263238;" d="M347.072,72.299c0,0.144-2.588,0.26-5.779,0.26c-3.193,0-5.78-0.117-5.78-0.26
							c0-0.144,2.587-0.26,5.78-0.26C344.484,72.038,347.072,72.155,347.072,72.299z"/>
					</g>
				</g>
				<g>
					<g>
						<path style="fill:#263238;" d="M347.072,76.071c0,0.144-2.588,0.26-5.779,0.26c-3.193,0-5.78-0.117-5.78-0.26
							c0-0.144,2.587-0.26,5.78-0.26C344.484,75.811,347.072,75.927,347.072,76.071z"/>
					</g>
				</g>
				<g>
					<g>
						<path style="fill:#263238;" d="M347.072,79.843c0,0.144-2.588,0.26-5.779,0.26c-3.193,0-5.78-0.117-5.78-0.26
							c0-0.144,2.587-0.26,5.78-0.26C344.484,79.583,347.072,79.7,347.072,79.843z"/>
					</g>
				</g>
			</g>
			<g>
				<path style="fill:#263238;" d="M267.262,79.843l-0.008-3.969l-1.969,3.307h-0.357l-1.969-3.284v3.945h-0.748v-5.447h0.639
					l2.272,3.829l2.241-3.829h0.639l0.008,5.447H267.262z"/>
				<path style="fill:#263238;" d="M273.18,75.719l-1.999,4.537c-0.366,0.872-0.841,1.144-1.472,1.144
					c-0.397,0-0.801-0.132-1.058-0.381l0.318-0.561c0.203,0.195,0.46,0.304,0.739,0.304c0.358,0,0.584-0.163,0.786-0.638
					l0.133-0.288l-1.821-4.117h0.778l1.439,3.3l1.424-3.3H273.18z"/>
				<path style="fill:#263238;" d="M280.476,76.294c0,1.183-0.856,1.899-2.272,1.899h-1.346v1.65h-0.778v-5.447h2.124
					C279.62,74.396,280.476,75.112,280.476,76.294z M279.698,76.294c0-0.778-0.522-1.222-1.518-1.222h-1.322v2.444h1.322
					C279.176,77.516,279.698,77.073,279.698,76.294z"/>
				<path style="fill:#263238;" d="M283.656,75.679v0.724c-0.061-0.008-0.116-0.008-0.171-0.008c-0.802,0-1.3,0.49-1.3,1.393v2.055
					h-0.747v-4.125h0.716v0.693C282.419,75.928,282.932,75.679,283.656,75.679z"/>
				<path style="fill:#263238;" d="M284.153,77.781c0-1.23,0.91-2.102,2.147-2.102s2.14,0.872,2.14,2.102
					c0,1.229-0.902,2.109-2.14,2.109S284.153,79.011,284.153,77.781z M287.686,77.781c0-0.879-0.592-1.448-1.386-1.448
					c-0.794,0-1.392,0.568-1.392,1.448c0,0.879,0.599,1.455,1.392,1.455C287.094,79.236,287.686,78.66,287.686,77.781z"/>
				<path style="fill:#263238;" d="M290.943,74.022c0.319,0,0.631,0.078,0.841,0.241l-0.226,0.568
					c-0.156-0.117-0.358-0.194-0.576-0.194c-0.443,0-0.669,0.249-0.669,0.724v0.358h1.198v0.615h-1.183v3.51h-0.747v-3.51h-0.7
					v-0.615h0.7v-0.366C289.582,74.551,290.064,74.022,290.943,74.022z M292.71,74.442c0-0.272,0.218-0.49,0.506-0.49
					c0.288,0,0.506,0.21,0.506,0.475c0,0.28-0.21,0.498-0.506,0.498C292.927,74.925,292.71,74.715,292.71,74.442z M292.842,75.719
					h0.747v4.125h-0.747V75.719z"/>
				<path style="fill:#263238;" d="M295.01,74.069h0.747v5.774h-0.747V74.069z"/>
				<path style="fill:#263238;" d="M300.892,78.03h-3.346c0.093,0.724,0.677,1.206,1.494,1.206c0.482,0,0.887-0.164,1.19-0.498
					l0.412,0.482c-0.373,0.436-0.941,0.67-1.626,0.67c-1.331,0-2.218-0.879-2.218-2.109c0-1.222,0.879-2.102,2.069-2.102
					c1.191,0,2.039,0.857,2.039,2.125C300.908,77.867,300.9,77.96,300.892,78.03z M297.546,77.493h2.646
					c-0.078-0.693-0.6-1.183-1.323-1.183C298.153,76.31,297.624,76.792,297.546,77.493z"/>
			</g>
			<g>
				<rect x="257.004" y="186.747" style="fill:#FF725E;" width="52.63" height="3.124"/>
			</g>
			<g>
				<g>
					<path style="fill:#263238;" d="M330.735,194.925c0,0.144-20.506,0.26-45.794,0.26c-25.298,0-45.799-0.117-45.799-0.26
						c0-0.144,20.501-0.26,45.799-0.26C310.229,194.664,330.735,194.781,330.735,194.925z"/>
				</g>
			</g>
			<g>
				<circle style="fill:#FF725E;" cx="237.351" cy="227.473" r="15.602"/>
			</g>
			<g>
				<circle style="fill:#FF725E;" cx="282.983" cy="227.473" r="15.602"/>
			</g>
			<g>
				<circle style="fill:#FF725E;" cx="328.614" cy="227.473" r="15.602"/>
			</g>
			<g>
				<g>
					<path style="fill:#263238;" d="M256.855,249.96c0,0.144-8.733,0.26-19.503,0.26c-10.774,0-19.505-0.116-19.505-0.26
						c0-0.144,8.731-0.26,19.505-0.26C248.122,249.699,256.855,249.816,256.855,249.96z"/>
				</g>
			</g>
			<g>
				<g>
					<path style="fill:#263238;" d="M299.936,249.96c0,0.144-7.591,0.26-16.953,0.26c-9.365,0-16.954-0.116-16.954-0.26
						c0-0.144,7.589-0.26,16.954-0.26C292.345,249.699,299.936,249.816,299.936,249.96z"/>
				</g>
			</g>
			<g>
				<g>
					<path style="fill:#263238;" d="M344.216,249.96c0,0.144-7.591,0.26-16.953,0.26c-9.365,0-16.954-0.116-16.954-0.26
						c0-0.144,7.589-0.26,16.954-0.26C336.626,249.699,344.216,249.816,344.216,249.96z"/>
				</g>
			</g>
			<g>
				<g>
					<g>
						<path style="fill:#263238;" d="M346.333,303.619c0,0-0.011-0.227-0.017-0.656c-0.004-0.442-0.01-1.075-0.017-1.903
							c-0.009-1.684-0.023-4.151-0.04-7.354c-0.021-6.411-0.052-15.75-0.091-27.53l0.164,0.164
							c-29.547,0.022-75.37,0.057-126.693,0.096h-0.008l0.26-0.26c-0.002,12.937-0.005,25.523-0.007,37.443l-0.253-0.253
							c36.305,0.047,67.945,0.087,90.524,0.116c11.297,0.031,20.324,0.055,26.544,0.072c3.101,0.014,5.499,0.025,7.139,0.033
							c0.806,0.007,1.423,0.012,1.854,0.016C346.111,303.608,346.333,303.619,346.333,303.619s-0.2,0.011-0.608,0.016
							c-0.424,0.004-1.03,0.009-1.823,0.016c-1.627,0.008-4.007,0.019-7.084,0.033c-6.206,0.017-15.214,0.041-26.486,0.072
							c-22.622,0.029-54.323,0.07-90.699,0.116l-0.254,0v-0.254c-0.002-11.92-0.005-24.507-0.007-37.443v-0.26h0.26h0.008
							c51.323,0.039,97.146,0.074,126.693,0.096l0.165,0l0,0.164c-0.039,11.822-0.069,21.195-0.09,27.629
							c-0.017,3.186-0.031,5.641-0.04,7.317c-0.008,0.816-0.013,1.439-0.017,1.874C346.344,303.414,346.333,303.619,346.333,303.619
							z"/>
					</g>
				</g>
				<g>
					<g>
						<path style="fill:#263238;" d="M337.565,278.097c0,0.144-24.36,0.26-54.402,0.26c-30.053,0-54.407-0.117-54.407-0.26
							s24.354-0.26,54.407-0.26C313.205,277.837,337.565,277.953,337.565,278.097z"/>
					</g>
				</g>
				<g>
					<g>
						<path style="fill:#263238;" d="M337.565,285.513c0,0.144-24.36,0.26-54.402,0.26c-30.053,0-54.407-0.117-54.407-0.26
							s24.354-0.26,54.407-0.26C313.205,285.253,337.565,285.369,337.565,285.513z"/>
					</g>
				</g>
				<g>
					<g>
						<path style="fill:#263238;" d="M337.565,292.929c0,0.144-24.36,0.26-54.402,0.26c-30.053,0-54.407-0.117-54.407-0.26
							s24.354-0.26,54.407-0.26C313.205,292.669,337.565,292.785,337.565,292.929z"/>
					</g>
				</g>
			</g>
			<g>
				<g>
					<g>
						<path style="fill:#263238;" d="M346.333,350.605c0,0-0.011-0.227-0.017-0.656c-0.004-0.442-0.01-1.075-0.017-1.903
							c-0.009-1.684-0.023-4.151-0.04-7.353c-0.021-6.411-0.052-15.75-0.091-27.53l0.164,0.164
							c-29.547,0.022-75.37,0.057-126.693,0.096h-0.008l0.26-0.26c-0.002,12.937-0.005,25.523-0.007,37.443l-0.253-0.253
							c36.305,0.047,67.945,0.087,90.524,0.116c11.297,0.031,20.324,0.055,26.544,0.072c3.101,0.014,5.499,0.026,7.139,0.033
							c0.806,0.007,1.423,0.012,1.854,0.016C346.111,350.594,346.333,350.605,346.333,350.605s-0.2,0.011-0.608,0.016
							c-0.424,0.004-1.03,0.009-1.823,0.016c-1.627,0.008-4.007,0.019-7.084,0.033c-6.206,0.017-15.214,0.041-26.486,0.072
							c-22.622,0.029-54.323,0.07-90.699,0.116l-0.254,0v-0.254c-0.002-11.92-0.005-24.507-0.007-37.443v-0.26h0.26h0.008
							c51.323,0.039,97.146,0.074,126.693,0.096l0.165,0l0,0.164c-0.039,11.822-0.069,21.195-0.09,27.629
							c-0.017,3.186-0.031,5.641-0.04,7.317c-0.008,0.816-0.013,1.439-0.017,1.874C346.344,350.4,346.333,350.605,346.333,350.605z"
							/>
					</g>
				</g>
				<g>
					<g>
						<path style="fill:#263238;" d="M337.565,325.082c0,0.144-24.36,0.26-54.402,0.26c-30.053,0-54.407-0.116-54.407-0.26
							c0-0.144,24.354-0.26,54.407-0.26C313.205,324.822,337.565,324.939,337.565,325.082z"/>
					</g>
				</g>
				<g>
					<g>
						<path style="fill:#263238;" d="M337.565,332.499c0,0.144-24.36,0.26-54.402,0.26c-30.053,0-54.407-0.117-54.407-0.26
							s24.354-0.26,54.407-0.26C313.205,332.238,337.565,332.355,337.565,332.499z"/>
					</g>
				</g>
				<g>
					<g>
						<path style="fill:#263238;" d="M337.565,339.914c0,0.144-24.36,0.26-54.402,0.26c-30.053,0-54.407-0.116-54.407-0.26
							c0-0.144,24.354-0.26,54.407-0.26C313.205,339.654,337.565,339.771,337.565,339.914z"/>
					</g>
				</g>
			</g>
		</g>
		<g>
			<g>
				<g>
					<g>
						<g>
							<path style="fill:#263238;" d="M221.341,79.848c0.003-0.004,0.068-0.008,0.189-0.012c0.149-0.005,0.321-0.011,0.525-0.017
								c0.496-0.012,1.144-0.027,1.94-0.046l-0.054,0.054c-0.007-0.43-0.015-0.9-0.023-1.407c0.003-0.261-0.022-0.508,0.003-0.81
								c0.052-0.301,0.321-0.567,0.651-0.598c0.313-0.006,0.588-0.02,0.927-0.005c0.35,0.043,0.647,0.379,0.636,0.749
								c0.008,0.656,0.015,1.341,0.023,2.052l-0.09-0.089c0.786-0.008,1.604-0.016,2.447-0.025l-0.093,0.095
								c-0.009-0.986-0.018-2.005-0.027-3.049c-0.002-0.261-0.005-0.519-0.007-0.777c-0.001-0.239-0.147-0.4-0.344-0.578
								c-0.362-0.357-0.719-0.709-1.07-1.055c-0.35-0.346-0.695-0.685-1.032-1.018c-0.169-0.166-0.335-0.331-0.5-0.494
								c-0.172-0.166-0.307-0.337-0.506-0.378c-0.193-0.052-0.406-0.011-0.562,0.107c-0.148,0.125-0.306,0.303-0.455,0.448
								c-0.301,0.304-0.594,0.599-0.878,0.886c-0.552,0.574-1.128,1.098-1.546,1.593c-0.176,0.274-0.11,0.609-0.123,0.913
								c-0.001,0.303-0.001,0.591-0.002,0.862c-0.003,0.529-0.006,0.992-0.008,1.389c-0.004,0.355-0.007,0.648-0.01,0.888
								C221.35,79.733,221.346,79.844,221.341,79.848c-0.005,0.005-0.01-0.096-0.017-0.294c-0.007-0.237-0.015-0.525-0.025-0.875
								c-0.009-0.4-0.02-0.867-0.032-1.4c-0.005-0.277-0.01-0.57-0.016-0.879c-0.002-0.157-0.005-0.317-0.008-0.481
								c-0.001-0.174,0.044-0.353,0.135-0.512c0.453-0.555,0.993-1.046,1.549-1.636c0.282-0.288,0.572-0.586,0.871-0.893
								c0.157-0.154,0.285-0.307,0.472-0.468c0.196-0.15,0.465-0.204,0.71-0.14c0.26,0.058,0.43,0.271,0.588,0.42
								c0.166,0.162,0.333,0.326,0.502,0.492c0.339,0.332,0.684,0.67,1.035,1.015c0.352,0.345,0.709,0.696,1.072,1.052
								c0.086,0.091,0.189,0.168,0.273,0.296c0.079,0.122,0.124,0.266,0.128,0.413c0.002,0.258,0.005,0.519,0.007,0.781
								c0.008,1.044,0.016,2.064,0.023,3.049l0.001,0.094l-0.094,0.001c-0.843,0.005-1.661,0.011-2.447,0.016l-0.09,0.001l0-0.089
								c-0.004-0.711-0.007-1.396-0.011-2.052c0.01-0.296-0.22-0.556-0.494-0.594c-0.282-0.015-0.614-0.005-0.888-0.003
								c-0.263,0.022-0.483,0.233-0.528,0.476c-0.024,0.246-0.006,0.533-0.011,0.782c0,0.507,0,0.977,0.001,1.407l0,0.055l-0.054,0
								c-0.809-0.006-1.468-0.01-1.972-0.014c-0.2-0.003-0.368-0.006-0.514-0.009C221.396,79.855,221.338,79.852,221.341,79.848z"/>
						</g>
					</g>
				</g>
			</g>
		</g>
		<g>
			<g>
				<g>
					
						<ellipse transform="matrix(0.2259 -0.9741 0.9741 0.2259 84.211 379.7125)" style="fill:#E0E0E0;" cx="281.032" cy="136.868" rx="39.551" ry="39.551"/>
				</g>
				<g>
					<g>
						<g>
							<path style="fill:#263238;" d="M312.708,141.087c1.813-2.116,2.302-5.277,1.215-7.842c-1.087-2.565-3.7-4.411-6.481-4.579
								c0.895-2.597,0.339-5.644-1.417-7.757s-4.649-3.217-7.366-2.812c-0.178-2.749-1.76-5.37-4.109-6.809
								c-2.349-1.439-5.403-1.657-7.933-0.567c-1.624-1.973-4.198-3.127-6.752-3.026c-2.554,0.101-5.029,1.454-6.493,3.549
								l-2.08,0.107c-3.638,0.187-7.124,1.806-9.373,4.671c-0.13,0.166-0.263,0.315-0.4,0.442c-2.004,1.863-4.098,3.871-4.808,6.513
								c-0.792,2.948,0.254,6.326-1.232,8.993c-0.584,1.049-1.526,1.898-1.92,3.032c-0.748,2.152,0.702,4.469,0.528,6.74
								c-0.185,2.402-2.167,4.499-1.927,6.896c0.174,1.738,1.492,3.142,2.898,4.178c1.407,1.036,2.993,1.869,4.148,3.179
								c0.923,1.048,1.52,2.348,2.425,3.412c2.567,3.018,7.659,3.412,10.66,0.825c2.007,1.738,4.97,1.996,7.538,1.321
								c2.567-0.675,4.837-2.155,7.056-3.612c0.951,1.297,2.583,2.063,4.188,1.965c1.605-0.098,3.132-1.056,3.918-2.459
								c0.555,1.755,2.634,2.649,4.466,2.469s3.471-1.171,5.038-2.136c2.94-1.811,6.225-4.193,6.304-7.645
								c0.048-2.112-1.17-4.294-0.367-6.247C310.892,142.767,311.921,142.005,312.708,141.087z"/>
						</g>
						<g>
							<path style="fill:#263238;" d="M292.9,127.995c-0.663-1.803-0.371-3.802-0.618-5.707c-0.544-4.195-3.815-7.741-7.755-9.277
								c-3.941-1.536-8.421-1.258-12.438,0.067c-2.991,0.987-5.852,2.584-7.881,4.993c-2.693,3.198-3.686,7.75-2.568,11.779
								l21.461-2.846c1.984,1.685,4.016,3.399,6.437,4.355c0.71,0.281,1.476,0.495,2.231,0.385c0.756-0.11,1.495-0.613,1.684-1.353
								C293.659,129.582,293.188,128.778,292.9,127.995z"/>
						</g>
						<g>
							<path style="fill:#B78876;" d="M290.207,123.188l-18.651-4.201c-5.95-0.473-9.706,6.936-9.926,12.902
								c-0.245,6.627-0.282,14.728,0.63,19.645c1.835,9.886,9.476,10.951,9.476,10.951c0.001-0.034,0.039,6.752,0.175,10.358
								c6.747,3.206,13.687,2.749,20.77-0.417l0.742-45.777C293.412,124.834,292.014,123.331,290.207,123.188z"/>
						</g>
						<g>
							<g>
								<g>
									<g>
										<g>
											<g>
												<g>
													<g>
														<g>
															<g>
																<g>
																	<g>
																		<g>
																			<g>
																				<g>
																					<g>
																						<g>
																							<path style="fill:#263238;" d="M265.502,138.051c-0.006,0.673,0.558,1.233,1.261,1.253
																								c0.701,0.019,1.276-0.509,1.283-1.182c0.006-0.673-0.559-1.234-1.26-1.253
																								C266.083,136.849,265.508,137.378,265.502,138.051z"/>
																						</g>
																					</g>
																				</g>
																			</g>
																		</g>
																	</g>
																</g>
															</g>
														</g>
													</g>
												</g>
											</g>
										</g>
									</g>
									<g>
										<g>
											<g>
												<g>
													<g>
														<g>
															<g>
																<g>
																	<g>
																		<g>
																			<g>
																				<g>
																					<g>
																						<g>
																							<g>
																								<path style="fill:#263238;" d="M263.495,136.053c0.162,0.162,1.108-0.577,2.478-0.609
																									c1.368-0.052,2.392,0.627,2.536,0.455c0.071-0.076-0.098-0.371-0.543-0.679
																									c-0.439-0.306-1.182-0.596-2.036-0.57c-0.853,0.027-1.563,0.36-1.967,0.692
																									C263.55,135.677,263.415,135.98,263.495,136.053z"/>
																							</g>
																						</g>
																					</g>
																				</g>
																			</g>
																		</g>
																	</g>
																</g>
															</g>
														</g>
													</g>
												</g>
											</g>
										</g>
									</g>
								</g>
								<g>
									<g>
										<g>
											<g>
												<g>
													<g>
														<g>
															<g>
																<g>
																	<g>
																		<g>
																			<g>
																				<g>
																					<g>
																						<g>
																							<path style="fill:#263238;" d="M278.489,138.051c-0.007,0.673,0.558,1.233,1.261,1.252
																								c0.701,0.019,1.276-0.509,1.283-1.182c0.006-0.673-0.558-1.234-1.26-1.253
																								C279.069,136.849,278.495,137.378,278.489,138.051z"/>
																						</g>
																					</g>
																				</g>
																			</g>
																		</g>
																	</g>
																</g>
															</g>
														</g>
													</g>
												</g>
											</g>
										</g>
									</g>
									<g>
										<g>
											<g>
												<g>
													<g>
														<g>
															<g>
																<g>
																	<g>
																		<g>
																			<g>
																				<g>
																					<g>
																						<g>
																							<g>
																								<path style="fill:#263238;" d="M276.968,135.958c0.163,0.162,1.11-0.577,2.479-0.609
																									c1.368-0.052,2.392,0.627,2.536,0.455c0.071-0.076-0.096-0.372-0.544-0.679
																									c-0.439-0.306-1.182-0.596-2.035-0.57c-0.853,0.027-1.563,0.36-1.967,0.692
																									C277.024,135.582,276.888,135.886,276.968,135.958z"/>
																							</g>
																						</g>
																					</g>
																				</g>
																			</g>
																		</g>
																	</g>
																</g>
															</g>
														</g>
													</g>
												</g>
											</g>
										</g>
									</g>
								</g>
								<g>
									<g>
										<g>
											<g>
												<g>
													<g>
														<g>
															<g>
																<g>
																	<g>
																		<g>
																			<g>
																				<g>
																					<g>
																						<g>
																							<path style="fill:#263238;" d="M272.26,146.247c0.004-0.078-0.851-0.203-2.236-0.344
																								c-0.351-0.027-0.684-0.088-0.749-0.325c-0.089-0.251,0.047-0.632,0.206-1.043
																								c0.307-0.855,0.628-1.752,0.965-2.691c1.338-3.83,2.297-6.976,2.142-7.028
																								c-0.155-0.053-1.365,3.009-2.703,6.839c-0.321,0.944-0.629,1.844-0.921,2.705
																								c-0.122,0.401-0.338,0.858-0.146,1.378c0.101,0.259,0.363,0.442,0.589,0.497
																								c0.226,0.063,0.423,0.061,0.596,0.067C271.395,146.342,272.257,146.326,272.26,146.247z"/>
																						</g>
																					</g>
																				</g>
																			</g>
																		</g>
																	</g>
																</g>
															</g>
														</g>
													</g>
												</g>
											</g>
										</g>
									</g>
								</g>
								<g>
									<g>
										<g>
											<g>
												<g>
													<g>
														<g>
															<g>
																<g>
																	<g>
																		<g>
																			<g>
																				<g>
																					<g>
																						<path style="fill:#AA6550;" d="M271.736,162.484c0,0,6.69,0.257,13.202-3.892c0,0-3.164,6.959-13.124,6.288
																							L271.736,162.484z"/>
																					</g>
																				</g>
																			</g>
																		</g>
																	</g>
																</g>
															</g>
														</g>
													</g>
												</g>
											</g>
										</g>
									</g>
								</g>
								<g>
									<g>
										<g>
											<g>
												<g>
													<g>
														<g>
															<g>
																<g>
																	<g>
																		<g>
																			<g>
																				<g>
																					<g>
																						<path style="fill:#AA6550;" d="M272.926,149.534c0.476-0.664,1.33-1.044,2.189-0.975
																							c0.596,0.049,1.204,0.32,1.578,0.794c0.374,0.475,0.467,1.16,0.151,1.63c-0.356,0.529-1.126,0.67-1.784,0.501
																							c-0.659-0.169-1.233-0.585-1.778-0.999c-0.151-0.115-0.305-0.235-0.402-0.395
																							c-0.097-0.16-0.122-0.372-0.011-0.51"/>
																					</g>
																				</g>
																			</g>
																		</g>
																	</g>
																</g>
															</g>
														</g>
													</g>
												</g>
											</g>
										</g>
									</g>
								</g>
								<g>
									<g>
										<g>
											<g>
												<g>
													<g>
														<g>
															<g>
																<g>
																	<g>
																		<g>
																			<g>
																				<g>
																					<g>
																						<g>
																							<path style="fill:#263238;" d="M276.316,147.09c-0.223-0.007-0.187,1.48-1.433,2.568
																								c-1.243,1.092-2.832,0.966-2.839,1.174c-0.018,0.094,0.36,0.28,1.03,0.28c0.657,0.006,1.61-0.23,2.372-0.896
																								c0.76-0.667,1.071-1.54,1.106-2.151C276.593,147.443,276.418,147.079,276.316,147.09z"/>
																						</g>
																					</g>
																				</g>
																			</g>
																		</g>
																	</g>
																</g>
															</g>
														</g>
													</g>
												</g>
											</g>
										</g>
									</g>
								</g>
							</g>
						</g>
						<g>
							<g>
								<g>
									<g>
										<g>
											<g>
												<g>
													<g>
														<g>
															<g>
																<g>
																	<g>
																		<g>
																			<path style="fill:#263238;" d="M276.63,131.822c0.145,0.369,1.508,0.157,3.12,0.309
																				c1.616,0.12,2.924,0.556,3.129,0.217c0.091-0.162-0.144-0.507-0.677-0.854c-0.529-0.346-1.367-0.667-2.334-0.749
																				c-0.968-0.081-1.847,0.096-2.426,0.349C276.857,131.346,276.568,131.647,276.63,131.822z"/>
																		</g>
																	</g>
																</g>
															</g>
														</g>
													</g>
												</g>
											</g>
										</g>
									</g>
								</g>
							</g>
						</g>
						<g>
							<g>
								<g>
									<g>
										<g>
											<g>
												<g>
													<g>
														<g>
															<g>
																<g>
																	<g>
																		<g>
																			<path style="fill:#263238;" d="M263.736,130.052c0.249,0.305,1.184-0.043,2.319-0.087
																				c1.133-0.084,2.101,0.154,2.314-0.177c0.093-0.16-0.067-0.468-0.494-0.752c-0.421-0.283-1.12-0.505-1.899-0.461
																				c-0.779,0.045-1.447,0.344-1.834,0.673C263.749,129.579,263.626,129.903,263.736,130.052z"/>
																		</g>
																	</g>
																</g>
															</g>
														</g>
													</g>
												</g>
											</g>
										</g>
									</g>
								</g>
							</g>
						</g>
						<g>
							<path style="fill:#263238;" d="M296.366,125.15c-1.866-5.72-10.233-13.588-16.231-13.126l-9.543,5.817
								c0.603,3.262,3.145,6.087,6.325,7.031c1.698,0.504,3.74,0.631,4.758,2.081c1.04,1.481,0.454,3.652,1.422,5.18
								c1.343,2.117,4.97,1.991,5.982,4.285c0.442,1.002,0.224,2.205,0.684,3.199c0.613,1.325,3.989,2.985,5.377,2.534
								c1.388-0.451,1.375-2.82,1.821-4.064c0.762-2.126,0.434-3.224,0.17-4.406C296.504,130.878,297.256,127.88,296.366,125.15z"/>
						</g>
						<g>
							<g>
								<path style="fill:#455A64;" d="M295.131,139.722c-0.05-0.018,0.148-0.512,0.299-1.444c0.129-0.926,0.189-2.324-0.312-3.929
									c-0.492-1.578-1.544-3.412-3.41-4.595c-0.925-0.598-2.015-1.042-3.136-1.562c-1.111-0.521-2.305-1.138-3.21-2.177
									c-0.906-1.043-1.327-2.299-1.86-3.377c-0.512-1.09-1.215-2.014-2.04-2.744c-1.65-1.471-3.655-2.096-5.316-2.123
									c-1.677-0.04-3.009,0.399-3.861,0.784c-0.862,0.388-1.285,0.712-1.313,0.672c-0.011-0.014,0.087-0.104,0.286-0.262
									c0.202-0.153,0.51-0.367,0.938-0.592c0.845-0.45,2.203-0.963,3.955-0.97c1.735-0.021,3.869,0.597,5.627,2.13
									c0.877,0.754,1.643,1.748,2.182,2.88c0.552,1.112,0.973,2.322,1.795,3.259c0.818,0.943,1.938,1.538,3.033,2.057
									c1.101,0.519,2.212,0.981,3.181,1.622c1.971,1.285,3.037,3.238,3.502,4.893c0.475,1.685,0.353,3.131,0.158,4.069
									c-0.114,0.47-0.22,0.829-0.327,1.061C295.206,139.61,295.148,139.729,295.131,139.722z"/>
							</g>
						</g>
						<g>
							<g>
								<path style="fill:#455A64;" d="M294.222,129.093c-0.047,0.026-0.223-0.354-0.737-0.867c-0.51-0.521-1.416-1.069-2.623-1.607
									c-0.598-0.28-1.268-0.574-1.957-0.975c-0.68-0.4-1.406-0.928-1.929-1.689c-1.068-1.493-1.408-3.496-2.824-4.872
									c-1.372-1.405-3.216-2.127-4.896-2.361c-1.698-0.23-3.266,0.019-4.524,0.356c-2.528,0.714-3.924,1.64-3.972,1.541
									c-0.017-0.028,0.316-0.273,0.964-0.642c0.65-0.364,1.62-0.856,2.905-1.252c1.279-0.391,2.895-0.693,4.688-0.478
									c1.77,0.221,3.728,0.963,5.207,2.474c1.536,1.523,1.874,3.598,2.844,4.96c0.964,1.39,2.499,1.994,3.654,2.608
									c1.194,0.583,2.122,1.209,2.609,1.799c0.245,0.29,0.407,0.538,0.485,0.721C294.202,128.988,294.238,129.085,294.222,129.093
									z"/>
							</g>
						</g>
						<g>
							<g>
								<g>
									<g>
										<path style="fill:#B78876;" d="M291.043,143.352c-0.017-0.739,0.792-2.504,1.519-2.637c1.942-0.355,5.46-0.29,5.621,4.661
											c0.221,6.767-6.619,5.593-6.637,5.399C291.532,150.624,291.103,145.905,291.043,143.352z"/>
									</g>
								</g>
							</g>
						</g>
						<g>
							<g>
								<g>
									<g>
										<g>
											<path style="fill:#AA6550;" d="M293.53,148.144c0.029-0.023,0.121,0.079,0.323,0.163
												c0.197,0.082,0.534,0.133,0.882-0.011c0.706-0.286,1.271-1.44,1.264-2.661c-0.003-0.617-0.151-1.199-0.385-1.677
												c-0.223-0.488-0.554-0.824-0.916-0.876c-0.361-0.071-0.609,0.152-0.685,0.345c-0.085,0.193-0.037,0.326-0.073,0.339
												c-0.018,0.018-0.149-0.108-0.103-0.389c0.024-0.135,0.098-0.298,0.253-0.433c0.158-0.137,0.395-0.212,0.646-0.194
												c0.523,0.019,1.008,0.484,1.266,1.009c0.286,0.527,0.467,1.181,0.47,1.873c0.001,1.365-0.655,2.664-1.624,2.979
												c-0.472,0.139-0.874,0.009-1.084-0.144C293.547,148.307,293.507,148.157,293.53,148.144z"/>
										</g>
									</g>
								</g>
							</g>
						</g>
					</g>
					<g>
						<g>
							<path style="fill:#E0E0E0;" d="M296.491,149.806c0.101-0.141,0.33-0.21,0.655-0.065c0.316,0.142,0.707,0.521,0.885,1.142
								c0.188,0.589,0.13,1.537-0.538,2.292c-0.643,0.72-1.667,1.117-2.752,0.922c-1.142-0.21-1.915-1.069-2.202-1.864
								c-0.306-0.816-0.229-1.638,0.095-2.235c0.31-0.577,0.816-0.889,1.199-0.929c0.389-0.045,0.579,0.14,0.6,0.308
								c0.027,0.181-0.062,0.362-0.08,0.562c-0.021,0.193-0.017,0.403,0.031,0.632c0.053,0.199,0.162,0.448,0.327,0.642
								c0.171,0.206,0.367,0.304,0.508,0.324c0.183,0.04,0.441-0.007,0.587-0.068c0.139-0.039,0.296-0.173,0.393-0.409
								C296.419,150.612,296.299,150.109,296.491,149.806z"/>
						</g>
					</g>
				</g>
				<g>
					<path style="fill:#FF725E;" d="M263.057,172.108l8.789-1.523l20.878-0.756l9.45,0.471
						C302.173,170.3,284.044,182.901,263.057,172.108z"/>
				</g>
			</g>
			<g>
				<g>
					<path style="fill:#263238;" d="M320.583,136.868c0,0-0.029-0.217-0.059-0.64c-0.028-0.441-0.069-1.065-0.121-1.877
						c-0.025-0.414-0.052-0.875-0.082-1.382c-0.053-0.506-0.162-1.055-0.251-1.652c-0.095-0.597-0.197-1.239-0.306-1.925
						c-0.082-0.692-0.339-1.394-0.517-2.156c-0.696-3.055-2.126-6.664-4.38-10.49c-2.273-3.81-5.552-7.79-10.017-11.169
						c-0.561-0.418-1.128-0.84-1.702-1.268c-0.598-0.392-1.228-0.751-1.851-1.134c-0.635-0.361-1.238-0.801-1.92-1.109
						c-0.674-0.323-1.355-0.65-2.043-0.98c-0.345-0.163-0.691-0.327-1.039-0.492c-0.362-0.132-0.726-0.264-1.092-0.397
						c-0.731-0.266-1.469-0.535-2.214-0.807c-0.752-0.248-1.539-0.409-2.318-0.62c-0.787-0.178-1.56-0.455-2.381-0.539
						c-1.626-0.23-3.27-0.566-4.973-0.575c-0.848-0.029-1.702-0.112-2.563-0.098c-0.861,0.045-1.728,0.089-2.602,0.135
						c-0.436,0.03-0.877,0.027-1.314,0.085l-1.311,0.202c-0.875,0.145-1.765,0.248-2.645,0.43c-1.735,0.472-3.533,0.825-5.242,1.539
						c-1.764,0.564-3.422,1.436-5.126,2.253c-0.83,0.45-1.626,0.974-2.448,1.462c-0.402,0.258-0.832,0.477-1.215,0.768l-1.157,0.867
						c-1.598,1.097-2.995,2.468-4.458,3.789c-1.322,1.463-2.711,2.895-3.851,4.555l-0.904,1.209l-0.791,1.293l-0.79,1.301
						c-0.275,0.429-0.526,0.871-0.732,1.34c-0.443,0.92-0.888,1.844-1.334,2.771c-0.354,0.966-0.71,1.937-1.066,2.91
						c-1.281,3.944-1.971,8.134-2.028,12.397c0.056,4.264,0.744,8.455,2.025,12.401c0.357,0.974,0.712,1.944,1.066,2.911
						c0.447,0.928,0.891,1.852,1.335,2.772l0.335,0.688l0.396,0.653l0.79,1.302l0.791,1.294l0.904,1.209
						c1.14,1.661,2.529,3.093,3.851,4.556c1.463,1.321,2.861,2.693,4.459,3.79l1.157,0.867c0.383,0.291,0.813,0.51,1.215,0.768
						c0.822,0.488,1.618,1.012,2.448,1.462c1.705,0.818,3.363,1.689,5.127,2.254c1.709,0.714,3.507,1.066,5.242,1.539
						c0.88,0.182,1.77,0.285,2.645,0.43l1.311,0.202c0.437,0.058,0.878,0.055,1.314,0.085c0.874,0.045,1.742,0.09,2.603,0.135
						c0.861,0.013,1.716-0.069,2.564-0.099c1.704-0.009,3.347-0.345,4.973-0.575c0.82-0.084,1.594-0.361,2.381-0.539
						c0.779-0.212,1.566-0.371,2.318-0.62c0.745-0.271,1.483-0.54,2.214-0.807c0.366-0.133,0.729-0.265,1.092-0.397
						c0.348-0.165,0.694-0.329,1.039-0.493c0.688-0.33,1.369-0.656,2.043-0.98c0.682-0.309,1.284-0.748,1.919-1.11
						c0.623-0.384,1.253-0.742,1.85-1.135c0.574-0.427,1.141-0.85,1.702-1.268c4.465-3.379,7.744-7.359,10.016-11.169
						c2.254-3.826,3.683-7.435,4.379-10.49c0.178-0.762,0.435-1.464,0.517-2.156c0.109-0.686,0.211-1.327,0.306-1.924
						c0.089-0.597,0.197-1.145,0.251-1.652c0.03-0.507,0.058-0.968,0.082-1.382c0.052-0.812,0.092-1.436,0.121-1.877
						C320.554,137.085,320.583,136.868,320.583,136.868s0.007,0.217-0.006,0.641c-0.016,0.443-0.039,1.068-0.069,1.883
						c-0.017,0.416-0.036,0.879-0.058,1.388c-0.045,0.509-0.146,1.06-0.227,1.66c-0.088,0.601-0.182,1.247-0.283,1.937
						c-0.075,0.696-0.325,1.403-0.496,2.171c-0.67,3.078-2.079,6.721-4.326,10.589c-2.265,3.852-5.55,7.884-10.043,11.313
						c-0.565,0.424-1.136,0.853-1.713,1.286c-0.602,0.398-1.236,0.763-1.864,1.153c-0.64,0.367-1.247,0.813-1.935,1.128
						c-0.68,0.329-1.367,0.661-2.06,0.997c-0.348,0.166-0.697,0.333-1.048,0.501c-0.365,0.135-0.733,0.27-1.101,0.405
						c-0.738,0.271-1.483,0.546-2.235,0.822c-0.759,0.254-1.554,0.418-2.341,0.635c-0.795,0.183-1.577,0.464-2.405,0.552
						c-1.643,0.238-3.305,0.581-5.027,0.595c-0.857,0.032-1.722,0.117-2.592,0.106c-0.871-0.043-1.749-0.086-2.633-0.13
						c-0.441-0.03-0.888-0.026-1.329-0.083l-1.327-0.201c-0.886-0.145-1.787-0.247-2.678-0.43c-1.757-0.473-3.578-0.828-5.309-1.547
						c-1.786-0.569-3.467-1.447-5.194-2.273c-0.841-0.455-1.648-0.984-2.481-1.477c-0.408-0.26-0.843-0.482-1.231-0.776
						l-1.173-0.876c-1.619-1.109-3.037-2.496-4.519-3.834c-1.342-1.479-2.749-2.93-3.906-4.611l-0.916-1.225l-0.803-1.31
						l-0.801-1.318l-0.402-0.661l-0.341-0.696c-0.449-0.932-0.901-1.868-1.354-2.808c-0.359-0.979-0.72-1.963-1.082-2.949
						c-1.3-3.997-1.998-8.245-2.054-12.565c0.057-4.319,0.757-8.564,2.057-12.56c0.362-0.986,0.723-1.969,1.082-2.948
						c0.453-0.939,0.904-1.875,1.353-2.807c0.209-0.474,0.464-0.923,0.743-1.357l0.801-1.318l0.803-1.309l0.916-1.224
						c1.157-1.68,2.564-3.13,3.905-4.609c1.483-1.337,2.9-2.723,4.519-3.832l1.173-0.876c0.388-0.293,0.823-0.516,1.231-0.776
						c0.833-0.493,1.639-1.022,2.48-1.476c1.727-0.826,3.408-1.704,5.193-2.273c1.731-0.719,3.551-1.074,5.309-1.547
						c0.891-0.183,1.792-0.285,2.677-0.43l1.327-0.201c0.442-0.057,0.888-0.054,1.329-0.084c0.884-0.044,1.761-0.087,2.632-0.13
						c0.871-0.012,1.735,0.074,2.592,0.106c1.722,0.015,3.384,0.357,5.027,0.595c0.829,0.088,1.611,0.369,2.405,0.551
						c0.786,0.216,1.581,0.381,2.341,0.634c0.752,0.276,1.497,0.55,2.235,0.822c0.369,0.136,0.736,0.271,1.101,0.405
						c0.351,0.168,0.701,0.335,1.048,0.501c0.694,0.336,1.38,0.668,2.06,0.997c0.687,0.315,1.294,0.76,1.935,1.128
						c0.628,0.39,1.262,0.755,1.864,1.153c0.578,0.434,1.149,0.863,1.713,1.286c4.493,3.429,7.778,7.461,10.044,11.313
						c2.247,3.869,3.657,7.512,4.327,10.59c0.171,0.768,0.421,1.475,0.496,2.172c0.101,0.69,0.195,1.336,0.283,1.937
						c0.081,0.6,0.182,1.152,0.227,1.661c0.021,0.509,0.04,0.973,0.058,1.388c0.03,0.815,0.053,1.44,0.069,1.883
						C320.59,136.651,320.583,136.868,320.583,136.868z"/>
				</g>
			</g>
		</g>
	</g>
</g>
<g id="Plant">
	<g>
		<g>
			<path style="fill:#FF725E;" d="M444.77,388.764c-5.072-4.881-12.692-6.952-19.536-5.309c-6.844,1.643-12.694,6.948-14.997,13.599
				l2.499,9.663c0.95-3.292,2.984-6.474,6.13-7.83c3.272-1.411,7.063-0.607,10.413,0.609c3.349,1.217,6.639,2.845,10.195,3.065
				c3.557,0.22,7.571-1.468,8.637-4.868C449.112,394.496,447.184,391.087,444.77,388.764z"/>
		</g>
		<g>
			<g style="opacity:0.3;">
				<path d="M444.77,388.764c-5.072-4.881-12.692-6.952-19.536-5.309c-6.844,1.643-12.694,6.948-14.997,13.599l2.499,9.663
					c0.95-3.292,2.984-6.474,6.13-7.83c3.272-1.411,7.063-0.607,10.413,0.609c3.349,1.217,6.639,2.845,10.195,3.065
					c3.557,0.22,7.571-1.468,8.637-4.868C449.112,394.496,447.184,391.087,444.77,388.764z"/>
			</g>
			<g>
				<g>
					<g>
						<g>
							<g>
								<path style="fill:#FF725E;" d="M384.556,421.005c-5.219-4.957-4.958-13.587-2.355-20.298
									c2.603-6.71,8.285-11.863,14.631-15.259c12.302-6.583,27.68-7.081,40.382-1.309c-6.242,0.207-12.275,3.749-15.497,9.1
									c-2.86,4.75-3.495,10.514-5.858,15.529c-2.632,5.587-7.463,10.102-13.215,12.351
									C396.891,423.368,390.279,423.326,384.556,421.005"/>
							</g>
						</g>
					</g>
				</g>
			</g>
			<g>
				<g>
					<g>
						<g>
							<g>
								<path style="fill:#FF725E;" d="M382.047,391.221c-5.777-6.82-6.547-17.768-5.696-26.665
									c0.851-8.898,2.913-17.852,1.51-26.68c-0.831-5.23-2.86-10.223-3.546-15.474c-0.686-5.251,0.286-11.189,4.355-14.578
									c4.676-3.896,12.04-2.977,16.904,0.681c4.864,3.658,7.683,9.404,9.743,15.131c4.525,12.582,6.186,26.535,2.469,39.379
									c-3.717,12.844-12.44,24.329-25.237,28.205"/>
							</g>
						</g>
					</g>
				</g>
			</g>
			<g>
				<g>
					<g>
						<g>
							<g>
								<g>
									<path style="fill:#263238;" d="M379.274,447.178c-0.017,0-0.023-0.271-0.022-0.786c0.007-0.515,0-1.276,0.043-2.254
										c0.074-1.956,0.262-4.785,0.7-8.26c0.44-3.473,1.128-7.592,2.22-12.095c1.076-4.513,2.917-9.323,5.52-14.005
										c2.612-4.683,5.798-8.727,9.02-12.058c3.231-3.334,6.536-5.928,9.456-7.864c1.443-0.998,2.839-1.755,4.041-2.457
										c1.232-0.647,2.308-1.178,3.189-1.603c0.871-0.366,1.564-0.658,2.079-0.874c0.477-0.195,0.73-0.289,0.736-0.274
										c0.006,0.015-0.235,0.14-0.699,0.363c-0.504,0.236-1.183,0.554-2.037,0.953c-0.866,0.45-1.925,1.003-3.139,1.669
										c-1.183,0.721-2.56,1.494-3.982,2.504c-2.879,1.96-6.138,4.563-9.328,7.889c-3.181,3.324-6.33,7.342-8.92,11.986
										c-5.312,9.292-6.767,19.063-7.822,25.911c-0.48,3.458-0.719,6.276-0.85,8.225c-0.055,0.942-0.099,1.69-0.132,2.246
										C379.316,446.908,379.291,447.178,379.274,447.178z"/>
								</g>
							</g>
						</g>
					</g>
				</g>
			</g>
			<g>
				<g>
					<g>
						<g>
							<g>
								<g>
									<path style="fill:#FF725E;" d="M329.44,364.317c-10.69,6.451-10.656,12.321-8.871,17.862
										c1.785,5.541,8.346,9.39,13.785,7.316c3.075-1.173,5.302-3.846,7.204-6.531c1.902-2.685,3.69-5.56,6.356-7.489
										c2.666-1.929,6.531-2.667,9.209-0.755"/>
								</g>
							</g>
						</g>
					</g>
				</g>
				<g>
					<g>
						<path d="M360.51,376.527l-10.24-3.848l4.079,0.48c1.152,0.135,2.184,0.523,3.065,1.154L360.51,376.527z"/>
					</g>
					<g style="opacity:0.3;">
						<path d="M329.44,364.316c-10.69,6.451-10.656,12.321-8.871,17.862c1.785,5.541,8.346,9.39,13.785,7.316
							c3.075-1.173,5.302-3.846,7.204-6.531c1.902-2.685,3.69-5.56,6.356-7.489c1.82-1.317,4.198-2.077,6.377-1.819L329.44,364.316z
							"/>
					</g>
				</g>
				<g>
					<g>
						<g>
							<g>
								<g>
									<path style="fill:#FF725E;" d="M321.437,371.389c2.795-3.862,9.7-4.98,14.06-3.053c4.36,1.927,7.554,5.749,10.413,9.564
										c2.859,3.815,5.641,7.844,9.601,10.498c3.96,2.654,9.492,3.616,13.438,0.942c2.592-1.756,4.095-4.809,4.565-7.905
										c0.47-3.096,0.017-6.257-0.628-9.321c-0.943-4.483-2.483-9.165-6.071-12.014c-3.999-3.175-9.547-3.325-14.649-3.158
										c-5.855,0.191-11.798,0.631-17.293,2.66C329.378,361.632,323.77,366.015,321.437,371.389"/>
								</g>
							</g>
						</g>
					</g>
				</g>
				<g>
					<g>
						<g>
							<g>
								<g>
									<g>
										<path style="fill:#263238;" d="M370.39,438.617c-0.008,0-0.018-0.079-0.029-0.235c-0.01-0.183-0.022-0.41-0.036-0.69
											c-0.022-0.645-0.053-1.531-0.092-2.653c-0.067-2.344-0.163-5.667-0.28-9.757c-0.129-4.118-0.297-9.022-0.594-14.461
											c-0.305-5.436-0.708-11.416-1.533-17.638c-0.42-3.107-0.911-6.145-1.771-8.958c-0.867-2.815-2.021-5.437-3.276-7.838
											c-1.268-2.397-2.658-4.578-4.133-6.487c-1.482-1.904-3.012-3.556-4.513-4.955c-3.033-2.772-5.935-4.466-8.001-5.455
											c-0.522-0.239-0.977-0.473-1.387-0.64c-0.403-0.156-0.75-0.291-1.044-0.405c-0.259-0.105-0.47-0.19-0.64-0.259
											c-0.143-0.061-0.216-0.096-0.213-0.104c0.003-0.008,0.08,0.012,0.229,0.057c0.175,0.057,0.391,0.128,0.657,0.214
											c0.299,0.102,0.654,0.224,1.065,0.364c0.418,0.153,0.881,0.376,1.412,0.603c2.103,0.943,5.059,2.607,8.15,5.373
											c1.53,1.395,3.089,3.05,4.599,4.962c1.503,1.917,2.919,4.11,4.209,6.524c1.278,2.419,2.449,5.055,3.334,7.905
											c0.881,2.862,1.375,5.912,1.798,9.033c0.828,6.247,1.218,12.236,1.499,17.68c0.273,5.446,0.406,10.354,0.492,14.475
											c0.084,4.122,0.117,7.457,0.128,9.763c0.001,1.123,0.002,2.01,0.003,2.655c-0.005,0.28-0.008,0.507-0.011,0.691
											C370.405,438.537,370.398,438.617,370.39,438.617z"/>
									</g>
								</g>
							</g>
						</g>
					</g>
				</g>
			</g>
			<g>
				<g>
					<g>
						<g>
							<g>
								<g>
									<path style="fill:#263238;" d="M374.236,443.447c0,0-0.598-1.587-1.171-4.591c-0.557-2.999-0.975-7.445-0.49-12.897
										c0.457-5.451,1.852-11.847,4.073-18.712c2.194-6.877,5.172-14.232,7.716-22.137c1.262-3.956,2.334-7.869,3.07-11.712
										c0.745-3.841,1.216-7.592,1.516-11.176c0.599-7.172,0.514-13.67,0.34-19.111c-0.185-5.444-0.474-9.846-0.655-12.888
										c-0.088-1.498-0.157-2.673-0.206-3.504c-0.018-0.38-0.032-0.681-0.043-0.912c-0.007-0.206-0.006-0.311,0.002-0.312
										c0.008,0,0.024,0.104,0.047,0.308c0.023,0.23,0.052,0.53,0.09,0.909c0.07,0.83,0.169,2.003,0.296,3.498
										c0.238,3.039,0.579,7.439,0.807,12.889c0.217,5.447,0.338,11.958-0.239,19.159c-0.289,3.598-0.753,7.367-1.496,11.229
										c-0.733,3.865-1.808,7.801-3.074,11.768c-2.553,7.931-5.542,15.277-7.752,22.127c-2.238,6.837-3.659,13.191-4.156,18.607
										c-0.526,5.417-0.162,9.839,0.336,12.834c0.262,1.497,0.503,2.656,0.714,3.429c0.09,0.37,0.161,0.662,0.216,0.887
										C374.224,443.341,374.244,443.445,374.236,443.447z"/>
								</g>
							</g>
						</g>
					</g>
				</g>
			</g>
			<g>
				<g>
					<g>
						<g>
							<g>
								<polygon style="fill:#455A64;" points="400.738,448.278 350.545,448.278 349.399,438.617 400.738,438.617 								"/>
							</g>
						</g>
					</g>
				</g>
			</g>
			<g>
				<g>
					<g>
						<g>
							<g>
								<polygon style="fill:#455A64;" points="355.931,447.178 362.207,476.159 389.48,476.159 395.352,447.178 								"/>
							</g>
						</g>
					</g>
				</g>
			</g>
			<g>
				<g>
					<g>
						<g>
							<g>
								<g>
									<path style="fill:#455A64;" d="M400.737,448.278c0,0.132-11.036,0.208-24.645,0.17
										c-13.614-0.038-24.646-0.176-24.646-0.308c0-0.132,11.033-0.208,24.647-0.17
										C389.703,448.008,400.737,448.146,400.737,448.278z"/>
								</g>
							</g>
						</g>
					</g>
				</g>
			</g>
			<g>
				<g>
					<g>
						<g>
							<g>
								<g>
									<path style="fill:#263238;" d="M392.123,462.583c-0.064,0.097-1.481-1.364-4.42-2.534c-1.458-0.58-3.303-1.032-5.375-1.079
										c-2.076-0.067-4.329,0.428-6.608,1.213c-2.288,0.774-4.425,1.674-6.505,2.17c-2.091,0.451-4.036,0.417-5.622,0.169
										c-1.59-0.249-2.823-0.721-3.613-1.144c-0.39-0.224-0.688-0.403-0.871-0.553c-0.188-0.142-0.282-0.223-0.272-0.236
										c0.026-0.038,0.428,0.249,1.226,0.622c0.8,0.364,2.018,0.775,3.578,0.977c1.554,0.2,3.457,0.196,5.476-0.264
										c2.009-0.502,4.145-1.412,6.45-2.193c2.299-0.793,4.633-1.295,6.773-1.2c2.133,0.073,4.018,0.574,5.491,1.206
										c1.487,0.617,2.565,1.364,3.271,1.908c0.354,0.275,0.613,0.505,0.779,0.672C392.05,462.479,392.134,462.57,392.123,462.583
										z"/>
								</g>
							</g>
						</g>
					</g>
				</g>
			</g>
			<g>
				<g>
					<g>
						<g>
							<g>
								<g>
									<path style="fill:#FFFFFF;" d="M391.742,464.518c-0.066,0.098-1.429-1.319-4.245-2.5c-1.401-0.58-3.18-1.029-5.183-1.068
										c-2.006-0.055-4.188,0.399-6.393,1.15c-2.211,0.739-4.286,1.597-6.268,2.13c-1.979,0.541-3.848,0.73-5.403,0.606
										c-1.559-0.109-2.774-0.549-3.542-0.948c-0.379-0.214-0.667-0.388-0.844-0.534c-0.182-0.138-0.272-0.216-0.262-0.229
										c0.027-0.039,0.414,0.241,1.187,0.596c0.775,0.339,1.965,0.715,3.482,0.778c1.513,0.078,3.33-0.141,5.264-0.694
										c1.94-0.546,3.999-1.411,6.235-2.159c2.226-0.76,4.487-1.219,6.554-1.137c2.064,0.065,3.888,0.564,5.304,1.197
										c1.427,0.622,2.458,1.361,3.133,1.896c0.339,0.268,0.587,0.495,0.748,0.656
										C391.673,464.417,391.753,464.506,391.742,464.518z"/>
								</g>
							</g>
						</g>
					</g>
				</g>
			</g>
			<g>
				<g>
					<g>
						<g>
							<g>
								<g>
									<path style="fill:#FFFFFF;" d="M392.62,460.661c-0.062,0.09-1.534-1.388-4.539-2.675c-1.492-0.634-3.374-1.197-5.509-1.325
										c-2.138-0.15-4.468,0.396-6.819,1.202c-2.365,0.793-4.56,1.755-6.735,2.2c-2.175,0.394-4.174,0.273-5.806,0.01
										c-1.634-0.284-2.909-0.75-3.729-1.18c-0.405-0.226-0.716-0.407-0.905-0.562c-0.195-0.146-0.292-0.228-0.283-0.241
										c0.027-0.039,0.441,0.258,1.269,0.636c0.829,0.371,2.092,0.778,3.701,1.014c1.605,0.217,3.57,0.298,5.67-0.108
										c2.083-0.447,4.286-1.42,6.665-2.22c2.37-0.813,4.784-1.369,6.999-1.189c2.203,0.156,4.115,0.769,5.619,1.455
										c1.514,0.677,2.621,1.452,3.348,2.016c0.363,0.285,0.632,0.522,0.804,0.694
										C392.545,460.555,392.631,460.649,392.62,460.661z"/>
								</g>
							</g>
						</g>
					</g>
				</g>
			</g>
		</g>
		<g>
			<g>
				<g>
					<g>
						<g>
							<g>
								<path style="fill:#263238;" d="M401.181,448.319c0,0.132-11.291,0.239-25.215,0.239c-13.93,0-25.218-0.107-25.218-0.239
									c0-0.132,11.288-0.239,25.218-0.239C389.89,448.08,401.181,448.187,401.181,448.319z"/>
							</g>
						</g>
					</g>
				</g>
			</g>
		</g>
	</g>
</g>
<g id="Floor">
	<g>
		<g>
			<path style="fill:#263238;" d="M468.516,476.159c0,0.144-95.154,0.26-212.506,0.26c-117.392,0-212.526-0.117-212.526-0.26
				c0-0.144,95.134-0.26,212.526-0.26C373.362,475.899,468.516,476.016,468.516,476.159z"/>
		</g>
	</g>
</g>
<g id="Character">
	<g>
		<g>
			<g>
				<g>
					<polygon style="fill:#B78876;" points="152.059,463.879 149.05,419.555 173.033,421.81 171.034,464.783 159.24,465.437 					
						"/>
				</g>
			</g>
			<g>
				<g>
					<g>
						<g>
							<g>
								<g>
									<g>
										<g>
											<g>
												<g>
													<g>
														<g>
															<g>
																<g>
																	<g>
																		<path style="fill:#FF725E;" d="M151.371,461.676l0.008,1.294c0,0-21.844,9.026-22.036,13.189l43.545-0.656
																			l-0.811-14.481C165.649,464.118,158.879,464.558,151.371,461.676z"/>
																	</g>
																</g>
															</g>
														</g>
													</g>
												</g>
											</g>
										</g>
									</g>
								</g>
							</g>
						</g>
						<g style="opacity:0.6;">
							<g>
								<g>
									<g>
										<g>
											<g>
												<g>
													<g>
														<g>
															<g>
																<g>
																	<g>
																		<g>
																			<path style="fill:#FFFFFF;" d="M167.739,465.721c0.846,0.218,1.443,1.156,1.26,2.011
																				c-0.183,0.855-1.132,1.469-1.982,1.267c-0.85-0.203-1.601-1.308-1.323-2.136c0.277-0.829,1.431-1.49,2.208-1.089
																				"/>
																		</g>
																	</g>
																</g>
															</g>
														</g>
													</g>
												</g>
											</g>
										</g>
									</g>
								</g>
							</g>
						</g>
						<g style="opacity:0.6;">
							<g>
								<g>
									<g>
										<g>
											<g>
												<g>
													<g>
														<g>
															<g>
																<g>
																	<g>
																		<path style="fill:#FFFFFF;" d="M172.889,475.504l-0.195-3.483l-41.664,1.904c0,0-1.926,0.873-1.686,2.235
																			L172.889,475.504z"/>
																	</g>
																</g>
															</g>
														</g>
													</g>
												</g>
											</g>
										</g>
									</g>
								</g>
							</g>
						</g>
						<g>
							<g>
								<g>
									<g>
										<g>
											<g>
												<g>
													<g>
														<g>
															<g>
																<g>
																	<g>
																		<g>
																			<path style="fill:#263238;" d="M151.229,463.094c0.01,0.213,1.075,0.293,2.131,0.961
																				c1.074,0.64,1.627,1.553,1.821,1.466c0.196-0.044-0.141-1.311-1.434-2.097
																				C152.461,462.627,151.179,462.9,151.229,463.094z"/>
																		</g>
																	</g>
																</g>
															</g>
														</g>
													</g>
												</g>
											</g>
										</g>
									</g>
								</g>
							</g>
						</g>
						<g>
							<g>
								<g>
									<g>
										<g>
											<g>
												<g>
													<g>
														<g>
															<g>
																<g>
																	<g>
																		<g>
																			<path style="fill:#263238;" d="M146.69,465.052c-0.046,0.207,0.881,0.555,1.617,1.443
																				c0.762,0.867,0.959,1.836,1.17,1.824c0.201,0.03,0.329-1.217-0.607-2.305
																				C147.944,464.919,146.691,464.849,146.69,465.052z"/>
																		</g>
																	</g>
																</g>
															</g>
														</g>
													</g>
												</g>
											</g>
										</g>
									</g>
								</g>
							</g>
						</g>
						<g>
							<g>
								<g>
									<g>
										<g>
											<g>
												<g>
													<g>
														<g>
															<g>
																<g>
																	<g>
																		<g>
																			<path style="fill:#263238;" d="M144.178,470.557c0.194,0.043,0.474-1.024-0.09-2.18
																				c-0.555-1.161-1.565-1.605-1.652-1.426c-0.117,0.177,0.538,0.792,0.986,1.748
																				C143.892,469.644,143.966,470.54,144.178,470.557z"/>
																		</g>
																	</g>
																</g>
															</g>
														</g>
													</g>
												</g>
											</g>
										</g>
									</g>
								</g>
							</g>
						</g>
					</g>
				</g>
			</g>
		</g>
		<g>
			<g>
				<g>
					<polygon style="fill:#B78876;" points="201.265,434.188 174.343,398.849 195.603,387.523 217.601,424.492 208.117,431.534 
											"/>
				</g>
			</g>
			<g>
				<g>
					<g>
						<g>
							<g>
								<g>
									<g>
										<g>
											<g>
												<g>
													<g>
														<g>
															<g>
																<g>
																	<g>
																		<path style="fill:#FF725E;" d="M199.478,432.728l0.719,1.076c0,0-13.261,19.564-11.129,23.145l35.985-24.53
																			l-8.652-11.641C212.74,426.903,207.331,430.999,199.478,432.728z"/>
																	</g>
																</g>
															</g>
														</g>
													</g>
												</g>
											</g>
										</g>
									</g>
								</g>
							</g>
						</g>
						<g style="opacity:0.6;">
							<g>
								<g>
									<g>
										<g>
											<g>
												<g>
													<g>
														<g>
															<g>
																<g>
																	<g>
																		<g>
																			<path style="fill:#FFFFFF;" d="M215.368,427.09c0.826-0.284,1.841,0.171,2.159,0.984
																				c0.318,0.814-0.136,1.85-0.957,2.149c-0.821,0.299-2.056-0.21-2.281-1.054c-0.225-0.844,0.374-2.032,1.243-2.125
																				"/>
																		</g>
																	</g>
																</g>
															</g>
														</g>
													</g>
												</g>
											</g>
										</g>
									</g>
								</g>
							</g>
						</g>
						<g style="opacity:0.6;">
							<g>
								<g>
									<g>
										<g>
											<g>
												<g>
													<g>
														<g>
															<g>
																<g>
																	<g>
																		<path style="fill:#FFFFFF;" d="M225.054,432.419l-2.081-2.8l-33.727,24.536c0,0-1.127,1.789-0.176,2.794
																			L225.054,432.419z"/>
																	</g>
																</g>
															</g>
														</g>
													</g>
												</g>
											</g>
										</g>
									</g>
								</g>
							</g>
						</g>
						<g>
							<g>
								<g>
									<g>
										<g>
											<g>
												<g>
													<g>
														<g>
															<g>
																<g>
																	<g>
																		<g>
																			<path style="fill:#263238;" d="M200.14,433.99c0.126,0.172,1.058-0.347,2.308-0.372
																				c1.249-0.057,2.214,0.4,2.328,0.22c0.139-0.145-0.839-1.017-2.352-0.96
																				C200.911,432.921,199.992,433.855,200.14,433.99z"/>
																		</g>
																	</g>
																</g>
															</g>
														</g>
													</g>
												</g>
											</g>
										</g>
									</g>
								</g>
							</g>
						</g>
						<g>
							<g>
								<g>
									<g>
										<g>
											<g>
												<g>
													<g>
														<g>
															<g>
																<g>
																	<g>
																		<g>
																			<path style="fill:#263238;" d="M197.43,438.124c0.076,0.198,1.041-0.022,2.144,0.314
																				c1.113,0.304,1.812,1.005,1.981,0.878c0.184-0.085-0.396-1.197-1.776-1.589
																				C198.403,437.323,197.319,437.954,197.43,438.124z"/>
																		</g>
																	</g>
																</g>
															</g>
														</g>
													</g>
												</g>
											</g>
										</g>
									</g>
								</g>
							</g>
						</g>
						<g>
							<g>
								<g>
									<g>
										<g>
											<g>
												<g>
													<g>
														<g>
															<g>
																<g>
																	<g>
																		<g>
																			<path style="fill:#263238;" d="M198.365,444.102c0.185-0.071-0.169-1.116-1.276-1.77
																				c-1.103-0.663-2.19-0.478-2.165-0.28c-0.001,0.212,0.885,0.365,1.786,0.916
																				C197.624,443.497,198.179,444.204,198.365,444.102z"/>
																		</g>
																	</g>
																</g>
															</g>
														</g>
													</g>
												</g>
											</g>
										</g>
									</g>
								</g>
							</g>
						</g>
					</g>
				</g>
			</g>
		</g>
		<g>
			<g>
				<path style="fill:#263238;" d="M159.663,282.104c0,0-20.806,74.156-19.403,79.486c1.404,5.33,38.351,60.083,39.404,60.416
					c1.053,0.333,30.254-17.072,30.254-17.072l-30.254-49.879c0,0,16.843-36.078,21.756-52.016
					c4.913-15.938,5.859-16.75,2.807-31.26c-1.85-8.796-10.103-20.575-10.103-20.575l-1.322-4.074h-34.093L159.663,282.104z"/>
			</g>
			<g>
				<path style="fill:#263238;" d="M137.205,247.129l-2.462,9.827c-4.211,2.998-10.521,17.154-10.872,22.817
					c-0.351,5.663-1.708,28.918-1.754,44.968c-0.054,18.636,20.659,129.339,20.659,129.339h37.263l-13.128-175.64l-3.285-31.311
					H137.205z"/>
			</g>
			<g>
				<g>
					<path style="fill:#455A64;" d="M158.469,269.368c0.009,0.002-0.012,0.145-0.061,0.421c-0.056,0.3-0.133,0.706-0.231,1.226
						c-0.22,1.102-0.535,2.683-0.938,4.705c-0.869,4.075-2.165,9.963-3.881,17.211c-1.692,7.253-3.787,15.871-5.842,25.497
						c-1.01,4.815-2.026,9.881-2.834,15.171c-0.848,5.281-1.485,10.797-1.595,16.459c-0.089,5.649,0.355,11.239,2.323,16.216
						c1.855,5.006,4.195,9.625,6.478,13.976c4.646,8.673,9.334,16.208,13.44,22.414c4.106,6.209,7.658,11.077,10.217,14.36
						c1.304,1.621,2.306,2.889,3.044,3.699c0.344,0.401,0.613,0.715,0.812,0.947c0.181,0.215,0.27,0.329,0.264,0.335
						c0,0-1.654-1.613-4.278-4.855c-2.611-3.249-6.215-8.091-10.365-14.282c-4.151-6.188-8.877-13.711-13.557-22.392
						c-2.301-4.357-4.657-8.981-6.534-14.027c-2-5.04-2.456-10.726-2.364-16.4c0.111-5.7,0.755-11.236,1.611-16.529
						c0.816-5.303,1.845-10.374,2.869-15.193c2.083-9.63,4.215-18.24,5.953-25.482c1.762-7.236,3.112-13.109,4.041-17.169
						c0.444-2.013,0.791-3.586,1.034-4.683c0.119-0.515,0.212-0.918,0.281-1.216C158.422,269.506,158.461,269.367,158.469,269.368z"
						/>
				</g>
			</g>
			<g>
				<g>
					<path style="fill:#455A64;" d="M202.437,273.488c0.009,0.029-0.434,0.208-1.265,0.449c-0.829,0.243-2.057,0.513-3.598,0.679
						c-3.062,0.347-7.489,0.087-11.869-1.804c-4.382-1.892-7.608-4.936-9.454-7.403c-0.936-1.235-1.581-2.314-1.973-3.084
						c-0.394-0.769-0.568-1.215-0.54-1.228c0.093-0.052,0.882,1.703,2.803,4.085c1.894,2.373,5.088,5.303,9.371,7.152
						c4.282,1.848,8.605,2.164,11.63,1.915C200.593,274.015,202.412,273.385,202.437,273.488z"/>
				</g>
			</g>
			<g>
				<g>
					<path style="fill:#455A64;" d="M139.204,258.088c0.034,0.011-0.028,0.301-0.17,0.818c-0.135,0.52-0.388,1.255-0.749,2.146
						c-0.717,1.781-1.971,4.153-3.795,6.463c-1.831,2.305-3.854,4.07-5.423,5.175c-0.784,0.555-1.442,0.97-1.917,1.22
						c-0.471,0.257-0.739,0.383-0.758,0.352c-0.045-0.075,0.961-0.697,2.454-1.867c1.494-1.167,3.437-2.94,5.236-5.204
						c1.791-2.268,3.072-4.566,3.866-6.287C138.746,259.183,139.12,258.061,139.204,258.088z"/>
				</g>
			</g>
		</g>
		<g>
			<g>
				<g>
					<path style="fill:#263238;" d="M199.557,116.442c1.568-1.831,1.992-4.567,1.051-6.786c-0.941-2.22-3.202-3.817-5.609-3.963
						c0.775-2.247,0.293-4.884-1.227-6.712c-1.52-1.828-4.023-2.784-6.375-2.434c-0.154-2.379-1.523-4.647-3.556-5.892
						c-2.033-1.245-4.675-1.434-6.865-0.491c-1.405-1.708-3.633-2.706-5.843-2.619c-2.21,0.087-4.352,1.258-5.618,3.071
						c-1.229,0.206-2.408,0.685-3.441,1.382c-1.11-0.229-2.318,0.004-3.352,0.504c-1.311,0.634-2.398,1.64-3.464,2.631
						c-1.734,1.612-3.546,3.35-4.161,5.637c-0.686,2.551,0.219,5.475-1.066,7.782c-0.505,0.907-1.32,1.643-1.661,2.624
						c-0.647,1.862,0.608,3.867,0.457,5.832c-0.16,2.079-1.875,3.893-1.668,5.967c0.15,1.504,1.291,2.719,2.508,3.615
						s2.59,1.617,3.589,2.751c0.799,0.907,1.315,2.032,2.098,2.952c2.221,2.612,6.628,2.953,9.225,0.714
						c1.736,1.504,4.301,1.728,6.523,1.143c2.222-0.584,4.186-1.865,6.106-3.126c0.823,1.123,2.235,1.785,3.624,1.701
						c1.389-0.085,2.711-0.914,3.391-2.128c0.481,1.519,2.279,2.292,3.864,2.136c1.585-0.156,3.003-1.013,4.36-1.849
						c2.544-1.567,5.387-3.629,5.455-6.616c0.042-1.828-1.013-3.715-0.318-5.406C197.985,117.896,198.875,117.237,199.557,116.442z"
						/>
				</g>
				<g>
					<path style="fill:#FF725E;" d="M142.866,104.524c4.286-5.464,8.349-6.938,13.126-7.751c7.243-1.232,15.309,0.004,21.197,4.398
						c5.405,4.034,8.404,10.693,9.238,17.385c0.294,2.361-0.416,4.629-1.075,6.916c-0.659,2.286-3.256,5.195-5.362,6.302
						c-2.106,1.107-2.987,0.398-4.771-1.177c-1.09-0.963-1.71-2.336-2.316-3.659c-2.561-5.59-5.489-11.131-9.799-15.516
						c-4.31-4.385-10.208-7.53-16.354-7.34"/>
				</g>
				<g>
					<path style="fill:#263238;" d="M174.847,115.585c-0.739-2.009-0.414-4.238-0.689-6.361c-0.607-4.675-4.252-8.628-8.644-10.34
						c-4.393-1.712-9.386-1.402-13.863,0.075c-3.334,1.1-6.522,2.88-8.784,5.565c-3.002,3.564-4.108,8.639-2.863,13.128
						l23.921-3.172c2.212,1.878,4.476,3.788,7.175,4.854c0.792,0.313,1.645,0.552,2.487,0.429c0.842-0.122,1.667-0.684,1.877-1.508
						C175.692,117.353,175.168,116.458,174.847,115.585z"/>
				</g>
				<g>
					<path style="fill:#B78876;" d="M151.056,105.544l20.789,4.683c2.015,0.16,3.572,1.835,3.585,3.857l-0.827,45.108
						c-0.056,3.081-1.127,6.058-3.047,8.469l-2.021,2.539c-4.607,5.788-13.781,5.082-17.16-1.499
						c-0.236-0.46-0.398-0.862-0.465-1.187c-0.065-0.407-0.169-0.676-0.183-1.021c-0.549-3.501-0.274-6.836-0.274-6.836
						c-0.152-4.019-0.194-5.668-0.196-5.631c0,0-8.517-1.187-10.562-12.206c-1.017-5.48-0.975-14.509-0.703-21.896
						C140.237,113.275,144.423,105.016,151.056,105.544z"/>
				</g>
				<g>
					<g>
						<g>
							<g>
								<g>
									<g>
										<g>
											<g>
												<g>
													<g>
														<g>
															<g>
																<g>
																	<g>
																		<g>
																			<g>
																				<g>
																					<path style="fill:#263238;" d="M144.309,126.794c-0.007,0.75,0.622,1.375,1.405,1.396
																						c0.782,0.021,1.423-0.567,1.43-1.317c0.007-0.75-0.623-1.375-1.404-1.397
																						C144.956,125.454,144.315,126.044,144.309,126.794z"/>
																				</g>
																			</g>
																		</g>
																	</g>
																</g>
															</g>
														</g>
													</g>
												</g>
											</g>
										</g>
									</g>
								</g>
							</g>
							<g>
								<g>
									<g>
										<g>
											<g>
												<g>
													<g>
														<g>
															<g>
																<g>
																	<g>
																		<g>
																			<g>
																				<g>
																					<g>
																						<path style="fill:#263238;" d="M142.071,124.566c0.181,0.181,1.235-0.643,2.762-0.679
																							c1.525-0.058,2.666,0.699,2.827,0.507c0.079-0.085-0.109-0.414-0.606-0.757
																							c-0.49-0.341-1.318-0.664-2.269-0.635c-0.951,0.03-1.742,0.401-2.193,0.771
																							C142.133,124.147,141.982,124.485,142.071,124.566z"/>
																					</g>
																				</g>
																			</g>
																		</g>
																	</g>
																</g>
															</g>
														</g>
													</g>
												</g>
											</g>
										</g>
									</g>
								</g>
							</g>
						</g>
						<g>
							<g>
								<g>
									<g>
										<g>
											<g>
												<g>
													<g>
														<g>
															<g>
																<g>
																	<g>
																		<g>
																			<g>
																				<g>
																					<path style="fill:#263238;" d="M158.783,126.794c-0.007,0.75,0.622,1.374,1.405,1.396
																						c0.782,0.021,1.422-0.567,1.429-1.317c0.007-0.75-0.622-1.375-1.404-1.397
																						C159.431,125.453,158.79,126.044,158.783,126.794z"/>
																				</g>
																			</g>
																		</g>
																	</g>
																</g>
															</g>
														</g>
													</g>
												</g>
											</g>
										</g>
									</g>
								</g>
							</g>
							<g>
								<g>
									<g>
										<g>
											<g>
												<g>
													<g>
														<g>
															<g>
																<g>
																	<g>
																		<g>
																			<g>
																				<g>
																					<g>
																						<path style="fill:#263238;" d="M157.088,124.461c0.181,0.18,1.237-0.643,2.763-0.679
																							c1.524-0.058,2.666,0.699,2.827,0.507c0.079-0.085-0.107-0.414-0.606-0.757
																							c-0.49-0.342-1.318-0.664-2.269-0.636c-0.951,0.03-1.742,0.401-2.193,0.772
																							C157.151,124.041,157,124.38,157.088,124.461z"/>
																					</g>
																				</g>
																			</g>
																		</g>
																	</g>
																</g>
															</g>
														</g>
													</g>
												</g>
											</g>
										</g>
									</g>
								</g>
							</g>
						</g>
						<g>
							<g>
								<g>
									<g>
										<g>
											<g>
												<g>
													<g>
														<g>
															<g>
																<g>
																	<g>
																		<g>
																			<g>
																				<g>
																					<path style="fill:#263238;" d="M151.841,135.929c0.005-0.087-0.948-0.226-2.492-0.383
																						c-0.391-0.03-0.762-0.098-0.835-0.362c-0.099-0.28,0.053-0.704,0.23-1.163c0.342-0.953,0.7-1.952,1.076-2.999
																						c1.491-4.269,2.56-7.775,2.388-7.833c-0.173-0.059-1.521,3.354-3.013,7.623
																						c-0.358,1.052-0.701,2.056-1.027,3.016c-0.136,0.447-0.377,0.956-0.163,1.536
																						c0.113,0.289,0.404,0.493,0.656,0.554c0.252,0.07,0.471,0.068,0.665,0.075
																						C150.877,136.034,151.838,136.016,151.841,135.929z"/>
																				</g>
																			</g>
																		</g>
																	</g>
																</g>
															</g>
														</g>
													</g>
												</g>
											</g>
										</g>
									</g>
								</g>
							</g>
						</g>
						<g>
							<g>
								<g>
									<g>
										<g>
											<g>
												<g>
													<g>
														<g>
															<g>
																<g>
																	<g>
																		<g>
																			<g>
																				<path style="fill:#AA6550;" d="M151.257,154.026c0,0,7.456,0.286,14.715-4.338c0,0-3.526,7.756-14.628,7.009
																					L151.257,154.026z"/>
																			</g>
																		</g>
																	</g>
																</g>
															</g>
														</g>
													</g>
												</g>
											</g>
										</g>
									</g>
								</g>
							</g>
						</g>
						<g>
							<g>
								<g>
									<g>
										<g>
											<g>
												<g>
													<g>
														<g>
															<g>
																<g>
																	<g>
																		<g>
																			<g>
																				<path style="fill:#AA6550;" d="M152.583,139.592c0.53-0.74,1.482-1.164,2.44-1.086
																					c0.664,0.054,1.342,0.356,1.759,0.885c0.417,0.529,0.521,1.293,0.168,1.817
																					c-0.397,0.59-1.255,0.746-1.989,0.558c-0.734-0.188-1.374-0.652-1.982-1.114
																					c-0.168-0.128-0.34-0.262-0.448-0.44c-0.108-0.178-0.136-0.415-0.013-0.568"/>
																			</g>
																		</g>
																	</g>
																</g>
															</g>
														</g>
													</g>
												</g>
											</g>
										</g>
									</g>
								</g>
							</g>
						</g>
						<g>
							<g>
								<g>
									<g>
										<g>
											<g>
												<g>
													<g>
														<g>
															<g>
																<g>
																	<g>
																		<g>
																			<g>
																				<g>
																					<path style="fill:#263238;" d="M156.362,136.868c-0.248-0.008-0.208,1.65-1.597,2.863
																						c-1.385,1.217-3.157,1.077-3.164,1.309c-0.021,0.105,0.402,0.312,1.148,0.313
																						c0.732,0.006,1.794-0.257,2.644-0.999c0.847-0.744,1.194-1.716,1.233-2.398
																						C156.671,137.262,156.475,136.856,156.362,136.868z"/>
																				</g>
																			</g>
																		</g>
																	</g>
																</g>
															</g>
														</g>
													</g>
												</g>
											</g>
										</g>
									</g>
								</g>
							</g>
						</g>
					</g>
				</g>
				<g>
					<g>
						<g>
							<g>
								<g>
									<g>
										<g>
											<g>
												<g>
													<g>
														<g>
															<g>
																<g>
																	<path style="fill:#263238;" d="M156.712,119.851c0.161,0.411,1.681,0.175,3.478,0.344
																		c1.801,0.133,3.259,0.62,3.487,0.241c0.101-0.181-0.161-0.565-0.755-0.952c-0.589-0.386-1.523-0.744-2.602-0.835
																		c-1.079-0.09-2.059,0.107-2.704,0.389C156.965,119.32,156.643,119.655,156.712,119.851z"/>
																</g>
															</g>
														</g>
													</g>
												</g>
											</g>
										</g>
									</g>
								</g>
							</g>
						</g>
					</g>
				</g>
				<g>
					<g>
						<g>
							<g>
								<g>
									<g>
										<g>
											<g>
												<g>
													<g>
														<g>
															<g>
																<g>
																	<path style="fill:#263238;" d="M142.34,117.877c0.277,0.34,1.32-0.048,2.585-0.098
																		c1.262-0.094,2.342,0.172,2.579-0.197c0.104-0.179-0.074-0.522-0.551-0.838c-0.47-0.315-1.248-0.562-2.117-0.513
																		c-0.868,0.05-1.613,0.384-2.044,0.751C142.355,117.35,142.218,117.711,142.34,117.877z"/>
																</g>
															</g>
														</g>
													</g>
												</g>
											</g>
										</g>
									</g>
								</g>
							</g>
						</g>
					</g>
				</g>
				<g>
					<path style="fill:#263238;" d="M178.709,112.414c-2.08-6.375-11.405-15.145-18.091-14.63l-10.637,6.483
						c0.672,3.635,3.506,6.785,7.05,7.837c1.893,0.562,4.169,0.703,5.303,2.32c1.159,1.65,0.506,4.07,1.585,5.773
						c1.496,2.36,5.539,2.219,6.668,4.775c0.493,1.117,0.249,2.457,0.762,3.565c0.683,1.476,4.446,3.327,5.993,2.825
						c1.547-0.503,1.533-3.143,2.03-4.53c0.849-2.37,0.484-3.593,0.189-4.911C178.864,118.799,179.701,115.456,178.709,112.414z"/>
				</g>
				<g>
					<path style="fill:#FF725E;" d="M182.858,107.647l-0.815,3.522c-0.114-2.696-0.54-5.252-1.846-7.222
						c-2.665-4.02-8.536-6.748-13.171-8.08s-10.32-0.516-14.799,1.271c-3.368,1.344-6.5,3.159-9.929,7.802
						c-3.4,4.604-4.19,11.534-2.086,12.762c1.659-4.774,4.29-10.24,8.457-13.098c4.168-2.858,9.587-4.033,14.434-2.604
						c5.396,1.591,9.511,6.157,11.894,11.253c1.152,2.465,2.031,5.284,2.711,8.11c0.786,3.266,0.749,6.676-0.071,9.934l-2.693,9.447
						l-0.06,3.075c6.569-2.432,10.63-9.28,11.715-16.201C187.685,120.699,186.91,114.029,182.858,107.647z"/>
				</g>
				<g>
					<g>
						<path style="fill:#455A64;" d="M177.333,128.656c-0.052-0.018,0.173-0.568,0.345-1.607c0.148-1.033,0.218-2.594-0.339-4.387
							c-0.547-1.763-1.721-3.814-3.806-5.138c-1.033-0.669-2.25-1.166-3.498-1.745c-1.238-0.58-2.565-1.267-3.567-2.42
							c-1.006-1.157-1.475-2.554-2.07-3.757c-0.572-1.218-1.359-2.252-2.282-3.066c-1.845-1.643-4.088-2.339-5.943-2.366
							c-1.874-0.042-3.359,0.451-4.309,0.884c-0.96,0.436-1.43,0.801-1.458,0.759c-0.011-0.015,0.1-0.113,0.322-0.287
							c0.226-0.169,0.571-0.405,1.047-0.654c0.943-0.498,2.454-1.066,4.403-1.07c1.93-0.021,4.3,0.668,6.255,2.374
							c0.974,0.839,1.825,1.943,2.423,3.203c0.614,1.237,1.083,2.589,2.004,3.64c0.916,1.056,2.169,1.721,3.391,2.299
							c1.228,0.579,2.466,1.093,3.543,1.804c2.191,1.426,3.378,3.597,3.898,5.437c0.531,1.873,0.398,3.483,0.185,4.527
							c-0.125,0.523-0.241,0.924-0.358,1.182C177.413,128.529,177.35,128.662,177.333,128.656z"/>
					</g>
				</g>
				<g>
					<g>
						<path style="fill:#455A64;" d="M176.32,116.809c-0.049,0.028-0.242-0.399-0.813-0.974c-0.567-0.585-1.578-1.2-2.923-1.802
							c-0.666-0.314-1.412-0.642-2.178-1.089c-0.756-0.446-1.56-1.033-2.14-1.877c-1.184-1.657-1.564-3.893-3.149-5.435
							c-1.536-1.572-3.597-2.378-5.475-2.638c-1.899-0.256-3.649,0.025-5.052,0.404c-2.82,0.802-4.372,1.841-4.421,1.737
							c-0.016-0.027,0.356-0.298,1.08-0.705c0.725-0.402,1.808-0.947,3.239-1.386c1.424-0.433,3.222-0.766,5.216-0.526
							c1.968,0.247,4.144,1.073,5.786,2.751c1.706,1.689,2.082,3.998,3.169,5.523c1.082,1.558,2.798,2.228,4.086,2.91
							c1.331,0.647,2.365,1.34,2.909,1.995c0.273,0.321,0.455,0.596,0.543,0.799C176.294,116.694,176.336,116.8,176.32,116.809z"/>
					</g>
				</g>
				<g>
					<g>
						<g>
							<g>
								<path style="fill:#B78876;" d="M172.776,132.702c-0.019-0.824,0.882-2.791,1.693-2.94c2.164-0.395,6.085-0.323,6.266,5.195
									c0.246,7.543-7.377,6.234-7.398,6.018C173.321,140.807,172.844,135.548,172.776,132.702z"/>
							</g>
						</g>
					</g>
				</g>
				<g>
					<g>
						<g>
							<g>
								<g>
									<path style="fill:#AA6550;" d="M175.548,138.043c0.032-0.025,0.135,0.088,0.359,0.182c0.22,0.092,0.595,0.148,0.983-0.012
										c0.787-0.318,1.417-1.605,1.409-2.966c-0.003-0.687-0.168-1.336-0.429-1.87c-0.248-0.544-0.618-0.918-1.021-0.976
										c-0.402-0.079-0.678,0.17-0.764,0.385c-0.094,0.215-0.041,0.364-0.081,0.377c-0.02,0.02-0.166-0.121-0.115-0.434
										c0.027-0.151,0.109-0.332,0.282-0.483c0.176-0.153,0.44-0.237,0.72-0.216c0.583,0.021,1.124,0.539,1.411,1.125
										c0.319,0.587,0.521,1.316,0.524,2.087c0.001,1.522-0.73,2.969-1.811,3.32c-0.526,0.155-0.974,0.01-1.208-0.16
										C175.568,138.225,175.522,138.057,175.548,138.043z"/>
								</g>
							</g>
						</g>
					</g>
				</g>
			</g>
			<g>
				<g>
					<path style="fill:#263238;" d="M181.886,138.63c-0.016-0.009,0.108-0.276,0.356-0.774c0.237-0.504,0.585-1.248,0.945-2.241
						c0.725-1.971,1.508-4.978,1.466-8.754c-0.004-1.882-0.267-3.938-0.641-6.127c-0.383-2.184-0.933-4.498-1.806-6.827
						c-0.876-2.325-2.109-4.65-3.779-6.774c-1.67-2.119-3.745-4.047-6.159-5.585c-4.827-3.131-10.529-4.088-15.427-3.407
						c-2.461,0.321-4.736,1.044-6.72,2.004c-1.979,0.974-3.679,2.171-5.059,3.445c-2.786,2.547-4.339,5.255-5.208,7.162
						c-0.426,0.965-0.704,1.738-0.876,2.267c-0.167,0.531-0.264,0.809-0.281,0.804c-0.017-0.004,0.045-0.291,0.181-0.834
						c0.14-0.542,0.388-1.331,0.79-2.318c0.82-1.951,2.343-4.726,5.144-7.352c1.387-1.313,3.106-2.551,5.118-3.562
						c2.018-0.997,4.335-1.751,6.846-2.091c4.993-0.723,10.838,0.243,15.771,3.443c2.466,1.571,4.582,3.542,6.281,5.709
						c1.699,2.172,2.949,4.554,3.826,6.92c0.876,2.371,1.415,4.717,1.783,6.923c0.358,2.205,0.602,4.286,0.584,6.198
						c-0.005,3.828-0.854,6.861-1.645,8.827c-0.392,0.99-0.773,1.726-1.041,2.216C182.056,138.389,181.902,138.639,181.886,138.63z"
						/>
				</g>
			</g>
			<g>
				<g>
					<path style="fill:#455A64;" d="M178.688,139.99c0.1-0.14,0.34-0.204,0.677-0.044c0.329,0.156,0.734,0.562,0.915,1.218
						c0.09,0.325,0.126,0.712,0.05,1.136c-0.074,0.421-0.292,0.892-0.626,1.268c-0.675,0.752-1.753,1.168-2.891,0.963
						c-1.195-0.22-2.009-1.118-2.314-1.954c-0.326-0.858-0.249-1.724,0.085-2.354c0.32-0.61,0.848-0.945,1.247-0.994
						c0.406-0.055,0.608,0.13,0.628,0.297c0.027,0.181-0.074,0.363-0.108,0.573c-0.038,0.203-0.054,0.435-0.018,0.697
						c0.042,0.232,0.153,0.525,0.337,0.761c0.189,0.247,0.426,0.386,0.62,0.415c0.236,0.05,0.547-0.016,0.726-0.109
						c0.172-0.072,0.339-0.251,0.431-0.521C178.66,140.82,178.494,140.292,178.688,139.99z"/>
				</g>
			</g>
		</g>
		<g>
			<g>
				<path style="fill:#455A64;" d="M119.509,187.237c0,0,1.255-10.041,6.097-15.062c4.841-5.021,25.796-11.53,25.796-11.53
					s0.136,7.385,4.986,9.112c5.146,1.833,10.14,0.86,13.908-3.511c3.643-4.226,4.352-9.499,4.352-9.499s25.362,2.348,29.307,8.983
					c3.945,6.635,9.046,32.331,9.046,32.331l-22.616,4.8l3.075,44.267H133.36l1.176-41.542l-16.361,2.336L119.509,187.237z"/>
			</g>
			<g>
				<g>
					<path style="fill:#263238;" d="M185.894,204.324c-0.036-0.001-0.063-0.356-0.081-0.999c-0.018-0.642-0.027-1.571-0.026-2.719
						c0-2.295,0.037-5.465,0.109-8.965c0.073-3.501,0.167-6.671,0.262-8.965c0.047-1.147,0.095-2.075,0.139-2.717
						c0.044-0.641,0.086-0.996,0.122-0.996c0.036,0,0.063,0.355,0.081,0.997c0.018,0.642,0.027,1.57,0.027,2.718
						c0,2.295-0.037,5.466-0.11,8.969c-0.072,3.502-0.167,6.672-0.262,8.966c-0.047,1.147-0.095,2.075-0.139,2.716
						C185.971,203.971,185.93,204.325,185.894,204.324z"/>
				</g>
			</g>
			<g>
				<g>
					<path style="fill:#263238;" d="M128.964,186.099c0.138-0.04,1.55,4.449,3.152,10.025c1.603,5.578,2.79,10.131,2.651,10.17
						c-0.138,0.04-1.549-4.448-3.152-10.026C130.013,190.692,128.826,186.139,128.964,186.099z"/>
				</g>
			</g>
			<g>
				<g>
					<path style="fill:#263238;" d="M201.427,164.137c0.018,0.093-1.072,0.293-2.724,0.921c-1.65,0.621-3.835,1.762-5.87,3.525
						c-2.028,1.772-3.462,3.777-4.305,5.325c-0.851,1.548-1.2,2.6-1.289,2.569c-0.034-0.011,0.028-0.281,0.171-0.763
						c0.133-0.485,0.4-1.166,0.792-1.976c0.776-1.623,2.205-3.727,4.29-5.548c2.092-1.812,4.373-2.935,6.088-3.479
						c0.857-0.275,1.568-0.446,2.067-0.51C201.145,164.126,201.421,164.102,201.427,164.137z"/>
				</g>
			</g>
			<g>
				<g>
					<path style="fill:#263238;" d="M125.24,174.202c0.139-0.035,0.615,1.361,1.061,3.118c0.447,1.758,0.696,3.211,0.556,3.246
						c-0.139,0.035-0.614-1.36-1.061-3.118C125.35,175.691,125.101,174.238,125.24,174.202z"/>
				</g>
			</g>
		</g>
		<g>
			<path style="fill:#B78876;" d="M208.977,198.917c0,0-6.774,34.401-7.549,37.345s-2.027,10.868-10.23,12.506
				c-11.075,2.212-54.569,0.668-54.569,0.668l8.204-10.386l38.055-10.671l5.201-25.029L208.977,198.917z"/>
		</g>
		<g>
			<g>
				<g>
					<path style="fill:#B78876;" d="M107.696,192.528c0,0,6.133,20.635,8.677,29.552c2.704,9.474,8.611,30.988,21.205,27.165
						c9.58-2.907,6.76-15.322,6.76-15.322l-9.803-28.336l-7.624,1.272l-7.404-19.108L107.696,192.528z"/>
				</g>
				<g>
					<g>
						<path style="fill:#AA6550;" d="M140.989,234.814c-0.12-0.006,0.665-1.802,0.004-4.668c-0.321-1.412-0.989-3.033-2.042-4.639
							c-1.051-1.614-2.467-3.208-3.973-4.873c-1.512-1.66-2.916-3.313-3.989-4.959c-1.089-1.633-1.9-3.208-2.505-4.559
							c-0.601-1.354-0.988-2.489-1.228-3.28c-0.24-0.791-0.327-1.241-0.297-1.25c0.039-0.012,0.192,0.418,0.489,1.184
							c0.297,0.766,0.733,1.871,1.37,3.19c0.64,1.316,1.474,2.852,2.569,4.446c1.079,1.607,2.464,3.217,3.978,4.879
							c1.505,1.665,2.934,3.293,3.989,4.961c1.06,1.667,1.714,3.354,1.999,4.823c0.3,1.471,0.201,2.706,0.042,3.52
							c-0.094,0.407-0.177,0.719-0.263,0.922C141.055,234.717,141.006,234.82,140.989,234.814z"/>
					</g>
				</g>
				<g>
					<path style="fill:#B78876;" d="M97.483,153.771c0,0,1.039-1.402,3.462,0.762c2.423,2.164,12.463,19.127,13.242,20.685
						c0.779,1.558,5.322,12.532,5.322,12.532l-10.119,7.174l-1.694-2.397c0,0-8.482-7.53-10.213-9.607
						c-1.731-2.077-4.068-5.106-4.154-5.539c-0.087-0.433-0.692-2.62,1.038-3.257c0,0-1.644-2.628-0.173-3.926
						c1.471-1.298,4.154-0.086,4.154-0.086l-9.001-11.597c0,0-0.779-3.462,1.818-2.164c2.596,1.298,9.434,11.251,10.645,11.511
						c1.212,0.26,1.212-1.038,1.212-1.038S95.925,156.125,97.483,153.771z"/>
				</g>
				<g>
					<g>
						<path style="fill:#AA6550;" d="M106.736,184.219c-0.021,0.007-0.091-0.159-0.206-0.482c-0.118-0.32-0.255-0.808-0.34-1.449
							c-0.173-1.244-0.137-3.294,1.353-5.142l-0.013,0.282c-0.906-1.102-1.903-2.315-2.97-3.613l0.071,0.06
							c-0.715-0.407-1.438-0.854-2.174-1.339c-0.367-0.243-0.735-0.497-1.103-0.762c-0.359-0.266-0.749-0.522-1.092-0.9
							c-0.28-0.316-0.537-0.727-0.54-1.207c-0.013-0.482,0.203-0.902,0.536-1.222l0.097-0.094l0.141,0.04
							c2.248,0.637,4.353,1.234,6.222,1.764l0.041,0.011l0.03,0.023c1.967,1.465,3.633,2.707,4.904,3.653
							c1.173,0.894,1.83,1.423,1.802,1.461c-0.028,0.039-0.736-0.418-1.955-1.25c-1.299-0.908-3.003-2.098-5.013-3.502l0.071,0.034
							c-1.875-0.51-3.986-1.084-6.24-1.698l0.238-0.054c-0.205,0.201-0.376,0.523-0.354,0.82c-0.003,0.305,0.176,0.609,0.409,0.873
							c0.272,0.306,0.647,0.56,1.008,0.827c0.361,0.261,0.723,0.513,1.084,0.754c0.722,0.481,1.44,0.932,2.133,1.335l0.043,0.025
							l0.028,0.035c1.047,1.313,2.026,2.542,2.915,3.657l0.112,0.141l-0.125,0.141c-0.688,0.778-1.07,1.741-1.266,2.576
							c-0.201,0.849-0.2,1.621-0.15,2.243C106.545,183.515,106.8,184.201,106.736,184.219z"/>
					</g>
				</g>
				<g>
					<g>
						<path style="fill:#AA6550;" d="M98.455,170.683c0.027-0.02,0.345,0.331,0.856,1.019c0.507,0.69,1.206,1.719,1.93,3.073
							c0.359,0.684,0.74,1.415,1.076,2.283c0.149,0.437,0.28,0.945,0.141,1.494c-0.134,0.555-0.654,0.998-1.214,1.102
							c-0.567,0.133-1.164-0.02-1.659-0.272c-0.501-0.256-0.943-0.587-1.376-0.952c-0.858-0.737-1.589-1.65-2.25-2.62
							c-0.366-0.535-0.705-1.073-1.023-1.58l0.415-0.307c1.39,1.622,2.487,3.315,3.301,4.956c0.196,0.422,0.351,0.889,0.315,1.377
							c-0.039,0.473-0.257,0.949-0.673,1.208c-0.417,0.258-0.923,0.206-1.284,0.051c-0.373-0.154-0.672-0.378-0.935-0.604
							c-1.014-0.916-1.706-1.76-2.152-2.363c-0.443-0.605-0.642-0.966-0.617-0.983c0.071-0.061,0.968,1.347,2.993,3.08
							c0.477,0.388,1.205,0.83,1.775,0.471c0.266-0.171,0.434-0.523,0.455-0.891c0.021-0.367-0.106-0.763-0.295-1.148
							c-0.811-1.571-1.911-3.237-3.275-4.816l0.415-0.307c0.319,0.505,0.656,1.037,1.015,1.561c0.648,0.951,1.349,1.828,2.154,2.528
							c0.795,0.673,1.723,1.33,2.599,1.14c0.434-0.084,0.769-0.37,0.875-0.756c0.109-0.387,0.023-0.829-0.109-1.233
							c-0.294-0.811-0.665-1.578-0.994-2.253c-0.674-1.359-1.318-2.408-1.771-3.127C98.688,171.098,98.424,170.706,98.455,170.683z"
							/>
					</g>
				</g>
			</g>
			<g>
				<g>
					<path style="fill:#AA6550;" d="M144.115,233.243c0.03-0.01,0.159,0.267,0.325,0.793c0.166,0.525,0.344,1.309,0.436,2.294
						c0.197,1.953-0.077,4.809-1.554,7.493c-0.73,1.315-1.552,2.516-2.49,3.45c-0.93,0.943-1.972,1.579-2.905,1.934
						c-0.934,0.362-1.739,0.469-2.287,0.515c-0.552,0.024-0.856,0.006-0.857-0.028c-0.017-0.111,1.239-0.073,3.003-0.827
						c0.873-0.382,1.834-1.013,2.703-1.93c0.876-0.908,1.662-2.078,2.377-3.366c1.416-2.571,1.742-5.308,1.643-7.217
						C144.42,234.425,144.021,233.268,144.115,233.243z"/>
				</g>
			</g>
		</g>
	</g>
</g>
</svg>
