<?xml version="1.0" encoding="utf-8"?>
<!-- Generator: Adobe Illustrator 27.5.0, SVG Export Plug-In . SVG Version: 6.00 Build 0)  -->
<svg version="1.1" xmlns="http://www.w3.org/2000/svg" xmlns:xlink="http://www.w3.org/1999/xlink" x="0px" y="0px"
	 viewBox="0 0 500 500" style="enable-background:new 0 0 500 500;" xml:space="preserve">
<g id="Background_Complete">
	<g>
		<path style="fill:#EBEBEB;" d="M106.4,119.257l11.507,3.175l-8.503,2.079c-4.338,0.694-6.28,2.56-7.071,4.977l-2.653,21.41
			l-3.262-21.434c-0.81-2.019-2.441-3.597-4.485-4.339l-11.034-2.693l11.651-3.3c1.944-0.799,3.473-2.362,4.228-4.324l2.903-24.246
			l2.082,23.717C102.444,116.572,104.16,118.414,106.4,119.257z"/>
	</g>
	<g>
		<path style="fill:#EBEBEB;" d="M122.87,151.704l4.125,1.138l-3.048,0.745c-1.555,0.249-2.251,0.918-2.535,1.784l-0.951,7.675
			l-1.169-7.683c-0.29-0.724-0.875-1.289-1.608-1.555l-3.955-0.965l4.176-1.183c0.697-0.286,1.245-0.847,1.516-1.55l1.041-8.692
			l0.746,8.502C121.452,150.742,122.067,151.402,122.87,151.704z"/>
	</g>
	<g>
		<g>
			<g>
				<g>
					<g>
						<g>
							<g>
								<g>
									<g>
										
											<rect x="40.255" y="188.502" transform="matrix(0.2837 -0.9589 0.9589 0.2837 -179.6793 280.1844)" style="fill:#FAFAFA;" width="114.902" height="143.723"/>
									</g>
								</g>
							</g>
						</g>
					</g>
					<g>
						<g>
							<g>
								<g>
									<g>
										<g>
											<path style="fill:#E0E0E0;" d="M182.915,225.661c0,0-0.236-0.055-0.674-0.177c-0.457-0.13-1.1-0.313-1.94-0.552
												c-1.722-0.499-4.235-1.227-7.5-2.173c-6.559-1.917-16.122-4.711-28.243-8.253c-24.22-7.119-58.644-17.236-99.565-29.265
												l0.463-0.251c-9.69,32.798-20.8,70.395-32.555,110.181l-0.003,0.012l-0.281-0.517
												c51.014,15.121,98.423,29.173,137.796,40.844l-0.43,0.234c9.888-33.155,18.084-60.639,23.816-79.86
												c2.883-9.608,5.145-17.146,6.694-22.309c0.776-2.561,1.372-4.528,1.781-5.881
												C182.681,226.362,182.915,225.661,182.915,225.661s-0.171,0.666-0.547,1.983c-0.388,1.343-0.952,3.297-1.687,5.841
												c-1.504,5.156-3.701,12.686-6.5,22.284c-5.664,19.296-13.763,46.886-23.533,80.171l-0.098,0.332l-0.333-0.099
												c-39.385-11.632-86.807-25.638-137.836-40.709l-0.4-0.118l0.118-0.4l0.003-0.012
												c11.785-39.777,22.923-77.366,32.638-110.156l0.106-0.358l0.357,0.106c40.974,12.203,75.44,22.469,99.691,29.691
												c12.063,3.613,21.579,6.464,28.106,8.419c3.224,0.974,5.704,1.723,7.404,2.237c0.818,0.251,1.443,0.444,1.888,0.581
												C182.714,225.587,182.915,225.661,182.915,225.661z"/>
										</g>
									</g>
								</g>
							</g>
						</g>
					</g>
				</g>
			</g>
		</g>
		<g>
			<g>
				<g>
					<g>
						<g>
							
								<rect x="47.399" y="193.524" transform="matrix(0.2837 -0.9589 0.9589 0.2837 -179.7182 280.0791)" style="fill:#EBEBEB;" width="100.436" height="133.625"/>
						</g>
					</g>
				</g>
			</g>
		</g>
		<g>
			<g>
				<g>
					<g>
						<g>
							<polygon style="fill:#E0E0E0;" points="19.302,289.535 81.768,242.912 98.409,288.569 123.136,274.11 147.436,327.447 
															"/>
						</g>
					</g>
				</g>
			</g>
		</g>
		<g>
			<g>
				<g>
					<g>
						<g>
							<g>
								<g>
									<path style="fill:#E0E0E0;" d="M123.429,247.263c-1.649,5.572-7.502,8.753-13.074,7.104
										c-5.572-1.649-8.753-7.502-7.104-13.074c1.649-5.573,7.502-8.753,13.074-7.104
										C121.897,235.838,125.077,241.691,123.429,247.263z"/>
								</g>
							</g>
						</g>
					</g>
				</g>
			</g>
		</g>
	</g>
	<g>
		<g>
			<g>
				<g>
					<g>
						<g>
							<g>
								<g>
									<g>
										
											<rect x="307.396" y="266.997" transform="matrix(0.0944 -0.9955 0.9955 0.0944 -8.1325 677.6251)" style="fill:#FAFAFA;" width="121.976" height="152.57"/>
									</g>
								</g>
							</g>
						</g>
					</g>
					<g>
						<g>
							<g>
								<g>
									<g>
										<g>
											<path style="fill:#E0E0E0;" d="M450.084,289.766c0,0-0.257-0.009-0.739-0.047c-0.503-0.042-1.21-0.102-2.133-0.179
												c-1.896-0.169-4.662-0.415-8.256-0.735c-7.224-0.66-17.756-1.623-31.106-2.843
												c-26.684-2.481-64.608-6.007-109.692-10.199l0.431-0.356c-3.412,36.144-7.324,77.578-11.464,121.422l-0.001,0.013
												l-0.398-0.482c56.229,5.358,108.483,10.337,151.882,14.473l-0.401,0.331c3.545-36.557,6.483-66.859,8.539-88.052
												c1.046-10.598,1.866-18.912,2.428-24.606c0.286-2.826,0.506-4.997,0.658-6.49
												C449.984,290.543,450.084,289.766,450.084,289.766s-0.042,0.729-0.166,2.178c-0.131,1.479-0.32,3.629-0.568,6.429
												c-0.516,5.678-1.27,13.971-2.231,24.541c-1.969,21.257-4.784,51.651-8.181,88.319l-0.034,0.366l-0.367-0.035
												c-43.402-4.093-95.662-9.021-151.896-14.324l-0.441-0.041l0.042-0.441l0.001-0.013
												c4.173-43.842,8.116-85.273,11.556-121.414l0.038-0.395l0.394,0.038c45.174,4.364,83.174,8.035,109.91,10.618
												c13.304,1.306,23.799,2.337,30.997,3.044c3.557,0.358,6.294,0.633,8.17,0.822c0.903,0.095,1.594,0.169,2.086,0.221
												C449.86,289.729,450.084,289.766,450.084,289.766z"/>
										</g>
									</g>
								</g>
							</g>
						</g>
					</g>
				</g>
			</g>
		</g>
		<g>
			<g>
				<g>
					<g>
						<g>
							
								<rect x="314.976" y="272.348" transform="matrix(0.0944 -0.9955 0.9955 0.0944 -8.213 677.5178)" style="fill:#EBEBEB;" width="106.618" height="141.851"/>
						</g>
					</g>
				</g>
			</g>
		</g>
		<g>
			<g>
				<g>
					<g>
						<g>
							<polygon style="fill:#E0E0E0;" points="292.645,389.651 348.223,328.349 374.864,372.524 397.678,352.422 433.863,403.038 
															"/>
						</g>
					</g>
				</g>
			</g>
		</g>
		<g>
			<g>
				<g>
					<g>
						<g>
							<g>
								<g>
									<path style="fill:#E0E0E0;" d="M392.513,324.393c-0.582,6.141-6.032,10.647-12.173,10.065
										c-6.141-0.582-10.647-6.032-10.065-12.173c0.582-6.141,6.032-10.647,12.173-10.065
										C388.589,312.802,393.095,318.252,392.513,324.393z"/>
								</g>
							</g>
						</g>
					</g>
				</g>
			</g>
		</g>
	</g>
	<g>
		<g>
			<g>
				<g>
					<g>
						<g>
							<g>
								<g>
									<g>
										
											<rect x="50.653" y="319.353" transform="matrix(0.9716 -0.2368 0.2368 0.9716 -83.5284 36.1698)" style="fill:#FAFAFA;" width="116.362" height="93.028"/>
									</g>
								</g>
							</g>
						</g>
					</g>
					<g>
						<g>
							<g>
								<g>
									<g>
										<g>
											<path style="fill:#E0E0E0;" d="M154.348,306.901c0,0-0.187,0.058-0.544,0.151c-0.373,0.095-0.897,0.229-1.582,0.404
												c-1.408,0.352-3.463,0.865-6.133,1.532c-5.371,1.328-13.201,3.264-23.126,5.718c-19.849,4.875-48.06,11.803-81.596,20.04
												l0.222-0.365c6.566,26.899,14.092,57.735,22.057,90.365l0.002,0.01l-0.407-0.248
												c41.859-10.179,80.759-19.638,113.067-27.495l-0.206,0.339c-6.573-27.23-12.022-49.801-15.833-65.587
												c-1.893-7.898-3.377-14.095-4.395-18.338c-0.499-2.108-0.883-3.728-1.147-4.841
												C154.47,307.486,154.348,306.901,154.348,306.901s0.152,0.536,0.424,1.611c0.275,1.098,0.675,2.695,1.196,4.774
												c1.046,4.221,2.573,10.385,4.52,18.242c3.889,15.811,9.449,38.417,16.158,65.69l0.067,0.272l-0.273,0.067
												c-32.3,7.888-71.191,17.385-113.04,27.605l-0.328,0.08l-0.08-0.328l-0.002-0.009
												c-7.94-32.636-15.443-63.478-21.989-90.382l-0.071-0.294l0.293-0.071c33.644-8.135,61.945-14.978,81.858-19.792
												c9.914-2.381,17.734-4.259,23.098-5.546c2.653-0.63,4.694-1.115,6.093-1.448c0.675-0.157,1.191-0.277,1.558-0.362
												C154.178,306.93,154.348,306.901,154.348,306.901z"/>
										</g>
									</g>
								</g>
							</g>
						</g>
					</g>
				</g>
			</g>
		</g>
		<g>
			<g>
				<g>
					<g>
						<g>
							
								<rect x="54.667" y="325.227" transform="matrix(0.9716 -0.2368 0.2368 0.9716 -83.5341 36.1526)" style="fill:#EBEBEB;" width="108.187" height="81.316"/>
						</g>
					</g>
				</g>
			</g>
		</g>
		<g>
			<g>
				<g>
					<g>
						<g>
							<polygon style="fill:#E0E0E0;" points="65.831,418.194 90.576,360.14 120.805,385.322 132.227,365.139 170.942,392.58 
															"/>
						</g>
					</g>
				</g>
			</g>
		</g>
		<g>
			<g>
				<g>
					<g>
						<g>
							<g>
								<g>
									<path style="fill:#E0E0E0;" d="M121.506,346.23c1.114,4.571-1.688,9.179-6.259,10.293
										c-4.571,1.114-9.179-1.689-10.293-6.259c-1.114-4.571,1.688-9.179,6.259-10.293
										C115.784,338.857,120.392,341.659,121.506,346.23z"/>
								</g>
							</g>
						</g>
					</g>
				</g>
			</g>
		</g>
	</g>
	<g>
		<g>
			<g>
				<g>
					<g>
						<g>
							<g>
								<g>
									<g>
										
											<rect x="284.027" y="104.81" transform="matrix(0.9836 -0.1806 0.1806 0.9836 -24.6563 68.7542)" style="fill:#FAFAFA;" width="162.614" height="130.006"/>
									</g>
								</g>
							</g>
						</g>
					</g>
					<g>
						<g>
							<g>
								<g>
									<g>
										<g>
											<path style="fill:#E0E0E0;" d="M433.568,91.197c0,0-0.266,0.066-0.771,0.166c-0.528,0.103-1.27,0.247-2.24,0.436
												c-1.993,0.378-4.901,0.929-8.68,1.645c-7.6,1.421-18.68,3.494-32.724,6.121c-28.085,5.208-67.999,12.61-115.45,21.408
												l0.339-0.491c7.001,38.056,15.026,81.682,23.519,127.846l0.003,0.014l-0.548-0.378
												c59.218-10.841,114.25-20.916,159.955-29.283l-0.314,0.456c-6.985-38.518-12.775-70.446-16.825-92.776
												c-2.006-11.172-3.58-19.936-4.659-25.938c-0.528-2.982-0.932-5.272-1.211-6.846
												C433.691,92.023,433.568,91.197,433.568,91.197s0.169,0.759,0.463,2.281c0.296,1.554,0.726,3.814,1.286,6.757
												c1.12,5.973,2.756,14.696,4.841,25.814c4.156,22.371,10.099,54.357,17.269,92.945l0.072,0.385l-0.387,0.071
												c-45.697,8.412-100.719,18.54-159.927,29.439l-0.464,0.086l-0.085-0.464l-0.003-0.014
												c-8.458-46.171-16.45-89.803-23.422-127.864l-0.076-0.416l0.415-0.076c47.592-8.649,87.627-15.923,115.795-21.042
												c14.022-2.526,25.084-4.518,32.671-5.884c3.752-0.666,6.638-1.179,8.617-1.531c0.954-0.164,1.684-0.29,2.203-0.38
												C433.328,91.225,433.568,91.197,433.568,91.197z"/>
										</g>
									</g>
								</g>
							</g>
						</g>
					</g>
				</g>
			</g>
		</g>
		<g>
			<g>
				<g>
					<g>
						<g>
							
								<rect x="289.635" y="113.013" transform="matrix(0.9836 -0.1806 0.1806 0.9836 -24.6615 68.7357)" style="fill:#EBEBEB;" width="151.19" height="113.637"/>
						</g>
					</g>
				</g>
			</g>
		</g>
		<g>
			<g>
				<g>
					<g>
						<g>
							<polygon style="fill:#E0E0E0;" points="301.136,239.366 340.321,160.356 380.474,197.917 398.03,170.674 449.841,212.068 
															"/>
						</g>
					</g>
				</g>
			</g>
		</g>
		<g>
			<g>
				<g>
					<g>
						<g>
							<g>
								<g>
									<path style="fill:#E0E0E0;" d="M384.59,143.432c1.187,6.467-3.092,12.671-9.559,13.859
										c-6.467,1.187-12.671-3.093-13.858-9.559c-1.187-6.467,3.092-12.671,9.559-13.858
										C377.199,132.686,383.403,136.966,384.59,143.432z"/>
								</g>
							</g>
						</g>
					</g>
				</g>
			</g>
		</g>
	</g>
</g>
<g id="Background_Simple" style="display:none;">
	<path style="display:inline;fill:#F5F5F5;" d="M445.733,124.252l-2.578-4.249c-21.735-35.817-61.032-57.408-102.464-54.788
		c-5.326,0.337-10.629,1.058-15.861,2.178c-37.67,8.063-70.448,36.55-84.034,73.033c-7.99,21.456-10.223,46.161-25.386,63.191
		c-19.734,22.165-53.237,22.861-82.693,21.943c-29.456-0.918-62.982-0.135-82.62,22.117c-12.299,13.936-16.208,33.755-15.216,52.418
		c2.626,49.413,37.057,93.595,80.845,115.555c43.788,21.961,95.344,23.928,143.267,14.267
		c67.135-13.533,130.98-50.699,169.356-108.102C466.725,264.414,476.437,186.208,445.733,124.252z"/>
</g>
<g id="Character">
	<g>
		<g>
			<g>
				<g>
					<g>
						<g>
							<g>
								<g>
									<path style="fill:#FFBE9D;" d="M232.321,140.542l-5.457-59.272c-0.22-16.53-10.023-30.179-26.54-29.502l-1.523,0.152
										c-15.327,1.527-26.913,14.566-26.622,29.967c0.27,14.324,0.753,30.145,1.606,37.759
										c1.768,15.765,20.348,16.304,20.348,16.304l2.004,13.749c0,0,7.948,4.773,19.636,2.724
										C228.365,150.214,232.321,140.542,232.321,140.542z"/>
								</g>
							</g>
						</g>
						<g>
							<g>
								<g>
									<g>
										<g>
											<path style="fill:#EB996E;" d="M194.104,135.934c0,0,10.14-0.398,20.079-8.114c0,0-3.603,11.84-19.495,11.988
												L194.104,135.934z"/>
										</g>
									</g>
								</g>
							</g>
						</g>
						<g>
							<g>
								<g>
									<g>
										<g>
											<g>
												<g>
													<g>
														<path style="fill:#263238;" d="M179.6,93.637c0.076,1.195,1.151,2.115,2.4,2.058c1.247-0.057,2.198-1.069,2.121-2.264
															c-0.077-1.194-1.151-2.116-2.398-2.059C180.474,91.428,179.523,92.442,179.6,93.637z"/>
													</g>
												</g>
											</g>
										</g>
									</g>
								</g>
							</g>
						</g>
						<g>
							<g>
								<g>
									<g>
										<g>
											<g>
												<g>
													<g>
														<g>
															<path style="fill:#263238;" d="M176.341,89.271c0.309,0.266,1.89-1.168,4.317-1.403
																c2.42-0.27,4.325,0.801,4.558,0.477c0.116-0.144-0.221-0.647-1.052-1.134c-0.819-0.486-2.175-0.903-3.685-0.746
																c-1.51,0.159-2.725,0.842-3.399,1.484C176.39,88.596,176.191,89.152,176.341,89.271z"/>
														</g>
													</g>
												</g>
											</g>
										</g>
									</g>
								</g>
							</g>
						</g>
						<g>
							<g>
								<g>
									<g>
										<g>
											<g>
												<g>
													<g>
														<path style="fill:#263238;" d="M201.883,91.473c0.076,1.194,1.151,2.114,2.4,2.057
															c1.247-0.057,2.198-1.069,2.121-2.264c-0.077-1.194-1.152-2.116-2.398-2.059
															C202.757,89.264,201.806,90.278,201.883,91.473z"/>
													</g>
												</g>
											</g>
										</g>
									</g>
								</g>
							</g>
						</g>
						<g>
							<g>
								<g>
									<g>
										<g>
											<g>
												<g>
													<g>
														<g>
															<path style="fill:#263238;" d="M200.229,87.347c0.309,0.266,1.893-1.168,4.318-1.403
																c2.42-0.27,4.324,0.801,4.558,0.477c0.116-0.144-0.219-0.647-1.053-1.133c-0.819-0.486-2.174-0.903-3.685-0.746
																c-1.51,0.159-2.725,0.842-3.4,1.484C200.28,86.672,200.079,87.229,200.229,87.347z"/>
														</g>
													</g>
												</g>
											</g>
										</g>
									</g>
								</g>
							</g>
						</g>
						<g>
							<g>
								<g>
									<g>
										<g>
											<g>
												<g>
													<g>
														<path style="fill:#263238;" d="M193.219,106.213c-0.002-0.139-1.536-0.25-4.01-0.318
															c-0.626-0.002-1.224-0.067-1.371-0.479c-0.19-0.433,0.002-1.126,0.23-1.877c0.433-1.556,0.886-3.189,1.361-4.899
															c1.875-6.969,3.166-12.673,2.885-12.747c-0.282-0.073-2.029,5.516-3.903,12.485c-0.447,1.717-0.876,3.354-1.282,4.919
															c-0.164,0.727-0.488,1.566-0.079,2.463c0.213,0.446,0.701,0.737,1.109,0.804c0.409,0.081,0.758,0.054,1.066,0.041
															C191.697,106.492,193.223,106.351,193.219,106.213z"/>
													</g>
												</g>
											</g>
										</g>
									</g>
								</g>
							</g>
						</g>
						<g>
							<g>
								<g>
									<g>
										<g>
											<g>
												<g>
													<g>
														<path style="fill:#263238;" d="M200.524,107.179c-0.397,0.016-0.139,2.65-2.206,4.743
															c-2.063,2.099-4.899,2.083-4.883,2.453c-0.02,0.169,0.676,0.449,1.864,0.363c1.166-0.076,2.825-0.618,4.091-1.899
															c1.26-1.284,1.699-2.871,1.681-3.96C201.062,107.768,200.703,107.145,200.524,107.179z"/>
													</g>
												</g>
											</g>
										</g>
									</g>
								</g>
							</g>
						</g>
						<g>
							<g>
								<g>
									<g>
										<path style="fill:#263238;" d="M198.655,77.903c0.305,0.636,2.696,0.082,5.575,0.141c2.881,0.001,5.259,0.606,5.578-0.023
											c0.14-0.3-0.322-0.881-1.313-1.427c-0.983-0.546-2.511-1.005-4.238-1.025c-1.727-0.016-3.264,0.411-4.258,0.936
											C198.995,77.03,198.521,77.601,198.655,77.903z"/>
									</g>
								</g>
							</g>
						</g>
						<g>
							<g>
								<g>
									<g>
										<path style="fill:#263238;" d="M176.533,82.162c0.482,0.508,2.095-0.23,4.102-0.457c1.998-0.297,3.748,0,4.082-0.615
											c0.144-0.297-0.179-0.822-0.974-1.27c-0.784-0.447-2.052-0.749-3.429-0.57c-1.376,0.181-2.523,0.8-3.166,1.434
											C176.495,81.321,176.318,81.912,176.533,82.162z"/>
									</g>
								</g>
							</g>
						</g>
						<g>
							<g>
								<g>
									<path style="fill:#263238;" d="M172.975,74.496c0,0,3.178-10.3,7.714-13.081c5.492-3.368,8.607,2.719,13.953,0.634
										c5.346-2.085,10.587-5.314,16.631-1.623c6.615,4.04,4.058,7.591,5.136,14.557c4.37,28.241,10.356,35.754,10.498,22.232
										c0.016-1.481,3.966-3.052,3.952-9.303c-0.019-8.105-0.681-17.883-3.041-23.402c-1.989-4.651-5.057-7.696-10.331-10.864
										c-8.325-5.001-18.983-4.064-26.139-2.617C184.192,52.477,171.083,62.185,172.975,74.496z"/>
								</g>
							</g>
						</g>
						<g>
							<g>
								<g>
									<path style="fill:#FFBE9D;" d="M225.859,96.884c-0.143-2.446,1.764-4.579,4.214-4.59c2.971-0.013,6.414,1.332,6.826,7.434
										c0.731,10.825-10.288,9.326-10.328,9.017C226.544,108.535,226.124,101.417,225.859,96.884z"/>
								</g>
							</g>
						</g>
						<g>
							<g>
								<g>
									<path style="fill:#EB996E;" d="M228.651,104.514c0.045-0.038,0.198,0.119,0.526,0.244c0.32,0.121,0.861,0.183,1.412-0.066
										c1.115-0.497,1.956-2.377,1.876-4.332c-0.039-0.987-0.309-1.911-0.71-2.664c-0.384-0.77-0.933-1.288-1.516-1.352
										c-0.582-0.094-0.966,0.278-1.078,0.592c-0.125,0.312-0.042,0.524-0.098,0.546c-0.028,0.029-0.244-0.166-0.188-0.619
										c0.03-0.218,0.14-0.482,0.38-0.707c0.245-0.229,0.62-0.362,1.024-0.346c0.839,0.001,1.642,0.719,2.083,1.545
										c0.488,0.827,0.814,1.865,0.858,2.973c0.078,2.186-0.901,4.303-2.436,4.861c-0.748,0.25-1.398,0.063-1.744-0.17
										C228.688,104.774,228.615,104.536,228.651,104.514z"/>
								</g>
							</g>
						</g>
					</g>
					<g>
						<g>
							<path style="fill:#263238;" d="M223.564,75.998c-1.306,1.096-2.688,2.23-4.36,2.566c-1.672,0.335-3.7-0.442-4.151-2.087
								c-0.203-0.739-0.106-1.628-0.658-2.16c-0.658-0.634-1.724-0.309-2.618-0.123c-3.104,0.646-6.538-1.253-7.642-4.226
								c-0.681,1.278-2.553,1.412-3.842,0.752c-1.289-0.66-2.196-1.86-3.252-2.851c-1.056-0.991-2.482-1.829-3.889-1.484
								c-0.787,0.193-1.486,0.742-2.296,0.751c-1.43,0.015-2.287-1.575-2.641-2.96c-0.355-1.385-0.685-3.009-1.961-3.654
								c-1.183-0.598-2.583-0.044-3.869,0.278c-1.285,0.322-3,0.184-3.461-1.059c-0.242-0.652-0.025-1.384,0.287-2.005
								c1.417-2.813,4.964-4.353,7.986-3.468c0.7-3.671,3.758-6.779,7.418-7.537c3.66-0.759,7.701,0.876,9.803,3.967
								c2.075-2.297,5.302-3.495,8.373-3.11c3.071,0.386,5.901,2.345,7.344,5.083c2.556-0.952,5.649-0.235,7.526,1.744
								c1.877,1.98,2.428,5.107,1.341,7.608c2.05,0.915,3.903,2.677,4.166,4.907c0.263,2.23-1.691,4.672-3.905,4.299
								c1.044,1.652,0.571,4.083-1.017,5.223c-1.588,1.14-4.043,0.81-5.274-0.709"/>
						</g>
					</g>
					<g>
						<g>
							<g>
								<path style="fill:#455A64;" d="M186.712,57.524c-0.009,0.002-0.001,0.069,0.022,0.198c0.027,0.128,0.054,0.323,0.126,0.569
									c0.149,0.488,0.423,1.206,0.991,2.001c0.57,0.782,1.42,1.666,2.647,2.313c1.204,0.658,2.809,1.09,4.546,0.82l-0.207-0.221
									c-0.243,0.956-0.041,2.055,0.513,2.958c0.531,0.922,1.303,1.708,2.111,2.47c0.412,0.363,0.781,0.801,1.331,1.118
									c0.534,0.303,1.153,0.448,1.773,0.464c1.232,0.035,2.568-0.479,3.349-1.591l-0.415-0.075
									c0.488,2.118,1.922,4.143,3.991,5.258c1.1,0.639,2.414,0.966,3.659,0.808c1.248-0.137,2.372-0.619,3.416-1.114l-0.301-0.098
									c0.714,1.284,1.719,2.339,2.886,3.076c1.146,0.737,2.612,1.091,3.861,0.649c2.493-0.793,3.972-3.079,4.113-5.108
									l-0.233,0.138c1.332,0.563,2.695,0.494,3.762,0.175c1.084-0.311,1.901-0.877,2.471-1.411
									c0.571-0.544,0.888-1.075,1.075-1.439c0.167-0.376,0.23-0.581,0.218-0.586c-0.059-0.039-0.276,0.856-1.416,1.89
									c-0.571,0.496-1.374,1.019-2.419,1.293c-1.029,0.283-2.323,0.318-3.556-0.226l-0.214-0.094l-0.019,0.233
									c-0.157,1.895-1.587,4.034-3.902,4.742c-1.134,0.388-2.423,0.07-3.509-0.628c-1.091-0.696-2.051-1.714-2.715-2.921
									l-0.105-0.191l-0.196,0.092c-1.028,0.485-2.114,0.94-3.268,1.063c-1.153,0.14-2.332-0.149-3.38-0.755
									c-1.955-1.056-3.3-2.95-3.772-4.954l-0.119-0.504l-0.297,0.429c-0.658,0.951-1.85,1.433-2.958,1.404
									c-0.556-0.011-1.105-0.138-1.57-0.398c-0.454-0.25-0.837-0.681-1.254-1.047c-0.807-0.747-1.555-1.503-2.059-2.36
									c-0.526-0.844-0.706-1.809-0.503-2.673l0.063-0.266l-0.269,0.045c-1.635,0.275-3.177-0.107-4.35-0.72
									c-1.195-0.6-2.04-1.435-2.618-2.178C186.869,58.638,186.787,57.492,186.712,57.524z"/>
							</g>
						</g>
					</g>
				</g>
			</g>
			<g>
				<g>
					<path style="fill:#FFFFFF;" d="M230.119,76.938c0.049,0.034-0.357,0.757-1.23,1.769c-0.869,1.011-2.249,2.275-4.006,3.325
						c-1.761,1.046-3.53,1.656-4.833,1.939c-1.306,0.286-2.135,0.299-2.141,0.239c-0.042-0.168,3.275-0.551,6.708-2.626
						C228.075,79.556,229.992,76.822,230.119,76.938z"/>
				</g>
			</g>
			<g>
				<g>
					<path style="fill:#FFFFFF;" d="M230.859,82.419c0.047,0.044-0.415,0.655-1.303,1.515c-0.886,0.86-2.222,1.944-3.85,2.906
						c-1.631,0.958-3.227,1.601-4.408,1.959c-1.183,0.36-1.941,0.468-1.957,0.406c-0.047-0.158,2.909-0.914,6.101-2.813
						C228.649,84.521,230.743,82.301,230.859,82.419z"/>
				</g>
			</g>
		</g>
		<g>
			<g>
				<g>
					<g>
						<g>
							<g>
								<path style="fill:#455A64;" d="M195.361,144.373l-27.661,7.761c-3.287,0.905-6.177,2.883-8.212,5.618l-20.55,28.812
									l6.482,7.425l153.187,0.072c0,0-5.871-21.519-7.799-28.126c-2.908-9.964-6.854-12.783-10.457-16.427
									c-1.091-1.103-4.233-3.051-5.749-3.381c-6.362-1.387-36.543-8.399-42.281-8.237c0,0-5.908,14.063-19.767,13.929
									C198.695,151.685,195.361,144.373,195.361,144.373z"/>
							</g>
						</g>
					</g>
					<g>
						<g>
							<g>
								<g>
									<path style="fill:#263238;" d="M259.54,170.087c0.099,0.026,0.395-1.299,1.331-3.246c0.918-1.951,2.581-4.461,4.883-6.824
										c2.302-2.366,4.685-4.206,6.396-5.546c1.721-1.333,2.783-2.167,2.734-2.236c-0.045-0.062-1.19,0.652-2.979,1.904
										c-1.779,1.26-4.226,3.064-6.57,5.472c-2.345,2.406-4,5.022-4.84,7.059c-0.428,1.015-0.688,1.87-0.821,2.47
										C259.539,169.74,259.504,170.079,259.54,170.087z"/>
								</g>
							</g>
						</g>
					</g>
					<g>
						<g>
							<g>
								<g>
									<path style="fill:#263238;" d="M170.62,187.067c0.078-0.001,0.131-1.281,0.107-3.348c-0.023-2.067-0.132-4.922-0.371-8.068
										c-0.241-3.146-0.566-5.986-0.857-8.032c-0.291-2.047-0.537-3.303-0.614-3.292c-0.082,0.011,0.019,1.285,0.204,3.34
										c0.191,2.238,0.426,4.988,0.685,8.029c0.205,3.044,0.39,5.798,0.541,8.039C170.444,185.793,170.537,187.068,170.62,187.067
										z"/>
								</g>
							</g>
						</g>
					</g>
					<g style="opacity:0.3;">
						<g>
							<g>
								<g>
									<path d="M161.124,191.162c2.607-0.772,5.255-1.757,7.189-3.668c1.933-1.911,2.967-4.971,1.81-7.43
										c3.691,8.182,12.588,13.717,21.559,13.413l-38.196,0.475C155.824,192.564,158.518,191.934,161.124,191.162z"/>
								</g>
							</g>
						</g>
					</g>
				</g>
			</g>
			<g style="opacity:0.3;">
				<g>
					<polygon points="256.598,193.99 257.241,179.139 246.811,193.973 					"/>
				</g>
			</g>
			<g>
				<g>
					<g>
						<path style="fill:#263238;" d="M256.598,193.99c-0.142-0.008-0.038-3.946,0.231-8.794c0.269-4.85,0.602-8.774,0.744-8.767
							c0.141,0.008,0.038,3.945-0.231,8.795C257.072,190.072,256.739,193.997,256.598,193.99z"/>
					</g>
				</g>
			</g>
		</g>
	</g>
</g>
<g id="Speech_Bubble">
	<g>
		<g>
			<g>
				<polygon style="fill:#FFFFFF;" points="343.291,75.425 358.664,53.507 333.675,64.466 335.068,31.047 315.558,52.942 
					299.444,26.807 291.658,56.498 267.238,53.659 283.444,79.352 255.978,98.487 290.17,90.604 291.274,117.726 314.095,99.42 
					338.067,119.553 335.172,93.111 365.317,90.691 				"/>
			</g>
			<g>
				<g>
					<path style="fill:#263238;" d="M343.291,75.425c0,0,0.464,0.345,1.409,1.013c0.963,0.678,2.372,1.669,4.215,2.965
						c3.745,2.62,9.243,6.466,16.315,11.413l0.074-0.276c-8.202,0.641-18.392,1.438-30.15,2.358l-0.22,0.017l0.024,0.22
						c0.856,7.92,1.821,16.848,2.859,26.445l0.411-0.22c-7.338-6.176-15.414-12.972-23.952-20.157l-0.178-0.15l-0.182,0.146
						c-7.266,5.82-14.906,11.94-22.834,18.291l0.493,0.224c-0.346-8.602-0.713-17.742-1.091-27.123l-0.014-0.359l-0.355,0.06
						c-10.627,1.783-22.75,5.953-34.193,7.874l0.229,0.598c8.04-5.105,17.461-12.781,26.068-18.245l1.399-0.888l0.277-0.176
						l-0.175-0.278c-5.498-8.714-10.91-17.293-16.208-25.691l-0.313,0.498c8.299,0.962,16.446,1.907,24.421,2.832l0.276,0.032
						l0.07-0.269c2.672-10.207,5.267-20.123,7.773-29.694l-0.556,0.083c5.619,9.1,11.001,17.815,16.132,26.124l0.201,0.325
						l0.254-0.286c6.893-7.751,13.394-15.061,19.488-21.914l-0.447-0.181c-0.497,12.35-0.946,23.522-1.345,33.421l-0.013,0.335
						l0.306-0.135c9.871-4.354,18.133-7.999,24.965-11.013l-0.184-0.224c-4.98,7.165-8.805,12.669-11.396,16.397
						c-1.272,1.841-2.24,3.241-2.899,4.195C343.599,74.951,343.291,75.425,343.291,75.425s0.362-0.482,1.034-1.423
						c0.677-0.952,1.671-2.347,2.977-4.182c2.611-3.689,6.467-9.136,11.485-16.227l0.311-0.44l-0.495,0.216
						c-6.844,2.984-15.123,6.594-25.012,10.906l0.292,0.2c0.426-9.898,0.907-21.069,1.439-33.417l0.031-0.716l-0.478,0.535
						c-6.108,6.841-12.623,14.139-19.531,21.876l0.454,0.04c-5.119-8.315-10.489-17.038-16.095-26.146l-0.375-0.608l-0.182,0.691
						c-2.514,9.568-5.118,19.482-7.8,29.687l0.346-0.236c-7.975-0.929-16.121-1.878-24.42-2.845l-0.678-0.079l0.364,0.577
						c5.297,8.399,10.707,16.979,16.203,25.694l0.102-0.453l-1.399,0.888c-8.606,5.465-18.026,13.143-26.065,18.249l-1.364,0.866
						l1.593-0.268c11.443-1.927,23.564-6.104,34.19-7.893l-0.369-0.3c0.386,9.38,0.763,18.52,1.117,27.122l0.025,0.601l0.469-0.376
						c7.919-6.362,15.551-12.493,22.808-18.323l-0.359-0.004c8.552,7.168,16.641,13.948,23.992,20.109l0.481,0.403l-0.069-0.623
						c-1.064-9.595-2.054-18.519-2.932-26.437l-0.196,0.237c11.755-0.968,21.941-1.807,30.14-2.482l0.426-0.035l-0.352-0.242
						c-7.083-4.864-12.589-8.645-16.341-11.221c-1.873-1.279-3.305-2.257-4.284-2.925C343.809,75.76,343.291,75.425,343.291,75.425z
						"/>
				</g>
			</g>
		</g>
		<g>
			<g>
				<path style="fill:#FF725E;" d="M317.796,62.704l-0.978,15.449c-0.08,1.263-1.089,2.269-2.353,2.344l0,0
					c-1.333,0.079-2.494-0.9-2.641-2.227l-1.715-15.527c-0.13-1.176,0.8-2.199,1.983-2.183l3.768,0.053
					C316.984,60.628,317.867,61.582,317.796,62.704z"/>
			</g>
			<g>
				<path style="fill:#FF725E;" d="M310.37,89.186c0.656,1.976,2.79,3.047,4.766,2.39c1.976-0.656,3.047-2.79,2.391-4.766
					c-0.656-1.976-2.79-3.046-4.767-2.39C310.784,85.076,309.714,87.21,310.37,89.186z"/>
			</g>
		</g>
	</g>
</g>
<g id="Camera">
	<g>
		<g>
			<path style="fill:#FF725E;" d="M232.546,181.061h82.809l4.73-4.73h50.356c3.401,0,6.157,2.757,6.157,6.157v8.326H226.975
				l-0.189-3.692C226.618,183.826,229.245,181.061,232.546,181.061z"/>
		</g>
		<g>
			<g>
				<path style="fill:#FF725E;" d="M116.008,312.735l1.111-110.28c0.065-6.427,5.293-11.603,11.72-11.603h74.87h178.506
					c6.439,0,11.672,5.194,11.72,11.632l0.833,110.25l11.664,48.155v17.21h-8.261v49.29c0,18.021-14.609,32.631-32.631,32.631
					H140.295c-18.021,0-32.631-14.609-32.631-32.631v-51.355h-8.261V360.89L116.008,312.735z"/>
			</g>
			<g>
				<g>
					<path style="fill:#263238;" d="M116.008,312.735c0,0-0.345,1.061-1.051,3.137c-0.711,2.08-1.767,5.172-3.156,9.239
						c-2.796,8.144-6.93,20.189-12.294,35.815l0.006-0.035c0.004,4.737,0.009,9.789,0.014,15.145l-0.123-0.123
						c2.505-0.002,5.343-0.005,8.261-0.007l0.13,0l0,0.131c0.008,10.766,0.017,22.658,0.026,35.585
						c0.002,3.232,0.004,6.529,0.006,9.889c0.027,3.358-0.121,6.797,0.331,10.23c0.413,3.443,1.479,6.864,3.09,10.066
						c1.602,3.206,3.757,6.207,6.402,8.805c5.274,5.215,12.652,8.611,20.509,9.112c1.959,0.141,3.957,0.103,5.964,0.105
						c2.007-0.001,4.028-0.002,6.062-0.003c4.069-0.002,8.193-0.003,12.37-0.005c16.71-0.006,34.275-0.012,52.605-0.018
						c36.661-0.008,76.381-0.017,118.441-0.027c10.515-0.002,21.176-0.004,31.972-0.006c5.357-0.047,10.73-1.394,15.504-3.969
						l1.739-1.057l0.868-0.532l0.816-0.611l1.634-1.222l1.512-1.374l0.757-0.688l0.691-0.755l1.378-1.517l1.235-1.639l0.615-0.823
						c0.196-0.281,0.361-0.582,0.543-0.873l1.069-1.759c0.323-0.604,0.603-1.234,0.907-1.85c0.655-1.214,1.031-2.548,1.53-3.831
						c0.771-2.64,1.378-5.362,1.459-8.137c0.097-1.379,0.097-2.778,0.088-4.18c0-1.401,0-2.803,0-4.207c0-2.808,0-5.624-0.001-8.447
						c-0.001-11.291-0.001-22.694-0.002-34.198v-0.26h0.26c2.593,0,5.424,0,8.261,0l-0.26,0.26c0-5.429,0-11.308,0-17.21
						l0.007,0.061c-1.184-4.888-2.463-10.167-3.746-15.464c-2.712-11.198-5.405-22.315-7.918-32.69l-0.007-0.029l0-0.03
						c-0.267-35.656-0.526-70.374-0.777-103.833c-0.202-4.133,0.615-8.532-1.602-12.081c-2-3.564-6.009-5.77-10.034-5.722
						c-8.202-0.001-16.321-0.003-24.35-0.004c-16.059-0.003-31.763-0.006-47.071-0.01c-61.232-0.021-116.132-0.04-162.12-0.057
						c-5.748-0.003-11.357-0.006-16.822-0.009c-1.361,0.014-2.736-0.041-4.053,0.056c-1.322,0.141-2.609,0.504-3.792,1.066
						c-2.378,1.11-4.309,3.047-5.418,5.343c-0.555,1.144-0.952,2.366-1.093,3.617c-0.139,1.242-0.103,2.518-0.127,3.771
						c-0.027,2.511-0.053,4.983-0.08,7.417c-0.052,4.868-0.103,9.581-0.152,14.135c-0.2,18.213-0.373,33.876-0.514,46.666
						c-0.149,12.783-0.265,22.693-0.344,29.414c-0.045,3.353-0.079,5.91-0.102,7.633
						C116.034,311.858,116.008,312.735,116.008,312.735s-0.008-0.883,0.001-2.604c0.012-1.725,0.029-4.284,0.052-7.64
						c0.057-6.722,0.141-16.634,0.249-29.42c0.117-12.787,0.26-28.447,0.427-46.656c0.043-4.552,0.087-9.264,0.132-14.13
						c0.023-2.433,0.046-4.905,0.07-7.414c0.023-1.255-0.017-2.516,0.124-3.807c0.144-1.285,0.55-2.542,1.119-3.719
						c1.137-2.361,3.119-4.354,5.564-5.499c1.216-0.58,2.54-0.955,3.901-1.101c1.374-0.102,2.716-0.046,4.086-0.062
						c5.465-0.003,11.074-0.006,16.822-0.009c45.988-0.016,100.889-0.035,162.12-0.057c15.308-0.003,31.012-0.006,47.071-0.009
						c8.03-0.001,16.148-0.003,24.35-0.004c4.189-0.053,8.382,2.251,10.467,5.967c1.074,1.822,1.615,3.955,1.624,6.07
						c0.016,2.081,0.032,4.168,0.048,6.259c0.255,33.459,0.52,68.177,0.793,103.833l-0.007-0.059
						c2.513,10.375,5.206,21.492,7.919,32.69c1.283,5.297,2.562,10.576,3.746,15.464l0.007,0.03v0.031c0,5.902,0,11.781,0,17.21
						v0.26h-0.26c-2.837,0-5.667,0-8.261,0l0.26-0.259c-0.001,11.504-0.001,22.907-0.002,34.198c0,2.823,0,5.638-0.001,8.447
						c0,1.404,0,2.807,0,4.207c0.008,1.4,0.009,2.798-0.089,4.208c-0.084,2.819-0.698,5.584-1.484,8.266
						c-0.507,1.304-0.891,2.659-1.555,3.892c-0.309,0.626-0.593,1.265-0.922,1.879l-1.085,1.787
						c-0.185,0.295-0.353,0.601-0.551,0.886l-0.625,0.836l-1.255,1.664l-1.4,1.54l-0.703,0.766l-0.769,0.699l-1.537,1.395
						l-1.66,1.241l-0.829,0.62l-0.881,0.541l-1.766,1.073c-4.849,2.615-10.308,3.982-15.747,4.027
						c-10.796-0.001-21.457-0.002-31.972-0.003c-42.06-0.01-81.78-0.019-118.441-0.027c-18.33-0.007-35.895-0.013-52.605-0.018
						c-4.177-0.002-8.301-0.003-12.37-0.005c-2.035-0.001-4.055-0.002-6.062-0.003c-2.007-0.004-3.997,0.033-5.989-0.112
						c-7.949-0.514-15.409-3.958-20.735-9.236c-2.672-2.629-4.847-5.665-6.463-8.907c-1.625-3.238-2.697-6.697-3.111-10.176
						c-0.453-3.483-0.299-6.921-0.322-10.274c0.002-3.36,0.004-6.657,0.006-9.889c0.009-12.927,0.018-24.819,0.026-35.585l0.13,0.13
						c-2.917-0.003-5.756-0.005-8.261-0.007l-0.123,0l0-0.123c0.005-5.356,0.01-10.408,0.014-15.145v-0.019l0.006-0.017
						c5.405-15.605,9.572-27.634,12.39-35.767c1.413-4.061,2.488-7.148,3.211-9.225
						C115.625,313.789,116.008,312.735,116.008,312.735z"/>
				</g>
			</g>
		</g>
		<g>
			<g>
				
					<ellipse transform="matrix(0.6776 -0.7354 0.7354 0.6776 -155.2072 205.4451)" style="fill:#E0E0E0;" cx="156.736" cy="279.759" rx="21.16" ry="21.16"/>
			</g>
			<g>
				<g>
					<path style="fill:#263238;" d="M177.896,279.759c-0.009,0-0.024-0.116-0.044-0.342c-0.019-0.253-0.045-0.585-0.077-1.003
						c-0.02-0.442-0.063-0.986-0.189-1.62c-0.104-0.637-0.203-1.375-0.45-2.177c-0.379-1.629-1.148-3.552-2.356-5.589
						c-1.218-2.029-2.97-4.146-5.353-5.942c-2.375-1.779-5.37-3.291-8.826-3.9c-3.432-0.587-7.305-0.478-10.992,0.925
						c-0.938,0.301-1.82,0.766-2.727,1.201c-0.859,0.52-1.764,0.999-2.563,1.649c-0.85,0.584-1.593,1.314-2.371,2.017
						c-0.703,0.779-1.442,1.541-2.048,2.424c-1.244,1.728-2.33,3.648-2.987,5.759c-0.681,2.098-1.048,4.326-1.078,6.594
						c0.03,2.269,0.396,4.498,1.077,6.597c0.657,2.112,1.743,4.032,2.987,5.761c0.606,0.884,1.345,1.646,2.048,2.425
						c0.778,0.703,1.521,1.434,2.371,2.018c0.799,0.651,1.705,1.13,2.564,1.65c0.907,0.435,1.789,0.9,2.727,1.201
						c3.688,1.403,7.561,1.512,10.993,0.924c3.455-0.609,6.451-2.121,8.826-3.9c2.383-1.796,4.135-3.914,5.353-5.942
						c1.207-2.037,1.977-3.96,2.355-5.589c0.247-0.802,0.346-1.54,0.45-2.176c0.126-0.634,0.169-1.178,0.189-1.62
						c0.032-0.419,0.057-0.75,0.077-1.003C177.873,279.875,177.887,279.759,177.896,279.759s0.012,0.116,0.009,0.343
						c-0.006,0.255-0.015,0.588-0.025,1.009c-0.003,0.445-0.03,0.993-0.141,1.635c-0.089,0.643-0.173,1.391-0.407,2.204
						c-0.352,1.652-1.101,3.609-2.302,5.689c-1.21,2.071-2.969,4.24-5.379,6.086c-2.402,1.829-5.446,3.391-8.97,4.032
						c-3.499,0.619-7.457,0.524-11.236-0.898c-0.961-0.306-1.866-0.777-2.795-1.221c-0.881-0.528-1.808-1.018-2.629-1.681
						c-0.871-0.596-1.635-1.341-2.432-2.061c-0.722-0.795-1.479-1.576-2.102-2.479c-1.277-1.769-2.392-3.736-3.067-5.9
						c-0.7-2.151-1.076-4.436-1.106-6.76c0.03-2.323,0.407-4.608,1.107-6.758c0.676-2.163,1.79-4.13,3.067-5.898
						c0.623-0.904,1.38-1.684,2.102-2.479c0.798-0.719,1.561-1.464,2.432-2.06c0.82-0.663,1.747-1.152,2.628-1.681
						c0.929-0.444,1.833-0.915,2.794-1.221c3.778-1.422,7.736-1.517,11.235-0.898c3.523,0.64,6.567,2.202,8.969,4.031
						c2.41,1.846,4.169,4.015,5.38,6.086c1.201,2.08,1.95,4.037,2.302,5.689c0.234,0.814,0.318,1.561,0.407,2.204
						c0.111,0.641,0.138,1.19,0.141,1.635c0.01,0.421,0.019,0.754,0.025,1.009C177.908,279.642,177.905,279.759,177.896,279.759z"/>
				</g>
			</g>
		</g>
		<g style="opacity:0.3;">
			<polygon points="99.403,360.89 406.434,360.89 394.77,312.735 116.008,312.735 			"/>
		</g>
		<g>
			<path style="fill:#263238;" d="M372.538,248.938H337.25c-2.779,0-5.04-2.261-5.04-5.04v-35.289c0-2.779,2.261-5.04,5.04-5.04
				h35.288c2.779,0,5.04,2.261,5.04,5.04v35.289C377.578,246.677,375.317,248.938,372.538,248.938z M337.25,204.57
				c-2.228,0-4.04,1.812-4.04,4.04v35.289c0,2.228,1.813,4.04,4.04,4.04h35.288c2.228,0,4.04-1.813,4.04-4.04v-35.289
				c0-2.228-1.813-4.04-4.04-4.04H337.25z"/>
		</g>
		<g>
			
				<ellipse transform="matrix(0.2278 -0.9737 0.9737 0.2278 53.7482 520.2803)" style="fill:#263238;" cx="354.894" cy="226.254" rx="20.152" ry="20.152"/>
		</g>
		<g>
			<g>
				<path style="fill:#FAFAFA;" d="M189.578,239.092H139.86c-3.763,0-6.813-3.05-6.813-6.813V220.39c0-3.763,3.05-6.813,6.813-6.813
					h49.719c3.763,0,6.813,3.05,6.813,6.813v11.889C196.391,236.042,193.341,239.092,189.578,239.092z"/>
			</g>
			<g>
				<g>
					<path style="fill:#263238;" d="M189.578,239.092c-0.004-0.04,0.59,0.006,1.655-0.265c1.041-0.267,2.622-0.981,3.831-2.689
						c0.601-0.841,1.034-1.945,1.169-3.192c0.06-1.252,0.004-2.659,0.012-4.145c-0.006-1.493-0.013-3.088-0.02-4.779
						c-0.003-0.846-0.006-1.716-0.009-2.609c-0.001-0.9,0.017-1.799-0.227-2.683c-0.449-1.765-1.717-3.428-3.525-4.283
						c-1.792-0.959-3.996-0.589-6.196-0.656c-4.417,0.008-9.135,0.016-14.099,0.024c-9.933,0.006-20.848,0.013-32.306,0.021
						c-2.788-0.039-5.381,1.893-6.211,4.46c-0.462,1.266-0.327,2.649-0.349,4.032c-0.001,1.374-0.001,2.737-0.002,4.088
						c-0.001,1.351-0.002,2.69-0.003,4.016c0.013,1.337-0.094,2.641,0.305,3.832c0.736,2.415,2.938,4.202,5.317,4.511
						c0.587,0.093,1.193,0.075,1.812,0.077c0.613,0.001,1.222,0.002,1.827,0.003c1.21,0.002,2.403,0.004,3.579,0.006
						c2.352,0.004,4.636,0.009,6.844,0.013c4.414,0.011,8.527,0.022,12.285,0.032c7.491,0.035,13.562,0.063,17.788,0.083
						c2.079,0.021,3.704,0.038,4.836,0.049c0.533,0.011,0.95,0.02,1.258,0.026C189.433,239.074,189.578,239.083,189.578,239.092
						c0,0.009-0.145,0.018-0.429,0.027c-0.307,0.006-0.724,0.015-1.258,0.026c-1.133,0.011-2.757,0.028-4.836,0.049
						c-4.227,0.02-10.297,0.048-17.788,0.083c-3.758,0.01-7.871,0.02-12.285,0.032c-2.208,0.004-4.492,0.009-6.844,0.013
						c-1.176,0.002-2.37,0.004-3.579,0.006c-0.605,0.001-1.214,0.002-1.827,0.003c-0.604-0.001-1.239,0.021-1.88-0.077
						c-2.555-0.326-4.924-2.237-5.723-4.836c-0.189-0.646-0.32-1.316-0.326-1.998c-0.003-0.658-0.006-1.32-0.009-1.984
						c-0.001-1.326-0.002-2.665-0.003-4.016c-0.001-1.351-0.001-2.714-0.002-4.088c0.002-0.689,0.004-1.38,0.006-2.074
						c0.004-0.72,0.146-1.436,0.367-2.124c0.893-2.772,3.693-4.857,6.702-4.816c11.458,0.007,22.374,0.014,32.306,0.02
						c4.964,0.008,9.682,0.016,14.099,0.024c1.104,0.003,2.189,0.005,3.254,0.007c1.095-0.006,2.172,0.256,3.117,0.719
						c1.913,0.918,3.243,2.685,3.705,4.552c0.253,0.936,0.226,1.894,0.22,2.775c-0.003,0.893-0.006,1.763-0.009,2.609
						c-0.007,1.691-0.014,3.286-0.02,4.779c-0.023,1.497,0.021,2.869-0.056,4.169c-0.155,1.292-0.619,2.427-1.251,3.284
						c-1.272,1.74-2.906,2.435-3.971,2.674C190.169,239.171,189.578,239.092,189.578,239.092z"/>
				</g>
			</g>
		</g>
		<g>
			<circle style="fill:#263238;" cx="259.65" cy="255.528" r="54.936"/>
			<path style="fill:#455A64;" d="M259.65,310.964c-30.568,0-55.436-24.869-55.436-55.437c0-30.567,24.869-55.436,55.436-55.436
				c30.567,0,55.436,24.869,55.436,55.436C315.086,286.095,290.217,310.964,259.65,310.964z M259.65,201.092
				c-30.017,0-54.436,24.42-54.436,54.436c0,30.017,24.42,54.437,54.436,54.437c30.016,0,54.436-24.42,54.436-54.437
				C314.086,225.512,289.666,201.092,259.65,201.092z"/>
		</g>
		<g>
			<path style="fill:#455A64;" d="M259.65,305.464c-28.093,0-50.948-22.854-50.948-50.947c0-28.092,22.855-50.947,50.948-50.947
				c28.093,0,50.947,22.855,50.947,50.947C310.597,282.61,287.743,305.464,259.65,305.464z M259.65,204.57
				c-27.542,0-49.948,22.406-49.948,49.947s22.406,49.947,49.948,49.947c27.541,0,49.947-22.406,49.947-49.947
				S287.191,204.57,259.65,204.57z"/>
		</g>
		<g>
			<circle style="fill:#455A64;" cx="259.65" cy="255.089" r="40.877"/>
		</g>
		<g>
			<g>
				
					<ellipse transform="matrix(0.6757 -0.7372 0.7372 0.6757 -155.4063 206.2859)" style="fill:#FF725E;" cx="156.736" cy="279.759" rx="15.79" ry="15.79"/>
			</g>
			<g>
				<g>
					<path style="fill:#263238;" d="M172.526,279.759c-0.086,0.008,0.019-1.408-0.592-3.831c-0.286-1.212-0.863-2.643-1.765-4.158
						c-0.909-1.508-2.216-3.082-3.991-4.416c-1.769-1.321-3.998-2.443-6.567-2.893c-2.552-0.434-5.431-0.351-8.171,0.693
						c-1.379,0.48-2.709,1.205-3.931,2.12c-0.632,0.434-1.183,0.977-1.762,1.5c-0.522,0.579-1.071,1.145-1.521,1.802
						c-1.911,2.543-2.988,5.812-3.019,9.18c0.03,3.369,1.107,6.639,3.018,9.183c0.45,0.657,0.999,1.224,1.521,1.803
						c0.578,0.523,1.13,1.066,1.762,1.5c1.222,0.915,2.552,1.641,3.931,2.121c2.74,1.044,5.62,1.127,8.172,0.693
						c2.57-0.451,4.798-1.573,6.567-2.894c1.775-1.334,3.081-2.908,3.991-4.416c0.902-1.515,1.479-2.945,1.764-4.158
						C172.544,281.167,172.44,279.751,172.526,279.759c0.009,0,0.014,0.087,0.014,0.256c-0.003,0.2-0.007,0.448-0.012,0.753
						c0,0.332-0.018,0.742-0.099,1.222c-0.064,0.481-0.125,1.04-0.298,1.648c-0.259,1.236-0.816,2.7-1.711,4.257
						c-0.902,1.551-2.216,3.175-4.017,4.56c-1.796,1.371-4.073,2.543-6.711,3.025c-2.62,0.466-5.584,0.397-8.415-0.667
						c-1.424-0.49-2.799-1.232-4.064-2.172c-0.653-0.447-1.225-1.004-1.822-1.543c-0.542-0.595-1.109-1.18-1.576-1.857
						c-1.979-2.623-3.099-6.004-3.128-9.485c0.031-3.48,1.15-6.86,3.129-9.482c0.467-0.677,1.034-1.261,1.575-1.857
						c0.598-0.539,1.17-1.096,1.822-1.543c1.264-0.94,2.639-1.682,4.063-2.172c2.831-1.063,5.794-1.132,8.414-0.667
						c2.638,0.482,4.915,1.654,6.711,3.025c1.802,1.384,3.115,3.009,4.018,4.56c0.895,1.557,1.452,3.022,1.711,4.258
						c0.173,0.609,0.234,1.167,0.298,1.648c0.081,0.479,0.099,0.889,0.099,1.222c0.005,0.306,0.009,0.553,0.012,0.754
						C172.539,279.672,172.535,279.759,172.526,279.759z"/>
				</g>
			</g>
		</g>
		<g>
			<g>
				<path style="fill:#263238;" d="M163.472,268.333c-0.027,0.055-0.921-0.553-2.743-1.117c-1.797-0.551-4.656-0.954-7.911,0.064
					c-1.609,0.513-3.272,1.414-4.745,2.744c-1.468,1.324-2.769,3.074-3.521,5.175c-0.417,1.034-0.624,2.166-0.766,3.318
					c-0.074,1.16-0.076,2.358,0.16,3.548c0.423,2.376,1.558,4.726,3.325,6.587c1.752,1.874,4.021,3.164,6.371,3.726
					c2.348,0.617,4.764,0.435,6.894-0.166c2.13-0.656,3.966-1.82,5.388-3.198c1.412-1.397,2.397-3.009,3.012-4.579
					c1.233-3.176,0.995-6.062,0.564-7.887c-0.215-0.927-0.479-1.623-0.662-2.09c-0.189-0.466-0.3-0.707-0.281-0.717
					c0.008-0.004,0.045,0.051,0.11,0.164c0.067,0.112,0.155,0.283,0.267,0.511c0.215,0.458,0.514,1.149,0.763,2.083
					c0.497,1.837,0.806,4.783-0.417,8.068c-0.609,1.624-1.606,3.298-3.051,4.754c-1.455,1.437-3.346,2.658-5.552,3.35
					c-2.206,0.638-4.712,0.836-7.155,0.203c-2.445-0.579-4.807-1.917-6.629-3.865c-1.837-1.936-3.015-4.382-3.448-6.854
					c-0.241-1.237-0.236-2.481-0.153-3.685c0.151-1.196,0.374-2.369,0.811-3.44c0.794-2.174,2.154-3.976,3.683-5.329
					c1.534-1.36,3.26-2.268,4.921-2.773c3.363-1,6.277-0.524,8.082,0.094c0.916,0.31,1.589,0.646,2.031,0.892
					c0.221,0.124,0.386,0.224,0.494,0.298C163.423,268.285,163.477,268.326,163.472,268.333z"/>
			</g>
		</g>
		<g>
			<g>
				<path style="fill:#263238;" d="M394.77,312.735c0,0.144-62.408,0.26-139.374,0.26c-76.993,0-139.388-0.117-139.388-0.26
					s62.395-0.26,139.388-0.26C332.362,312.474,394.77,312.591,394.77,312.735z"/>
			</g>
		</g>
		<g>
			<g>
				<path style="fill:#263238;" d="M403.378,378.155c0,0-0.26,0.017-0.766,0.026c-0.523,0.005-1.272,0.013-2.25,0.023
					c-1.994,0.009-4.905,0.021-8.649,0.037c-7.527-0.008-18.391-0.02-31.811-0.035c-26.861-0.093-63.967-0.433-104.947-0.903
					c-40.994-0.47-78.101-0.869-104.96-1.056c-13.42-0.085-24.282-0.153-31.808-0.201c-3.744-0.026-6.655-0.047-8.648-0.06
					c-0.978-0.013-1.727-0.022-2.249-0.029c-0.507-0.009-0.766-0.028-0.766-0.028s0.259-0.017,0.766-0.026
					c0.522-0.005,1.272-0.013,2.249-0.023c1.993-0.009,4.904-0.021,8.648-0.037c7.526,0.008,18.389,0.02,31.81,0.035
					c26.861,0.093,63.971,0.433,104.964,0.903c40.98,0.47,78.083,0.868,104.943,1.056c13.42,0.085,24.283,0.153,31.81,0.201
					c3.745,0.026,6.656,0.047,8.649,0.06c0.978,0.013,1.727,0.022,2.25,0.029C403.119,378.137,403.378,378.155,403.378,378.155z"/>
			</g>
		</g>
		<g>
			<rect x="133.143" y="421.868" style="fill:#263238;" width="239.552" height="12.958"/>
		</g>
		<g>
			<g>
				<polygon style="fill:#FFFFFF;" points="138.453,428.347 120.925,476.052 387.286,476.052 367.059,428.347 				"/>
			</g>
			<g>
				<g>
					<path style="fill:#263238;" d="M138.454,428.347c0,0,0.371-0.012,1.111-0.019c0.75-0.004,1.852-0.01,3.299-0.018
						c2.919-0.008,7.222-0.021,12.792-0.037c11.173-0.017,27.424-0.042,47.776-0.073c40.757-0.026,97.929-0.064,163.627-0.106
						l0.168,0l0.065,0.155c6.504,15.333,13.286,31.323,20.234,47.703l0.153,0.362h-0.393c-5.829,0-12.076,0-18.367,0
						c-103.306-0.048-194.35-0.09-247.994-0.115l-0.209,0l0.072-0.195c5.57-15.066,9.979-26.991,12.999-35.159
						c1.51-4.064,2.672-7.191,3.46-9.311c0.393-1.047,0.691-1.844,0.895-2.387C138.345,428.61,138.454,428.347,138.454,428.347
						s-0.093,0.285-0.288,0.83c-0.198,0.55-0.489,1.357-0.87,2.417c-0.774,2.131-1.916,5.275-3.401,9.36
						c-2.981,8.166-7.335,20.087-12.834,35.148l-0.136-0.195c53.644-0.025,144.688-0.067,247.994-0.115c6.292,0,12.538,0,18.367,0
						l-0.239,0.361c-6.944-16.382-13.721-32.373-20.221-47.708l0.233,0.154c-65.642-0.043-122.766-0.08-163.489-0.106
						c-20.371-0.031-36.637-0.056-47.821-0.073c-5.589-0.016-9.906-0.028-12.835-0.037c-1.458-0.008-2.568-0.014-3.324-0.018
						C138.842,428.359,138.454,428.347,138.454,428.347z"/>
				</g>
			</g>
		</g>
		<g style="opacity:0.3;">
			<g>
				<path style="fill:#FFFFFF;" d="M285.853,273.946c-0.501-5.136-5.036-6.954-9.229-7.54c-8.916-1.246-18.981,1.309-26.323-3.9
					c-4.711-3.342-7.079-9.674-5.717-15.287c1.04-4.286,3.956-8.982,1.083-12.616c-1.096-1.386-2.816-2.131-4.581-2.223
					c-1.738-0.09-3.336,0.307-4.85,0.951c-3.279,1.394-5.891,4.023-7.513,7.195c-3.816,7.464-4.29,16.233-1.893,24.515
					c2.911,10.062,10.719,18.552,20.452,22.422c9.733,3.87,21.175,3.08,30.351-1.97c3.466-1.908,6.734-4.512,7.912-8.494
					C285.836,276.012,285.952,274.969,285.853,273.946z"/>
			</g>
		</g>
		<g style="opacity:0.3;">
			<path style="fill:#FFFFFF;" d="M263.373,226.925c0,2.311-1.874,4.185-4.185,4.185c-2.311,0-4.185-1.874-4.185-4.185
				s1.874-4.185,4.185-4.185C261.499,222.74,263.373,224.613,263.373,226.925z"/>
		</g>
		<g>
			<g>
				<path style="fill:#FFFFFF;" d="M245.211,291.22c-0.008,0.016-0.247-0.085-0.696-0.292c-0.441-0.221-1.126-0.489-1.939-0.962
					c-1.663-0.876-3.979-2.342-6.553-4.519c-2.576-2.169-5.342-5.137-7.77-8.884c-2.431-3.736-4.452-8.293-5.534-13.338
					c-1.025-5.059-0.993-10.045-0.257-14.442c0.729-4.406,2.078-8.232,3.573-11.25c1.489-3.024,3.026-5.293,4.201-6.761
					c0.556-0.758,1.076-1.277,1.393-1.656c0.329-0.369,0.508-0.557,0.521-0.545c0.013,0.012-0.139,0.223-0.441,0.613
					c-0.29,0.4-0.783,0.938-1.311,1.711c-1.119,1.497-2.597,3.781-4.03,6.797c-1.439,3.011-2.737,6.808-3.431,11.167
					c-0.701,4.35-0.717,9.27,0.293,14.259c1.067,4.975,3.047,9.478,5.428,13.185c2.378,3.718,5.085,6.68,7.607,8.865
					c2.519,2.193,4.787,3.695,6.411,4.621c0.794,0.498,1.46,0.793,1.886,1.044C244.994,291.072,245.218,291.204,245.211,291.22z"/>
			</g>
		</g>
		<g>
			<g>
				<path style="fill:#FFFFFF;" d="M262.171,293.882c-0.008,0.144-1.899,0.156-4.224,0.029c-2.325-0.128-4.203-0.348-4.195-0.492
					c0.008-0.144,1.899-0.156,4.224-0.028C260.301,293.518,262.179,293.738,262.171,293.882z"/>
			</g>
		</g>
		<g>
			<g>
				<path style="fill:#FFFFFF;" d="M297.755,260.641c-0.11-0.021,0.358-1.972,0.5-5.176c0.031-0.801,0.058-1.678,0.004-2.619
					c-0.003-0.943-0.124-1.942-0.222-2.996c-0.273-2.098-0.732-4.384-1.469-6.714c-0.764-2.321-1.727-4.446-2.732-6.308
					c-0.536-0.912-1.022-1.794-1.57-2.561c-0.506-0.796-1.041-1.491-1.534-2.123c-1.988-2.518-3.507-3.827-3.43-3.908
					c0.024-0.027,0.406,0.293,1.08,0.897c0.342,0.297,0.749,0.673,1.18,1.151c0.436,0.472,0.963,0.985,1.456,1.629
					c0.517,0.624,1.076,1.316,1.604,2.111c0.57,0.766,1.078,1.651,1.632,2.57c1.042,1.875,2.034,4.026,2.809,6.382
					c0.747,2.364,1.2,4.689,1.449,6.819c0.087,1.07,0.192,2.084,0.177,3.039c0.036,0.954-0.013,1.841-0.068,2.65
					c-0.024,0.811-0.152,1.535-0.23,2.173c-0.071,0.64-0.181,1.183-0.285,1.623C297.914,260.166,297.79,260.649,297.755,260.641z"/>
			</g>
		</g>
		<g style="opacity:0.3;">
			<polygon points="107.664,376.035 107.664,389.703 398.173,389.703 398.173,378.1 			"/>
		</g>
		<g>
			<polygon style="fill:#455A64;" points="146.263,428.347 132.58,470.115 375.632,470.115 359.788,428.347 			"/>
		</g>
		<g>
			<g>
				<path style="fill:#263238;" d="M368.126,428.347c0,0.144-51.673,0.26-115.399,0.26c-63.749,0-115.41-0.117-115.41-0.26
					c0-0.144,51.661-0.26,115.41-0.26C316.453,428.086,368.126,428.203,368.126,428.347z"/>
			</g>
		</g>
		<g>
			<path style="fill:#FFFFFF;" d="M365.669,220.473l17.72,4.889l-13.094,3.202c-6.681,1.069-9.671,3.941-10.889,7.664l-4.085,32.969
				l-5.024-33.007c-1.247-3.108-3.759-5.538-6.907-6.681l-16.992-4.147l17.941-5.083c2.993-1.23,5.349-3.638,6.511-6.658
				l4.47-37.338l3.206,36.523C359.576,216.339,362.219,219.176,365.669,220.473z"/>
		</g>
		<g>
			<path style="fill:#FFFFFF;" d="M374.8,265.815l4.125,1.138l-3.048,0.745c-1.555,0.249-2.251,0.917-2.535,1.784l-0.951,7.675
				l-1.169-7.683c-0.29-0.724-0.875-1.289-1.608-1.555l-3.955-0.965l4.176-1.183c0.697-0.286,1.245-0.847,1.516-1.55l1.041-8.692
				l0.746,8.502C373.382,264.852,373.997,265.513,374.8,265.815z"/>
		</g>
	</g>
	<g>
		<g>
			<g>
				<g>
					<g>
						<path style="fill:#FFBE9D;" d="M313.594,181.177c0,0-3.582-4.869-5.347-5.793c-1.765-0.923-4.193-0.895-5.26,0.062
							c-1.068,0.957-1.068,0.957-1.068,0.957s-5.561-2.497-8.236-0.577c0,0-5.291-2.501-7.82,0.362c0,0-4.078-2.65-5.805-0.336
							c-1.726,2.314-1.545,6.224-0.712,8.237c0.833,2.014,2.398,8.875,3.614,8.996c0,0,3.251,0.347,3.685-1.411
							c0.434-1.758,0.618-2.604,0.618-2.604s1.242,6.218,2.739,6.525c1.497,0.307,4.352,0.143,4.45-2.585
							c0,0,1.388,2.061,2.744,1.461c1.356-0.6,3.033-1.594,2.883-3.28c-0.15-1.686-0.17-3.374-0.17-3.374s0.743,2.458,1.971,1.924
							c1.227-0.534,2.462-0.419,3.152-2.505c0.689-2.086,2.4-6.06,2.4-6.06H313.594z"/>
					</g>
				</g>
			</g>
			<g>
				<g>
					<g>
						<g>
							<path style="fill:#EB996E;" d="M300.01,187.682c0.077-0.041-0.246-0.674-0.531-1.758c-0.289-1.076-0.488-2.639-0.179-4.307
								c0.309-1.669,1.056-3.056,1.711-3.958c0.655-0.91,1.183-1.386,1.126-1.451c-0.037-0.049-0.663,0.328-1.426,1.216
								c-0.76,0.876-1.613,2.319-1.941,4.094c-0.329,1.775-0.051,3.427,0.345,4.517C299.509,187.138,299.958,187.715,300.01,187.682
								z"/>
						</g>
					</g>
				</g>
			</g>
			<g>
				<g>
					<g>
						<g>
							<path style="fill:#EB996E;" d="M293.338,175.863c-0.06-0.017-0.405,0.899-0.712,2.449c-0.309,1.546-0.53,3.736-0.371,6.148
								c0.165,2.412,0.678,4.553,1.191,6.044c0.512,1.494,0.976,2.356,1.034,2.331c0.171-0.055-1.391-3.659-1.686-8.411
								C292.449,179.676,293.515,175.894,293.338,175.863z"/>
						</g>
					</g>
				</g>
			</g>
			<g>
				<g>
					<g>
						<g>
							<path style="fill:#EB996E;" d="M285.733,176.27c-0.134-0.018-0.505,2.943-0.079,6.577c0.408,3.637,1.44,6.436,1.567,6.389
								c0.156-0.046-0.63-2.873-1.031-6.45C285.77,179.211,285.896,176.279,285.733,176.27z"/>
						</g>
					</g>
				</g>
			</g>
		</g>
		<g>
			<g>
				<g>
					<path style="fill:#FFBE9D;" d="M263.852,177.667c0.227-0.579,0.802-0.959,1.399-1.133c1.392-0.405,2.921,0.15,4.033,1.08
						c1.112,0.929,2.191,2.393,2.947,3.63l-7.882-0.05C264.426,179.989,263.41,178.79,263.852,177.667z"/>
				</g>
			</g>
		</g>
	</g>
	<g>
		<g>
			<g>
				<path style="fill:#FFBE9D;" d="M106.918,248.707c5.801,1.08,13.135,1.507,13.135,1.507l10.315,6.979l6.541,8.597
					c-0.918,1.876-5.225,1.084-5.225,1.084l-6.178-5.472l-4.661-1.055l1.979,3.414l9.495,6.521l2.282,1.925
					c0,0,6.079,3.446,8.225,4.992c2.349,1.692,3.228,3.106,2.509,4.065c-0.853,1.137-3.086,0.969-4.389,0.4l-11.571-4.513
					c0,0-5.001,2.379-7.576,2.193c-2.703-0.195-6.988-1.029-6.988-1.029l-2.954,1.779c-0.189,0.264-0.582,0.443-1.065,0.563
					c-1.968,0.491-4.051-0.098-5.604-1.403l-7.09-5.96c-1.558-1.31-4.322-5.231-6.739-8.894c-2.981-4.519-3.71-10.16-1.95-15.28l0,0
					c1.474-3.979,4.623-7.108,8.612-8.557l18.738-25.42l-0.123,34.813"/>
			</g>
		</g>
		<g>
			<g>
				<g>
					<g>
						<path style="fill:#EB996E;" d="M118.41,272.683c-0.082,0.117,2.131,1.699,5.224,2.951c3.088,1.266,5.776,1.679,5.799,1.538
							c0.037-0.163-2.555-0.813-5.588-2.057C120.806,273.887,118.497,272.541,118.41,272.683z"/>
					</g>
				</g>
			</g>
		</g>
		<g>
			<g>
				<g>
					<g>
						<path style="fill:#EB996E;" d="M111.53,277.007c-0.088,0.167,1.278,0.855,3.046,1.306c1.765,0.472,3.23,0.676,3.265,0.53
							c0.037-0.155-1.371-0.603-3.119-1.071C112.965,277.322,111.591,276.9,111.53,277.007z"/>
					</g>
				</g>
			</g>
		</g>
		<g>
			<g>
				<g>
					<g>
						<path style="fill:#EB996E;" d="M137.151,273.625c0.041-0.072-1.067-0.77-2.816-1.958c-1.752-1.183-4.143-2.86-6.724-4.795
							c-1.292-0.966-2.509-1.906-3.605-2.77c-1.094-0.857-2.002-1.709-2.561-2.574c-1.16-1.758-0.833-3.182-0.927-3.161
							c-0.029-0.008-0.157,0.312-0.155,0.924c0.003,0.606,0.187,1.503,0.746,2.447c0.552,0.95,1.483,1.877,2.572,2.766
							c1.086,0.893,2.297,1.847,3.595,2.818c2.592,1.943,5.031,3.577,6.846,4.68C135.933,273.108,137.116,273.687,137.151,273.625z"
							/>
					</g>
				</g>
			</g>
		</g>
		<g>
			<g>
				<g>
					<g>
						<path style="fill:#EB996E;" d="M121.671,260.376c-0.015,0.091,0.838,0.23,2.107,0.737c1.263,0.499,2.94,1.441,4.347,2.962
							c0.69,0.751,1.315,1.615,2.094,2.177c0.771,0.611,1.665,0.83,2.366,0.893c1.428,0.109,2.276-0.136,2.268-0.19
							c-0.004-0.099-0.877,0-2.215-0.203c-0.663-0.112-1.434-0.344-2.098-0.905c-0.707-0.542-1.266-1.346-2.004-2.154
							c-1.483-1.603-3.282-2.536-4.623-2.954C122.562,260.313,121.676,260.315,121.671,260.376z"/>
					</g>
				</g>
			</g>
		</g>
		<g>
			<g>
				<g>
					<g>
						<path style="fill:#EB996E;" d="M118.979,250.156c-0.007-0.165-4.659-0.441-10.251-1.38c-5.59-0.898-9.982-2.111-10.06-1.886
							c-0.077,0.009,0.975,0.408,2.737,0.888c1.766,0.486,4.282,1.071,7.134,1.539C114.261,250.276,119.009,250.303,118.979,250.156
							z"/>
					</g>
				</g>
			</g>
		</g>
	</g>
</g>
</svg>
