<?xml version="1.0" encoding="utf-8"?>
<!-- Generator: Adobe Illustrator 27.5.0, SVG Export Plug-In . SVG Version: 6.00 Build 0)  -->
<svg version="1.1" xmlns="http://www.w3.org/2000/svg" xmlns:xlink="http://www.w3.org/1999/xlink" x="0px" y="0px"
	 viewBox="0 0 500 500" style="enable-background:new 0 0 500 500;" xml:space="preserve">
<g id="Background_Complete">
	<g>
		<g>
			<path style="fill:#E0E0E0;" d="M387.558,79.945l11.838,16.926c1.297,1.854,4.058,1.808,5.292-0.088l11.458-17.604L387.558,79.945
				z"/>
		</g>
		<g>
			<path style="fill:#E0E0E0;" d="M415.324,89.31h-28.72c-6.386,0-11.564-5.177-11.564-11.563V63.168
				c0-6.386,5.177-11.564,11.564-11.564h28.72c6.386,0,11.564,5.177,11.564,11.564v14.578
				C426.887,84.133,421.71,89.31,415.324,89.31z"/>
		</g>
		<g>
			<path style="fill:#FFFFFF;" d="M411.116,66.992c-1.662-3.037-4.418-3.509-6.27-2.817c-2.014,0.752-3.059,2.817-3.059,2.817
				s-1.045-2.065-3.059-2.817c-1.853-0.692-4.608-0.22-6.27,2.817c-3.469,6.339,9.329,14.592,9.329,14.592
				S414.585,73.331,411.116,66.992z"/>
		</g>
	</g>
	<g>
		<path style="fill:#E0E0E0;" d="M77.904,68.644l10.81,15.457c1.184,1.693,3.705,1.651,4.833-0.08l10.463-16.075L77.904,68.644z"/>
	</g>
	<g>
		<path style="fill:#E0E0E0;" d="M102.255,77.197H78.035c-6.386,0-11.564-5.177-11.564-11.564V54.328
			c0-6.386,5.177-11.564,11.564-11.564h24.219c6.386,0,11.564,5.177,11.564,11.564v11.305
			C113.818,72.019,108.641,77.197,102.255,77.197z"/>
	</g>
	<g>
		<path style="fill:#FFFFFF;" d="M99.416,56.816c-1.518-2.774-4.034-3.205-5.726-2.573c-1.839,0.687-2.793,2.573-2.793,2.573
			s-0.955-1.886-2.793-2.573c-1.692-0.632-4.208-0.201-5.726,2.573c-3.167,5.789,8.519,13.325,8.519,13.325
			S102.584,62.604,99.416,56.816z"/>
	</g>
	<g>
		<g>
			<path style="fill:#E0E0E0;" d="M48.888,342.601l10.81,15.457c1.184,1.693,3.705,1.651,4.833-0.081l10.463-16.075L48.888,342.601z
				"/>
		</g>
		<g>
			<path style="fill:#E0E0E0;" d="M73.239,351.154H49.02c-6.386,0-11.564-5.177-11.564-11.564v-11.305
				c0-6.386,5.177-11.564,11.564-11.564h24.219c6.386,0,11.564,5.177,11.564,11.564v11.305
				C84.803,345.976,79.626,351.154,73.239,351.154z"/>
		</g>
		<g>
			<path style="fill:#FFFFFF;" d="M70.401,330.773c-1.518-2.774-4.034-3.205-5.726-2.573c-1.839,0.687-2.793,2.573-2.793,2.573
				s-0.955-1.886-2.793-2.573c-1.692-0.632-4.208-0.201-5.726,2.573c-3.167,5.789,8.519,13.325,8.519,13.325
				S73.568,336.561,70.401,330.773z"/>
		</g>
	</g>
	<g>
		<g>
			<path style="fill:#E0E0E0;" d="M45.344,219.702l12.631,18.06c1.384,1.979,4.33,1.93,5.647-0.094l12.226-18.783L45.344,219.702z"
				/>
		</g>
		<g>
			<path style="fill:#E0E0E0;" d="M75.745,229.695H43.55c-6.386,0-11.564-5.177-11.564-11.564v-17.105
				c0-6.386,5.177-11.564,11.564-11.564h32.195c6.386,0,11.564,5.177,11.564,11.564v17.105
				C87.309,224.518,82.132,229.695,75.745,229.695z"/>
		</g>
		<g>
			<path style="fill:#FFFFFF;" d="M70.481,205.881c-1.773-3.241-4.714-3.745-6.69-3.006c-2.149,0.803-3.264,3.006-3.264,3.006
				s-1.115-2.203-3.264-3.006c-1.977-0.739-4.917-0.235-6.69,3.006c-3.701,6.764,9.954,15.57,9.954,15.57
				S74.182,212.645,70.481,205.881z"/>
		</g>
	</g>
	<g>
		<g>
			<path style="fill:#E0E0E0;" d="M403.965,284.068l12.631,18.06c1.384,1.978,4.33,1.929,5.647-0.094l12.226-18.783L403.965,284.068
				z"/>
		</g>
		<g>
			<path style="fill:#E0E0E0;" d="M434.366,294.061h-32.195c-6.386,0-11.564-5.177-11.564-11.564v-17.105
				c0-6.386,5.177-11.564,11.564-11.564h32.195c6.386,0,11.563,5.177,11.563,11.564v17.105
				C445.929,288.884,440.752,294.061,434.366,294.061z"/>
		</g>
		<g>
			<path style="fill:#FFFFFF;" d="M429.101,270.247c-1.773-3.241-4.714-3.745-6.69-3.006c-2.149,0.803-3.264,3.006-3.264,3.006
				s-1.115-2.203-3.264-3.006c-1.977-0.738-4.917-0.235-6.69,3.006c-3.701,6.764,9.954,15.569,9.954,15.569
				S432.802,277.011,429.101,270.247z"/>
		</g>
	</g>
	<g>
		<g>
			<g>
				<g>
					<g>
						<g>
							<g>
								<g>
									<g>
										<path style="fill:#E0E0E0;" d="M438.933,158.924l2.726,0.637l7.886-6.903l1.271-5.442c0,0,4.275,0.725,2.115,7.735
											c-2.16,7.011-1.2,5.321-1.2,5.321s8.94,2.124,9.502,3.074c0.409,0.691-1.422,9.637-2.454,14.48
											c-0.52,2.438-2.535,4.347-4.926,4.394c-0.34,0.007-0.675-0.021-0.993-0.095c-2.232-0.521-13.212-4.998-13.212-4.998
											l-4.71-1.1L438.933,158.924z"/>
									</g>
								</g>
							</g>
						</g>
					</g>
				</g>
				<g>
					<g>
						<g>
							<g>
								<g>
									<g>
										<polygon style="fill:#E0E0E0;" points="431.477,155.608 428.8,174.648 433.47,175.738 437.736,157.465 										"/>
									</g>
								</g>
							</g>
						</g>
					</g>
				</g>
			</g>
		</g>
	</g>
	<g>
		<g>
			<g>
				<g>
					<g>
						<g>
							<g>
								<g>
									<g>
										<path style="fill:#E0E0E0;" d="M52.756,125.845l-2.778,0.35l-7.126-7.685l-0.698-5.545c0,0-4.327,0.276-2.908,7.474
											c1.42,7.197,0.64,5.417,0.64,5.417s-9.113,1.183-9.77,2.07c-0.479,0.645,0.412,9.732,0.935,14.656
											c0.264,2.479,2.069,4.587,4.442,4.882c0.337,0.042,0.674,0.049,0.998,0.008c2.274-0.286,13.66-3.598,13.66-3.598
											l4.798-0.604L52.756,125.845z"/>
									</g>
								</g>
							</g>
						</g>
					</g>
				</g>
				<g>
					<g>
						<g>
							<g>
								<g>
									<g>
										<polygon style="fill:#E0E0E0;" points="60.517,123.322 61.2,142.536 56.443,143.135 54.099,124.518 										"/>
									</g>
								</g>
							</g>
						</g>
					</g>
				</g>
			</g>
		</g>
	</g>
	<g>
		<g>
			<g>
				<g>
					<g>
						<g>
							<g>
								<g>
									<g>
										<path style="fill:#E0E0E0;" d="M434.379,361.034l2.622-0.982l2.737-10.117l-1.959-5.234c0,0,3.96-1.766,6.048,5.266
											c2.088,7.033,1.951,5.094,1.951,5.094s8.618-3.188,9.613-2.708c0.724,0.348,4.159,8.809,5.984,13.411
											c0.919,2.317,0.3,5.023-1.664,6.387c-0.279,0.194-0.573,0.357-0.88,0.471c-2.146,0.803-13.766,3.164-13.766,3.164
											l-4.529,1.695L434.379,361.034z"/>
									</g>
								</g>
							</g>
						</g>
					</g>
				</g>
				<g>
					<g>
						<g>
							<g>
								<g>
									<g>
										<polygon style="fill:#E0E0E0;" points="426.335,362.407 434.661,379.737 439.152,378.056 432.573,360.483 										"/>
									</g>
								</g>
							</g>
						</g>
					</g>
				</g>
			</g>
		</g>
	</g>
	<g>
		<g>
			<path style="fill:#E0E0E0;" d="M75.036,286.516h21.869c0,0-2.112-8.384-11.064-8.384
				C76.455,278.131,75.036,286.516,75.036,286.516z"/>
		</g>
		<g>
			<circle style="fill:#E0E0E0;" cx="85.95" cy="271.037" r="6.003"/>
		</g>
	</g>
</g>
<g id="Background_Simple" style="display:none;">
	<g style="display:inline;">
		<path style="fill:#F5F5F5;" d="M435.384,104.698l-2.434-4.01c-20.516-33.808-57.609-54.188-96.717-51.715
			c-5.027,0.318-10.033,0.999-14.971,2.056c-35.557,7.611-66.496,34.5-79.321,68.937c-7.542,20.253-9.649,43.571-23.962,59.647
			c-18.627,20.922-50.251,21.579-78.055,20.712c-27.804-0.867-59.449-0.128-77.985,20.877
			c-11.609,13.154-15.299,31.861-14.362,49.478c2.478,46.641,34.979,88.345,76.311,109.074
			c41.332,20.729,89.996,22.586,135.232,13.467c63.37-12.774,123.634-47.855,159.857-102.038
			C455.199,236.998,464.367,163.179,435.384,104.698z"/>
	</g>
	<g style="display:inline;">
		<circle style="fill:#F5F5F5;" cx="397.494" cy="385.343" r="22.425"/>
	</g>
	<g style="display:inline;">
		<circle style="fill:#F5F5F5;" cx="75.576" cy="89.229" r="35.039"/>
	</g>
</g>
<g id="Floor">
	<g>
		<g>
			<path style="fill:#263238;" d="M458.951,476.073c0,0.144-93.558,0.26-208.941,0.26c-115.423,0-208.961-0.117-208.961-0.26
				s93.538-0.26,208.961-0.26C365.393,475.813,458.951,475.929,458.951,476.073z"/>
		</g>
	</g>
</g>
<g id="Stars">
	<g>
		<g>
			<g>
				<g>
					<g>
						<g>
							<g>
								<path style="fill:#FF725E;" d="M124.489,197.902l0.651,1.19c0.731,1.336,1.829,2.435,3.166,3.166l1.19,0.651l-1.19,0.651
									c-1.336,0.731-2.435,1.829-3.166,3.166l-0.651,1.19l-0.651-1.19c-0.731-1.336-1.829-2.435-3.166-3.166l-1.19-0.651
									l1.19-0.651c1.336-0.731,2.435-1.829,3.165-3.166L124.489,197.902z"/>
							</g>
						</g>
					</g>
				</g>
			</g>
		</g>
	</g>
	<g>
		<g>
			<g>
				<g>
					<g>
						<g>
							<g>
								<path style="fill:#FF725E;" d="M152.218,74.919l1.247,2.28c1.4,2.56,3.504,4.664,6.064,6.064l2.281,1.247l-2.28,1.247
									c-2.56,1.4-4.665,3.505-6.065,6.064l-1.247,2.28l-1.247-2.28c-1.4-2.56-3.504-4.664-6.064-6.064l-2.281-1.247l2.281-1.248
									c2.56-1.4,4.664-3.504,6.064-6.064L152.218,74.919z"/>
							</g>
						</g>
					</g>
				</g>
			</g>
		</g>
	</g>
	<g>
		<g>
			<g>
				<g>
					<g>
						<g>
							<g>
								<path style="fill:#FF725E;" d="M403.965,224.877l0.543,0.992c0.609,1.114,1.525,2.03,2.639,2.639l0.992,0.543l-0.992,0.543
									c-1.114,0.609-2.03,1.525-2.639,2.639l-0.543,0.992l-0.543-0.992c-0.609-1.114-1.525-2.03-2.639-2.639l-0.992-0.543
									l0.992-0.543c1.114-0.609,2.03-1.525,2.639-2.639L403.965,224.877z"/>
							</g>
						</g>
					</g>
				</g>
			</g>
		</g>
	</g>
	<g>
		<g>
			<g>
				<g>
					<g>
						<g>
							<g>
								<path style="fill:#FF725E;" d="M101.507,237.748l0.543,0.992c0.609,1.114,1.525,2.03,2.639,2.639l0.993,0.543l-0.992,0.543
									c-1.114,0.609-2.03,1.525-2.639,2.639l-0.543,0.992l-0.543-0.993c-0.609-1.114-1.525-2.03-2.639-2.639l-0.993-0.543
									l0.993-0.543c1.114-0.609,2.03-1.525,2.639-2.639L101.507,237.748z"/>
							</g>
						</g>
					</g>
				</g>
			</g>
		</g>
	</g>
	<g>
		<g>
			<g>
				<g>
					<g>
						<g>
							<g>
								<path style="fill:#FF725E;" d="M426.802,201.276l0.271,0.496c0.305,0.557,0.762,1.015,1.319,1.32l0.496,0.271l-0.496,0.271
									c-0.557,0.305-1.015,0.763-1.32,1.32l-0.271,0.496l-0.271-0.496c-0.305-0.557-0.763-1.015-1.32-1.32l-0.496-0.271
									l0.496-0.271c0.557-0.305,1.015-0.762,1.319-1.32L426.802,201.276z"/>
							</g>
						</g>
					</g>
				</g>
			</g>
		</g>
	</g>
	<g>
		<g>
			<g>
				<g>
					<g>
						<g>
							<g>
								<path style="fill:#FF725E;" d="M377.274,183.881l0.543,0.992c0.609,1.114,1.525,2.03,2.639,2.639l0.992,0.543l-0.992,0.543
									c-1.114,0.609-2.03,1.525-2.639,2.639l-0.543,0.992l-0.543-0.992c-0.609-1.114-1.525-2.03-2.639-2.639l-0.992-0.543
									l0.992-0.543c1.114-0.609,2.03-1.525,2.639-2.639L377.274,183.881z"/>
							</g>
						</g>
					</g>
				</g>
			</g>
		</g>
	</g>
	<g>
		<g>
			<g>
				<g>
					<g>
						<g>
							<g>
								<path style="fill:#FF725E;" d="M356.518,57.89l0.543,0.992c0.609,1.114,1.525,2.03,2.639,2.639l0.992,0.543l-0.992,0.543
									c-1.114,0.609-2.03,1.525-2.639,2.639l-0.543,0.992l-0.543-0.992c-0.609-1.114-1.525-2.03-2.639-2.639l-0.992-0.543
									l0.992-0.543c1.114-0.609,2.03-1.525,2.639-2.639L356.518,57.89z"/>
							</g>
						</g>
					</g>
				</g>
			</g>
		</g>
	</g>
	<g>
		<g>
			<g>
				<g>
					<g>
						<g>
							<g>
								<path style="fill:#FF725E;" d="M127.966,63.771l0.543,0.992c0.609,1.114,1.525,2.03,2.639,2.639l0.993,0.543l-0.992,0.543
									c-1.114,0.609-2.03,1.525-2.639,2.639l-0.543,0.992l-0.543-0.993c-0.609-1.114-1.525-2.03-2.639-2.639l-0.993-0.543
									l0.993-0.543c1.114-0.609,2.03-1.525,2.639-2.639L127.966,63.771z"/>
							</g>
						</g>
					</g>
				</g>
			</g>
		</g>
	</g>
	<g>
		<g>
			<g>
				<g>
					<g>
						<g>
							<g>
								<path style="fill:#FF725E;" d="M135.871,266.676l1.051,1.922c1.18,2.157,2.954,3.932,5.111,5.111l1.922,1.051l-1.922,1.051
									c-2.158,1.18-3.932,2.954-5.112,5.112l-1.051,1.922l-1.051-1.922c-1.18-2.157-2.954-3.931-5.111-5.111l-1.922-1.051
									l1.922-1.052c2.158-1.18,3.931-2.954,5.111-5.111L135.871,266.676z"/>
							</g>
						</g>
					</g>
				</g>
			</g>
		</g>
	</g>
</g>
<g id="Plants">
	<g>
		<g>
			<g>
				<g>
					<g>
						<g>
							<path style="fill:#455A64;" d="M147.814,442.828c-1.3,5.307-0.872,11.022,1.204,16.075c3.724-3.6,7.808-9.473,8.837-14.549
								c1.029-5.076,0.623-10.196-1.404-14.962C152.275,432.915,149.114,437.521,147.814,442.828z"/>
						</g>
					</g>
				</g>
				<g>
					<g>
						<g>
							<g>
								<path style="fill:#263238;" d="M150.615,450.965c-0.02-0.002-0.004-0.316,0.043-0.883c0.044-0.567,0.135-1.385,0.273-2.393
									c0.274-2.015,0.782-4.785,1.591-7.784c0.813-2.999,1.772-5.647,2.551-7.525c0.389-0.94,0.722-1.692,0.971-2.204
									c0.245-0.513,0.39-0.792,0.408-0.784c0.019,0.008-0.09,0.304-0.303,0.83c-0.215,0.525-0.519,1.288-0.882,2.235
									c-0.727,1.893-1.65,4.54-2.46,7.526c-0.806,2.986-1.344,5.737-1.67,7.738c-0.164,1-0.287,1.813-0.366,2.374
									C150.69,450.657,150.635,450.967,150.615,450.965z"/>
							</g>
						</g>
					</g>
				</g>
			</g>
			<g>
				<g>
					<g>
						<g>
							<path style="fill:#455A64;" d="M124.812,448.953c-1.3,5.307-0.871,11.022,1.205,16.075c3.724-3.6,7.808-9.473,8.838-14.549
								c1.029-5.076,0.483-10.46-1.545-15.225C129.133,438.776,126.111,443.647,124.812,448.953z"/>
						</g>
					</g>
				</g>
				<g>
					<g>
						<g>
							<g>
								<path style="fill:#263238;" d="M127.612,457.091c-0.02-0.002-0.004-0.316,0.043-0.883c0.044-0.567,0.135-1.385,0.273-2.393
									c0.274-2.015,0.782-4.785,1.591-7.784c0.813-2.999,1.772-5.647,2.551-7.525c0.389-0.94,0.722-1.692,0.97-2.204
									c0.245-0.513,0.39-0.792,0.409-0.784c0.018,0.008-0.09,0.304-0.303,0.83c-0.215,0.525-0.519,1.288-0.882,2.235
									c-0.727,1.893-1.65,4.54-2.46,7.526c-0.806,2.986-1.344,5.737-1.67,7.738c-0.164,1-0.287,1.812-0.366,2.374
									C127.687,456.783,127.632,457.093,127.612,457.091z"/>
							</g>
						</g>
					</g>
				</g>
			</g>
			<g>
				<g>
					<g>
						<g>
							<path style="fill:#455A64;" d="M110.167,434.108c-4.445-3.176-7.847-7.789-9.567-12.974c5.17,0.302,12.097,2.092,16.186,5.27
								c4.09,3.178,7.185,7.616,8.755,12.552C120.078,439.008,114.612,437.284,110.167,434.108z"/>
						</g>
					</g>
				</g>
				<g>
					<g>
						<g>
							<g>
								<path style="fill:#263238;" d="M106.986,426.112c-0.014,0.015,0.203,0.242,0.608,0.642c0.403,0.401,1.006,0.962,1.767,1.636
									c1.521,1.349,3.713,3.118,6.281,4.865c2.572,1.743,5.025,3.127,6.841,4.043c0.908,0.459,1.651,0.812,2.173,1.038
									c0.521,0.229,0.812,0.347,0.821,0.328c0.009-0.018-0.267-0.171-0.771-0.432c-0.506-0.258-1.233-0.639-2.125-1.12
									c-1.785-0.961-4.211-2.366-6.772-4.102c-2.558-1.739-4.759-3.474-6.311-4.779c-0.777-0.652-1.399-1.187-1.825-1.562
									C107.243,426.297,107,426.097,106.986,426.112z"/>
							</g>
						</g>
					</g>
				</g>
			</g>
			<g>
				<g>
					<g>
						<g>
							<path style="fill:#455A64;" d="M132.247,426.455c-4.445-3.176-7.847-7.789-9.567-12.974c5.17,0.302,12.097,2.092,16.186,5.27
								c4.09,3.178,7.186,7.616,8.755,12.552C142.159,431.355,136.692,429.632,132.247,426.455z"/>
						</g>
					</g>
				</g>
				<g>
					<g>
						<g>
							<g>
								<path style="fill:#263238;" d="M129.066,418.459c-0.014,0.015,0.203,0.242,0.608,0.642c0.403,0.401,1.005,0.962,1.767,1.636
									c1.521,1.349,3.713,3.118,6.281,4.865c2.572,1.743,5.025,3.127,6.841,4.043c0.908,0.459,1.651,0.812,2.173,1.038
									c0.521,0.229,0.812,0.347,0.821,0.328c0.008-0.019-0.267-0.171-0.771-0.432c-0.505-0.258-1.233-0.638-2.125-1.12
									c-1.785-0.961-4.211-2.366-6.772-4.102c-2.558-1.739-4.759-3.474-6.311-4.779c-0.777-0.652-1.399-1.187-1.825-1.562
									C129.323,418.644,129.08,418.444,129.066,418.459z"/>
							</g>
						</g>
					</g>
				</g>
			</g>
			<g>
				<g>
					<g>
						<g>
							<path style="fill:#263238;" d="M172.764,429.258c-0.001,0.013-0.232,0.016-0.67,0.007c-0.473-0.014-1.111-0.033-1.915-0.057
								c-0.419-0.015-0.88-0.032-1.382-0.051c-0.506-0.009-1.055,0.005-1.645,0.006c-1.18,0.017-2.525-0.018-4.008,0.085
								c-0.743,0.037-1.52,0.075-2.328,0.115c-0.809,0.044-1.647,0.147-2.517,0.221c-1.742,0.128-3.587,0.415-5.531,0.682
								c-3.874,0.631-8.101,1.534-12.446,2.821c-4.336,1.323-8.361,2.899-11.941,4.509c-1.77,0.849-3.467,1.627-4.991,2.481
								c-0.767,0.418-1.523,0.793-2.222,1.203c-0.697,0.413-1.366,0.809-2.006,1.188c-1.294,0.732-2.396,1.502-3.39,2.139
								c-0.493,0.325-0.959,0.616-1.376,0.902c-0.409,0.292-0.784,0.561-1.125,0.804c-0.657,0.463-1.179,0.831-1.565,1.103
								c-0.361,0.249-0.554,0.374-0.563,0.363c-0.008-0.011,0.169-0.158,0.514-0.427c0.376-0.287,0.884-0.675,1.523-1.164
								c0.335-0.253,0.705-0.531,1.107-0.834c0.411-0.296,0.872-0.597,1.36-0.931c0.985-0.656,2.08-1.445,3.368-2.194
								c0.638-0.387,1.305-0.792,2-1.214c0.698-0.418,1.453-0.802,2.219-1.227c1.523-0.869,3.221-1.662,4.994-2.523
								c3.586-1.635,7.626-3.229,11.98-4.557c4.364-1.292,8.612-2.189,12.504-2.802c1.954-0.258,3.807-0.533,5.557-0.648
								c0.874-0.068,1.715-0.164,2.528-0.199c0.812-0.031,1.592-0.061,2.337-0.09c1.488-0.085,2.837-0.031,4.02-0.027
								c0.592,0.01,1.142,0.007,1.649,0.027c0.503,0.031,0.965,0.06,1.384,0.085c0.803,0.055,1.441,0.099,1.913,0.132
								C172.536,429.219,172.765,429.244,172.764,429.258z"/>
						</g>
					</g>
				</g>
			</g>
			<g>
				<g>
					<g>
						<g>
							<path style="fill:#455A64;" d="M102.103,448.396c-4.358,3.295-7.634,7.998-9.214,13.227
								c5.16-0.441,12.036-2.417,16.038-5.704c4.003-3.287,6.978-7.807,8.414-12.783
								C111.879,443.231,106.461,445.101,102.103,448.396z"/>
						</g>
					</g>
				</g>
				<g>
					<g>
						<g>
							<g>
								<path style="fill:#263238;" d="M99.138,456.475c-0.014-0.014,0.196-0.248,0.59-0.658c0.392-0.412,0.979-0.989,1.722-1.683
									c1.485-1.39,3.627-3.217,6.148-5.032c2.524-1.812,4.939-3.261,6.729-4.226c0.895-0.483,1.628-0.856,2.144-1.097
									c0.514-0.243,0.802-0.368,0.812-0.35c0.009,0.018-0.262,0.179-0.759,0.452c-0.498,0.271-1.215,0.672-2.094,1.177
									c-1.759,1.009-4.146,2.479-6.659,4.283c-2.51,1.807-4.664,3.601-6.18,4.947c-0.759,0.672-1.367,1.225-1.783,1.611
									C99.391,456.283,99.153,456.489,99.138,456.475z"/>
							</g>
						</g>
					</g>
				</g>
			</g>
		</g>
		<g>
			<g>
				<g>
					<g>
						<path style="fill:#455A64;" d="M121.879,373.072c-6.164-1.047-12.652-0.088-18.249,2.698
							c4.415,3.954,11.455,8.133,17.333,8.89c5.878,0.757,11.978-0.309,17.251-3.016
							C133.851,377.167,128.043,374.119,121.879,373.072z"/>
					</g>
				</g>
			</g>
			<g>
				<g>
					<g>
						<g>
							<path style="fill:#263238;" d="M112.822,376.938c0.001-0.023,0.36-0.031,1.011-0.024c0.651,0.003,1.592,0.04,2.753,0.115
								c2.322,0.147,5.526,0.499,9.015,1.176c3.49,0.682,6.592,1.558,8.799,2.293c1.104,0.366,1.991,0.685,2.595,0.926
								c0.606,0.238,0.936,0.38,0.928,0.402c-0.008,0.022-0.354-0.078-0.972-0.278c-0.617-0.203-1.513-0.486-2.623-0.822
								c-2.22-0.674-5.317-1.51-8.792-2.189c-3.474-0.674-6.659-1.062-8.97-1.269c-1.155-0.105-2.092-0.178-2.74-0.222
								C113.179,376.999,112.821,376.962,112.822,376.938z"/>
						</g>
					</g>
				</g>
			</g>
		</g>
		<g>
			<g>
				<g>
					<g>
						<path style="fill:#455A64;" d="M137.416,399.71c-5.436,0.543-10.682,2.851-14.755,6.492
							c4.635,2.311,11.533,4.206,16.662,3.485c5.129-0.721,10.023-3.03,13.841-6.529
							C148.451,400.393,142.852,399.167,137.416,399.71z"/>
					</g>
				</g>
			</g>
			<g>
				<g>
					<g>
						<g>
							<path style="fill:#263238;" d="M130.677,405.061c-0.005-0.02,0.297-0.109,0.847-0.254c0.549-0.148,1.351-0.334,2.347-0.54
								c1.991-0.413,4.772-0.857,7.869-1.093c3.098-0.232,5.915-0.211,7.945-0.102c1.016,0.053,1.836,0.117,2.401,0.181
								c0.566,0.061,0.877,0.104,0.875,0.124c-0.002,0.02-0.317,0.016-0.884-0.009c-0.567-0.028-1.387-0.06-2.401-0.086
								c-2.027-0.055-4.83-0.043-7.915,0.188c-3.084,0.235-5.857,0.645-7.852,1.004c-0.998,0.179-1.804,0.333-2.361,0.447
								C130.992,405.03,130.681,405.081,130.677,405.061z"/>
						</g>
					</g>
				</g>
			</g>
		</g>
		<g>
			<g>
				<g>
					<g>
						<path style="fill:#455A64;" d="M142.896,378.119c0.721-5.416,3.201-10.583,6.974-14.534
							c2.158,4.708,3.824,11.666,2.934,16.768s-3.358,9.918-6.981,13.618C143.216,389.171,142.175,383.534,142.896,378.119z"/>
					</g>
				</g>
			</g>
			<g>
				<g>
					<g>
						<g>
							<path style="fill:#263238;" d="M148.467,371.56c-0.02-0.005-0.119,0.293-0.282,0.838c-0.166,0.544-0.378,1.339-0.617,2.328
								c-0.478,1.977-1.014,4.741-1.352,7.829c-0.334,3.089-0.405,5.905-0.363,7.938c0.02,1.017,0.057,1.839,0.102,2.406
								c0.042,0.567,0.075,0.88,0.095,0.879c0.02-0.001,0.027-0.316,0.02-0.883c-0.009-0.567-0.014-1.388-0.007-2.402
								c0.012-2.028,0.116-4.829,0.448-7.905c0.337-3.074,0.837-5.832,1.262-7.815c0.211-0.992,0.393-1.793,0.524-2.345
								C148.425,371.874,148.486,371.565,148.467,371.56z"/>
						</g>
					</g>
				</g>
			</g>
		</g>
		<g>
			<g>
				<g>
					<g>
						<path style="fill:#455A64;" d="M133.822,356.958c2.053-4.928,5.702-9.176,10.264-11.948c0.843,4.99,0.653,11.977-1.479,16.567
							c-2.132,4.589-5.682,8.508-10.038,11.082C131.323,367.468,131.769,361.886,133.822,356.958z"/>
					</g>
				</g>
			</g>
			<g>
				<g>
					<g>
						<g>
							<path style="fill:#263238;" d="M140.741,352.18c-0.017-0.01-0.186,0.246-0.478,0.719c-0.294,0.471-0.696,1.168-1.172,2.04
								c-0.952,1.744-2.158,4.217-3.259,7.046c-1.098,2.831-1.879,5.469-2.354,7.399c-0.239,0.965-0.413,1.75-0.514,2.296
								c-0.104,0.546-0.152,0.849-0.133,0.853c0.02,0.004,0.105-0.291,0.243-0.829c0.135-0.538,0.338-1.314,0.602-2.269
								c0.525-1.91,1.333-4.528,2.426-7.346c1.096-2.816,2.268-5.292,3.171-7.055c0.451-0.882,0.825-1.592,1.089-2.08
								C140.621,352.466,140.758,352.19,140.741,352.18z"/>
						</g>
					</g>
				</g>
			</g>
		</g>
		<g>
			<g>
				<g>
					<g>
						<path style="fill:#263238;" d="M182.23,431.585c-0.004,0.005-0.075-0.041-0.209-0.137c-0.15-0.11-0.345-0.254-0.59-0.434
							c-0.535-0.405-1.288-0.975-2.248-1.702c-0.488-0.373-1.029-0.787-1.619-1.238c-0.577-0.474-1.202-0.988-1.872-1.539
							c-1.336-1.114-2.887-2.348-4.501-3.829c-0.817-0.729-1.673-1.493-2.565-2.289c-0.883-0.805-1.766-1.682-2.699-2.569
							c-1.887-1.754-3.774-3.759-5.792-5.835c-3.945-4.239-8.103-9.072-12.116-14.421c-3.981-5.376-7.426-10.743-10.329-15.756
							c-1.385-2.544-2.757-4.932-3.855-7.264c-0.565-1.158-1.136-2.263-1.637-3.348c-0.482-1.093-0.945-2.143-1.388-3.146
							c-0.919-1.989-1.593-3.854-2.227-5.474c-0.31-0.811-0.6-1.566-0.867-2.264c-0.234-0.705-0.448-1.351-0.642-1.934
							c-0.374-1.145-0.667-2.043-0.875-2.68c-0.091-0.291-0.162-0.522-0.218-0.7c-0.047-0.158-0.068-0.24-0.061-0.242
							c0.007-0.002,0.04,0.076,0.1,0.23c0.065,0.175,0.149,0.401,0.255,0.687c0.225,0.631,0.541,1.52,0.945,2.654
							c0.203,0.579,0.428,1.22,0.674,1.92c0.276,0.693,0.575,1.443,0.896,2.249c0.653,1.609,1.344,3.464,2.277,5.441
							c0.449,0.997,0.919,2.041,1.408,3.128c0.507,1.08,1.084,2.179,1.654,3.331c1.108,2.32,2.488,4.697,3.878,7.23
							c2.913,4.991,6.359,10.338,10.33,15.701c4.003,5.336,8.143,10.164,12.065,14.408c2.007,2.079,3.881,4.088,5.754,5.849
							c0.927,0.89,1.802,1.771,2.679,2.581c0.884,0.801,1.732,1.57,2.543,2.304c1.599,1.492,3.135,2.74,4.456,3.868
							c0.662,0.56,1.28,1.081,1.849,1.563c0.582,0.461,1.114,0.882,1.596,1.264c0.94,0.751,1.677,1.341,2.201,1.76
							c0.236,0.194,0.423,0.347,0.566,0.466C182.171,431.522,182.234,431.579,182.23,431.585z"/>
					</g>
				</g>
			</g>
		</g>
		<g>
			<g>
				<g>
					<g>
						<path style="fill:#FF725E;" d="M132.865,320.458c-1.034-2.115-2.601-4.352-4.941-4.606c-2.167-0.235-4.176,1.438-5.051,3.434
							c-0.875,1.996-0.87,4.252-0.851,6.431c-0.886-4.807-3.658-9.241-7.592-12.142c-1.315-0.97-3.173-1.767-4.501-0.814
							c-0.937,0.672-1.184,1.94-1.317,3.086c-0.527,4.535-0.427,9.142,0.297,13.65c-1.791-1.337-3.673-2.714-5.877-3.085
							c-2.204-0.372-4.811,0.618-5.505,2.742c-0.381,1.166-0.134,2.435,0.16,3.625c1.887,7.628,5.676,14.778,10.929,20.622
							c2.79,3.105,6.165,5.938,10.238,6.854c4.072,0.916,9.325,1.017,11.177-2.724l-0.681,0.951
							C137.336,347.74,138.747,332.484,132.865,320.458z"/>
					</g>
				</g>
			</g>
			<g>
				<g>
					<g>
						<g>
							<path style="fill:#263238;" d="M127.505,359.906c-0.011,0.003-0.053-0.119-0.124-0.353c-0.077-0.268-0.174-0.608-0.294-1.027
								c-0.12-0.448-0.272-0.993-0.477-1.619c-0.201-0.627-0.403-1.348-0.691-2.125c-0.271-0.782-0.569-1.639-0.938-2.539
								c-0.34-0.912-0.769-1.86-1.206-2.862c-0.916-1.986-2.016-4.128-3.324-6.287c-1.324-2.151-2.727-4.107-4.083-5.824
								c-0.698-0.842-1.348-1.654-2.012-2.366c-0.639-0.735-1.272-1.382-1.854-1.972c-0.567-0.604-1.127-1.101-1.601-1.558
								c-0.471-0.46-0.896-0.834-1.247-1.136c-0.325-0.29-0.589-0.525-0.797-0.711c-0.18-0.165-0.271-0.256-0.264-0.265
								c0.007-0.009,0.112,0.066,0.305,0.215c0.218,0.174,0.495,0.394,0.837,0.666c0.364,0.288,0.803,0.65,1.287,1.099
								c0.487,0.445,1.061,0.933,1.64,1.529c0.594,0.582,1.24,1.224,1.891,1.954c0.676,0.708,1.337,1.517,2.045,2.359
								c1.376,1.716,2.795,3.679,4.126,5.842c1.316,2.171,2.414,4.33,3.32,6.332c0.432,1.011,0.854,1.967,1.185,2.888
								c0.36,0.909,0.647,1.773,0.905,2.563c0.275,0.784,0.463,1.513,0.648,2.147c0.189,0.632,0.324,1.185,0.426,1.638
								c0.096,0.426,0.175,0.771,0.236,1.043C127.494,359.777,127.516,359.904,127.505,359.906z"/>
						</g>
					</g>
				</g>
			</g>
			<g>
				<g>
					<g>
						<g>
							<path style="fill:#263238;" d="M121.283,344.473c-0.022,0.001-0.051-0.274-0.085-0.772c-0.035-0.498-0.067-1.219-0.095-2.111
								c-0.054-1.784-0.068-4.251,0.036-6.973c0.105-2.723,0.307-5.182,0.497-6.956c0.095-0.887,0.183-1.604,0.255-2.098
								c0.071-0.494,0.121-0.766,0.143-0.763c0.022,0.003,0.014,0.279-0.019,0.776c-0.041,0.562-0.093,1.267-0.154,2.105
								c-0.132,1.777-0.298,4.232-0.402,6.948c-0.103,2.715-0.126,5.176-0.129,6.957c-0.003,0.841-0.005,1.547-0.007,2.111
								C121.318,344.196,121.305,344.472,121.283,344.473z"/>
						</g>
					</g>
				</g>
			</g>
			<g style="opacity:0.3;">
				<g>
					<g>
						<path d="M108.909,329.497c0,0,10.4,4.284,12.013,14.068C120.922,343.565,115.615,334.416,108.909,329.497z"/>
					</g>
				</g>
			</g>
		</g>
		<g>
			<g>
				<g>
					<g>
						<path style="fill:#FF725E;" d="M99.283,386.71c-1.503-0.566-3.328-0.944-4.61,0.025c-1.187,0.897-1.402,2.669-0.902,4.07
							c0.5,1.401,1.558,2.519,2.587,3.593c-2.69-1.973-6.142-2.878-9.453-2.478c-1.107,0.134-2.403,0.608-2.617,1.702
							c-0.151,0.772,0.32,1.518,0.79,2.149c1.861,2.499,4.067,4.741,6.536,6.641c-1.515,0.174-3.095,0.371-4.363,1.218
							c-1.269,0.847-2.101,2.558-1.451,3.938c0.356,0.757,1.073,1.272,1.776,1.726c4.507,2.906,9.736,4.684,15.08,5.129
							c2.839,0.236,5.842,0.064,8.293-1.387c2.452-1.451,5.108-3.859,4.277-6.584l0.107,0.791
							C114.272,398.168,107.833,389.93,99.283,386.71z"/>
					</g>
				</g>
			</g>
			<g>
				<g>
					<g>
						<g>
							<path style="fill:#263238;" d="M115.083,408.813c-0.004,0.006-0.082-0.034-0.227-0.117c-0.164-0.097-0.371-0.221-0.627-0.372
								c-0.269-0.166-0.6-0.366-0.995-0.581c-0.393-0.217-0.831-0.481-1.338-0.732c-0.501-0.262-1.049-0.548-1.654-0.823
								c-0.596-0.294-1.252-0.564-1.939-0.857c-1.385-0.558-2.933-1.107-4.593-1.567c-1.664-0.449-3.277-0.764-4.754-0.982
								c-0.741-0.092-1.444-0.191-2.106-0.234c-0.661-0.066-1.279-0.091-1.844-0.112c-0.564-0.035-1.075-0.02-1.524-0.024
								c-0.449-0.008-0.836,0.005-1.151,0.019c-0.297,0.008-0.538,0.015-0.729,0.02c-0.167,0.002-0.255,0-0.255-0.008
								c-0.001-0.008,0.086-0.02,0.252-0.036c0.19-0.016,0.431-0.036,0.727-0.061c0.316-0.027,0.703-0.053,1.154-0.057
								c0.45-0.007,0.963-0.033,1.53-0.008c0.567,0.011,1.189,0.027,1.854,0.086c0.667,0.035,1.374,0.128,2.12,0.215
								c1.486,0.208,3.11,0.519,4.784,0.971c1.67,0.462,3.225,1.021,4.613,1.592c0.688,0.3,1.345,0.577,1.94,0.88
								c0.604,0.283,1.151,0.578,1.649,0.85c0.504,0.261,0.938,0.535,1.326,0.763c0.39,0.226,0.715,0.437,0.978,0.614
								c0.247,0.166,0.447,0.301,0.605,0.407C115.017,408.754,115.087,408.806,115.083,408.813z"/>
						</g>
					</g>
				</g>
			</g>
			<g>
				<g>
					<g>
						<g>
							<path style="fill:#263238;" d="M104.769,404.059c-0.011,0.011-0.154-0.112-0.403-0.344c-0.25-0.231-0.604-0.574-1.035-1.005
								c-0.862-0.861-2.023-2.08-3.246-3.48c-1.222-1.402-2.273-2.718-3.009-3.688c-0.368-0.485-0.66-0.882-0.855-1.162
								c-0.196-0.279-0.298-0.437-0.286-0.446s0.137,0.132,0.354,0.395c0.243,0.298,0.547,0.673,0.909,1.118
								c0.766,0.945,1.833,2.242,3.052,3.64c1.22,1.397,2.36,2.63,3.192,3.516c0.392,0.419,0.722,0.771,0.985,1.052
								C104.657,403.905,104.78,404.048,104.769,404.059z"/>
						</g>
					</g>
				</g>
			</g>
			<g style="opacity:0.3;">
				<g>
					<g>
						<path d="M91.614,402.411c0,0,7.171-2.739,12.551,1.366C104.165,403.777,97.247,401.716,91.614,402.411z"/>
					</g>
				</g>
			</g>
		</g>
	</g>
	<g>
		<g>
			<g>
				<g>
					<g>
						<g>
							<path style="fill:#455A64;" d="M349.009,442.04c1.3,5.307,0.872,11.022-1.204,16.075c-3.724-3.6-7.808-9.473-8.837-14.549
								c-1.029-5.076-0.623-10.196,1.404-14.962C344.548,432.127,347.71,436.734,349.009,442.04z"/>
						</g>
					</g>
				</g>
				<g>
					<g>
						<g>
							<g>
								<path style="fill:#263238;" d="M346.209,450.177c0.02-0.002,0.004-0.316-0.043-0.883c-0.044-0.567-0.135-1.385-0.273-2.393
									c-0.274-2.015-0.782-4.785-1.591-7.784c-0.813-2.999-1.772-5.647-2.551-7.525c-0.389-0.94-0.722-1.692-0.971-2.204
									c-0.245-0.513-0.39-0.792-0.408-0.784c-0.019,0.008,0.09,0.304,0.303,0.83c0.215,0.525,0.519,1.288,0.882,2.235
									c0.727,1.893,1.65,4.54,2.46,7.526c0.806,2.986,1.344,5.737,1.67,7.738c0.164,1,0.287,1.813,0.366,2.375
									C346.134,449.87,346.189,450.179,346.209,450.177z"/>
							</g>
						</g>
					</g>
				</g>
			</g>
			<g>
				<g>
					<g>
						<g>
							<path style="fill:#455A64;" d="M372.012,448.165c1.3,5.306,0.871,11.022-1.204,16.075c-3.724-3.6-7.808-9.473-8.838-14.549
								c-1.029-5.076-0.483-10.46,1.545-15.225C367.691,437.988,370.712,442.859,372.012,448.165z"/>
						</g>
					</g>
				</g>
				<g>
					<g>
						<g>
							<g>
								<path style="fill:#263238;" d="M369.211,456.303c0.02-0.002,0.004-0.316-0.043-0.883c-0.044-0.567-0.135-1.385-0.273-2.393
									c-0.274-2.015-0.782-4.785-1.591-7.784c-0.814-2.999-1.772-5.647-2.551-7.525c-0.389-0.94-0.722-1.692-0.97-2.204
									c-0.245-0.513-0.39-0.792-0.409-0.784c-0.018,0.009,0.09,0.304,0.303,0.83c0.216,0.525,0.519,1.288,0.882,2.235
									c0.727,1.892,1.65,4.54,2.46,7.525c0.806,2.986,1.344,5.737,1.67,7.738c0.164,1,0.287,1.812,0.366,2.375
									C369.136,455.995,369.191,456.305,369.211,456.303z"/>
							</g>
						</g>
					</g>
				</g>
			</g>
			<g>
				<g>
					<g>
						<g>
							<path style="fill:#455A64;" d="M386.656,433.32c4.445-3.176,7.847-7.789,9.567-12.974c-5.17,0.302-12.097,2.092-16.186,5.27
								c-4.09,3.178-7.185,7.616-8.755,12.552C376.745,438.22,382.211,436.496,386.656,433.32z"/>
						</g>
					</g>
				</g>
				<g>
					<g>
						<g>
							<g>
								<path style="fill:#263238;" d="M389.838,425.324c0.014,0.015-0.203,0.242-0.608,0.642c-0.403,0.401-1.006,0.962-1.767,1.636
									c-1.522,1.349-3.713,3.118-6.281,4.865c-2.572,1.743-5.025,3.127-6.841,4.043c-0.908,0.459-1.651,0.812-2.173,1.038
									c-0.521,0.229-0.812,0.347-0.821,0.328c-0.009-0.018,0.267-0.171,0.771-0.432c0.506-0.258,1.233-0.639,2.125-1.12
									c1.785-0.961,4.211-2.367,6.772-4.102c2.558-1.739,4.759-3.474,6.311-4.779c0.777-0.652,1.399-1.187,1.825-1.562
									C389.58,425.509,389.824,425.309,389.838,425.324z"/>
							</g>
						</g>
					</g>
				</g>
			</g>
			<g>
				<g>
					<g>
						<g>
							<path style="fill:#455A64;" d="M364.576,425.667c4.445-3.176,7.846-7.789,9.567-12.974c-5.17,0.302-12.097,2.092-16.186,5.27
								c-4.09,3.178-7.186,7.616-8.755,12.552C354.665,430.567,360.131,428.844,364.576,425.667z"/>
						</g>
					</g>
				</g>
				<g>
					<g>
						<g>
							<g>
								<path style="fill:#263238;" d="M367.758,417.672c0.014,0.015-0.203,0.242-0.608,0.642c-0.403,0.401-1.005,0.962-1.767,1.636
									c-1.522,1.349-3.713,3.118-6.281,4.865c-2.572,1.743-5.025,3.127-6.841,4.043c-0.908,0.459-1.651,0.812-2.173,1.038
									c-0.521,0.229-0.812,0.347-0.821,0.328c-0.008-0.019,0.267-0.172,0.771-0.432c0.506-0.257,1.233-0.638,2.125-1.12
									c1.785-0.961,4.211-2.366,6.772-4.102c2.558-1.739,4.759-3.474,6.311-4.779c0.777-0.652,1.399-1.187,1.825-1.562
									C367.5,417.856,367.744,417.657,367.758,417.672z"/>
							</g>
						</g>
					</g>
				</g>
			</g>
			<g>
				<g>
					<g>
						<g>
							<path style="fill:#263238;" d="M324.059,428.47c0.001,0.014,0.232,0.016,0.67,0.007c0.472-0.014,1.111-0.033,1.914-0.057
								c0.419-0.015,0.88-0.032,1.382-0.051c0.506-0.009,1.055,0.005,1.645,0.006c1.18,0.017,2.525-0.018,4.008,0.085
								c0.743,0.037,1.52,0.075,2.328,0.115c0.809,0.043,1.647,0.147,2.517,0.221c1.742,0.128,3.587,0.415,5.531,0.682
								c3.874,0.631,8.101,1.534,12.446,2.821c4.336,1.323,8.361,2.899,11.941,4.509c1.77,0.849,3.467,1.627,4.991,2.481
								c0.767,0.417,1.523,0.793,2.222,1.203c0.697,0.413,1.366,0.809,2.006,1.188c1.294,0.732,2.397,1.502,3.39,2.139
								c0.493,0.325,0.959,0.616,1.376,0.902c0.409,0.292,0.784,0.561,1.125,0.804c0.657,0.463,1.179,0.831,1.566,1.103
								c0.361,0.249,0.554,0.374,0.563,0.363c0.008-0.011-0.169-0.157-0.514-0.427c-0.376-0.287-0.884-0.675-1.523-1.164
								c-0.336-0.253-0.705-0.531-1.107-0.834c-0.411-0.296-0.872-0.597-1.36-0.931c-0.985-0.656-2.08-1.445-3.368-2.194
								c-0.638-0.387-1.305-0.792-2-1.214c-0.698-0.418-1.453-0.802-2.219-1.227c-1.523-0.869-3.221-1.662-4.994-2.523
								c-3.586-1.635-7.626-3.229-11.98-4.557c-4.364-1.292-8.612-2.189-12.504-2.802c-1.954-0.258-3.807-0.533-5.557-0.648
								c-0.874-0.068-1.715-0.163-2.528-0.199c-0.812-0.031-1.592-0.061-2.337-0.09c-1.488-0.085-2.837-0.031-4.02-0.027
								c-0.592,0.01-1.142,0.007-1.649,0.027c-0.503,0.031-0.965,0.06-1.384,0.086c-0.803,0.055-1.441,0.099-1.913,0.132
								C324.287,428.431,324.059,428.456,324.059,428.47z"/>
						</g>
					</g>
				</g>
			</g>
			<g>
				<g>
					<g>
						<g>
							<path style="fill:#455A64;" d="M394.72,447.608c4.358,3.295,7.634,7.998,9.214,13.228c-5.16-0.441-12.036-2.417-16.038-5.704
								c-4.003-3.287-6.978-7.807-8.414-12.783C384.945,442.443,390.362,444.313,394.72,447.608z"/>
						</g>
					</g>
				</g>
				<g>
					<g>
						<g>
							<g>
								<path style="fill:#263238;" d="M397.685,455.687c0.014-0.014-0.197-0.248-0.591-0.658c-0.392-0.412-0.979-0.989-1.722-1.683
									c-1.485-1.39-3.627-3.217-6.148-5.032c-2.524-1.812-4.939-3.261-6.729-4.226c-0.895-0.483-1.628-0.856-2.144-1.097
									c-0.514-0.243-0.802-0.368-0.812-0.35c-0.009,0.018,0.262,0.178,0.759,0.452c0.498,0.271,1.215,0.672,2.095,1.177
									c1.759,1.009,4.146,2.479,6.659,4.283c2.51,1.807,4.664,3.601,6.18,4.947c0.759,0.672,1.367,1.224,1.783,1.611
									C397.433,455.495,397.671,455.701,397.685,455.687z"/>
							</g>
						</g>
					</g>
				</g>
			</g>
		</g>
		<g>
			<g>
				<g>
					<g>
						<path style="fill:#455A64;" d="M374.944,372.285c6.164-1.047,12.652-0.088,18.249,2.697
							c-4.415,3.954-11.455,8.133-17.333,8.89c-5.878,0.757-11.978-0.309-17.251-3.016
							C362.973,376.379,368.78,373.332,374.944,372.285z"/>
					</g>
				</g>
			</g>
			<g>
				<g>
					<g>
						<g>
							<path style="fill:#263238;" d="M384.002,376.151c-0.001-0.023-0.361-0.031-1.011-0.024c-0.651,0.003-1.592,0.04-2.753,0.115
								c-2.322,0.147-5.526,0.499-9.015,1.176c-3.49,0.682-6.592,1.558-8.799,2.293c-1.104,0.366-1.991,0.685-2.595,0.926
								c-0.606,0.238-0.936,0.38-0.928,0.402c0.008,0.022,0.354-0.078,0.972-0.278c0.617-0.203,1.513-0.486,2.623-0.822
								c2.22-0.674,5.317-1.51,8.792-2.189c3.474-0.674,6.659-1.062,8.97-1.269c1.155-0.105,2.092-0.178,2.74-0.222
								C383.644,376.211,384.003,376.174,384.002,376.151z"/>
						</g>
					</g>
				</g>
			</g>
		</g>
		<g>
			<g>
				<g>
					<g>
						<path style="fill:#455A64;" d="M359.408,398.922c5.436,0.543,10.682,2.851,14.755,6.492
							c-4.635,2.311-11.533,4.206-16.662,3.485c-5.129-0.721-10.023-3.03-13.841-6.529
							C348.373,399.605,353.971,398.379,359.408,398.922z"/>
					</g>
				</g>
			</g>
			<g>
				<g>
					<g>
						<g>
							<path style="fill:#263238;" d="M366.147,404.274c0.005-0.02-0.297-0.109-0.847-0.254c-0.549-0.148-1.351-0.334-2.347-0.54
								c-1.991-0.413-4.772-0.857-7.869-1.093c-3.098-0.232-5.915-0.211-7.946-0.102c-1.016,0.053-1.836,0.117-2.401,0.181
								c-0.566,0.06-0.877,0.103-0.875,0.124c0.002,0.02,0.317,0.016,0.884-0.009c0.567-0.028,1.387-0.06,2.401-0.087
								c2.027-0.055,4.83-0.043,7.915,0.188c3.084,0.235,5.857,0.645,7.852,1.004c0.998,0.179,1.805,0.333,2.361,0.447
								C365.831,404.242,366.142,404.293,366.147,404.274z"/>
						</g>
					</g>
				</g>
			</g>
		</g>
		<g>
			<g>
				<g>
					<g>
						<path style="fill:#455A64;" d="M353.927,377.331c-0.721-5.415-3.201-10.583-6.974-14.534
							c-2.158,4.708-3.824,11.666-2.934,16.768c0.889,5.102,3.358,9.918,6.981,13.618
							C353.608,388.383,354.649,382.747,353.927,377.331z"/>
					</g>
				</g>
			</g>
			<g>
				<g>
					<g>
						<g>
							<path style="fill:#263238;" d="M348.357,370.772c0.02-0.005,0.119,0.293,0.282,0.838c0.166,0.544,0.378,1.339,0.617,2.328
								c0.478,1.977,1.014,4.741,1.352,7.829c0.334,3.089,0.405,5.905,0.363,7.938c-0.02,1.017-0.057,1.839-0.102,2.406
								c-0.042,0.567-0.075,0.88-0.095,0.879c-0.02-0.001-0.026-0.316-0.02-0.883c0.009-0.567,0.014-1.388,0.008-2.402
								c-0.012-2.028-0.116-4.829-0.448-7.905c-0.337-3.074-0.837-5.832-1.262-7.815c-0.211-0.991-0.393-1.793-0.524-2.345
								C348.399,371.086,348.337,370.777,348.357,370.772z"/>
						</g>
					</g>
				</g>
			</g>
		</g>
		<g>
			<g>
				<g>
					<g>
						<path style="fill:#455A64;" d="M363.002,356.171c-2.053-4.928-5.702-9.176-10.264-11.948
							c-0.843,4.99-0.653,11.977,1.479,16.567c2.132,4.589,5.682,8.508,10.038,11.082
							C365.5,366.681,365.054,361.098,363.002,356.171z"/>
					</g>
				</g>
			</g>
			<g>
				<g>
					<g>
						<g>
							<path style="fill:#263238;" d="M356.083,351.392c0.017-0.01,0.186,0.246,0.478,0.719c0.294,0.471,0.696,1.168,1.172,2.04
								c0.952,1.744,2.158,4.217,3.259,7.046c1.098,2.831,1.879,5.47,2.354,7.399c0.239,0.965,0.413,1.75,0.514,2.296
								c0.104,0.546,0.152,0.849,0.133,0.853s-0.105-0.291-0.243-0.828c-0.135-0.538-0.338-1.314-0.602-2.269
								c-0.525-1.91-1.333-4.528-2.426-7.346c-1.096-2.816-2.268-5.292-3.171-7.055c-0.451-0.882-0.825-1.592-1.089-2.08
								C356.202,351.678,356.066,351.402,356.083,351.392z"/>
						</g>
					</g>
				</g>
			</g>
		</g>
		<g>
			<g>
				<g>
					<g>
						<path style="fill:#263238;" d="M314.594,430.797c0.004,0.005,0.075-0.041,0.209-0.137c0.15-0.111,0.345-0.254,0.59-0.435
							c0.535-0.405,1.288-0.975,2.248-1.702c0.488-0.373,1.029-0.787,1.619-1.238c0.577-0.474,1.202-0.988,1.872-1.539
							c1.336-1.114,2.887-2.348,4.5-3.829c0.817-0.729,1.673-1.493,2.565-2.289c0.883-0.805,1.766-1.682,2.699-2.569
							c1.887-1.754,3.774-3.758,5.792-5.835c3.945-4.239,8.103-9.072,12.116-14.421c3.98-5.376,7.426-10.743,10.329-15.756
							c1.385-2.544,2.757-4.932,3.855-7.264c0.565-1.158,1.136-2.263,1.637-3.348c0.482-1.093,0.945-2.143,1.388-3.146
							c0.919-1.989,1.593-3.854,2.227-5.474c0.31-0.811,0.6-1.567,0.866-2.264c0.234-0.705,0.448-1.351,0.642-1.935
							c0.374-1.145,0.667-2.043,0.875-2.68c0.091-0.291,0.162-0.522,0.218-0.7c0.047-0.158,0.068-0.24,0.061-0.242
							c-0.006-0.002-0.04,0.076-0.1,0.23c-0.065,0.175-0.149,0.401-0.255,0.687c-0.225,0.631-0.541,1.52-0.945,2.654
							c-0.203,0.579-0.428,1.22-0.674,1.92c-0.276,0.693-0.575,1.443-0.896,2.249c-0.653,1.609-1.344,3.464-2.277,5.441
							c-0.449,0.997-0.919,2.041-1.408,3.129c-0.507,1.079-1.084,2.179-1.654,3.331c-1.108,2.32-2.488,4.697-3.878,7.23
							c-2.913,4.991-6.359,10.338-10.33,15.701c-4.003,5.336-8.142,10.164-12.065,14.408c-2.007,2.079-3.881,4.088-5.754,5.849
							c-0.927,0.89-1.802,1.771-2.679,2.581c-0.884,0.801-1.733,1.57-2.543,2.304c-1.599,1.492-3.135,2.74-4.456,3.868
							c-0.662,0.56-1.28,1.081-1.849,1.563c-0.582,0.461-1.114,0.882-1.596,1.264c-0.94,0.751-1.677,1.341-2.201,1.759
							c-0.236,0.194-0.422,0.347-0.566,0.466C314.652,430.734,314.589,430.791,314.594,430.797z"/>
					</g>
				</g>
			</g>
		</g>
		<g>
			<g>
				<g>
					<g>
						<path style="fill:#FF725E;" d="M363.958,319.671c1.034-2.115,2.601-4.352,4.941-4.606c2.167-0.235,4.176,1.438,5.051,3.434
							c0.875,1.996,0.87,4.252,0.85,6.431c0.886-4.807,3.658-9.24,7.592-12.142c1.315-0.97,3.173-1.766,4.501-0.814
							c0.937,0.672,1.184,1.94,1.317,3.086c0.527,4.535,0.427,9.142-0.297,13.65c1.791-1.337,3.673-2.714,5.877-3.085
							c2.204-0.372,4.811,0.618,5.505,2.742c0.381,1.166,0.134,2.435-0.16,3.626c-1.887,7.628-5.676,14.778-10.928,20.622
							c-2.79,3.105-6.165,5.938-10.238,6.854c-4.072,0.916-9.325,1.017-11.177-2.723l0.681,0.951
							C359.487,346.952,358.077,331.696,363.958,319.671z"/>
					</g>
				</g>
			</g>
			<g>
				<g>
					<g>
						<g>
							<path style="fill:#263238;" d="M369.319,359.118c0.011,0.003,0.053-0.119,0.124-0.353c0.077-0.268,0.174-0.608,0.294-1.027
								c0.12-0.448,0.272-0.993,0.477-1.619c0.201-0.627,0.403-1.348,0.691-2.125c0.271-0.782,0.569-1.639,0.938-2.539
								c0.34-0.912,0.769-1.86,1.206-2.862c0.916-1.986,2.016-4.128,3.324-6.287c1.324-2.151,2.727-4.107,4.083-5.824
								c0.698-0.842,1.348-1.654,2.012-2.366c0.639-0.735,1.272-1.382,1.854-1.972c0.567-0.604,1.127-1.101,1.601-1.557
								c0.471-0.46,0.896-0.834,1.248-1.136c0.325-0.29,0.589-0.526,0.797-0.711c0.18-0.165,0.271-0.256,0.264-0.265
								c-0.007-0.009-0.112,0.066-0.305,0.215c-0.218,0.174-0.495,0.394-0.837,0.666c-0.365,0.289-0.803,0.65-1.287,1.099
								c-0.487,0.445-1.061,0.933-1.64,1.529c-0.594,0.582-1.24,1.224-1.891,1.954c-0.676,0.708-1.337,1.517-2.045,2.359
								c-1.376,1.716-2.795,3.679-4.126,5.842c-1.316,2.171-2.414,4.33-3.32,6.332c-0.432,1.011-0.854,1.967-1.185,2.888
								c-0.36,0.909-0.647,1.773-0.905,2.563c-0.275,0.785-0.463,1.513-0.648,2.147c-0.189,0.632-0.323,1.185-0.426,1.638
								c-0.096,0.426-0.175,0.771-0.236,1.043C369.329,358.989,369.308,359.116,369.319,359.118z"/>
						</g>
					</g>
				</g>
			</g>
			<g>
				<g>
					<g>
						<g>
							<path style="fill:#263238;" d="M375.541,343.685c0.022,0.001,0.051-0.274,0.085-0.772c0.035-0.498,0.067-1.219,0.095-2.111
								c0.054-1.784,0.068-4.251-0.036-6.973c-0.105-2.723-0.307-5.182-0.497-6.956c-0.095-0.887-0.183-1.604-0.255-2.098
								c-0.071-0.494-0.121-0.766-0.143-0.764c-0.022,0.003-0.014,0.279,0.019,0.777c0.041,0.562,0.093,1.267,0.154,2.105
								c0.132,1.777,0.298,4.232,0.402,6.948c0.103,2.715,0.125,5.176,0.129,6.958c0.003,0.84,0.005,1.547,0.007,2.111
								C375.506,343.408,375.519,343.685,375.541,343.685z"/>
						</g>
					</g>
				</g>
			</g>
			<g style="opacity:0.3;">
				<g>
					<g>
						<path d="M387.914,328.71c0,0-10.4,4.284-12.013,14.068C375.901,342.777,381.208,333.628,387.914,328.71z"/>
					</g>
				</g>
			</g>
		</g>
		<g>
			<g>
				<g>
					<g>
						<path style="fill:#FF725E;" d="M397.541,385.922c1.503-0.566,3.328-0.944,4.61,0.025c1.186,0.897,1.402,2.669,0.902,4.07
							c-0.5,1.401-1.558,2.519-2.587,3.593c2.69-1.973,6.142-2.878,9.453-2.478c1.107,0.134,2.403,0.607,2.617,1.702
							c0.151,0.772-0.32,1.518-0.79,2.149c-1.861,2.499-4.067,4.741-6.536,6.641c1.515,0.174,3.095,0.371,4.363,1.218
							c1.268,0.847,2.1,2.558,1.451,3.938c-0.356,0.757-1.073,1.272-1.776,1.726c-4.508,2.906-9.736,4.684-15.08,5.129
							c-2.839,0.236-5.842,0.064-8.293-1.387c-2.452-1.451-5.108-3.859-4.277-6.584l-0.107,0.791
							C382.551,397.38,388.991,389.142,397.541,385.922z"/>
					</g>
				</g>
			</g>
			<g>
				<g>
					<g>
						<g>
							<path style="fill:#263238;" d="M381.741,408.025c0.004,0.006,0.082-0.034,0.227-0.117c0.164-0.097,0.371-0.22,0.627-0.372
								c0.269-0.166,0.6-0.366,0.995-0.581c0.393-0.217,0.831-0.481,1.338-0.732c0.501-0.262,1.049-0.548,1.654-0.822
								c0.596-0.294,1.252-0.564,1.939-0.857c1.385-0.558,2.933-1.107,4.593-1.567c1.664-0.449,3.277-0.764,4.754-0.982
								c0.741-0.092,1.444-0.191,2.107-0.234c0.661-0.066,1.279-0.091,1.844-0.112c0.564-0.035,1.075-0.02,1.524-0.024
								c0.449-0.008,0.836,0.005,1.151,0.019c0.297,0.008,0.538,0.015,0.729,0.02c0.167,0.002,0.255-0.001,0.255-0.008
								c0.001-0.008-0.086-0.02-0.252-0.036c-0.19-0.016-0.431-0.036-0.727-0.061c-0.316-0.027-0.703-0.053-1.154-0.057
								c-0.45-0.007-0.964-0.033-1.53-0.008c-0.567,0.011-1.189,0.027-1.854,0.086c-0.667,0.035-1.374,0.128-2.12,0.215
								c-1.486,0.208-3.11,0.519-4.784,0.971c-1.67,0.463-3.225,1.021-4.613,1.592c-0.688,0.3-1.345,0.578-1.94,0.88
								c-0.604,0.283-1.151,0.578-1.649,0.85c-0.504,0.261-0.938,0.535-1.327,0.763c-0.39,0.226-0.715,0.437-0.978,0.614
								c-0.247,0.166-0.448,0.301-0.605,0.407C381.807,407.966,381.737,408.019,381.741,408.025z"/>
						</g>
					</g>
				</g>
			</g>
			<g>
				<g>
					<g>
						<g>
							<path style="fill:#263238;" d="M392.054,403.271c0.011,0.011,0.154-0.112,0.403-0.344c0.25-0.231,0.604-0.574,1.035-1.005
								c0.862-0.86,2.023-2.08,3.246-3.48c1.222-1.402,2.273-2.718,3.009-3.688c0.368-0.485,0.66-0.882,0.855-1.162
								c0.196-0.279,0.298-0.437,0.286-0.446s-0.137,0.132-0.354,0.395c-0.243,0.298-0.547,0.673-0.909,1.118
								c-0.766,0.945-1.833,2.242-3.052,3.64c-1.22,1.397-2.36,2.63-3.192,3.516c-0.392,0.419-0.722,0.771-0.984,1.052
								C392.167,403.117,392.044,403.26,392.054,403.271z"/>
						</g>
					</g>
				</g>
			</g>
			<g style="opacity:0.3;">
				<g>
					<g>
						<path d="M405.209,401.623c0,0-7.171-2.739-12.551,1.366C392.658,402.989,399.577,400.928,405.209,401.623z"/>
					</g>
				</g>
			</g>
		</g>
	</g>
</g>
<g id="Device">
	<g>
		<g>
			<g>
				<g>
					<g>
						<g>
							<g>
								<g>
									<path style="fill:#263238;" d="M313.847,475.98l-129.153-0.077c-15.533-0.008-28.12-12.605-28.117-28.138l0.063-323.789
										c0.003-15.542,12.607-28.137,28.15-28.128l129.153,0.076c15.533,0.009,28.119,12.606,28.117,28.139l-0.064,323.789
										C341.994,463.394,329.389,475.989,313.847,475.98z"/>
								</g>
							</g>
						</g>
					</g>
				</g>
				<g>
					<g>
						<g>
							<g>
								<g>
									<path style="fill:#FFFFFF;" d="M313.807,107.376l-25.04-0.015c-3.358-0.002-6.082,2.843-6.081,6.353l-0.002,4.542
										c0,3.51-2.723,6.355-6.081,6.353l-48.81-0.029c-3.358-0.002-6.08-2.85-6.079-6.36l0.001-4.542
										c0-3.51-2.722-6.358-6.08-6.36l-8.807-0.005l-21.916-0.013c-10.884-0.006-19.712,8.815-19.714,19.7l-0.062,316.041
										c-0.002,10.88,8.813,19.701,19.691,19.708l128.895,0.075c10.884,0.007,19.711-8.814,19.714-19.699l0.062-316.042
										C333.5,116.204,324.685,107.383,313.807,107.376z"/>
								</g>
							</g>
						</g>
					</g>
				</g>
			</g>
		</g>
	</g>
</g>
<g id="Character">
	<g>
		<g>
			<g>
				<path style="fill:#263238;" d="M221.449,191.295c-1.939,0.178-3.508,1.787-4.222,3.598c-0.715,1.811-0.74,3.81-0.756,5.757
					c-0.202,24.998-0.405,49.996-0.607,74.994c11.802,0.041,23.604,0.082,35.406,0.123c-6.662-23.521-1.114-49.11-7.231-72.779
					c-1.024-3.965-2.442-7.968-5.207-10.988c-2.766-3.02-7.159-4.851-11.056-3.594"/>
			</g>
			<g>
				<g>
					<g>
						<g>
							<path style="fill:#263238;" d="M226.626,156.542c7.851-9.596,18.395-15.121,30.792-15.326
								c7.289-0.121,10.125,1.463,15.575,2.868c4.894,1.262,9.176,4.207,12.073,8.348c3.509,5.016,6.44,10.623,7.106,16.704
								c0.693,6.327,1.387,12.697,0.91,19.045c-0.005,0.064-0.01,0.127-0.015,0.19c-0.791,9.997-8.389,18.129-18.269,19.846
								l-3.806,0.661c-8.919,0.304-17.962,0.596-26.651-1.438c-8.689-2.035-17.132-6.71-21.786-14.325
								C216.09,182.536,218.775,166.139,226.626,156.542z"/>
						</g>
					</g>
					<g>
						<g>
							<g>
								<g>
									<g>
										<g>
											<g>
												<g>
													<path style="fill:#A26760;" d="M270.998,235.083c-0.108-5.667-0.241-10.308-0.241-10.282
														c0,0,13.169-1.451,16.807-18.329c1.809-8.394,2.146-22.301,2.054-33.688c-0.083-10.25-8.811-24.208-21.467-24.253
														l-5.624-0.654l-21.53,8.558c-3.11,0.157-5.583,2.668-5.691,5.781l-0.647,72.092l20.811,50.528l14.932-20.239
														L270.998,235.083z"/>
												</g>
											</g>
										</g>
									</g>
								</g>
							</g>
							<g>
								<g>
									<path style="fill:#7B4B45;" d="M262.248,202.522c0.117-0.889,0.611-1.676,1.242-2.216c1.262-1.081,3.104-1.186,4.454-0.254
										c1.35,0.931,2.123,2.842,1.868,4.617l0,0c-0.758,1.041-1.917,1.745-3.2,1.856c-0.2,0.017-0.4,0.024-0.601,0.019
										c-0.973-0.025-1.963-0.354-2.706-1.071C262.564,204.755,262.103,203.62,262.248,202.522z"/>
								</g>
							</g>
							<g>
								<g>
									<g>
										<g>
											<g>
												<g>
													<g>
														<g>
															<g>
																<g>
																	<g>
																		<g>
																			<g>
																				<g>
																					<g>
																						<g>
																							<g>
																								<g>
																									<g>
																										<g>
																											<path style="fill:#263238;" d="M282.111,185.941c-0.023,1.156-1.02,2.089-2.227,2.088
																												c-1.205-0.001-2.165-0.937-2.143-2.092c0.023-1.155,1.02-2.09,2.224-2.089
																												C281.173,183.849,282.134,184.786,282.111,185.941z"/>
																										</g>
																									</g>
																								</g>
																							</g>
																						</g>
																					</g>
																				</g>
																			</g>
																		</g>
																	</g>
																</g>
															</g>
														</g>
													</g>
												</g>
											</g>
										</g>
										<g>
											<g>
												<g>
													<g>
														<g>
															<g>
																<g>
																	<g>
																		<g>
																			<g>
																				<g>
																					<g>
																						<g>
																							<g>
																								<g>
																									<g>
																										<g>
																											<g>
																												<path style="fill:#263238;" d="M285.427,179.105c-0.286,0.27-1.874-1.045-4.224-1.168
																													c-2.345-0.156-4.137,0.958-4.376,0.656c-0.119-0.134,0.186-0.633,0.966-1.139
																													c0.769-0.504,2.059-0.964,3.522-0.878c1.463,0.089,2.665,0.695,3.342,1.285
																													C285.351,178.456,285.568,178.984,285.427,179.105z"/>
																											</g>
																										</g>
																									</g>
																								</g>
																							</g>
																						</g>
																					</g>
																				</g>
																			</g>
																		</g>
																	</g>
																</g>
															</g>
														</g>
													</g>
												</g>
											</g>
										</g>
										<g>
											<g>
												<g>
													<g>
														<g>
															<g>
																<g>
																	<g>
																		<g>
																			<g>
																				<g>
																					<g>
																						<g>
																							<g>
																								<g>
																									<g>
																										<g>
																											<path style="fill:#263238;" d="M270.661,196.906c-0.004-0.134,1.471-0.306,3.854-0.479
																												c0.603-0.029,1.178-0.117,1.302-0.521c0.165-0.426-0.05-1.086-0.303-1.8
																												c-0.485-1.483-0.992-3.038-1.524-4.667c-2.107-6.64-3.597-12.087-3.329-12.169
																												c0.268-0.083,2.194,5.233,4.301,11.873c0.505,1.637,0.988,3.197,1.447,4.689
																												c0.19,0.695,0.538,1.489,0.182,2.372c-0.186,0.439-0.644,0.741-1.035,0.823
																												c-0.391,0.096-0.729,0.084-1.027,0.086C272.14,197.11,270.662,197.04,270.661,196.906z"/>
																										</g>
																									</g>
																								</g>
																							</g>
																						</g>
																					</g>
																				</g>
																			</g>
																		</g>
																	</g>
																</g>
															</g>
														</g>
													</g>
												</g>
											</g>
										</g>
										<g>
											<g>
												<g>
													<g>
														<g>
															<g>
																<g>
																	<g>
																		<g>
																			<g>
																				<g>
																					<g>
																						<g>
																							<g>
																								<g>
																									<g>
																										<path style="fill:#7B4B45;" d="M270.757,224.801c0,0-11.495,0.11-22.469-7.334
																											c0,0,5.427,12.135,22.556,11.477L270.757,224.801z"/>
																									</g>
																								</g>
																							</g>
																						</g>
																					</g>
																				</g>
																			</g>
																		</g>
																	</g>
																</g>
															</g>
														</g>
													</g>
												</g>
											</g>
										</g>
										<g>
											<g>
												<g>
													<g>
														<g>
															<g>
																<g>
																	<g>
																		<g>
																			<g>
																				<g>
																					<g>
																						<g>
																							<g>
																								<g>
																									<g>
																										<g>
																											<path style="fill:#263238;" d="M263.656,198.152c0.383-0.001,0.248,2.55,2.332,4.48
																												c2.079,1.936,4.814,1.799,4.814,2.156c0.027,0.162-0.633,0.462-1.782,0.43
																												c-1.128-0.023-2.752-0.475-4.027-1.656c-1.271-1.183-1.763-2.696-1.792-3.747
																												C263.163,198.744,263.482,198.127,263.656,198.152z"/>
																										</g>
																									</g>
																								</g>
																							</g>
																						</g>
																					</g>
																				</g>
																			</g>
																		</g>
																	</g>
																</g>
															</g>
														</g>
													</g>
												</g>
											</g>
										</g>
										<g>
											<g>
												<g>
													<g>
														<g>
															<g>
																<g>
																	<g>
																		<g>
																			<g>
																				<g>
																					<g>
																						<g>
																							<g>
																								<g>
																									<g>
																										<g>
																											<g>
																												<g>
																													<path style="fill:#263238;" d="M284.961,170.248c-0.426,0.552-2.205,0.07-4.317,0.129
																														c-2.113-0.008-3.884,0.517-4.318-0.025c-0.192-0.264,0.069-0.81,0.829-1.348
																														c0.749-0.535,2.02-0.999,3.472-1.018c1.452-0.016,2.729,0.416,3.485,0.933
																														C284.88,169.439,285.148,169.979,284.961,170.248z"/>
																												</g>
																											</g>
																										</g>
																									</g>
																								</g>
																							</g>
																						</g>
																					</g>
																				</g>
																			</g>
																		</g>
																	</g>
																</g>
															</g>
														</g>
													</g>
												</g>
											</g>
										</g>
										<g>
											<g>
												<g>
													<g>
														<g>
															<g>
																<g>
																	<g>
																		<g>
																			<g>
																				<g>
																					<g>
																						<g>
																							<g>
																								<g>
																									<g>
																										<g>
																											<path style="fill:#263238;" d="M256.087,185.784c-0.061,1.154,0.866,2.157,2.07,2.243
																												c1.201,0.086,2.227-0.778,2.288-1.932c0.061-1.154-0.866-2.158-2.067-2.244
																												C257.174,183.764,256.148,184.63,256.087,185.784z"/>
																										</g>
																									</g>
																								</g>
																							</g>
																						</g>
																					</g>
																				</g>
																			</g>
																		</g>
																	</g>
																</g>
															</g>
														</g>
													</g>
												</g>
											</g>
										</g>
										<g>
											<g>
												<g>
													<g>
														<g>
															<g>
																<g>
																	<g>
																		<g>
																			<g>
																				<g>
																					<g>
																						<g>
																							<g>
																								<g>
																									<g>
																										<g>
																											<g>
																												<path style="fill:#263238;" d="M253.227,178.263c0.266,0.29,1.944-0.907,4.297-0.86
																													c2.351,0.013,4.057,1.255,4.317,0.97c0.128-0.125-0.14-0.645-0.881-1.205
																													c-0.731-0.558-1.984-1.11-3.45-1.13c-1.466-0.017-2.708,0.501-3.426,1.041
																													C253.35,177.621,253.096,178.132,253.227,178.263z"/>
																											</g>
																										</g>
																									</g>
																								</g>
																							</g>
																						</g>
																					</g>
																				</g>
																			</g>
																		</g>
																	</g>
																</g>
															</g>
														</g>
													</g>
												</g>
											</g>
										</g>
										<g>
											<g>
												<g>
													<g>
														<g>
															<g>
																<g>
																	<g>
																		<g>
																			<g>
																				<g>
																					<g>
																						<g>
																							<g>
																								<g>
																									<g>
																										<g>
																											<g>
																												<g>
																													<path style="fill:#263238;" d="M251.876,173.212c0.454,0.542,2.279,0.02,4.462,0.031
																														c2.183-0.056,4.025,0.429,4.46-0.122c0.191-0.268-0.091-0.809-0.889-1.329
																														c-0.787-0.518-2.111-0.953-3.612-0.939c-1.501,0.017-2.809,0.478-3.577,1.012
																														C251.939,172.401,251.676,172.947,251.876,173.212z"/>
																												</g>
																											</g>
																										</g>
																									</g>
																								</g>
																							</g>
																						</g>
																					</g>
																				</g>
																			</g>
																		</g>
																	</g>
																</g>
															</g>
														</g>
													</g>
												</g>
											</g>
										</g>
									</g>
								</g>
							</g>
							<g>
								<g>
									<g>
										<g>
											<g>
												<g>
													<g>
														<g>
															<g>
																<g>
																	<g>
																		<g>
																			<g>
																				<g>
																					<g>
																						<g>
																							<g>
																								<path style="fill:#A26760;" d="M238.23,190.829c0.066-1.268-1.235-4.338-2.476-4.602
																									c-3.315-0.705-9.357-0.767-9.88,7.722c-0.714,11.605,11.084,9.927,11.126,9.596
																									C237.031,203.286,238,195.208,238.23,190.829z"/>
																							</g>
																						</g>
																					</g>
																				</g>
																			</g>
																		</g>
																	</g>
																</g>
															</g>
														</g>
													</g>
												</g>
											</g>
										</g>
									</g>
								</g>
								<g>
									<g>
										<g>
											<g>
												<g>
													<g>
														<g>
															<g>
																<g>
																	<g>
																		<g>
																			<g>
																				<g>
																					<g>
																						<g>
																							<g>
																								<g>
																									<path style="fill:#7B4B45;" d="M234.058,199.109c-0.049-0.04-0.211,0.129-0.562,0.265
																										c-0.343,0.132-0.923,0.202-1.513-0.062c-1.198-0.525-2.111-2.535-2.038-4.63
																										c0.035-1.058,0.318-2.05,0.744-2.86c0.407-0.827,0.992-1.386,1.616-1.457
																										c0.623-0.105,1.037,0.292,1.159,0.626c0.136,0.335,0.047,0.562,0.108,0.585
																										c0.031,0.031,0.261-0.179,0.197-0.663c-0.034-0.234-0.153-0.516-0.412-0.756
																										c-0.264-0.243-0.666-0.384-1.1-0.364c-0.899,0.007-1.755,0.781-2.222,1.67
																										c-0.517,0.89-0.86,2.003-0.9,3.191c-0.07,2.343,0.993,4.605,2.641,5.193
																										c0.803,0.263,1.499,0.059,1.868-0.194C234.021,199.388,234.097,199.132,234.058,199.109z"/>
																								</g>
																							</g>
																						</g>
																					</g>
																				</g>
																			</g>
																		</g>
																	</g>
																</g>
															</g>
														</g>
													</g>
												</g>
											</g>
										</g>
									</g>
								</g>
							</g>
						</g>
					</g>
					<g>
						<g>
							<g>
								<path style="fill:#263238;" d="M235.28,186.26l2.949,3.058c12.732-12.187,37.616-42.702,36.227-40.884
									c0,0-8.722-3.587-18.19-1.975c-9.468,1.613-27.425,6.352-27.149,17.518C229.391,175.143,235.28,186.26,235.28,186.26z"/>
							</g>
						</g>
					</g>
				</g>
			</g>
			<g>
				<g>
					<path style="fill:#455A64;" d="M220.152,182.411c0,0-0.186-0.941,0.09-2.63c0.275-1.672,1.184-4.081,3.232-6.369
						c1.008-1.146,2.267-2.267,3.759-3.266c1.493-0.998,3.238-1.835,5.129-2.515c3.793-1.375,8.165-2.077,12.645-3.081
						c2.243-0.503,4.395-1.124,6.425-1.872c2.026-0.757,3.925-1.627,5.683-2.555c3.518-1.858,6.424-3.99,8.712-5.94
						c2.292-1.953,3.951-3.753,5.053-5.026c0.568-0.624,0.965-1.146,1.256-1.482c0.287-0.34,0.444-0.514,0.459-0.503
						c0.014,0.011-0.115,0.205-0.376,0.567c-0.266,0.357-0.637,0.901-1.184,1.548c-1.06,1.319-2.687,3.168-4.966,5.173
						c-2.275,2.001-5.186,4.185-8.728,6.086c-1.769,0.949-3.685,1.838-5.731,2.61c-2.048,0.763-4.231,1.396-6.487,1.902
						c-4.509,1.009-8.854,1.694-12.601,3.025c-1.871,0.66-3.578,1.461-5.052,2.423c-1.471,0.963-2.718,2.045-3.722,3.151
						c-2.038,2.209-2.976,4.533-3.307,6.163C220.109,181.464,220.223,182.412,220.152,182.411z"/>
				</g>
			</g>
			<g>
				<g>
					<path style="fill:#455A64;" d="M256.091,168.187c0.013,0.013-0.092,0.132-0.305,0.35c-0.213,0.216-0.545,0.522-1.014,0.86
						c-0.922,0.698-2.429,1.5-4.425,2.059c-1.992,0.581-4.458,0.849-7.166,0.979c-2.701,0.161-5.703,0.202-8.677,1.057
						c-1.488,0.404-2.871,1.035-4.125,1.771c-1.264,0.723-2.388,1.582-3.365,2.497c-1.981,1.811-3.365,3.84-4.276,5.651
						c-1.833,3.658-1.854,6.299-1.997,6.26c-0.018-0.002-0.014-0.16,0.01-0.462c0.036-0.3,0.041-0.752,0.157-1.317
						c0.181-1.138,0.613-2.771,1.5-4.643c0.886-1.866,2.268-3.963,4.279-5.839c0.992-0.946,2.139-1.837,3.434-2.586
						c1.284-0.762,2.706-1.414,4.241-1.832c3.065-0.879,6.101-0.9,8.795-1.036c2.705-0.104,5.127-0.331,7.094-0.855
						c1.969-0.504,3.464-1.236,4.405-1.87C255.605,168.602,256.057,168.15,256.091,168.187z"/>
				</g>
			</g>
			<g>
				<g>
					<path style="fill:#455A64;" d="M222.595,222.516c-0.036,0.001-0.08-0.379-0.13-1.068c-0.051-0.689-0.1-1.687-0.142-2.92
						c-0.086-2.467-0.125-5.878-0.043-9.644c0.084-3.767,0.274-7.174,0.468-9.634c0.097-1.23,0.19-2.225,0.271-2.911
						c0.08-0.686,0.141-1.064,0.177-1.061s0.043,0.385,0.025,1.075c-0.029,0.803-0.064,1.777-0.106,2.918
						c-0.1,2.463-0.231,5.865-0.315,9.624c-0.082,3.758-0.101,7.162-0.11,9.627c-0.009,1.142-0.017,2.116-0.023,2.92
						C222.654,222.133,222.63,222.515,222.595,222.516z"/>
				</g>
			</g>
			<g>
				<g>
					<path style="fill:#455A64;" d="M230.858,225.566c-0.033,0.015-0.19-0.267-0.446-0.791c-0.261-0.522-0.592-1.299-0.956-2.277
						c-0.732-1.953-1.519-4.749-1.92-7.917c-0.393-3.17-0.32-6.074-0.092-8.148c0.112-1.037,0.24-1.872,0.365-2.442
						c0.119-0.571,0.201-0.883,0.237-0.877c0.085,0.014-0.105,1.286-0.235,3.349c-0.132,2.062-0.146,4.925,0.241,8.052
						c0.395,3.126,1.114,5.896,1.751,7.862C230.439,224.346,230.936,225.531,230.858,225.566z"/>
				</g>
			</g>
			<g>
				<g>
					<path style="fill:#455A64;" d="M226.153,197.73c-0.023,0.027-0.324-0.213-0.851-0.676c-0.275-0.221-0.572-0.53-0.899-0.906
						c-0.344-0.363-0.714-0.794-1.071-1.312c-0.77-0.996-1.5-2.313-2.191-3.822c-0.674-1.52-1.22-3.27-1.634-5.138
						c-0.809-3.752-0.804-7.251-0.591-9.737c0.113-1.245,0.254-2.248,0.404-2.931c0.141-0.685,0.235-1.058,0.27-1.052
						c0.092,0.016-0.179,1.534-0.307,4.007c-0.118,2.468-0.064,5.914,0.733,9.603c0.408,1.837,0.929,3.558,1.565,5.058
						c0.654,1.488,1.334,2.797,2.051,3.799C225.023,196.662,226.23,197.649,226.153,197.73z"/>
				</g>
			</g>
			<g>
				<path style="fill:#995F5B;" d="M261.479,193.01c0,1.845-2.722,3.34-6.08,3.34c-3.358,0-6.08-1.495-6.08-3.34
					c0-1.845,2.722-3.34,6.08-3.34C258.757,189.669,261.479,191.165,261.479,193.01z"/>
			</g>
			<g>
				<path style="fill:#995F5B;" d="M288.227,191.939c0,1.845-2.043,3.34-4.564,3.34c-2.521,0-4.564-1.495-4.564-3.34
					c0-1.845,2.043-3.34,4.564-3.34C286.184,188.598,288.227,190.094,288.227,191.939z"/>
			</g>
		</g>
		<g>
			<g>
				<path style="fill:#A26760;" d="M236.671,232.829c-1.357,0.339-32.647,10.939-32.647,10.939l4.182,62.31l8.17,21.293
					l-3.93,25.488l80.509,10.059l-1.976-37.069l14.587-80.738l-34.569-10.027c0,0-14.281,15.116-20.048,15.116
					C245.183,250.199,236.671,232.829,236.671,232.829z"/>
			</g>
			<g>
				<path style="fill:#455A64;" d="M209.396,241.942c0,0-14.054-1.314-20.18,17.31s-14.38,56.237-14.38,56.237l35.706-2.852
					l-2.212-40.153L209.396,241.942z"/>
			</g>
			<g>
				<path style="fill:#455A64;" d="M225.843,236.351l31.672,64.02v40.545l-46.226,0.638l2.373-17.943
					c0,0-11.213-12.41-13.418-24.417c-2.205-12.007,3.781-56.512,3.781-56.512L225.843,236.351z"/>
			</g>
			<g>
				<path style="fill:#FFFFFF;" d="M225.422,251.827c-0.999-2.518-4.663-2.208-5.299,0.426c-0.861,3.565-0.482,7.658,0.095,11.364
					c1.615,10.381,3.525,23.839,6.337,33.961C231.63,282.845,231.165,266.3,225.422,251.827z"/>
			</g>
			<g>
				<path style="fill:#455A64;" d="M297.807,241.942c0,0,14.054-1.314,20.18,17.31c6.126,18.624,13.528,55.252,13.528,55.252
					l-38.029-0.985l5.388-41.034L297.807,241.942z"/>
			</g>
			<g>
				<path style="fill:#455A64;" d="M282.357,237.747l-32.669,63.641v39.529h45.106l-1.361-17.695c0,0,5.217-11.621,7.423-23.628
					c2.205-12.007-0.655-57.552-0.655-57.552L282.357,237.747z"/>
			</g>
			<g style="opacity:0.2;">
				<g>
					<path d="M270.221,309.285c-3.721-6.482-8.598-13.161-15.855-14.948c-4.58-1.128-9.438-0.085-13.824,1.651
						c-5.42,2.144-10.576,5.508-13.611,10.484c-6.283,10.301-1.932,24.186-6.837,35.211v1.804
						c9.85-7.388,15.357-15.34,17.172-28.155c0.459-3.241,3.497-5.95,6.632-6.892c4.218-1.267,8.446,2.004,11.068,5.543
						c4.398,5.938,6.774,13.147,10.931,19.256c4.157,6.109,11.196,11.305,18.437,9.833
						C281.066,331.278,276.313,319.898,270.221,309.285z"/>
				</g>
			</g>
			<g>
				<path style="fill:#FFFFFF;" d="M286.808,286.343c-0.037-0.265-0.082-0.53-0.134-0.795c-0.783-3.905-6.616-4.381-7.718-0.553
					c-3.817,13.254-4.522,30.808-2.006,42.656c3.89-10.348,6.941-21.012,9.115-31.851
					C286.689,292.684,287.243,289.491,286.808,286.343z"/>
			</g>
			<g>
				<path style="fill:#FFFFFF;" d="M277.665,334.039c-7.757-8.932-21.894-15.567-33.723-15.39c-1.035,0.015-2.241,0.167-2.772,1.056
					c-0.485,0.812-0.134,1.915,0.548,2.571c0.682,0.656,1.613,0.971,2.512,1.267C254.675,326.977,267.169,330.764,277.665,334.039
					L277.665,334.039z"/>
			</g>
			<g>
				<path style="fill:#FFFFFF;" d="M228.15,298.518c-7.609-9.033-26.269-17.351-38.022-16.193c-2.209,0.218-4.955,1.258-4.938,3.477
					c0.016,2.085,2.466,3.141,4.482,3.673C199.937,292.185,217.884,295.809,228.15,298.518"/>
			</g>
			<g>
				<g>
					<path style="fill:#263238;" d="M207.483,269.866c0.035,0.009-0.088,0.633-0.341,1.751c-0.262,1.115-0.596,2.739-0.958,4.753
						c-0.37,2.013-0.711,4.426-0.99,7.115c-0.253,2.692-0.429,5.661-0.442,8.781c0.006,3.121,0.175,6.091,0.422,8.784
						c0.272,2.69,0.607,5.105,0.973,7.118c0.357,2.014,0.688,3.639,0.947,4.755c0.249,1.118,0.371,1.742,0.336,1.751
						c-0.035,0.009-0.222-0.597-0.533-1.703c-0.321-1.103-0.707-2.721-1.112-4.736c-0.413-2.013-0.788-4.435-1.088-7.137
						c-0.275-2.705-0.459-5.693-0.465-8.833c0.013-3.139,0.205-6.125,0.486-8.829c0.307-2.701,0.687-5.122,1.105-7.134
						c0.41-2.014,0.8-3.631,1.123-4.734C207.259,270.463,207.449,269.857,207.483,269.866z"/>
				</g>
			</g>
			<g>
				<path style="fill:#FFFFFF;" d="M312.839,270.071c-7.837,8.958-13.818,23.712-14.536,34.88l-0.18,0.374
					c4.813-4.542,8.25-8.567,11.731-14.195c2.886-4.666,5.817-13.453,5.884-19.995C315.753,269.607,313.845,268.921,312.839,270.071
					z"/>
			</g>
			<g>
				<g>
					<path style="fill:#263238;" d="M293.419,269.615c0.017-0.004,0.076,0.16,0.172,0.478c0.106,0.377,0.237,0.838,0.394,1.396
						c0.331,1.215,0.792,2.978,1.327,5.167c1.053,4.374,2.45,10.47,3.051,17.343c0.607,6.875,0.043,13.17-1.01,17.565
						c-0.512,2.202-1.077,3.945-1.534,5.121c-0.212,0.594-0.425,1.038-0.553,1.344c-0.135,0.303-0.214,0.459-0.23,0.452
						c-0.04-0.016,0.199-0.671,0.592-1.863c0.396-1.191,0.904-2.939,1.365-5.133c0.953-4.381,1.453-10.615,0.851-17.442
						c-0.597-6.826-1.93-12.913-2.891-17.303c-0.479-2.138-0.872-3.896-1.165-5.202c-0.12-0.568-0.218-1.036-0.299-1.419
						C293.426,269.792,293.402,269.619,293.419,269.615z"/>
				</g>
			</g>
			<g>
				<g>
					<path style="fill:#263238;" d="M270.844,226.389c6.289,0.557,11.762,5.001,14.894,10.482s4.228,11.892,4.651,18.191
						c0.423,6.299,0.227,12.644,1.022,18.907c-0.637,0.425-4.822,0.425-4.822,0.425l-2.79-9.759l-1.24,9.737
						c-1.868,0.047-9.083,0.005-10.689-0.001C271.87,274.371,270.698,241.709,270.844,226.389"/>
				</g>
				<g>
					<g>
						<path style="fill:#455A64;" d="M282.709,263.161c-0.095-0.001-0.056-1.823-0.321-4.741c-0.26-2.916-0.923-6.926-2.311-11.173
							c-1.401-4.244-3.245-7.867-4.764-10.369c-1.516-2.507-2.628-3.951-2.552-4.008c0.028-0.022,0.326,0.322,0.841,0.967
							c0.523,0.638,1.22,1.609,2.023,2.847c1.611,2.471,3.531,6.11,4.946,10.401c1.404,4.293,2.016,8.362,2.183,11.307
							c0.087,1.473,0.102,2.669,0.059,3.492C282.78,262.708,282.745,263.162,282.709,263.161z"/>
					</g>
				</g>
			</g>
		</g>
		<g>
			<g>
				<path style="fill:#455A64;" d="M285.687,353.381l-73.824-0.865l-1.078,10.786c0,0-20.483,25.244-23.194,42.647
					c-2.016,12.941-4.143,44.478-6.202,56.497c2.599,0.377,5.83,0.52,9.545,0.378l123.116,0.193c3.78,0,7.949-0.944,6.891-4.573
					l-27.945-94.727l-0.492-9.756L285.687,353.381z"/>
			</g>
			<g>
				<g>
					<path style="fill:#263238;" d="M293.642,364.136c0,0.018-0.29,0.035-0.842,0.051c-0.599,0.011-1.403,0.026-2.414,0.045
						c-2.148,0.01-5.169,0.023-8.88,0.04c-7.498-0.004-17.856-0.113-29.294-0.292c-11.419-0.173-21.753-0.33-29.294-0.444
						c-3.71-0.053-6.73-0.095-8.877-0.126c-1.011-0.022-1.815-0.04-2.414-0.053c-0.552-0.018-0.842-0.036-0.842-0.054
						c0-0.018,0.29-0.035,0.842-0.051c0.599-0.011,1.403-0.026,2.414-0.045c2.148-0.01,5.169-0.023,8.88-0.04
						c7.498,0.004,17.857,0.113,29.299,0.292c11.415,0.173,21.748,0.33,29.289,0.444c3.71,0.053,6.73,0.095,8.878,0.126
						c1.011,0.022,1.815,0.04,2.414,0.053C293.352,364.1,293.642,364.118,293.642,364.136z"/>
				</g>
			</g>
			<g>
				<path style="fill:#FFFFFF;" d="M208.082,425.665c10.137,5.821,37.508,13.19,49.182,12.609
					c-7.811-9.885-35.205-22.079-47.397-25.255"/>
			</g>
			<g>
				<path style="fill:#FFFFFF;" d="M261.357,431.104c-4.603-7.988-10.261-15.707-12.371-24.682
					c-2.11-8.975-1.337-19.076,4.203-26.445C261.839,395.334,264.791,413.817,261.357,431.104"/>
			</g>
			<g>
				<path style="fill:#FFFFFF;" d="M272.785,431.88c2.154-10.971,7.725-20.883,16.564-27.731c0.78-0.604,1.599-1.189,2.535-1.498
					c0.937-0.31,2.02-0.312,2.859,0.207c0.973,0.601,1.449,1.804,1.448,2.948c-0.002,1.144-0.41,2.246-0.872,3.293
					c-2.184,4.957-5.647,9.272-9.607,12.968C281.754,425.762,277.292,428.875,272.785,431.88"/>
			</g>
			<g>
				<g>
					<path style="fill:#263238;" d="M205.145,462.824c-0.009,0-0.014-0.088-0.016-0.259c0.001-0.201,0.003-0.45,0.005-0.758
						c0.017-0.707,0.04-1.68,0.07-2.913c0.061-2.53,0.231-6.188,0.516-10.703c0.276-4.516,0.726-9.887,1.344-15.838
						c0.645-5.948,1.473-12.475,2.534-19.298c1.08-6.822,2.292-13.291,3.501-19.152c1.235-5.855,2.452-11.105,3.572-15.489
						c1.113-4.386,2.072-7.92,2.788-10.346c0.349-1.182,0.625-2.116,0.826-2.794c0.092-0.293,0.167-0.531,0.227-0.723
						c0.054-0.162,0.086-0.244,0.094-0.241c0.009,0.002-0.006,0.089-0.043,0.256c-0.047,0.196-0.105,0.438-0.178,0.737
						c-0.178,0.684-0.422,1.626-0.731,2.819c-0.656,2.442-1.56,5.988-2.626,10.381c-1.074,4.391-2.253,9.644-3.46,15.498
						c-1.181,5.859-2.377,12.322-3.456,19.135c-1.06,6.814-1.901,13.331-2.571,19.269c-0.644,5.941-1.131,11.302-1.454,15.811
						c-0.331,4.508-0.557,8.161-0.68,10.686c-0.071,1.23-0.127,2.202-0.168,2.908c-0.023,0.307-0.042,0.555-0.057,0.756
						C205.166,462.737,205.154,462.824,205.145,462.824z"/>
				</g>
			</g>
		</g>
		<g>
			<g>
				<g>
					<path style="fill:#263238;" d="M262.328,298.72h-22.116c-1.926,0-3.487-1.561-3.487-3.487v-41.677
						c0-1.926,1.561-3.487,3.487-3.487h22.116c1.926,0,3.487,1.561,3.487,3.487v41.677
						C265.815,297.159,264.253,298.72,262.328,298.72z"/>
				</g>
				<g>
					<path style="fill:#455A64;" d="M241.655,263.187L241.655,263.187c-1.127,0-2.041-0.914-2.041-2.041v-5.167
						c0-1.127,0.914-2.041,2.041-2.041l0,0c1.128,0,2.041,0.914,2.041,2.041v5.167C243.696,262.273,242.782,263.187,241.655,263.187
						z"/>
				</g>
				<g>
					<path style="fill:#E0E0E0;" d="M243.345,256.249c0,0.891-0.722,1.613-1.613,1.613c-0.891,0-1.613-0.722-1.613-1.613
						c0-0.891,0.722-1.613,1.613-1.613C242.623,254.636,243.345,255.358,243.345,256.249z"/>
				</g>
			</g>
			<g>
				<g>
					<g>
						<path style="fill:#A26760;" d="M185.567,314.624c0,0,1.75,17.777,5.114,28.366c3.15,9.916,15.825,18.766,26.023,6.112
							c10.198-12.653,16.915-41.171,16.915-41.171l-13.704-7.176l-11.433,17.186l-1.456-5.128L185.567,314.624z"/>
					</g>
					<g>
						<path style="fill:#A26760;" d="M245.451,270.185c0.022-0.789-0.729-1.367-1.481-1.129c-2.984,0.945-9.65,3.221-11.591,3.37
							c-2.455,0.189-9.82,21.152-9.82,21.152l-2.644,7.177l11.143,11.331l11.898-8.687l13.786-4.721c0,0,1.888-2.455,0.755-3.211
							c-1.133-0.755-11.52,1.133-11.52,1.133s1.7-2.644,3.21-3.399c1.511-0.756,13.585-7.412,14.92-8.121
							c3.192-1.696,3.022-4.155-0.944-3.777c-3.966,0.378-19.452,6.043-19.452,6.043s15.828-8.128,17.347-8.978
							c2.917-1.633,2.671-3.675,0.027-3.864c-2.644-0.189-25.118,7.365-25.118,7.365l-1.322-1.133l1.322-3.022
							c0,0,8.876-3.211,9.254-5.288C245.373,271.589,245.433,270.813,245.451,270.185z"/>
					</g>
					<g>
						<g>
							<path style="fill:#7B4B45;" d="M220.369,300.755c0.029,0.021-0.257,0.479-0.8,1.289c-0.593,0.89-1.362,2.045-2.286,3.435
								c-1.924,2.905-4.491,6.976-7.381,11.445c-2.892,4.47-5.661,8.426-7.822,11.172c-1.077,1.374-1.976,2.465-2.63,3.191
								c-0.648,0.73-1.019,1.123-1.046,1.099c-0.027-0.023,0.291-0.46,0.89-1.229c0.604-0.764,1.457-1.886,2.493-3.284
								c2.079-2.793,4.789-6.767,7.678-11.233c2.887-4.465,5.508-8.511,7.513-11.368c1.001-1.43,1.828-2.574,2.426-3.346
								C219.998,301.151,220.34,300.733,220.369,300.755z"/>
						</g>
					</g>
					<g>
						<g>
							<path style="fill:#7B4B45;" d="M233.182,310.162c0.017,0.005-0.014,0.185-0.09,0.525c-0.096,0.396-0.214,0.884-0.358,1.478
								c-0.331,1.279-0.835,3.123-1.527,5.382c-1.381,4.517-3.541,10.69-6.454,17.29c-1.47,3.292-2.911,6.417-4.494,9.129
								c-1.57,2.715-3.301,4.984-4.988,6.66c-1.683,1.684-3.285,2.78-4.438,3.432c-0.58,0.322-1.044,0.546-1.365,0.682
								c-0.322,0.134-0.494,0.197-0.501,0.181c-0.019-0.041,0.647-0.345,1.763-1.037c1.109-0.699,2.654-1.824,4.279-3.516
								c1.629-1.685,3.302-3.941,4.835-6.642c1.542-2.695,2.967-5.816,4.433-9.099c2.904-6.579,5.111-12.712,6.58-17.191
								c0.735-2.24,1.292-4.065,1.683-5.325c0.182-0.583,0.331-1.063,0.452-1.451C233.1,310.328,233.165,310.157,233.182,310.162z"
								/>
						</g>
					</g>
				</g>
				<g>
					<g>
						<path style="fill:#A26760;" d="M255.602,266.09l10.733,7.983l6.257,10.705l-0.733,14.811l-10.265,13.931
							c0,0-4.986-1.613-5.426-4.106c-0.44-2.493-0.587-4.839-0.587-4.839l-2.933-3.373c0,0-15.544-6.012-14.957-11.731
							c0.587-5.719,4.253-1.284,7.332,0.898c3.079,2.182,12.83,5.829,12.83,5.829l-0.357-0.73c0,0-16.025-13.813-17.166-16.431
							s-0.754-2.635,1.093-3.66c1.848-1.025,5.649,2.495,8.585,4.855c2.936,2.361,11.145,9.385,11.878,9.238
							c0.733-0.147-0.147-1.906-0.147-1.906s-4.964-6.756-8.212-8.527c-3.248-1.771-9.56-5.098-8.153-7.744
							c1.407-2.646,1.407-2.352,4.194-1.326c2.786,1.027,12.681,7.559,12.681,7.559s-11.215-8.585-11.215-10.198
							c0-0.979,1.351-1.472,2.413-1.708C254.2,265.452,254.985,265.631,255.602,266.09z"/>
					</g>
				</g>
			</g>
			<g>
				<g>
					<g>
						<g>
							<path style="fill:#7B4B45;" d="M261.594,313.519c0.008-0.004,0.064,0.08,0.166,0.248c0.114,0.195,0.26,0.443,0.442,0.754
								c0.397,0.7,0.952,1.678,1.658,2.922c1.447,2.576,3.51,6.247,6.051,10.77c1.29,2.269,2.702,4.751,4.216,7.414
								c1.528,2.659,3.185,5.476,5.196,8.268c1.988,2.803,4.239,5.639,6.848,8.31c1.294,1.345,2.717,2.61,4.244,3.771
								c1.532,1.146,3.197,2.202,5.048,2.831c1.838,0.646,3.826,0.749,5.661,0.281c1.841-0.452,3.508-1.397,4.946-2.552
								c1.445-1.158,2.647-2.551,3.707-3.986c1.071-1.433,1.942-2.964,2.712-4.492c1.526-3.069,2.535-6.191,3.419-9.12
								c0.874-2.934,1.594-5.697,2.229-8.224c1.248-5.061,2.145-9.185,2.756-12.036c0.298-1.398,0.533-2.497,0.701-3.284
								c0.078-0.351,0.14-0.632,0.189-0.853c0.045-0.192,0.072-0.289,0.081-0.288c0.009,0.002-0.001,0.102-0.029,0.297
								c-0.036,0.223-0.081,0.507-0.138,0.863c-0.145,0.792-0.348,1.898-0.605,3.305c-0.55,2.865-1.393,7.004-2.597,12.083
								c-0.613,2.537-1.313,5.31-2.173,8.259c-0.869,2.942-1.868,6.091-3.403,9.21c-0.774,1.551-1.653,3.108-2.74,4.572
								c-1.077,1.465-2.301,2.892-3.788,4.089c-1.479,1.192-3.21,2.182-5.144,2.658c-1.927,0.493-4.031,0.384-5.952-0.292
								c-1.929-0.657-3.63-1.741-5.19-2.909c-1.555-1.184-2.993-2.467-4.298-3.828c-2.63-2.704-4.886-5.564-6.875-8.391
								c-2.012-2.814-3.668-5.663-5.179-8.33c-1.495-2.675-2.889-5.169-4.163-7.449c-2.519-4.568-4.529-8.28-5.907-10.852
								c-0.669-1.264-1.196-2.258-1.572-2.969c-0.164-0.321-0.294-0.577-0.397-0.779
								C261.627,313.616,261.586,313.523,261.594,313.519z"/>
						</g>
					</g>
					<g>
						<g>
							<path style="fill:none;stroke:#A98986;stroke-width:0.05;stroke-miterlimit:10;" d="M294.533,326.877"/>
						</g>
					</g>
				</g>
				<g>
					<path style="fill:#A26760;" d="M271.227,295.69c0,0,21.331,30.397,23.306,31.187l2.261-13.358l25.07,0.735
						c0,0-3.821,20.723-7.773,30.799c-3.951,10.076-11.018,16.595-18.647,14.027c-7.629-2.568-15.662-13.574-19.29-19.557
						c-3.538-5.835-14.561-26.004-14.561-26.004L271.227,295.69z"/>
				</g>
				<g>
					<g>
						<path style="fill:#7B4B45;" d="M303.863,338.012c-0.147,0.077-1.576-2.948-4.211-6.059c-2.611-3.134-5.343-5.062-5.243-5.194
							c0.036-0.053,0.766,0.361,1.839,1.187c1.073,0.824,2.468,2.087,3.802,3.672c1.33,1.587,2.334,3.179,2.96,4.378
							C303.639,337.195,303.921,337.985,303.863,338.012z"/>
					</g>
				</g>
				<g>
					<g>
						<path style="fill:#7B4B45;" d="M271.836,300.755c-0.006,0-0.008-0.091-0.005-0.27c0.005-0.197,0.012-0.458,0.02-0.797
							c0.026-0.723,0.064-1.762,0.112-3.108c0.115-2.743,0.283-6.733,0.496-11.809l0.018,0.074
							c-1.819-3.089-3.932-6.679-6.291-10.685l0.046,0.051c-1.892-1.4-3.891-2.88-5.989-4.432c-1.049-0.777-2.123-1.572-3.22-2.384
							c-0.561-0.394-1.08-0.864-1.677-1.132c-0.602-0.277-1.283-0.405-1.954-0.344c-0.659,0.062-1.354,0.312-1.833,0.747
							c-0.226,0.205-0.361,0.537-0.289,0.763c0.107,0.276,0.337,0.576,0.566,0.846c0.946,1.098,2.079,2.099,3.219,3.105
							c2.302,2.002,4.769,3.976,7.337,5.958l-0.271,0.381c-2.782-1.815-5.671-3.665-8.695-5.449
							c-1.528-0.871-3.037-1.799-4.735-2.369c-0.84-0.286-1.738-0.776-2.192-0.008c-0.258,0.329-0.475,0.734-0.694,1.13
							c-0.107,0.2-0.231,0.408-0.274,0.587c-0.092,0.18-0.088,0.377-0.088,0.574c0.05,0.809,0.693,1.543,1.319,2.166
							c0.651,0.633,1.405,1.18,2.175,1.702c1.547,1.05,3.217,1.927,4.902,2.872c1.693,1.043,3.031,2.478,4.361,3.911
							c1.314,1.455,2.557,2.981,3.75,4.573l0.014,0.019l0.009,0.019c0.176,0.369,0.325,0.739,0.42,1.167
							c0.036,0.216,0.093,0.44-0.016,0.743c-0.054,0.15-0.211,0.309-0.378,0.348c-0.057,0.039-0.24,0.021-0.295,0.001
							c-0.06-0.022-0.135-0.043-0.181-0.069c-0.785-0.41-1.417-0.92-2.097-1.421c-3.67-2.819-7.102-5.796-10.576-8.596
							c-1.724-1.399-3.403-2.883-5.316-3.815c-0.479-0.204-0.983-0.37-1.454-0.343c-0.249,0.01-0.419,0.081-0.664,0.208
							l-0.703,0.392c-0.468,0.273-0.826,0.544-0.768,0.995c0.03,0.459,0.241,0.967,0.434,1.45c0.1,0.247,0.203,0.491,0.344,0.686
							c0.117,0.211,0.265,0.417,0.441,0.617c0.318,0.41,0.671,0.799,1.029,1.183c0.711,0.77,1.449,1.513,2.192,2.24
							c1.484,1.456,2.984,2.86,4.476,4.228c2.982,2.738,5.926,5.343,8.785,7.829l0.468,0.407l-0.619-0.001
							c-0.501-0.001-0.98-0.001-1.457-0.002l-0.042,0l-0.037-0.014c-2.079-0.782-4.087-1.6-6.024-2.468
							c-1.924-0.886-3.822-1.758-5.464-2.99c-0.809-0.614-1.56-1.265-2.324-1.867c-0.762-0.585-1.542-1.198-2.393-1.438
							c-0.424-0.125-0.837-0.044-1.118,0.249c-0.279,0.298-0.44,0.727-0.552,1.153c-0.22,0.875-0.315,1.767-0.02,2.57
							c0.583,1.631,1.921,2.836,3.169,3.874c1.283,1.036,2.633,1.891,3.951,2.662c2.647,1.527,5.195,2.705,7.512,3.649l0.032,0.013
							l0.021,0.024c1.134,1.315,2.062,2.391,2.919,3.385l0.025,0.029l0.003,0.04c0.143,1.926,0.325,3.656,0.632,5.08
							c0.21,0.687,0.695,1.199,1.151,1.602c0.465,0.405,0.934,0.716,1.367,0.967c0.863,0.508,1.566,0.809,2.035,1.008
							c0.471,0.197,0.712,0.295,0.712,0.295s-1.031-0.23-2.808-1.199c-0.441-0.246-0.922-0.552-1.404-0.959
							c-0.471-0.406-0.984-0.923-1.223-1.663c-0.336-1.469-0.529-3.17-0.693-5.117l0.028,0.068c-0.865-0.987-1.801-2.055-2.947-3.36
							l0.053,0.037c-2.342-0.932-4.902-2.095-7.578-3.617c-1.332-0.768-2.699-1.623-4.009-2.669
							c-1.274-1.056-2.655-2.258-3.305-4.027c-0.147-0.44-0.244-0.914-0.21-1.397c0.022-0.474,0.094-0.926,0.211-1.392
							c0.122-0.458,0.284-0.936,0.646-1.33c0.368-0.409,1.015-0.518,1.498-0.362c0.993,0.283,1.765,0.913,2.55,1.503
							c0.776,0.607,1.529,1.254,2.325,1.853c1.587,1.185,3.476,2.05,5.391,2.924c1.927,0.857,3.935,1.669,6.002,2.44l-0.079-0.014
							c0.477-0.001,0.955-0.001,1.457-0.002l-0.151,0.407c-2.87-2.483-5.82-5.082-8.812-7.82c-1.497-1.367-3.002-2.772-4.495-4.232
							c-0.748-0.729-1.49-1.475-2.212-2.255c-0.362-0.389-0.722-0.783-1.056-1.213c-0.177-0.2-0.34-0.424-0.484-0.68
							c-0.167-0.244-0.27-0.492-0.372-0.741c-0.197-0.506-0.425-1.001-0.473-1.62c-0.027-0.306,0.08-0.686,0.31-0.924
							c0.22-0.241,0.469-0.387,0.707-0.533l0.715-0.4c0.231-0.126,0.575-0.27,0.874-0.271c0.62-0.032,1.179,0.166,1.7,0.385
							c2.035,0.993,3.701,2.484,5.434,3.882c3.475,2.798,6.917,5.78,10.562,8.58c0.657,0.488,1.336,1.017,1.998,1.362
							c0.044,0.024,0.069,0.025,0.104,0.041c0.026,0.016,0.007-0.011,0.003,0.012c-0.002,0.051,0.005,0.104,0.021,0.155
							c0.008,0.037-0.059-0.297-0.031-0.156l0,0l0.001,0l0.001-0.001l0.002-0.002l0.004-0.003c0.033-0.009,0.029-0.011,0.05-0.047
							c0.039-0.079,0.026-0.274-0.012-0.442c-0.076-0.35-0.22-0.714-0.375-1.039l0.023,0.038c-1.177-1.572-2.417-3.095-3.715-4.533
							c-1.307-1.415-2.653-2.841-4.236-3.814c-1.656-0.931-3.359-1.826-4.928-2.893c-0.786-0.533-1.556-1.092-2.243-1.76
							c-0.342-0.335-0.667-0.691-0.941-1.098c-0.148-0.193-0.239-0.436-0.358-0.652c-0.07-0.242-0.168-0.488-0.171-0.75
							c-0.059-0.531,0.219-1.062,0.424-1.433c0.226-0.405,0.44-0.813,0.745-1.203c0.143-0.194,0.351-0.389,0.613-0.508
							c0.272-0.126,0.568-0.107,0.809-0.063c0.492,0.096,0.909,0.272,1.335,0.427c1.733,0.585,3.287,1.541,4.808,2.413
							c3.036,1.798,5.921,3.654,8.706,5.48l-0.271,0.381c-2.572-1.995-5.036-3.977-7.344-5.996
							c-1.147-1.019-2.276-2.018-3.257-3.164c-0.24-0.294-0.481-0.579-0.641-0.988c-0.136-0.499,0.112-0.916,0.399-1.2
							c0.604-0.538,1.343-0.781,2.09-0.857c0.748-0.066,1.499,0.08,2.161,0.387c0.678,0.313,1.192,0.792,1.745,1.181
							c1.094,0.817,2.164,1.617,3.21,2.398c2.091,1.563,4.083,3.052,5.968,4.461l0.029,0.021l0.017,0.03
							c2.333,4.021,4.424,7.624,6.223,10.724l0.02,0.035l-0.002,0.039c-0.267,5.073-0.478,9.061-0.622,11.803
							c-0.079,1.345-0.139,2.382-0.182,3.105c-0.024,0.338-0.042,0.599-0.056,0.795
							C271.852,300.665,271.842,300.755,271.836,300.755z"/>
					</g>
				</g>
				<g>
					<g>
						<path style="fill:#7B4B45;" d="M261.594,313.519c0.008-0.004,0.064,0.08,0.166,0.248c0.114,0.195,0.26,0.443,0.442,0.754
							c0.397,0.7,0.952,1.678,1.658,2.922c1.447,2.576,3.51,6.247,6.051,10.77c1.29,2.269,2.702,4.751,4.216,7.414
							c1.528,2.659,3.185,5.476,5.196,8.268c1.988,2.803,4.239,5.639,6.848,8.31c1.294,1.345,2.717,2.61,4.244,3.771
							c1.532,1.146,3.197,2.202,5.048,2.831c1.838,0.646,3.826,0.749,5.661,0.281c1.841-0.452,3.508-1.397,4.946-2.552
							c1.445-1.158,2.647-2.551,3.707-3.986c1.071-1.433,1.942-2.964,2.712-4.492c1.526-3.069,2.535-6.191,3.419-9.12
							c0.874-2.934,1.594-5.697,2.229-8.224c1.248-5.061,2.145-9.185,2.756-12.036c0.298-1.398,0.533-2.497,0.701-3.284
							c0.078-0.351,0.14-0.632,0.189-0.853c0.045-0.192,0.072-0.289,0.081-0.288c0.009,0.002-0.001,0.102-0.029,0.297
							c-0.036,0.223-0.081,0.507-0.138,0.863c-0.145,0.792-0.348,1.898-0.605,3.305c-0.55,2.865-1.393,7.004-2.597,12.083
							c-0.613,2.537-1.313,5.31-2.173,8.259c-0.869,2.942-1.868,6.091-3.403,9.21c-0.774,1.551-1.653,3.108-2.74,4.572
							c-1.077,1.465-2.301,2.892-3.788,4.089c-1.479,1.192-3.21,2.182-5.144,2.658c-1.927,0.493-4.031,0.384-5.952-0.292
							c-1.929-0.657-3.63-1.741-5.19-2.909c-1.555-1.184-2.993-2.467-4.298-3.828c-2.63-2.704-4.886-5.564-6.875-8.391
							c-2.012-2.814-3.668-5.663-5.179-8.33c-1.495-2.675-2.889-5.169-4.163-7.449c-2.519-4.568-4.529-8.28-5.907-10.852
							c-0.669-1.264-1.196-2.258-1.572-2.969c-0.164-0.321-0.294-0.577-0.397-0.779
							C261.627,313.616,261.586,313.523,261.594,313.519z"/>
					</g>
				</g>
				<g>
					<g>
						<path style="fill:none;stroke:#A98986;stroke-width:0.05;stroke-miterlimit:10;" d="M294.533,326.877"/>
					</g>
				</g>
			</g>
		</g>
	</g>
</g>
<g id="Speech_Bubbles">
	<g>
		<g>
			<path style="fill:#FF725E;" d="M239.196,72.712l12.631,18.06c1.384,1.979,4.329,1.929,5.647-0.094l12.226-18.783L239.196,72.712z
				"/>
		</g>
		<g>
			<path style="fill:#FF725E;" d="M320.733,77.906H181.99c-6.075,0-11-4.925-11-11V38.529c0-6.075,4.925-11,11-11h138.743
				c6.075,0,11,4.925,11,11v28.376C331.733,72.981,326.808,77.906,320.733,77.906z"/>
		</g>
		<g>
			<path style="fill:#FFFFFF;" d="M251.353,48.863c-1.152-2.105-3.061-2.432-4.345-1.952c-1.395,0.521-2.12,1.952-2.12,1.952
				s-0.724-1.431-2.12-1.952c-1.284-0.48-3.193-0.153-4.345,1.952c-2.404,4.393,6.465,10.111,6.465,10.111
				S253.757,53.256,251.353,48.863z"/>
		</g>
		<g>
			<path style="fill:#FFFFFF;" d="M298.308,52.717c0-3.552-2.88-6.432-6.432-6.432c-3.553,0-6.432,2.88-6.432,6.432
				c0,3.552,2.88,6.432,6.432,6.432c1.061,0,2.06-0.262,2.942-0.717l-0.006,0.008l3.496,0.54l-0.923-2.955
				C297.967,55.058,298.308,53.929,298.308,52.717z"/>
		</g>
		<g>
			<g>
				<path style="fill:#FFFFFF;" d="M189.16,58.974h12.479c0,0-1.205-4.784-6.314-4.784C189.97,54.19,189.16,58.974,189.16,58.974z"
					/>
			</g>
			<g>
				<path style="fill:#FFFFFF;" d="M198.813,50.143c0,1.892-1.534,3.425-3.425,3.425c-1.892,0-3.425-1.534-3.425-3.425
					c0-1.892,1.533-3.425,3.425-3.425C197.28,46.717,198.813,48.251,198.813,50.143z"/>
			</g>
		</g>
		<g>
			<path style="fill:#FFFFFF;" d="M211.17,55.415c0,1.79-1.24,3.168-3.75,3.168c-1.561,0-3.015-0.582-3.765-1.439l0.398-0.597
				c0.643,0.75,1.913,1.316,3.352,1.316c1.974,0,2.984-0.995,2.984-2.419c0-1.53-0.934-2.464-3.841-2.464h-2.173l0.567-5.188h5.678
				v0.704h-5.02l-0.414,3.78h1.531C209.976,52.277,211.17,53.517,211.17,55.415z"/>
			<path style="fill:#FFFFFF;" d="M212.639,53.15c0-3.352,1.729-5.433,4.193-5.433c2.464,0,4.193,2.081,4.193,5.433
				c0,3.352-1.729,5.433-4.193,5.433C214.368,58.583,212.639,56.501,212.639,53.15z M220.245,53.15c0-2.984-1.393-4.714-3.413-4.714
				c-2.02,0-3.413,1.729-3.413,4.714c0,2.984,1.393,4.714,3.413,4.714C218.852,57.864,220.245,56.134,220.245,53.15z"/>
			<path style="fill:#FFFFFF;" d="M226.335,54.236l-2.081,1.898v2.372h-0.766V47.15h0.766v8.035l5.111-4.667h0.98l-3.443,3.229
				l3.78,4.76h-0.949L226.335,54.236z"/>
		</g>
		<g>
			<path style="fill:#FFFFFF;" d="M263.714,57.93v0.727h-7.604v-0.569l4.679-4.648c1.313-1.312,1.565-2.087,1.565-2.924
				c0-1.391-0.965-2.261-2.798-2.261c-1.392,0-2.419,0.411-3.178,1.281l-0.569-0.506c0.838-0.964,2.15-1.518,3.81-1.518
				c2.166,0,3.557,1.122,3.557,2.924c0,1.059-0.348,1.992-1.802,3.43l-4.078,4.063H263.714z"/>
			<path style="fill:#FFFFFF;" d="M268.981,54.246l-2.15,1.961v2.45h-0.79V46.927h0.79v8.299l5.28-4.822h1.012l-3.557,3.336
				l3.904,4.917h-0.98L268.981,54.246z"/>
		</g>
		<g>
			<path style="fill:#FFFFFF;" d="M309.334,55.86c0,1.834-1.328,3.193-3.873,3.193c-1.629,0-3.13-0.601-3.905-1.486l0.411-0.617
				c0.68,0.774,1.977,1.359,3.494,1.359c1.991,0,3.051-0.948,3.051-2.45c0-1.486-1.012-2.45-3.225-2.45h-0.696v-0.585l3.272-4.189
				h-5.896v-0.727h6.94v0.569l-3.32,4.252C308.1,52.793,309.334,54.058,309.334,55.86z"/>
			<path style="fill:#FFFFFF;" d="M314.792,54.564l-2.15,1.96v2.45h-0.79V47.245h0.79v8.299l5.28-4.822h1.012l-3.557,3.335
				l3.904,4.917h-0.98L314.792,54.564z"/>
		</g>
	</g>
	<g>
		<g>
			<path style="fill:#FF725E;" d="M326.014,227.834l12.631,18.06c1.384,1.979,4.33,1.929,5.647-0.094l12.226-18.783L326.014,227.834
				z"/>
		</g>
		<g>
			<path style="fill:#FF725E;" d="M356.415,237.827h-32.195c-6.386,0-11.564-5.177-11.564-11.563v-17.105
				c0-6.386,5.177-11.564,11.564-11.564h32.195c6.386,0,11.564,5.177,11.564,11.564v17.105
				C367.979,232.65,362.802,237.827,356.415,237.827z"/>
		</g>
		<g>
			<path style="fill:#FFFFFF;" d="M353.048,221.04h-2.324v3.067h-0.79v-3.067h-6.308v-0.585l6.007-7.414h0.901l-5.897,7.288h5.312
				v-2.703h0.775v2.703h2.324V221.04z"/>
		</g>
		<g>
			<path style="fill:#FFFFFF;" d="M339.897,217.954c0-3.552-2.88-6.432-6.432-6.432s-6.432,2.88-6.432,6.432
				c0,3.552,2.88,6.432,6.432,6.432c1.061,0,2.06-0.262,2.942-0.717l-0.006,0.008l3.496,0.54l-0.924-2.955
				C339.555,220.295,339.897,219.165,339.897,217.954z"/>
		</g>
	</g>
	<g>
		<g>
			<path style="fill:#FF725E;" d="M396.552,159.928h-73.025c-7.319,0-13.252-5.933-13.252-13.252v-22.684
				c0-7.319,5.933-13.252,13.252-13.252h73.025c7.319,0,13.252,5.933,13.252,13.252v22.684
				C409.803,153.995,403.87,159.928,396.552,159.928z"/>
		</g>
		<g>
			<path style="fill:#FF725E;" d="M344.346,153.959l12.539,17.928c1.482,2.118,4.636,2.066,6.046-0.101l12.139-18.65
				L344.346,153.959z"/>
		</g>
		<g>
			<path style="fill:#FFFFFF;" d="M379.336,131.352c-1.152-2.105-3.061-2.432-4.345-1.952c-1.395,0.521-2.12,1.952-2.12,1.952
				s-0.724-1.431-2.12-1.952c-1.284-0.48-3.193-0.153-4.345,1.952c-2.404,4.393,6.465,10.111,6.465,10.111
				S381.739,135.745,379.336,131.352z"/>
		</g>
		<g>
			<g>
				<path style="fill:#FFFFFF;" d="M320.147,141.463h12.479c0,0-1.205-4.784-6.313-4.784
					C320.957,136.679,320.147,141.463,320.147,141.463z"/>
			</g>
			<g>
				<path style="fill:#FFFFFF;" d="M329.8,132.631c0,1.892-1.534,3.425-3.425,3.425c-1.892,0-3.425-1.533-3.425-3.425
					c0-1.892,1.534-3.425,3.425-3.425C328.267,129.206,329.8,130.74,329.8,132.631z"/>
			</g>
		</g>
		<g>
			<path style="fill:#FFFFFF;" d="M337.779,130.282v10.713h-0.78v-10.009h-2.617v-0.704H337.779z"/>
			<path style="fill:#FFFFFF;" d="M340.488,135.639c0-3.352,1.729-5.433,4.193-5.433c2.464,0,4.193,2.081,4.193,5.433
				c0,3.352-1.729,5.433-4.193,5.433C342.217,141.072,340.488,138.99,340.488,135.639z M348.094,135.639
				c0-2.984-1.393-4.714-3.413-4.714c-2.021,0-3.413,1.729-3.413,4.714c0,2.984,1.393,4.714,3.413,4.714
				C346.702,140.352,348.094,138.623,348.094,135.639z"/>
			<path style="fill:#FFFFFF;" d="M354.184,136.725l-2.081,1.898v2.372h-0.766v-11.356h0.766v8.035l5.111-4.668h0.98l-3.443,3.229
				l3.78,4.76h-0.949L354.184,136.725z"/>
		</g>
		<g>
			<path style="fill:#FFFFFF;" d="M391.005,140.418v0.727h-7.603v-0.569l4.679-4.648c1.313-1.312,1.565-2.086,1.565-2.924
				c0-1.391-0.965-2.261-2.798-2.261c-1.392,0-2.419,0.411-3.178,1.281l-0.569-0.506c0.838-0.964,2.15-1.518,3.81-1.518
				c2.166,0,3.558,1.122,3.558,2.924c0,1.059-0.349,1.992-1.803,3.43l-4.078,4.063H391.005z"/>
			<path style="fill:#FFFFFF;" d="M396.273,136.734l-2.15,1.96v2.45h-0.79v-11.729h0.79v8.299l5.28-4.822h1.012l-3.557,3.335
				l3.904,4.917h-0.98L396.273,136.734z"/>
		</g>
	</g>
	<g>
		<g>
			<path style="fill:#FF725E;" d="M168.389,159.46H95.364c-7.319,0-13.252-5.933-13.252-13.252v-22.684
				c0-7.319,5.933-13.252,13.252-13.252h73.025c7.319,0,13.252,5.933,13.252,13.252v22.684
				C181.641,153.527,175.708,159.46,168.389,159.46z"/>
		</g>
		<g>
			<path style="fill:#FF725E;" d="M121.299,153.49l12.539,17.928c1.482,2.118,4.636,2.066,6.046-0.101l12.139-18.65L121.299,153.49z
				"/>
		</g>
		<g>
			<path style="fill:#FFFFFF;" d="M153.41,130.884c-1.152-2.105-3.061-2.432-4.345-1.952c-1.395,0.521-2.12,1.952-2.12,1.952
				s-0.724-1.431-2.12-1.952c-1.284-0.48-3.193-0.153-4.345,1.952c-2.404,4.393,6.465,10.111,6.465,10.111
				S155.814,135.276,153.41,130.884z"/>
		</g>
		<g>
			<g>
				<path style="fill:#FFFFFF;" d="M97.415,141.717h12.479c0,0-1.205-4.784-6.313-4.784
					C98.225,136.933,97.415,141.717,97.415,141.717z"/>
			</g>
			<g>
				<path style="fill:#FFFFFF;" d="M107.068,132.885c0,1.892-1.534,3.425-3.425,3.425c-1.892,0-3.425-1.533-3.425-3.425
					c0-1.892,1.534-3.425,3.425-3.425C105.534,129.46,107.068,130.993,107.068,132.885z"/>
			</g>
		</g>
		<g>
			<path style="fill:#FFFFFF;" d="M115.046,130.535v10.713h-0.78v-10.009h-2.617v-0.704H115.046z"/>
			<path style="fill:#FFFFFF;" d="M117.755,135.892c0-3.352,1.73-5.433,4.193-5.433c2.464,0,4.193,2.081,4.193,5.433
				c0,3.352-1.729,5.433-4.193,5.433C119.485,141.325,117.755,139.243,117.755,135.892z M125.362,135.892
				c0-2.984-1.393-4.714-3.413-4.714c-2.02,0-3.413,1.73-3.413,4.714c0,2.984,1.393,4.714,3.413,4.714
				C123.969,140.606,125.362,138.876,125.362,135.892z"/>
		</g>
		<g>
			<path style="fill:#FFFFFF;" d="M165.081,139.949v0.727h-7.604v-0.569l4.679-4.648c1.313-1.312,1.565-2.086,1.565-2.924
				c0-1.391-0.964-2.261-2.798-2.261c-1.391,0-2.419,0.411-3.177,1.281l-0.569-0.506c0.838-0.964,2.15-1.518,3.81-1.518
				c2.165,0,3.557,1.122,3.557,2.924c0,1.059-0.348,1.992-1.802,3.43l-4.078,4.063H165.081z"/>
		</g>
	</g>
	<g>
		<g>
			<path style="fill:#FF725E;" d="M160.533,217.187l12.631,18.06c1.384,1.979,4.33,1.929,5.647-0.094l12.226-18.783L160.533,217.187
				z"/>
		</g>
		<g>
			<path style="fill:#FF725E;" d="M190.934,227.179h-32.195c-6.386,0-11.564-5.177-11.564-11.564v-17.105
				c0-6.386,5.177-11.564,11.564-11.564h32.195c6.386,0,11.563,5.177,11.563,11.564v17.105
				C202.497,222.002,197.32,227.179,190.934,227.179z"/>
		</g>
		<g>
			<g>
				<path style="fill:#FFFFFF;" d="M166.661,216.156h18.248c0,0-1.762-6.996-9.232-6.996
					C167.845,209.161,166.661,216.156,166.661,216.156z"/>
			</g>
			<g>
				<circle style="fill:#FFFFFF;" cx="175.768" cy="203.241" r="5.009"/>
			</g>
		</g>
	</g>
</g>
</svg>
