<svg width="148" height="137" viewBox="0 0 148 137" fill="none" xmlns="http://www.w3.org/2000/svg">
<path d="M147.263 49.996C147.263 35.769 135.73 24.237 121.504 24.237C118.243 24.237 115.134 24.868 112.263 25.974C109.538 11.198 96.5982 0 81.0332 0C67.3802 0 55.7422 8.614 51.2502 20.703C49.0342 19.129 46.3322 18.194 43.4062 18.194C35.9102 18.194 29.8332 24.271 29.8332 31.767C29.8332 32.593 29.9192 33.398 30.0612 34.184C27.3932 32.655 24.3102 31.767 21.0142 31.767C10.9452 31.767 2.78418 39.929 2.78418 49.997C2.78418 58.073 8.04019 64.911 15.3132 67.305C11.2872 71.866 8.82318 77.841 8.82318 84.405C8.82318 98.697 20.4092 110.283 34.7022 110.283C38.4692 110.283 42.0372 109.46 45.2652 108.013C46.2862 121.304 57.3702 131.778 70.9232 131.778C82.6652 131.778 92.5512 123.914 95.6552 113.174C100.211 117.248 106.206 119.745 112.799 119.745C127.026 119.745 138.558 108.213 138.558 93.987C138.558 86.168 135.061 79.177 129.561 74.453C139.838 71.067 147.263 61.405 147.263 49.996Z" fill="white"/>
<path d="M147.263 49.9958C147.263 37.8958 138.919 27.7498 127.673 24.9858C133.193 30.1838 137.27 37.8948 137.481 45.5038C137.69 53.0538 135.26 62.0818 128.974 66.8188C126.25 68.8718 120.736 71.4678 117.217 71.1158C122.163 77.4798 123.948 85.4449 116.751 91.8769C108.712 99.0629 98.9671 98.2848 92.5501 90.6148C92.7151 97.1028 90.5601 105.523 84.7991 109.171C80.0661 112.167 73.4381 113.838 67.8651 113.157C56.6141 111.783 50.0491 103.605 49.0851 92.7108C49.1391 93.3178 45.5411 95.6069 44.9861 95.9929C43.5851 96.9689 42.0941 97.8229 40.4861 98.4069C29.7381 102.315 15.9931 93.3208 17.1631 81.6078C17.5541 77.6898 18.9071 72.7229 20.8691 69.2979C21.7481 67.7629 24.2741 63.9118 26.4691 64.0558C12.2501 63.1268 8.89112 39.2119 24.8431 32.1819C23.6091 31.9149 22.3301 31.7679 21.0161 31.7679C10.9471 31.7679 2.78613 39.9298 2.78613 49.9978C2.78613 58.0738 8.04214 64.9118 15.3151 67.3058C11.2891 71.8668 8.82513 77.8419 8.82513 84.4059C8.82513 98.6979 20.4111 110.284 34.7041 110.284C38.4711 110.284 42.0391 109.461 45.2671 108.014C46.2881 121.305 57.3721 131.779 70.9251 131.779C82.6671 131.779 92.5532 123.915 95.6572 113.175C100.213 117.249 106.208 119.746 112.801 119.746C127.028 119.746 138.56 108.214 138.56 93.9879C138.56 86.1689 135.063 79.1779 129.563 74.4539C139.838 71.0669 147.263 61.4049 147.263 49.9958Z" fill="#FDBABF"/>
<path d="M33.4044 125.632C30.9454 128.586 25.8154 128.368 21.9474 125.147C18.0784 121.924 16.9384 116.918 19.3984 113.965C21.8574 111.011 26.9874 111.229 30.8564 114.451C34.7254 117.673 35.8654 122.679 33.4044 125.632Z" fill="white"/>
<path d="M20.0279 132.139C18.1619 134.38 14.2699 134.215 11.3339 131.77C8.39886 129.325 7.53285 125.526 9.39985 123.285C11.2659 121.044 15.1589 121.209 18.0939 123.654C21.0299 126.099 21.8959 129.898 20.0279 132.139Z" fill="white"/>
<path d="M8.19413 135.073C6.87813 136.654 4.13113 136.538 2.05913 134.813C-0.0108664 133.087 -0.62288 130.407 0.69512 128.826C2.01212 127.244 4.75913 127.361 6.83013 129.087C8.90113 130.812 9.51213 133.492 8.19413 135.073Z" fill="white"/>
<path d="M52.8945 75.4272C56.7605 75.4272 59.8945 72.2932 59.8945 68.4272C59.8945 64.5613 56.7605 61.4272 52.8945 61.4272C49.0285 61.4272 45.8945 64.5613 45.8945 68.4272C45.8945 72.2932 49.0285 75.4272 52.8945 75.4272Z" fill="#FF4F5A"/>
<path d="M75.0244 74.458C78.8904 74.458 82.0244 71.324 82.0244 67.458C82.0244 63.592 78.8904 60.458 75.0244 60.458C71.1584 60.458 68.0244 63.592 68.0244 67.458C68.0244 71.324 71.1584 74.458 75.0244 74.458Z" fill="#FF4F5A"/>
<path d="M97.1533 73.4902C101.019 73.4902 104.153 70.3562 104.153 66.4902C104.153 62.6242 101.019 59.4902 97.1533 59.4902C93.2873 59.4902 90.1533 62.6242 90.1533 66.4902C90.1533 70.3562 93.2873 73.4902 97.1533 73.4902Z" fill="#FF4F5A"/>
</svg>
