<?xml version="1.0" standalone="no"?><svg xmlns:xlink="http://www.w3.org/1999/xlink" xmlns="http://www.w3.org/2000/svg" viewBox="0 0 1400 875" preserveAspectRatio="xMaxYMax slice"><g transform="scale(1.3565891472868217)"><rect x="0" y="0" width="1032" height="645" fill="#fff9f9"/><rect x="0" y="0" width="129" height="129" fill="#fff9f9"/><g transform="translate(0,0) scale(3.225) rotate(0)"><path d="M10 0L20 10L10 20L0 10L10 0Z" fill="#fff6f6"/></g><path d="M 64.5 64.5 A 64.5 64.5 0 0 1  129 0 L 64.5 64.5 A 64.5 64.5 0 0 0 129 0" fill="#fff5f5"/><path d="M 0 64.5 A 64.5 64.5 0 0 1  64.5 129 L 0 64.5 A 64.5 64.5 0 0 0 64.5 129" fill="#fff5f5"/><g transform="translate(64.5,64.5) scale(3.225) rotate(0)"><path d="M10 0L20 10L10 20L0 10L10 0Z" fill="#fee7e8"/></g><path d="M 129 0 A 129 129 0 0 1  258 129 L 129 0 A 129 129 0 0 0 258 129" fill="#fff7f7"/><g transform="translate(258,0) scale(6.45) rotate(0)"><path d="M10 0L20 10L10 20L0 10L10 0Z" fill="#fff8f8"/></g><path d="M 387 0 A 129 129 0 0 1  516 129 L 387 0 A 129 129 0 0 0 516 129" fill="#fff7f7"/><g transform="translate(516,0) scale(6.45) rotate(0)"><path d="M10 0L20 10L10 20L0 10L10 0Z" fill="#fee7e9"/></g><g transform="translate(645,0) scale(6.45) rotate(0)"><path d="M10 0L20 10L10 20L0 10L10 0Z" fill="#fff9f9"/></g><rect x="774" y="0" width="129" height="129" fill="#fff9f9"/><g transform="translate(774,0) scale(3.225) rotate(0)"><path d="M10 0L20 10L10 20L0 10L10 0Z" fill="#fff7f7"/></g><path d="M 838.5 64.5 A 64.5 64.5 0 0 1  903 0 L 838.5 64.5 A 64.5 64.5 0 0 0 903 0" fill="#fff6f6"/><g transform="translate(774,64.5) scale(3.225) rotate(0)"><path d="M10 0L20 10L10 20L0 10L10 0Z" fill="#fff7f7"/></g><g transform="translate(838.5,64.5) scale(3.225) rotate(0)"><path d="M10 0L20 10L10 20L0 10L10 0Z" fill="#feebed"/></g><g transform="translate(903,0) scale(6.45) rotate(0)"><path d="M10 0L20 10L10 20L0 10L10 0Z" fill="#ffeeef"/></g><g transform="translate(0,129) scale(6.45) rotate(0)"><path d="M10 0L20 10L10 20L0 10L10 0Z" fill="#fff0f1"/></g><rect x="129" y="129" width="129" height="129" fill="#fff9f9"/><g transform="translate(129,129) scale(3.225) rotate(0)"><path d="M10 0L20 10L10 20L0 10L10 0Z" fill="#fff6f6"/></g><g transform="translate(193.5,129) scale(3.225) rotate(0)"><path d="M10 0L20 10L10 20L0 10L10 0Z" fill="#fff3f4"/></g><path d="M 129 193.5 A 64.5 64.5 0 0 1  193.5 258 L 129 193.5 A 64.5 64.5 0 0 0 193.5 258" fill="#fff5f5"/><g transform="translate(193.5,193.5) scale(3.225) rotate(0)"><path d="M10 0L20 10L10 20L0 10L10 0Z" fill="#fff5f5"/></g><rect x="258" y="129" width="129" height="129" fill="#fff9f9"/><path d="M 258 129 A 64.5 64.5 0 0 1  322.5 193.5 L 258 129 A 64.5 64.5 0 0 0 322.5 193.5" fill="#feeced"/><path d="M 322.5 129 A 64.5 64.5 0 0 1  387 193.5 L 322.5 129 A 64.5 64.5 0 0 0 387 193.5" fill="#fff2f3"/><g transform="translate(258,193.5) scale(3.225) rotate(0)"><path d="M10 0L20 10L10 20L0 10L10 0Z" fill="#fee4e6"/></g><path d="M 322.5 258 A 64.5 64.5 0 0 1  387 193.5 L 322.5 258 A 64.5 64.5 0 0 0 387 193.5" fill="#fff6f6"/><rect x="387" y="129" width="129" height="129" fill="#fff9f9"/><g transform="translate(387,129) scale(3.225) rotate(0)"><path d="M10 0L20 10L10 20L0 10L10 0Z" fill="#fff7f7"/></g><path d="M 451.5 129 A 64.5 64.5 0 0 1  516 193.5 L 451.5 129 A 64.5 64.5 0 0 0 516 193.5" fill="#ffeff0"/><g transform="translate(387,193.5) scale(3.225) rotate(0)"><path d="M10 0L20 10L10 20L0 10L10 0Z" fill="#fff5f5"/></g><path d="M 451.5 258 A 64.5 64.5 0 0 1  516 193.5 L 451.5 258 A 64.5 64.5 0 0 0 516 193.5" fill="#fff3f4"/><path d="M 516 129 A 129 129 0 0 1  645 258 L 516 129 A 129 129 0 0 0 645 258" fill="#feeeef"/><path d="M 645 258 A 129 129 0 0 1  774 129 L 645 258 A 129 129 0 0 0 774 129" fill="#fff4f4"/><rect x="774" y="129" width="129" height="129" fill="#fff9f9"/><path d="M 774 129 A 64.5 64.5 0 0 1  838.5 193.5 L 774 129 A 64.5 64.5 0 0 0 838.5 193.5" fill="#fee7e9"/><path d="M 838.5 129 A 64.5 64.5 0 0 1  903 193.5 L 838.5 129 A 64.5 64.5 0 0 0 903 193.5" fill="#fff4f4"/><path d="M 774 193.5 A 64.5 64.5 0 0 1  838.5 258 L 774 193.5 A 64.5 64.5 0 0 0 838.5 258" fill="#fee8e9"/><g transform="translate(838.5,193.5) scale(3.225) rotate(0)"><path d="M10 0L20 10L10 20L0 10L10 0Z" fill="#fff9f9"/></g><rect x="903" y="129" width="129" height="129" fill="#fff9f9"/><path d="M 903 193.5 A 64.5 64.5 0 0 1  967.5 129 L 903 193.5 A 64.5 64.5 0 0 0 967.5 129" fill="#feedef"/><g transform="translate(967.5,129) scale(3.225) rotate(0)"><path d="M10 0L20 10L10 20L0 10L10 0Z" fill="#fff8f8"/></g><path d="M 903 193.5 A 64.5 64.5 0 0 1  967.5 258 L 903 193.5 A 64.5 64.5 0 0 0 967.5 258" fill="#fff6f6"/><path d="M 967.5 193.5 A 64.5 64.5 0 0 1  1032 258 L 967.5 193.5 A 64.5 64.5 0 0 0 1032 258" fill="#fff8f8"/><g transform="translate(0,258) scale(6.45) rotate(0)"><path d="M10 0L20 10L10 20L0 10L10 0Z" fill="#fee6e8"/></g><g transform="translate(129,258) scale(6.45) rotate(0)"><path d="M10 0L20 10L10 20L0 10L10 0Z" fill="#feeaeb"/></g><path d="M 258 387 A 129 129 0 0 1  387 258 L 258 387 A 129 129 0 0 0 387 258" fill="#fee4e6"/><g transform="translate(387,258) scale(6.45) rotate(0)"><path d="M10 0L20 10L10 20L0 10L10 0Z" fill="#fff8f8"/></g><g transform="translate(516,258) scale(6.45) rotate(0)"><path d="M10 0L20 10L10 20L0 10L10 0Z" fill="#fff8f8"/></g><g transform="translate(645,258) scale(6.45) rotate(0)"><path d="M10 0L20 10L10 20L0 10L10 0Z" fill="#fff8f8"/></g><rect x="774" y="258" width="129" height="129" fill="#fff9f9"/><path d="M 774 258 A 64.5 64.5 0 0 1  838.5 322.5 L 774 258 A 64.5 64.5 0 0 0 838.5 322.5" fill="#fee4e6"/><path d="M 838.5 322.5 A 64.5 64.5 0 0 1  903 258 L 838.5 322.5 A 64.5 64.5 0 0 0 903 258" fill="#fff8f8"/><path d="M 774 322.5 A 64.5 64.5 0 0 1  838.5 387 L 774 322.5 A 64.5 64.5 0 0 0 838.5 387" fill="#ffeeef"/><g transform="translate(838.5,322.5) scale(3.225) rotate(0)"><path d="M10 0L20 10L10 20L0 10L10 0Z" fill="#feeced"/></g><path d="M 903 387 A 129 129 0 0 1  1032 258 L 903 387 A 129 129 0 0 0 1032 258" fill="#fff9f9"/><rect x="0" y="387" width="129" height="129" fill="#fff9f9"/><g transform="translate(0,387) scale(3.225) rotate(0)"><path d="M10 0L20 10L10 20L0 10L10 0Z" fill="#fff2f2"/></g><path d="M 64.5 451.5 A 64.5 64.5 0 0 1  129 387 L 64.5 451.5 A 64.5 64.5 0 0 0 129 387" fill="#feeeef"/><g transform="translate(0,451.5) scale(3.225) rotate(0)"><path d="M10 0L20 10L10 20L0 10L10 0Z" fill="#fee5e7"/></g><path d="M 64.5 451.5 A 64.5 64.5 0 0 1  129 516 L 64.5 451.5 A 64.5 64.5 0 0 0 129 516" fill="#fee5e7"/><g transform="translate(129,387) scale(6.45) rotate(0)"><path d="M10 0L20 10L10 20L0 10L10 0Z" fill="#ffeeef"/></g><rect x="258" y="387" width="129" height="129" fill="#fff9f9"/><g transform="translate(258,387) scale(3.225) rotate(0)"><path d="M10 0L20 10L10 20L0 10L10 0Z" fill="#fff5f5"/></g><path d="M 322.5 387 A 64.5 64.5 0 0 1  387 451.5 L 322.5 387 A 64.5 64.5 0 0 0 387 451.5" fill="#fff6f6"/><path d="M 258 516 A 64.5 64.5 0 0 1  322.5 451.5 L 258 516 A 64.5 64.5 0 0 0 322.5 451.5" fill="#fff6f6"/><path d="M 322.5 516 A 64.5 64.5 0 0 1  387 451.5 L 322.5 516 A 64.5 64.5 0 0 0 387 451.5" fill="#feeced"/><rect x="387" y="387" width="129" height="129" fill="#fff9f9"/><g transform="translate(387,387) scale(3.225) rotate(0)"><path d="M10 0L20 10L10 20L0 10L10 0Z" fill="#fff9f9"/></g><path d="M 451.5 451.5 A 64.5 64.5 0 0 1  516 387 L 451.5 451.5 A 64.5 64.5 0 0 0 516 387" fill="#fff8f8"/><g transform="translate(387,451.5) scale(3.225) rotate(0)"><path d="M10 0L20 10L10 20L0 10L10 0Z" fill="#fff5f5"/></g><path d="M 451.5 451.5 A 64.5 64.5 0 0 1  516 516 L 451.5 451.5 A 64.5 64.5 0 0 0 516 516" fill="#fff7f7"/><g transform="translate(516,387) scale(6.45) rotate(0)"><path d="M10 0L20 10L10 20L0 10L10 0Z" fill="#fff7f7"/></g><path d="M 645 516 A 129 129 0 0 1  774 387 L 645 516 A 129 129 0 0 0 774 387" fill="#feebec"/><g transform="translate(774,387) scale(6.45) rotate(0)"><path d="M10 0L20 10L10 20L0 10L10 0Z" fill="#fff5f5"/></g><path d="M 903 516 A 129 129 0 0 1  1032 387 L 903 516 A 129 129 0 0 0 1032 387" fill="#fff4f4"/><g transform="translate(0,516) scale(6.45) rotate(0)"><path d="M10 0L20 10L10 20L0 10L10 0Z" fill="#fff4f4"/></g><rect x="129" y="516" width="129" height="129" fill="#fff9f9"/><g transform="translate(129,516) scale(3.225) rotate(0)"><path d="M10 0L20 10L10 20L0 10L10 0Z" fill="#fff9f9"/></g><path d="M 193.5 580.5 A 64.5 64.5 0 0 1  258 516 L 193.5 580.5 A 64.5 64.5 0 0 0 258 516" fill="#fff8f8"/><path d="M 129 580.5 A 64.5 64.5 0 0 1  193.5 645 L 129 580.5 A 64.5 64.5 0 0 0 193.5 645" fill="#fff7f7"/><path d="M 193.5 645 A 64.5 64.5 0 0 1  258 580.5 L 193.5 645 A 64.5 64.5 0 0 0 258 580.5" fill="#fff2f2"/><g transform="translate(258,516) scale(6.45) rotate(0)"><path d="M10 0L20 10L10 20L0 10L10 0Z" fill="#fee8ea"/></g><g transform="translate(387,516) scale(6.45) rotate(0)"><path d="M10 0L20 10L10 20L0 10L10 0Z" fill="#fff4f4"/></g><g transform="translate(516,516) scale(6.45) rotate(0)"><path d="M10 0L20 10L10 20L0 10L10 0Z" fill="#fff8f8"/></g><g transform="translate(645,516) scale(6.45) rotate(0)"><path d="M10 0L20 10L10 20L0 10L10 0Z" fill="#fee4e6"/></g><g transform="translate(774,516) scale(6.45) rotate(0)"><path d="M10 0L20 10L10 20L0 10L10 0Z" fill="#fff0f1"/></g><g transform="translate(903,516) scale(6.45) rotate(0)"><path d="M10 0L20 10L10 20L0 10L10 0Z" fill="#fff4f4"/></g></g></svg>