<svg xmlns="http://www.w3.org/2000/svg" version="1.1" xmlns:xlink="http://www.w3.org/1999/xlink" xmlns:svgjs="http://svgjs.dev/svgjs" width="1440" height="860" preserveAspectRatio="none" viewBox="0 0 1440 860"><g mask="url(&quot;#SvgjsMask1119&quot;)" fill="none"><rect width="1440" height="860" x="0" y="0" fill="rgba(249, 166, 151, 1)"></rect><path d="M0,596.38C110.319,577.26,210.469,534.446,306.863,477.488C406.701,418.495,507.285,357.981,569.299,259.99C636.667,153.538,681.564,29.115,670.007,-96.332C658.176,-224.755,594.505,-344.731,505.033,-437.614C418.156,-527.802,297.482,-568.77,178.198,-606.886C56.278,-645.844,-70.061,-692.619,-194.09,-661.01C-319.894,-628.949,-444.709,-550.993,-500.708,-433.866C-554.418,-321.527,-459.564,-191.874,-477.31,-68.627C-495.062,54.661,-620.143,151.95,-602.818,275.298C-584.393,406.474,-500.705,534.918,-383.791,597.19C-268.544,658.574,-128.657,618.678,0,596.38" fill="#f88f7d"></path><path d="M1440 1391.341C1537.88 1392.912 1587.788 1270.781 1672.806 1222.252 1764.7060000000001 1169.795 1907.5810000000001 1189.666 1957.126 1096.163 2006.135 1003.671 1919.855 896.625 1899.784 793.893 1880.9569999999999 697.5260000000001 1908.166 584.241 1842.797 510.974 1777.508 437.797 1666.2350000000001 430.032 1568.453 422.529 1484.515 416.088 1407.119 449.269 1325.87 471.309 1242.665 493.88 1151.136 496.742 1086.129 553.369 1017.03 613.56 967.925 699.641 959.039 790.848 950.3050000000001 880.493 992.2429999999999 966.059 1038.383 1043.412 1080.902 1114.696 1149.215 1160.5059999999999 1211.949 1214.854 1286.102 1279.094 1341.904 1389.766 1440 1391.341" fill="#fbbdb2"></path></g><defs><mask id="SvgjsMask1119"><rect width="1440" height="860" fill="#ffffff"></rect></mask></defs></svg>