<svg xmlns="http://www.w3.org/2000/svg" version="1.1" xmlns:xlink="http://www.w3.org/1999/xlink" xmlns:svgjs="http://svgjs.dev/svgjs" viewBox="0 0 800 800"><defs><filter id="ssspot-filter" x="-20%" y="-20%" width="140%" height="140%" filterUnits="objectBoundingBox" primitiveUnits="userSpaceOnUse" color-interpolation-filters="sRGB">
	<feTurbulence type="turbulence" baseFrequency="0.022 0.218" numOctaves="2" seed="45" stitchTiles="stitch" x="0%" y="0%" width="100%" height="100%" result="turbulence"></feTurbulence>
	<feGaussianBlur stdDeviation="0 3" x="0%" y="0%" width="100%" height="100%" in="turbulence" edgeMode="duplicate" result="blur"></feGaussianBlur>
	<feDisplacementMap in="SourceGraphic" in2="blur" scale="32" xChannelSelector="R" yChannelSelector="B" x="0%" y="0%" width="100%" height="100%" result="displacementMap"></feDisplacementMap>
</filter></defs><rect width="100%" height="100%" fill="#fee3e5"></rect><g fill="#ff4f5a" filter="url(#ssspot-filter)"><circle r="6.301759642800394" cx="775.1141062084607" cy="727.2042126976727" opacity="0.9851577476050575"></circle><circle r="7.677976692421402" cx="592.738519145785" cy="601.4941687576323" opacity="0.15598252974179455"></circle><circle r="6.199205069712073" cx="76.55503116557992" cy="159.42597618066958" opacity="0.7131839904317449"></circle><circle r="6.299832003266969" cx="315.37644002187307" cy="731.3931134140483" opacity="0.2178029295223628"></circle><circle r="6.681884908290421" cx="231.44215309354607" cy="274.78673725554705" opacity="0.8818287509597014"></circle><circle r="8.643445318957225" cx="18.903593785049058" cy="494.31815686167533" opacity="0.14790809455362525"></circle><circle r="15.182805064416849" cx="122.64297933283132" cy="329.2599244485817" opacity="0.8535971622929538"></circle><circle r="10.200495276756193" cx="103.25095966053715" cy="211.47467533790143" opacity="0.13642276739783815"></circle><circle r="8.330348244875324" cx="570.5507334898034" cy="133.37364454999405" opacity="0.8325352708525139"></circle><circle r="12.663380086124766" cx="413.6571218473932" cy="304.25501462219665" opacity="0.5835687867497091"></circle><circle r="4.613255147345899" cx="321.5980538610194" cy="781.8349723449588" opacity="0.7084602341187466"></circle><circle r="14.17417623924954" cx="130.30345592256282" cy="587.7873903241474" opacity="0.3835598653820079"></circle><circle r="5.695270490371964" cx="190.49801995545008" cy="140.9611802173989" opacity="0.6161561181285857"></circle><circle r="10.375256366349198" cx="586.130128243346" cy="171.4613999379572" opacity="0.6634385004661981"></circle><circle r="8.273009391686644" cx="26.357348529231064" cy="654.7779821434664" opacity="0.9438902474647063"></circle><circle r="7.239364679999869" cx="491.6241263028315" cy="328.738173326908" opacity="0.7849024334473588"></circle><circle r="6.594087653181861" cx="544.7697758896496" cy="21.378727245039517" opacity="0.7504633677837499"></circle><circle r="7.47081798215671" cx="248.93621580481775" cy="211.49858409849736" opacity="0.2689661831489213"></circle><circle r="13.743167808813668" cx="694.9107905193268" cy="741.60503543372" opacity="0.5539400603563516"></circle><circle r="8.021660719497005" cx="382.31050373063727" cy="248.03592553408734" opacity="0.33005564482494654"></circle><circle r="10.002074093693281" cx="269.02150078195154" cy="743.2994814671148" opacity="0.5045315486996745"></circle><circle r="9.810152855383873" cx="743.0662086578873" cy="631.683598382486" opacity="0.10238789332153689"></circle><circle r="7.468023192908776" cx="74.19404177952083" cy="254.93119025729095" opacity="0.14876264271449482"></circle><circle r="13.427689630015632" cx="435.6236041281349" cy="139.53453305358096" opacity="0.7532450683034575"></circle><circle r="11.93496368660075" cx="719.6838345814243" cy="110.63813951009806" opacity="0.33826766266930713"></circle><circle r="7.5775588234463145" cx="759.1976678710251" cy="295.2681519367781" opacity="0.3934192255818414"></circle><circle r="7.013460834216934" cx="780.7075538550187" cy="32.35581564002093" opacity="0.9731184629432683"></circle><circle r="10.564729561244976" cx="481.2590605987206" cy="264.6886457286168" opacity="0.7522850039209958"></circle><circle r="12.676895010145188" cx="449.5562003417068" cy="750.0191004386747" opacity="0.3910911373073962"></circle><circle r="9.81636626910206" cx="28.02466328278947" cy="39.61813873281968" opacity="0.9329007374693402"></circle><circle r="6.343693977420575" cx="192.9757824563203" cy="248.17413608280742" opacity="0.8499920717528167"></circle><circle r="7.2046694226727475" cx="64.10287731252248" cy="486.9516843618416" opacity="0.2000752395614481"></circle><circle r="8.080710060938374" cx="679.1783393720744" cy="586.5398086239413" opacity="0.27090347740332654"></circle><circle r="14.077444721174867" cx="537.0479584652967" cy="279.4409995265222" opacity="0.6446656344003189"></circle><circle r="9.353773079390587" cx="245.84206591264004" cy="125.0739246528763" opacity="0.2764468566221589"></circle><circle r="11.831919148203113" cx="539.1990461071769" cy="660.9888804365443" opacity="0.6873755556574582"></circle><circle r="9.03458011161057" cx="676.4638796205604" cy="237.38881236056903" opacity="0.19683368145950214"></circle><circle r="9.326682008689728" cx="25.64917403229445" cy="707.3669834635771" opacity="0.9791758997216661"></circle><circle r="5.473753608351719" cx="778.8785804444786" cy="594.3504147382399" opacity="0.6955957022495071"></circle><circle r="8.922262613046192" cx="25.6076675978293" cy="165.48820174075308" opacity="0.6728756698448719"></circle><circle r="5.321698289572939" cx="134.94722527276775" cy="733.5852922502382" opacity="0.5688681469596623"></circle><circle r="13.361722743154207" cx="431.3840282429169" cy="485.120357718905" opacity="0.7414836179502865"></circle><circle r="11.527489413765709" cx="397.4241017666665" cy="768.3590233160855" opacity="0.22201627040973027"></circle><circle r="8.447610744553245" cx="636.6901404059762" cy="128.17370310314047" opacity="0.5476645827887101"></circle><circle r="10.853294489536289" cx="774.3623264904235" cy="532.7079205924067" opacity="0.4369697687784643"></circle><circle r="14.23242887868792" cx="378.98997261910364" cy="183.37723339164947" opacity="0.15075521320949611"></circle><circle r="11.311986124452497" cx="491.1848692576937" cy="23.923708285724743" opacity="0.5548611038588208"></circle><circle r="15.5807464043891" cx="227.00315003074627" cy="697.0994451184418" opacity="0.30951640870716907"></circle><circle r="8.047161749255062" cx="336.5721485995811" cy="576.7398348305709" opacity="0.11059494041124386"></circle><circle r="6.29604020152617" cx="383.25883040557517" cy="542.3398877456574" opacity="0.8923676869826741"></circle><circle r="8.256327102136474" cx="517.2189381080487" cy="614.6500684826134" opacity="0.1075822533369847"></circle><circle r="8.853088846472545" cx="622.0908950079998" cy="216.5013586778027" opacity="0.6463518299789613"></circle><circle r="11.10324915338657" cx="708.3143536996732" cy="275.5523587414285" opacity="0.5725738966125403"></circle><circle r="11.434544784096364" cx="324.78608055696674" cy="36.62587645087812" opacity="0.9098836405615008"></circle><circle r="15.599647487722361" cx="290.48773036713743" cy="494.359603974175" opacity="0.2037217221671354"></circle><circle r="6.903379202426914" cx="694.8757090979327" cy="620.068104270698" opacity="0.9398640719705549"></circle><circle r="4.906398039450458" cx="147.5946396499125" cy="785.1507999232676" opacity="0.4950076423842099"></circle><circle r="9.56855926300074" cx="511.63644078636185" cy="780.2537806144626" opacity="0.4562250086265015"></circle><circle r="10.602151077769268" cx="30.71448938837634" cy="427.32890315812136" opacity="0.5647532138216877"></circle><circle r="5.1001212943932535" cx="780.7265922751035" cy="470.4892486540808" opacity="0.36019156027212174"></circle><circle r="7.447704452849495" cx="592.6299924474383" cy="504.5678041909631" opacity="0.13546827780870485"></circle><circle r="7.758935711027119" cx="778.9226370273808" cy="216.65764256465314" opacity="0.10906233815279368"></circle><circle r="16.4251387934705" cx="513.5411448455884" cy="173.7743428897474" opacity="0.9890238971659044"></circle><circle r="6.563534023445862" cx="515.126038882897" cy="731.4369574262355" opacity="0.8690259111303829"></circle><circle r="11.72793471068153" cx="639.9960590953638" cy="274.14285050553946" opacity="0.4593341828600451"></circle><circle r="9.462215857440073" cx="635.7577080391283" cy="619.3960177261706" opacity="0.3890018301675836"></circle><circle r="12.032573127116454" cx="84.59653843674604" cy="28.27486157614439" opacity="0.7701602865181154"></circle><circle r="7.579901607375389" cx="686.2328591141904" cy="312.8344949506131" opacity="0.9726849370690699"></circle><circle r="13.460230417368045" cx="650.1995780812607" cy="490.50786767058315" opacity="0.3367369070108081"></circle><circle r="12.239388165357823" cx="749.6425539197691" cy="774.6716777376782" opacity="0.801524369866594"></circle><circle r="14.829303778301988" cx="669.1341673568269" cy="429.0431125265067" opacity="0.3546222719340293"></circle><circle r="7.7483806191892395" cx="139.80937559003098" cy="16.628193682371478" opacity="0.22647098907437954"></circle><circle r="10.289683209435168" cx="174.8820365306696" cy="717.8902806543645" opacity="0.21115872529520618"></circle><circle r="9.816481002842348" cx="60.59205323492233" cy="211.4448634201313" opacity="0.3548634116716364"></circle><circle r="6.64744134750306" cx="156.13560833196487" cy="48.29966474077475" opacity="0.9836503914257143"></circle><circle r="7.699172959364432" cx="203.58885936136096" cy="16.525698273383444" opacity="0.4307975345299936"></circle><circle r="10.191255233969114" cx="580.5441401134667" cy="771.4885021482671" opacity="0.3538993830499467"></circle><circle r="8.614535501192282" cx="129.8114848837742" cy="259.90403022654385" opacity="0.31090210210676583"></circle><circle r="7.467448552000582" cx="567.9010463964886" cy="373.02079868604926" opacity="0.8325980867681688"></circle><circle r="8.111878412178095" cx="716.3628967012746" cy="495.51846923872006" opacity="0.7426216332530919"></circle><circle r="7.811225174845654" cx="27.90570711968132" cy="109.93967481399757" opacity="0.31770688961706295"></circle><circle r="9.264816258270958" cx="262.09247005966427" cy="82.87313715971818" opacity="0.30933410150528357"></circle><circle r="9.074464566754184" cx="357.5400396148386" cy="490.31480142700866" opacity="0.4643277268194962"></circle><circle r="12.1201578110174" cx="653.642123609471" cy="550.735858771751" opacity="0.9216468985444478"></circle><circle r="13.727027599783687" cx="294.62840091289235" cy="163.32573647047272" opacity="0.8158471125465561"></circle><circle r="11.389198713570465" cx="392.52432438259757" cy="423.9358146512757" opacity="0.6351279621790268"></circle><circle r="5.552480866141417" cx="570.4619698562296" cy="44.89354223207031" opacity="0.6776274912594106"></circle><circle r="5.406010645842413" cx="783.4733635782292" cy="640.8402977795607" opacity="0.3972841584836875"></circle><circle r="9.6812852066357" cx="211.3650140025703" cy="58.534748802567904" opacity="0.36113792151534896"></circle><circle r="8.997935029933446" cx="265.52621935293956" cy="27.605263618751707" opacity="0.3877798651000478"></circle><circle r="4.6251200121199005" cx="618.1355362779595" cy="15.95833787563426" opacity="0.2505401977622913"></circle><circle r="8.034957592617623" cx="573.1647111554917" cy="96.44196104756658" opacity="0.24605743157069787"></circle><circle r="8.021622062571659" cx="605.1629427804131" cy="67.71669238860602" opacity="0.6475344730474603"></circle><circle r="8.821287683542336" cx="20.703577054797908" cy="224.84079992948676" opacity="0.7996986435406332"></circle><circle r="7.5173207180502075" cx="145.63616925017087" cy="123.37336610435436" opacity="0.5795601435317081"></circle><circle r="12.858770485676626" cx="167.09831777015376" cy="645.143022716059" opacity="0.44389514311539924"></circle><circle r="10.059649116246067" cx="270.7431333158438" cy="308.63812369425483" opacity="0.6034691207690371"></circle><circle r="9.713439603445154" cx="586.6634385245557" cy="437.9122971201299" opacity="0.22459405248069766"></circle><circle r="5.82395867392684" cx="755.7947879305757" cy="172.83734692406333" opacity="0.6687714613666604"></circle><circle r="10.209314592770976" cx="118.0465288465657" cy="456.1787760588743" opacity="0.7964166805980041"></circle><circle r="7.517718914480622" cx="203.02934012904316" cy="214.20354685977355" opacity="0.6215248463859194"></circle><circle r="14.080077256618376" cx="76.14253298829016" cy="621.1371349016907" opacity="0.10944039048242069"></circle><circle r="10.993494359590574" cx="291.8467443989945" cy="650.9292326789122" opacity="0.7136184086104388"></circle><circle r="10.143812900827193" cx="69.14947098755957" cy="295.9725558599084" opacity="0.45988905654574985"></circle><circle r="5.970715848002617" cx="722.5930872364078" cy="60.72127979663072" opacity="0.8313154202307487"></circle><circle r="14.424342211843648" cx="360.4597447479343" cy="117.92564003838233" opacity="0.8731734568522354"></circle><circle r="12.118305268094193" cx="268.6544262960377" cy="576.9070638317442" opacity="0.5119328836389523"></circle><circle r="4.513371840396246" cx="209.85298714242816" cy="115.82994943723185" opacity="0.40675550932321214"></circle><circle r="7.898808722267575" cx="699.0599722849497" cy="154.52116600966912" opacity="0.855742004148198"></circle><circle r="6.3381658056853265" cx="119.05696453965028" cy="156.04999685884846" opacity="0.17030251348584735"></circle><circle r="10.91309024301868" cx="569.7800132850055" cy="715.6629784797897" opacity="0.7944014023568738"></circle><circle r="7.177958762478177" cx="641.178359135861" cy="34.61967448132674" opacity="0.7705247168416363"></circle><circle r="12.72438078655858" cx="90.59243572462677" cy="390.6582281503983" opacity="0.16908093223697293"></circle><circle r="6.337851179211023" cx="748.7447846593058" cy="430.99115725533386" opacity="0.714783123076903"></circle><circle r="8.54951685926726" cx="778.173801738038" cy="396.5680874624852" opacity="0.7659627661572298"></circle><circle r="10.3986818235575" cx="173.3965926193535" cy="90.90626654427632" opacity="0.12868789769006073"></circle><circle r="11.759365581828657" cx="596.39264602831" cy="668.1975784865639" opacity="0.3240864057111058"></circle><circle r="10.583318041401967" cx="179.84531047236783" cy="498.05381616887877" opacity="0.7240563496777548"></circle><circle r="12.160640853639517" cx="36.76320162108559" cy="352.25406046967544" opacity="0.9456693960122458"></circle><circle r="8.383830933151474" cx="522.391695841968" cy="360.2417400540993" opacity="0.9127761313646378"></circle><circle r="12.827804760125058" cx="245.83482159974812" cy="403.89997972429563" opacity="0.9218938908884597"></circle><circle r="8.499126219373782" cx="229.06305082783697" cy="169.7415355139411" opacity="0.6180231754558599"></circle><circle r="9.930068179873434" cx="201.33229353753674" cy="343.2209756225708" opacity="0.18216772810167972"></circle><circle r="6.919593129994047" cx="77.36643033772661" cy="95.19969421186838" opacity="0.9063307281301135"></circle><circle r="8.41308485977058" cx="159.7909498843924" cy="189.7611971066389" opacity="0.921941410276459"></circle><circle r="15.675943044363835" cx="337.12237601364706" cy="294.04210036562904" opacity="0.325165551801745"></circle><circle r="11.24527415689348" cx="774.5906899543012" cy="340.6292470082645" opacity="0.5916922215240703"></circle><circle r="9.255794934037926" cx="737.4805995701826" cy="19.06997910481065" opacity="0.18825668667292084"></circle><circle r="5.4093223491022115" cx="24.527659074100765" cy="543.0806948038162" opacity="0.4576278516485508"></circle><circle r="9.908750962925176" cx="227.2428590475711" cy="529.186315206373" opacity="0.27398850112478734"></circle><circle r="8.843384654678689" cx="374.8657260721948" cy="656.2689371414218" opacity="0.34619814530393284"></circle><circle r="12.799665065007787" cx="224.29615721966073" cy="459.0580158089071" opacity="0.3194920685795861"></circle><circle r="11.514501019930508" cx="94.63093801921022" cy="533.8046863260264" opacity="0.6584640054586477"></circle><circle r="6.819181033273449" cx="428.99547866014524" cy="551.1695961527311" opacity="0.2476716414614599"></circle><circle r="8.219735358291528" cx="360.62753632198553" cy="711.9248108337002" opacity="0.4955673316470882"></circle><circle r="10.105006389343334" cx="96.24169133157017" cy="717.2617693844622" opacity="0.8782740511182103"></circle><circle r="7.013392025490455" cx="710.3569141630403" cy="537.0776909361647" opacity="0.10660309412725905"></circle><circle r="12.116785210211408" cx="510.34971630964714" cy="413.1749949391031" opacity="0.4905731442568245"></circle><circle r="4.8303636566381405" cx="726.6593249816946" cy="461.0486705866894" opacity="0.8110622902069078"></circle><circle r="8.299670137374983" cx="231.0058966396888" cy="775.3104578893823" opacity="0.32789497753369745"></circle><circle r="9.813167460892764" cx="736.960347569193" cy="577.373066699695" opacity="0.9839536084965346"></circle><circle r="11.22316482029045" cx="167.2735315553785" cy="406.39188360444535" opacity="0.4788611554087415"></circle><circle r="8.974280305858835" cx="457.414287965708" cy="427.85871745500674" opacity="0.20154226185509383"></circle><circle r="8.61159099575362" cx="642.1320897183062" cy="759.5300313364868" opacity="0.8853387702280836"></circle><circle r="8.086150369764006" cx="631.747256003289" cy="172.3938518009915" opacity="0.6158393521353417"></circle><circle r="8.581752237588754" cx="183.60520566067245" cy="773.7991858216434" opacity="0.47465898342601764"></circle><circle r="9.315930156284365" cx="447.307975177132" cy="61.31197179279276" opacity="0.7977104677399052"></circle><circle r="5.372460138736402" cx="45.4713170814813" cy="786.4179769223095" opacity="0.2396817380286391"></circle><circle r="10.231116487113589" cx="290.6881847552644" cy="366.4249187049689" opacity="0.6235444688933094"></circle><circle r="8.078552967453447" cx="210.11489971096967" cy="608.2819756604009" opacity="0.9971825762453318"></circle><circle r="13.12305599856719" cx="434.1466998350166" cy="363.8548015260311" opacity="0.3551414043722043"></circle><circle r="10.077597207574962" cx="27.615196957528095" cy="754.2450850174639" opacity="0.34387712277700233"></circle><circle r="11.51656663304026" cx="482.2446204908555" cy="568.8853275655656" opacity="0.6198389884600093"></circle><circle r="7.630002321894241" cx="52.480880429703504" cy="573.0736893811525" opacity="0.9588863071606354"></circle><circle r="8.339790661748395" cx="541.2262880936653" cy="548.4895221847142" opacity="0.5226278629838746"></circle><circle r="11.9849834363743" cx="388.0453523082097" cy="42.40131315014468" opacity="0.510846544120572"></circle><circle r="11.297369170792905" cx="442.72622279534346" cy="653.8739846306003" opacity="0.2767171208974841"></circle><circle r="8.529077743267283" cx="120.28443950870648" cy="81.02664168804743" opacity="0.5116557695752338"></circle><circle r="6.387017574122366" cx="766.6323936830853" cy="680.5101460657456" opacity="0.7256478731430938"></circle><circle r="10.289832469376366" cx="681.9539945431465" cy="29.48500574563296" opacity="0.5292770825874552"></circle><circle r="7.293683620139692" cx="772.515398887256" cy="88.16490627433451" opacity="0.9112717436897906"></circle><circle r="6.244996756259487" cx="594.7109286440641" cy="558.517317492987" opacity="0.17246251766688683"></circle><circle r="10.433199091190541" cx="656.2609132190386" cy="338.2874690290408" opacity="0.7955249927149213"></circle><circle r="12.672738598531243" cx="356.345161301275" cy="356.96289485957516" opacity="0.513430232811225"></circle><circle r="5.272807466846086" cx="588.9367970763615" cy="14.258165229962781" opacity="0.47036682528873286"></circle><circle r="9.932300264244768" cx="661.780744444764" cy="88.70008835095307" opacity="0.8412228204293506"></circle><circle r="5.54881423592459" cx="190.87682644421923" cy="179.8480138690962" opacity="0.7380621030650435"></circle><circle r="8.42684604797078" cx="146.79073624036255" cy="217.41194060499697" opacity="0.6158393516906066"></circle><circle r="10.527762640638032" cx="124.56525883959739" cy="669.5728345713667" opacity="0.7746547793282875"></circle><circle r="10.372782379554433" cx="288.1443240125046" cy="237.43785484785445" opacity="0.6235889481072636"></circle><circle r="7.82429523765785" cx="19.853367060951943" cy="289.9261069062637" opacity="0.25757210380507944"></circle><circle r="8.05331126311371" cx="709.6658005891519" cy="694.2913320545667" opacity="0.5320081402972404"></circle><circle r="10.202663035732945" cx="572.1524267043402" cy="233.4265157258127" opacity="0.46048155772681154"></circle><circle r="8.932759849693277" cx="170.30361372193838" cy="291.8820421854151" opacity="0.28462704691304547"></circle><circle r="6.254675086878767" cx="18.440950758064755" cy="605.2600560333085" opacity="0.6720205633415315"></circle><circle r="10.565536219538252" cx="718.2617786712218" cy="384.1471075189176" opacity="0.9539287652226236"></circle><circle r="5.997942847069481" cx="162.14601907006264" cy="156.4850076787158" opacity="0.39119466989262963"></circle><circle r="7.560444339938838" cx="149.69870429616168" cy="530.2429218056266" opacity="0.17548625782659533"></circle><circle r="11.006458978860799" cx="484.99802034392206" cy="509.95741521928437" opacity="0.6366540444229665"></circle><circle r="10.798881711995772" cx="420.9156072855858" cy="604.1312620080104" opacity="0.15556906648910765"></circle><circle r="12.440070065553392" cx="445.5095607226526" cy="219.6990507278694" opacity="0.2934632323146563"></circle><circle r="8.963237677250616" cx="627.094864855847" cy="378.6550137487203" opacity="0.5103937992318061"></circle><circle r="10.955985002150037" cx="527.9518504681191" cy="474.9777770959635" opacity="0.3456758272707853"></circle><circle r="13.498569964948416" cx="331.69133143085264" cy="217.42380653951835" opacity="0.10229412380424688"></circle><circle r="12.032804618123627" cx="649.5479576785426" cy="676.8584966552836" opacity="0.19724574708964185"></circle><circle r="10.431180185422384" cx="71.66005796380617" cy="681.7886161116871" opacity="0.4806900650828958"></circle><circle r="5.882367559193396" cx="778.4513008306183" cy="138.46479188258618" opacity="0.5058998017235744"></circle><circle r="8.250569027179216" cx="592.5735695736103" cy="308.0993214479952" opacity="0.420986951874059"></circle><circle r="6.56097748104514" cx="720.6115374108806" cy="334.7131922116198" opacity="0.4272766359713518"></circle><circle r="12.87167845262136" cx="726.1777866062027" cy="219.44760121956395" opacity="0.38775433373777457"></circle><circle r="4.489263236171164" cx="121.83474829753406" cy="774.6217610890972" opacity="0.20327063666193323"></circle><circle r="12.12518281612383" cx="474.9568538207331" cy="690.7717152170266" opacity="0.5945615771793357"></circle><circle r="7.842279184091959" cx="707.4756248672848" cy="656.4066344920369" opacity="0.7134937121875765"></circle><circle r="13.372682141155849" cx="325.7783129319257" cy="425.8058377785305" opacity="0.7062759989957602"></circle><circle r="7.581712915574645" cx="774.665487055288" cy="262.3138810036816" opacity="0.5586925816007209"></circle><circle r="11.908102961208492" cx="514.5669879885298" cy="88.10452795719974" opacity="0.12137216517489978"></circle><circle r="7.901759099541637" cx="85.17977854707554" cy="762.4496182584882" opacity="0.6586933064178775"></circle><circle r="11.446647307986648" cx="307.7581566147421" cy="104.36199898956981" opacity="0.676810570938472"></circle><circle r="7.978856246583103" cx="670.9875718360848" cy="189.25429006906606" opacity="0.2318239075275731"></circle></g></svg>