<?xml version="1.0" standalone="no"?><svg xmlns:xlink="http://www.w3.org/1999/xlink" xmlns="http://www.w3.org/2000/svg" viewBox="0 0 1400 875" preserveAspectRatio="xMaxYMax slice"><g transform="scale(1.3565891472868217)"><rect x="0" y="0" width="1032" height="645" fill="#ffffff"/><rect x="0" y="258" width="129" height="129" fill="#ffffff"/><path d="M 0 258 A 64.5 64.5 0 0 1  64.5 322.5 L 0 258 A 64.5 64.5 0 0 0 64.5 322.5" fill="#fef1f2"/><rect x="129" y="258" width="129" height="129" fill="#ffffff"/><path d="M 193.5 258 A 64.5 64.5 0 0 1  258 322.5 L 193.5 258 A 64.5 64.5 0 0 0 258 322.5" fill="#feeff0"/><rect x="258" y="258" width="129" height="129" fill="#ffffff"/><path d="M 322.5 258 A 64.5 64.5 0 0 1  387 322.5 L 322.5 258 A 64.5 64.5 0 0 0 387 322.5" fill="#fee9ea"/><path d="M 258 387 A 64.5 64.5 0 0 1  322.5 322.5 L 258 387 A 64.5 64.5 0 0 0 322.5 322.5" fill="#feeeef"/><rect x="645" y="258" width="129" height="129" fill="#ffffff"/><path d="M 645 258 A 64.5 64.5 0 0 1  709.5 322.5 L 645 258 A 64.5 64.5 0 0 0 709.5 322.5" fill="#ffc7ca"/><path d="M 709.5 258 A 64.5 64.5 0 0 1  774 322.5 L 709.5 258 A 64.5 64.5 0 0 0 774 322.5" fill="#fee9eb"/><path d="M 645 322.5 A 64.5 64.5 0 0 1  709.5 387 L 645 322.5 A 64.5 64.5 0 0 0 709.5 387" fill="#fffafa"/><path d="M 903 387 A 129 129 0 0 1  1032 258 L 903 387 A 129 129 0 0 0 1032 258" fill="#feeeef"/><rect x="0" y="387" width="129" height="129" fill="#ffffff"/><path d="M 0 451.5 A 64.5 64.5 0 0 1  64.5 387 L 0 451.5 A 64.5 64.5 0 0 0 64.5 387" fill="#fff4f5"/><path d="M 64.5 451.5 A 64.5 64.5 0 0 1  129 516 L 64.5 451.5 A 64.5 64.5 0 0 0 129 516" fill="#fffafa"/><path d="M 129 516 A 129 129 0 0 1  258 387 L 129 516 A 129 129 0 0 0 258 387" fill="#fff5f6"/><rect x="387" y="387" width="129" height="129" fill="#ffffff"/><path d="M 387 451.5 A 64.5 64.5 0 0 1  451.5 387 L 387 451.5 A 64.5 64.5 0 0 0 451.5 387" fill="#fef0f1"/><path d="M 451.5 387 A 64.5 64.5 0 0 1  516 451.5 L 451.5 387 A 64.5 64.5 0 0 0 516 451.5" fill="#fffcfc"/><path d="M 387 516 A 64.5 64.5 0 0 1  451.5 451.5 L 387 516 A 64.5 64.5 0 0 0 451.5 451.5" fill="#ffb0b5"/><path d="M 451.5 516 A 64.5 64.5 0 0 1  516 451.5 L 451.5 516 A 64.5 64.5 0 0 0 516 451.5" fill="#fffdfd"/><rect x="516" y="387" width="129" height="129" fill="#ffffff"/><path d="M 580.5 451.5 A 64.5 64.5 0 0 1  645 387 L 580.5 451.5 A 64.5 64.5 0 0 0 645 387" fill="#fffbfb"/><rect x="645" y="387" width="129" height="129" fill="#ffffff"/><path d="M 645 451.5 A 64.5 64.5 0 0 1  709.5 516 L 645 451.5 A 64.5 64.5 0 0 0 709.5 516" fill="#ffb3b8"/><path d="M 774 387 A 129 129 0 0 1  903 516 L 774 387 A 129 129 0 0 0 903 516" fill="#feeeef"/><path d="M 903 516 A 129 129 0 0 1  1032 387 L 903 516 A 129 129 0 0 0 1032 387" fill="#ffacb1"/><path d="M 0 516 A 129 129 0 0 1  129 645 L 0 516 A 129 129 0 0 0 129 645" fill="#fff9fa"/><path d="M 129 645 A 129 129 0 0 1  258 516 L 129 645 A 129 129 0 0 0 258 516" fill="#ffc1c5"/><path d="M 258 516 A 129 129 0 0 1  387 645 L 258 516 A 129 129 0 0 0 387 645" fill="#fffbfb"/><rect x="387" y="516" width="129" height="129" fill="#ffffff"/><path d="M 387 580.5 A 64.5 64.5 0 0 1  451.5 516 L 387 580.5 A 64.5 64.5 0 0 0 451.5 516" fill="#fff4f5"/><path d="M 451.5 516 A 64.5 64.5 0 0 1  516 580.5 L 451.5 516 A 64.5 64.5 0 0 0 516 580.5" fill="#fff7f7"/><path d="M 387 580.5 A 64.5 64.5 0 0 1  451.5 645 L 387 580.5 A 64.5 64.5 0 0 0 451.5 645" fill="#fffcfd"/><path d="M 451.5 580.5 A 64.5 64.5 0 0 1  516 645 L 451.5 580.5 A 64.5 64.5 0 0 0 516 645" fill="#fee9eb"/><rect x="516" y="516" width="129" height="129" fill="#ffffff"/><path d="M 516 580.5 A 64.5 64.5 0 0 1  580.5 516 L 516 580.5 A 64.5 64.5 0 0 0 580.5 516" fill="#fff2f3"/><path d="M 580.5 580.5 A 64.5 64.5 0 0 1  645 516 L 580.5 580.5 A 64.5 64.5 0 0 0 645 516" fill="#ffa6ac"/><path d="M 516 580.5 A 64.5 64.5 0 0 1  580.5 645 L 516 580.5 A 64.5 64.5 0 0 0 580.5 645" fill="#fffcfd"/><path d="M 580.5 580.5 A 64.5 64.5 0 0 1  645 645 L 580.5 580.5 A 64.5 64.5 0 0 0 645 645" fill="#feeaec"/><path d="M 645 645 A 129 129 0 0 1  774 516 L 645 645 A 129 129 0 0 0 774 516" fill="#ffc3c7"/><rect x="774" y="516" width="129" height="129" fill="#ffffff"/><path d="M 774 580.5 A 64.5 64.5 0 0 1  838.5 516 L 774 580.5 A 64.5 64.5 0 0 0 838.5 516" fill="#fffcfc"/><path d="M 838.5 516 A 64.5 64.5 0 0 1  903 580.5 L 838.5 516 A 64.5 64.5 0 0 0 903 580.5" fill="#ffe1e3"/><path d="M 774 645 A 64.5 64.5 0 0 1  838.5 580.5 L 774 645 A 64.5 64.5 0 0 0 838.5 580.5" fill="#feedee"/><path d="M 838.5 580.5 A 64.5 64.5 0 0 1  903 645 L 838.5 580.5 A 64.5 64.5 0 0 0 903 645" fill="#ffe3e5"/><rect x="903" y="516" width="129" height="129" fill="#ffffff"/><path d="M 903 580.5 A 64.5 64.5 0 0 1  967.5 516 L 903 580.5 A 64.5 64.5 0 0 0 967.5 516" fill="#feeff0"/><path d="M 967.5 516 A 64.5 64.5 0 0 1  1032 580.5 L 967.5 516 A 64.5 64.5 0 0 0 1032 580.5" fill="#ffc6ca"/><path d="M 903 580.5 A 64.5 64.5 0 0 1  967.5 645 L 903 580.5 A 64.5 64.5 0 0 0 967.5 645" fill="#fff7f8"/><path d="M 967.5 645 A 64.5 64.5 0 0 1  1032 580.5 L 967.5 645 A 64.5 64.5 0 0 0 1032 580.5" fill="#ffc4c8"/></g></svg>