<svg xmlns="http://www.w3.org/2000/svg" version="1.1" xmlns:xlink="http://www.w3.org/1999/xlink" xmlns:svgjs="http://svgjs.dev/svgjs" width="1440" height="760" preserveAspectRatio="none" viewBox="0 0 1440 760"><g mask="url(&quot;#SvgjsMask1211&quot;)" fill="none"><rect width="1440" height="760" x="0" y="0" fill="url(&quot;#SvgjsLinearGradient1212&quot;)"></rect><path d="M534.19 767.68C700.11 753.91 814.01 417.9 1100.58 417.38 1387.15 416.86 1518.8 590.21 1666.97 592.18" stroke="rgba(255, 112, 112, 0.58)" stroke-width="2"></path><path d="M700.47 846.36C828.42 782.5 727.84 395.67 1008.34 364.27 1288.84 332.87 1464.59 198.55 1624.09 197.07" stroke="rgba(255, 112, 112, 0.58)" stroke-width="2"></path><path d="M695.82 791.55C803.23 741.78 757.89 399.09 959.63 398.33 1161.38 397.57 1342.9 628.66 1487.26 633.93" stroke="rgba(255, 112, 112, 0.58)" stroke-width="2"></path><path d="M337.23 803.42C476.38 760.22 386.33 386.01 716.53 360.95 1046.74 335.89 1276.57 128.04 1475.14 125.35" stroke="rgba(255, 112, 112, 0.58)" stroke-width="2"></path><path d="M240.29 859.34C385.05 824.55 433.88 441.21 658.5 435.37 883.12 429.53 867.61 530.37 1076.71 530.37 1285.81 530.37 1387.71 435.96 1494.92 435.37" stroke="rgba(255, 112, 112, 0.58)" stroke-width="2"></path></g><defs><mask id="SvgjsMask1211"><rect width="1440" height="760" fill="#ffffff"></rect></mask><linearGradient x1="50%" y1="0%" x2="50%" y2="100%" gradientUnits="userSpaceOnUse" id="SvgjsLinearGradient1212"><stop stop-color="rgba(255, 255, 255, 1)" offset="0"></stop><stop stop-color="rgba(255, 233, 232, 1)" offset="1"></stop></linearGradient></defs></svg>