<svg xmlns="http://www.w3.org/2000/svg" version="1.1" xmlns:xlink="http://www.w3.org/1999/xlink" xmlns:svgjs="http://svgjs.dev/svgjs" width="1440" height="900" preserveAspectRatio="none" viewBox="0 0 1440 900"><g mask="url(&quot;#SvgjsMask1823&quot;)" fill="none"><rect width="1440" height="900" x="0" y="0" fill="url(&quot;#SvgjsRadialGradient1824&quot;)"></rect><path d="M9 900L909 0L1294.5 0L394.5 900z" fill="url(&quot;#SvgjsLinearGradient1825&quot;)"></path><path d="M568.2 900L1468.2 0L2027.7 0L1127.7 900z" fill="url(&quot;#SvgjsLinearGradient1825&quot;)"></path><path d="M1401 900L501 0L55.5 0L955.5 900z" fill="url(&quot;#SvgjsLinearGradient1826&quot;)"></path><path d="M926.8 900L26.799999999999955 0L-135.20000000000005 0L764.8 900z" fill="url(&quot;#SvgjsLinearGradient1826&quot;)"></path><path d="M587.7925849561731 900L1440 47.79258495617307L1440 900z" fill="url(&quot;#SvgjsLinearGradient1825&quot;)"></path><path d="M0 900L852.2074150438269 900L 0 47.79258495617307z" fill="url(&quot;#SvgjsLinearGradient1826&quot;)"></path></g><defs><mask id="SvgjsMask1823"><rect width="1440" height="900" fill="#ffffff"></rect></mask><radialGradient cx="50%" cy="50%" r="849.06" gradientUnits="userSpaceOnUse" id="SvgjsRadialGradient1824"><stop stop-color="rgba(255, 216, 216, 1)" offset="0"></stop><stop stop-color="rgba(255, 241, 241, 1)" offset="0.71"></stop></radialGradient><linearGradient x1="0%" y1="100%" x2="100%" y2="0%" id="SvgjsLinearGradient1825"><stop stop-color="rgba(255, 31, 31, 0.2)" offset="0"></stop><stop stop-opacity="0" stop-color="rgba(255, 31, 31, 0.2)" offset="0.66"></stop></linearGradient><linearGradient x1="100%" y1="100%" x2="0%" y2="0%" id="SvgjsLinearGradient1826"><stop stop-color="rgba(255, 31, 31, 0.2)" offset="0"></stop><stop stop-opacity="0" stop-color="rgba(255, 31, 31, 0.2)" offset="0.66"></stop></linearGradient></defs></svg>