<?xml version="1.0" standalone="no"?>
<svg viewBox="0 0 200 200" xmlns="http://www.w3.org/2000/svg">
  <path fill="#FEEAEB" d="M46.1,-72.6C60,-62.7,71.7,-50.4,79.4,-35.7C87.1,-20.9,90.7,-3.7,88.7,12.9C86.6,29.6,78.8,45.5,67.5,58.5C56.3,71.4,41.5,81.3,25.4,85.5C9.4,89.7,-8.1,88.2,-23.7,82.7C-39.3,77.2,-53.1,67.5,-65.2,55.4C-77.3,43.3,-87.7,28.7,-90.6,12.7C-93.4,-3.4,-88.8,-20.9,-81.3,-37C-73.8,-53.2,-63.5,-68,-49.5,-77.7C-35.5,-87.5,-17.7,-92.3,-0.8,-91C16.1,-89.7,32.2,-82.4,46.1,-72.6Z" transform="translate(100 100)" />
</svg>
