<?xml version="1.0" standalone="no"?>
<svg viewBox="0 0 200 200" xmlns="http://www.w3.org/2000/svg">
  <path fill="#FDBABF" d="M42.5,-65.8C52.2,-59.8,55.2,-43.2,60.5,-28.6C65.7,-13.9,73.1,-1.2,70.3,9.3C67.6,19.9,54.8,28.1,45.8,41C36.7,53.9,31.4,71.4,19.7,81.3C8,91.1,-10,93.3,-20.9,84.2C-31.8,75.1,-35.5,54.5,-46.5,40.8C-57.4,27.2,-75.6,20.3,-83.9,7.9C-92.2,-4.5,-90.5,-22.6,-82.8,-37.2C-75.1,-51.8,-61.4,-63.1,-46.6,-66.7C-31.8,-70.4,-15.9,-66.6,0.2,-66.9C16.4,-67.3,32.7,-71.8,42.5,-65.8Z" transform="translate(100 100)" />
</svg>
