<?xml version="1.0" standalone="no"?>
<svg viewBox="0 0 200 200" xmlns="http://www.w3.org/2000/svg">
  <path fill="#FE858E" d="M39.9,-62.3C50.1,-55.6,55.4,-41.7,60.6,-28.3C65.8,-14.9,70.8,-2,70.3,11C69.8,23.9,63.7,36.9,55.6,50.6C47.5,64.2,37.4,78.5,23.9,83.2C10.5,87.8,-6.2,83,-20.8,76.2C-35.4,69.5,-47.8,60.8,-59.3,50C-70.9,39.2,-81.6,26.2,-84.6,11.6C-87.7,-3.1,-83,-19.4,-75.7,-34.2C-68.4,-49,-58.5,-62.3,-45.4,-67.6C-32.4,-72.9,-16.2,-70.2,-0.6,-69.2C14.9,-68.2,29.8,-68.9,39.9,-62.3Z" transform="translate(100 100)" />
</svg>
