<?xml version="1.0" encoding="utf-8"?>
<!-- Generator: Adobe Illustrator 27.5.0, SVG Export Plug-In . SVG Version: 6.00 Build 0)  -->
<svg version="1.1" xmlns="http://www.w3.org/2000/svg" xmlns:xlink="http://www.w3.org/1999/xlink" x="0px" y="0px"
	 viewBox="0 0 500 500" style="enable-background:new 0 0 500 500;" xml:space="preserve">
<g id="Background_Complete">
	<g>
		<g>
			<g>
				<g>
					<g>
						<g>
							<g>
								<rect x="97.042" y="286.994" style="fill:#E0E0E0;" width="107.808" height="178.453"/>
							</g>
						</g>
					</g>
				</g>
			</g>
		</g>
		<g>
			<g>
				<g>
					<g>
						<g>
							<g>
								<rect x="93.457" y="286.994" style="fill:#EBEBEB;" width="107.808" height="178.453"/>
							</g>
						</g>
					</g>
				</g>
			</g>
		</g>
		<g>
			<g>
				<g>
					<g>
						<g>
							<g>
								<rect x="98.048" y="290.613" style="fill:#FAFAFA;" width="98.627" height="171.216"/>
							</g>
						</g>
					</g>
				</g>
			</g>
		</g>
		<g>
			<g>
				<g>
					<g>
						<g>
							<g>
								<g>
									<rect x="116.824" y="312.861" style="fill:#EBEBEB;" width="60.647" height="126.719"/>
								</g>
							</g>
						</g>
					</g>
				</g>
			</g>
			<g>
				<g>
					<g>
						<g>
							<g>
								<g>
									<path style="fill:#E0E0E0;" d="M116.824,394.738c-0.14-11.837,10.503-23.393,22.225-25.046
										c5.59-0.788,11.528,0.321,16.751-1.82c9.322-3.823,12.289-16.209,21.671-19.883l0.428,91.591h-61.075V394.738z"/>
								</g>
							</g>
						</g>
					</g>
				</g>
			</g>
		</g>
	</g>
	<g>
		<g>
			<g>
				<g>
					<g>
						<g>
							<g>
								<rect x="39.794" y="236.751" style="fill:#E0E0E0;" width="136.872" height="226.562"/>
							</g>
						</g>
					</g>
				</g>
			</g>
		</g>
		<g>
			<g>
				<g>
					<g>
						<g>
							<g>
								<rect x="35.242" y="236.751" style="fill:#EBEBEB;" width="136.872" height="226.562"/>
							</g>
						</g>
					</g>
				</g>
			</g>
		</g>
		<g>
			<g>
				<g>
					<g>
						<g>
							<g>
								<rect x="41.07" y="241.346" style="fill:#FAFAFA;" width="125.215" height="217.373"/>
							</g>
						</g>
					</g>
				</g>
			</g>
		</g>
		<g>
			<g>
				<g>
					<g>
						<g>
							<g>
								<g>
									<rect x="64.908" y="269.591" style="fill:#EBEBEB;" width="76.997" height="160.881"/>
								</g>
							</g>
						</g>
					</g>
				</g>
			</g>
			<g>
				<g>
					<g>
						<g>
							<g>
								<g>
									<path style="fill:#E0E0E0;" d="M64.908,373.542c-0.178-15.028,13.335-29.7,28.217-31.798
										c7.096-1.001,14.636,0.408,21.267-2.311c11.836-4.853,15.601-20.579,27.513-25.243l0.544,116.282h-77.54V373.542z"/>
								</g>
							</g>
						</g>
					</g>
				</g>
			</g>
		</g>
	</g>
	<g>
		<g>
			<g>
				<g>
					<g>
						<g>
							<g>
								<rect x="161.701" y="63.415" style="fill:#E0E0E0;" width="46.962" height="68.069"/>
							</g>
						</g>
					</g>
				</g>
			</g>
		</g>
		<g>
			<g>
				<g>
					<g>
						<g>
							<g>
								<rect x="159.349" y="63.415" style="fill:#F5F5F5;" width="46.962" height="68.069"/>
							</g>
						</g>
					</g>
				</g>
			</g>
		</g>
		<g>
			<g>
				<g>
					<g>
						<g>
							<g>
								<g>
									<rect x="165.183" y="70.787" style="fill:#FFFFFF;" width="35.293" height="53.325"/>
								</g>
							</g>
						</g>
					</g>
				</g>
			</g>
			<g>
				<g>
					<g>
						<g>
							<g>
								<g>
									<g>
										<path style="fill:#E0E0E0;" d="M200.476,124.112c0,0-0.005-0.09-0.007-0.261c-0.002-0.176-0.004-0.427-0.007-0.756
											c-0.003-0.67-0.008-1.651-0.014-2.925c-0.007-2.556-0.018-6.28-0.032-10.984c-0.014-9.403-0.034-22.718-0.058-38.398
											l0.117,0.117c-10.783,0.003-22.73,0.007-35.288,0.01h-0.004l0.128-0.128c-0.01,20.116-0.019,38.663-0.026,53.325
											l-0.102-0.102c10.748,0.022,19.558,0.041,25.688,0.053c3.066,0.011,5.461,0.02,7.097,0.026
											c0.813,0.005,1.436,0.009,1.863,0.011C200.254,124.104,200.476,124.112,200.476,124.112s-0.208,0.007-0.623,0.011
											c-0.423,0.003-1.039,0.006-1.844,0.011c-1.631,0.006-4.018,0.015-7.074,0.026c-6.146,0.013-14.977,0.031-25.752,0.054
											l-0.102,0v-0.102c-0.007-14.661-0.016-33.208-0.026-53.325l0-0.128h0.128h0.004c12.558,0.004,24.506,0.007,35.288,0.01
											l0.117,0l0,0.117c-0.023,15.712-0.044,29.053-0.058,38.475c-0.013,4.693-0.024,8.409-0.031,10.958
											c-0.006,1.264-0.011,2.237-0.014,2.901c-0.003,0.323-0.005,0.57-0.007,0.743
											C200.481,124.031,200.476,124.112,200.476,124.112z"/>
									</g>
								</g>
							</g>
						</g>
					</g>
				</g>
			</g>
		</g>
		<g>
			<g>
				<g>
					<g>
						<g>
							<g>
								<g>
									<path style="fill:none;stroke:#FBFBFB;stroke-width:0.25;stroke-miterlimit:10;" d="M198.84,71.143"/>
								</g>
							</g>
						</g>
					</g>
				</g>
			</g>
		</g>
		<g>
			<g>
				<g>
					<g>
						<g>
							<g>
								<g>
									<path style="fill:#E0E0E0;" d="M206.442,63.415c0.027,0.021-0.291,0.487-0.837,1.216c-0.546,0.729-1.32,1.722-2.203,2.795
										c-0.884,1.073-1.71,2.023-2.321,2.699c-0.611,0.675-1.007,1.077-1.033,1.055c-0.027-0.024,0.32-0.467,0.896-1.172
										c0.63-0.764,1.404-1.704,2.261-2.743c0.856-1.04,1.63-1.98,2.259-2.744C206.045,63.819,206.414,63.393,206.442,63.415z"/>
								</g>
							</g>
						</g>
					</g>
				</g>
			</g>
		</g>
		<g>
			<g>
				<g>
					<g>
						<g>
							<g>
								<g>
									<path style="fill:#FFFFFF;" d="M200.656,123.94c1.753,2.787,3.822,5.375,6.156,7.698"/>
								</g>
							</g>
						</g>
					</g>
				</g>
			</g>
			<g>
				<g>
					<g>
						<g>
							<g>
								<g>
									<g>
										<path style="fill:#E0E0E0;" d="M206.811,131.638c-0.023,0.023-0.442-0.34-1.073-0.976
											c-0.631-0.636-1.467-1.551-2.322-2.619c-0.854-1.069-1.563-2.086-2.044-2.842c-0.482-0.756-0.744-1.244-0.716-1.261
											c0.032-0.02,0.348,0.434,0.866,1.16c0.518,0.727,1.245,1.721,2.094,2.783c0.85,1.062,1.659,1.99,2.254,2.655
											C206.464,131.203,206.838,131.612,206.811,131.638z"/>
									</g>
								</g>
							</g>
						</g>
					</g>
				</g>
			</g>
		</g>
		<g>
			<g>
				<g>
					<g>
						<g>
							<g>
								<g>
									<path style="fill:#FFFFFF;" d="M159.342,131.43c2.05-2.53,4.101-5.06,6.151-7.589"/>
								</g>
							</g>
						</g>
					</g>
				</g>
			</g>
			<g>
				<g>
					<g>
						<g>
							<g>
								<g>
									<g>
										<path style="fill:#E0E0E0;" d="M165.493,123.841c0.055,0.045-1.278,1.78-2.976,3.875c-1.699,2.096-3.12,3.759-3.175,3.715
											c-0.055-0.045,1.278-1.779,2.977-3.875C164.017,125.459,165.438,123.796,165.493,123.841z"/>
									</g>
								</g>
							</g>
						</g>
					</g>
				</g>
			</g>
		</g>
		<g>
			<g>
				<g>
					<g>
						<g>
							<g>
								<g>
									<path style="fill:#E0E0E0;" d="M159.349,63.415c0.055-0.044,1.392,1.555,2.986,3.569c1.594,2.015,2.841,3.684,2.785,3.728
										c-0.055,0.044-1.392-1.554-2.986-3.569C160.541,65.128,159.293,63.459,159.349,63.415z"/>
								</g>
							</g>
						</g>
					</g>
				</g>
			</g>
		</g>
		<g>
			<g>
				<g>
					<g>
						<g>
							<g>
								<rect x="177.663" y="81.614" style="fill:#FAFAFA;" width="11.817" height="33.553"/>
							</g>
						</g>
					</g>
				</g>
			</g>
		</g>
	</g>
	<g>
		<g>
			<g>
				<g>
					<g>
						<g>
							<g>
								<rect x="406.254" y="133.129" style="fill:#E0E0E0;" width="70.311" height="101.914"/>
							</g>
						</g>
					</g>
				</g>
			</g>
		</g>
		<g>
			<g>
				<g>
					<g>
						<g>
							<g>
								<rect x="402.732" y="133.129" style="fill:#F5F5F5;" width="70.311" height="101.914"/>
							</g>
						</g>
					</g>
				</g>
			</g>
		</g>
		<g>
			<g>
				<g>
					<g>
						<g>
							<g>
								<g>
									<rect x="411.468" y="144.167" style="fill:#FFFFFF;" width="52.84" height="79.838"/>
								</g>
							</g>
						</g>
					</g>
				</g>
			</g>
			<g>
				<g>
					<g>
						<g>
							<g>
								<g>
									<g>
										<path style="fill:#E0E0E0;" d="M464.308,224.005c0,0-0.007-0.135-0.01-0.391c-0.002-0.264-0.006-0.64-0.01-1.132
											c-0.005-1.003-0.012-2.472-0.021-4.379c-0.011-3.826-0.027-9.402-0.047-16.446c-0.021-14.078-0.051-34.014-0.086-57.49
											l0.175,0.175c-16.144,0.005-34.032,0.01-52.834,0.016h-0.006l0.191-0.191c-0.015,30.118-0.028,57.887-0.039,79.838
											l-0.152-0.152c16.092,0.033,29.282,0.061,38.461,0.08c4.591,0.017,8.177,0.03,10.626,0.039
											c1.217,0.007,2.15,0.013,2.789,0.017C463.975,223.994,464.308,224.005,464.308,224.005s-0.311,0.011-0.932,0.016
											c-0.633,0.004-1.556,0.01-2.761,0.017c-2.441,0.009-6.015,0.022-10.592,0.039c-9.201,0.019-22.424,0.047-38.556,0.08
											l-0.152,0v-0.153c-0.011-21.95-0.024-49.72-0.039-79.838l0-0.191h0.191h0.006c18.802,0.006,36.69,0.011,52.834,0.016
											l0.176,0l0,0.175c-0.035,23.523-0.065,43.499-0.086,57.605c-0.02,7.027-0.036,12.589-0.047,16.407
											c-0.009,1.892-0.016,3.349-0.021,4.344c-0.004,0.484-0.008,0.853-0.01,1.112
											C464.315,223.883,464.308,224.005,464.308,224.005z"/>
									</g>
								</g>
							</g>
						</g>
					</g>
				</g>
			</g>
		</g>
		<g>
			<g>
				<g>
					<g>
						<g>
							<g>
								<g>
									<path style="fill:none;stroke:#FBFBFB;stroke-width:0.25;stroke-miterlimit:10;" d="M461.858,144.7"/>
								</g>
							</g>
						</g>
					</g>
				</g>
			</g>
		</g>
		<g>
			<g>
				<g>
					<g>
						<g>
							<g>
								<g>
									<path style="fill:#E0E0E0;" d="M473.241,133.129c0.041,0.032-0.436,0.729-1.253,1.821
										c-0.817,1.092-1.976,2.578-3.299,4.184c-1.324,1.607-2.56,3.029-3.475,4.04c-0.916,1.011-1.508,1.613-1.547,1.579
										c-0.04-0.035,0.48-0.7,1.342-1.755c0.943-1.144,2.102-2.551,3.385-4.107c1.281-1.557,2.44-2.964,3.382-4.109
										C472.646,133.734,473.198,133.096,473.241,133.129z"/>
								</g>
							</g>
						</g>
					</g>
				</g>
			</g>
		</g>
		<g>
			<g>
				<g>
					<g>
						<g>
							<g>
								<g>
									<path style="fill:#FFFFFF;" d="M464.577,223.748c2.624,4.173,5.723,8.048,9.216,11.526"/>
								</g>
							</g>
						</g>
					</g>
				</g>
			</g>
			<g>
				<g>
					<g>
						<g>
							<g>
								<g>
									<g>
										<path style="fill:#E0E0E0;" d="M473.793,235.274c-0.035,0.035-0.662-0.509-1.607-1.462
											c-0.945-0.952-2.197-2.322-3.477-3.921c-1.279-1.601-2.34-3.124-3.061-4.255c-0.721-1.131-1.114-1.863-1.072-1.889
											c0.048-0.03,0.521,0.65,1.296,1.737c0.775,1.088,1.864,2.576,3.135,4.167c1.272,1.589,2.484,2.979,3.375,3.975
											C473.274,234.622,473.833,235.234,473.793,235.274z"/>
									</g>
								</g>
							</g>
						</g>
					</g>
				</g>
			</g>
		</g>
		<g>
			<g>
				<g>
					<g>
						<g>
							<g>
								<g>
									<path style="fill:#FFFFFF;" d="M402.722,234.962c3.07-3.788,6.14-7.575,9.21-11.363"/>
								</g>
							</g>
						</g>
					</g>
				</g>
			</g>
			<g>
				<g>
					<g>
						<g>
							<g>
								<g>
									<g>
										<path style="fill:#E0E0E0;" d="M411.932,223.599c0.082,0.067-1.913,2.664-4.456,5.802
											c-2.544,3.138-4.672,5.628-4.754,5.561c-0.082-0.067,1.913-2.664,4.456-5.802
											C409.721,226.023,411.85,223.533,411.932,223.599z"/>
									</g>
								</g>
							</g>
						</g>
					</g>
				</g>
			</g>
		</g>
		<g>
			<g>
				<g>
					<g>
						<g>
							<g>
								<g>
									<path style="fill:#E0E0E0;" d="M402.732,133.129c0.083-0.066,2.085,2.327,4.47,5.344c2.387,3.018,4.253,5.516,4.171,5.582
										c-0.083,0.065-2.084-2.327-4.47-5.344C404.516,135.694,402.649,133.195,402.732,133.129z"/>
								</g>
							</g>
						</g>
					</g>
				</g>
			</g>
		</g>
		<g>
			<g>
				<g>
					<g>
						<g>
							<g>
								<rect x="430.152" y="160.377" style="fill:#E0E0E0;" width="17.693" height="50.235"/>
							</g>
						</g>
					</g>
				</g>
			</g>
		</g>
	</g>
	<g>
		<g>
			<g>
				<g>
					<g>
						<g>
							<g>
								<rect x="388.876" y="30.58" style="fill:#E0E0E0;" width="46.962" height="68.069"/>
							</g>
						</g>
					</g>
				</g>
			</g>
		</g>
		<g>
			<g>
				<g>
					<g>
						<g>
							<g>
								<rect x="386.524" y="30.58" style="fill:#F5F5F5;" width="46.962" height="68.069"/>
							</g>
						</g>
					</g>
				</g>
			</g>
		</g>
		<g>
			<g>
				<g>
					<g>
						<g>
							<g>
								<g>
									<rect x="392.359" y="37.952" style="fill:#FFFFFF;" width="35.293" height="53.325"/>
								</g>
							</g>
						</g>
					</g>
				</g>
			</g>
			<g>
				<g>
					<g>
						<g>
							<g>
								<g>
									<g>
										<path style="fill:#E0E0E0;" d="M427.651,91.277c0,0-0.005-0.09-0.007-0.261c-0.002-0.176-0.004-0.427-0.007-0.756
											c-0.003-0.67-0.008-1.651-0.014-2.925c-0.007-2.556-0.018-6.28-0.031-10.984c-0.014-9.403-0.034-22.718-0.058-38.398
											l0.117,0.117c-10.783,0.003-22.73,0.007-35.288,0.01h-0.004l0.128-0.128c-0.01,20.116-0.019,38.664-0.026,53.324
											l-0.102-0.102c10.748,0.022,19.558,0.041,25.688,0.054c3.066,0.011,5.461,0.02,7.097,0.026
											c0.813,0.005,1.436,0.009,1.863,0.011C427.429,91.269,427.651,91.277,427.651,91.277s-0.208,0.007-0.623,0.011
											c-0.423,0.003-1.039,0.006-1.844,0.011c-1.631,0.006-4.018,0.015-7.074,0.026c-6.146,0.013-14.977,0.031-25.752,0.054
											l-0.102,0v-0.102c-0.007-14.661-0.016-33.208-0.026-53.324v-0.128h0.128h0.004c12.558,0.004,24.506,0.007,35.288,0.011
											l0.117,0l0,0.117c-0.023,15.712-0.043,29.053-0.058,38.475c-0.014,4.693-0.024,8.409-0.031,10.958
											c-0.006,1.263-0.011,2.237-0.014,2.901c-0.003,0.323-0.005,0.57-0.007,0.743
											C427.656,91.196,427.651,91.277,427.651,91.277z"/>
									</g>
								</g>
							</g>
						</g>
					</g>
				</g>
			</g>
		</g>
		<g>
			<g>
				<g>
					<g>
						<g>
							<g>
								<g>
									<path style="fill:none;stroke:#FBFBFB;stroke-width:0.25;stroke-miterlimit:10;" d="M426.015,38.308"/>
								</g>
							</g>
						</g>
					</g>
				</g>
			</g>
		</g>
		<g>
			<g>
				<g>
					<g>
						<g>
							<g>
								<g>
									<path style="fill:#E0E0E0;" d="M433.618,30.58c0.027,0.021-0.291,0.487-0.837,1.216c-0.546,0.729-1.32,1.722-2.203,2.795
										c-0.884,1.073-1.71,2.023-2.321,2.699c-0.612,0.675-1.007,1.077-1.033,1.055c-0.027-0.024,0.32-0.468,0.896-1.172
										c0.63-0.764,1.404-1.704,2.261-2.743c0.856-1.04,1.63-1.98,2.259-2.744C433.22,30.984,433.589,30.558,433.618,30.58z"/>
								</g>
							</g>
						</g>
					</g>
				</g>
			</g>
		</g>
		<g>
			<g>
				<g>
					<g>
						<g>
							<g>
								<g>
									<path style="fill:#FFFFFF;" d="M427.831,91.105c1.753,2.787,3.822,5.375,6.156,7.698"/>
								</g>
							</g>
						</g>
					</g>
				</g>
			</g>
			<g>
				<g>
					<g>
						<g>
							<g>
								<g>
									<g>
										<path style="fill:#E0E0E0;" d="M433.986,98.803c-0.023,0.023-0.442-0.34-1.073-0.976
											c-0.631-0.636-1.467-1.551-2.322-2.619c-0.854-1.069-1.563-2.086-2.044-2.842c-0.482-0.756-0.744-1.244-0.716-1.262
											c0.032-0.02,0.348,0.434,0.866,1.16c0.518,0.727,1.245,1.721,2.094,2.783c0.85,1.062,1.659,1.99,2.254,2.655
											C433.64,98.368,434.013,98.777,433.986,98.803z"/>
									</g>
								</g>
							</g>
						</g>
					</g>
				</g>
			</g>
		</g>
		<g>
			<g>
				<g>
					<g>
						<g>
							<g>
								<g>
									<path style="fill:#FFFFFF;" d="M386.517,98.595c2.05-2.53,4.101-5.06,6.151-7.589"/>
								</g>
							</g>
						</g>
					</g>
				</g>
			</g>
			<g>
				<g>
					<g>
						<g>
							<g>
								<g>
									<g>
										<path style="fill:#E0E0E0;" d="M392.668,91.006c0.055,0.044-1.278,1.78-2.976,3.875c-1.699,2.096-3.12,3.759-3.175,3.714
											c-0.055-0.044,1.278-1.779,2.977-3.875C391.192,92.624,392.614,90.961,392.668,91.006z"/>
									</g>
								</g>
							</g>
						</g>
					</g>
				</g>
			</g>
		</g>
		<g>
			<g>
				<g>
					<g>
						<g>
							<g>
								<g>
									<path style="fill:#E0E0E0;" d="M386.524,30.58c0.055-0.044,1.392,1.554,2.986,3.569c1.594,2.015,2.841,3.684,2.785,3.728
										c-0.055,0.044-1.392-1.554-2.986-3.569C387.716,32.293,386.469,30.624,386.524,30.58z"/>
								</g>
							</g>
						</g>
					</g>
				</g>
			</g>
		</g>
		<g>
			<g>
				<g>
					<g>
						<g>
							<g>
								<rect x="404.838" y="48.779" style="fill:#FAFAFA;" width="11.817" height="33.553"/>
							</g>
						</g>
					</g>
				</g>
			</g>
		</g>
	</g>
</g>
<g id="Background_Simple" style="display:none;">
	<path style="display:inline;fill:#EBEBEB;" d="M431.68,90.955l-2.357-3.836c-19.873-32.338-55.804-51.832-93.686-49.466
		c-4.87,0.304-9.719,0.955-14.502,1.966c-34.443,7.28-64.413,33-76.835,65.94c-7.306,19.372-9.347,41.677-23.211,57.054
		c-18.043,20.012-48.676,20.64-75.609,19.811s-57.586-0.122-75.541,19.969c-11.245,12.582-14.819,30.476-13.912,47.327
		c2.401,44.613,33.882,84.504,73.919,104.331c40.037,19.828,87.176,21.604,130.994,12.881
		c61.384-12.219,119.759-45.774,154.847-97.602C450.874,217.504,459.754,146.894,431.68,90.955z"/>
</g>
<g id="Floor">
	<g>
		<g>
			<g>
				<g>
					<path style="fill:#263238;" d="M467.551,463.925c0,0.144-97.409,0.26-217.541,0.26c-120.174,0-217.562-0.117-217.562-0.26
						c0-0.144,97.388-0.26,217.562-0.26C370.142,463.664,467.551,463.781,467.551,463.925z"/>
				</g>
			</g>
		</g>
	</g>
</g>
<g id="Character">
	<g>
		<g>
			<g>
				<g>
					<g>
						<g>
							<g>
								<g>
									<g>
										<g>
											<g>
												<g>
													<g>
														<g>
															<g>
																<g>
																	<g>
																		<g>
																			<g>
																				<g>
																					<g>
																						<g>
																							<path style="fill:#FFBE9D;" d="M133.174,117.23l-2.909,35.673c-0.495,6.066,4.188,11.312,10.271,11.507l0,0
																								c5.677,0.182,10.498-4.131,10.953-9.793c0.216-2.685,0.402-4.924,0.442-5.199c0,0,9.151-0.114,10.539-9.048
																								c0.671-4.318,1.329-13.323,1.83-21.478c0.538-8.757-5.75-16.456-14.436-17.696l-0.864-0.123
																								C139.612,100.286,133.699,107.822,133.174,117.23z"/>
																						</g>
																					</g>
																				</g>
																			</g>
																		</g>
																	</g>
																</g>
															</g>
														</g>
													</g>
												</g>
											</g>
											<g>
												<g>
													<g>
														<g>
															<g>
																<g>
																	<g>
																		<g>
																			<g>
																				<g>
																					<g>
																						<g>
																							<path style="fill:#EB996E;" d="M151.965,149.29c0,0-5.722-0.348-11.195-4.982c0,0,1.838,6.835,10.885,7.305
																								L151.965,149.29z"/>
																						</g>
																					</g>
																				</g>
																			</g>
																		</g>
																	</g>
																</g>
															</g>
														</g>
													</g>
												</g>
											</g>
										</g>
									</g>
								</g>
								<g>
									<g>
										<g>
											<g>
												<g>
													<g>
														<g>
															<g>
																<g>
																	<g>
																		<g>
																			<g>
																				<g>
																					<g>
																						<g>
																							<g>
																								<g>
																									<g>
																										<path style="fill:#263238;" d="M160.993,123.458c-0.072,0.678-0.707,1.176-1.417,1.114
																											c-0.708-0.063-1.226-0.662-1.153-1.341c0.072-0.678,0.707-1.177,1.415-1.115
																											C160.549,122.179,161.066,122.78,160.993,123.458z"/>
																									</g>
																								</g>
																							</g>
																						</g>
																					</g>
																				</g>
																			</g>
																		</g>
																	</g>
																</g>
															</g>
														</g>
														<g>
															<g>
																<g>
																	<g>
																		<g>
																			<g>
																				<g>
																					<g>
																						<g>
																							<g>
																								<g>
																									<g>
																										<g>
																											<path style="fill:#263238;" d="M162.007,122.494c-0.182,0.144-1.048-0.711-2.424-0.904
																												c-1.372-0.212-2.482,0.351-2.607,0.161c-0.063-0.085,0.142-0.363,0.627-0.62
																												c0.478-0.257,1.26-0.462,2.117-0.335c0.856,0.127,1.532,0.545,1.9,0.927
																												C161.996,122.108,162.096,122.43,162.007,122.494z"/>
																										</g>
																									</g>
																								</g>
																							</g>
																						</g>
																					</g>
																				</g>
																			</g>
																		</g>
																	</g>
																</g>
															</g>
														</g>
													</g>
													<g>
														<g>
															<g>
																<g>
																	<g>
																		<g>
																			<g>
																				<g>
																					<g>
																						<g>
																							<g>
																								<g>
																									<g>
																										<path style="fill:#263238;" d="M147.658,122.222c-0.073,0.678-0.707,1.176-1.417,1.114
																											c-0.708-0.063-1.225-0.662-1.153-1.341c0.073-0.678,0.707-1.177,1.416-1.115
																											C147.214,120.943,147.73,121.544,147.658,122.222z"/>
																									</g>
																								</g>
																							</g>
																						</g>
																					</g>
																				</g>
																			</g>
																		</g>
																	</g>
																</g>
															</g>
														</g>
														<g>
															<g>
																<g>
																	<g>
																		<g>
																			<g>
																				<g>
																					<g>
																						<g>
																							<g>
																								<g>
																									<g>
																										<g>
																											<path style="fill:#263238;" d="M148.276,121.011c-0.182,0.144-1.05-0.711-2.425-0.903
																												c-1.371-0.212-2.482,0.351-2.607,0.161c-0.062-0.085,0.14-0.363,0.627-0.62
																												c0.478-0.257,1.26-0.461,2.116-0.336c0.856,0.127,1.532,0.545,1.9,0.927
																												C148.263,120.625,148.364,120.947,148.276,121.011z"/>
																										</g>
																									</g>
																								</g>
																							</g>
																						</g>
																					</g>
																				</g>
																			</g>
																		</g>
																	</g>
																</g>
															</g>
														</g>
													</g>
													<g>
														<g>
															<g>
																<g>
																	<g>
																		<g>
																			<g>
																				<g>
																					<g>
																						<g>
																							<g>
																								<g>
																									<g>
																										<path style="fill:#263238;" d="M151.73,132.249c0.005-0.079,0.881-0.105,2.291-0.084
																											c0.356,0.014,0.699-0.008,0.792-0.24c0.119-0.242,0.026-0.641-0.086-1.074
																											c-0.209-0.897-0.427-1.837-0.657-2.823c-0.899-4.014-1.496-7.294-1.334-7.329
																											c0.162-0.035,1.022,3.19,1.921,7.204c0.213,0.989,0.417,1.931,0.611,2.833
																											c0.076,0.418,0.24,0.904-0.015,1.404c-0.132,0.249-0.417,0.403-0.651,0.431
																											c-0.235,0.036-0.433,0.012-0.608-0.002C152.589,132.445,151.724,132.328,151.73,132.249z"/>
																									</g>
																								</g>
																							</g>
																						</g>
																					</g>
																				</g>
																			</g>
																		</g>
																	</g>
																</g>
															</g>
														</g>
													</g>
												</g>
											</g>
										</g>
										<g>
											<g>
												<g>
													<g>
														<g>
															<g>
																<g>
																	<g>
																		<g>
																			<g>
																				<g>
																					<g>
																						<path style="fill:#263238;" d="M149.076,118.191c-0.189,0.354-1.537-0.019-3.178-0.055
																							c-1.641-0.069-3.01,0.218-3.176-0.148c-0.073-0.174,0.204-0.494,0.782-0.78
																							c0.573-0.287,1.454-0.512,2.439-0.481c0.984,0.033,1.849,0.313,2.402,0.636
																							C148.904,117.686,149.16,118.022,149.076,118.191z"/>
																					</g>
																				</g>
																			</g>
																		</g>
																	</g>
																</g>
															</g>
														</g>
													</g>
												</g>
											</g>
										</g>
										<g>
											<g>
												<g>
													<g>
														<g>
															<g>
																<g>
																	<g>
																		<g>
																			<g>
																				<g>
																					<g>
																						<path style="fill:#263238;" d="M161.443,116.959c-0.286,0.278-1.188-0.182-2.325-0.36
																							c-1.131-0.218-2.134-0.09-2.309-0.449c-0.075-0.172,0.122-0.464,0.586-0.699
																							c0.457-0.235,1.187-0.377,1.966-0.242c0.779,0.137,1.417,0.517,1.768,0.893
																							C161.485,116.481,161.572,116.822,161.443,116.959z"/>
																					</g>
																				</g>
																			</g>
																		</g>
																	</g>
																</g>
															</g>
														</g>
													</g>
												</g>
											</g>
										</g>
									</g>
								</g>
								<g>
									<g>
										<g>
											<g>
												<g>
													<g>
														<g>
															<g>
																<g>
																	<g>
																		<g>
																			<g>
																				<g>
																					<path style="fill:#FFBE9D;" d="M132.958,123.962c-0.143-0.088-5.89-2.697-6.568,3.45
																						c-0.678,6.147,5.633,5.56,5.663,5.385C132.083,132.621,132.958,123.962,132.958,123.962z"/>
																				</g>
																			</g>
																		</g>
																	</g>
																</g>
															</g>
														</g>
													</g>
												</g>
											</g>
										</g>
									</g>
									<g>
										<g>
											<g>
												<g>
													<g>
														<g>
															<g>
																<g>
																	<g>
																		<g>
																			<g>
																				<g>
																					<g>
																						<path style="fill:#EB996E;" d="M130.432,130.26c-0.025-0.023-0.115,0.063-0.306,0.126
																							c-0.185,0.061-0.495,0.083-0.802-0.072c-0.623-0.31-1.056-1.401-0.964-2.513
																							c0.046-0.561,0.222-1.081,0.469-1.5c0.237-0.429,0.563-0.711,0.896-0.733c0.334-0.039,0.544,0.182,0.6,0.363
																							c0.063,0.181,0.011,0.299,0.042,0.313c0.016,0.017,0.143-0.088,0.122-0.348
																							c-0.012-0.125-0.068-0.278-0.199-0.412c-0.134-0.136-0.344-0.221-0.575-0.222
																							c-0.478-0.02-0.952,0.369-1.224,0.83c-0.298,0.459-0.509,1.042-0.56,1.672
																							c-0.097,1.243,0.409,2.472,1.269,2.827c0.42,0.16,0.795,0.07,0.997-0.055
																							C130.405,130.408,130.452,130.274,130.432,130.26z"/>
																					</g>
																				</g>
																			</g>
																		</g>
																	</g>
																</g>
															</g>
														</g>
													</g>
												</g>
											</g>
										</g>
									</g>
								</g>
							</g>
						</g>
						<g>
							<g>
								<g>
									<g>
										<g>
											<g>
												<g>
													<g>
														<path style="fill:#263238;" d="M129.583,123.268c0.966-0.092,2.457,0.999,2.73,1.93
															c0.273,0.931,0.219,1.933,0.491,2.864c0.272,0.931,1.056,1.85,2.022,1.762c0.666-0.061,1.213-0.599,1.475-1.214
															c0.262-0.616,0.289-1.302,0.3-1.971c0.047-2.909-0.149-5.829,0.147-8.723c0.296-2.894,1.133-5.826,2.994-8.062
															c1.862-2.236,4.895-3.643,7.733-3.001c1.88,0.425,3.482,1.665,5.334,2.2c2.195,0.633,4.676,0.181,6.507-1.186
															c0.062-0.046,0.181-0.115,0.322-0.191c0.656-0.352,1.034-1.1,0.862-1.824c-0.058-0.247-0.146-0.476-0.278-0.638
															c-3.253-4.002-9.869-5.934-14.998-5.395c-5.129,0.539-10.269,3.372-13.062,7.708
															C129.37,111.862,129.08,118.405,129.583,123.268"/>
													</g>
												</g>
											</g>
										</g>
									</g>
								</g>
							</g>
						</g>
					</g>
					<g>
						<g>
							<g>
								<g>
									<g>
										<g>
											<path style="fill:#263238;" d="M154.674,136.25c-0.034,0.109-0.911-0.07-1.958-0.399
												c-1.047-0.33-1.868-0.685-1.834-0.794c0.034-0.109,0.911,0.07,1.958,0.4C153.887,135.785,154.708,136.141,154.674,136.25
												z"/>
										</g>
									</g>
								</g>
							</g>
						</g>
					</g>
					<g>
						<g>
							<g>
								<g>
									<g>
										<g>
											<path style="fill:#EB996E;" d="M161.628,142.77c0.042,0.009-0.083,0.714-0.675,1.685
												c-0.578,0.972-1.683,2.142-3.174,3.017c-1.49,0.874-2.988,1.333-4.064,1.61c-1.082,0.272-1.765,0.371-1.777,0.32
												c-0.015-0.059,0.644-0.259,1.696-0.6c1.047-0.346,2.497-0.841,3.936-1.686c1.437-0.844,2.522-1.927,3.141-2.821
												C161.34,143.402,161.562,142.745,161.628,142.77z"/>
										</g>
									</g>
								</g>
							</g>
						</g>
					</g>
				</g>
			</g>
			<g>
				<g>
					<g>
						<g>
							<path style="fill:#455A64;" d="M133.812,105.398c0.103-0.124,1.568,1.218,3.833,1.942c2.255,0.758,4.229,0.545,4.239,0.705
								c0.047,0.122-2.011,0.587-4.402-0.21C135.085,107.062,133.703,105.468,133.812,105.398z"/>
						</g>
					</g>
				</g>
			</g>
			<g>
				<g>
					<g>
						<g>
							<path style="fill:#455A64;" d="M153.548,109.016c-0.067,0.074-0.846-0.776-2.431-1.65c-1.562-0.871-4.019-1.695-6.763-1.397
								c-1.369,0.133-2.672,0.418-3.884,0.579c-1.211,0.171-2.335,0.197-3.262,0.066c-0.93-0.121-1.652-0.396-2.11-0.645
								c-0.46-0.25-0.671-0.452-0.654-0.476c0.041-0.087,0.997,0.616,2.804,0.754c0.895,0.079,1.968,0.019,3.152-0.175
								c1.186-0.183,2.488-0.485,3.905-0.623c2.869-0.312,5.439,0.616,6.997,1.597c0.795,0.486,1.367,0.982,1.733,1.348
								C153.402,108.761,153.571,108.994,153.548,109.016z"/>
						</g>
					</g>
				</g>
			</g>
			<g>
				<g>
					<g>
						<g>
							<path style="fill:#263238;" d="M134.321,105.803c0.094-1.273,0.175-2.56-0.031-3.819c-0.206-1.26-0.725-2.506-1.664-3.37
								c-1.181-1.086-2.945-1.439-4.497-1.034c-1.552,0.405-2.877,1.512-3.689,2.895c-1.071,1.823-1.239,4.24-0.112,6.029
								c1.127,1.789,3.646,2.671,5.516,1.686c0.67-0.353,1.221-0.903,1.889-1.259c0.668-0.356,1.562-0.479,2.137,0.015"/>
						</g>
					</g>
				</g>
				<g>
					<g>
						<g>
							<g>
								<path style="fill:#E8505B;" d="M134.745,104.085c0.114,0.087-0.388,0.939-1.15,1.884c-0.75,0.948-1.537,1.607-1.65,1.475
									c-0.072-0.09,0.493-0.855,1.245-1.802C133.946,104.705,134.63,103.997,134.745,104.085z"/>
							</g>
						</g>
					</g>
				</g>
				<g>
					<g>
						<g>
							<g>
								<path style="fill:#455A64;" d="M127.228,98.036c0.053,0.076-0.631,0.404-1.155,1.392c-0.249,0.482-0.462,1.133-0.361,1.823
									c0.109,0.676,0.536,1.404,1.128,1.984c1.216,1.191,2.795,1.61,3.891,1.879c1.117,0.257,1.825,0.397,1.813,0.474
									c-0.01,0.064-0.727,0.055-1.884-0.113c-1.127-0.182-2.834-0.554-4.186-1.869c-0.658-0.654-1.127-1.45-1.239-2.293
									c-0.09-0.843,0.202-1.56,0.518-2.069C126.426,98.201,127.226,97.982,127.228,98.036z"/>
							</g>
						</g>
					</g>
				</g>
				<g>
					<g>
						<g>
							<g>
								<path style="fill:#455A64;" d="M130.553,97.547c0.03,0.075-0.557,0.251-1.029,1.024c-0.232,0.372-0.437,0.881-0.45,1.446
									c0.002,0.566,0.169,1.213,0.483,1.815c0.639,1.219,1.644,2.061,2.403,2.559c0.77,0.503,1.32,0.708,1.293,0.785
									c-0.016,0.059-0.617-0.021-1.48-0.468c-0.849-0.443-1.971-1.29-2.68-2.638c-0.348-0.672-0.527-1.393-0.5-2.073
									c0.047-0.686,0.324-1.243,0.627-1.637C129.846,97.541,130.563,97.479,130.553,97.547z"/>
							</g>
						</g>
					</g>
				</g>
			</g>
		</g>
		<g>
			<g>
				<g>
					<g>
						<g>
							<g>
								<polygon style="fill:#FFBE9D;" points="153.542,409.895 145.191,447.918 159.448,448.047 169.791,414.735 								"/>
							</g>
						</g>
					</g>
				</g>
			</g>
			<g>
				<g>
					<g>
						<g>
							<g>
								<g>
									<g>
										<path style="fill:#E8505B;" d="M166.065,432.95l-5.208,17.299c0,0,15.834,11.104,15.183,14.395l-33.904-8.894
											l7.009-27.287L166.065,432.95z"/>
									</g>
								</g>
							</g>
						</g>
					</g>
					<g>
						<g>
							<g>
								<g>
									<g>
										<g>
											<path style="fill:#E0E0E0;" d="M150.758,446.029c-0.703,0.007-1.35,0.626-1.372,1.329
												c-0.022,0.703,0.602,1.366,1.305,1.371c0.703,0.005,1.503-0.714,1.445-1.415c-0.057-0.701-0.832-1.44-1.516-1.276"/>
										</g>
									</g>
								</g>
							</g>
						</g>
					</g>
					<g style="opacity:0.4;">
						<g>
							<g>
								<g>
									<g>
										<path d="M142.136,455.749l0.814-2.723l32.203,9.546c0,0,1.337,1.052,0.888,2.071L142.136,455.749z"/>
									</g>
								</g>
							</g>
						</g>
					</g>
					<g>
						<g>
							<g>
								<g>
									<g>
										<g>
											<path style="fill:#263238;" d="M161.452,450.22c-0.049,0.164-0.896,0.022-1.851,0.341
												c-0.963,0.294-1.571,0.901-1.706,0.795c-0.144-0.072,0.362-0.997,1.524-1.363
												C160.578,449.618,161.527,450.078,161.452,450.22z"/>
										</g>
									</g>
								</g>
							</g>
						</g>
					</g>
					<g>
						<g>
							<g>
								<g>
									<g>
										<g>
											<path style="fill:#263238;" d="M164.622,452.624c-0.004,0.17-0.795,0.264-1.541,0.817
												c-0.762,0.531-1.103,1.251-1.266,1.2c-0.162-0.015-0.023-1.015,0.918-1.684
												C163.668,452.279,164.66,452.465,164.622,452.624z"/>
										</g>
									</g>
								</g>
							</g>
						</g>
					</g>
					<g>
						<g>
							<g>
								<g>
									<g>
										<g>
											<path style="fill:#263238;" d="M165.525,457.41c-0.16-0.004-0.173-0.892,0.49-1.687c0.657-0.8,1.532-0.953,1.566-0.797
												c0.058,0.161-0.573,0.515-1.107,1.177C165.925,456.751,165.694,457.437,165.525,457.41z"/>
										</g>
									</g>
								</g>
							</g>
						</g>
					</g>
					<g>
						<g>
							<g>
								<g>
									<g>
										<g>
											<path style="fill:#263238;" d="M162.201,446.146c-0.109,0.133-0.809-0.295-1.761-0.477
												c-0.949-0.201-1.759-0.078-1.808-0.243c-0.064-0.145,0.807-0.571,1.926-0.341
												C161.678,445.307,162.317,446.038,162.201,446.146z"/>
										</g>
									</g>
								</g>
							</g>
						</g>
					</g>
				</g>
				<g>
					<g>
						<g>
							<g>
								<g>
									<g>
										<path style="fill:#263238;" d="M163.188,442.637c-0.016,0.069-0.697,0-1.696-0.454c-0.497-0.227-1.065-0.557-1.633-1.012
											c-0.284-0.227-0.567-0.485-0.839-0.773c-0.13-0.142-0.289-0.291-0.408-0.534c-0.138-0.221-0.127-0.687,0.155-0.901
											c0.242-0.215,0.579-0.247,0.825-0.188c0.252,0.057,0.441,0.161,0.614,0.255c0.354,0.191,0.675,0.409,0.961,0.639
											c0.571,0.465,0.999,0.975,1.296,1.438c0.595,0.935,0.702,1.624,0.637,1.641c-0.089,0.035-0.336-0.584-0.979-1.395
											c-0.321-0.404-0.749-0.847-1.29-1.25c-0.272-0.2-0.571-0.39-0.896-0.556c-0.334-0.188-0.639-0.271-0.773-0.136
											c-0.049,0.052-0.06,0.075-0.013,0.2c0.052,0.117,0.173,0.25,0.3,0.39c0.249,0.274,0.506,0.523,0.762,0.748
											c0.515,0.449,1.028,0.797,1.477,1.06C162.587,442.335,163.214,442.548,163.188,442.637z"/>
									</g>
								</g>
							</g>
						</g>
					</g>
				</g>
				<g>
					<g>
						<g>
							<g>
								<g>
									<g>
										<path style="fill:#263238;" d="M162.91,442.818c-0.065,0.01-0.238-0.669-0.018-1.757c0.111-0.539,0.336-1.169,0.719-1.798
											c0.193-0.313,0.427-0.624,0.703-0.917c0.286-0.283,0.647-0.668,1.308-0.573c0.339,0.076,0.549,0.41,0.585,0.66
											c0.052,0.259,0.023,0.461,0.011,0.668c-0.041,0.412-0.151,0.799-0.299,1.144c-0.296,0.694-0.749,1.217-1.185,1.564
											c-0.893,0.705-1.636,0.721-1.635,0.662c-0.033-0.098,0.628-0.266,1.356-0.977c0.359-0.351,0.725-0.841,0.956-1.454
											c0.116-0.305,0.198-0.639,0.226-0.989c0.042-0.374-0.017-0.701-0.162-0.699c-0.168-0.047-0.526,0.149-0.74,0.4
											c-0.254,0.258-0.474,0.533-0.662,0.81c-0.373,0.557-0.62,1.119-0.773,1.608
											C162.992,442.15,163.007,442.816,162.91,442.818z"/>
									</g>
								</g>
							</g>
						</g>
					</g>
				</g>
			</g>
		</g>
		<g>
			<g>
				<g>
					<g>
						<g>
							<g>
								<polygon style="fill:#FFBE9D;" points="116.16,416.401 117.026,455.32 130.91,452.079 133.092,417.266 								"/>
							</g>
						</g>
					</g>
				</g>
			</g>
			<g>
				<g>
					<g>
						<g>
							<g>
								<g>
									<g>
										<path style="fill:#E8505B;" d="M133.775,435.845l-0.975,18.04c0,0,18.009,7.05,18.153,10.401l-35.046-0.635l0.366-28.171
											L133.775,435.845z"/>
									</g>
								</g>
							</g>
						</g>
					</g>
					<g>
						<g>
							<g>
								<g>
									<g>
										<g>
											<path style="fill:#E0E0E0;" d="M121.99,452.171c-0.682,0.173-1.164,0.927-1.019,1.615
												c0.145,0.688,0.908,1.186,1.592,1.024c0.684-0.161,1.292-1.049,1.07-1.716c-0.221-0.668-1.149-1.203-1.774-0.882"/>
										</g>
									</g>
								</g>
							</g>
						</g>
					</g>
					<g style="opacity:0.4;">
						<g>
							<g>
								<g>
									<g>
										<path d="M115.907,463.652l0.148-2.838l33.546,1.67c0,0,1.548,0.707,1.352,1.803L115.907,463.652z"/>
									</g>
								</g>
							</g>
						</g>
					</g>
					<g>
						<g>
							<g>
								<g>
									<g>
										<g>
											<path style="fill:#263238;" d="M133.371,453.717c-0.009,0.171-0.866,0.233-1.718,0.768
												c-0.866,0.513-1.314,1.246-1.47,1.175c-0.157-0.036,0.116-1.054,1.16-1.684
												C132.38,453.338,133.411,453.561,133.371,453.717z"/>
										</g>
									</g>
								</g>
							</g>
						</g>
					</g>
					<g>
						<g>
							<g>
								<g>
									<g>
										<g>
											<path style="fill:#263238;" d="M137.019,455.304c0.036,0.167-0.71,0.444-1.305,1.158
												c-0.615,0.696-0.776,1.476-0.946,1.465c-0.161,0.024-0.262-0.98,0.494-1.853
												C136.01,455.194,137.018,455.141,137.019,455.304z"/>
										</g>
									</g>
								</g>
							</g>
						</g>
					</g>
					<g>
						<g>
							<g>
								<g>
									<g>
										<g>
											<path style="fill:#263238;" d="M139.027,459.741c-0.156,0.034-0.379-0.826,0.078-1.755
												c0.45-0.933,1.263-1.288,1.333-1.144c0.094,0.143-0.435,0.636-0.798,1.405
												C139.259,459.007,139.197,459.728,139.027,459.741z"/>
										</g>
									</g>
								</g>
							</g>
						</g>
					</g>
					<g>
						<g>
							<g>
								<g>
									<g>
										<g>
											<path style="fill:#263238;" d="M133.137,449.581c-0.074,0.155-0.855-0.095-1.824-0.047
												c-0.969,0.029-1.728,0.34-1.814,0.191c-0.097-0.125,0.649-0.746,1.791-0.786
												C132.43,448.889,133.223,449.449,133.137,449.581z"/>
										</g>
									</g>
								</g>
							</g>
						</g>
					</g>
				</g>
				<g>
					<g>
						<g>
							<g>
								<g>
									<g>
										<path style="fill:#263238;" d="M133.266,445.938c0.001,0.071-0.678,0.164-1.755-0.041
											c-0.536-0.103-1.167-0.29-1.826-0.597c-0.329-0.154-0.665-0.337-0.998-0.553c-0.16-0.107-0.349-0.215-0.522-0.422
											c-0.187-0.182-0.286-0.638-0.062-0.912c0.184-0.266,0.504-0.376,0.757-0.378c0.258-0.004,0.467,0.052,0.657,0.103
											c0.389,0.102,0.752,0.238,1.084,0.394c0.664,0.317,1.201,0.712,1.599,1.092c0.799,0.768,1.065,1.412,1.006,1.444
											c-0.078,0.055-0.464-0.488-1.281-1.124c-0.407-0.317-0.928-0.646-1.549-0.91c-0.311-0.13-0.647-0.244-1.002-0.329
											c-0.37-0.104-0.685-0.113-0.783,0.051c-0.036,0.062-0.041,0.087,0.035,0.197c0.078,0.102,0.227,0.202,0.384,0.308
											c0.306,0.208,0.615,0.389,0.918,0.547c0.606,0.314,1.187,0.532,1.685,0.681
											C132.611,445.787,133.271,445.846,133.266,445.938z"/>
									</g>
								</g>
							</g>
						</g>
					</g>
				</g>
				<g>
					<g>
						<g>
							<g>
								<g>
									<g>
										<path style="fill:#263238;" d="M133.039,446.18c-0.061,0.025-0.389-0.594-0.432-1.704c-0.019-0.55,0.05-1.216,0.274-1.917
											c0.114-0.35,0.267-0.707,0.466-1.057c0.212-0.343,0.471-0.802,1.136-0.866c0.347-0.007,0.63,0.269,0.724,0.503
											c0.112,0.239,0.131,0.443,0.169,0.647c0.057,0.411,0.042,0.812-0.02,1.182c-0.124,0.744-0.44,1.359-0.782,1.799
											c-0.701,0.896-1.419,1.087-1.432,1.029c-0.056-0.087,0.547-0.407,1.087-1.27c0.266-0.426,0.506-0.989,0.585-1.639
											c0.04-0.324,0.041-0.668-0.014-1.015c-0.048-0.374-0.182-0.676-0.323-0.641c-0.174-0.006-0.475,0.269-0.624,0.564
											c-0.186,0.311-0.335,0.63-0.452,0.943c-0.231,0.629-0.338,1.234-0.372,1.745
											C132.961,445.511,133.133,446.155,133.039,446.18z"/>
									</g>
								</g>
							</g>
						</g>
					</g>
				</g>
			</g>
		</g>
		<g>
			<g>
				<g>
					<g>
						<g>
							<path style="fill:#263238;" d="M161.477,266.355c0,0,27.743,71.585,25.45,91.677c-2.293,20.093-16.913,85.003-16.913,85.003
								l-23.507-8.31l9.413-80.009l-18.136-55.056l5.661-31.233L161.477,266.355z"/>
						</g>
					</g>
				</g>
				<g>
					<g>
						<g>
							<g>
								<g>
									<g>
										<path style="fill:#263238;" d="M108.213,260.426c0,0-0.051,14.127,1.571,19.866l1.425,8.351
											c-1.013,46.022-0.73,154.391-0.73,154.391l31.4,0.373l9.829-179.433L108.213,260.426z"/>
									</g>
								</g>
							</g>
						</g>
					</g>
				</g>
				<g>
					<g>
						<g>
							<g>
								<path style="fill:#455A64;" d="M152.521,280.766c0.009,0.001,0.006,0.143-0.009,0.421c-0.02,0.302-0.046,0.711-0.08,1.233
									c-0.084,1.11-0.204,2.701-0.357,4.736c-0.32,4.139-0.78,10.081-1.348,17.413c-1.121,14.705-2.557,35.027-3.957,57.484
									c-1.33,22.459-2.533,42.786-3.406,57.531c-0.436,7.341-0.788,13.291-1.034,17.435c-0.132,2.037-0.235,3.628-0.307,4.739
									c-0.039,0.522-0.07,0.93-0.093,1.232c-0.024,0.277-0.04,0.419-0.049,0.419c-0.009,0-0.01-0.143-0.004-0.422
									c0.01-0.302,0.024-0.711,0.041-1.234c0.049-1.112,0.119-2.705,0.209-4.744c0.206-4.146,0.503-10.099,0.869-17.444
									c0.762-14.729,1.855-35.076,3.254-57.543c1.4-22.46,2.894-42.781,4.109-57.48c0.607-7.35,1.125-13.295,1.513-17.402
									c0.195-2.032,0.348-3.62,0.455-4.728c0.056-0.52,0.099-0.928,0.131-1.228C152.491,280.906,152.512,280.765,152.521,280.766z
									"/>
							</g>
						</g>
					</g>
				</g>
				<g>
					<g>
						<g>
							<g>
								<path style="fill:#455A64;" d="M127.484,285.077c-0.022-0.083,1.198-0.391,3.098-1.051c0.946-0.335,2.058-0.783,3.191-1.449
									c1.124-0.669,2.263-1.594,3.068-2.86c0.825-1.253,1.209-2.674,1.385-3.97c0.183-1.303,0.158-2.504,0.124-3.507
									c-0.096-2.01-0.24-3.26-0.156-3.269c0.035-0.005,0.111,0.301,0.211,0.86c0.099,0.559,0.223,1.371,0.313,2.386
									c0.082,1.014,0.147,2.236-0.015,3.591c-0.155,1.345-0.543,2.853-1.423,4.192c-0.861,1.353-2.084,2.321-3.264,2.992
									c-1.191,0.669-2.342,1.089-3.317,1.384c-0.976,0.295-1.778,0.478-2.335,0.587
									C127.805,285.073,127.493,285.111,127.484,285.077z"/>
							</g>
						</g>
					</g>
				</g>
				<g>
					<g>
						<g>
							<g>
								<path style="fill:#455A64;" d="M160.397,367.134c-0.033,0.013-0.252-0.441-0.618-1.274
									c-0.368-0.832-0.873-2.049-1.472-3.562c-1.201-3.025-2.751-7.248-4.262-11.98c-1.509-4.734-2.691-9.075-3.464-12.236
									c-0.387-1.581-0.68-2.864-0.862-3.756c-0.184-0.891-0.269-1.388-0.234-1.396c0.035-0.008,0.187,0.472,0.431,1.348
									c0.268,0.972,0.611,2.218,1.021,3.711c0.863,3.133,2.099,7.448,3.604,12.171c1.508,4.721,2.999,8.954,4.11,12.007
									c0.53,1.455,0.972,2.67,1.316,3.617C160.275,366.641,160.43,367.12,160.397,367.134z"/>
							</g>
						</g>
					</g>
				</g>
			</g>
			<g>
				<g>
					<g>
						<g>
							<g>
								<g>
									<path style="fill:#E8505B;" d="M147.589,161.916c0,0,43.139,41.045,42.873,50.628c-0.265,9.583-9.354,12.096-12.373,11.87
										c-3.019-0.226-26.804-24.284-26.804-24.284L147.589,161.916z"/>
								</g>
							</g>
						</g>
					</g>
				</g>
				<g style="opacity:0.4;">
					<g>
						<g>
							<g>
								<g>
									<path d="M147.589,161.916c0,0,43.139,41.045,42.873,50.628c-0.265,9.583-9.354,12.096-12.373,11.87
										c-3.019-0.226-26.804-24.284-26.804-24.284L147.589,161.916z"/>
								</g>
							</g>
						</g>
					</g>
				</g>
			</g>
			<g>
				<g>
					<g>
						<g>
							<g>
								<g>
									<polygon style="fill:#E8505B;" points="127.799,152.704 130.477,143.023 151.655,151.613 151.192,161.743 141.009,165.173 
										130.576,159.451 									"/>
								</g>
							</g>
						</g>
					</g>
				</g>
				<g>
					<g>
						<g>
							<g>
								<g>
									<path style="fill:#E8505B;" d="M161.477,266.355l-3.551-82.002c-0.478-9.812-3.646-21.361-10.044-28.816l-0.063-1.315
										l-17.613-3.438c0,0-20.898,4.817-22.088,22.911c-0.944,14.355-2.164,71.583-2.164,92.66H161.477z"/>
								</g>
							</g>
						</g>
					</g>
				</g>
				<g>
					<g>
						<g>
							<g>
								<g>
									<g>
										<path style="fill:#263238;" d="M134.102,150.821c-0.11-0.029,0.117-1.28,0.508-2.795c0.391-1.515,0.797-2.72,0.908-2.692
											c0.11,0.029-0.117,1.28-0.508,2.795C134.619,149.644,134.213,150.849,134.102,150.821z"/>
									</g>
								</g>
							</g>
						</g>
					</g>
				</g>
				<g>
					<g>
						<g>
							<g>
								<g>
									<g>
										<path style="fill:#263238;" d="M142.055,147.729c0.112,0.02-0.016,1.26-0.287,2.77c-0.271,1.51-0.582,2.717-0.694,2.697
											c-0.112-0.02,0.016-1.26,0.287-2.77C141.632,148.916,141.942,147.708,142.055,147.729z"/>
									</g>
								</g>
							</g>
						</g>
					</g>
				</g>
				<g>
					<g>
						<g>
							<g>
								<g>
									<g>
										<path style="fill:#263238;" d="M148.216,150.442c0.115,0.022-0.003,1.138-0.094,2.512
											c-0.095,1.374-0.127,2.496-0.244,2.501c-0.111,0.007-0.265-1.127-0.168-2.529
											C147.802,151.524,148.107,150.421,148.216,150.442z"/>
									</g>
								</g>
							</g>
						</g>
					</g>
				</g>
				<g style="opacity:0.2;">
					<g>
						<g>
							<g>
								<g>
									<g>
										<path d="M116.986,186.004c6.998,13.502,15.351,25.526,24.956,37.318c2.474,3.037,5.113,6.079,8.567,7.926
											c3.454,1.847,5.649,1.18,8.901-1.004c-3.803-1.013-4.806-1.345-8.1-3.499c-3.248-2.124-5.98-5.128-8.412-8.152
											c-8.463-10.523-16.733-21.385-25.197-31.909"/>
									</g>
								</g>
							</g>
						</g>
					</g>
				</g>
			</g>
			<g>
				<g>
					<g>
						<g>
							<path style="fill:#263238;" d="M125.466,214.191c0.086,0.111-1.376,1.373-3.365,2.673c-1.988,1.303-3.729,2.137-3.797,2.014
								c-0.072-0.129,1.541-1.158,3.511-2.45C123.787,215.141,125.377,214.074,125.466,214.191z"/>
						</g>
					</g>
				</g>
			</g>
			<g>
				<g>
					<g>
						<g>
							<path style="fill:#263238;" d="M115.915,204.69c-0.144-0.003-0.229-1.527-0.191-3.403c0.038-1.877,0.186-3.395,0.329-3.392
								c0.144,0.003,0.229,1.526,0.191,3.403C116.206,203.174,116.058,204.693,115.915,204.69z"/>
						</g>
					</g>
				</g>
			</g>
			<g>
				<g>
					<g>
						<g>
							<path style="fill:#263238;" d="M116.181,240.652c-0.096,0.095-1.516-1.264-2.768-3.32c-1.262-2.051-1.826-3.934-1.698-3.976
								c0.143-0.055,0.91,1.703,2.142,3.704C115.078,239.067,116.295,240.551,116.181,240.652z"/>
						</g>
					</g>
				</g>
			</g>
			<g>
				<g>
					<g>
						<g>
							<path style="fill:#263238;" d="M137.21,234.971c0.065,0.135-1.885,1.185-4.208,2.605c-2.328,1.414-4.155,2.664-4.245,2.545
								c-0.085-0.109,1.62-1.56,3.974-2.99C135.081,235.695,137.152,234.846,137.21,234.971z"/>
						</g>
					</g>
				</g>
			</g>
			<g>
				<g>
					<g>
						<g>
							<path style="fill:#263238;" d="M133.419,226.895c-0.074,0.124-1.533-0.61-3.258-1.638c-1.727-1.028-3.066-1.962-2.992-2.085
								c0.074-0.124,1.532,0.61,3.259,1.638C132.153,225.838,133.493,226.772,133.419,226.895z"/>
						</g>
					</g>
				</g>
			</g>
			<g>
				<g>
					<g>
						<g>
							<path style="fill:#263238;" d="M134.068,217.936c-0.118-0.082,0.535-1.22,1.459-2.541c0.924-1.322,1.768-2.326,1.886-2.243
								s-0.535,1.22-1.459,2.542C135.031,217.014,134.186,218.018,134.068,217.936z"/>
						</g>
					</g>
				</g>
			</g>
			<g>
				<g>
					<g>
						<g>
							<path style="fill:#263238;" d="M117.789,264.905c-0.094,0.108-1.399-0.875-2.914-2.196c-1.516-1.321-2.667-2.48-2.573-2.589
								s1.399,0.875,2.915,2.196C116.732,263.637,117.883,264.796,117.789,264.905z"/>
						</g>
					</g>
				</g>
			</g>
			<g>
				<g>
					<g>
						<g>
							<path style="fill:#263238;" d="M131.476,258.911c0.114,0.078-0.688,1.41-2.008,2.787c-1.315,1.381-2.609,2.243-2.693,2.133
								c-0.093-0.117,1.03-1.142,2.316-2.492C130.382,259.992,131.355,258.823,131.476,258.911z"/>
						</g>
					</g>
				</g>
			</g>
			<g>
				<g>
					<g>
						<g>
							<path style="fill:#263238;" d="M110.341,209.825c0.144,0.004,0.21,1.788,0.148,3.984c-0.062,2.196-0.229,3.973-0.373,3.969
								c-0.144-0.004-0.21-1.787-0.148-3.984C110.03,211.598,110.197,209.821,110.341,209.825z"/>
						</g>
					</g>
				</g>
			</g>
			<g>
				<g>
					<g>
						<g>
							<path style="fill:#263238;" d="M113.037,187.624c-0.006,0.144-0.901,0.223-1.999,0.178c-1.099-0.046-1.984-0.199-1.978-0.343
								c0.006-0.144,0.901-0.223,2-0.178C112.157,187.327,113.043,187.48,113.037,187.624z"/>
						</g>
					</g>
				</g>
			</g>
			<g>
				<g>
					<g>
						<g>
							<path style="fill:#263238;" d="M116.359,163.598c0.109,0.094-0.804,1.322-2.039,2.741c-1.235,1.42-2.323,2.494-2.432,2.399
								c-0.108-0.094,0.804-1.321,2.039-2.741C115.162,164.578,116.25,163.504,116.359,163.598z"/>
						</g>
					</g>
				</g>
			</g>
			<g>
				<g>
					<g>
						<g>
							<path style="fill:#263238;" d="M129.277,161.106c-0.147,0.019-0.435-1.324-0.847-2.958c-0.406-1.636-0.783-2.956-0.645-3.008
								c0.13-0.051,0.735,1.213,1.15,2.882C129.355,159.689,129.416,161.089,129.277,161.106z"/>
						</g>
					</g>
				</g>
			</g>
			<g>
				<g>
					<g>
						<g>
							<g>
								<path style="fill:#FFBE9D;" d="M162.818,155.876c-2.96,0.149-3.313,0.023-6.66,0.367c-0.498,0.051-1.006,0.105-1.463,0.309
									c-0.457,0.204-0.864,0.587-0.964,1.077c-0.19,0.929,0.778,1.722,1.712,1.887c0.934,0.165,1.904-0.045,2.837,0.125
									c1.423,0.259,2.932,0.86,3.821,2.001c2.063,2.648,4.028,1.232,5.394,2.147l3.354-2.351l-1.468-5.049L162.818,155.876"/>
							</g>
						</g>
					</g>
				</g>
			</g>
			<g>
				<g>
					<g>
						<g>
							<g>
								<g>
									<path style="fill:#EB996E;" d="M167.796,163.775c-0.022,0.042-0.317-0.199-0.96-0.247c-0.622-0.092-1.614,0.111-2.762-0.35
										c-0.563-0.231-1.106-0.642-1.571-1.17c-0.443-0.548-0.922-1.024-1.595-1.383c-0.653-0.361-1.412-0.615-2.217-0.771
										c-0.786-0.179-1.641-0.031-2.567-0.098c-0.927-0.05-1.903-0.543-2.243-1.47c-0.164-0.466-0.03-1.001,0.266-1.346
										c0.286-0.355,0.686-0.574,1.077-0.691c0.796-0.219,1.522-0.212,2.207-0.288c0.685-0.055,1.326-0.094,1.911-0.112
										c1.171-0.033,2.112-0.019,2.765-0.024c0.652-0.001,1.013,0.006,1.015,0.035c0.001,0.028-0.357,0.075-1.009,0.125
										c-0.651,0.054-1.598,0.085-2.757,0.155c-0.58,0.036-1.214,0.092-1.894,0.162c-0.673,0.087-1.432,0.105-2.124,0.309
										c-0.672,0.181-1.327,0.843-1.072,1.548c0.248,0.685,1.067,1.151,1.891,1.184c0.846,0.066,1.746-0.085,2.613,0.112
										c0.839,0.169,1.633,0.441,2.325,0.836c0.697,0.373,1.264,0.961,1.667,1.489c0.43,0.508,0.919,0.898,1.43,1.128
										c1.031,0.461,2.018,0.32,2.668,0.459c0.33,0.052,0.575,0.155,0.727,0.241C167.732,163.708,167.803,163.764,167.796,163.775
										z"/>
								</g>
							</g>
						</g>
					</g>
				</g>
			</g>
		</g>
		<g>
			<g>
				<g>
					<path style="fill:#263238;" d="M159.702,152.988l16.985-9.131c0.486-0.261,1.09-0.115,1.402,0.34l0,0
						c0.367,0.534,0.185,1.268-0.389,1.569l-15.527,8.139L159.702,152.988z"/>
				</g>
			</g>
		</g>
		<g>
			<g>
				<g>
					<g>
						<g>
							<path style="fill:#E8505B;" d="M106.338,251.416c0.004,0.018-0.186,0.072-0.552,0.159c-0.366,0.088-0.908,0.223-1.621,0.299
								c-1.417,0.194-3.516,0.28-6.057-0.119c-2.537-0.383-5.508-1.268-8.531-2.823c-1.511-0.776-3.039-1.711-4.505-2.843
								c-0.707-0.594-1.485-1.132-2.114-1.917c-0.306-0.39-0.585-0.84-0.694-1.372c-0.117-0.525-0.025-1.116,0.264-1.582
								c0.573-0.949,1.658-1.382,2.633-1.457c0.994-0.087,1.924,0.042,2.846,0.131c1.838,0.223,3.59,0.606,5.21,1.124
								c3.244,1.035,5.952,2.542,8.022,4.055c2.082,1.495,3.556,3.026,4.285,4.278c0.374,0.618,0.58,1.143,0.69,1.505
								C106.325,251.214,106.351,251.413,106.338,251.416c-0.056,0.021-0.207-0.777-0.987-1.96
								c-0.763-1.189-2.241-2.644-4.328-4.087c-2.069-1.455-4.754-2.903-7.951-3.896c-1.596-0.497-3.319-0.864-5.125-1.076
								c-0.901-0.085-1.838-0.206-2.737-0.122c-0.89,0.069-1.781,0.457-2.237,1.209c-0.477,0.743-0.183,1.685,0.389,2.365
								c0.557,0.706,1.328,1.253,2.021,1.837c1.435,1.117,2.933,2.045,4.414,2.82c2.964,1.553,5.878,2.462,8.37,2.886
								c2.496,0.439,4.566,0.412,5.975,0.281C105.557,251.555,106.326,251.354,106.338,251.416z"/>
						</g>
					</g>
				</g>
			</g>
			<g>
				<g>
					<g>
						<g>
							<path style="fill:#E8505B;" d="M104.114,247.628c-0.015,0.01-0.122-0.116-0.312-0.365c-0.22-0.302-0.487-0.668-0.808-1.108
								c-0.682-0.975-1.672-2.391-2.703-4.266c-1.013-1.871-2.079-4.255-2.427-7.101c-0.173-1.414-0.164-2.94,0.182-4.469
								c0.084-0.382,0.186-0.764,0.319-1.14c0.118-0.372,0.275-0.777,0.532-1.129c0.244-0.339,0.653-0.716,1.202-0.694
								c0.547,0.019,0.93,0.427,1.163,0.77c3.449,5.63,4.772,11.545,5.099,15.788c0.165,2.131,0.131,3.863,0.034,5.052
								c-0.029,0.596-0.105,1.054-0.139,1.366c-0.041,0.311-0.071,0.473-0.089,0.471c-0.043-0.004-0.003-0.661,0.025-1.846
								c0.034-1.185,0.012-2.903-0.198-5.008c-0.41-4.181-1.797-10.033-5.16-15.524c-0.211-0.311-0.472-0.545-0.755-0.548
								c-0.279-0.02-0.556,0.195-0.762,0.479c-0.403,0.576-0.587,1.365-0.773,2.076c-0.337,1.458-0.358,2.928-0.203,4.3
								c0.311,2.762,1.315,5.112,2.276,6.984c0.977,1.876,1.917,3.318,2.546,4.326c0.288,0.461,0.528,0.844,0.726,1.161
								C104.05,247.472,104.128,247.618,104.114,247.628z"/>
						</g>
					</g>
				</g>
			</g>
			<g>
				<g>
					<g>
						<g>
							<path style="fill:#E8505B;" d="M79.944,270.97c0.031-0.128,1.892,1.021,5.222,1.028c1.644-0.005,3.615-0.318,5.626-1.148
								c2.013-0.822,4.027-2.19,5.828-3.947c3.615-3.556,5.655-7.781,7.072-10.769c0.653-1.452,1.198-2.662,1.62-3.602
								c0.382-0.852,0.607-1.318,0.641-1.304c0.033,0.013-0.129,0.505-0.453,1.381c-0.326,0.876-0.812,2.138-1.472,3.675
								c-1.336,3.035-3.345,7.349-7.044,10.991c-1.844,1.798-3.924,3.196-6.012,4.019c-2.085,0.832-4.122,1.114-5.811,1.072
								c-1.695-0.052-3.037-0.401-3.913-0.743c-0.438-0.175-0.771-0.324-0.985-0.45C80.046,271.056,79.936,270.986,79.944,270.97z"
								/>
						</g>
					</g>
				</g>
			</g>
			<g>
				<g>
					<g>
						<g>
							<path style="fill:#E8505B;" d="M102.018,286.529c-0.035,0.008-0.15-0.485-0.329-1.388c-0.046-0.235-0.094-0.486-0.146-0.753
								c-0.028-0.285-0.057-0.586-0.088-0.906c-0.041-0.651-0.162-1.393-0.15-2.215c-0.121-3.29,0.226-7.831,0.977-12.779
								c0.742-4.954,1.719-9.381,2.485-12.567c0.382-1.594,0.724-2.875,0.97-3.758c0.251-0.892,0.397-1.348,0.43-1.359
								c0.039-0.009-0.044,0.521-0.233,1.407c-0.211,0.992-0.482,2.265-0.808,3.792c-0.673,3.201-1.591,7.63-2.33,12.564
								c-0.748,4.929-1.15,9.433-1.124,12.694C101.68,284.525,102.125,286.507,102.018,286.529z"/>
						</g>
					</g>
				</g>
			</g>
			<g>
				<g>
					<g>
						<g>
							<path style="fill:#FFFFFF;" d="M124.199,152.949c-0.009-0.016,0.105-0.094,0.332-0.23c0.221-0.151,0.58-0.305,1.051-0.492
								c0.95-0.331,2.445-0.564,4.238-0.285c1.786,0.267,3.866,0.973,5.872,2.296c1.963,1.327,3.997,2.98,5.906,4.944
								c3.852,3.917,6.3,8.362,7.476,11.739c0.328,0.834,0.526,1.624,0.738,2.301c0.164,0.692,0.32,1.285,0.413,1.776
								c0.17,0.987,0.247,1.533,0.211,1.539c-0.119,0.028-0.399-2.185-1.707-5.486c-1.252-3.305-3.708-7.644-7.505-11.506
								c-1.882-1.937-3.878-3.578-5.803-4.911c-1.919-1.297-3.937-2.026-5.66-2.328c-1.732-0.316-3.176-0.147-4.119,0.115
								C124.7,152.703,124.227,153,124.199,152.949z"/>
						</g>
					</g>
				</g>
			</g>
			<g>
				<g>
					<g>
						<g>
							<path style="fill:#E8505B;" d="M148.965,222.564c0,0,0.142,23.474-3.756,24.785c-4.914,1.652-39.255,0-39.255,0v8.428
								c0,0,34.19-2.199,36.985,2.199c2.648,4.166,27.143,80.549,32.074,103.479h15.45c0,0-8.199-39.397-11.102-49.441
								c-1.548-5.356-6.687-22.363-11.339-35.636c-4.33-12.356-6.408-25.385-6.137-38.475l0.361-17.468l-2.672-44.968h-9.889
								L148.965,222.564z"/>
						</g>
					</g>
				</g>
				<g style="opacity:0.7;">
					<g>
						<g>
							<path style="fill:#FFFFFF;" d="M148.965,222.564c0,0,0.142,23.474-3.756,24.785c-4.914,1.652-39.255,0-39.255,0v8.428
								c0,0,34.19-2.199,36.985,2.199c2.648,4.166,27.143,80.549,32.074,103.479h15.45c0,0-8.199-39.397-11.102-49.441
								c-1.548-5.356-6.687-22.363-11.339-35.636c-4.33-12.356-6.408-25.385-6.137-38.475l0.361-17.468l-2.672-44.968h-9.889
								L148.965,222.564z"/>
						</g>
					</g>
				</g>
				<g>
					<g>
						<g>
							<g>
								<g>
									<path style="fill:#E8505B;" d="M180.199,277.432c0.879-0.371,1.585-1.131,1.891-2.035c0.306-0.904,0.207-1.936-0.266-2.765
										c-0.589-1.033-1.725-1.778-1.95-2.946c-0.379,0.311-0.629,0.776-0.679,1.264c-0.666-0.657,0.071-2.041-0.658-2.627
										c-0.396-0.318-0.994-0.167-1.421,0.108c-0.987,0.635-1.533,1.81-1.639,2.978c-0.164,1.805,0.669,3.669,2.124,4.751
										c0.733,0.545,1.605,0.901,2.273,1.525"/>
								</g>
							</g>
						</g>
						<g>
							<g>
								<g>
									<path style="fill:#263238;" d="M178.683,277.855l-1.127,14.417c-0.077,0.983,1.131,1.499,1.799,0.774
										c0.007-0.008,0.015-0.016,0.022-0.024c0.153-0.168,0.24-0.388,0.257-0.615l1.105-14.393L178.683,277.855z"/>
								</g>
							</g>
						</g>
						<g>
							<g>
								<g>
									<polygon style="fill:#E0E0E0;" points="178.683,277.855 178.343,276.733 181.215,276.84 180.74,278.015 									"/>
								</g>
							</g>
						</g>
					</g>
					<g>
						<g>
							<g>
								<path style="fill:#263238;" d="M173.43,288.1c-0.11-0.44-1.951-14.366-2.58-19.13c-0.111-0.839,0.542-1.58,1.389-1.58l0,0
									c0.687,0,1.272,0.498,1.382,1.176l3.261,20.066L173.43,288.1z"/>
							</g>
						</g>
					</g>
					<g>
						<g>
							<g>
								<path style="fill:#E8505B;" d="M166.24,283.865h16.221c0,0,5.036,21.106-3.1,28.149l-5.01-0.895L166.24,283.865z"/>
							</g>
						</g>
					</g>
					<g style="opacity:0.7;">
						<g>
							<g>
								<path style="fill:#FFFFFF;" d="M166.24,283.865h16.221c0,0,5.036,21.106-3.1,28.149l-5.01-0.895L166.24,283.865z"/>
							</g>
						</g>
					</g>
					<g>
						<g>
							<g>
								<g>
									<path style="fill:#263238;" d="M180.044,310.968c0.005,0.024-0.378,0.143-1.092,0.103
										c-0.709-0.033-1.746-0.284-2.837-0.958c-1.1-0.663-2.173-1.791-3.087-3.186c-0.915-1.401-1.748-3.014-2.606-4.722
										c-1.692-3.428-2.913-6.674-3.669-9.058c-0.383-1.191-0.646-2.169-0.819-2.846c-0.164-0.68-0.238-1.06-0.203-1.07
										c0.035-0.01,0.174,0.352,0.398,1.012c0.267,0.765,0.592,1.694,0.973,2.785c0.841,2.342,2.108,5.542,3.787,8.946
										c0.851,1.692,1.673,3.314,2.541,4.69c0.871,1.374,1.864,2.47,2.885,3.139c1.014,0.68,1.983,0.974,2.658,1.066
										C179.652,310.97,180.04,310.921,180.044,310.968z"/>
								</g>
							</g>
						</g>
					</g>
				</g>
			</g>
		</g>
		<g>
			<g>
				<g>
					<g>
						<g>
							<g>
								<path style="fill:#FFBE9D;" d="M183.863,202.464c0.095-0.916,0.196-1.854,0.606-2.678c0.41-0.824,1.199-1.524,2.119-1.558
									c0.92-0.034,1.853,0.811,1.688,1.717c-0.097,0.534-0.511,0.943-0.812,1.396c-0.946,1.425-0.761,3.283-0.665,4.991
									c0.096,1.708-0.038,3.658-1.355,4.749"/>
							</g>
						</g>
					</g>
				</g>
			</g>
			<g>
				<g>
					<g>
						<g>
							<g>
								<path style="fill:#E8505B;" d="M119.034,165.681c-6.476,5.006-7.49,14.392-2.232,20.665l30.804,36.753
									c6.687,7.882,18.001,9.964,27.055,4.977h0c7.637-4.207,12.021-12.571,11.134-21.245l-7.515-33.043l-15.096,2.378
									l1.806,25.175l-25.763-33.107C134.348,161.964,125.318,160.823,119.034,165.681L119.034,165.681z"/>
							</g>
						</g>
					</g>
				</g>
			</g>
			<g>
				<g>
					<g>
						<g>
							<g>
								<path style="fill:#FFBE9D;" d="M184.162,218.322c-3.877-0.71-4.559-1.338-8.437-2.048c-1.154-0.211-2.655-0.882-2.201-2.113
									c0.238-0.645,0.894-1.052,1.581-1.03c1.501,0.049,3.947,0.824,5.393,0.892c0.362,0.017,0.334-0.345,0.163-0.583
									c-2.376-0.589-4.799-0.988-7.239-1.193c-1.521-0.128-2.208-2.089-1.031-3.061c0.149-0.123,0.823-0.361,1.012-0.343
									c1.546,0.148,1.546,0.148,3.197,0.353c4.634,0.574,3.981-0.307,3.981-0.307c0.013-0.346-5.27-0.602-7.974-0.794
									c-0.573-0.041-1.206-0.109-1.594-0.533c-0.471-0.516-0.355-1.381,0.09-1.92c0.445-0.539,1.103-0.967,1.8-1.012
									c2.986-0.196,12.85,0.423,12.85,0.423s1.369,1.685,1.149,5.273C186.661,214.266,184.162,218.322,184.162,218.322z"/>
							</g>
						</g>
					</g>
				</g>
			</g>
			<g>
				<g>
					<g>
						<g>
							<g>
								<g>
									<path style="fill:#263238;" d="M170.796,229.699c0,0-0.138,0.033-0.412,0.078c-0.29,0.044-0.693,0.106-1.214,0.185
										c-1.069,0.15-2.647,0.378-4.699,0.499c-2.042,0.1-4.602,0.119-7.439-0.667c-2.837-0.789-5.75-2.604-8.422-5.127
										c-2.686-2.518-5.306-5.575-8.095-8.862c-2.773-3.303-5.679-6.878-8.704-10.665c-3.024-3.788-6.165-7.792-9.391-11.964
										c-1.604-2.093-3.237-4.224-4.894-6.386c-0.411-0.542-0.825-1.087-1.239-1.634l-0.591-0.861
										c-0.206-0.282-0.385-0.583-0.543-0.895c-0.707-1.211-1.185-2.557-1.493-3.938c-0.324-1.382-0.398-2.809-0.287-4.203
										c0.03-0.702,0.178-1.386,0.298-2.071c0.188-0.669,0.341-1.348,0.615-1.985c0.221-0.657,0.558-1.26,0.859-1.876
										c0.369-0.577,0.695-1.182,1.134-1.704c0.805-1.099,1.802-2.03,2.864-2.837c1.062-0.817,2.253-1.423,3.464-1.924
										c1.237-0.427,2.498-0.792,3.786-0.878c2.562-0.271,5.118,0.228,7.359,1.213c2.229,1.033,4.137,2.588,5.548,4.436
										c1.397,1.822,2.753,3.591,4.064,5.301c2.62,3.421,5.061,6.609,7.29,9.52c4.44,5.818,8.036,10.53,10.533,13.803
										c1.228,1.624,2.186,2.891,2.847,3.766c0.314,0.423,0.557,0.75,0.732,0.986c0.163,0.224,0.238,0.344,0.238,0.344
										s-0.098-0.104-0.272-0.318c-0.183-0.229-0.437-0.549-0.765-0.961c-0.676-0.864-1.654-2.114-2.909-3.718
										c-2.522-3.254-6.154-7.939-10.638-13.723c-2.242-2.902-4.696-6.079-7.331-9.49c-1.317-1.707-2.678-3.471-4.081-5.289
										c-1.382-1.799-3.243-3.307-5.415-4.309c-2.184-0.953-4.673-1.436-7.165-1.167c-1.253,0.084-2.478,0.443-3.68,0.859
										c-1.177,0.49-2.334,1.079-3.366,1.875c-1.032,0.786-2,1.691-2.781,2.76c-0.427,0.507-0.742,1.096-1.101,1.656
										c-0.291,0.599-0.619,1.184-0.833,1.823c-0.267,0.618-0.413,1.279-0.597,1.928c-0.115,0.666-0.26,1.331-0.288,2.012
										c-0.107,1.355-0.035,2.74,0.279,4.083c0.3,1.341,0.763,2.648,1.45,3.825c0.651,1.189,1.519,2.252,2.34,3.342
										c1.655,2.162,3.285,4.293,4.887,6.387c3.221,4.174,6.354,8.181,9.369,11.975c3.016,3.792,5.91,7.374,8.669,10.682
										c2.773,3.292,5.379,6.356,8.032,8.868c2.64,2.518,5.498,4.32,8.287,5.119c2.791,0.796,5.333,0.804,7.367,0.728
										c2.044-0.096,3.624-0.298,4.696-0.421c0.523-0.062,0.928-0.11,1.219-0.145
										C170.654,229.705,170.796,229.699,170.796,229.699z"/>
								</g>
							</g>
						</g>
					</g>
				</g>
			</g>
			<g>
				<g>
					<g>
						<g>
							<g>
								<g>
									<path style="fill:#263238;" d="M167.239,213.247c-0.141-0.011,0.684-2.934-0.083-6.477
										c-0.716-3.555-2.641-5.902-2.516-5.969c0.034-0.029,0.558,0.505,1.196,1.527c0.639,1.017,1.329,2.537,1.71,4.343
										c0.374,1.807,0.357,3.511,0.179,4.698C167.548,212.561,167.281,213.26,167.239,213.247z"/>
								</g>
							</g>
						</g>
					</g>
				</g>
			</g>
			<g>
				<g>
					<g>
						<g>
							<g>
								<path style="fill:#263238;" d="M128.099,180.527c-0.069,0.126-1.83-0.702-3.933-1.849c-2.104-1.148-3.753-2.18-3.684-2.306
									c0.069-0.126,1.829,0.701,3.933,1.849C126.518,179.369,128.168,180.401,128.099,180.527z"/>
							</g>
						</g>
					</g>
				</g>
				<g>
					<g>
						<g>
							<g>
								<path style="fill:#263238;" d="M138.557,186.792c-0.138,0.002-0.258-2.108,0.022-4.691c0.273-2.584,0.837-4.62,0.972-4.589
									c0.146,0.031-0.184,2.092-0.454,4.645C138.82,184.708,138.706,186.792,138.557,186.792z"/>
							</g>
						</g>
					</g>
				</g>
				<g>
					<g>
						<g>
							<g>
								<path style="fill:#263238;" d="M139.72,199.371c-0.027,0.136-1.727-0.1-3.72-0.786c-1.996-0.68-3.484-1.535-3.422-1.658
									c0.064-0.134,1.628,0.498,3.59,1.166C138.128,198.767,139.752,199.225,139.72,199.371z"/>
							</g>
						</g>
					</g>
				</g>
				<g>
					<g>
						<g>
							<g>
								<path style="fill:#263238;" d="M151.815,206.18c-0.143-0.014-0.072-1.954,0.159-4.333c0.231-2.38,0.534-4.297,0.677-4.283
									c0.143,0.014,0.072,1.954-0.159,4.333C152.261,204.276,151.958,206.194,151.815,206.18z"/>
							</g>
						</g>
					</g>
				</g>
				<g>
					<g>
						<g>
							<g>
								<path style="fill:#263238;" d="M154.103,218.636c-0.109,0.094-1.465-1.309-3.029-3.133
									c-1.564-1.824-2.743-3.379-2.633-3.472c0.109-0.094,1.465,1.309,3.029,3.133
									C153.033,216.988,154.212,218.542,154.103,218.636z"/>
							</g>
						</g>
					</g>
				</g>
				<g>
					<g>
						<g>
							<g>
								<path style="fill:#263238;" d="M170.546,219.929c0.004,0.151-1.732,0.29-3.83,0.689c-2.1,0.389-3.769,0.889-3.82,0.746
									c-0.051-0.127,1.574-0.859,3.724-1.258C168.767,219.699,170.547,219.793,170.546,219.929z"/>
							</g>
						</g>
					</g>
				</g>
				<g>
					<g>
						<g>
							<g>
								<path style="fill:#263238;" d="M172.532,197.068c-0.127-0.068,0.55-1.57,1.51-3.355c0.961-1.785,1.842-3.177,1.969-3.108
									c0.127,0.068-0.55,1.57-1.511,3.355C173.54,195.744,172.658,197.136,172.532,197.068z"/>
							</g>
						</g>
					</g>
				</g>
				<g>
					<g>
						<g>
							<g>
								<path style="fill:#263238;" d="M172.669,184.183c-0.071,0.125-1.24-0.407-2.611-1.188c-1.371-0.781-2.425-1.516-2.354-1.641
									c0.071-0.125,1.24,0.407,2.611,1.188C171.687,183.324,172.741,184.058,172.669,184.183z"/>
							</g>
						</g>
					</g>
				</g>
			</g>
		</g>
		<g>
			<g>
				<g>
					<g>
						<g>
							<g>
								<g>
									<path style="fill:#EB996E;" d="M156.494,148.2c-2.095,1.178-3.536,4.174-4.809,6.132c-0.389,0.599-0.79,1.226-0.872,1.936
										c-0.088,0.753,0.193,1.496,0.49,2.193c0.443,1.037,0.934,2.053,1.425,3.068c0.14,0.288,0.323,0.612,0.639,0.668
										c0.401,0.071,0.721-0.335,0.865-0.716c0.36-0.947,0.269-1.996,0.359-3.005c0.09-1.009,0.451-2.112,1.352-2.576"/>
								</g>
							</g>
						</g>
					</g>
				</g>
				<g>
					<g>
						<g>
							<g>
								<g>
									<g>
										<path style="fill:#FFBE9D;" d="M160.268,155.952l-2.165-1.46c-0.273-0.202-0.658-0.15-0.869,0.117l-1.048,1.335
											c-0.003,0.003-0.003,0.008,0,0.011l0.74,3.216c0.883,4.127-2.231,3.627-2.231,3.627l-0.283-0.784l-1.599-5.008
											c-0.389-2.408-0.211-2.704,0.883-4.515l2.407-3.819c0.498-0.825,1.493-1.201,2.411-0.911
											c3.775,1.19,11.896,3.285,12.948,6.384c1.919,5.648,3.91,19.835,3.946,20.094c0.001,0.005,0.001,0.005,0.001,0.005
											l-11.109,1.731c0,0,0,0.006,0,0l-0.515-9.567c0,0-1.686-0.875-2.251-2.572
											C160.966,162.14,160.268,155.952,160.268,155.952"/>
									</g>
								</g>
							</g>
						</g>
					</g>
					<g>
						<g>
							<g>
								<g>
									<g>
										<g>
											<path style="fill:#EB996E;" d="M168.184,157.485c0.018,0.018-0.111,0.201-0.408,0.477
												c-0.298,0.267-0.774,0.653-1.5,0.854c-0.362,0.096-0.783,0.132-1.225,0.05c-0.437-0.081-0.909-0.305-1.248-0.693
												c-0.701-0.767-0.849-1.887-1.478-2.676c-0.318-0.358-0.784-0.645-1.209-0.898c-0.435-0.253-0.873-0.469-1.298-0.646
												c-0.413-0.158-0.873-0.357-1.173-0.271c-0.344,0.1-0.646,0.355-0.895,0.59c-0.978,0.998-1.505,1.733-1.566,1.678
												c-0.022-0.018,0.091-0.207,0.314-0.539c0.227-0.329,0.547-0.812,1.046-1.346c0.254-0.259,0.548-0.555,1.01-0.713
												c0.119-0.034,0.246-0.05,0.382-0.04c0.12,0.015,0.236,0.036,0.349,0.066c0.227,0.058,0.451,0.134,0.675,0.222
												c0.449,0.175,0.903,0.39,1.358,0.648c0.452,0.267,0.918,0.531,1.328,0.987c0.719,0.939,0.847,2.033,1.442,2.684
												c0.567,0.669,1.478,0.753,2.12,0.613c0.666-0.146,1.149-0.472,1.467-0.695
												C167.994,157.608,168.162,157.463,168.184,157.485z"/>
										</g>
									</g>
								</g>
							</g>
						</g>
					</g>
				</g>
				<g>
					<g>
						<g>
							<g>
								<g>
									<g>
										<path style="fill:#EB996E;" d="M167.097,160.982c-0.012,0.109-1.468,0.022-3.212-0.394
											c-1.745-0.411-3.085-0.988-3.047-1.091c0.039-0.111,1.422,0.283,3.142,0.689
											C165.699,160.597,167.112,160.865,167.097,160.982z"/>
									</g>
								</g>
							</g>
						</g>
					</g>
				</g>
				<g>
					<g>
						<g>
							<g>
								<g>
									<g>
										<path style="fill:#EB996E;" d="M162.378,153.578c0.002-0.051,0.213-0.103,0.525,0.023
											c0.303,0.118,0.697,0.458,0.804,0.992c0.098,0.536-0.142,0.998-0.38,1.219c-0.243,0.233-0.459,0.262-0.479,0.215
											c-0.03-0.054,0.114-0.172,0.253-0.401c0.14-0.223,0.27-0.584,0.2-0.956c-0.073-0.372-0.327-0.659-0.54-0.814
											C162.547,153.696,162.371,153.639,162.378,153.578z"/>
									</g>
								</g>
							</g>
						</g>
					</g>
				</g>
			</g>
			<g>
				<g>
					<g>
						<g>
							<path style="fill:#455A64;" d="M145.178,161.025c-0.769-0.565-1.783-0.782-2.716-0.582s-1.769,0.814-2.239,1.644
								c-0.586,1.035-0.644,2.392-1.531,3.184c0.461,0.166,0.988,0.143,1.433-0.064c-0.223,0.909-1.789,0.984-1.919,1.911
								c-0.07,0.503,0.365,0.939,0.82,1.166c1.051,0.522,2.339,0.39,3.398-0.117c1.634-0.784,2.809-2.454,2.993-4.257
								c0.093-0.909-0.048-1.84,0.145-2.733"/>
						</g>
					</g>
				</g>
				<g>
					<g>
						<g>
							<path style="fill:#263238;" d="M146.318,162.109l12.96-6.416c0.884-0.438,0.708-1.74-0.257-1.942
								c-0.011-0.002-0.021-0.004-0.032-0.007c-0.223-0.046-0.457-0.007-0.66,0.094l-12.928,6.422L146.318,162.109z"/>
						</g>
					</g>
				</g>
				<g>
					<g>
						<g>
							<polygon style="fill:#E0E0E0;" points="146.318,162.109 145.529,162.977 144.15,160.455 145.402,160.261 							"/>
						</g>
					</g>
				</g>
			</g>
		</g>
	</g>
</g>
<g id="Plant">
	<g>
		<g>
			<g>
				<g>
					<path style="fill:#E8505B;" d="M428.056,394.466c0.95-3.293,2.985-6.475,6.132-7.832c3.273-1.411,7.065-0.608,10.415,0.609
						c3.35,1.217,6.64,2.846,10.198,3.066c3.558,0.22,7.573-1.468,8.639-4.869c1.001-3.198-0.927-6.608-3.341-8.932
						c-5.073-4.882-12.695-6.954-19.541-5.31c-6.846,1.644-12.697,6.949-15.001,13.602"/>
				</g>
			</g>
		</g>
		<g style="opacity:0.3;">
			<g>
				<g>
					<g>
						<path d="M428.056,394.466c0.95-3.293,2.985-6.475,6.132-7.832c3.273-1.411,7.065-0.608,10.415,0.609
							c3.35,1.217,6.64,2.846,10.198,3.066c3.558,0.22,7.573-1.468,8.639-4.869c1.001-3.198-0.927-6.608-3.341-8.932
							c-5.073-4.882-12.695-6.954-19.541-5.31c-6.846,1.644-12.697,6.949-15.001,13.602"/>
					</g>
				</g>
			</g>
		</g>
		<g>
			<g>
				<g>
					<path style="fill:#E8505B;" d="M399.869,408.757c-5.22-4.958-4.959-13.591-2.355-20.303
						c2.604-6.712,8.287-11.866,14.635-15.263c12.305-6.585,27.686-7.083,40.391-1.309c-6.243,0.207-12.278,3.75-15.501,9.102
						c-2.861,4.751-3.496,10.516-5.859,15.533c-2.633,5.589-7.465,10.105-13.218,12.354
						C412.207,411.12,405.594,411.079,399.869,408.757"/>
				</g>
			</g>
		</g>
		<g>
			<g>
				<g>
					<path style="fill:#E8505B;" d="M397.36,378.966c-5.779-6.822-6.548-17.772-5.697-26.672s2.914-17.857,1.51-26.686
						c-0.832-5.231-2.861-10.225-3.547-15.477c-0.686-5.252,0.286-11.191,4.356-14.581c4.677-3.896,12.043-2.977,16.908,0.681
						c4.866,3.659,7.685,9.406,9.745,15.134c4.526,12.586,6.188,26.542,2.469,39.389c-3.718,12.847-12.443,24.334-25.243,28.212"/>
				</g>
			</g>
		</g>
		<g>
			<g>
				<g>
					<g>
						<path style="fill:#263238;" d="M394.586,434.936c-0.018,0-0.027-0.271-0.026-0.786c0.006-0.515-0.003-1.276,0.039-2.254
							c0.071-1.957,0.258-4.787,0.694-8.264c0.439-3.475,1.125-7.596,2.216-12.101c1.076-4.516,2.917-9.329,5.522-14.014
							c2.613-4.686,5.802-8.732,9.027-12.064c3.233-3.335,6.542-5.93,9.464-7.864c1.444-0.998,2.842-1.754,4.044-2.456
							c1.233-0.646,2.31-1.176,3.192-1.601c0.867-0.363,1.56-0.652,2.081-0.871c0.478-0.194,0.731-0.287,0.738-0.27
							s-0.234,0.143-0.697,0.367c-0.51,0.24-1.187,0.558-2.035,0.957c-0.865,0.451-1.924,1.005-3.137,1.672
							c-1.183,0.722-2.559,1.496-3.981,2.507c-2.878,1.961-6.136,4.566-9.324,7.892c-3.18,3.324-6.328,7.342-8.918,11.986
							c-5.311,9.29-6.768,19.06-7.827,25.909c-0.481,3.458-0.723,6.276-0.856,8.226c-0.057,0.936-0.102,1.684-0.136,2.247
							C394.631,434.666,394.604,434.936,394.586,434.936z"/>
					</g>
				</g>
			</g>
		</g>
		<g>
			<g>
				<g>
					<g>
						<path style="fill:#E8505B;" d="M344.74,352.055c-10.692,6.452-10.659,12.324-8.873,17.866
							c1.785,5.542,8.348,9.393,13.788,7.317c3.075-1.173,5.303-3.846,7.206-6.532c1.903-2.686,3.691-5.561,6.357-7.49
							s6.533-2.667,9.212-0.755"/>
					</g>
				</g>
			</g>
			<g style="opacity:0.3;">
				<g>
					<g>
						<g>
							<path d="M344.74,352.055c-10.692,6.452-10.659,12.324-8.873,17.866c1.785,5.542,8.348,9.393,13.788,7.317
								c3.075-1.173,5.303-3.846,7.206-6.532c1.903-2.686,3.691-5.561,6.357-7.49s6.533-2.667,9.212-0.755"/>
						</g>
					</g>
				</g>
			</g>
			<g>
				<g>
					<g>
						<path style="fill:#E8505B;" d="M336.735,359.129c2.795-3.863,9.702-4.981,14.064-3.054c4.361,1.927,7.556,5.751,10.415,9.566
							c2.859,3.816,5.643,7.845,9.603,10.5c3.961,2.655,9.494,3.616,13.441,0.942c2.593-1.757,4.096-4.81,4.566-7.906
							c0.47-3.096,0.017-6.258-0.628-9.323c-0.943-4.484-2.484-9.167-6.072-12.016c-3.999-3.176-9.549-3.326-14.653-3.159
							c-5.857,0.191-11.801,0.631-17.297,2.661C344.678,349.369,339.069,353.753,336.735,359.129"/>
					</g>
				</g>
			</g>
			<g>
				<g>
					<g>
						<g>
							<path style="fill:#263238;" d="M385.699,429.605c-0.009,0-0.019-0.082-0.031-0.243c-0.01-0.192-0.023-0.426-0.039-0.714
								c-0.024-0.671-0.056-1.588-0.097-2.748c-0.068-2.432-0.165-5.872-0.283-10.105c-0.126-4.266-0.291-9.344-0.574-14.977
								c-0.298-5.631-0.647-11.827-1.411-18.284c-0.374-3.229-0.863-6.369-1.576-9.335c-0.214-0.73-0.401-1.46-0.632-2.171
								c-0.261-0.703-0.504-1.405-0.773-2.089c-0.285-0.677-0.567-1.348-0.846-2.01c-0.307-0.65-0.611-1.293-0.911-1.927
								c-2.525-5.022-5.67-9.075-8.762-11.981c-3.077-2.94-6.095-4.687-8.22-5.732c-0.533-0.249-1.011-0.472-1.433-0.669
								c-0.416-0.162-0.776-0.302-1.081-0.421c-0.267-0.108-0.484-0.197-0.662-0.269c-0.148-0.064-0.223-0.1-0.22-0.109
								c0.003-0.009,0.083,0.011,0.237,0.058c0.183,0.059,0.406,0.132,0.681,0.221c0.311,0.106,0.678,0.231,1.103,0.376
								c0.428,0.169,0.911,0.392,1.461,0.629c2.165,0.995,5.243,2.711,8.385,5.647c3.156,2.901,6.366,6.975,8.939,12.035
								c0.306,0.64,0.615,1.288,0.928,1.943c0.284,0.668,0.571,1.344,0.862,2.027c0.274,0.69,0.521,1.398,0.787,2.108
								c0.237,0.721,0.43,1.467,0.649,2.209c0.73,3.004,1.224,6.16,1.599,9.401c0.766,6.48,1.101,12.684,1.373,18.322
								c0.257,5.64,0.384,10.723,0.463,14.991c0.079,4.269,0.109,7.723,0.118,10.11c0,1.16-0.001,2.078-0.001,2.749
								c-0.005,0.288-0.01,0.523-0.013,0.715C385.716,429.522,385.708,429.604,385.699,429.605z"/>
						</g>
					</g>
				</g>
			</g>
		</g>
		<g>
			<g>
				<g>
					<g>
						<path style="fill:#263238;" d="M389.547,431.204c0,0-0.604-1.586-1.179-4.59c-0.56-3-0.981-7.448-0.497-12.903
							c0.455-5.453,1.849-11.853,4.071-18.721c2.193-6.88,5.172-14.237,7.716-22.143c1.262-3.956,2.334-7.87,3.07-11.712
							c0.745-3.841,1.217-7.592,1.517-11.176c0.6-7.172,0.517-13.671,0.345-19.113c-0.183-5.445-0.47-9.848-0.648-12.891
							c-0.086-1.494-0.154-2.668-0.203-3.505c-0.017-0.378-0.03-0.678-0.04-0.912c-0.006-0.206-0.005-0.312,0.004-0.312
							c0.009-0.001,0.026,0.104,0.049,0.308c0.024,0.233,0.054,0.533,0.092,0.909c0.072,0.835,0.172,2.007,0.3,3.498
							c0.24,3.04,0.584,7.44,0.814,12.892c0.22,5.448,0.341,11.962-0.235,19.166c-0.289,3.6-0.752,7.37-1.495,11.234
							c-0.733,3.867-1.809,7.804-3.075,11.774c-2.554,7.934-5.544,15.281-7.756,22.132c-2.239,6.837-3.661,13.191-4.161,18.607
							c-0.528,5.417-0.166,9.838,0.33,12.834c0.261,1.497,0.5,2.657,0.71,3.43c0.089,0.367,0.159,0.66,0.214,0.887
							C389.536,431.098,389.555,431.202,389.547,431.204z"/>
					</g>
				</g>
			</g>
		</g>
		<g>
			<g>
				<g>
					<polygon style="fill:#263238;" points="416.055,436.036 365.85,436.036 364.704,426.373 416.055,426.373 					"/>
				</g>
			</g>
		</g>
		<g>
			<g>
				<g>
					<polygon style="fill:#263238;" points="371.238,434.936 377.515,463.925 404.795,463.925 410.667,434.936 					"/>
				</g>
			</g>
		</g>
		<g>
			<g>
				<g>
					<g>
						<path style="fill:#455A64;" d="M416.054,436.036c0,0.144-11.038,0.229-24.651,0.191c-13.617-0.038-24.652-0.186-24.652-0.329
							s11.036-0.229,24.653-0.191C405.017,435.745,416.055,435.892,416.054,436.036z"/>
					</g>
				</g>
			</g>
		</g>
		<g>
			<g>
				<g>
					<g>
						<path style="fill:#455A64;" d="M407.438,450.345c-0.068,0.101-1.488-1.355-4.427-2.52c-1.458-0.578-3.301-1.027-5.372-1.074
							c-2.074-0.066-4.324,0.429-6.603,1.214c-2.288,0.774-4.425,1.673-6.509,2.169c-2.094,0.451-4.043,0.415-5.63,0.165
							c-1.592-0.251-2.826-0.726-3.616-1.152c-0.39-0.225-0.688-0.405-0.87-0.557c-0.188-0.143-0.28-0.225-0.27-0.24
							c0.028-0.041,0.432,0.244,1.23,0.615c0.8,0.362,2.019,0.77,3.578,0.969c1.553,0.198,3.455,0.192,5.471-0.268
							c2.007-0.503,4.143-1.414,6.449-2.195c2.3-0.793,4.638-1.296,6.782-1.2c2.137,0.075,4.023,0.577,5.498,1.212
							c1.488,0.619,2.566,1.369,3.271,1.916c0.353,0.276,0.612,0.508,0.777,0.676C407.367,450.239,407.45,450.331,407.438,450.345z"
							/>
					</g>
				</g>
			</g>
		</g>
		<g>
			<g>
				<g>
					<g>
						<path style="fill:#FFFFFF;" d="M407.057,452.28c-0.07,0.102-1.437-1.31-4.252-2.487c-1.4-0.578-3.178-1.025-5.179-1.063
							c-2.003-0.054-4.183,0.4-6.387,1.151c-2.211,0.739-4.287,1.596-6.271,2.129c-1.982,0.54-3.854,0.729-5.41,0.603
							c-1.561-0.111-2.778-0.554-3.545-0.955c-0.379-0.216-0.667-0.391-0.843-0.538c-0.181-0.139-0.271-0.218-0.26-0.233
							c0.029-0.042,0.418,0.237,1.191,0.589c0.776,0.336,1.964,0.709,3.48,0.771c1.511,0.076,3.327-0.144,5.259-0.698
							c1.939-0.547,3.998-1.413,6.236-2.161c2.228-0.76,4.492-1.22,6.563-1.136c2.068,0.066,3.894,0.567,5.311,1.203
							c1.428,0.625,2.458,1.367,3.133,1.904c0.339,0.27,0.586,0.497,0.746,0.659C406.99,452.177,407.069,452.267,407.057,452.28z"/>
					</g>
				</g>
			</g>
		</g>
		<g>
			<g>
				<g>
					<g>
						<path style="fill:#FFFFFF;" d="M407.935,448.422c-0.066,0.095-1.542-1.379-4.546-2.662c-1.492-0.632-3.372-1.193-5.506-1.319
							c-2.135-0.149-4.462,0.397-6.813,1.203c-2.365,0.793-4.56,1.755-6.74,2.199c-2.179,0.394-4.18,0.271-5.813,0.005
							c-1.636-0.286-2.911-0.755-3.731-1.188c-0.405-0.227-0.715-0.41-0.905-0.566c-0.195-0.147-0.291-0.23-0.281-0.245
							c0.029-0.041,0.445,0.253,1.273,0.628c0.83,0.368,2.092,0.773,3.701,1.007c1.604,0.215,3.568,0.294,5.665-0.113
							c2.079-0.447,4.284-1.421,6.664-2.221c2.371-0.814,4.789-1.37,7.009-1.188c2.206,0.157,4.121,0.773,5.625,1.461
							c1.515,0.68,2.621,1.457,3.348,2.024c0.363,0.286,0.631,0.524,0.802,0.698C407.862,448.314,407.947,448.409,407.935,448.422z"
							/>
					</g>
				</g>
			</g>
		</g>
	</g>
</g>
<g id="Blank_Canvas">
	<g>
		<g>
			<g>
				<g>
					<g>
						<g>
							<g>
								<polygon style="fill:#263238;" points="254.48,321.084 221.795,464.287 229.547,464.287 261.456,321.084 								"/>
							</g>
						</g>
					</g>
					<g>
						<g>
							<g>
								<polygon style="fill:#455A64;" points="250.604,321.084 217.92,464.287 225.671,464.287 257.581,321.084 								"/>
							</g>
						</g>
					</g>
				</g>
				<g>
					<g>
						<g>
							<g>
								<path style="fill:#263238;" d="M338.869,312.472c0.002,1.273,28.443,151.452,28.443,151.452h8.326l-28.985-151.452H338.869z
									"/>
							</g>
						</g>
					</g>
					<g>
						<g>
							<g>
								<path style="fill:#455A64;" d="M335.38,312.472c0.002,1.273,28.443,151.452,28.443,151.452h8.864l-29.523-151.452H335.38z"
									/>
							</g>
						</g>
					</g>
				</g>
				<g>
					<g>
						<g>
							<polygon style="fill:#263238;" points="316.601,321.084 314.7,464.287 325.18,464.287 326.706,321.084 							"/>
						</g>
					</g>
				</g>
				<g>
					<g>
						<g>
							<polygon style="fill:#455A64;" points="240.52,312.472 239.85,321.959 327.936,324.97 328.875,313.658 							"/>
						</g>
					</g>
				</g>
				<g>
					<g>
						<g>
							<polygon style="fill:#263238;" points="327.936,324.97 332.845,324.97 333.749,313.724 328.875,313.658 							"/>
						</g>
					</g>
				</g>
				<g>
					<g>
						<g>
							<polygon style="fill:#455A64;" points="246.47,357.995 313.649,361.142 313.649,372.567 244.533,369.154 							"/>
						</g>
					</g>
				</g>
				<g>
					<g>
						<g>
							<polygon style="fill:#455A64;" points="313.649,321.084 311.748,464.287 322.227,464.287 323.753,321.084 							"/>
						</g>
					</g>
				</g>
				<g>
					<g>
						<g>
							<path style="fill:#455A64;" d="M269.078,321.084c-0.28,1.865,0,7.687,0,7.687l36.238,2.081v-8.323L269.078,321.084z"/>
						</g>
					</g>
				</g>
			</g>
			<g>
				<g>
					<g>
						<g>
							<path style="fill:#455A64;" d="M300.627,48.223c0.434,0.961,6.073,38.876,6.073,38.876l6.755-0.464l-5.45-38.412H300.627z"/>
						</g>
					</g>
				</g>
				<g>
					<g>
						<g>
							<polygon style="fill:#263238;" points="311.259,51.107 308.004,48.223 313.454,86.635 316.251,86.443 							"/>
						</g>
					</g>
				</g>
				<g>
					<g>
						<g>
							<path style="fill:#263238;" d="M320.182,66.022c0,0.727-0.519,20.312-0.519,20.312l7.233-0.497V66.022H320.182z"/>
						</g>
					</g>
				</g>
				<g>
					<g>
						<g>
							<path style="fill:#455A64;" d="M318.344,66.022c0,0.727-0.519,20.312-0.519,20.312l7.233-0.497V66.022H318.344z"/>
						</g>
					</g>
				</g>
				<g>
					<g>
						<g>
							<polygon style="fill:#263238;" points="296.289,66.604 290.927,88.184 297.335,87.743 302.197,66.604 							"/>
						</g>
					</g>
				</g>
				<g>
					<g>
						<g>
							<polygon style="fill:#455A64;" points="293.527,66.604 288.165,88.184 294.573,87.743 299.435,66.604 							"/>
						</g>
					</g>
				</g>
			</g>
		</g>
		<g>
			<g>
				<g>
					<g>
						<polygon style="fill:#E0E0E0;" points="375.242,80.73 379.568,84.56 374.063,314.17 367.696,314.17 						"/>
					</g>
				</g>
			</g>
			<g>
				<g>
					<g>
						<g>
							<polygon style="fill:#FAFAFA;" points="230.921,92.948 212.056,311.598 367.696,314.17 375.242,80.73 							"/>
						</g>
					</g>
				</g>
				<g>
					<g>
						<g>
							<g>
								<path style="fill:#455A64;" d="M230.921,92.948c0,0,0.861-0.089,2.558-0.24c1.706-0.15,4.231-0.372,7.534-0.662
									c6.633-0.574,16.384-1.417,28.891-2.499c25.06-2.147,61.155-5.238,105.32-9.021l0.229-0.02l-0.007,0.23
									c-2.022,63.027-4.617,143.892-7.437,231.787c-0.018,0.556-0.036,1.111-0.053,1.655l-0.008,0.256l-0.256-0.004
									c-55.747-0.93-108.617-1.812-155.64-2.596l-0.254-0.004l0.022-0.253c5.626-64.67,10.383-119.35,13.734-157.871
									c1.687-19.233,3.02-34.431,3.932-44.827c0.461-5.184,0.814-9.169,1.054-11.866c0.122-1.338,0.215-2.354,0.277-3.044
									C230.882,93.288,230.921,92.948,230.921,92.948s-0.021,0.358-0.076,1.049c-0.057,0.695-0.14,1.721-0.25,3.07
									c-0.227,2.708-0.562,6.709-0.998,11.913c-0.883,10.41-2.174,25.627-3.809,44.886c-3.294,38.492-7.969,93.131-13.498,157.752
									l-0.232-0.257c47.023,0.77,99.893,1.636,155.64,2.548l-0.264,0.252c0.018-0.544,0.036-1.1,0.054-1.655
									c2.862-87.893,5.496-168.758,7.548-231.783l0.222,0.211c-44.125,3.692-80.187,6.709-105.224,8.804
									c-12.528,1.038-22.296,1.847-28.94,2.397c-3.32,0.27-5.857,0.477-7.573,0.617C231.811,92.889,230.921,92.948,230.921,92.948
									z"/>
							</g>
						</g>
					</g>
				</g>
			</g>
		</g>
	</g>
</g>
<g id="Speech_Bubble">
	<g>
		<g>
			<g>
				<g>
					<g>
						<g>
							<g>
								<path style="fill:#E8505B;" d="M75.363,68.614c0.449,0.216,0.758,0.675,0.759,1.206l-0.001,6.66
									c0.001,0.419-0.196,0.814-0.53,1.066c-0.334,0.253-0.767,0.335-1.17,0.221c-1.057-0.298-2.246-0.117-3.26,0.5
									c-0.934,0.567-1.582,1.432-1.777,2.376c-0.196,0.94,0.052,2,0.68,2.91c0.672,0.974,1.697,1.654,2.748,1.821
									c2.146,0.341,4.545-1.21,5.239-3.388c0.224-0.704,0.976-1.092,1.68-0.868c0.715,0.23,1.093,0.977,0.868,1.68
									c-1.09,3.423-4.772,5.764-8.208,5.218c-1.781-0.284-3.434-1.356-4.528-2.943c-1.041-1.508-1.441-3.32-1.098-4.973
									c0.346-1.667,1.442-3.168,3.008-4.118c1.132-0.687,2.411-1.037,3.674-1.027l-0.001-5.133c0-0.739,0.599-1.337,1.338-1.337
									C74.992,68.483,75.188,68.529,75.363,68.614z"/>
							</g>
						</g>
					</g>
				</g>
			</g>
			<g>
				<g>
					<g>
						<g>
							<g>
								<path style="fill:#E8505B;" d="M73.522,65.813c-0.015-0.604,0.462-1.106,1.066-1.122c0.604-0.015,1.106,0.462,1.122,1.066
									c0.015,0.604-0.462,1.106-1.066,1.122C74.039,66.895,73.537,66.417,73.522,65.813z"/>
							</g>
						</g>
					</g>
				</g>
			</g>
		</g>
		<g>
			<g>
				<g>
					<g>
						<g>
							<g>
								<path style="fill:#263238;" d="M106.148,101.473c0.005,0.031-0.333,0.051-0.879,0.275c-0.539,0.219-1.292,0.704-1.856,1.592
									c-0.275,0.441-0.502,0.98-0.573,1.586c-0.065,0.603,0.024,1.269,0.335,1.88c0.585,1.217,1.993,2.27,3.583,2.191
									c1.588-0.109,2.862-1.322,3.3-2.599c0.237-0.644,0.246-1.316,0.11-1.907c-0.142-0.593-0.431-1.102-0.756-1.507
									c-0.664-0.815-1.469-1.208-2.031-1.362c-0.569-0.158-0.907-0.137-0.906-0.169c0-0.01,0.082-0.016,0.242-0.019
									c0.08-0.005,0.178-0.001,0.294,0.015c0.117,0.01,0.25,0.027,0.398,0.065c0.587,0.125,1.441,0.502,2.159,1.34
									c0.352,0.417,0.669,0.948,0.831,1.58c0.157,0.629,0.155,1.358-0.091,2.05c-0.231,0.693-0.675,1.356-1.286,1.866
									c-0.602,0.519-1.395,0.873-2.247,0.934c-0.853,0.04-1.682-0.218-2.341-0.662c-0.666-0.434-1.186-1.039-1.497-1.7
									c-0.326-0.658-0.414-1.381-0.333-2.024c0.086-0.646,0.338-1.211,0.638-1.667c0.614-0.917,1.417-1.392,1.986-1.586
									c0.142-0.056,0.273-0.088,0.387-0.112c0.113-0.03,0.21-0.045,0.29-0.05C106.064,101.467,106.147,101.463,106.148,101.473z"
									/>
							</g>
						</g>
					</g>
				</g>
			</g>
			<g>
				<g>
					<g>
						<g>
							<g>
								<path style="fill:#263238;" d="M115.876,111.146c0.004,0.027-0.208,0.047-0.546,0.192c-0.334,0.143-0.799,0.45-1.144,1.003
									c-0.346,0.537-0.532,1.376-0.137,2.141c0.363,0.749,1.235,1.397,2.208,1.348c0.973-0.066,1.763-0.812,2.034-1.599
									c0.302-0.806,0.018-1.617-0.389-2.109c-0.408-0.509-0.906-0.759-1.255-0.861c-0.353-0.105-0.566-0.099-0.565-0.127
									c-0.002-0.012,0.212-0.057,0.593,0.018c0.375,0.074,0.921,0.308,1.383,0.84c0.226,0.265,0.431,0.603,0.537,1.008
									c0.103,0.403,0.103,0.872-0.054,1.317c-0.292,0.881-1.149,1.719-2.267,1.799c-1.119,0.052-2.069-0.679-2.463-1.519
									c-0.208-0.423-0.263-0.888-0.209-1.301c0.057-0.414,0.221-0.774,0.414-1.064c0.396-0.583,0.911-0.88,1.274-0.997
									C115.659,111.114,115.877,111.133,115.876,111.146z"/>
							</g>
						</g>
					</g>
				</g>
			</g>
			<g>
				<g>
					<g>
						<g>
							<g>
								<g>
									<path style="fill:#263238;" d="M104.532,81.649c0,0-0.005-0.171-0.001-0.502c0.006-0.339,0.015-0.829,0.026-1.47
										c0.007-0.324,0.014-0.685,0.023-1.082c-0.01-0.398-0.06-0.832-0.092-1.303c-0.037-0.471-0.076-0.978-0.119-1.519
										c-0.011-0.272-0.054-0.549-0.111-0.833c-0.051-0.285-0.104-0.578-0.158-0.88c-0.354-2.425-1.245-5.327-2.768-8.45
										c-1.538-3.111-3.851-6.417-7.127-9.327c-0.412-0.36-0.829-0.725-1.25-1.093c-0.442-0.342-0.912-0.661-1.374-0.998
										c-0.233-0.167-0.466-0.335-0.702-0.504c-0.234-0.171-0.469-0.342-0.728-0.48c-0.506-0.293-1.017-0.59-1.534-0.889
										c-0.259-0.148-0.516-0.304-0.78-0.448c-0.275-0.125-0.55-0.251-0.827-0.377c-0.554-0.252-1.113-0.507-1.678-0.765
										c-0.572-0.24-1.176-0.413-1.771-0.626c-0.299-0.102-0.599-0.204-0.901-0.307c-0.151-0.049-0.301-0.108-0.455-0.15
										l-0.469-0.109c-1.255-0.279-2.517-0.642-3.845-0.753c-0.66-0.075-1.322-0.191-1.994-0.234
										c-0.675-0.018-1.354-0.036-2.039-0.054c-0.342-0.003-0.686-0.032-1.03-0.014c-0.344,0.026-0.689,0.051-1.035,0.077
										c-0.692,0.06-1.393,0.085-2.09,0.174c-1.383,0.262-2.808,0.428-4.185,0.88c-0.348,0.098-0.697,0.195-1.047,0.294
										c-0.174,0.051-0.352,0.095-0.525,0.151l-0.51,0.199c-0.681,0.266-1.367,0.533-2.057,0.802
										c-0.675,0.301-1.328,0.661-2,0.992c-0.33,0.176-0.678,0.322-0.995,0.525l-0.956,0.606
										c-1.314,0.758-2.488,1.744-3.711,2.686c-0.562,0.529-1.126,1.061-1.693,1.595l-0.426,0.401
										c-0.133,0.142-0.259,0.293-0.389,0.439l-0.776,0.885l-0.779,0.889l-0.696,0.961l-0.696,0.968l-0.349,0.485
										c-0.106,0.168-0.202,0.344-0.304,0.516c-0.402,0.691-0.805,1.385-1.21,2.082c-0.335,0.733-0.672,1.468-1.01,2.206
										c-1.241,3.001-2.034,6.229-2.338,9.553c-0.216,3.332,0.066,6.645,0.826,9.803c0.219,0.782,0.437,1.561,0.655,2.337
										c0.292,0.751,0.583,1.5,0.873,2.245l0.22,0.557l0.27,0.534l0.538,1.064l0.539,1.058l0.632,0.999l0.629,0.995l0.316,0.494
										l0.359,0.462c0.477,0.616,0.953,1.229,1.426,1.839c1.062,1.12,2.069,2.276,3.25,3.229l0.851,0.747
										c0.281,0.25,0.603,0.448,0.902,0.673c0.612,0.431,1.201,0.888,1.822,1.29c0.64,0.372,1.276,0.743,1.908,1.111l0.473,0.276
										c0.162,0.083,0.33,0.154,0.495,0.231c0.331,0.151,0.66,0.302,0.989,0.453c1.291,0.661,2.673,1.045,3.998,1.519
										c0.676,0.195,1.364,0.33,2.038,0.496c0.338,0.079,0.675,0.158,1.011,0.237c0.337,0.071,0.682,0.096,1.02,0.146
										c0.679,0.088,1.354,0.176,2.023,0.263c0.671,0.062,1.343,0.05,2.007,0.078c1.33,0.096,2.633-0.066,3.916-0.148l0.48-0.035
										c0.159-0.018,0.315-0.052,0.473-0.078c0.314-0.055,0.627-0.109,0.938-0.164c0.62-0.118,1.244-0.195,1.846-0.344
										c0.598-0.167,1.19-0.332,1.777-0.495c0.293-0.082,0.585-0.163,0.876-0.244c0.282-0.108,0.562-0.215,0.84-0.322
										c0.557-0.216,1.108-0.429,1.653-0.641c0.277-0.095,0.536-0.229,0.794-0.361c0.258-0.13,0.516-0.26,0.771-0.389
										c0.509-0.262,1.022-0.503,1.512-0.773c0.474-0.299,0.942-0.594,1.405-0.886c3.688-2.366,6.485-5.274,8.487-8.109
										c0.253-0.354,0.51-0.696,0.747-1.042c0.212-0.362,0.42-0.718,0.624-1.067c0.204-0.349,0.404-0.691,0.601-1.027
										c0.095-0.169,0.201-0.331,0.285-0.501c0.08-0.173,0.158-0.344,0.236-0.513c0.312-0.677,0.61-1.325,0.895-1.943
										c0.267-0.625,0.446-1.249,0.656-1.825c0.1-0.289,0.198-0.571,0.292-0.844c0.101-0.272,0.186-0.539,0.239-0.806
										c0.126-0.528,0.243-1.023,0.353-1.482c0.105-0.46,0.222-0.881,0.293-1.273c0.053-0.394,0.102-0.752,0.145-1.073
										c0.088-0.635,0.156-1.121,0.202-1.456C104.5,81.817,104.532,81.649,104.532,81.649s-0.012,0.169-0.049,0.498
										c-0.04,0.337-0.098,0.824-0.174,1.461c-0.04,0.322-0.084,0.681-0.132,1.077c-0.067,0.393-0.18,0.816-0.28,1.279
										c-0.106,0.462-0.219,0.959-0.341,1.49c-0.051,0.269-0.135,0.537-0.234,0.81c-0.093,0.275-0.189,0.558-0.287,0.85
										c-0.207,0.579-0.383,1.207-0.647,1.836c-0.282,0.622-0.578,1.274-0.887,1.956c-0.077,0.171-0.156,0.343-0.235,0.517
										c-0.084,0.172-0.189,0.335-0.284,0.505c-0.195,0.338-0.395,0.683-0.598,1.035c-0.203,0.352-0.411,0.71-0.622,1.075
										c-0.236,0.349-0.493,0.694-0.746,1.051c-1.999,2.858-4.803,5.794-8.507,8.187c-0.465,0.295-0.936,0.594-1.411,0.896
										c-0.493,0.273-1.008,0.518-1.52,0.783c-0.257,0.13-0.516,0.261-0.776,0.393c-0.259,0.134-0.519,0.269-0.798,0.366
										c-0.549,0.214-1.103,0.431-1.664,0.65c-0.281,0.108-0.56,0.223-0.846,0.326c-0.292,0.082-0.586,0.165-0.882,0.248
										c-0.591,0.166-1.187,0.334-1.789,0.503c-0.606,0.151-1.234,0.231-1.859,0.351c-0.313,0.055-0.629,0.111-0.945,0.167
										c-0.158,0.026-0.316,0.061-0.476,0.079l-0.484,0.036c-1.293,0.085-2.606,0.25-3.946,0.156
										c-0.669-0.028-1.346-0.014-2.023-0.076c-0.675-0.087-1.355-0.174-2.04-0.261c-0.341-0.05-0.689-0.075-1.029-0.146
										c-0.339-0.079-0.679-0.158-1.02-0.237c-0.68-0.167-1.374-0.301-2.056-0.497c-1.338-0.475-2.732-0.862-4.035-1.526
										c-0.332-0.151-0.664-0.303-0.998-0.455c-0.166-0.078-0.336-0.149-0.499-0.232l-0.478-0.278
										c-0.638-0.371-1.28-0.744-1.926-1.119c-0.626-0.405-1.222-0.865-1.839-1.299c-0.301-0.227-0.626-0.426-0.91-0.678
										l-0.859-0.752c-1.192-0.961-2.21-2.126-3.281-3.256c-0.478-0.615-0.958-1.233-1.44-1.855l-0.362-0.466l-0.319-0.498
										l-0.636-1.003l-0.638-1.008l-0.545-1.067l-0.543-1.074l-0.272-0.539l-0.222-0.562c-0.293-0.752-0.587-1.507-0.882-2.266
										c-0.22-0.783-0.441-1.57-0.662-2.359c-0.768-3.187-1.053-6.532-0.835-9.894c0.306-3.355,1.108-6.613,2.361-9.641
										c0.341-0.745,0.681-1.487,1.02-2.227c0.409-0.703,0.816-1.403,1.222-2.101c0.103-0.174,0.2-0.351,0.307-0.521l0.352-0.49
										l0.703-0.976l0.704-0.969l0.786-0.897l0.783-0.892c0.131-0.147,0.258-0.299,0.393-0.442l0.43-0.405
										c0.573-0.539,1.143-1.075,1.71-1.609c1.234-0.95,2.42-1.942,3.746-2.706l0.965-0.61c0.32-0.205,0.671-0.351,1.004-0.529
										c0.677-0.333,1.337-0.696,2.018-0.998c0.696-0.27,1.388-0.539,2.076-0.806l0.515-0.2c0.175-0.057,0.353-0.101,0.529-0.152
										c0.353-0.099,0.705-0.197,1.056-0.295c1.39-0.454,2.827-0.62,4.222-0.882c0.704-0.088,1.411-0.113,2.108-0.172
										c0.349-0.025,0.697-0.051,1.044-0.076c0.347-0.018,0.694,0.012,1.039,0.015c0.69,0.02,1.375,0.039,2.055,0.058
										c0.678,0.044,1.345,0.162,2.01,0.239c1.339,0.115,2.61,0.482,3.874,0.766l0.472,0.111c0.155,0.043,0.306,0.102,0.458,0.152
										c0.304,0.104,0.606,0.208,0.908,0.311c0.599,0.216,1.207,0.392,1.782,0.635c0.568,0.261,1.131,0.519,1.689,0.774
										c0.279,0.128,0.556,0.255,0.832,0.382c0.266,0.145,0.525,0.303,0.785,0.453c0.519,0.303,1.034,0.603,1.543,0.9
										c0.261,0.139,0.497,0.312,0.732,0.485c0.236,0.171,0.472,0.34,0.705,0.509c0.465,0.341,0.936,0.663,1.381,1.009
										c0.423,0.372,0.842,0.74,1.255,1.104c3.289,2.938,5.603,6.273,7.135,9.407c1.517,3.146,2.396,6.066,2.734,8.502
										c0.052,0.303,0.103,0.598,0.152,0.884c0.055,0.285,0.096,0.563,0.105,0.837c0.038,0.544,0.073,1.052,0.106,1.525
										c0.028,0.472,0.073,0.908,0.079,1.307c-0.014,0.399-0.026,0.761-0.037,1.085c-0.024,0.641-0.042,1.132-0.054,1.471
										C104.546,81.481,104.532,81.649,104.532,81.649z"/>
								</g>
							</g>
						</g>
					</g>
				</g>
			</g>
		</g>
	</g>
</g>
</svg>
