<?xml version="1.0" encoding="utf-8"?>
<!-- Generator: Adobe Illustrator 27.5.0, SVG Export Plug-In . SVG Version: 6.00 Build 0)  -->
<svg version="1.1" xmlns="http://www.w3.org/2000/svg" xmlns:xlink="http://www.w3.org/1999/xlink" x="0px" y="0px"
	 viewBox="0 0 500 500" style="enable-background:new 0 0 500 500;" xml:space="preserve">
<g id="Background_Complete">
	<g>
		<path style="fill:#F5F5F5;" d="M53.332,223.835v47.636c0,8.619,6.986,15.606,15.606,15.606h170.808
			c8.619,0,15.606-6.987,15.606-15.606v-40.25l21.265-22.342l-207.63-0.649C60.348,208.201,53.332,215.197,53.332,223.835z"/>
		<g>
			<polygon style="fill:#E0E0E0;" points="230.173,237.089 75.176,236.373 75.192,231.609 230.189,232.325 			"/>
		</g>
		<g>
			<polygon style="fill:#E0E0E0;" points="230.173,252.762 75.176,252.046 75.192,247.282 230.189,247.998 			"/>
		</g>
		<g>
			
				<rect x="197.137" y="234.842" transform="matrix(0.0049 -1 1 0.0049 -66.9651 463.7162)" style="fill:#E0E0E0;" width="4.764" height="61.328"/>
		</g>
	</g>
	<g>
		<path style="fill:#F5F5F5;" d="M211.602,388.434v47.636c0,8.619,6.986,15.606,15.606,15.606h170.808
			c8.619,0,15.606-6.987,15.606-15.606v-40.25l21.265-22.342l-207.63-0.649C218.618,372.801,211.602,379.796,211.602,388.434z"/>
		<g>
			<polygon style="fill:#E0E0E0;" points="389.185,400.451 234.188,399.735 234.204,394.971 389.201,395.687 			"/>
		</g>
		<g>
			<polygon style="fill:#E0E0E0;" points="389.185,416.124 234.188,415.408 234.204,410.644 389.201,411.361 			"/>
		</g>
		<g>
			
				<rect x="356.149" y="398.204" transform="matrix(0.0049 -1 1 0.0049 -72.0955 785.2847)" style="fill:#E0E0E0;" width="4.764" height="61.328"/>
		</g>
	</g>
	<path style="fill:#F5F5F5;" d="M144.63,44.389h100.744c4.987,0,9.03,4.042,9.03,9.029v49.276c0,4.987-4.043,9.029-9.03,9.029
		h-85.489c-4.987,0-9.03-4.043-9.03-9.029v-52.08L144.63,44.389z"/>
	<g>
		<path style="fill:#E0E0E0;" d="M203.033,92.294v31.594c0,5.716-4.634,10.351-10.351,10.351H79.395
			c-5.717,0-10.351-4.634-10.351-10.351V97.193L54.94,82.374l137.71-0.43C198.379,81.926,203.033,86.565,203.033,92.294z"/>
		<g>
			<polygon style="fill:#F5F5F5;" points="85.744,101.085 188.545,100.61 188.534,97.451 85.733,97.926 			"/>
		</g>
		<g>
			<polygon style="fill:#F5F5F5;" points="85.744,111.48 188.545,111.005 188.534,107.846 85.733,108.321 			"/>
		</g>
		<g>
			
				<rect x="85.737" y="118.353" transform="matrix(1 -0.0049 0.0049 1 -0.589 0.5235)" style="fill:#F5F5F5;" width="40.676" height="3.16"/>
		</g>
	</g>
	<g>
		<path style="fill:#E0E0E0;" d="M417.644,238.804v31.594c0,5.716-4.634,10.35-10.35,10.35H294.006
			c-5.717,0-10.351-4.634-10.351-10.35v-26.695l-14.104-14.819l137.71-0.431C412.99,228.436,417.644,233.075,417.644,238.804z"/>
		<g>
			<polygon style="fill:#F5F5F5;" points="300.354,247.596 403.156,247.121 403.145,243.961 300.344,244.436 			"/>
		</g>
		<g>
			<polygon style="fill:#F5F5F5;" points="300.354,257.991 403.156,257.516 403.145,254.356 300.344,254.831 			"/>
		</g>
		<g>
			
				<rect x="300.348" y="264.863" transform="matrix(1 -0.0049 0.0049 1 -1.3075 1.5816)" style="fill:#F5F5F5;" width="40.676" height="3.16"/>
		</g>
	</g>
</g>
<g id="Background_Simple" style="display:none;">
	<path style="display:inline;fill:#EBEBEB;" d="M422.536,128.998c28.592,56.97,19.548,128.881-16.187,181.664
		c-35.735,52.783-95.187,86.957-157.702,99.401c-44.626,8.883-92.634,7.074-133.409-13.119S42.4,336.125,39.955,290.689
		c-0.924-17.162,2.716-35.385,14.169-48.199c18.287-20.461,49.505-21.182,76.934-20.337c27.429,0.844,58.627,0.204,77.003-20.177
		c14.12-15.66,16.199-38.376,23.639-58.106c12.651-33.547,43.174-59.741,78.252-67.155c4.872-1.03,9.81-1.693,14.77-2.002
		c38.581-2.409,75.174,17.444,95.413,50.379L422.536,128.998z"/>
</g>
<g id="Plants">
	<g>
		<g>
			<g>
				<path style="fill:#E8505B;" d="M320.599,395.651c-16.932-16.488-17.211-41.992-12.805-64.155
					c0.735-3.699,0.968-7.688,3.272-10.663c2.305-2.973,6.799-4.529,9.873-2.415c2.55,1.753,3.228,5.164,4.338,8.074
					c1.477,3.873,4.062,7.301,7.361,9.762c2.168,1.617,4.976,2.849,7.525,1.942c3.499-1.245,4.603-5.617,5.186-9.321
					c1.086-6.904,2.172-13.807,3.258-20.709c0.583-3.704,1.19-7.483,2.916-10.807c1.726-3.323,4.803-6.169,8.484-6.579
					c3.682-0.409,7.702,2.333,7.852,6.076c0.063,1.558-0.5,3.072-0.649,4.624c-0.149,1.553,0.289,3.37,1.677,4.036
					c1.406,0.676,3.058-0.131,4.341-1.033c4.431-3.111,7.81-7.499,11.016-11.888c3.206-4.39,6.359-8.905,10.491-12.412
					c4.132-3.508,9.454-5.952,14.802-5.384c5.349,0.568,10.459,4.763,10.946,10.184c0.489,5.436-3.421,10.231-7.424,13.911
					c-5.939,5.461-12.658,10.049-19.88,13.576c-1.302,0.637-2.713,1.324-3.383,2.622c-1.208,2.335,0.729,5.168,3.031,6.377
					c2.608,1.37,5.647,1.574,8.477,2.386c2.829,0.812,5.746,2.596,6.391,5.502c0.896,4.03-2.916,7.476-6.453,9.563
					c-7.083,4.179-14.872,7.121-22.918,8.659c-2.885,0.55-5.892,0.955-8.4,2.508c-2.508,1.554-4.377,4.662-3.478,7.485
					c0.9,2.827,4.167,4.218,7.105,4.155c2.936-0.061,5.743-1.192,8.627-1.772c5.399-1.087,11.908,0.339,14.446,5.267
					c1.668,3.239,1.198,7.292-0.449,10.558c-1.646,3.266-4.327,5.873-7.106,8.226c-9.715,8.227-21.408,14.217-33.874,16.375
					C342.73,402.54,331.619,401.858,320.599,395.651"/>
			</g>
		</g>
		<g>
			<g>
				<g>
					<path style="fill:#263238;" d="M317.601,412.126c2.253-8.697,5.896-18.807,11.038-29.505
						c5.122-10.71,11.709-21.985,19.005-33.541c1.834-2.882,3.647-5.73,5.433-8.536c1.79-2.797,3.564-5.572,5.468-8.178
						c3.785-5.23,7.823-9.97,11.796-14.349c3.973-4.383,7.903-8.397,11.604-12.124c3.712-3.72,7.236-7.122,10.581-10.086
						c6.674-5.955,12.614-10.111,16.808-12.798c2.095-1.351,3.755-2.345,4.889-3.004c0.545-0.312,0.972-0.557,1.294-0.741
						c0.293-0.163,0.447-0.242,0.452-0.231c0.007,0.011-0.135,0.11-0.417,0.293c-0.313,0.199-0.73,0.463-1.259,0.8
						c-1.109,0.698-2.745,1.728-4.816,3.111c-4.143,2.754-10.017,6.957-16.63,12.94c-3.315,2.979-6.811,6.393-10.499,10.126
						c-3.682,3.742-7.59,7.764-11.541,12.147c-3.95,4.381-7.961,9.112-11.718,14.319c-1.889,2.595-3.645,5.346-5.438,8.152
						c-1.785,2.805-3.595,5.652-5.428,8.533c-7.289,11.547-13.877,22.784-19.016,33.447c-5.156,10.65-8.832,20.701-11.137,29.351"/>
				</g>
			</g>
		</g>
		<g>
			<g>
				<g>
					<path style="fill:#263238;" d="M358.744,332.372c-0.047,0-0.081-0.583-0.103-1.638c-0.027-1.054-0.016-2.58,0.026-4.466
						c0.08-3.77,0.368-8.972,0.708-14.706c0.34-5.737,0.553-10.928,0.576-14.689c0.016-1.88,0.015-3.402,0-4.454
						c-0.009-1.053,0.009-1.637,0.056-1.64c0.048-0.003,0.12,0.576,0.211,1.627c0.098,1.05,0.174,2.576,0.219,4.461
						c0.103,3.773-0.034,8.989-0.374,14.732c-0.349,5.658-0.666,10.776-0.908,14.687c-0.098,1.767-0.179,3.257-0.245,4.452
						C358.848,331.79,358.793,332.373,358.744,332.372z"/>
				</g>
			</g>
		</g>
		<g>
			<g>
				<g>
					<path style="fill:#263238;" d="M407.771,331.271c-0.007,0.047-0.696,0.015-1.935-0.083c-1.238-0.091-3.03-0.233-5.248-0.337
						c-4.434-0.243-10.571-0.364-17.347-0.202c-6.778,0.175-12.906,0.594-17.328,1.025c-2.214,0.2-4.001,0.41-5.237,0.547
						c-1.236,0.143-1.923,0.199-1.931,0.152c-0.007-0.048,0.667-0.195,1.894-0.421c1.227-0.22,3.01-0.505,5.224-0.769
						c4.423-0.558,10.566-1.056,17.365-1.232c6.796-0.162,12.955,0.037,17.394,0.408c2.221,0.168,4.012,0.384,5.245,0.56
						C407.099,331.1,407.776,331.222,407.771,331.271z"/>
				</g>
			</g>
		</g>
		<g>
			<g>
				<g>
					<path style="fill:#263238;" d="M329.367,381.842c-0.023,0.006-0.102-0.212-0.231-0.633c-0.144-0.501-0.319-1.113-0.532-1.854
						c-0.455-1.612-1.051-3.962-1.751-6.875c-1.403-5.826-3.087-13.933-4.825-22.905c-1.74-8.976-3.346-17.088-4.626-22.934
						c-0.63-2.843-1.15-5.182-1.535-6.921c-0.163-0.754-0.297-1.375-0.407-1.886c-0.086-0.432-0.12-0.663-0.096-0.67
						c0.023-0.005,0.102,0.213,0.231,0.635c0.144,0.501,0.319,1.112,0.532,1.853c0.455,1.612,1.052,3.962,1.751,6.875
						c1.403,5.825,3.087,13.933,4.826,22.909c1.739,8.973,3.346,17.085,4.625,22.932c0.632,2.842,1.15,5.182,1.535,6.919
						c0.163,0.754,0.297,1.377,0.407,1.886C329.357,381.606,329.391,381.836,329.367,381.842z"/>
				</g>
			</g>
		</g>
		<g>
			<g>
				<g>
					<path style="fill:#263238;" d="M395.918,371.818c0.002,0.024-0.229,0.077-0.67,0.156c-0.522,0.085-1.161,0.188-1.937,0.315
						c-1.786,0.272-4.196,0.64-7.129,1.085c-6.019,0.918-14.317,2.281-23.485,3.8c-9.171,1.521-17.49,2.808-23.53,3.601
						c-3.02,0.398-5.466,0.695-7.161,0.865c-0.783,0.074-1.428,0.135-1.953,0.185c-0.447,0.035-0.684,0.041-0.686,0.017
						c-0.002-0.024,0.229-0.077,0.67-0.157c0.52-0.084,1.16-0.188,1.936-0.314c1.786-0.272,4.195-0.639,7.127-1.086
						c6.019-0.917,14.319-2.281,23.489-3.8c9.168-1.52,17.486-2.807,23.526-3.601c3.02-0.398,5.466-0.695,7.162-0.865
						c0.783-0.074,1.427-0.136,1.953-0.185C395.678,371.8,395.914,371.794,395.918,371.818z"/>
				</g>
			</g>
		</g>
	</g>
	<g>
		<path style="fill:#455A64;" d="M152.377,170.79c-3.091-2.397-4.473-6.642-3.827-10.5c0.646-3.858,3.136-7.273,6.363-9.485
			c1.492-1.023,3.34-1.834,5.076-1.323c1.622,0.477,2.752,2.055,3.08,3.713c0.328,1.659-0.026,3.381-0.579,4.979
			C160.592,163.654,157.751,168.609,152.377,170.79"/>
		<path style="fill:#455A64;" d="M147.306,180.151c-6.093-5.558-14.979-7.884-23.014-6.024c-2.046,0.474-4.349,1.555-4.686,3.628
			c-0.337,2.077,1.517,3.837,3.337,4.892c7.572,4.39,17.83,3.565,24.603-1.98"/>
		<path style="fill:#455A64;" d="M117.95,136.813c3.377-0.926,7.079-0.093,10.068,1.732c2.989,1.825,5.327,4.563,7.2,7.522
			c3.624,5.725,4.9,13.419,5.061,20.192c-7.519-0.304-13.943-6.213-17.014-9.416C118.412,151.782,112.713,139.687,117.95,136.813"/>
		<g>
			<path style="fill:#263238;" d="M158.678,190.379c-0.441-0.8-1.159-1.365-1.876-2.834c-1.411-2.934-3.313-7.106-4.235-12.072
				c-0.918-4.974-0.296-9.667,0.939-12.734c0.602-1.541,1.276-2.706,1.819-3.451c0.538-0.748,0.895-1.113,0.929-1.086
				c0.13,0.084-1.2,1.662-2.243,4.719c-1.071,3.027-1.589,7.57-0.697,12.416c0.898,4.848,2.692,9.003,3.975,11.983"/>
		</g>
		<g>
			<path style="fill:#263238;" d="M158.748,190.47c-1.006-1.298-2.325-2.998-3.915-5.049c-3.295-4.271-7.861-10.16-12.99-16.598
				c-5.129-6.434-9.849-12.199-13.277-16.364c-1.645-2.008-3.008-3.673-4.048-4.944c-0.949-1.174-1.455-1.839-1.415-1.874
				c0.04-0.034,0.621,0.566,1.639,1.681c1.02,1.114,2.467,2.75,4.234,4.79c3.535,4.08,8.326,9.796,13.461,16.237
				c5.134,6.445,9.637,12.392,12.825,16.748c1.594,2.178,2.866,3.954,3.724,5.197"/>
		</g>
		<g>
			<path style="fill:#263238;" d="M128.987,178.576c-0.012-0.051,0.451-0.19,1.304-0.399c0.425-0.113,0.951-0.229,1.571-0.3
				c0.619-0.079,1.322-0.211,2.11-0.226c1.571-0.123,3.455-0.057,5.523,0.21c2.061,0.311,4.303,0.849,6.555,1.709
				c2.242,0.889,4.259,2.006,5.988,3.17c1.706,1.201,3.139,2.426,4.214,3.578c0.57,0.543,1,1.116,1.402,1.592
				c0.409,0.472,0.718,0.912,0.955,1.283c0.488,0.731,0.419,1.073,0.376,1.102c-0.12,0.087-0.886-1.452-3.112-3.597
				c-1.102-1.082-2.539-2.236-4.226-3.378c-1.711-1.105-3.686-2.175-5.873-3.043c-2.197-0.838-4.376-1.383-6.384-1.725
				c-2.014-0.298-3.854-0.418-5.397-0.365C130.904,178.264,129.017,178.721,128.987,178.576z"/>
		</g>
	</g>
</g>
<g id="Device">
	<g>
		<g>
			<g>
				<g>
					<g>
						<path style="fill:#263238;" d="M296.744,433.735l-115.5-0.534c-13.891-0.063-25.102-11.374-25.043-25.265l1.224-289.562
							c0.059-13.899,11.376-25.118,25.276-25.054l115.501,0.534c13.891,0.064,25.102,11.375,25.043,25.266l-1.224,289.563
							C321.961,422.581,310.643,433.799,296.744,433.735z"/>
					</g>
					<g>
						<path style="fill:#FAFAFA;" d="M298.036,103.847l-22.393-0.103c-3.003-0.013-5.449,2.521-5.461,5.659l-0.018,4.062
							c-0.012,3.14-2.458,5.674-5.461,5.66l-43.65-0.202c-3.003-0.014-5.427-2.57-5.414-5.71l0.017-4.062
							c0.013-3.139-2.411-5.696-5.414-5.71l-7.876-0.037l-19.6-0.09c-9.734-0.045-17.66,7.812-17.702,17.546l-1.195,282.634
							c-0.041,9.73,7.81,17.651,17.539,17.696l115.27,0.532c9.733,0.045,17.66-7.811,17.701-17.546l1.195-282.635
							C315.615,111.813,307.765,103.892,298.036,103.847z"/>
					</g>
				</g>
			</g>
			<g>
				<path style="fill:#455A64;" d="M232.8,394.663c-0.005,1.128-1.074,2.038-2.387,2.032c-1.313-0.007-2.374-0.926-2.37-2.055
					c0.005-1.128,1.074-2.039,2.387-2.032C231.743,392.614,232.804,393.534,232.8,394.663z"/>
			</g>
			<g>
				<path style="fill:#455A64;" d="M240.169,394.697c-0.005,1.128-1.073,2.038-2.387,2.032c-1.313-0.006-2.374-0.926-2.37-2.055
					c0.005-1.128,1.074-2.038,2.387-2.032S240.174,393.567,240.169,394.697z"/>
			</g>
			<g>
				<path style="fill:#455A64;" d="M247.539,394.73c-0.004,1.128-1.073,2.039-2.387,2.032c-1.313-0.006-2.374-0.925-2.37-2.054
					c0.005-1.128,1.074-2.038,2.387-2.032C246.482,392.681,247.544,393.601,247.539,394.73z"/>
			</g>
		</g>
	</g>
	<path style="fill:#EBEBEB;" d="M199.517,240.1c1.878,0.268,115.185,22.491,115.185,22.491V240.1H199.517z"/>
	<path style="fill:#EBEBEB;" d="M163.869,382.895c0,0,123.256-17.438,122.183-16.901c-1.073,0.537-122.183,0-122.183,0V382.895z"/>
	<g>
		<path style="fill:#263238;" d="M307.009,52.905c0.144,0,0.26,6.232,0.26,13.917c0,7.688-0.117,13.918-0.26,13.918
			s-0.26-6.23-0.26-13.918C306.748,59.137,306.865,52.905,307.009,52.905z"/>
	</g>
	<g>
		<path style="fill:#263238;" d="M356.33,84.935c0.058,0.132-5.596,2.754-12.627,5.857c-7.033,3.104-12.78,5.513-12.838,5.381
			c-0.058-0.132,5.595-2.754,12.628-5.858C350.524,87.213,356.272,84.804,356.33,84.935z"/>
	</g>
	<g>
		<path style="fill:#263238;" d="M355.084,36.363c0.015,0.009-0.077,0.193-0.268,0.533c-0.224,0.386-0.507,0.874-0.855,1.475
			c-0.747,1.278-1.865,3.105-3.262,5.353c-2.8,4.493-6.83,10.598-11.394,17.257c-4.565,6.661-8.639,12.726-11.516,17.165
			c-1.407,2.178-2.559,3.961-3.4,5.261c-0.382,0.579-0.692,1.05-0.938,1.423c-0.219,0.322-0.342,0.487-0.357,0.478
			c-0.015-0.009,0.077-0.193,0.268-0.533c0.224-0.386,0.507-0.874,0.855-1.475c0.747-1.278,1.865-3.105,3.262-5.353
			c2.8-4.493,6.831-10.599,11.396-17.26c4.564-6.659,8.637-12.723,11.514-17.162c1.407-2.178,2.559-3.961,3.4-5.262
			c0.382-0.579,0.692-1.05,0.938-1.423C354.946,36.518,355.068,36.354,355.084,36.363z"/>
	</g>
</g>
<g id="Speech_Bubbles">
	<g>
		<path style="fill:#E8505B;" d="M424.226,154.092H198.782c-4.869,0-8.816,3.947-8.816,8.816v69.931
			c0,4.869,3.947,8.816,8.816,8.816h16.796c1.353,7.303,2.936,16.517,2.936,16.517l15.202-16.517h190.511
			c4.869,0,8.817-3.947,8.817-8.816v-69.931C433.042,158.039,429.095,154.092,424.226,154.092z"/>
		<g>
			<g>
				<path style="fill:#F5F5F5;" d="M331.212,192.025c0,0.144-26.832,0.26-59.924,0.26c-33.103,0-59.93-0.117-59.93-0.26
					c0-0.144,26.827-0.26,59.93-0.26C304.38,191.765,331.212,191.881,331.212,192.025z"/>
			</g>
			<g>
				<path style="fill:#F5F5F5;" d="M331.212,181.276c0,0.144-26.832,0.26-59.924,0.26c-33.103,0-59.93-0.117-59.93-0.26
					c0-0.144,26.827-0.26,59.93-0.26C304.38,181.015,331.212,181.132,331.212,181.276z"/>
			</g>
			<g>
				<path style="fill:#F5F5F5;" d="M331.212,202.656c0,0.144-26.832,0.26-59.924,0.26c-33.103,0-59.93-0.117-59.93-0.26
					c0-0.144,26.827-0.26,59.93-0.26C304.38,202.396,331.212,202.512,331.212,202.656z"/>
			</g>
			<g>
				<path style="fill:#F5F5F5;" d="M289.865,213.668c0,0.144-17.576,0.26-39.251,0.26c-21.683,0-39.255-0.117-39.255-0.26
					s17.572-0.26,39.255-0.26C272.289,213.408,289.865,213.525,289.865,213.668z"/>
			</g>
		</g>
	</g>
	<g>
		<path style="fill:#455A64;" d="M322.365,279.816H95.07c-3.407,0-6.168,2.762-6.168,6.168v73.986c0,3.407,2.762,6.168,6.168,6.168
			h165.079l15.027,16.328c0,0,1.577-9.177,2.904-16.328h44.285c3.406,0,6.168-2.762,6.168-6.168v-73.986
			C328.533,282.578,325.771,279.816,322.365,279.816z"/>
		<g>
			<g>
				<path style="fill:#F5F5F5;" d="M313.449,317.968c0,0.144-26.832,0.26-59.924,0.26c-33.103,0-59.93-0.117-59.93-0.26
					c0-0.144,26.826-0.26,59.93-0.26C286.616,317.707,313.449,317.824,313.449,317.968z"/>
			</g>
			<g>
				<path style="fill:#F5F5F5;" d="M313.449,307.219c0,0.144-26.832,0.26-59.924,0.26c-33.103,0-59.93-0.117-59.93-0.26
					s26.826-0.26,59.93-0.26C286.616,306.958,313.449,307.075,313.449,307.219z"/>
			</g>
			<g>
				<path style="fill:#F5F5F5;" d="M313.449,328.599c0,0.144-26.832,0.26-59.924,0.26c-33.103,0-59.93-0.117-59.93-0.26
					s26.826-0.26,59.93-0.26C286.616,328.339,313.449,328.455,313.449,328.599z"/>
			</g>
			<g>
				<path style="fill:#F5F5F5;" d="M272.101,339.611c0,0.144-17.576,0.26-39.251,0.26c-21.683,0-39.255-0.117-39.255-0.26
					c0-0.144,17.572-0.26,39.255-0.26C254.525,339.351,272.101,339.467,272.101,339.611z"/>
			</g>
		</g>
	</g>
</g>
<g id="Character_2">
	<g>
		<g>
			<path style="fill:#263238;" d="M367.553,124.431c0.134-1.838-1.505-4.373-3.025-5.83c-1.519-1.457-2.46-3.433-1.669-6.371
				c0.612-2.271,2.052-2.101,2.621-3.436c0.421-0.988,0.244-2.115,0.331-3.186c0.299-3.677,4.344-6.559,7.916-5.64
				c1.006-3.497,4.266-6.228,7.885-6.604c3.619-0.377,7.372,1.624,9.076,4.839c2.065-1.074,4.668-1.037,6.702,0.095
				c2.034,1.132,3.437,3.324,3.613,5.645c2.013-1.454,5.102-0.894,6.696,1.011c1.593,1.905,1.691,4.822,0.482,6.991
				c-1.209,2.169-3.555,3.581-6.01,3.958s-4.993-0.203-7.216-1.311c-2.223-1.108-4.158-2.721-5.92-4.472"/>
			<ellipse style="fill:#E0E0E0;" cx="383.903" cy="197.068" rx="43.29" ry="42.275"/>
			<g>
				<g>
					<path style="fill:#EB996E;" d="M427.37,197.104l-4.791-12.287l-17.173,10.789l15.302,23.596
						C420.707,219.203,426.932,211.118,427.37,197.104z"/>
					<g>
						<g>
							<g>
								<g>
									<g>
										<g>
											<g>
												<path style="fill:#FFBE9D;" d="M379.961,170.501L379.961,170.501c6.171,0.01,11.263-4.784,11.568-10.893
													c0.254-5.088,0.467-9.987,0.467-9.987s9.447-0.685,10.318-9.92c0.871-9.235,0.991-30.593,0.991-30.593l0,0
													c-10.422-5.47-23.012-4.924-32.907,1.429l-0.899,0.577l-1.091,47.793C368.338,165.283,373.529,170.492,379.961,170.501z
													"/>
											</g>
											<g>
												<g>
													<path style="fill:#263238;" d="M385.382,123.315c0.712,0.234,1.099,0.997,0.862,1.702
														c-0.236,0.706-1.005,1.088-1.718,0.854c-0.712-0.234-1.098-0.997-0.862-1.702
														C383.9,123.463,384.669,123.081,385.382,123.315z"/>
												</g>
												<g>
													<g>
														<path style="fill:#263238;" d="M387.97,123.795c-0.156,0.152-1.031-0.603-2.317-0.685
															c-1.285-0.101-2.26,0.521-2.392,0.348c-0.065-0.077,0.098-0.357,0.524-0.64c0.418-0.282,1.122-0.535,1.924-0.478
															c0.801,0.057,1.462,0.408,1.835,0.746C387.925,123.428,388.046,123.729,387.97,123.795z"/>
													</g>
												</g>
											</g>
											<g>
												<g>
													<path style="fill:#263238;" d="M399.481,123.315c0.712,0.234,1.099,0.997,0.862,1.702
														c-0.236,0.706-1.005,1.088-1.718,0.854c-0.712-0.234-1.098-0.997-0.862-1.702
														C397.999,123.463,398.768,123.081,399.481,123.315z"/>
												</g>
												<g>
													<g>
														<path style="fill:#263238;" d="M402.242,123.824c-0.156,0.152-1.031-0.603-2.317-0.685
															c-1.285-0.101-2.26,0.521-2.392,0.349c-0.065-0.077,0.098-0.357,0.524-0.64c0.418-0.282,1.122-0.535,1.924-0.478
															c0.801,0.057,1.461,0.408,1.835,0.746C402.196,123.456,402.317,123.757,402.242,123.824z"/>
													</g>
												</g>
											</g>
											<g>
												<g>
													<path style="fill:#263238;" d="M392.539,133.81c-0.001-0.1,0.807-0.196,2.113-0.269
														c0.339-0.009,0.609-0.063,0.648-0.24c0.077-0.197-0.024-0.563-0.163-0.973c-0.262-0.869-0.527-1.748-0.804-2.669
														c-1.102-3.799-1.837-6.923-1.643-6.978c0.195-0.055,1.245,2.979,2.348,6.778c0.258,0.926,0.505,1.811,0.749,2.685
														c0.092,0.395,0.289,0.864,0.07,1.399c-0.115,0.268-0.396,0.445-0.623,0.485c-0.228,0.049-0.418,0.034-0.579,0.028
														C393.348,133.997,392.539,133.91,392.539,133.81z"/>
												</g>
											</g>
											<g>
												<path style="fill:#EB996E;" d="M392.021,149.489c0,0-5.934,0-11.88-4.406c0,0,2.33,6.885,11.706,6.803L392.021,149.489z
													"/>
											</g>
										</g>
									</g>
									<g>
										<g>
											<path style="fill:#FFBE9D;" d="M369.273,124.68c0.009-0.747-0.567-1.392-1.32-1.427
												c-1.741-0.082-4.605,0.548-4.966,5.309c-0.515,6.801,6.126,5.231,6.153,5.037
												C369.161,133.447,369.24,127.326,369.273,124.68z"/>
										</g>
										<g>
											<g>
												<path style="fill:#EB996E;" d="M367.678,130.894c-0.029-0.024-0.126,0.074-0.335,0.151
													c-0.204,0.074-0.547,0.111-0.895-0.049c-0.705-0.318-1.229-1.504-1.169-2.732c0.029-0.62,0.205-1.2,0.463-1.671
													c0.247-0.482,0.598-0.805,0.968-0.842c0.369-0.056,0.612,0.18,0.681,0.378c0.077,0.197,0.024,0.33,0.059,0.344
													c0.018,0.019,0.156-0.103,0.122-0.388c-0.018-0.137-0.087-0.304-0.238-0.446c-0.155-0.145-0.392-0.231-0.648-0.223
													c-0.532-0.003-1.045,0.444-1.329,0.961c-0.313,0.518-0.525,1.168-0.558,1.865c-0.06,1.374,0.551,2.709,1.521,3.067
													c0.473,0.161,0.887,0.047,1.107-0.098C367.654,131.057,367.701,130.908,367.678,130.894z"/>
											</g>
										</g>
									</g>
								</g>
								<g>
									<path style="fill:#263238;" d="M381.883,120.173c0.339,0.436,1.522,0.232,3.058,0.167c1.533-0.123,2.733-0.065,3.012-0.539
										c0.317-0.494-1.167-1.627-3.144-1.465C382.828,118.417,381.504,119.722,381.883,120.173z"/>
								</g>
								<g>
									<path style="fill:#263238;" d="M396.858,119.721c0.185,0.594,1.312,0.772,2.562,0.764c1.25-0.025,2.372-0.233,2.543-0.831
										c0.176-0.581-0.959-1.416-2.57-1.393C397.783,118.28,396.668,119.144,396.858,119.721z"/>
								</g>
							</g>
							<path style="fill:#263238;" d="M404.617,112.033c0,0-5.604,2.713-12.897-0.927c-4.786-2.389-10.365-3.556-11.594-2.593
								c-1.23,0.962-1.49,5.894-6.23,7.333c0,0,0.326,9.409-3.426,9.073c-3.751-0.336-1.407-14.908-1.407-14.908l9.177-4.482
								l10.015-1.892l9.436,1.33l7.301,1.999L404.617,112.033z"/>
						</g>
					</g>
					<g>
						<g>
							<path style="fill:#455A64;" d="M341.812,166.477c9.806-10.085,27.068-8.985,27.068-8.985l14.307,10.243l8.113-9.446
								c0,0,8.527,0.936,16.516,5.111l0.55,0.17l-0.007,0.114c6.276,3.408,15.163,11.582,23.629,19.514l-10.131,9.402l-11.213,9.954
								c0,0,0.044,0.072,0.019,0.199c-0.117,0.603,1.559,14.295,3.275,24.701c-10.212,9.745-23.229,13.917-37.681,11.385
								c-4.587-0.804-6.806-1.922-11.054-3.036c-6.278-1.647-10.828-7.09-11.391-13.556l0,0c-0.764-8.722-1.347-19.52-1.347-19.52"
								/>
							<g>
								<path style="fill:#263238;" d="M400.272,160.048c0.034-0.011,0.252,0.562,0.616,1.609c0.367,1.046,0.866,2.57,1.456,4.462
									c1.181,3.783,2.685,9.052,4.107,14.931c1.419,5.883,2.485,11.257,3.161,15.163c0.339,1.953,0.59,3.536,0.741,4.635
									c0.154,1.098,0.221,1.707,0.186,1.713c-0.035,0.006-0.171-0.592-0.386-1.679c-0.23-1.172-0.535-2.723-0.903-4.601
									c-0.768-3.883-1.889-9.236-3.305-15.108c-1.419-5.869-2.865-11.143-3.954-14.949c-0.529-1.839-0.966-3.359-1.296-4.507
									C400.39,160.654,400.238,160.059,400.272,160.048z"/>
							</g>
							<g>
								<path style="fill:#263238;" d="M409.484,196.101c-0.091-0.111,4.187-3.747,9.553-8.119c5.368-4.374,9.792-7.828,9.883-7.716
									c0.091,0.111-4.186,3.746-9.555,8.12C414,192.757,409.575,196.212,409.484,196.101z"/>
							</g>
							<path style="opacity:0.2;" d="M354.757,180.32l-8.778,28.874l3.266,1.699l3.221-8.166
								C352.466,202.727,355.775,185.572,354.757,180.32z"/>
							<g style="opacity:0.2;">
								<path d="M399.321,160.066c4.731,2.495-7.127,8.497-12.483,8.335l3.889-10.262
									C390.727,158.139,397.733,159.229,399.321,160.066z"/>
							</g>
						</g>
						<path style="fill:#455A64;" d="M367.468,158.139v-7.646c0,0,14.935,3.843,15.476,12.779c0,0,1.9-9.877,9.594-10.351
							l1.087,13.894l-8.953,7.791h-9.076l-7.189-6.201l-0.939-9.648"/>
						<g>
							<path style="fill:#263238;" d="M386.306,206.132c-0.036-0.002-0.043-0.588-0.026-1.645c0.022-1.056,0.041-2.585,0.046-4.473
								c0.013-3.776-0.105-8.993-0.579-14.733c-0.48-5.741-1.225-10.907-1.861-14.629c-0.319-1.792-0.583-3.275-0.784-4.404
								c-0.191-1.039-0.281-1.618-0.246-1.626c0.035-0.008,0.191,0.556,0.444,1.584c0.257,1.027,0.584,2.523,0.948,4.38
								c0.73,3.714,1.535,8.89,2.017,14.652c0.475,5.76,0.536,10.998,0.428,14.781c-0.052,1.892-0.128,3.422-0.212,4.477
								C386.402,205.552,386.341,206.134,386.306,206.132z"/>
						</g>
						<g>
							<path style="fill:#263238;" d="M382.258,160.7c-0.006,0.044-0.339-0.129-0.886,0.082c-0.571,0.184-1.081,0.895-1.499,1.909
								c-0.917,1.988-2.051,4.852-2.841,8.262l-0.079,0.341l-0.301-0.182c-0.893-0.539-1.808-1.122-2.729-1.747
								c-1.785-1.215-3.417-2.453-4.842-3.679c-0.717-0.616-1.309-1.364-1.648-2.158c-0.336-0.795-0.466-1.59-0.503-2.306
								c-0.058-1.439,0.178-2.573,0.332-3.344c0.167-0.772,0.294-1.19,0.327-1.183c0.037,0.007-0.023,0.44-0.128,1.218
								c-0.093,0.775-0.267,1.908-0.164,3.285c0.058,0.685,0.205,1.429,0.53,2.154c0.332,0.724,0.87,1.386,1.571,1.974
								c1.412,1.18,3.052,2.408,4.818,3.609c0.913,0.62,1.819,1.201,2.701,1.742l-0.38,0.159c0.824-3.449,2.034-6.325,3.039-8.289
								c0.247-0.49,0.487-0.944,0.785-1.287c0.293-0.348,0.648-0.56,0.953-0.646C381.948,160.437,382.282,160.692,382.258,160.7z"/>
						</g>
						<g>
							<path style="fill:#263238;" d="M392.539,152.921c0.036-0.001,0.082,0.424,0.14,1.194c0.064,0.877,0.144,1.965,0.239,3.254
								c0.112,1.371,0.278,3,0.559,4.794c0.109,0.885,0.421,1.847,0.179,2.935c-0.309,1.069-1.113,1.866-1.964,2.509
								c-1.196,0.889-2.447,1.554-3.286,2.496l-0.398,0.446l-0.039-0.595c-0.208-3.158-1.262-5.757-2.206-7.447
								c-0.949-1.703-1.732-2.579-1.67-2.629c0.021-0.018,0.234,0.183,0.589,0.59c0.353,0.409,0.836,1.035,1.354,1.88
								c1.037,1.675,2.186,4.318,2.432,7.572l-0.437-0.149c0.914-1.038,2.206-1.725,3.347-2.579
								c0.813-0.606,1.531-1.357,1.784-2.221c0.213-0.876-0.051-1.831-0.16-2.738c-0.257-1.814-0.386-3.459-0.452-4.84
								c-0.065-1.381-0.077-2.499-0.074-3.271C392.481,153.349,392.503,152.922,392.539,152.921z"/>
						</g>
					</g>
				</g>
				<g>
					<g>
						<path style="fill:#263238;" d="M440.607,154.839c-0.607,0.715-22.593,30.114-22.593,30.114l3.095,1.754l22.562-29.025
							L440.607,154.839z"/>
						<path style="fill:#FFBE9D;" d="M352.284,178.083c0,0,23.129,33.294,24.523,33.949c2.745,1.288,34.388-26.056,37.405-28.672
							c0.415-0.555,1.274-1.728,2.96-4.06c0,0,2.496-11.424,5.161-10.546c2.664,0.878-1.46,5.805,0.275,10.145
							c1.735,4.34,9.681-6.012,9.999-6.941l2.049-2.677c0,0,2.149,6.093,2.003,8.637c-0.466,8.15-8.177,17.843-8.177,17.843
							s-34.63,42.898-58.35,44.229c-6.832,0.383-18.973-19.002-27.09-33.538c-4.902-8.778-2.456-19.837,5.668-25.761
							L352.284,178.083z"/>
						<g>
							<path style="fill:#EB996E;" d="M432.767,179.365c-0.077-0.047,0.664-1.357,1.482-3.016c0.823-1.658,1.414-3.04,1.499-3.008
								c0.077,0.028-0.388,1.473-1.218,3.147C433.703,178.163,432.836,179.409,432.767,179.365z"/>
						</g>
					</g>
					<g>
						<path style="fill:#455A64;" d="M348.368,161.835c0,0-24.826,8.826-6.368,50.574l28.659-17.297l-4.077-9.762L348.368,161.835z"
							/>
						<g>
							<path style="fill:#263238;" d="M346.466,162.557c0,0,1.083-0.179,2.989,0.251c0.94,0.242,2.07,0.658,3.256,1.374
								c1.187,0.711,2.419,1.711,3.617,2.967c2.409,2.511,4.658,6.016,6.743,10.075c2.1,4.059,4.06,8.682,6.069,13.54
								c0.602,1.455,1.195,2.889,1.757,4.248l0.089,0.215l-0.204,0.111c-8.292,4.52-15.512,8.753-20.615,11.921
								c-2.553,1.581-4.587,2.88-5.983,3.783c-0.667,0.428-1.201,0.771-1.608,1.033c-0.369,0.232-0.567,0.347-0.576,0.333
								c-0.01-0.014,0.17-0.155,0.521-0.414c0.353-0.256,0.873-0.637,1.558-1.109c1.365-0.953,3.371-2.298,5.904-3.92
								c5.06-3.25,12.259-7.542,20.552-12.081l-0.115,0.326c-0.563-1.358-1.158-2.792-1.761-4.247
								c-2.009-4.856-3.95-9.472-6.015-13.52c-2.051-4.049-4.246-7.537-6.584-10.041c-1.162-1.253-2.355-2.253-3.502-2.972
								c-1.146-0.725-2.24-1.158-3.155-1.426C347.551,162.521,346.461,162.629,346.466,162.557z"/>
						</g>
					</g>
				</g>
			</g>
			<g>
				<path style="fill:#455A64;" d="M399.871,100.661c0.018-0.004,0.059,0.145,0.123,0.436c0.047,0.292,0.108,0.73,0.072,1.296
					c-0.055,1.11-0.459,2.829-1.893,4.329c-1.387,1.503-4.024,2.452-6.682,1.687c-1.302-0.38-2.616-1.173-3.421-2.48
					c-0.391-0.647-0.625-1.452-0.512-2.258c0.108-0.789,0.506-1.589,1.228-2.064c0.722-0.489,1.67-0.475,2.401-0.154
					c0.741,0.315,1.354,0.919,1.641,1.649c0.586,1.468,0.154,3.054-0.656,4.156c-1.723,2.28-4.834,2.464-6.557,1.425
					c-0.911-0.418-1.714-0.812-2.47-0.948c-0.753-0.154-1.421-0.023-1.911,0.201c-0.981,0.472-1.377,0.994-1.423,0.937
					c-0.013-0.012,0.087-0.13,0.293-0.344c0.102-0.108,0.227-0.243,0.408-0.368c0.172-0.135,0.373-0.29,0.636-0.409
					c0.502-0.267,1.232-0.443,2.045-0.305c0.816,0.118,1.662,0.507,2.568,0.897c0.456,0.185,0.933,0.386,1.443,0.477
					c0.499,0.086,1.059,0.076,1.611-0.03c1.102-0.198,2.232-0.803,2.97-1.819c0.723-0.994,1.082-2.441,0.572-3.676
					c-0.447-1.207-2.128-2.024-3.285-1.256c-0.565,0.367-0.908,1.03-1,1.697c-0.095,0.672,0.094,1.35,0.437,1.928
					c0.704,1.162,1.912,1.919,3.118,2.281c2.47,0.736,4.951-0.105,6.285-1.486c1.388-1.383,1.84-3.015,1.953-4.086
					C399.982,101.28,399.813,100.668,399.871,100.661z"/>
			</g>
			<g>
				<path style="fill:#263238;" d="M394.464,138.371c0.011,0.063-0.307,0.195-0.857,0.218c-0.546,0.026-1.32-0.096-2.076-0.475
					c-0.755-0.382-1.313-0.932-1.618-1.386c-0.308-0.456-0.392-0.79-0.334-0.818c0.131-0.079,0.797,1.06,2.186,1.739
					C393.138,138.361,394.45,138.218,394.464,138.371z"/>
			</g>
			<g>
				<path style="fill:#263238;" d="M368.24,133.95c0.046-0.043,0.327,0.44-0.036,1.128c-0.177,0.322-0.512,0.67-1.02,0.809
					c-0.51,0.143-1.117-0.025-1.552-0.407c-0.439-0.379-0.683-0.943-0.658-1.452c0.016-0.507,0.229-0.918,0.456-1.197
					c0.48-0.565,0.969-0.617,0.977-0.561c0.037,0.075-0.353,0.252-0.678,0.776c-0.336,0.495-0.467,1.449,0.245,2.041
					c0.328,0.285,0.751,0.409,1.101,0.333c0.355-0.071,0.644-0.305,0.818-0.538C368.256,134.395,368.158,133.961,368.24,133.95z"/>
			</g>
			<g>
				<path style="fill:#455A64;" d="M401.517,104.03c0.047-0.024,0.416,0.64,0.481,1.837c0.075,1.172-0.266,2.915-1.484,4.328
					c-1.227,1.407-2.904,1.99-4.075,2.082c-1.194,0.105-1.903-0.166-1.886-0.216c0.012-0.089,0.727,0.043,1.837-0.149
					c1.095-0.178,2.613-0.776,3.73-2.059c1.11-1.288,1.488-2.875,1.509-3.984C401.662,104.743,401.431,104.054,401.517,104.03z"/>
			</g>
		</g>
		<g>
			<path style="fill:#E0E0E0;" d="M367.7,187.699c0.064,0.129-6.53,3.519-14.726,7.572c-8.199,4.054-14.895,7.235-14.958,7.106
				c-0.064-0.129,6.529-3.519,14.728-7.573C360.939,190.751,367.636,187.57,367.7,187.699z"/>
		</g>
		<g>
			<path style="fill:#E0E0E0;" d="M361.69,176.357c0.068,0.127-5.802,3.409-13.109,7.331c-7.309,3.923-13.288,6.999-13.356,6.873
				c-0.068-0.127,5.8-3.409,13.11-7.332C355.642,179.308,361.622,176.231,361.69,176.357z"/>
		</g>
		<g>
			<path style="fill:#E0E0E0;" d="M355.885,167.186c0.034,0.066-1.097,0.714-2.936,1.737c-1.966,1.097-4.441,2.478-7.179,4.005
				c-2.724,1.553-5.187,2.958-7.143,4.073c-1.827,1.044-2.967,1.677-3.006,1.614c-0.037-0.06,1.035-0.803,2.816-1.93
				c1.781-1.127,4.275-2.63,7.076-4.211c2.801-1.579,5.378-2.936,7.263-3.877C354.662,167.656,355.853,167.124,355.885,167.186z"/>
		</g>
		<g>
			<path style="fill:#E0E0E0;" d="M377.845,165.017c-0.013,0.06-0.783-0.041-1.931-0.52c-1.149-0.469-2.635-1.372-4.044-2.632
				c-1.41-1.26-2.502-2.571-3.261-3.532c-0.756-0.966-1.182-1.593-1.128-1.638c0.057-0.047,0.585,0.499,1.409,1.4
				c0.828,0.896,1.951,2.152,3.327,3.381c1.375,1.229,2.775,2.146,3.853,2.687C377.144,164.713,377.868,164.938,377.845,165.017z"/>
		</g>
		<g>
			<path style="fill:#E0E0E0;" d="M392.433,159.601c0.127,0.037-0.479,1.664-2.077,2.997c-1.586,1.348-3.293,1.667-3.308,1.536
				c-0.05-0.149,1.488-0.668,2.972-1.935C391.521,160.954,392.294,159.526,392.433,159.601z"/>
		</g>
		<g>
			<path style="fill:#E0E0E0;" d="M418.436,174.65c0.002,0.018-0.19,0.053-0.557,0.104c-0.425,0.052-0.957,0.118-1.608,0.198
				c-1.399,0.155-3.426,0.35-5.934,0.545c-5.016,0.4-11.956,0.792-19.626,1.071c-7.673,0.268-14.624,0.372-19.656,0.331
				c-2.516-0.016-4.551-0.066-5.957-0.12c-0.655-0.034-1.191-0.061-1.618-0.083c-0.37-0.025-0.564-0.046-0.563-0.064
				c0.001-0.018,0.195-0.031,0.566-0.041c0.428-0.004,0.963-0.009,1.619-0.015c1.478-0.011,3.494-0.027,5.953-0.045
				c5.026-0.053,11.97-0.215,19.638-0.483c7.665-0.279,14.602-0.613,19.619-0.918c2.454-0.157,4.466-0.285,5.941-0.379
				c0.655-0.041,1.189-0.074,1.616-0.101C418.238,174.632,418.434,174.632,418.436,174.65z"/>
		</g>
		<g>
			<path style="fill:#E0E0E0;" d="M410.539,186.507c0.004,0.036-0.581,0.126-1.643,0.259c-1.062,0.132-2.601,0.299-4.506,0.469
				c-3.809,0.351-9.083,0.714-14.914,0.951c-5.834,0.234-11.12,0.298-14.945,0.255c-1.913-0.017-3.46-0.058-4.529-0.105
				c-1.069-0.047-1.659-0.09-1.659-0.126c0.001-0.036,0.592-0.061,1.661-0.077c1.158-0.016,2.683-0.036,4.525-0.061
				c3.821-0.052,9.098-0.174,14.925-0.407c5.825-0.237,11.094-0.541,14.906-0.798c1.839-0.124,3.36-0.226,4.516-0.304
				C409.943,186.494,410.535,186.472,410.539,186.507z"/>
		</g>
		<g>
			<path style="fill:#E0E0E0;" d="M392.614,201.134c0.006,0.07-1.259,0.256-3.314,0.467c-2.055,0.212-4.901,0.439-8.049,0.597
				c-3.15,0.156-6.004,0.212-8.07,0.206c-2.066-0.006-3.344-0.066-3.344-0.136c-0.001-0.074,1.275-0.144,3.337-0.232
				c2.21-0.098,4.984-0.221,8.052-0.357c3.066-0.169,5.838-0.322,8.046-0.444C391.33,201.117,392.607,201.06,392.614,201.134z"/>
		</g>
		<g>
			<path style="fill:#E0E0E0;" d="M369.698,166.427c-0.004,0.149-3.071,0.182-6.846,0.34c-3.777,0.152-6.836,0.371-6.852,0.222
				c-0.016-0.137,3.034-0.59,6.831-0.743C366.626,166.088,369.703,166.289,369.698,166.427z"/>
		</g>
		<g>
			<path style="fill:#E0E0E0;" d="M411.885,165.887c-0.001,0.144-3.979,0.245-8.886,0.227c-4.908-0.019-8.885-0.15-8.885-0.294
				c0.001-0.144,3.979-0.245,8.887-0.227C407.908,165.611,411.885,165.743,411.885,165.887z"/>
		</g>
		<g>
			<path style="fill:#E0E0E0;" d="M413.421,226.737c0.015,0.033-0.31,0.217-0.911,0.523c-0.599,0.311-1.488,0.718-2.601,1.185
				c-2.225,0.936-5.387,2.041-8.983,2.872c-3.598,0.826-6.925,1.217-9.335,1.35c-1.205,0.068-2.182,0.09-2.857,0.073
				c-0.675-0.012-1.048-0.036-1.048-0.072c-0.001-0.083,1.487-0.141,3.877-0.369c2.389-0.226,5.679-0.671,9.247-1.49
				c3.565-0.825,6.717-1.865,8.964-2.708C412.022,227.261,413.385,226.661,413.421,226.737z"/>
		</g>
	</g>
</g>
<g id="Character_1">
	<g>
		<ellipse style="fill:#E0E0E0;" cx="143.294" cy="321.55" rx="43.29" ry="41.296"/>
		<g>
			<path style="fill:#263238;" d="M134.474,221.982c-6.868,0.358-9.564,7.517-10.385,9.115c-0.821,1.598-0.95,3.449-1.1,5.239
				c-0.151,1.79-0.363,3.649-1.318,5.172c-1.512,2.412-4.687,3.659-5.553,6.372c-0.979,3.067,1.533,6.348,0.864,9.497
				c-0.359,1.69-1.593,3.081-2.03,4.754c-0.455,1.746,0.019,3.633,0.927,5.192c2.256,3.874,6.931,5.82,11.412,5.98
				c4.48,0.16,8.863-1.18,13.145-2.506"/>
			<path style="fill:#263238;" d="M164.694,230.88c-0.672,1.454-0.037,3.219,1.017,4.425c1.054,1.206,2.47,2.025,3.717,3.029
				c1.247,1.004,2.393,2.329,2.538,3.924c0.133,1.464-0.603,2.917-0.403,4.374c0.513,3.744,6.483,4.867,6.801,8.632
				c0.212,2.507-2.361,4.81-1.648,7.223c0.273,0.925,0.989,1.641,1.487,2.467c1.694,2.813,0.545,6.694-1.91,8.875
				c-2.455,2.181-5.868,2.95-9.148,3.097c-2.759,0.124-5.893-0.327-7.517-2.56c-1.487-2.043-1.182-4.83-0.885-7.339
				c1.387-11.718,1.151-23.561,0.913-35.358"/>
			<g>
				<g>
					<g>
						<g>
							<g>
								<path style="fill:#FFBE9D;" d="M136.278,285.111c0.052-6.157-0.005-12.639-0.005-12.639s-7.916-1.409-9.439-11.775
									c-1.453-9.886,1.011-31.15,1.011-31.15l0,0c11.468-4.523,24.381-2.773,32.415,6.457l0,0L159.01,286
									c-0.145,5.804-5.251,10.302-11.464,10.099h0C141.27,295.894,136.228,290.977,136.278,285.111z"/>
							</g>
							<g>
								<g>
									<path style="fill:#263238;" d="M130,245.874c-0.033,0.701,0.533,1.306,1.264,1.354c0.73,0.048,1.349-0.48,1.382-1.181
										c0.033-0.7-0.533-1.307-1.263-1.355C130.652,244.645,130.033,245.174,130,245.874z"/>
								</g>
								<g>
									<g>
										<path style="fill:#263238;" d="M127.865,244.848c0.162,0.175,1.177-0.557,2.605-0.537c2.687,0.389,2.638,0.8,2.623,0.573
											c0.077-0.077-0.087-0.391-0.54-0.728c-0.445-0.336-1.208-0.667-2.097-0.673c-0.89-0.005-1.642,0.313-2.075,0.644
											C127.937,244.458,127.785,244.77,127.865,244.848z"/>
									</g>
								</g>
							</g>
							<g>
								<g>
									<path style="fill:#263238;" d="M144.615,246.296c-0.033,0.701,0.533,1.306,1.264,1.354c0.73,0.048,1.349-0.48,1.382-1.181
										c0.033-0.7-0.533-1.307-1.263-1.355C145.268,245.066,144.648,245.595,144.615,246.296z"/>
								</g>
								<g>
									<g>
										<path style="fill:#263238;" d="M142.759,245.341c0.163,0.175,1.178-0.557,2.605-0.537c1.427,0,2.466,0.747,2.623,0.573
											c0.077-0.077-0.086-0.391-0.54-0.728c-0.445-0.336-1.208-0.667-2.097-0.673c-0.89-0.005-1.642,0.313-2.076,0.644
											C142.833,244.952,142.68,245.263,142.759,245.341z"/>
									</g>
								</g>
							</g>
							<g>
								<g>
									<path style="fill:#263238;" d="M137.454,255.585c0.008-0.081-0.878-0.245-2.315-0.445
										c-0.364-0.042-0.708-0.118-0.767-0.368c-0.083-0.264,0.074-0.656,0.256-1.078c0.353-0.879,0.723-1.799,1.111-2.764
										c1.543-3.936,2.665-7.174,2.506-7.235c-0.159-0.061-1.539,3.08-3.082,7.016c-0.372,0.971-0.727,1.896-1.065,2.781
										c-0.143,0.413-0.386,0.88-0.206,1.429c0.095,0.274,0.36,0.475,0.593,0.54c0.233,0.074,0.438,0.08,0.618,0.093
										C136.55,255.649,137.448,255.666,137.454,255.585z"/>
								</g>
							</g>
							<g>
								<path style="fill:#EB996E;" d="M136.273,272.472c0,0,6.956,0.529,13.9-3.536c0,0-3.444,7.069-13.789,5.981L136.273,272.472z
									"/>
							</g>
							<g>
								<path style="fill:#EB996E;" d="M138.018,259.034c0.521-0.673,1.425-1.035,2.318-0.929c0.619,0.074,1.242,0.38,1.612,0.889
									c0.371,0.509,0.441,1.226,0.094,1.703c-0.392,0.537-1.198,0.653-1.878,0.452c-0.679-0.202-1.261-0.657-1.813-1.111
									c-0.153-0.125-0.309-0.256-0.403-0.427c-0.094-0.171-0.112-0.393,0.008-0.532"/>
							</g>
							<g>
								<g>
									<path style="fill:#263238;" d="M141.646,256.622c-0.232-0.016-0.253,1.534-1.592,2.619
										c-1.337,1.089-2.988,0.895-3.002,1.112c-0.023,0.097,0.364,0.305,1.062,0.332c0.684,0.031,1.685-0.177,2.505-0.84
										c0.817-0.665,1.176-1.561,1.236-2.197C141.92,257,141.752,256.614,141.646,256.622z"/>
								</g>
							</g>
						</g>
						<g>
							<path style="fill:#263238;" d="M155.765,228.619c-3.786,5.4-13.81,10.952-20.988,12.241c0.838-1.103,5.247-3.821,6.085-4.925
								c-3.254,2.43-7.91,5.68-12.227,5.9c-0.51,0.026-1.063,0.025-1.484-0.231c-0.572-0.349-0.689-1.026-0.755-1.626
								c-0.279-2.53-0.104-6.867,0.299-9.377c0.402-2.51,1.556-5.008,3.734-6.691c2.766-2.136,6.724-2.664,10.453-2.753
								c3.128-0.075,6.352,0.11,9.211,1.239c2.859,1.129,5.304,3.359,5.723,6.041"/>
						</g>
						<g>
							<path style="fill:#263238;" d="M166.62,252.81c0.521-2.678,0.937-5.22,1.034-6.917c0.305-5.34-1.237-25.049-19.648-23.463
								l-0.743,5.607c0,0-2.845,19.194,9.064,19.336c0,0,0.658,5.718,6.051,11.281C162.378,258.655,165.501,258.56,166.62,252.81"/>
						</g>
						<g>
							<path style="fill:#FFBE9D;" d="M156.327,247.373c1.109-0.201,2.278-0.157,3.328,0.252c1.05,0.409,1.969,1.204,2.412,2.24
								c0.445,1.039,0.385,2.25-0.01,3.308c-0.395,1.059-1.104,1.977-1.917,2.761c-0.584,0.563-1.247,1.076-2.024,1.31
								c-0.777,0.234-1.687,0.147-2.301-0.384"/>
						</g>
						<g>
							<g>
								<path style="fill:#EB996E;" d="M156.861,254.088c-0.127,0.04,0.346,0.715,1.361,0.454c0.488-0.123,0.969-0.545,1.263-1.077
									c0.296-0.54,0.491-1.134,0.572-1.83c0.078-0.69-0.071-1.426-0.445-1.953c-0.357-0.537-0.946-0.859-1.444-0.875
									c-1.04-0.035-1.371,0.682-1.253,0.704c0.082,0.085,0.49-0.282,1.17-0.11c0.651,0.127,1.282,1.034,1.128,2.15
									c-0.137,1.137-0.586,2.174-1.195,2.427C157.383,254.292,156.931,253.997,156.861,254.088z"/>
							</g>
						</g>
					</g>
				</g>
			</g>
			<path style="fill:#263238;" d="M158.336,226.595c1.409,0.804,3.136,1.031,4.704,0.618c1.569-0.412,2.961-1.459,3.792-2.851
				c0.537-0.899,0.845-1.989,0.582-3.002c-0.36-1.385-1.707-2.321-3.092-2.681c-2.01-0.523-4.287-0.022-5.805,1.394
				c-1.519,1.416-2.173,3.733-1.499,5.697c0.674,1.964,2.702,3.414,4.775,3.295"/>
			<path style="fill:#263238;" d="M160.015,256.445c-1.025,0.739-2.061,1.49-2.862,2.468c-0.801,0.978-1.351,2.224-1.235,3.482
				c0.065,0.704,0.334,1.399,0.232,2.099c-0.14,0.962-0.93,1.674-1.451,2.495c-1.347,2.122-0.768,5.101,0.935,6.949
				c1.703,1.849,4.29,2.683,6.803,2.765c1.457,0.048,2.987-0.157,4.181-0.993c1.722-1.205,2.384-3.464,2.428-5.566"/>
			<g>
				<path style="fill:#455A64;" d="M161.265,230.725c0.054,0.032-0.311,0.784-1.085,1.887c-0.771,1.103-1.984,2.535-3.546,3.881
					c-1.566,1.343-3.165,2.327-4.371,2.923c-1.207,0.599-2.005,0.847-2.029,0.789c-0.075-0.151,2.999-1.45,6.06-4.107
					C159.38,233.473,161.127,230.628,161.265,230.725z"/>
			</g>
			<g>
				<path style="fill:#455A64;" d="M163.175,230.624c0.057,0.006,0.02,0.986-0.339,2.523c-0.355,1.535-1.096,3.615-2.339,5.689
					c-1.25,2.071-2.741,3.7-3.931,4.732c-1.191,1.038-2.038,1.529-2.071,1.482c-0.123-0.129,3.127-2.388,5.556-6.483
					C162.529,234.506,163.003,230.575,163.175,230.624z"/>
			</g>
			<g>
				<path style="fill:#455A64;" d="M123.201,238.958c0.153-0.011,0.35,1.722,0.948,3.767c0.584,2.05,1.341,3.621,1.205,3.693
					c-0.114,0.071-1.101-1.434-1.706-3.549C123.033,240.758,123.067,238.959,123.201,238.958z"/>
			</g>
			<g>
				<path style="fill:#455A64;" d="M167.305,274.337c0.027-0.063,0.464,0.467,1.523,0.489c0.513,0.005,1.16-0.143,1.762-0.555
					c0.6-0.405,1.092-1.132,1.334-2.021c0.242-0.894,0.247-1.935,0.019-3.014c-0.216-1.085-0.637-2.208-1.008-3.432
					c-0.361-1.219-0.676-2.59-0.444-4.03c0.23-1.466,1.18-2.654,1.643-3.97c0.472-1.314,0.282-2.769-0.296-3.946
					c-0.592-1.193-1.587-2.06-2.741-2.505c-0.573-0.245-1.165-0.451-1.716-0.751c-0.547-0.294-1.058-0.703-1.369-1.227
					c-0.641-1.054-0.616-2.199-0.619-3.146c0.018-0.969,0.07-1.817-0.103-2.543c-0.155-0.726-0.426-1.32-0.75-1.722
					c-0.672-0.824-1.383-0.766-1.349-0.834c-0.001-0.009,0.154-0.033,0.436,0.033c0.281,0.061,0.693,0.253,1.067,0.669
					c0.374,0.413,0.689,1.031,0.88,1.788c0.21,0.761,0.182,1.665,0.187,2.608c0.02,0.937,0.042,2.021,0.615,2.913
					c0.56,0.918,1.724,1.299,2.907,1.767c1.22,0.45,2.375,1.425,3.011,2.719c0.638,1.281,0.855,2.883,0.331,4.346
					c-0.52,1.434-1.433,2.577-1.632,3.883c-0.22,1.303,0.059,2.612,0.402,3.809c0.35,1.204,0.764,2.351,0.971,3.485
					c0.219,1.129,0.196,2.244-0.089,3.198c-0.285,0.953-0.844,1.735-1.527,2.161c-0.676,0.427-1.379,0.552-1.93,0.515
					c-0.558-0.032-0.961-0.23-1.197-0.392C167.384,274.473,167.305,274.337,167.305,274.337z"/>
			</g>
			<g>
				<path style="fill:#455A64;" d="M160.086,273.634c0.046-0.029,0.131,0.321,0.616,0.541c0.436,0.211,1.409,0.225,1.94-0.526
					c0.541-0.756,0.457-2.029-0.162-3.13c-0.57-1.131-1.703-2.237-1.992-3.889c-0.153-0.798,0.038-1.707,0.557-2.307
					c0.488-0.603,1.064-1.006,1.438-1.499c0.754-0.997,0.818-2.246,0.696-3.193c-0.128-0.971-0.406-1.737-0.573-2.269
					c-0.176-0.532-0.265-0.832-0.231-0.845c0.032-0.013,0.185,0.259,0.42,0.772c0.226,0.515,0.564,1.271,0.748,2.288
					c0.171,0.995,0.171,2.356-0.678,3.537c-0.425,0.573-1.007,0.995-1.42,1.525c-0.427,0.514-0.567,1.2-0.444,1.907
					c0.235,1.437,1.299,2.528,1.904,3.752c0.647,1.205,0.733,2.671,0.034,3.568c-0.338,0.46-0.851,0.651-1.269,0.694
					c-0.428,0.042-0.802-0.049-1.062-0.205C160.074,274.029,160.067,273.619,160.086,273.634z"/>
			</g>
			<g>
				<path style="fill:#455A64;" d="M120.887,271.021c-0.026,0.022-0.321-0.26-0.814-0.813c-0.478-0.559-1.206-1.379-1.745-2.629
					c-0.266-0.624-0.44-1.372-0.42-2.183c0.018-0.803,0.257-1.706,0.881-2.423c0.62-0.719,1.519-1.09,2.061-1.764
					c0.56-0.666,0.631-1.644,0.414-2.573c-0.216-0.947-0.652-1.796-1.097-2.643c-0.431-0.85-0.827-1.714-0.972-2.624
					c-0.16-0.903,0.04-1.852,0.515-2.525c0.461-0.682,1.039-1.148,1.524-1.588c1.009-0.829,1.58-1.733,1.707-2.436
					c0.14-0.703-0.101-1.088-0.043-1.102c0.012-0.006,0.079,0.077,0.151,0.264c0.074,0.185,0.139,0.487,0.092,0.87
					c-0.067,0.772-0.659,1.797-1.658,2.676c-0.472,0.458-1.017,0.934-1.411,1.553c-0.404,0.611-0.554,1.398-0.404,2.212
					c0.142,0.816,0.522,1.636,0.953,2.469c0.441,0.824,0.92,1.738,1.151,2.761c0.241,1.001,0.171,2.192-0.526,3.01
					c-0.68,0.799-1.574,1.145-2.097,1.759c-0.541,0.599-0.775,1.388-0.81,2.122c-0.036,0.74,0.102,1.435,0.33,2.029
					c0.464,1.199,1.133,2.046,1.56,2.637C120.672,270.668,120.916,270.997,120.887,271.021z"/>
			</g>
			<g>
				<path style="fill:#E8505B;" d="M162.59,227.902c-0.141,0.072-0.837-1.46-2.438-2.648c-1.58-1.218-3.243-1.47-3.212-1.626
					c-0.021-0.133,1.811-0.103,3.526,1.21C162.197,226.132,162.724,227.886,162.59,227.902z"/>
			</g>
			<g>
				<path style="fill:#455A64;" d="M164.035,218.327c0.052-0.033,0.387,0.358,0.658,1.135c0.272,0.765,0.427,1.944,0.088,3.173
					c-0.34,1.229-1.079,2.161-1.705,2.678c-0.63,0.527-1.119,0.691-1.146,0.636c-0.042-0.07,0.367-0.343,0.893-0.903
					c0.525-0.553,1.148-1.436,1.456-2.549c0.307-1.114,0.226-2.191,0.059-2.935C164.174,218.811,163.963,218.366,164.035,218.327z"
					/>
			</g>
		</g>
		<path style="opacity:0.3;" d="M113.254,341.343c0,0,24.845,23.593,39.614,19.321c14.769-4.272,19.14-15.351,19.14-15.351
			l0.358-3.969l-1.48-0.968l-56.86-4.604L113.254,341.343z"/>
		<g>
			<g>
				<path style="fill:#EB996E;" d="M98.555,319.243l4.791-12.287l17.173,10.789l-15.302,23.597
					C105.218,341.343,98.993,333.258,98.555,319.243z"/>
				<g>
					<g>
						<path style="fill:#E8505B;" d="M117.935,285.296c7.99-4.174,18.338-5.377,18.338-5.377l0,0
							c3.004,6.012,12.469,6.775,18.2,2.672l4.833-3.267c0,0,0.748-0.03,2.025,0.083c11.305,1,20.558,9.443,22.863,20.555
							c0.839,4.045,1.456,8.688,1.208,12.992c-0.628,10.924-11.942,11.912-11.942,11.912s-0.582,10.798-1.346,19.52l0,0.001
							c-0.568,6.517-3.949,11.385-9.895,14.112c-4.425,2.03-6.867,2.969-12.613,3.888c-14.489,2.317-28.406-3.183-37.583-13.013
							c1.716-10.406,3.356-23.878,3.239-24.481c-0.025-0.127,0.019-0.199,0.019-0.199l-11.213-9.954l-6.355-5.337
							C97.712,309.403,111.659,288.704,117.935,285.296"/>
					</g>
				</g>
			</g>
			<g>
				<path style="fill:#FAFAFA;" d="M131.829,292.028c-0.042,0.103-0.957-0.768-2.772-0.767c-0.878,0.003-1.966,0.257-2.859,0.992
					c-0.445,0.358-0.824,0.863-1.273,1.367c-0.439,0.493-1.008,1.056-1.815,1.204c-0.807,0.152-1.554-0.204-2.112-0.566
					c-0.576-0.368-1.069-0.772-1.575-1.062c-0.989-0.606-2.114-0.549-2.934-0.256c-0.835,0.293-1.389,0.794-1.705,1.176
					c-0.315,0.389-0.429,0.654-0.472,0.636c-0.023-0.007,0.026-0.303,0.308-0.755c0.283-0.443,0.84-1.033,1.738-1.401
					c0.868-0.368,2.162-0.482,3.3,0.182c0.558,0.306,1.064,0.71,1.609,1.048c0.538,0.34,1.143,0.602,1.749,0.486
					c0.606-0.106,1.098-0.556,1.528-1.033c0.437-0.477,0.837-1,1.352-1.4c1.023-0.802,2.222-1.029,3.165-0.985
					c0.957,0.044,1.694,0.338,2.142,0.611C131.656,291.783,131.845,292.01,131.829,292.028z"/>
			</g>
			<g>
				<path style="fill:#FAFAFA;" d="M143.223,306.957c-0.073,0.084-0.661-1.034-2.382-1.612c-0.833-0.278-1.945-0.385-3.026,0.026
					c-0.536,0.197-1.056,0.555-1.643,0.889c-0.574,0.327-1.293,0.678-2.104,0.561c-0.813-0.114-1.407-0.69-1.821-1.211
					c-0.428-0.533-0.766-1.073-1.152-1.51c-0.743-0.89-1.828-1.195-2.698-1.18c-0.885,0.011-1.57,0.308-1.991,0.57
					c-0.422,0.268-0.616,0.483-0.651,0.452c-0.02-0.014,0.121-0.278,0.534-0.617c0.41-0.329,1.127-0.711,2.094-0.772
					c0.94-0.072,2.202,0.234,3.069,1.227c0.431,0.468,0.782,1.013,1.19,1.507c0.402,0.494,0.89,0.936,1.503,1.019
					c0.608,0.093,1.218-0.176,1.778-0.491c0.566-0.313,1.112-0.681,1.728-0.895c1.226-0.433,2.434-0.266,3.314,0.077
					c0.893,0.347,1.498,0.862,1.835,1.264C143.137,306.669,143.245,306.944,143.223,306.957z"/>
			</g>
			<g>
				<path style="fill:#FAFAFA;" d="M168.531,285.097c-0.02,0.109-1.098-0.548-2.872-0.163c-0.857,0.189-1.867,0.667-2.584,1.575
					c-0.359,0.444-0.622,1.018-0.955,1.606c-0.325,0.575-0.762,1.245-1.519,1.561c-0.757,0.319-1.562,0.129-2.184-0.106
					c-0.641-0.237-1.208-0.528-1.764-0.705c-1.094-0.383-2.182-0.089-2.921,0.371c-0.754,0.463-1.19,1.07-1.417,1.51
					c-0.225,0.447-0.281,0.73-0.327,0.721c-0.024-0.002-0.038-0.301,0.141-0.803c0.183-0.493,0.603-1.188,1.402-1.737
					c0.77-0.544,2.011-0.928,3.264-0.521c0.61,0.181,1.191,0.468,1.795,0.683c0.598,0.218,1.244,0.347,1.812,0.104
					c0.569-0.232,0.955-0.776,1.275-1.333c0.326-0.559,0.606-1.155,1.025-1.655c0.83-1,1.954-1.477,2.885-1.633
					c0.945-0.16,1.727-0.029,2.223,0.144C168.31,284.893,168.543,285.075,168.531,285.097z"/>
			</g>
			<g>
				<path style="fill:#FAFAFA;" d="M156.853,301.504c-0.074,0.069-0.5-0.798-1.796-1.287c-0.627-0.235-1.47-0.349-2.301-0.072
					c-0.411,0.132-0.821,0.388-1.288,0.628c-0.455,0.233-1.034,0.488-1.679,0.365c-0.646-0.121-1.094-0.601-1.397-1.02
					c-0.314-0.43-0.553-0.858-0.831-1.204c-0.528-0.7-1.333-0.971-1.997-0.996c-1.385-0.041-2.025,0.743-2.071,0.653
					c-0.021-0.017,0.092-0.222,0.42-0.477c0.326-0.247,0.896-0.526,1.654-0.545c0.735-0.029,1.718,0.252,2.365,1.06
					c0.32,0.38,0.574,0.812,0.869,1.203c0.291,0.391,0.641,0.733,1.087,0.814c0.919,0.161,1.763-0.666,2.723-0.94
					c0.976-0.293,1.913-0.115,2.584,0.188C156.586,300.516,156.905,301.515,156.853,301.504z"/>
			</g>
			<g>
				<path style="fill:#FAFAFA;" d="M131.097,315.325c-0.073,0.069-0.5-0.798-1.796-1.287c-0.627-0.235-1.47-0.349-2.301-0.072
					c-0.41,0.132-0.821,0.388-1.288,0.628c-0.455,0.233-1.034,0.488-1.679,0.365c-0.646-0.121-1.094-0.601-1.397-1.02
					c-0.314-0.43-0.553-0.857-0.831-1.204c-0.528-0.7-1.334-0.971-1.997-0.996c-1.385-0.041-2.025,0.743-2.071,0.653
					c-0.021-0.017,0.092-0.222,0.42-0.477c0.326-0.247,0.896-0.526,1.654-0.545c0.735-0.029,1.718,0.252,2.365,1.06
					c0.32,0.38,0.574,0.812,0.869,1.203c0.291,0.391,0.641,0.733,1.087,0.814c0.92,0.161,1.763-0.666,2.723-0.94
					c0.976-0.293,1.913-0.115,2.584,0.188C130.83,314.337,131.15,315.336,131.097,315.325z"/>
			</g>
			<g>
				<path style="fill:#FAFAFA;" d="M155.174,315.636c-0.047,0.089-0.732-0.593-2.115-0.636c-0.669-0.02-1.504,0.146-2.2,0.677
					c-0.346,0.257-0.652,0.633-1.015,1.011c-0.355,0.368-0.821,0.796-1.47,0.889c-0.65,0.094-1.23-0.215-1.652-0.513
					c-0.436-0.305-0.801-0.632-1.176-0.87c-0.726-0.491-1.576-0.488-2.211-0.296c-1.324,0.409-1.676,1.358-1.748,1.288
					c-0.025-0.009,0.015-0.239,0.243-0.587c0.229-0.34,0.678-0.787,1.389-1.051c0.687-0.265,1.707-0.317,2.581,0.238
					c0.426,0.255,0.806,0.582,1.212,0.857c0.402,0.276,0.844,0.487,1.292,0.419c0.922-0.145,1.453-1.201,2.272-1.771
					c0.829-0.593,1.773-0.727,2.506-0.658C154.601,314.788,155.227,315.63,155.174,315.636z"/>
			</g>
			<g>
				<path style="fill:#FAFAFA;" d="M147.221,326.619c-0.047,0.089-0.732-0.593-2.115-0.636c-0.669-0.02-1.504,0.145-2.2,0.677
					c-0.346,0.257-0.652,0.633-1.015,1.011c-0.355,0.368-0.821,0.796-1.47,0.889c-0.65,0.094-1.23-0.215-1.652-0.513
					c-0.436-0.305-0.801-0.632-1.176-0.87c-0.726-0.491-1.576-0.488-2.211-0.296c-1.324,0.409-1.676,1.359-1.748,1.288
					c-0.025-0.009,0.015-0.239,0.243-0.587c0.229-0.34,0.678-0.787,1.389-1.051c0.687-0.265,1.707-0.317,2.581,0.238
					c0.426,0.255,0.806,0.582,1.212,0.857c0.402,0.276,0.844,0.486,1.292,0.418c0.922-0.145,1.453-1.201,2.272-1.771
					c0.829-0.593,1.773-0.727,2.506-0.658C146.648,325.771,147.274,326.612,147.221,326.619z"/>
			</g>
			<g>
				<path style="fill:#FAFAFA;" d="M130.426,353.879c-0.073,0.07-0.512-0.791-1.814-1.261c-0.63-0.226-1.475-0.328-2.302-0.039
					c-0.409,0.137-0.816,0.4-1.279,0.646c-0.452,0.24-1.027,0.503-1.674,0.389c-0.648-0.112-1.103-0.586-1.411-1
					c-0.32-0.426-0.566-0.85-0.849-1.192c-0.538-0.692-1.347-0.953-2.01-0.967c-1.385-0.022-2.014,0.772-2.062,0.682
					c-0.021-0.017,0.089-0.223,0.413-0.483c0.323-0.252,0.889-0.538,1.646-0.568c0.735-0.039,1.721,0.228,2.38,1.027
					c0.326,0.375,0.585,0.804,0.886,1.19c0.297,0.387,0.651,0.724,1.099,0.799c0.922,0.148,1.754-0.691,2.71-0.978
					c0.972-0.307,1.911-0.142,2.586,0.152C130.145,352.896,130.479,353.89,130.426,353.879z"/>
			</g>
			<g>
				<path style="fill:#FAFAFA;" d="M150.078,359.678c-0.049,0.088-0.723-0.603-2.106-0.666c-0.669-0.029-1.506,0.125-2.21,0.646
					c-0.35,0.253-0.66,0.624-1.029,0.997c-0.36,0.363-0.832,0.785-1.482,0.869c-0.652,0.085-1.227-0.232-1.644-0.536
					c-0.432-0.311-0.792-0.643-1.164-0.886c-0.719-0.501-1.569-0.509-2.207-0.327c-1.329,0.391-1.694,1.335-1.766,1.264
					c-0.025-0.01,0.018-0.239,0.252-0.583c0.233-0.337,0.689-0.778,1.403-1.031c0.69-0.256,1.711-0.294,2.577,0.273
					c0.423,0.261,0.798,0.594,1.2,0.874c0.398,0.282,0.837,0.498,1.286,0.436c0.924-0.132,1.47-1.18,2.297-1.739
					c0.837-0.582,1.783-0.703,2.515-0.623C149.517,358.822,150.131,359.672,150.078,359.678z"/>
			</g>
			<g>
				<g>
					<g>
						<path style="fill:#263238;" d="M85.318,276.979c0.607,0.715,22.593,30.114,22.593,30.114l-3.095,1.754l-22.562-29.025
							L85.318,276.979z"/>
						<path style="fill:#FFBE9D;" d="M171.134,297.954c0,0-20.622,35.562-22.016,36.217c-2.745,1.288-34.388-26.056-37.405-28.672
							c-0.416-0.555-1.274-1.728-2.96-4.06c0,0-2.496-11.424-5.161-10.546c-2.664,0.878,1.46,5.805-0.275,10.146
							c-1.735,4.34-9.681-6.012-10-6.941l-2.049-2.678c0,0-2.149,6.093-2.003,8.637c0.466,8.15,8.177,17.843,8.177,17.843
							s31.334,39.264,55.055,40.595c6.832,0.383,19.882-19.285,27.999-33.822c4.902-8.778,2.627-17.696-5.497-23.619
							L171.134,297.954z"/>
						<g>
							<path style="fill:#EB996E;" d="M93.158,301.504c-0.069,0.045-0.936-1.202-1.762-2.877c-0.831-1.674-1.296-3.119-1.218-3.147
								c0.084-0.032,0.675,1.35,1.498,3.008C92.494,300.148,93.235,301.457,93.158,301.504z"/>
						</g>
					</g>
				</g>
				<path style="fill:#E8505B;" d="M170.164,288.061c-0.815,0.489-19.991,36.089-19.991,36.089l24.684,19.335
					c0,0,6.421-15.818,9.808-28.678c0.919-3.49,0.445-12.817-0.852-16.415c-1.844-5.113-4.625-3.84-8.789-6.835L170.164,288.061z"/>
				<g style="opacity:0.7;">
					<path d="M178.273,288.061c-0.015,0.022-0.242-0.137-0.704-0.369c-0.455-0.233-1.196-0.515-2.17-0.456
						c-0.973,0.032-2.118,0.505-3.221,1.345c-1.108,0.84-2.19,2.029-3.213,3.461c-1.043,1.422-1.904,3.155-2.957,4.963
						c-1.034,1.816-2.137,3.754-3.297,5.791c-2.335,4.078-4.896,8.553-7.586,13.252c-1.641,2.852-3.234,5.622-4.732,8.226
						l-0.064-0.324c6.686,5.284,12.505,9.883,16.701,13.198c2.034,1.633,3.672,2.948,4.846,3.89c0.531,0.439,0.957,0.79,1.285,1.06
						c0.289,0.245,0.436,0.379,0.426,0.391c-0.009,0.012-0.174-0.098-0.481-0.32c-0.341-0.253-0.784-0.582-1.337-0.993
						c-1.196-0.914-2.865-2.19-4.938-3.773c-4.224-3.28-10.082-7.828-16.814-13.055l-0.173-0.134l0.109-0.19
						c1.493-2.606,3.082-5.377,4.718-8.231c2.702-4.69,5.275-9.157,7.62-13.228c1.174-2.028,2.291-3.957,3.339-5.766
						c1.063-1.787,1.958-3.539,3.038-4.972c1.058-1.44,2.18-2.636,3.338-3.479c1.151-0.843,2.363-1.312,3.386-1.314
						c1.023-0.029,1.78,0.298,2.227,0.565c0.237,0.117,0.387,0.257,0.5,0.33C178.226,288.009,178.278,288.054,178.273,288.061z"/>
				</g>
			</g>
			<g>
				<path style="fill:#FAFAFA;" d="M170.903,321.442c-0.074,0.069-0.5-0.798-1.796-1.287c-0.627-0.235-1.47-0.349-2.301-0.072
					c-0.41,0.132-0.821,0.388-1.288,0.628c-0.455,0.233-1.034,0.488-1.679,0.365c-0.646-0.121-1.095-0.601-1.397-1.02
					c-0.314-0.43-0.553-0.858-0.831-1.204c-0.528-0.7-1.333-0.971-1.996-0.996c-1.385-0.041-2.025,0.743-2.071,0.653
					c-0.021-0.017,0.092-0.222,0.42-0.477c0.326-0.247,0.896-0.526,1.654-0.545c0.735-0.029,1.718,0.252,2.365,1.06
					c0.32,0.38,0.574,0.812,0.869,1.203c0.291,0.391,0.641,0.733,1.087,0.814c0.92,0.161,1.763-0.666,2.723-0.94
					c0.976-0.293,1.913-0.114,2.584,0.188C170.635,320.454,170.955,321.453,170.903,321.442z"/>
			</g>
			<g>
				<path style="fill:#FAFAFA;" d="M182.185,316.837c-0.089,0.046-0.267-0.904-1.382-1.723c-0.54-0.396-1.321-0.733-2.196-0.69
					c-0.431,0.016-0.896,0.152-1.409,0.257c-0.501,0.102-1.128,0.191-1.715-0.101c-0.589-0.291-0.892-0.874-1.07-1.359
					c-0.186-0.499-0.302-0.975-0.476-1.384c-0.32-0.816-1.022-1.295-1.654-1.497c-1.322-0.413-2.15,0.169-2.171,0.07
					c-0.015-0.022,0.148-0.189,0.533-0.346c0.381-0.15,1.005-0.264,1.74-0.078c0.716,0.171,1.586,0.706,1.991,1.659
					c0.206,0.452,0.334,0.937,0.512,1.393c0.175,0.455,0.419,0.879,0.827,1.077c0.842,0.403,1.878-0.165,2.876-0.17
					c1.019-0.019,1.873,0.406,2.437,0.878C182.194,315.814,182.232,316.862,182.185,316.837z"/>
			</g>
			<g>
				<path style="fill:#FAFAFA;" d="M182.764,302.121c-0.089,0.046-0.267-0.904-1.382-1.723c-0.54-0.396-1.321-0.733-2.196-0.69
					c-0.431,0.016-0.896,0.152-1.409,0.257c-0.501,0.102-1.128,0.191-1.715-0.101c-0.589-0.291-0.892-0.874-1.07-1.359
					c-0.186-0.499-0.302-0.975-0.476-1.384c-0.32-0.816-1.022-1.295-1.654-1.497c-1.322-0.413-2.15,0.169-2.171,0.07
					c-0.016-0.022,0.148-0.189,0.533-0.346c0.381-0.15,1.005-0.264,1.74-0.078c0.716,0.171,1.586,0.706,1.991,1.659
					c0.206,0.452,0.333,0.937,0.512,1.393c0.175,0.455,0.42,0.879,0.827,1.077c0.842,0.403,1.878-0.165,2.876-0.17
					c1.019-0.019,1.873,0.406,2.437,0.878C182.774,301.098,182.812,302.147,182.764,302.121z"/>
			</g>
			<g>
				<path style="fill:#FAFAFA;" d="M177.303,335.952c-0.089,0.046-0.266-0.904-1.382-1.723c-0.54-0.396-1.321-0.732-2.196-0.69
					c-0.431,0.016-0.896,0.152-1.409,0.257c-0.501,0.102-1.128,0.191-1.715-0.101c-0.589-0.291-0.892-0.874-1.07-1.359
					c-0.186-0.499-0.302-0.975-0.476-1.384c-0.32-0.816-1.022-1.295-1.654-1.497c-1.323-0.413-2.15,0.169-2.171,0.07
					c-0.016-0.022,0.148-0.189,0.533-0.346c0.381-0.15,1.005-0.264,1.74-0.078c0.716,0.171,1.586,0.706,1.991,1.659
					c0.206,0.452,0.334,0.937,0.513,1.393c0.175,0.455,0.419,0.879,0.827,1.077c0.842,0.403,1.878-0.165,2.876-0.171
					c1.019-0.019,1.873,0.406,2.437,0.878C177.312,334.929,177.35,335.977,177.303,335.952z"/>
			</g>
		</g>
	</g>
</g>
</svg>
