<?xml version="1.0" encoding="utf-8"?>
<!-- Generator: Adobe Illustrator 27.5.0, SVG Export Plug-In . SVG Version: 6.00 Build 0)  -->
<svg version="1.1" xmlns="http://www.w3.org/2000/svg" xmlns:xlink="http://www.w3.org/1999/xlink" x="0px" y="0px"
	 viewBox="0 0 500 500" style="enable-background:new 0 0 500 500;" xml:space="preserve">
<g id="Background_Complete">
	<g>
		<g>
			<g>
				<g>
					<rect x="377.088" y="63.359" style="fill:#E0E0E0;" width="91.49" height="132.611"/>
				</g>
			</g>
		</g>
		<g>
			<g>
				<g>
					<rect x="372.505" y="63.359" style="fill:#EBEBEB;" width="91.49" height="132.611"/>
				</g>
			</g>
		</g>
		<g>
			<g>
				<g>
					<g>
						<rect x="383.871" y="77.721" style="fill:#FFFFFF;" width="68.756" height="103.885"/>
					</g>
				</g>
			</g>
			<g>
				<g>
					<g>
						<g>
							<path style="fill:#E0E0E0;" d="M452.628,181.607c0,0-0.009-0.176-0.013-0.508c-0.003-0.343-0.008-0.833-0.013-1.473
								c-0.006-1.305-0.016-3.217-0.028-5.698c-0.014-4.979-0.035-12.234-0.061-21.4c-0.027-18.318-0.066-44.259-0.112-74.806
								l0.228,0.228c-21.006,0.006-44.283,0.013-68.748,0.021h-0.008l0.249-0.249c-0.019,39.19-0.037,75.323-0.05,103.885
								l-0.198-0.198c20.939,0.044,38.102,0.079,50.045,0.104c5.974,0.022,10.64,0.039,13.826,0.05
								c1.584,0.01,2.797,0.017,3.629,0.022C452.194,181.593,452.628,181.607,452.628,181.607s-0.405,0.014-1.213,0.021
								c-0.824,0.005-2.025,0.012-3.592,0.022c-3.176,0.012-7.827,0.029-13.782,0.05c-11.973,0.025-29.178,0.061-50.169,0.104
								l-0.198,0l0-0.199c-0.014-28.562-0.031-64.696-0.051-103.885l0-0.249h0.249h0.008c24.465,0.007,47.741,0.014,68.748,0.021
								l0.229,0l0,0.228c-0.046,30.609-0.085,56.601-0.112,74.956c-0.026,9.143-0.047,16.381-0.061,21.348
								c-0.012,2.462-0.021,4.357-0.028,5.652c-0.006,0.63-0.01,1.11-0.013,1.447C452.636,181.449,452.628,181.607,452.628,181.607z
								"/>
						</g>
					</g>
				</g>
			</g>
		</g>
		<g>
			<g>
				<g>
					<g>
						<path style="fill:none;stroke:#FBFBFB;stroke-width:0.25;stroke-miterlimit:10;" d="M449.44,78.414"/>
					</g>
				</g>
			</g>
		</g>
		<g>
			<g>
				<g>
					<g>
						<path style="fill:#E0E0E0;" d="M464.251,63.359c0.053,0.041-0.568,0.948-1.631,2.369c-1.063,1.421-2.571,3.354-4.293,5.445
							c-1.722,2.091-3.331,3.942-4.522,5.257c-1.191,1.315-1.962,2.099-2.013,2.054c-0.053-0.046,0.624-0.911,1.746-2.284
							c1.227-1.488,2.736-3.319,4.405-5.344c1.667-2.026,3.175-3.857,4.401-5.346C463.477,64.146,464.196,63.316,464.251,63.359z"/>
					</g>
				</g>
			</g>
		</g>
		<g>
			<g>
				<g>
					<g>
						<path style="fill:#FFFFFF;" d="M452.978,181.272c3.415,5.43,7.446,10.472,11.992,14.998"/>
					</g>
				</g>
			</g>
			<g>
				<g>
					<g>
						<g>
							<path style="fill:#E0E0E0;" d="M464.97,196.27c-0.045,0.046-0.861-0.663-2.091-1.902c-1.229-1.238-2.858-3.021-4.524-5.102
								c-1.664-2.083-3.045-4.064-3.983-5.536c-0.939-1.472-1.45-2.424-1.395-2.458c0.062-0.039,0.678,0.846,1.687,2.261
								c1.008,1.416,2.426,3.352,4.08,5.423c1.655,2.068,3.232,3.877,4.391,5.172C464.294,195.423,465.021,196.218,464.97,196.27z"
								/>
						</g>
					</g>
				</g>
			</g>
		</g>
		<g>
			<g>
				<g>
					<g>
						<path style="fill:#FFFFFF;" d="M372.491,195.865c3.995-4.928,7.989-9.857,11.984-14.786"/>
					</g>
				</g>
			</g>
			<g>
				<g>
					<g>
						<g>
							<path style="fill:#E0E0E0;" d="M384.475,181.079c0.107,0.087-2.49,3.467-5.798,7.549c-3.31,4.084-6.079,7.323-6.185,7.236
								c-0.107-0.087,2.489-3.466,5.799-7.55C381.599,184.232,384.368,180.992,384.475,181.079z"/>
						</g>
					</g>
				</g>
			</g>
		</g>
		<g>
			<g>
				<g>
					<g>
						<path style="fill:#E0E0E0;" d="M372.505,63.359c0.108-0.085,2.712,3.028,5.816,6.953c3.105,3.926,5.535,7.177,5.427,7.263
							c-0.108,0.085-2.712-3.028-5.817-6.954C374.826,66.696,372.397,63.444,372.505,63.359z"/>
					</g>
				</g>
			</g>
		</g>
		<g>
			<g>
				<g>
					<rect x="408.184" y="98.814" style="fill:#E0E0E0;" width="23.022" height="65.367"/>
				</g>
			</g>
		</g>
	</g>
	<g>
		<g>
			<g>
				<g>
					<polygon style="fill:#E0E0E0;" points="315.171,35.391 315.171,105.709 214.176,105.709 210.537,35.883 					"/>
				</g>
			</g>
		</g>
		<g>
			<g>
				<g>
					
						<rect x="226.196" y="20.224" transform="matrix(6.123234e-17 -1 1 6.123234e-17 190.313 331.7572)" style="fill:#EBEBEB;" width="69.678" height="100.995"/>
				</g>
			</g>
			<g>
				<g>
					<path style="fill:#E0E0E0;" d="M312.012,106.04H210.058V35.404h101.954V106.04z M211.017,105.082h100.037v-68.72H211.017
						V105.082z"/>
				</g>
			</g>
		</g>
		<g>
			<g>
				<g>
					<g>
						<rect x="221.476" y="44.54" style="fill:#FFFFFF;" width="79.118" height="52.364"/>
					</g>
				</g>
			</g>
			<g>
				<g>
					<g>
						<g>
							<path style="fill:#E0E0E0;" d="M300.594,44.54c0,0-0.136,0.009-0.39,0.014c-0.268,0.003-0.64,0.008-1.125,0.014
								c-1.003,0.006-2.458,0.016-4.345,0.028c-3.8,0.014-9.326,0.035-16.304,0.062c-13.952,0.028-33.701,0.067-56.954,0.113
								l0.229-0.229c0.006,15.999,0.013,33.726,0.021,52.358v0.006l-0.249-0.249c29.846,0.019,57.362,0.037,79.118,0.051
								l-0.199,0.199c0.044-15.935,0.08-29.001,0.105-38.099c0.022-4.547,0.039-8.1,0.051-10.535
								c0.01-1.203,0.017-2.127,0.022-2.768C300.58,44.873,300.594,44.54,300.594,44.54s0.014,0.305,0.021,0.919
								c0.005,0.633,0.013,1.544,0.022,2.731c0.012,2.425,0.029,5.963,0.051,10.491c0.025,9.128,0.061,22.236,0.104,38.223
								l0.001,0.199l-0.199,0c-21.756,0.014-49.273,0.032-79.118,0.051l-0.25,0v-0.25v-0.006
								c0.007-18.632,0.014-36.359,0.021-52.358l0-0.229l0.229,0c23.314,0.046,43.115,0.085,57.104,0.113
								c6.956,0.026,12.464,0.047,16.252,0.062c1.868,0.012,3.307,0.021,4.299,0.028c0.474,0.006,0.837,0.01,1.099,0.014
								C300.476,44.531,300.594,44.54,300.594,44.54z"/>
						</g>
					</g>
				</g>
			</g>
		</g>
		<g>
			<g>
				<g>
					<g>
						<path style="fill:#E0E0E0;" d="M210.537,35.688c0.042-0.054,0.703,0.379,1.736,1.125c1.033,0.746,2.44,1.804,3.959,3.02
							c1.519,1.216,2.856,2.366,3.796,3.228c0.941,0.862,1.491,1.429,1.446,1.48c-0.094,0.106-2.522-1.897-5.555-4.319
							C212.886,37.802,210.449,35.801,210.537,35.688z"/>
					</g>
				</g>
			</g>
		</g>
		<g>
			<g>
				<g>
					<g>
						<path style="fill:#E0E0E0;" d="M311.533,35.883c0.086,0.108-2.294,2.134-5.314,4.524c-3.021,2.391-5.539,4.241-5.624,4.133
							c-0.086-0.108,2.293-2.133,5.315-4.524C308.929,37.625,311.447,35.775,311.533,35.883z"/>
					</g>
				</g>
			</g>
		</g>
		<g>
			<g>
				<g>
					<g>
						<path style="fill:#FFFFFF;" d="M311.453,105.571c-3.753-3.042-7.507-6.084-11.26-9.127"/>
					</g>
				</g>
			</g>
			<g>
				<g>
					<g>
						<g>
							<path style="fill:#E0E0E0;" d="M300.192,96.444c0.087-0.107,2.678,1.849,5.787,4.369c3.11,2.521,5.56,4.65,5.473,4.757
								c-0.087,0.107-2.677-1.849-5.788-4.37C302.556,98.682,300.106,96.551,300.192,96.444z"/>
						</g>
					</g>
				</g>
			</g>
		</g>
		<g>
			<g>
				<g>
					<g>
						<path style="fill:#E0E0E0;" d="M210.537,105.561c-0.085-0.108,2.269-2.113,5.258-4.477c2.99-2.365,5.483-4.194,5.568-4.086
							c0.085,0.108-2.269,2.112-5.259,4.477C213.116,103.84,210.623,105.669,210.537,105.561z"/>
					</g>
				</g>
			</g>
		</g>
		<g>
			<g>
				<g>
					
						<rect x="253.665" y="44.73" transform="matrix(6.123234e-17 -1 1 6.123234e-17 192.8103 332.0528)" style="fill:#E0E0E0;" width="17.534" height="49.783"/>
				</g>
			</g>
		</g>
	</g>
	<g>
		<g>
			<g>
				<g>
					<rect x="52.894" y="39.006" style="fill:#E0E0E0;" width="112.901" height="186.884"/>
				</g>
			</g>
		</g>
		<g>
			<g>
				<g>
					<rect x="49.139" y="39.006" style="fill:#EBEBEB;" width="112.901" height="186.884"/>
				</g>
			</g>
		</g>
		<g>
			<g>
				<g>
					<rect x="53.947" y="42.796" style="fill:#FFFFFF;" width="103.286" height="179.304"/>
				</g>
			</g>
		</g>
		<g>
			<g>
				<g>
					<g>
						<rect x="73.61" y="66.095" style="fill:#EBEBEB;" width="63.512" height="132.706"/>
					</g>
				</g>
			</g>
			<g>
				<g>
					<g>
						<path style="fill:#E0E0E0;" d="M73.61,151.841c-0.147-12.396,10.999-24.498,23.275-26.229
							c5.854-0.825,12.073,0.336,17.543-1.906c9.763-4.003,12.869-16.975,22.695-20.822l0.448,95.918H73.61V151.841z"/>
					</g>
				</g>
			</g>
		</g>
	</g>
</g>
<g id="Background_Simple" style="display:none;">
	<g style="display:inline;">
		<g>
			<path style="fill:#F5F5F5;" d="M384.089,77.273l-1.847-3.044c-15.57-25.658-43.72-41.124-73.4-39.247
				c-3.815,0.241-7.614,0.758-11.362,1.56c-26.985,5.776-50.465,26.183-60.198,52.317c-5.724,15.37-7.323,33.067-18.185,45.267
				c-14.136,15.878-38.136,16.377-59.237,15.719s-45.117-0.097-59.184,15.844c-8.81,9.983-11.61,24.18-10.9,37.55
				c1.881,35.397,26.546,67.047,57.913,82.778c31.368,15.732,68.299,17.141,102.63,10.22c48.092-9.695,93.827-36.318,121.318-77.439
				C399.127,177.678,406.085,121.655,384.089,77.273z"/>
		</g>
	</g>
	<g style="display:inline;">
		<g>
			
				<ellipse transform="matrix(0.7071 -0.7071 0.7071 0.7071 -54.3295 85.4286)" style="fill:#F5F5F5;" cx="75.957" cy="108.296" rx="22.959" ry="22.959"/>
		</g>
	</g>
	<g style="display:inline;">
		<g>
			
				<ellipse transform="matrix(0.7071 -0.7071 0.7071 0.7071 3.0348 360.9071)" style="fill:#F5F5F5;" cx="437.171" cy="176.79" rx="22.959" ry="22.959"/>
		</g>
	</g>
</g>
<g id="Floor">
	<g>
		<g>
			<g>
				<path style="fill:#263238;" d="M470.329,441.275c0,0.144-98.652,0.26-220.318,0.26c-121.708,0-220.339-0.117-220.339-0.26
					s98.631-0.26,220.339-0.26C371.676,441.015,470.329,441.132,470.329,441.275z"/>
			</g>
		</g>
	</g>
</g>
<g id="Plant">
	<g>
		<g>
			<g>
				<path style="fill:#455A64;" d="M447.806,218.076c-11.63,6.024-20.548,16.397-26.961,27.817
					c-6.413,11.421-10.546,23.952-14.639,36.394l-3.582,64.165c13.532-23.022,24.394-50.085,27.329-76.628
					c-3.002-0.267-6.004-0.535-9.005-0.802c6.038-0.922,11.106-5.297,14.331-10.484c3.225-5.187,4.885-11.169,6.505-17.058
					c-3.662,0.544-7.325,1.089-10.987,1.633C439.4,237.371,445.637,228.19,447.806,218.076z"/>
			</g>
		</g>
		<g style="opacity:0.3;">
			<g>
				<g>
					<path d="M447.806,218.076c-11.63,6.024-20.548,16.397-26.961,27.817c-6.413,11.421-10.546,23.952-14.639,36.394l-3.582,64.165
						c13.532-23.022,24.394-50.085,27.329-76.628c-3.002-0.267-6.004-0.535-9.005-0.802c6.038-0.922,11.106-5.297,14.331-10.484
						c3.225-5.187,4.885-11.169,6.505-17.058c-3.662,0.544-7.325,1.089-10.987,1.633C439.4,237.371,445.637,228.19,447.806,218.076z
						"/>
				</g>
			</g>
		</g>
		<g>
			<g>
				<path style="fill:#455A64;" d="M400.621,361.487c0,0-29.372-35.156-29.033-68.718h11.865c0,0-12.888-8.475-11.868-13.221
					c1.02-4.746,1.359-22.713,1.359-22.713l10.848,2.712c0,0-8.136-4.068-9.153-10.509c-1.017-6.441,2.373-36.273,2.373-36.273
					s13.221,13.899,17.289,28.137c4.068,14.238,14.746,30.849,11.611,74.242S400.621,361.487,400.621,361.487z"/>
			</g>
		</g>
		<g>
			<g>
				<path style="fill:#455A64;" d="M415.512,364.806c0,0,31.822-21.199,38.892-48.255l-9.539-2.596c0,0,12.216-3.994,12.434-8.033
					c0.219-4.039,3.877-18.558,3.877-18.558l-9.315-0.193c0,0,7.431-1.491,9.658-6.447c2.227-4.956,6.028-29.682,6.028-29.682
					s-13.67,8.282-20.056,18.839c-6.386,10.557-18.605,21.576-25.578,57.148C414.941,362.601,415.512,364.806,415.512,364.806z"/>
			</g>
		</g>
		<g>
			<g>
				<g>
					<path style="fill:#263238;" d="M385.036,243.417c0.009-0.002,0.044,0.122,0.104,0.365c0.063,0.269,0.147,0.627,0.254,1.082
						c0.219,0.983,0.531,2.383,0.929,4.173c0.406,1.811,0.879,4.033,1.392,6.619c0.522,2.585,1.13,5.525,1.725,8.79
						c1.257,6.518,2.582,14.312,3.948,22.982c1.324,8.677,2.646,18.237,3.821,28.297c1.152,10.067,2.046,19.678,2.737,28.43
						c0.648,8.754,1.135,16.645,1.399,23.278c0.166,3.315,0.244,6.317,0.326,8.952c0.091,2.635,0.137,4.905,0.155,6.761
						c0.02,1.833,0.036,3.267,0.047,4.274c0,0.467-0.001,0.835-0.001,1.111c-0.003,0.251-0.009,0.379-0.018,0.379
						c-0.009,0-0.021-0.128-0.035-0.378c-0.013-0.276-0.029-0.643-0.051-1.111c-0.034-1.006-0.083-2.44-0.145-4.271
						c-0.049-1.855-0.125-4.123-0.243-6.756c-0.109-2.633-0.213-5.633-0.402-8.945c-0.311-6.628-0.836-14.511-1.51-23.258
						c-0.717-8.743-1.625-18.347-2.775-28.407c-1.175-10.054-2.481-19.609-3.778-28.284c-1.339-8.669-2.626-16.464-3.836-22.987
						c-0.572-3.268-1.155-6.212-1.649-8.801c-0.485-2.591-0.929-4.817-1.305-6.634c-0.357-1.797-0.637-3.204-0.833-4.192
						c-0.086-0.46-0.153-0.821-0.204-1.093C385.045,243.546,385.027,243.419,385.036,243.417z"/>
				</g>
			</g>
		</g>
		<g>
			<g>
				<path style="fill:#455A64;" d="M396.547,383.016c0,0-26.879-30.498-35.225-48.935l6.301-2.692
					c-4.567,0.754-9.246-1.209-12.787-4.19c-3.541-2.981-6.142-6.901-8.692-10.764l8.3-1.402
					c-7.548-2.118-14.197-7.269-18.135-14.048c9.794,1.611,18.655,6.991,25.957,13.714c5.913,5.445,10.921,11.767,15.729,18.225
					c2.346,3.15,4.398,6.507,6.109,10.043C388.62,352.305,396.563,371.815,396.547,383.016z"/>
			</g>
		</g>
		<g>
			<g>
				<g>
					<path style="fill:#263238;" d="M454.827,268.793c0.008,0.004-0.035,0.109-0.125,0.31c-0.105,0.225-0.242,0.517-0.414,0.886
						c-0.389,0.803-0.938,1.937-1.639,3.383c-1.443,2.927-3.485,7.185-5.957,12.47c-2.48,5.281-5.332,11.617-8.397,18.695
						c-3.039,7.09-6.275,14.929-9.495,23.227c-3.201,8.309-6.081,16.288-8.602,23.579c-2.495,7.3-4.647,13.906-6.365,19.482
						c-1.727,5.573-3.08,10.097-3.982,13.233c-0.454,1.54-0.811,2.748-1.063,3.604c-0.12,0.389-0.216,0.697-0.289,0.934
						c-0.068,0.21-0.107,0.316-0.116,0.313c-0.009-0.002,0.013-0.113,0.064-0.327c0.061-0.24,0.14-0.553,0.239-0.948
						c0.23-0.863,0.555-2.08,0.969-3.632c0.842-3.154,2.142-7.696,3.825-13.286c1.674-5.593,3.791-12.216,6.263-19.53
						c2.498-7.305,5.367-15.296,8.571-23.611c3.222-8.305,6.475-16.145,9.541-23.23c3.091-7.073,5.98-13.397,8.504-18.661
						c2.516-5.268,4.609-9.504,6.109-12.404c0.738-1.427,1.316-2.546,1.726-3.34c0.192-0.359,0.344-0.644,0.461-0.862
						C454.76,268.886,454.819,268.789,454.827,268.793z"/>
				</g>
			</g>
		</g>
		<g>
			<g>
				<g>
					<path style="fill:#263238;" d="M398.827,396.084c-0.018,0.002-0.061-0.191-0.126-0.561c-0.069-0.427-0.155-0.963-0.26-1.619
						c-0.102-0.704-0.232-1.565-0.418-2.558c-0.181-0.994-0.354-2.132-0.624-3.375c-0.481-2.497-1.172-5.446-2.051-8.688
						c-0.908-3.235-2.023-6.759-3.382-10.39c-1.38-3.625-2.873-7.007-4.33-10.035c-1.483-3.015-2.915-5.685-4.203-7.876
						c-0.619-1.111-1.24-2.079-1.762-2.945c-0.517-0.868-0.988-1.6-1.377-2.196c-0.355-0.562-0.644-1.021-0.875-1.387
						c-0.195-0.32-0.291-0.494-0.276-0.504c0.015-0.01,0.139,0.143,0.362,0.445c0.252,0.352,0.569,0.793,0.957,1.334
						c0.415,0.58,0.912,1.297,1.454,2.153c0.546,0.853,1.192,1.81,1.833,2.913c1.333,2.175,2.804,4.836,4.317,7.853
						c1.486,3.029,3,6.421,4.386,10.063c1.366,3.648,2.471,7.193,3.358,10.448c0.858,3.263,1.513,6.232,1.95,8.746
						c0.248,1.251,0.396,2.396,0.55,3.397c0.159,1.001,0.26,1.867,0.331,2.577c0.066,0.662,0.12,1.203,0.163,1.634
						C398.837,395.885,398.845,396.082,398.827,396.084z"/>
				</g>
			</g>
		</g>
		<g>
			<g>
				<rect x="375.466" y="388.911" style="fill:#FF725E;" width="58.829" height="12"/>
			</g>
		</g>
		<g>
			<g>
				<polygon style="fill:#FF725E;" points="381.072,400.911 387.435,441.275 422.983,441.275 428.914,400.911 				"/>
			</g>
		</g>
		<g>
			<g>
				<g>
					<path style="fill:#263238;" d="M430.686,400.911c0,0.144-11.129,0.26-24.854,0.26c-13.73,0-24.856-0.116-24.856-0.26
						c0-0.144,11.126-0.26,24.856-0.26C419.557,400.651,430.686,400.767,430.686,400.911z"/>
				</g>
			</g>
		</g>
	</g>
</g>
<g id="Table">
	<g>
		<g>
			<g>
				<g>
					<g>
						<path style="fill:#455A64;" d="M81.995,188.23c-2.048-0.283-3.894,0.673-4.87,2.074c-0.976,1.401-1.204,3.182-1.164,4.946
							c0.035,1.55,0.296,3.203,1.344,4.615c1.246,1.678,3.467,2.756,5.608,3.055c2.141,0.298,4.207-0.096,6.05-0.759
							c0.478-2.009-0.025-4.517-0.476-6.668c-0.325-1.549-0.879-3.131-1.959-4.503C85.449,189.616,83.774,188.476,81.995,188.23z"/>
					</g>
				</g>
			</g>
			<g>
				<g>
					<g>
						<g>
							<path style="fill:#263238;" d="M126.251,183.546c0.017,0.006-0.05,0.245-0.192,0.694c-0.164,0.496-0.379,1.145-0.646,1.954
								c-0.581,1.689-1.381,4.149-2.319,7.201c-0.947,3.05-1.979,6.71-3.029,10.799c-1.025,4.095-2.054,8.621-2.967,13.406
								c-0.895,4.79-1.586,9.381-2.124,13.568c-0.512,4.191-0.885,7.975-1.115,11.161c-0.238,3.184-0.39,5.766-0.465,7.551
								c-0.046,0.851-0.082,1.534-0.11,2.055c-0.031,0.47-0.056,0.716-0.074,0.716c-0.018,0-0.028-0.248-0.031-0.719
								c0.003-0.522,0.007-1.207,0.013-2.059c0.012-1.789,0.108-4.376,0.3-7.569c0.183-3.194,0.519-6.991,1.006-11.194
								c0.513-4.2,1.192-8.805,2.088-13.607c0.915-4.797,1.961-9.331,3.014-13.429c1.078-4.091,2.149-7.749,3.142-10.79
								c0.985-3.043,1.839-5.488,2.48-7.158c0.306-0.796,0.551-1.435,0.739-1.923C126.134,183.766,126.234,183.539,126.251,183.546z
								"/>
						</g>
					</g>
				</g>
			</g>
			<g>
				<g>
					<g>
						<g>
							<path style="fill:#263238;" d="M86.233,197.788c0.015-0.009,0.148,0.182,0.387,0.556c0.262,0.422,0.601,0.968,1.022,1.647
								c0.887,1.43,2.099,3.545,3.526,6.195c1.436,2.646,3.032,5.858,4.69,9.478c1.632,3.631,3.312,7.676,4.884,11.994
								c1.553,4.327,2.849,8.512,3.915,12.348c1.04,3.844,1.866,7.334,2.454,10.287c0.597,2.95,1.017,5.35,1.25,7.017
								c0.11,0.791,0.199,1.427,0.267,1.919c0.055,0.439,0.076,0.671,0.058,0.674c-0.018,0.003-0.073-0.224-0.162-0.658
								c-0.093-0.487-0.214-1.118-0.364-1.902c-0.293-1.655-0.768-4.04-1.41-6.974c-0.633-2.936-1.494-6.409-2.556-10.235
								c-1.089-3.818-2.394-7.986-3.943-12.299c-1.567-4.305-3.228-8.343-4.831-11.975c-1.629-3.62-3.187-6.841-4.578-9.503
								c-1.382-2.666-2.543-4.804-3.375-6.264c-0.386-0.698-0.697-1.261-0.937-1.695C86.32,198.007,86.218,197.797,86.233,197.788z"
								/>
						</g>
					</g>
				</g>
			</g>
			<g>
				<g>
					<g>
						<path style="fill:#FF725E;" d="M122.332,249.198h-21.733c-0.603,0-1.092-0.489-1.092-1.092v-0.064
							c0-0.603,0.489-1.092,1.092-1.092h21.733c0.603,0,1.091,0.489,1.091,1.092v0.064
							C123.423,248.709,122.935,249.198,122.332,249.198z"/>
					</g>
				</g>
			</g>
			<g>
				<g>
					<g>
						<path style="fill:#FF725E;" d="M131.23,272.199c-0.796-8.755-7.694-9.949-9.02-10.878c-0.284-0.199-0.538-0.453-0.761-0.729
							c-0.832-1.028-1.228-2.341-1.228-3.664v-8.855h-8.29H111.2h-8.29v8.855c0,1.322-0.396,2.636-1.228,3.663
							c-0.223,0.276-0.477,0.53-0.761,0.729c-1.326,0.929-8.224,2.122-9.02,10.878c-0.796,8.755-3.714,28.653,1.459,35.02
							c4.766,5.866,9.422,6.215,17.177,6.234v0.001c0.349,0,0.691,0,1.029,0c0.338,0,0.679,0,1.029,0v-0.001
							c7.755-0.019,12.411-0.368,17.177-6.234C134.945,300.852,132.026,280.954,131.23,272.199z"/>
					</g>
				</g>
			</g>
			<g>
				<g>
					<g>
						<g>
							<path style="fill:#263238;" d="M122.873,249.264c0,0.144-5.108,0.26-11.407,0.26c-6.301,0-11.408-0.117-11.408-0.26
								s5.107-0.26,11.408-0.26C117.765,249.004,122.873,249.12,122.873,249.264z"/>
						</g>
					</g>
				</g>
			</g>
			<g>
				<g>
					<g>
						<path style="fill:#455A64;" d="M136.752,176.815c-0.781-1.986-2.859-3.254-4.974-3.537c-2.115-0.283-4.258,0.278-6.238,1.076
							c-1.74,0.702-3.475,1.652-4.512,3.215c-1.234,1.859-1.261,4.346-0.447,6.423c0.814,2.077,2.374,3.787,4.118,5.178
							c2.536-0.432,5.112-1.973,7.309-3.312c1.582-0.965,3.079-2.152,4.055-3.727C137.039,180.556,137.431,178.54,136.752,176.815z"
							/>
					</g>
				</g>
			</g>
			<g>
				<g>
					<g>
						<path style="fill:#455A64;" d="M80.91,220.286c-0.926-1.398-0.806-3.306-0.035-4.795c0.771-1.489,2.098-2.616,3.503-3.53
							c1.235-0.803,2.629-1.492,4.103-1.455c1.752,0.044,3.365,1.147,4.335,2.607c0.97,1.46,1.368,3.234,1.477,4.984
							c-1.421,1.438-3.573,2.401-5.425,3.211c-1.334,0.584-2.773,1.012-4.226,0.93C83.189,222.156,81.715,221.5,80.91,220.286z"/>
					</g>
				</g>
			</g>
			<g>
				<g>
					<g>
						<path style="fill:#455A64;" d="M104.427,209.439c-0.926-1.398-0.806-3.306-0.035-4.795c0.771-1.489,2.098-2.616,3.503-3.53
							c1.235-0.803,2.629-1.492,4.103-1.455c1.752,0.044,3.365,1.147,4.335,2.607c0.97,1.46,1.368,3.234,1.477,4.984
							c-1.421,1.438-3.573,2.401-5.425,3.211c-1.334,0.584-2.772,1.012-4.226,0.93C106.705,211.31,105.231,210.653,104.427,209.439z
							"/>
					</g>
				</g>
			</g>
			<g>
				<g>
					<g>
						<path style="fill:#455A64;" d="M135.503,207.75c1.117-1.28,1.252-3.214,0.677-4.813c-0.575-1.599-1.758-2.908-3.048-4.015
							c-1.134-0.973-2.442-1.851-3.927-2.011c-1.766-0.191-3.534,0.702-4.704,2.039c-1.17,1.337-1.807,3.066-2.151,4.809
							c1.235,1.635,3.269,2.89,5.021,3.952c1.262,0.765,2.65,1.388,4.122,1.5C132.964,209.324,134.533,208.862,135.503,207.75z"/>
					</g>
				</g>
			</g>
			<g>
				<g>
					<g>
						<path style="fill:#455A64;" d="M103.047,195.528c-0.339-1.965-1.581-3.309-2.931-3.704c-1.35-0.395-2.79,0.026-4.143,0.684
							c-1.19,0.579-2.398,1.399-3.204,2.851c-0.959,1.727-1.188,4.13-0.836,6.185c0.352,2.055,1.22,3.797,2.235,5.242
							c1.684-0.273,3.488-1.616,5.029-2.785c1.11-0.842,2.183-1.905,2.951-3.372C102.916,199.161,103.342,197.234,103.047,195.528z"
							/>
					</g>
				</g>
			</g>
			<g>
				<g>
					<g>
						<path style="fill:#455A64;" d="M113.506,183.143c-2.048-0.283-3.894,0.673-4.87,2.074c-0.976,1.401-1.204,3.182-1.164,4.945
							c0.035,1.55,0.296,3.203,1.344,4.615c1.246,1.678,3.467,2.756,5.608,3.054c2.141,0.299,4.207-0.096,6.05-0.759
							c0.478-2.009-0.025-4.517-0.476-6.668c-0.325-1.549-0.879-3.131-1.959-4.504C116.959,184.528,115.285,183.388,113.506,183.143
							z"/>
					</g>
				</g>
			</g>
			<g>
				<g>
					<g>
						<g>
							<path style="fill:#263238;" d="M94.726,198.557c0.078,0.012-0.027,0.995-0.141,2.582c-0.114,1.586-0.212,3.782-0.097,6.2
								c0.12,2.419,0.448,4.589,0.767,6.145c0.316,1.556,0.58,2.509,0.502,2.534c-0.058,0.02-0.448-0.897-0.861-2.45
								c-0.415-1.551-0.808-3.75-0.929-6.202c-0.117-2.452,0.042-4.673,0.251-6.262C94.428,199.512,94.662,198.547,94.726,198.557z"
								/>
						</g>
					</g>
				</g>
			</g>
			<g>
				<g>
					<g>
						<g>
							<path style="fill:#263238;" d="M99.446,224.627c-0.139,0.063-1.017-1.87-2.775-3.758c-0.868-0.946-1.759-1.696-2.451-2.168
								c-0.687-0.482-1.179-0.66-1.157-0.74c0.011-0.061,0.575,0.001,1.348,0.424c0.775,0.411,1.745,1.151,2.644,2.131
								C98.881,222.483,99.578,224.594,99.446,224.627z"/>
						</g>
					</g>
				</g>
			</g>
			<g>
				<g>
					<g>
						<g>
							<path style="fill:#263238;" d="M117.352,206.741c0.127-0.045,0.731,1.521,0.84,3.567c0.12,2.046-0.306,3.669-0.437,3.639
								c-0.151-0.025,0.035-1.634-0.083-3.609C117.568,208.362,117.205,206.783,117.352,206.741z"/>
						</g>
					</g>
				</g>
			</g>
			<g>
				<g>
					<g>
						<g>
							<path style="fill:#263238;" d="M123.494,202.078c0.118,0.082-0.865,1.697-2.195,3.607c-1.331,1.91-2.504,3.391-2.623,3.309
								c-0.118-0.082,0.865-1.697,2.195-3.607C122.201,203.477,123.376,201.996,123.494,202.078z"/>
						</g>
					</g>
				</g>
			</g>
			<g>
				<g>
					<g>
						<g>
							<path style="fill:#263238;" d="M120.253,201.71c-0.144-0.007-0.192-1.404-0.109-3.121c0.084-1.717,0.268-3.103,0.411-3.096
								c0.144,0.007,0.192,1.404,0.109,3.121C120.58,200.33,120.396,201.717,120.253,201.71z"/>
						</g>
					</g>
				</g>
			</g>
			<g>
				<g>
					<g>
						<g>
							<path style="fill:#263238;" d="M93.705,287.621c-0.068,0.005-0.227-1.249-0.341-3.287c-0.114-2.037-0.165-4.861-0.023-7.973
								c0.081-1.557,0.152-3.035,0.348-4.39c0.197-1.351,0.6-2.561,1.176-3.442c0.566-0.886,1.24-1.443,1.75-1.723
								c0.511-0.285,0.836-0.336,0.844-0.31c0.063,0.077-1.271,0.47-2.279,2.224c-0.503,0.854-0.849,2.002-1.015,3.317
								c-0.165,1.315-0.223,2.8-0.303,4.346c-0.141,3.097-0.148,5.905-0.129,7.938C93.751,286.355,93.78,287.616,93.705,287.621z"/>
						</g>
					</g>
				</g>
			</g>
		</g>
		<g>
			<g>
				<g>
					<g>
						<g>
							<g>
								<path style="fill:#263238;" d="M63.119,441.275c-0.294,0-0.594-0.043-0.893-0.132c-1.309-0.39-2.155-1.523-2.155-2.889
									v-35.185h0.786v35.185c0,1.227,0.858,1.917,1.593,2.135c0.736,0.22,1.831,0.109,2.501-0.918l23.892-36.617l0.659,0.43
									L65.61,439.901C65.034,440.783,64.112,441.275,63.119,441.275z"/>
							</g>
						</g>
					</g>
				</g>
				<g>
					<g>
						<g>
							<g>
								<path style="fill:#263238;" d="M163.36,441.275c-0.992,0-1.914-0.492-2.49-1.374l-23.893-36.617l0.659-0.43l23.893,36.617
									c0.67,1.027,1.766,1.139,2.501,0.918c0.735-0.218,1.593-0.909,1.593-2.135v-35.185h0.786v35.185
									c0,1.365-0.846,2.5-2.155,2.889C163.954,441.232,163.654,441.275,163.36,441.275z"/>
							</g>
						</g>
					</g>
				</g>
				<g>
					<g>
						<g>
							<g>
								<rect x="53.627" y="312.806" style="fill:#C17560;" width="122.694" height="95.285"/>
							</g>
						</g>
					</g>
				</g>
			</g>
			<g>
				<g>
					<g>
						<g>
							<g>
								<path style="fill:#263238;" d="M139.542,355.806c0,0-0.007-0.211-0.01-0.612c-0.003-0.41-0.006-1.001-0.011-1.776
									c-0.006-1.568-0.014-3.869-0.025-6.848c-0.013-5.96-0.032-14.624-0.057-25.49l0.103,0.135
									c-19.056,0.017-47.464,0.042-79.121,0.07h-0.005l0.157-0.205c-0.002,12.07-0.003,23.777-0.005,34.726l-0.152-0.198
									c22.774,0.037,42.534,0.069,56.61,0.092c7.043,0.024,12.662,0.043,16.53,0.056c1.929,0.011,3.42,0.02,4.438,0.025
									c0.501,0.006,0.884,0.01,1.151,0.013C139.405,355.797,139.542,355.806,139.542,355.806s-0.125,0.008-0.378,0.013
									c-0.263,0.003-0.64,0.007-1.133,0.012c-1.01,0.006-2.49,0.014-4.405,0.025c-3.86,0.013-9.467,0.032-16.495,0.056
									c-14.102,0.023-33.899,0.055-56.714,0.092l-0.152,0l0-0.198c-0.002-10.948-0.003-22.656-0.005-34.726v-0.205h0.157h0.005
									c31.656,0.028,60.065,0.053,79.121,0.07l0.104,0l0,0.135c-0.024,10.9-0.043,19.592-0.057,25.571
									c-0.011,2.966-0.02,5.256-0.025,6.818c-0.005,0.764-0.008,1.348-0.011,1.752
									C139.549,355.612,139.542,355.806,139.542,355.806z"/>
							</g>
						</g>
					</g>
				</g>
			</g>
			<g>
				<g>
					<g>
						<g>
							<g>
								<path style="fill:#263238;" d="M139.542,396.988c0,0-0.007-0.211-0.01-0.612c-0.003-0.41-0.006-1.002-0.011-1.777
									c-0.006-1.568-0.014-3.869-0.025-6.848c-0.013-5.96-0.032-14.624-0.057-25.49l0.103,0.135
									c-19.056,0.017-47.464,0.042-79.121,0.07h-0.005l0.157-0.205c-0.002,12.07-0.003,23.777-0.005,34.726l-0.152-0.198
									c22.774,0.037,42.534,0.069,56.61,0.092c7.043,0.024,12.662,0.043,16.53,0.056c1.929,0.011,3.42,0.02,4.438,0.026
									c0.501,0.005,0.884,0.01,1.151,0.013C139.405,396.98,139.542,396.988,139.542,396.988s-0.125,0.008-0.378,0.013
									c-0.263,0.003-0.64,0.007-1.133,0.012c-1.01,0.006-2.49,0.014-4.405,0.026c-3.86,0.013-9.467,0.032-16.495,0.056
									c-14.102,0.023-33.899,0.055-56.714,0.092l-0.152,0l0-0.198c-0.002-10.949-0.003-22.656-0.005-34.726v-0.205h0.157h0.005
									c31.656,0.028,60.065,0.053,79.121,0.07l0.104,0l0,0.135c-0.024,10.9-0.043,19.592-0.057,25.571
									c-0.011,2.966-0.02,5.256-0.025,6.818c-0.005,0.764-0.008,1.348-0.011,1.753
									C139.549,396.795,139.542,396.988,139.542,396.988z"/>
							</g>
						</g>
					</g>
				</g>
			</g>
			<g>
				<g>
					<g>
						<g>
							<polygon style="fill:#263238;" points="83.765,320.875 86.334,324.457 115.8,324.457 118.73,320.875 							"/>
						</g>
					</g>
				</g>
			</g>
			<g>
				<g>
					<g>
						<g>
							<polygon style="fill:#263238;" points="83.874,362.058 86.444,365.64 115.909,365.64 118.839,362.058 							"/>
						</g>
					</g>
				</g>
			</g>
		</g>
		<g>
			<g>
				<g>
					<rect x="148.055" y="312.806" style="fill:#6F4439;" width="28.266" height="95.285"/>
				</g>
			</g>
		</g>
	</g>
</g>
<g id="Speech_Bubbles">
	<g>
		<g>
			<g>
				<g>
					<path style="fill:#FFFFFF;" d="M396.209,71.898c6.724-3.278,10.539-12.509,8.222-19.895
						c-2.317-7.385-10.413-11.795-17.447-9.504c0.555-8.261-5.269-18.805-13.748-21.997c-8.479-3.192-22.838-5.745-31.368,7.616
						c-5.029-3.069-8.73-4.74-12.923-4.895c-5.867-0.216-10.908,1.604-15.399,7.7c-3.752,5.093-4.938,15.191-0.637,19.342
						c-5.066,0.341-9.742,4.547-11.392,9.811c-1.65,5.264-0.385,11.266,2.872,15.347c3.257,4.081,8.316,6.255,13.382,6.206
						c-0.373,7.883,0.663,14.001,6.609,18.273c6.56,4.713,16.687,5.586,23.447,2.656c0,0-0.849,9.585-4.235,16.843
						c0,0,7.878-0.766,16.298-8.922c4.996-4.84,6.544-8.98,6.544-8.98c5.573,2.267,11.853,2.914,17.701,1.095
						c5.848-1.819,11.184-6.258,13.773-12.267C400.498,84.319,400.021,76.81,396.209,71.898z"/>
				</g>
			</g>
			<g>
				<g>
					<g>
						<path style="fill:#263238;" d="M396.209,71.898c0,0,0.216,0.278,0.6,0.797c0.366,0.537,0.891,1.377,1.393,2.56
							c1.008,2.331,1.952,6.21,1.041,11.055c-0.437,2.408-1.44,5.004-3.095,7.489c-1.653,2.481-3.991,4.838-6.969,6.66
							c-1.487,0.91-3.131,1.685-4.906,2.257c-1.777,0.565-3.681,0.915-5.656,1.052c-3.952,0.243-8.181-0.445-12.254-2.094
							l0.249-0.109c-1.853,4.182-5.058,7.917-8.921,11.147c-1.939,1.614-4.089,3.077-6.433,4.297
							c-2.359,1.187-4.88,2.206-7.644,2.613l-0.394,0.058l0.17-0.374c1.134-2.486,2.013-5.191,2.691-8.012
							c0.68-2.82,1.202-5.762,1.51-8.757l0.329,0.238c-3.237,1.379-6.874,1.846-10.511,1.671c-3.64-0.205-7.339-1.099-10.72-2.841
							c-1.683-0.876-3.286-1.978-4.641-3.372c-1.359-1.387-2.446-3.062-3.179-4.891c-1.428-3.7-1.532-7.761-1.355-11.725
							l0.259,0.269c-4.824,0.057-9.828-1.955-13.141-5.777c-3.317-3.803-4.735-9.215-3.812-14.287
							c0.549-3.003,2.032-5.8,4.147-7.946c2.108-2.137,4.919-3.649,7.924-3.87l-0.163,0.445c-0.853-0.863-1.473-1.903-1.926-2.998
							c-0.394-1.115-0.682-2.262-0.786-3.425c-0.26-2.323,0-4.651,0.517-6.879c0.525-2.23,1.416-4.371,2.718-6.243
							c1.321-1.827,2.87-3.485,4.667-4.816c1.801-1.322,3.868-2.261,6.02-2.713c2.154-0.459,4.342-0.516,6.488-0.281
							c2.148,0.26,4.195,0.955,6.103,1.832c1.914,0.877,3.712,1.92,5.464,2.985l-0.326,0.075c1.69-2.565,3.758-4.847,6.214-6.55
							c2.446-1.712,5.243-2.805,8.074-3.31c5.703-1.004,11.323,0.08,16.288,1.797c2.516,0.833,4.82,2.174,6.711,3.863
							c1.906,1.679,3.463,3.639,4.704,5.701c2.458,4.13,3.765,8.713,3.5,13.02l-0.225-0.175c3.45-1.118,7.066-0.578,9.932,0.817
							c2.912,1.378,5.111,3.638,6.503,6.07c1.353,2.469,1.91,5.11,1.847,7.495c-0.036,2.393-0.545,4.543-1.249,6.358
							c-1.425,3.656-3.57,5.933-5.141,7.191c-0.806,0.618-1.453,1.048-1.911,1.266C396.456,71.774,396.209,71.898,396.209,71.898
							s0.213-0.132,0.663-0.395c0.465-0.248,1.1-0.685,1.889-1.311c1.541-1.274,3.643-3.553,5.027-7.183
							c0.684-1.803,1.173-3.932,1.194-6.293c0.048-2.354-0.515-4.944-1.853-7.36c-1.378-2.379-3.544-4.587-6.401-5.925
							c-2.812-1.356-6.342-1.866-9.691-0.768l-0.24,0.079l0.015-0.254c0.247-4.216-1.052-8.735-3.486-12.798
							c-2.434-4.037-6.21-7.77-11.223-9.365c-4.923-1.692-10.481-2.745-16.069-1.749c-2.773,0.501-5.502,1.572-7.889,3.248
							c-2.396,1.666-4.418,3.902-6.077,6.424l-0.128,0.195l-0.198-0.119c-3.475-2.085-7.182-4.217-11.378-4.737
							c-2.078-0.226-4.241-0.168-6.321,0.28c-2.088,0.441-4.081,1.348-5.828,2.632c-1.742,1.291-3.259,2.914-4.552,4.706
							c-1.249,1.799-2.123,3.888-2.633,6.067c-0.504,2.176-0.756,4.455-0.502,6.704c0.101,1.128,0.381,2.229,0.755,3.292
							c0.432,1.04,1.017,2.013,1.804,2.813l0.398,0.404l-0.56,0.041c-2.851,0.21-5.553,1.655-7.589,3.719
							c-2.043,2.075-3.473,4.772-4.005,7.676c-0.897,4.908,0.486,10.18,3.691,13.851c3.203,3.698,8.06,5.658,12.745,5.604
							l0.271-0.003l-0.012,0.272c-0.18,3.937-0.068,7.933,1.313,11.514c0.71,1.77,1.754,3.383,3.067,4.726
							c1.309,1.349,2.869,2.425,4.514,3.283c3.303,1.706,6.939,2.591,10.516,2.796c3.574,0.176,7.146-0.282,10.297-1.62l0.371-0.157
							l-0.041,0.395c-0.316,3.033-0.844,5.98-1.534,8.824c-0.689,2.842-1.579,5.571-2.734,8.092l-0.223-0.316
							c2.647-0.384,5.173-1.387,7.49-2.552c2.316-1.199,4.443-2.641,6.366-4.233c1.916-1.6,3.678-3.304,5.167-5.151
							c1.486-1.836,2.799-3.779,3.664-5.81l0.077-0.18l0.172,0.07c4.019,1.641,8.192,2.332,12.09,2.105
							c3.904-0.231,7.495-1.421,10.426-3.225c2.947-1.786,5.267-4.104,6.913-6.547c1.647-2.448,2.653-5.005,3.101-7.386
							c0.934-4.79,0.034-8.644-0.935-10.973c-0.484-1.185-0.986-2.02-1.342-2.577C396.383,72.168,396.209,71.898,396.209,71.898z"/>
					</g>
				</g>
			</g>
		</g>
		<g>
			<g>
				<g>
					<path style="fill:#263238;" d="M335.842,60.258c-1.498-0.795-2.675-1.896-3.529-3.3c-0.855-1.405-1.282-2.987-1.282-4.748
						c0-1.76,0.427-3.342,1.282-4.748c0.855-1.405,2.031-2.505,3.529-3.3c1.497-0.795,3.186-1.193,5.065-1.193
						c1.879,0,3.567,0.398,5.065,1.193c1.498,0.795,2.674,1.896,3.528,3.3c0.855,1.405,1.282,2.988,1.282,4.748
						c0,1.761-0.428,3.343-1.282,4.748c-0.854,1.405-2.03,2.505-3.528,3.3c-1.498,0.796-3.186,1.193-5.065,1.193
						C339.028,61.451,337.339,61.054,335.842,60.258z M343.344,56.653c0.728-0.423,1.303-1.02,1.727-1.79
						c0.423-0.77,0.635-1.654,0.635-2.653c0-0.998-0.212-1.882-0.635-2.653c-0.424-0.77-0.999-1.367-1.727-1.79
						c-0.728-0.423-1.54-0.635-2.438-0.635c-0.897,0-1.71,0.212-2.438,0.635c-0.728,0.423-1.303,1.02-1.727,1.79
						c-0.423,0.771-0.634,1.655-0.634,2.653c0,0.999,0.211,1.883,0.634,2.653c0.424,0.771,0.999,1.367,1.727,1.79
						c0.728,0.423,1.54,0.635,2.438,0.635C341.804,57.288,342.617,57.076,343.344,56.653z"/>
				</g>
				<g>
					<path style="fill:#263238;" d="M370.333,43.324v17.772h-5.027v-6.931h-6.855v6.931h-5.026V43.324h5.026v6.677h6.855v-6.677
						H370.333z"/>
				</g>
			</g>
			<g>
				<g>
					<path style="fill:#263238;" d="M350.519,65.695v17.028h-3.966l-7.517-9.074v9.074h-4.719V65.695h3.965l7.517,9.074v-9.074
						H350.519z"/>
				</g>
				<g>
					<path style="fill:#263238;" d="M357.658,81.92c-1.435-0.762-2.563-1.816-3.381-3.163c-0.819-1.346-1.229-2.862-1.229-4.549
						c0-1.687,0.409-3.203,1.229-4.549c0.818-1.346,1.946-2.4,3.381-3.163c1.435-0.762,3.054-1.143,4.853-1.143
						s3.418,0.381,4.853,1.143c1.436,0.763,2.563,1.816,3.382,3.163c0.818,1.346,1.229,2.862,1.229,4.549
						c0,1.687-0.41,3.203-1.229,4.549c-0.819,1.347-1.946,2.4-3.382,3.163c-1.435,0.762-3.053,1.143-4.853,1.143
						S359.093,82.682,357.658,81.92z M364.846,78.466c0.697-0.405,1.249-0.977,1.654-1.715c0.405-0.738,0.608-1.585,0.608-2.542
						c0-0.957-0.203-1.804-0.608-2.542c-0.405-0.738-0.957-1.31-1.654-1.715c-0.697-0.405-1.476-0.608-2.335-0.608
						c-0.86,0-1.639,0.203-2.336,0.608c-0.697,0.405-1.248,0.977-1.653,1.715c-0.406,0.738-0.608,1.585-0.608,2.542
						c0,0.957,0.202,1.804,0.608,2.542c0.405,0.738,0.956,1.31,1.653,1.715c0.697,0.405,1.476,0.608,2.336,0.608
						C363.371,79.074,364.149,78.871,364.846,78.466z"/>
				</g>
			</g>
			<g>
				<g>
					<path style="fill:#263238;" d="M375.585,55.996c0.37,0.359,0.556,0.828,0.556,1.406c0,0.267-0.035,0.533-0.104,0.799
						c-0.069,0.266-0.226,0.666-0.469,1.198l-1.094,2.535h-2.066l0.816-2.83c-0.324-0.15-0.576-0.374-0.756-0.668
						c-0.18-0.296-0.268-0.64-0.268-1.033c0-0.579,0.185-1.047,0.556-1.406c0.37-0.359,0.845-0.538,1.424-0.538
						C374.745,55.458,375.214,55.638,375.585,55.996z"/>
				</g>
			</g>
			<g>
				<g>
					<path style="fill:#263238;" d="M374.872,85.794c-0.615-0.661-0.895-1.439-0.841-2.336c0.056-0.917,0.426-1.651,1.114-2.204
						c0.688-0.551,1.541-0.797,2.559-0.736c1.02,0.062,1.833,0.407,2.441,1.037c0.605,0.63,0.882,1.403,0.826,2.32
						c-0.054,0.897-0.427,1.637-1.115,2.219c-0.69,0.583-1.535,0.844-2.534,0.784C376.303,86.817,375.486,86.456,374.872,85.794z
						 M375.172,64.992l6.91,0.416l-1.98,13.537l-4.617-0.278L375.172,64.992z"/>
				</g>
			</g>
		</g>
	</g>
	<g>
		<g>
			<g>
				<g>
					<path style="fill:#FFFFFF;" d="M137.019,86.153c-5.346-1.582-10.951-7.937-10.157-13.651
						c0.795-5.714,7.266-10.888,12.718-10.069c-1.424-6.005,0.497-13.535,6.337-16.924c5.84-3.389,13.792-4.29,20.422,2.821
						c3.319-2.875,7.706-5.545,12.054-6.045c4.347-0.5,9.037,0.836,12.536,3.996c3.737,3.375,5.647,10.104,2.996,13.684
						c3.766-0.373,7.721,2.144,9.581,5.81c1.861,3.667,1.669,8.234-0.223,11.635c-1.892,3.401-5.343,5.621-9.073,6.208
						c1.244,5.749,1.235,10.373-2.61,14.245c-4.242,4.271-11.579,6.159-16.909,4.837c0,0,1.803,6.941,5.185,11.86
						c0,0-5.885,0.406-13.078-4.553c-4.268-2.943-5.915-5.796-5.915-5.796c-3.818,2.352-8.354,3.6-12.877,2.982
						c-4.523-0.617-7.86-3.45-10.502-7.548C134.86,95.546,134.821,90.232,137.019,86.153z"/>
				</g>
			</g>
			<g>
				<g>
					<g>
						<path style="fill:#263238;" d="M137.019,86.153c0,0-0.089,0.211-0.294,0.653c-0.195,0.441-0.463,1.092-0.71,1.986
							c-0.486,1.755-0.893,4.611,0.226,7.968c0.528,1.68,1.615,3.341,2.956,5.008c1.352,1.648,3.11,3.263,5.388,4.286
							c4.571,2.032,10.866,1.308,16.198-2.003l0.154-0.095l0.107,0.161c1.82,2.741,4.62,5.086,7.819,6.946
							c1.606,0.932,3.344,1.729,5.191,2.324c1.842,0.57,3.825,0.996,5.805,0.952l-0.167,0.347c-2.315-3.446-3.984-7.561-5.23-11.926
							l-0.109-0.383l0.394,0.095c2.466,0.592,5.138,0.49,7.735-0.077c2.595-0.589,5.151-1.683,7.361-3.336
							c2.218-1.631,3.99-3.994,4.566-6.782c0.573-2.787,0.166-5.733-0.451-8.603l-0.057-0.266l0.268-0.041
							c3.543-0.547,6.953-2.693,8.804-5.944c1.841-3.228,2.091-7.409,0.584-10.917c-0.82-1.901-2.201-3.537-3.893-4.68
							c-1.685-1.141-3.723-1.791-5.715-1.601l-0.567,0.054l0.333-0.466c1.046-1.467,1.32-3.373,1.115-5.158
							c-0.186-1.804-0.805-3.541-1.668-5.109c-1.732-3.165-4.868-5.294-8.16-6.359c-3.322-1.065-6.921-0.988-10.073,0.19
							c-3.171,1.152-5.98,3.027-8.436,5.135l-0.172,0.148l-0.156-0.165c-1.352-1.429-2.873-2.666-4.55-3.571
							c-1.673-0.909-3.495-1.474-5.331-1.66c-3.691-0.382-7.296,0.712-10.274,2.44c-3,1.732-4.966,4.676-5.902,7.695
							c-0.95,3.038-1.002,6.188-0.355,8.997l0.059,0.254l-0.258-0.038c-2.75-0.4-5.369,0.692-7.379,2.096
							c-1.023,0.708-1.911,1.548-2.653,2.451c-0.749,0.897-1.368,1.862-1.791,2.869c-0.92,1.993-0.995,4.131-0.501,5.927
							c0.484,1.81,1.347,3.326,2.26,4.558c1.855,2.474,3.875,3.866,5.279,4.642c0.712,0.381,1.271,0.635,1.674,0.775
							C136.836,86.076,137.019,86.153,137.019,86.153s-0.217-0.063-0.608-0.188c-0.388-0.11-0.965-0.357-1.689-0.725
							c-1.43-0.753-3.486-2.129-5.387-4.614c-0.936-1.239-1.827-2.768-2.335-4.615c-0.522-1.829-0.457-4.053,0.474-6.099
							c0.428-1.037,1.056-2.027,1.817-2.949c0.754-0.928,1.656-1.791,2.699-2.521c2.051-1.444,4.73-2.59,7.617-2.187l-0.199,0.217
							c-0.673-2.869-0.633-6.081,0.328-9.196c0.947-3.093,2.96-6.14,6.063-7.944c3.032-1.77,6.72-2.907,10.532-2.522
							c1.894,0.188,3.78,0.767,5.505,1.701c1.73,0.93,3.293,2.197,4.677,3.656l-0.328-0.018c2.488-2.141,5.331-4.051,8.581-5.238
							c3.24-1.217,6.97-1.304,10.39-0.208c1.71,0.547,3.354,1.367,4.814,2.466c1.483,1.065,2.73,2.508,3.64,4.121
							c0.896,1.625,1.538,3.42,1.734,5.306c0.213,1.863-0.058,3.901-1.212,5.521l-0.234-0.412c2.138-0.204,4.29,0.49,6.057,1.686
							c1.774,1.198,3.219,2.911,4.08,4.904c1.572,3.672,1.314,8-0.612,11.383c-1.938,3.398-5.489,5.625-9.174,6.192l0.211-0.308
							c0.619,2.898,1.044,5.905,0.444,8.818c-0.317,1.442-0.914,2.817-1.748,4.01c-0.831,1.198-1.879,2.209-3.013,3.062
							c-2.281,1.702-4.898,2.814-7.555,3.414c-2.66,0.576-5.396,0.679-7.954,0.061l0.285-0.288c1.22,4.309,2.878,8.414,5.14,11.793
							l0.232,0.347l-0.4,0c-4.182,0.001-7.982-1.499-11.234-3.362c-3.242-1.906-6.055-4.258-7.937-7.114l0.261,0.066
							c-5.438,3.343-11.831,4.064-16.518,1.955c-2.328-1.061-4.106-2.719-5.462-4.396c-1.341-1.689-2.433-3.387-2.956-5.102
							c-1.106-3.421-0.655-6.303-0.133-8.063c0.265-0.894,0.555-1.552,0.762-1.973C136.891,86.379,137.019,86.153,137.019,86.153z"
							/>
					</g>
				</g>
			</g>
		</g>
		<g>
			<g>
				<path style="fill:#263238;" d="M161.912,89.862c-0.882-0.844-1.322-1.874-1.319-3.089c0.002-1.243,0.446-2.264,1.332-3.064
					c0.885-0.799,2.018-1.198,3.4-1.195c1.381,0.002,2.506,0.406,3.375,1.208c0.869,0.803,1.301,1.826,1.299,3.069
					c-0.002,1.216-0.447,2.244-1.332,3.084c-0.886,0.841-2.005,1.26-3.358,1.257C163.926,91.129,162.795,90.706,161.912,89.862z
					 M160.682,61.745l9.364,0.018l-1.61,18.435l-6.257-0.012L160.682,61.745z"/>
			</g>
		</g>
	</g>
</g>
<g id="Character">
	<g>
		<g>
			<g>
				<g>
					<g>
						<path style="fill:#263238;" d="M272.682,68.398c0.429-0.862,0.406-1.971-0.18-2.735c-0.586-0.764-1.759-1.059-2.575-0.548
							c-0.129-2.397-1.836-4.564-4.04-5.515c-2.204-0.951-4.804-0.764-6.99,0.226c-0.762,0.345-1.501,0.8-1.994,1.476
							c-0.493,0.676-0.696,1.608-0.345,2.367c-1.282,0.392-2.585,0.795-3.693,1.55c-1.107,0.755-2.008,1.931-2.098,3.269
							c-0.09,1.337,0.834,2.766,2.163,2.94c-0.712,0.897-0.824,2.227-0.27,3.23s1.738,1.618,2.877,1.493l8.282,2.137
							c1.019,0.099,2.086,0.191,3.034-0.199c0.947-0.39,1.711-1.43,1.428-2.414c1.015,0.06,2.07-0.164,2.89-0.766
							c0.82-0.602,1.366-1.613,1.272-2.626c-0.094-1.012-0.903-1.955-1.914-2.069C271.43,69.883,272.253,69.26,272.682,68.398z"/>
					</g>
				</g>
				<g>
					<g>
						<path style="fill:#FF725E;" d="M268.417,77.693c-1.216-0.279-2.507-0.164-3.771-0.168c-2.213-0.006-4.423-0.386-6.446-1.109
							c-1.733-0.619-3.387-1.499-5.273-1.645c-1.886-0.146-4.106,0.84-4.096,2.368L257,82.918c3.51,0.511,7.178,0.303,10.565-0.6
							c1.52-0.405,3.221-1.224,3.219-2.515C270.782,78.785,269.632,77.971,268.417,77.693z"/>
					</g>
				</g>
				<g>
					<g>
						<g>
							<path style="fill:#455A64;" d="M262.882,59.138c0.002-0.024,0.37-0.033,1.002,0.162c0.624,0.195,1.522,0.638,2.327,1.539
								c0.798,0.877,1.489,2.303,1.313,3.945c-0.148,1.604-1.085,3.361-2.774,4.308l-0.035-0.471
								c0.336,0.124,0.695,0.266,1.05,0.433c0.884,0.42,1.8,1.012,2.185,1.991c0.399,0.977,0.013,2.045-0.556,2.704
								c-0.569,0.687-1.265,1.16-1.937,1.522c-0.668,0.36-1.318,0.642-1.924,0.861c-1.212,0.441-2.242,0.632-2.952,0.721
								c-0.713,0.085-1.11,0.075-1.112,0.043c-0.018-0.099,1.588-0.174,3.932-1.107c1.134-0.496,2.593-1.103,3.618-2.339
								c0.497-0.61,0.773-1.45,0.455-2.219c-0.299-0.766-1.089-1.309-1.932-1.706c-0.335-0.158-0.68-0.295-1.008-0.417l-0.53-0.197
								l0.495-0.274c1.515-0.84,2.4-2.438,2.559-3.902c0.187-1.491-0.401-2.808-1.117-3.666c-0.721-0.875-1.544-1.345-2.125-1.588
								C263.23,59.238,262.875,59.181,262.882,59.138z"/>
						</g>
					</g>
				</g>
			</g>
			<g>
				<g>
					<g>
						<path style="fill:#C17560;" d="M228.957,154.936c0.803-0.458,12.703-4.903,12.703-4.903l25.014-0.93l11.079,2.33
							l-10.809,18.079l-16.312,1.324l-14.263-5.935l-5.72-6.714L228.957,154.936z"/>
					</g>
				</g>
				<g>
					<g>
						<g>
							<g>
								<path style="fill:#263238;" d="M260.412,81.072c1.832-2.545,11.033-3.058,12.914-0.764c2.721-1.438,6.518-0.206,7.875,2.557
									c0,0,4.291-0.098,5.646,1.37c1.355,1.468,0.904,3.219,0.904,3.219s3.913-0.597,3.707,3.457
									c2.953,0.746,5.311,5.221,3.138,7.356c1.116,0.164,2.788,2.276,1.279,3.722c0,0,3.693,2.455,5.299,5.684
									c1.549,3.114,1.569,5.719,0.817,7.028c-0.919,1.599-2.03,2.518-3.809,2.509c0.844,1.139,0.927,2.789,0.203,4.008
									c1.416,0.024,1.853,2.21,0.888,3.246c-0.966,1.036-2.545,1.155-3.961,1.132c-1.416-0.023-2.951-0.085-4.108,0.731
									c0.055,0.423,0.224,0.699,0.469,0.895c2.446,1.96,3.16,5.36,1.355,7.922c-0.167,0.237-0.323,0.457-0.46,0.654
									c-0.813,1.17-2.834,2.251-4.093,2.918c-3.19,1.692-5.099,1.39-8.669,1.931c0.991,2.298-4.777,7.444-11.455,2.474
									c-13.229,3.654-22.774,5.074-36.497,5.207c-1.958,0.019-4.313-0.229-5.195-1.979c-1.584,0.432-3.304-0.293-4.485-1.435
									c-1.181-1.141-1.929-2.647-2.655-4.12c-3.397-0.886-6.032-4.137-6.194-7.644c-2.31-1.777-3.814-4.564-4.03-7.471
									c-3.304-0.982-5.56-7.177-4.16-11.183c1.402-4.397,2.655-6.2,4.544-8.727c-2.249-0.469-3.115-3.491-2.207-5.601
									c0.908-2.11,2.942-3.477,4.87-4.724c-1.675,0.459-3.153-1.639-2.765-3.332c0.388-1.693,1.9-2.869,3.383-3.774
									c2.173-1.325,4.507-2.386,6.934-3.152c0.778-2.961,4.53-6.352,7.288-7.68C238.305,72.146,253.904,71.919,260.412,81.072"/>
							</g>
						</g>
					</g>
					<g>
						<g>
							<g>
								<path style="fill:#AE7461;" d="M263.118,93.289l-19.612-6.488c-7.647-1.161-13.185,8.07-14.02,15.759
									c-0.927,8.543-1.724,19.01-0.998,25.449c1.459,12.947,12.868,16.424,12.868,16.424c0.002-0.017-0.296,7.853-0.296,7.853
									c0.986,6.042,7.39,6.148,7.39,6.148c17.555,0.394,18.727-9.512,18.727-9.512l-0.074-48.587
									C267.255,97.992,265.441,93.642,263.118,93.289z"/>
							</g>
						</g>
					</g>
					<g>
						<g>
							<g>
								<g>
									<g>
										<g>
											<g>
												<g>
													<g>
														<g>
															<path style="fill:#263238;" d="M241.901,122.101c0.012-0.1-1.081-0.341-2.858-0.65
																c-0.451-0.067-0.875-0.177-0.938-0.489c-0.092-0.333,0.12-0.812,0.363-1.329c0.475-1.077,0.973-2.205,1.496-3.389
																c2.083-4.827,3.612-8.804,3.417-8.886c-0.195-0.082-2.042,3.763-4.125,8.59c-0.502,1.191-0.983,2.326-1.44,3.412
																c-0.195,0.507-0.516,1.078-0.316,1.767c0.107,0.344,0.428,0.604,0.715,0.696c0.286,0.102,0.541,0.118,0.765,0.141
																C240.774,122.143,241.89,122.202,241.901,122.101z"/>
														</g>
													</g>
												</g>
											</g>
										</g>
									</g>
								</g>
							</g>
						</g>
					</g>
					<g>
						<g>
							<g>
								<g>
									<g>
										<g>
											<g>
												<g>
													<g>
														<path style="fill:#6F4439;" d="M241.355,144.433c0,0,6.993-0.446,15.793-5.208c0,0-2.982,8.114-15.905,9.102
															L241.355,144.433z"/>
													</g>
												</g>
											</g>
										</g>
									</g>
								</g>
							</g>
						</g>
					</g>
					<g>
						<g>
							<g>
								<g>
									<g>
										<g>
											<path style="fill:#263238;" d="M257.552,102.814c-0.103-0.503-1.891-0.533-3.916-1.083
												c-2.036-0.509-3.611-1.355-3.947-0.967c-0.152,0.187,0.072,0.679,0.677,1.24c0.598,0.559,1.598,1.154,2.815,1.472
												c1.218,0.317,2.379,0.286,3.175,0.09C257.157,103.371,257.593,103.052,257.552,102.814z"/>
										</g>
									</g>
								</g>
							</g>
						</g>
					</g>
					<g>
						<g>
							<g>
								<g>
									<g>
										<g>
											<path style="fill:#263238;" d="M232.413,102.039c0.294,0.417,1.535,0.054,3.005,0.101
												c1.472-0.005,2.702,0.394,3.007-0.015c0.135-0.199-0.044-0.611-0.57-1.017c-0.518-0.404-1.401-0.756-2.412-0.771
												c-1.011-0.014-1.903,0.312-2.432,0.701C232.474,101.429,232.285,101.837,232.413,102.039z"/>
										</g>
									</g>
								</g>
							</g>
						</g>
					</g>
					<g>
						<g>
							<g>
								<path style="fill:#263238;" d="M223.703,108.735c0.123-2.014,0.757-4.063,2.137-5.535c0.756-0.807,1.714-1.421,2.384-2.3
									c1.448-1.9,1.245-4.54,1.861-6.847c0.794-2.975,3.119-5.497,6.02-6.53c2.413-0.86,5.146-0.742,7.41-1.942
									c1.674-0.887,2.948-2.427,4.671-3.213c3.355-1.531,7.246,0.192,10.414,2.081c0.627,2.517-0.967,4.693-2.503,6.784
									c-1.535,2.09-4.027,3.446-6.617,3.601c-2.009,0.12-4.354-0.336-5.767,1.097c-1.486,1.506-1.248,1.762-2.47,3.489
									c-1.747,2.469-2.987,1.836-5.598,3.361c-2.017,1.178-5.26,5.682-6.276,7.785c-1.016,2.103-2.773,4.296-5.106,4.184
									C223.922,112.76,223.58,110.749,223.703,108.735z"/>
							</g>
						</g>
					</g>
					<g>
						<g>
							<g>
								<path style="fill:#263238;" d="M253.583,89.027c5.869-0.085,11.753,0.98,17.219,3.118c1.629,0.637,3.314,1.447,4.242,2.93
									c0.816,1.304,0.913,2.923,0.894,4.46c-0.06,4.816-2.003,10.711-3.843,15.162l-6.017,3.596
									c-4.631-1.099-2.499-9.094-2.272-13.102c-3.232-1.421-5.484-4.831-5.523-8.361C255.638,95.13,253.849,92.16,253.583,89.027z
									"/>
							</g>
						</g>
					</g>
					<g>
						<g>
							<g>
								<g>
									<g>
										<g>
											<g>
												<g>
													<g>
														<g>
															<path style="fill:#AE7461;" d="M266.163,116.563c0.184-2.754,3.567-3.286,5.933-1.865
																c1.299,0.78,2.276,2.322,2.107,5.246c-0.453,7.798-8.188,5.734-8.189,5.51
																C266.013,125.314,265.948,119.788,266.163,116.563z"/>
														</g>
													</g>
												</g>
											</g>
										</g>
									</g>
								</g>
							</g>
						</g>
					</g>
					<g>
						<g>
							<g>
								<g>
									<g>
										<g>
											<g>
												<g>
													<g>
														<g>
															<g>
																<path style="fill:#7C4236;" d="M268.567,122.638c0.036-0.023,0.131,0.103,0.354,0.222
																	c0.218,0.116,0.599,0.209,1.014,0.08c0.841-0.255,1.611-1.522,1.73-2.926c0.061-0.709-0.048-1.393-0.268-1.967
																	c-0.205-0.584-0.55-1.005-0.961-1.102c-0.407-0.119-0.715,0.111-0.823,0.326c-0.117,0.212-0.077,0.371-0.119,0.382
																	c-0.023,0.018-0.16-0.141-0.078-0.459c0.041-0.153,0.144-0.332,0.335-0.471c0.196-0.141,0.476-0.203,0.763-0.155
																	c0.599,0.076,1.108,0.661,1.349,1.291c0.274,0.635,0.414,1.405,0.345,2.201c-0.141,1.568-1.031,2.992-2.177,3.252
																	c-0.557,0.111-1.005-0.081-1.23-0.279C268.57,122.827,268.539,122.65,268.567,122.638z"/>
															</g>
														</g>
													</g>
												</g>
											</g>
										</g>
									</g>
								</g>
							</g>
						</g>
					</g>
					<g>
						<g>
							<g>
								<path style="fill:#455A64;" d="M290.184,126.211c0,0,0.154-0.116,0.386-0.398c0.227-0.283,0.536-0.744,0.73-1.422
									c0.191-0.667,0.266-1.579-0.108-2.527c-0.362-0.933-1.167-1.897-2.383-2.353l0.045,0.105
									c0.497-1.114,0.605-2.545,0.123-3.911c-0.233-0.683-0.616-1.346-1.15-1.907c-0.531-0.576-1.234-0.963-1.873-1.432
									c-0.32-0.234-0.627-0.494-0.87-0.809c-0.246-0.313-0.408-0.686-0.494-1.089c-0.181-0.804-0.104-1.691-0.362-2.57
									c-0.519-1.732-2.181-3.183-4.146-3.304l0.103,0.157c0.625-1.687,0.481-3.735-0.509-5.385
									c-1.032-1.717-2.881-2.823-4.763-2.997l0.1,0.153c0.708-2.186-0.081-4.618-1.698-5.94c-1.628-1.333-3.857-1.561-5.561-0.872
									l0.121,0.038c-0.616-0.95-1.459-1.656-2.313-2.2c-0.861-0.537-1.738-0.952-2.6-1.218c-1.712-0.58-3.303-0.706-4.586-0.67
									c-1.289,0.052-2.285,0.286-2.926,0.536c-0.329,0.101-0.554,0.249-0.717,0.316c-0.159,0.078-0.237,0.125-0.237,0.125
									c0.009,0.019,0.332-0.157,0.974-0.385c0.642-0.23,1.633-0.443,2.909-0.478c1.271-0.019,2.845,0.122,4.532,0.708
									c0.85,0.27,1.711,0.686,2.553,1.218c0.834,0.538,1.653,1.234,2.244,2.155l0.044,0.069l0.076-0.03
									c1.639-0.655,3.793-0.424,5.346,0.858c1.543,1.265,2.298,3.614,1.617,5.697l-0.046,0.139l0.146,0.013
									c1.807,0.168,3.593,1.239,4.582,2.887c0.952,1.583,1.092,3.562,0.493,5.182l-0.055,0.148l0.158,0.009
									c1.853,0.109,3.452,1.494,3.945,3.135c0.248,0.824,0.175,1.706,0.365,2.554c0.091,0.423,0.271,0.835,0.537,1.171
									c0.264,0.338,0.587,0.607,0.916,0.846c0.657,0.476,1.346,0.854,1.853,1.401c0.516,0.537,0.89,1.173,1.118,1.833
									c0.475,1.319,0.38,2.706-0.092,3.786l-0.033,0.077l0.078,0.029c1.17,0.427,1.962,1.352,2.322,2.252
									c0.373,0.913,0.315,1.801,0.14,2.459c-0.177,0.668-0.469,1.129-0.682,1.418
									C290.317,126.073,290.175,126.202,290.184,126.211z"/>
							</g>
						</g>
					</g>
					<g>
						<g>
							<g>
								<path style="fill:#455A64;" d="M224.554,119.686c-0.012,0.009,0.164-0.212,0.03-0.64c-0.067-0.206-0.217-0.438-0.456-0.646
									c-0.236-0.215-0.581-0.361-0.964-0.485c-0.38-0.13-0.823-0.236-1.217-0.509c-0.392-0.272-0.704-0.718-0.878-1.252
									c-0.182-0.533-0.232-1.142-0.196-1.785c0.028-0.644,0.129-1.325,0.129-2.055c0.015-1.479-0.612-2.981-0.992-4.611
									c-0.185-0.815-0.261-1.693-0.105-2.564c0.154-0.862,0.608-1.724,1.414-2.193c0.794-0.487,1.774-0.634,2.734-0.926
									c0.481-0.148,0.968-0.339,1.398-0.65c0.436-0.304,0.757-0.757,0.986-1.233c0.46-0.968,0.575-2.041,0.821-3.07
									c0.119-0.516,0.275-1.028,0.541-1.479c0.259-0.455,0.669-0.804,1.15-1.008c0.672-0.253,1.421-0.217,2.158-0.295
									c0.369-0.038,0.746-0.111,1.093-0.274c0.347-0.161,0.651-0.418,0.863-0.728c0.434-0.622,0.591-1.34,0.817-1.992
									c0.206-0.663,0.536-1.258,0.979-1.76c0.877-1.007,2.148-1.601,3.397-1.624c1.251-0.031,2.455,0.431,3.311,1.199l0.104,0.093
									l0.058-0.126c0.965-2.121,2.842-3.481,4.632-3.998c0.904-0.261,1.797-0.31,2.606-0.225c0.81,0.081,1.538,0.297,2.143,0.596
									c1.221,0.605,1.907,1.481,2.278,2.095c0.195,0.307,0.31,0.562,0.387,0.734c0.038,0.078,0.068,0.141,0.093,0.193
									c0.021,0.043,0.034,0.064,0.036,0.063c0.002-0.001-0.005-0.024-0.021-0.069c-0.021-0.054-0.047-0.118-0.078-0.199
									c-0.067-0.177-0.174-0.437-0.362-0.753c-0.357-0.629-1.04-1.535-2.278-2.17c-0.614-0.313-1.355-0.542-2.181-0.633
									c-0.824-0.094-1.739-0.052-2.667,0.208c-1.837,0.516-3.769,1.895-4.772,4.074l0.161-0.034
									c-0.892-0.807-2.144-1.293-3.452-1.266c-1.31,0.02-2.644,0.639-3.563,1.691c-0.463,0.52-0.817,1.16-1.027,1.837
									c-0.229,0.664-0.39,1.366-0.788,1.93c-0.385,0.584-1.076,0.845-1.789,0.903c-0.712,0.078-1.479,0.034-2.219,0.309
									c-0.533,0.222-0.989,0.616-1.268,1.108c-0.286,0.487-0.446,1.021-0.567,1.545c-0.247,1.046-0.364,2.108-0.801,3.024
									c-0.217,0.451-0.51,0.867-0.913,1.148c-0.397,0.288-0.859,0.474-1.329,0.619c-0.937,0.29-1.936,0.437-2.782,0.957
									c-0.417,0.258-0.781,0.608-1.021,1.024c-0.247,0.412-0.399,0.865-0.483,1.318c-0.159,0.911-0.074,1.814,0.118,2.646
									c0.397,1.655,1.021,3.131,1.016,4.568c0.005,0.712-0.089,1.394-0.112,2.047c-0.031,0.652,0.026,1.284,0.221,1.835
									c0.186,0.552,0.52,1.02,0.939,1.302c0.422,0.283,0.874,0.381,1.253,0.504c0.383,0.117,0.715,0.25,0.946,0.451
									c0.234,0.194,0.385,0.414,0.456,0.608C224.682,119.464,224.529,119.687,224.554,119.686z"/>
							</g>
						</g>
					</g>
					<g>
						<g>
							<g>
								<path style="fill:#455A64;" d="M209.417,107.604c0.004,0.002,0.031-0.047,0.08-0.145c0.054-0.109,0.125-0.254,0.215-0.437
									c0.19-0.399,0.46-0.967,0.805-1.691c0.353-0.732,0.749-1.647,1.315-2.649c0.566-0.985,1.343-2.109,2.612-2.799
									c0.631-0.342,1.36-0.568,2.092-0.893c0.365-0.164,0.733-0.357,1.066-0.623c0.334-0.261,0.616-0.614,0.796-1.018
									c0.37-0.809,0.381-1.727,0.676-2.564c0.15-0.414,0.386-0.804,0.751-1.066c0.357-0.273,0.801-0.432,1.253-0.58
									c0.453-0.15,0.931-0.283,1.38-0.528c0.455-0.232,0.832-0.639,1.066-1.103c0.468-0.948,0.474-2.016,0.667-3.026
									c0.095-0.504,0.232-1.012,0.518-1.431c0.278-0.426,0.735-0.707,1.238-0.814c1.026-0.213,2.128,0.144,3.27-0.035
									c0.57-0.095,1.108-0.388,1.501-0.795c0.397-0.406,0.692-0.879,0.971-1.342c0.279-0.465,0.541-0.93,0.856-1.345
									c0.311-0.416,0.689-0.777,1.147-0.981c0.929-0.427,1.983-0.196,2.946,0.025c0.969,0.225,1.981,0.467,2.962,0.257
									c0.973-0.196,1.806-0.696,2.577-1.173c0.775-0.477,1.507-0.986,2.295-1.274c1.594-0.569,3.24-0.492,4.628-0.148
									c1.401,0.35,2.551,1.035,3.428,1.766c0.882,0.74,1.453,1.563,1.891,2.239c0.396,0.705,0.673,1.272,0.81,1.677
									c0.076,0.189,0.135,0.339,0.181,0.452c0.042,0.101,0.066,0.153,0.069,0.152c0.004-0.001-0.012-0.055-0.046-0.159
									c-0.04-0.115-0.092-0.268-0.159-0.461c-0.123-0.412-0.387-0.989-0.775-1.707c-0.431-0.69-0.997-1.532-1.885-2.293
									c-0.881-0.753-2.046-1.46-3.472-1.828c-1.413-0.361-3.089-0.453-4.739,0.126c-0.825,0.299-1.562,0.809-2.336,1.281
									c-0.77,0.473-1.585,0.954-2.51,1.136c-0.924,0.196-1.894-0.035-2.869-0.264c-0.491-0.111-0.993-0.229-1.518-0.265
									c-0.522-0.037-1.076,0.02-1.576,0.25c-0.503,0.224-0.912,0.618-1.236,1.05c-0.329,0.433-0.595,0.905-0.872,1.366
									c-0.277,0.46-0.565,0.917-0.937,1.297c-0.37,0.38-0.847,0.638-1.373,0.728c-1.064,0.176-2.165-0.185-3.28,0.038
									c-0.552,0.116-1.073,0.438-1.381,0.912c-0.316,0.466-0.456,1.004-0.553,1.521c-0.192,1.035-0.205,2.087-0.641,2.966
									c-0.219,0.43-0.548,0.791-0.971,1.01c-0.417,0.231-0.883,0.363-1.34,0.516c-0.455,0.152-0.923,0.317-1.314,0.617
									c-0.401,0.29-0.663,0.728-0.819,1.166c-0.304,0.885-0.312,1.793-0.659,2.553c-0.326,0.775-1.05,1.239-1.758,1.555
									c-0.715,0.324-1.449,0.556-2.097,0.913c-1.308,0.725-2.088,1.883-2.648,2.881c-0.56,1.017-0.943,1.938-1.283,2.675
									c-0.328,0.733-0.584,1.306-0.765,1.71c-0.081,0.188-0.145,0.335-0.193,0.447
									C209.433,107.55,209.413,107.603,209.417,107.604z"/>
							</g>
						</g>
					</g>
					<g>
						<g>
							<g>
								<path style="fill:#455A64;" d="M217.719,99.444c0.001-0.004-0.047-0.012-0.143-0.025c-0.094,0.002-0.245,0.003-0.415,0.092
									c-0.339,0.166-0.721,0.661-0.777,1.382c-0.022,0.363,0.068,0.751,0.167,1.166c0.098,0.414,0.224,0.865,0.201,1.35
									c-0.024,0.486-0.247,0.973-0.55,1.44c-0.303,0.47-0.688,0.931-1,1.491c-0.321,0.543-0.476,1.296-0.195,1.963
									c0.249,0.664,0.731,1.22,0.967,1.895c0.244,0.676,0.1,1.444-0.214,2.147c-0.304,0.713-0.738,1.403-1.036,2.196
									c-0.151,0.393-0.253,0.824-0.251,1.266c0.001,0.442,0.112,0.885,0.296,1.291c0.376,0.814,0.972,1.492,1.483,2.224
									c0.511,0.72,0.939,1.567,0.823,2.47c-0.1,0.901-0.607,1.725-0.944,2.632c-0.169,0.455-0.294,0.938-0.29,1.434
									c0.008,0.494,0.148,0.976,0.365,1.402c0.441,0.857,1.102,1.524,1.682,2.207c0.586,0.68,1.111,1.387,1.363,2.208
									c0.279,0.809,0.423,1.663,0.808,2.428c0.192,0.38,0.455,0.73,0.792,0.987c0.337,0.261,0.729,0.408,1.103,0.532
									c0.376,0.124,0.746,0.228,1.081,0.386c0.331,0.164,0.636,0.369,0.901,0.614c0.527,0.495,0.919,1.09,1.277,1.669
									c0.358,0.581,0.691,1.152,1.064,1.664c0.74,1.039,1.757,1.702,2.716,2c0.96,0.312,1.85,0.342,2.548,0.245
									c0.702-0.096,1.223-0.29,1.554-0.454c0.332-0.166,0.49-0.281,0.49-0.281c-0.015-0.048-0.661,0.472-2.055,0.644
									c-0.688,0.082-1.56,0.038-2.494-0.279c-0.936-0.306-1.909-0.954-2.623-1.973c-0.362-0.506-0.687-1.074-1.043-1.661
									c-0.356-0.585-0.751-1.196-1.3-1.717c-0.276-0.258-0.597-0.478-0.948-0.653c-0.355-0.169-0.733-0.276-1.102-0.4
									c-0.368-0.124-0.735-0.265-1.039-0.504c-0.307-0.235-0.547-0.556-0.727-0.916c-0.364-0.724-0.507-1.571-0.789-2.403
									c-0.259-0.853-0.814-1.605-1.401-2.286c-0.585-0.688-1.232-1.351-1.647-2.161c-0.205-0.403-0.332-0.846-0.339-1.3
									c-0.004-0.453,0.112-0.907,0.275-1.347c0.324-0.881,0.844-1.715,0.956-2.688c0.059-0.482-0.022-0.974-0.191-1.415
									c-0.17-0.443-0.416-0.841-0.676-1.215c-0.522-0.743-1.11-1.414-1.467-2.185c-0.174-0.384-0.276-0.791-0.278-1.198
									c-0.003-0.407,0.089-0.81,0.233-1.19c0.284-0.764,0.713-1.456,1.023-2.19c0.32-0.719,0.478-1.559,0.207-2.293
									c-0.262-0.722-0.748-1.272-0.982-1.895c-0.261-0.619-0.131-1.287,0.172-1.819c0.294-0.541,0.675-1.007,0.979-1.489
									c0.304-0.479,0.536-0.996,0.555-1.515c0.017-0.516-0.121-0.973-0.224-1.384c-0.105-0.41-0.199-0.793-0.184-1.134
									c0.039-0.69,0.393-1.176,0.707-1.345C217.511,99.384,217.723,99.467,217.719,99.444z"/>
							</g>
						</g>
					</g>
					<g>
						<g>
							<g>
								<path style="fill:#E0E0E0;" d="M274.043,124.642c0,0,0.472,0.14,1.167,0.675c0.68,0.525,1.575,1.554,1.892,3.116
									c0.167,0.77,0.171,1.656-0.062,2.559c-0.248,0.895-0.719,1.798-1.428,2.567c-0.698,0.774-1.628,1.421-2.712,1.782
									c-1.08,0.369-2.315,0.404-3.478,0.075c-1.164-0.326-2.206-0.968-2.974-1.813c-0.775-0.841-1.248-1.888-1.418-2.919
									c-0.336-2.085,0.433-4.012,1.535-5.131c0.565-0.566,1.205-0.903,1.775-1.145c0.575-0.24,1.104-0.355,1.539-0.401
									c0.436-0.043,0.779-0.014,1.004,0.035c0.225,0.051,0.336,0.1,0.333,0.106c-0.005,0.035-0.471-0.151-1.324-0.026
									c-0.421,0.062-0.934,0.19-1.487,0.439c-0.548,0.249-1.166,0.594-1.688,1.138c-1.038,1.09-1.752,2.949-1.416,4.938
									c0.171,0.984,0.622,1.968,1.362,2.766c0.732,0.801,1.729,1.413,2.838,1.724c1.11,0.314,2.277,0.282,3.305-0.065
									c1.032-0.34,1.927-0.953,2.601-1.69c0.685-0.732,1.144-1.593,1.392-2.447c0.232-0.858,0.241-1.708,0.094-2.452
									c-0.279-1.509-1.116-2.526-1.759-3.067C274.479,124.856,274.025,124.674,274.043,124.642z"/>
							</g>
						</g>
					</g>
					<g>
						<g>
							<g>
								<g>
									<g>
										<g>
											<g>
												<path style="fill:#263238;" d="M249.804,114.59c-0.07,0.892,0.627,1.688,1.558,1.778c0.929,0.09,1.74-0.557,1.811-1.45
													c0.07-0.892-0.627-1.688-1.556-1.779C250.686,113.048,249.874,113.698,249.804,114.59z"/>
											</g>
										</g>
									</g>
								</g>
							</g>
						</g>
					</g>
					<g>
						<g>
							<g>
								<g>
									<g>
										<g>
											<g>
												<path style="fill:#263238;" d="M234.371,114.332c-0.071,0.892,0.627,1.688,1.558,1.778c0.928,0.09,1.74-0.558,1.81-1.45
													c0.07-0.892-0.627-1.688-1.556-1.779C235.253,112.79,234.442,113.44,234.371,114.332z"/>
											</g>
										</g>
									</g>
								</g>
							</g>
						</g>
					</g>
					<g>
						<g>
							<g>
								<g>
									<g>
										<g>
											<g>
												<g>
													<path style="fill:#263238;" d="M232.593,107.938c0.163,0.255,1.456-0.625,3.119-0.439
														c1.663,0.158,2.761,1.285,2.971,1.067c0.101-0.095-0.042-0.539-0.518-1.046c-0.468-0.504-1.307-1.037-2.343-1.144
														c-1.036-0.106-1.961,0.243-2.518,0.642C232.737,107.418,232.512,107.824,232.593,107.938z"/>
												</g>
											</g>
										</g>
									</g>
								</g>
							</g>
						</g>
					</g>
					<g>
						<g>
							<g>
								<g>
									<g>
										<g>
											<g>
												<g>
													<path style="fill:#263238;" d="M248.477,109.306c0.228,0.261,1.652-0.846,3.651-0.827
														c1.998-0.013,3.453,1.099,3.673,0.839c0.108-0.116-0.119-0.586-0.754-1.089c-0.623-0.501-1.69-0.991-2.936-0.993
														c-1.246,0-2.3,0.485-2.91,0.984C248.581,108.721,248.366,109.189,248.477,109.306z"/>
												</g>
											</g>
										</g>
									</g>
								</g>
							</g>
						</g>
					</g>
				</g>
			</g>
			<g>
				<g>
					<path style="fill:#6F4439;" d="M249.024,125.632c-0.693-0.617-1.633-0.997-2.553-0.874c-0.92,0.122-1.778,0.812-1.956,1.723
						c-0.103,0.527,0.017,1.07,0.17,1.584c0.085,0.283,0.185,0.573,0.386,0.789c0.409,0.438,1.092,0.442,1.689,0.394
						c1.141-0.093,2.276-0.265,3.394-0.514c0.372-0.083,0.56-0.501,0.393-0.844C250.149,127.075,249.557,126.106,249.024,125.632z"
						/>
				</g>
			</g>
			<g>
				<g>
					<g>
						<path style="fill:#263238;" d="M245.448,129.142c-0.002-0.079,0.835-0.131,2.16-0.332c0.662-0.103,1.445-0.251,2.294-0.484
							c0.216-0.064,0.47-0.106,0.578-0.181c0.088-0.06,0.107-0.146,0.038-0.34c-0.175-0.38-0.456-0.827-0.753-1.206
							c-0.607-0.78-1.394-1.337-2.207-1.541c-0.804-0.216-1.612-0.095-2.114,0.244c-0.514,0.346-0.723,0.863-0.817,1.206
							c-0.096,0.353-0.107,0.565-0.149,0.565c-0.029,0.001-0.089-0.21-0.05-0.603c0.04-0.378,0.206-0.998,0.8-1.466
							c0.594-0.46,1.516-0.629,2.445-0.412c0.937,0.204,1.846,0.836,2.502,1.684c0.334,0.435,0.599,0.844,0.823,1.35
							c0.049,0.136,0.09,0.3,0.058,0.486c-0.026,0.182-0.158,0.366-0.306,0.452c-0.299,0.166-0.517,0.162-0.726,0.227
							c-0.881,0.215-1.691,0.328-2.37,0.386C246.29,129.286,245.449,129.206,245.448,129.142z"/>
					</g>
				</g>
			</g>
		</g>
		<g>
			<g>
				<g>
					<g>
						<g>
							<g>
								<g>
									<g>
										<g>
											<g>
												<g>
													<g>
														<g>
															<path style="fill:#263238;" d="M285.673,438.243l-2.264,24.827l4.134,20.13c0.298,1.451-0.752,2.84-2.287,3.025l0,0
																c-0.859,0.104-1.712-0.191-2.298-0.801c-3.727-3.883-17.363-18.234-17.091-20.042
																c0.315-2.094,0.569-26.339,0.569-26.339L285.673,438.243z"/>
														</g>
													</g>
												</g>
											</g>
										</g>
									</g>
								</g>
							</g>
						</g>
						<g>
							<g>
								<g>
									<g>
										<g>
											<g>
												<g>
													<g>
														<g>
															<path style="fill:#455A64;" d="M285.255,486.225l-19.25-23.149l-0.096,1.682c-0.061,0.911-0.289,1.278,0.282,2.009
																c1.528,1.957,6.373,7.809,16.688,18.653C283.479,486.05,284.374,486.354,285.255,486.225L285.255,486.225z"/>
														</g>
													</g>
												</g>
											</g>
										</g>
									</g>
								</g>
							</g>
						</g>
						<g>
							<g>
								<g>
									<g>
										<g>
											<g>
												<g>
													<g>
														<g>
															<g>
																<path style="fill:#E0E0E0;" d="M271.398,457.811c0.623,0.471,0.773,1.426,0.307,2.04
																	c-0.467,0.614-1.482,0.768-2.114,0.308c-0.632-0.46-0.848-1.602-0.313-2.162c0.536-0.56,1.738-0.679,2.236-0.087"/>
															</g>
														</g>
													</g>
												</g>
											</g>
										</g>
									</g>
								</g>
							</g>
						</g>
						<g>
							<g>
								<g>
									<g>
										<g>
											<g>
												<g>
													<g>
														<g>
															<g>
																<path style="fill:#FFFFFF;" d="M279.722,473.48c0.124,0.105,1.04-0.999,2.725-1.27
																	c1.674-0.319,2.971,0.396,3.044,0.256c0.038-0.053-0.229-0.326-0.795-0.565c-0.561-0.24-1.434-0.393-2.361-0.231
																	c-0.926,0.164-1.676,0.601-2.101,1.015C279.803,473.1,279.665,473.444,279.722,473.48z"/>
															</g>
														</g>
													</g>
												</g>
											</g>
										</g>
									</g>
								</g>
							</g>
						</g>
						<g>
							<g>
								<g>
									<g>
										<g>
											<g>
												<g>
													<g>
														<g>
															<g>
																<path style="fill:#FFFFFF;" d="M278.433,467.827c0.115,0.115,1.116-0.914,2.816-1.051
																	c1.694-0.186,2.93,0.629,3.014,0.495c0.042-0.05-0.202-0.343-0.748-0.626c-0.54-0.284-1.399-0.504-2.336-0.416
																	c-0.936,0.091-1.719,0.467-2.174,0.846C278.544,467.454,278.379,467.786,278.433,467.827z"/>
															</g>
														</g>
													</g>
												</g>
											</g>
										</g>
									</g>
								</g>
							</g>
						</g>
						<g>
							<g>
								<g>
									<g>
										<g>
											<g>
												<g>
													<g>
														<g>
															<g>
																<path style="fill:#FFFFFF;" d="M281.667,478.438c0.117,0.115,1.006-0.642,2.377-0.928
																	c1.364-0.315,2.51-0.005,2.562-0.157c0.084-0.122-1.134-0.727-2.691-0.376
																	C282.355,477.311,281.536,478.362,281.667,478.438z"/>
															</g>
														</g>
													</g>
												</g>
											</g>
										</g>
									</g>
								</g>
							</g>
						</g>
						<g>
							<g>
								<g>
									<g>
										<g>
											<g>
												<g>
													<g>
														<g>
															<g>
																<path style="fill:#FFFFFF;" d="M276.524,461.916c0.06,0.153,1.536-0.333,3.411-0.282
																	c1.876,0.026,3.329,0.571,3.395,0.42c0.08-0.117-1.367-0.935-3.383-0.967
																	C277.932,461.037,276.45,461.796,276.524,461.916z"/>
															</g>
														</g>
													</g>
												</g>
											</g>
										</g>
									</g>
								</g>
							</g>
						</g>
					</g>
				</g>
				<g>
					<g>
						<g>
							<g>
								<g>
									<g>
										<g>
											<g>
												<g>
													<g>
														<g>
															<g>
																<g>
																	<g>
																		<g>
																			<g>
																				<path style="fill:#263238;" d="M232.76,437.78l1.179,20.567c0,0-21.48,8.053-21.649,11.874l41.811-0.753
																					l-0.461-32.118L232.76,437.78z"/>
																			</g>
																		</g>
																	</g>
																</g>
															</g>
														</g>
													</g>
												</g>
											</g>
										</g>
									</g>
								</g>
							</g>
						</g>
						<g>
							<g>
								<g>
									<g>
										<g>
											<g>
												<g>
													<g>
														<g>
															<g>
																<g>
																	<g>
																		<g>
																			<g>
																				<g>
																					<path style="fill:#E0E0E0;" d="M246.834,456.384c0.813,0.197,1.39,1.056,1.217,1.841
																						c-0.172,0.785-1.082,1.352-1.899,1.169c-0.817-0.183-1.542-1.194-1.278-1.956
																						c0.263-0.761,1.369-1.372,2.116-1.007"/>
																				</g>
																			</g>
																		</g>
																	</g>
																</g>
															</g>
														</g>
													</g>
												</g>
											</g>
										</g>
									</g>
								</g>
							</g>
						</g>
						<g>
							<g>
								<g>
									<g>
										<g>
											<g>
												<g>
													<g>
														<g>
															<g>
																<g>
																	<g>
																		<g>
																			<g>
																				<path style="fill:#455A64;" d="M254.102,469.469l-0.047-3.242l-40.154,1.938c0,0-1.846,0.807-1.611,2.057
																					L254.102,469.469z"/>
																			</g>
																		</g>
																	</g>
																</g>
															</g>
														</g>
													</g>
												</g>
											</g>
										</g>
									</g>
								</g>
							</g>
						</g>
						<g>
							<g>
								<g>
									<g>
										<g>
											<g>
												<g>
													<g>
														<g>
															<g>
																<g>
																	<g>
																		<g>
																			<g>
																				<g>
																					<path style="fill:#FFFFFF;" d="M233.258,458.157c0.011,0.195,1.033,0.265,2.05,0.874
																						c1.034,0.584,1.568,1.42,1.755,1.339c0.187-0.041-0.14-1.202-1.385-1.919
																						C234.44,457.723,233.21,457.978,233.258,458.157z"/>
																				</g>
																			</g>
																		</g>
																	</g>
																</g>
															</g>
														</g>
													</g>
												</g>
											</g>
										</g>
									</g>
								</g>
							</g>
						</g>
						<g>
							<g>
								<g>
									<g>
										<g>
											<g>
												<g>
													<g>
														<g>
															<g>
																<g>
																	<g>
																		<g>
																			<g>
																				<g>
																					<path style="fill:#FFFFFF;" d="M228.907,459.969c-0.043,0.19,0.848,0.506,1.557,1.319
																						c0.735,0.793,0.927,1.682,1.131,1.669c0.192,0.028,0.311-1.118-0.592-2.112
																						C230.11,459.843,228.907,459.783,228.907,459.969z"/>
																				</g>
																			</g>
																		</g>
																	</g>
																</g>
															</g>
														</g>
													</g>
												</g>
											</g>
										</g>
									</g>
								</g>
							</g>
						</g>
						<g>
							<g>
								<g>
									<g>
										<g>
											<g>
												<g>
													<g>
														<g>
															<g>
																<g>
																	<g>
																		<g>
																			<g>
																				<g>
																					<path style="fill:#FFFFFF;" d="M226.515,465.03c0.186,0.038,0.451-0.942-0.094-2.001
																						c-0.538-1.063-1.508-1.467-1.592-1.303c-0.112,0.163,0.519,0.724,0.953,1.601
																						C226.237,464.193,226.312,465.014,226.515,465.03z"/>
																				</g>
																			</g>
																		</g>
																	</g>
																</g>
															</g>
														</g>
													</g>
												</g>
											</g>
										</g>
									</g>
								</g>
							</g>
						</g>
						<g>
							<g>
								<g>
									<g>
										<g>
											<g>
												<g>
													<g>
														<g>
															<g>
																<g>
																	<g>
																		<g>
																			<g>
																				<g>
																					<path style="fill:#FFFFFF;" d="M233.533,453.441c0.089,0.176,1.021-0.11,2.176-0.055
																						c1.157,0.032,2.062,0.385,2.165,0.216c0.116-0.143-0.776-0.85-2.138-0.895
																						C234.376,452.651,233.43,453.289,233.533,453.441z"/>
																				</g>
																			</g>
																		</g>
																	</g>
																</g>
															</g>
														</g>
													</g>
												</g>
											</g>
										</g>
									</g>
								</g>
							</g>
						</g>
					</g>
				</g>
				<g>
					<g>
						<path style="fill:#263238;" d="M221.981,240.527c-0.448,0.672-12.43,33.899-10.862,45.322
							c1.568,11.423,9.183,45.244,9.183,45.244s4.704,19.262,3.808,26.878c-0.896,7.615-0.531,33.109,2.016,48.38
							c2.941,17.636,6.082,49.242,6.082,49.242h23.789v-96.805l3.503-58.155l3.136-42.332L221.981,240.527z"/>
					</g>
				</g>
				<g>
					<g>
						<path style="fill:#263238;" d="M295.527,240.527c0.448,0.672,13.553,35.837,11.985,47.26
							c-1.568,11.423-9.183,45.244-9.183,45.244s-4.528,19.244-3.808,26.878c1.368,14.488,0.967,36.603-0.549,49.555
							c-2.023,17.288-6.379,44.323-6.379,44.323l-22.832,0.439l-1.774-85.539l-3.855-66.117l-3.136-42.332L295.527,240.527z"/>
					</g>
				</g>
			</g>
			<g style="opacity:0.3;">
				<g>
					<path d="M215.446,260.366l1.78-5.521l84.27,2.76l1.565,5.149c0,0-14.402,15.005-45.266,12.199S215.446,260.366,215.446,260.366
						z"/>
				</g>
			</g>
		</g>
		<g>
			<g>
				<g>
					<g>
						<g>
							<path style="fill:#FF725E;" d="M241.179,149.103l-2.532,0.852l-7.969-0.112l-14.201,9.6l8.166,45.553l3.561,15.757
								l-12.084,36.016c0,0,19.262,18.142,50.172,15.679c30.909-2.464,36.217-12.519,36.217-12.519l-11.509-44.451
								c0,0,0-25.854-0.865-39.17c-0.144-2.223-8.944-28.932-8.944-28.932l-10.929,1.727l-3.089-0.775
								c0,0-0.896,12.333-13.82,12.958C239.089,161.976,241.179,149.103,241.179,149.103z"/>
						</g>
					</g>
				</g>
			</g>
			<g>
				<g>
					<g>
						<path style="fill:#AE7461;" d="M218.88,125.845c0,0-31.383,8.811-42.591,14.585c-9.961,5.131-10.052,16.283-4.793,21.499
							c4.339,4.303,22.127,9.22,34.372,12.612c5.842,1.619,9.699,0,9.699,0l-5.208-24.742l-11.021,0.006l24.005-13.01
							L218.88,125.845z"/>
					</g>
				</g>
				<g>
					<g>
						<path style="fill:#FF725E;" d="M230.908,149.846c0,0-11.769,0.054-19.574-0.304c-7.416-0.341-7.518,0.12-7.518,0.12
							s9.676,2.283,8.37,14.292c-0.84,7.721-7.354,10.373-7.354,10.373s0,2.318,7.535,0.725c0,0,2.753,0.435,5.941,5.941
							c3.188,5.506,9.274-5.072,9.274-5.506C227.58,175.051,230.908,149.846,230.908,149.846z"/>
					</g>
				</g>
				<g>
					<g>
						<path style="fill:#FF725E;" d="M281.135,147.35c0,0-1.557,0.057,1.014,11.302c2.279,9.965,6.385,20.123,6.385,20.123
							s6.062-2.288,14.625-4.763c0,0,3.478,0.435,4.927-9.853c1.449-10.288-1.159-19.127-1.159-19.127s-14.925,0.869-17.967,1.304
							c-3.043,0.435-4.492,1.014-4.492,1.014H281.135z"/>
					</g>
				</g>
				<g>
					<g>
						<path style="fill:#AE7461;" d="M277.41,123.176c0.387,0.29,35.73,4.059,47.457,9.275c11.727,5.216,5.799,17.823,3.995,20.286
							c-1.804,2.463-16.228,8.694-23.256,11.157c-7.028,2.463-8.233,3.617-8.233,3.617s-2.417-5.24-0.136-15.015
							c1.426-6.112,6.754-8.018,6.754-8.018l-31.973-10.063L277.41,123.176z"/>
					</g>
				</g>
				<g>
					<g>
						<g>
							<path style="fill:#6F4439;" d="M201.297,148.743c0.027,0.069-1.077,0.598-2.724,1.709c-1.666,1.081-3.866,2.727-6.461,4.348
								c-2.626,1.648-5.434,2.302-7.448,2.358c-1.011,0.03-1.827-0.076-2.377-0.194c-0.551-0.115-0.841-0.235-0.834-0.263
								c0.017-0.096,1.226,0.237,3.191,0.089c1.946-0.147,4.654-0.838,7.197-2.435c2.561-1.599,4.809-3.207,6.536-4.215
								C200.089,149.1,201.274,148.677,201.297,148.743z"/>
						</g>
					</g>
				</g>
				<g>
					<g>
						<path style="fill:#AE7461;" d="M218.88,125.845c0,0-0.487-8.089-0.363-10.527c0.125-2.438,0.18-3.198,0.18-3.198
							s3.642-8.811,4.456-9.848c0.814-1.037,8.877-6.828,8.877-6.828l0.467-0.119l2.448-1.786c0,0,2.224,0.262,1.415,2.294
							c0,0,2.769,0.123,0.447,3.702c0,0-5.006,5.093-5.219,5.231c-0.214,0.137-2.788,4.03-2.574,3.892
							c0.214-0.137,5.836-6.716,7.299-6.508c1.463,0.207,2.156,0.864,0.835,3.101c-0.665,1.127-6.244,7.239-6.627,8.664
							c-0.383,1.425-1.98,5.898-1.387,7.572c0.593,1.674,1.682,9.195,0.54,10.896c-1.142,1.702-6.84,4.686-6.84,4.686l-7.266-9.533
							L218.88,125.845z"/>
					</g>
				</g>
				<g>
					<g>
						<g>
							<path style="fill:#6F4439;" d="M236.296,95.965c0.054,0.041-0.55,0.828-1.822,1.739c-1.277,0.879-2.932,2.185-4.843,3.586
								c-0.923,0.716-1.932,1.323-2.566,2.012c-0.294,0.352-0.504,0.799-0.708,1.202c-0.199,0.39-0.389,0.763-0.572,1.122
								c-0.707,1.369-1.179,2.204-1.244,2.175c-0.066-0.029,0.287-0.918,0.913-2.336c0.166-0.37,0.338-0.755,0.518-1.157
								c0.19-0.412,0.374-0.865,0.723-1.312c0.741-0.834,1.69-1.392,2.623-2.122c1.89-1.386,3.625-2.678,4.948-3.473
								C235.566,96.584,236.239,95.913,236.296,95.965z"/>
						</g>
					</g>
				</g>
				<g>
					<g>
						<path style="fill:#AE7461;" d="M257.218,102.494c0,0-1.225,0.945,0.865,2.619c2.089,1.674,5.485,5.657,5.485,5.657
							l2.873,9.207c0,0,1.11,11.035,2.22,12.471c1.11,1.436,4.375,2.285,4.375,2.285l6.287-9.86l-1.912-1.698
							c0,0-2.612-12.733-3.526-14.234c-0.914-1.502-1.959-7.079-2.938-8.11c-0.979-1.031-8.488-3.578-8.488-3.578l-6.052-2.589
							c0,0-1.362,1.271,0.027,2.61c0,0-2.006,1.22-0.243,2.852c1.763,1.632,7.901,4.986,7.901,4.986l1.698,2
							c0,0-6.595-4.571-7.574-4.701S257.218,102.494,257.218,102.494z"/>
					</g>
				</g>
				<g>
					<g>
						<g>
							<path style="fill:#6F4439;" d="M309.145,143.637c0.028,0.152-1.683,0.532-3.777,0.971c-2.1,0.424-3.742,0.944-3.797,0.821
								c-0.066-0.139,1.558-0.901,3.688-1.33C307.379,143.654,309.122,143.505,309.145,143.637z"/>
						</g>
					</g>
				</g>
				<g>
					<g>
						<g>
							<path style="fill:#6F4439;" d="M310.126,145.88c-0.077,0.112-1.111-0.685-1.573-2.161c-0.477-1.472-0.094-2.72,0.033-2.673
								c0.152,0.022,0.027,1.188,0.463,2.515C309.461,144.894,310.237,145.773,310.126,145.88z"/>
						</g>
					</g>
				</g>
				<g>
					<g>
						<g>
							<g>
								<path style="fill:#6F4439;" d="M264.09,105.113c-0.015,0.028-0.331-0.107-0.894-0.385c-0.563-0.279-1.372-0.701-2.369-1.257
									c-0.994-0.561-2.184-1.238-3.462-2.114c-0.615-0.459-1.348-0.89-1.844-1.698c-0.234-0.397-0.369-0.923-0.24-1.419
									c0.115-0.501,0.398-0.913,0.79-1.258l0.114-0.1l0.151,0.068c0.922,0.42,1.875,0.853,2.852,1.297
									c1.986,0.915,3.877,1.787,5.614,2.587c0.853,0.419,1.693,0.719,2.446,1.268c0.661,0.655,0.972,1.38,1.33,2.013
									c0.653,1.299,1.051,2.393,1.412,3.104c0.331,0.729,0.5,1.142,0.468,1.16c-0.031,0.017-0.261-0.363-0.65-1.071
									c-0.421-0.695-0.874-1.772-1.555-3.019c-0.359-0.6-0.729-1.34-1.292-1.864c-0.622-0.431-1.504-0.755-2.359-1.155
									c-1.742-0.789-3.64-1.648-5.631-2.55c-0.975-0.447-1.927-0.884-2.848-1.306l0.264-0.032c-0.287,0.249-0.543,0.61-0.619,0.97
									c-0.099,0.364-0.007,0.739,0.176,1.067c0.382,0.657,1.083,1.118,1.68,1.573c1.238,0.886,2.406,1.595,3.372,2.192
									c0.905,0.548,1.667,1.01,2.288,1.386C263.818,104.898,264.105,105.085,264.09,105.113z"/>
							</g>
						</g>
					</g>
					<g>
						<g>
							<g>
								<path style="fill:#6F4439;" d="M267.835,109.411c-0.019,0.015-0.223-0.209-0.586-0.641
									c-0.195-0.235-0.415-0.499-0.664-0.799c-0.136-0.151-0.28-0.31-0.431-0.477c-0.189-0.133-0.387-0.272-0.595-0.418
									c-1.761-1.13-4.387-2.611-7.464-4.469l0.023,0.012c-0.248-0.128-0.58-0.118-0.725,0.029l-0.013,0.013l-0.02,0.018
									c-0.202,0.179-0.311,0.509-0.236,0.816c0.078,0.317,0.29,0.626,0.546,0.904c0.527,0.527,1.246,1.048,1.845,1.651
									c1.239,1.188,2.451,2.501,3.665,3.878c0.196,0.226,0.392,0.451,0.584,0.673l0.034,0.04l0.016,0.052
									c1.026,3.322,1.993,6.453,2.846,9.215l0.007,0.023l0.002,0.023c0.373,3.76,0.781,6.911,1.151,9.106
									c0.181,1.099,0.375,1.952,0.533,2.526c0.155,0.577,0.337,0.837,0.306,0.862c-0.01,0.008-0.059-0.055-0.146-0.188
									c-0.101-0.129-0.183-0.346-0.298-0.628c-0.205-0.57-0.445-1.424-0.666-2.521c-0.451-2.194-0.924-5.342-1.341-9.111
									l0.009,0.046c-0.869-2.757-1.854-5.882-2.9-9.198l0.05,0.091c-0.191-0.22-0.385-0.443-0.579-0.667
									c-1.208-1.368-2.411-2.679-3.625-3.855c-0.599-0.611-1.241-1.066-1.855-1.685c-0.284-0.317-0.546-0.682-0.654-1.133
									c-0.098-0.46,0.036-0.969,0.419-1.289l-0.033,0.03c0.411-0.393,0.941-0.289,1.265-0.134l0.015,0.007l0.009,0.005
									c3.06,1.9,5.639,3.429,7.379,4.638c0.215,0.164,0.423,0.314,0.607,0.467c0.15,0.183,0.293,0.356,0.429,0.521
									c0.23,0.315,0.434,0.594,0.614,0.841C267.689,109.144,267.855,109.396,267.835,109.411z"/>
							</g>
						</g>
					</g>
					<g>
						<g>
							<g>
								<path style="fill:#6F4439;" d="M256.433,97.275c-0.063,0.079-0.779-0.294-0.996-1.311c-0.096-0.522,0.212-1,0.471-1.166
									c0.262-0.189,0.472-0.196,0.498-0.133c0.081,0.119-0.572,0.531-0.453,1.23C256.081,96.599,256.569,97.174,256.433,97.275z"
									/>
							</g>
						</g>
					</g>
				</g>
			</g>
			<g>
				<g>
					<g>
						<path style="fill:#FF725E;" d="M220.236,165.996c1.13,4.318-5.556,16.58,4.615,39.912"/>
					</g>
				</g>
				<g>
					<g>
						<g>
							<path style="fill:#263238;" d="M224.851,205.909c-0.033,0.014-0.278-0.502-0.695-1.449c-0.389-0.957-1.067-2.301-1.645-4.061
								c-1.297-3.458-2.78-8.412-3.35-14.054c-0.338-2.815-0.319-5.524-0.221-7.972c0.117-2.452,0.439-4.639,0.713-6.466
								c0.289-1.826,0.54-3.296,0.594-4.318c0.013-0.245,0.026-0.471,0.037-0.68c-0.016-0.179-0.03-0.342-0.043-0.493
								c-0.02-0.269-0.023-0.414-0.006-0.419c0.017-0.005,0.054,0.132,0.109,0.402c0.029,0.154,0.06,0.32,0.094,0.503
								c0.003,0.213,0.007,0.443,0.011,0.692c0.007,1.045-0.191,2.537-0.432,4.364c-0.227,1.83-0.508,4.007-0.598,6.438
								c-0.071,2.427-0.076,5.107,0.26,7.895c0.564,5.586,1.977,10.513,3.18,13.988c0.53,1.767,1.154,3.127,1.485,4.105
								C224.701,205.351,224.884,205.894,224.851,205.909z"/>
						</g>
					</g>
				</g>
			</g>
			<g>
				<g>
					<g>
						<path style="fill:#263238;" d="M304.744,173.158c-0.001,0.018-0.12,0.022-0.35,0.012c-0.231,0.002-0.566-0.044-0.995-0.134
							c-0.852-0.185-2.063-0.67-3.28-1.67c-1.221-0.984-2.421-2.481-3.256-4.383c-0.869-1.904-1.191-4.194-1.272-6.562
							c0.024-4.757,1.212-9.015,2.824-11.696c0.808-1.339,1.708-2.26,2.408-2.781c0.339-0.274,0.658-0.41,0.85-0.531
							c0.2-0.11,0.309-0.159,0.317-0.144c0.025,0.042-0.383,0.298-1.04,0.832c-0.644,0.556-1.471,1.483-2.217,2.808
							c-1.487,2.645-2.599,6.853-2.622,11.504c0.08,2.315,0.38,4.548,1.192,6.379c0.781,1.843,1.906,3.308,3.052,4.291
							c1.143,0.999,2.283,1.517,3.096,1.756C304.267,173.086,304.75,173.099,304.744,173.158z"/>
					</g>
				</g>
			</g>
			<g>
				<g>
					<g>
						<path style="fill:#FF725E;" d="M290.751,198.485c1.194-18.193-2.21-31.476-3.411-38.582"/>
					</g>
				</g>
				<g>
					<g>
						<g>
							<path style="fill:#263238;" d="M287.34,159.903c0.036-0.006,0.163,0.524,0.368,1.485c0.222,1.055,0.51,2.426,0.856,4.075
								c0.698,3.446,1.579,8.239,2.1,13.591c0.554,5.351,0.597,10.23,0.497,13.748c-0.049,1.76-0.137,3.182-0.23,4.163
								c-0.081,0.981-0.143,1.522-0.179,1.519c-0.036-0.002-0.042-0.547-0.023-1.53c0.031-0.982,0.062-2.403,0.064-4.158
								c0.006-3.509-0.095-8.363-0.647-13.691c-0.518-5.329-1.338-10.113-1.943-13.575c-0.281-1.662-0.514-3.044-0.694-4.107
								C287.365,160.45,287.305,159.909,287.34,159.903z"/>
						</g>
					</g>
				</g>
			</g>
			<g>
				<g>
					<g>
						<path style="fill:#263238;" d="M276.667,217.746c-0.001,0.036-0.537,0.059-1.506,0.07c-0.97,0.013-2.373,0.001-4.106-0.04
							c-3.466-0.081-8.253-0.314-13.524-0.79c-5.272-0.48-10.023-1.111-13.448-1.655c-1.712-0.271-3.094-0.511-4.046-0.699
							c-0.952-0.185-1.475-0.304-1.469-0.34c0.006-0.036,0.54,0.016,1.501,0.14c1.055,0.139,2.422,0.318,4.066,0.535
							c3.433,0.45,8.181,1.022,13.442,1.501c5.259,0.475,10.033,0.766,13.491,0.941c1.656,0.083,3.034,0.152,4.096,0.205
							C276.132,217.665,276.667,217.71,276.667,217.746z"/>
					</g>
				</g>
			</g>
			<g style="opacity:0.3;">
				<g>
					<g>
						<path d="M249.097,227.231c11.84,3.926,25.32,2.588,36.157-3.59C272.794,225.117,261.558,225.755,249.097,227.231z"/>
					</g>
				</g>
			</g>
			<g>
				<g>
					<g>
						<path style="fill:#6F4439;" d="M227.301,134.415c-0.019-0.037,0.437-0.258,1.138-0.815c0.345-0.28,0.752-0.657,1.073-1.183
							c0.151-0.266,0.276-0.569,0.318-0.903c0.027-0.351,0.036-0.731,0.022-1.133c-0.046-1.608-0.22-3.531-0.471-5.653
							c-0.132-1.063-0.274-2.168-0.514-3.305c-0.159-1.261,0.087-2.447,0.291-3.679c0.287-1.54,0.644-3.01,1.017-4.381l0.014-0.05
							l0.032-0.04c2.428-3.02,4.556-5.622,6.155-7.414c0.406-0.46,0.813-0.798,1.025-1.193c0.231-0.387,0.309-0.776,0.335-1.09
							c0.038-0.638-0.117-0.978-0.081-0.988c0.017-0.014,0.237,0.31,0.254,0.993c0.001,0.336-0.058,0.767-0.288,1.204
							c-0.217,0.454-0.637,0.835-1.004,1.285c-1.521,1.837-3.6,4.482-6.002,7.517l0.046-0.09c-0.358,1.357-0.708,2.824-0.991,4.342
							c-0.205,1.194-0.434,2.426-0.301,3.489c0.235,1.147,0.37,2.28,0.489,3.345c0.226,2.139,0.363,4.07,0.363,5.705
							c0.002,0.408-0.019,0.801-0.062,1.177c-0.063,0.392-0.22,0.73-0.399,1.015c-0.377,0.561-0.824,0.927-1.198,1.192
							C227.801,134.284,227.312,134.443,227.301,134.415z"/>
					</g>
				</g>
			</g>
		</g>
	</g>
</g>
</svg>
