<?xml version="1.0" encoding="utf-8"?>
<!-- Generator: Adobe Illustrator 27.5.0, SVG Export Plug-In . SVG Version: 6.00 Build 0)  -->
<svg version="1.1" xmlns="http://www.w3.org/2000/svg" xmlns:xlink="http://www.w3.org/1999/xlink" x="0px" y="0px"
	 viewBox="0 0 500 500" style="enable-background:new 0 0 500 500;" xml:space="preserve">
<g id="Background_Complete">
	<g>
		<g>
			<polygon style="fill:#EBEBEB;" points="426.678,441.811 411.88,485.153 453.581,485.153 436.794,441.504 441.085,419.625 
				420.956,419.625 			"/>
		</g>
		<g>
			<g>
				<g>
					<path style="fill:#EBEBEB;" d="M458.572,390.704c0.005,0.005-0.037,0.058-0.126,0.155c-0.108,0.114-0.238,0.252-0.399,0.421
						c-0.382,0.389-0.903,0.919-1.56,1.589c-0.343,0.345-0.722,0.725-1.134,1.14c-0.405,0.426-0.821,0.912-1.281,1.42
						c-0.906,1.031-1.993,2.156-3.046,3.526c-0.542,0.673-1.11,1.377-1.701,2.11c-0.587,0.737-1.135,1.551-1.738,2.368
						c-1.229,1.618-2.372,3.462-3.615,5.376c-2.372,3.898-4.735,8.335-6.796,13.184c-2.019,4.869-3.533,9.663-4.672,14.083
						c-0.509,2.225-1.033,4.331-1.349,6.338c-0.171,1-0.375,1.961-0.501,2.895c-0.122,0.934-0.239,1.831-0.351,2.688
						c-0.26,1.709-0.335,3.271-0.46,4.638c-0.053,0.684-0.118,1.32-0.152,1.907c-0.021,0.584-0.04,1.12-0.057,1.607
						c-0.039,0.937-0.071,1.68-0.094,2.225c-0.014,0.232-0.026,0.423-0.035,0.579c-0.01,0.13-0.019,0.197-0.027,0.197
						c-0.008,0-0.013-0.067-0.018-0.197c-0.002-0.156-0.005-0.347-0.008-0.579c0.003-0.546,0.007-1.29,0.012-2.229
						c0.006-0.488,0.012-1.026,0.019-1.612c0.021-0.589,0.075-1.227,0.116-1.913c0.102-1.372,0.156-2.94,0.397-4.657
						c0.103-0.861,0.211-1.762,0.324-2.701c0.118-0.938,0.314-1.904,0.478-2.909c0.301-2.017,0.814-4.135,1.315-6.372
						c1.122-4.443,2.631-9.264,4.66-14.155c2.07-4.871,4.455-9.324,6.857-13.227c1.258-1.916,2.417-3.761,3.664-5.376
						c0.611-0.815,1.168-1.628,1.765-2.362c0.601-0.73,1.178-1.43,1.729-2.1c1.072-1.363,2.179-2.477,3.104-3.495
						c0.47-0.502,0.896-0.981,1.311-1.399c0.423-0.406,0.811-0.778,1.164-1.116c0.682-0.646,1.223-1.157,1.62-1.533
						c0.172-0.157,0.313-0.285,0.428-0.39C458.514,390.74,458.567,390.699,458.572,390.704z"/>
				</g>
			</g>
			<g>
				<g>
					<path style="fill:#EBEBEB;" d="M470.739,411.305c-0.009,0.029-0.485-0.071-1.334-0.274c-0.423-0.109-0.943-0.232-1.556-0.328
						c-0.611-0.102-1.3-0.26-2.078-0.329c-0.774-0.097-1.621-0.198-2.537-0.225c-0.914-0.076-1.893-0.045-2.922-0.039
						c-2.056,0.085-4.311,0.335-6.631,0.847c-2.315,0.539-4.458,1.287-6.349,2.098c-0.931,0.439-1.828,0.833-2.619,1.296
						c-0.815,0.42-1.536,0.877-2.192,1.298c-0.672,0.397-1.225,0.837-1.732,1.193c-0.512,0.351-0.927,0.686-1.262,0.967
						c-0.679,0.55-1.065,0.845-1.085,0.823c-0.02-0.022,0.327-0.359,0.976-0.952c0.32-0.302,0.722-0.659,1.224-1.031
						c0.497-0.378,1.042-0.838,1.71-1.256c0.651-0.442,1.37-0.919,2.186-1.357c0.793-0.482,1.693-0.893,2.631-1.347
						c1.905-0.841,4.072-1.61,6.416-2.156c2.35-0.519,4.636-0.76,6.717-0.823c1.042,0.005,2.032-0.013,2.954,0.08
						c0.926,0.044,1.78,0.163,2.558,0.281c0.782,0.089,1.473,0.269,2.085,0.395c0.613,0.119,1.13,0.267,1.549,0.402
						C470.289,411.122,470.748,411.276,470.739,411.305z"/>
				</g>
			</g>
			<g>
				<g>
					<path style="fill:#EBEBEB;" d="M449.732,378.063c0.027,0.013-0.142,0.462-0.471,1.262c-0.335,0.797-0.797,1.961-1.338,3.408
						c-1.086,2.892-2.401,6.962-3.4,11.568c-0.991,4.61-1.472,8.86-1.676,11.943c-0.104,1.541-0.164,2.792-0.188,3.656
						c-0.03,0.865-0.061,1.344-0.091,1.344c-0.03,0-0.056-0.478-0.078-1.345c-0.028-0.867-0.015-2.122,0.05-3.672
						c0.126-3.099,0.561-7.381,1.558-12.017c1.005-4.633,2.375-8.712,3.538-11.587c0.58-1.439,1.086-2.588,1.47-3.366
						C449.483,378.475,449.705,378.05,449.732,378.063z"/>
				</g>
			</g>
			<g>
				<g>
					<path style="fill:#EBEBEB;" d="M462.777,373.054c0.023,0.019-0.238,0.387-0.729,1.034c-0.496,0.643-1.193,1.589-2.027,2.775
						c-1.672,2.369-3.816,5.764-5.761,9.737c-1.938,3.978-3.296,7.757-4.136,10.533c-0.422,1.387-0.74,2.519-0.942,3.305
						c-0.208,0.785-0.337,1.217-0.367,1.211c-0.029-0.006,0.044-0.45,0.202-1.249c0.152-0.8,0.425-1.947,0.811-3.352
						c0.768-2.81,2.09-6.632,4.04-10.637c1.958-4,4.159-7.393,5.902-9.726c0.87-1.168,1.607-2.09,2.145-2.701
						C462.449,373.365,462.754,373.034,462.777,373.054z"/>
				</g>
			</g>
			<g>
				<g>
					<path style="fill:#EBEBEB;" d="M480.037,376.816c0.011,0.028-0.358,0.217-1.035,0.534c-0.679,0.313-1.655,0.781-2.848,1.38
						c-2.388,1.195-5.618,2.987-8.982,5.283c-3.361,2.303-6.203,4.663-8.183,6.455c-0.991,0.895-1.782,1.633-2.319,2.153
						c-0.541,0.516-0.852,0.792-0.873,0.771s0.247-0.336,0.753-0.89c0.502-0.557,1.262-1.332,2.231-2.26
						c1.935-1.857,4.764-4.271,8.147-6.588c3.385-2.311,6.661-4.072,9.093-5.201c1.216-0.566,2.214-0.994,2.915-1.259
						C479.634,376.924,480.025,376.788,480.037,376.816z"/>
				</g>
			</g>
			<g>
				<g>
					<path style="fill:#EBEBEB;" d="M483.422,386.211c0.016,0.025-0.355,0.284-1.042,0.731c-0.683,0.452-1.7,1.061-2.981,1.772
						c-2.559,1.424-6.23,3.17-10.468,4.613c-4.242,1.435-8.218,2.284-11.116,2.712c-1.449,0.216-2.627,0.352-3.444,0.409
						c-0.816,0.063-1.269,0.084-1.271,0.054c-0.003-0.03,0.444-0.108,1.252-0.222c0.809-0.108,1.977-0.29,3.413-0.544
						c2.872-0.504,6.81-1.394,11.026-2.82c4.211-1.434,7.878-3.124,10.463-4.472c1.294-0.673,2.331-1.239,3.039-1.646
						C483.005,386.396,483.406,386.186,483.422,386.211z"/>
				</g>
			</g>
			<g>
				<g>
					<path style="fill:#EBEBEB;" d="M483.78,396.825c0.006,0.014-0.112,0.082-0.343,0.201c-0.279,0.137-0.615,0.301-1.019,0.499
						c-0.886,0.431-2.193,1.004-3.827,1.665c-3.265,1.326-7.887,2.909-13.132,4.129c-5.249,1.211-10.097,1.82-13.612,2.064
						c-1.758,0.125-3.183,0.184-4.169,0.187c-0.45,0-0.824,0-1.135,0c-0.259-0.005-0.396-0.015-0.396-0.03
						c0-0.015,0.135-0.034,0.394-0.058c0.309-0.022,0.682-0.049,1.13-0.082c0.981-0.055,2.401-0.161,4.15-0.324
						c3.498-0.322,8.315-0.977,13.539-2.182c5.22-1.214,9.835-2.743,13.118-3.991c1.643-0.622,2.964-1.151,3.87-1.533
						c0.417-0.168,0.764-0.308,1.051-0.424C483.643,396.854,483.773,396.812,483.78,396.825z"/>
				</g>
			</g>
			<g>
				<g>
					<path style="fill:#EBEBEB;" d="M439.216,387.84c0.028,0.012-0.103,0.43-0.363,1.174c-0.134,0.371-0.293,0.825-0.449,1.363
						c-0.16,0.536-0.369,1.137-0.534,1.822c-0.379,1.354-0.731,2.993-1.023,4.827c-0.266,1.838-0.458,3.873-0.49,6.016
						c-0.013,2.144,0.136,4.183,0.364,6.027c0.253,1.84,0.57,3.486,0.921,4.848c0.15,0.688,0.347,1.293,0.495,1.832
						c0.145,0.54,0.294,0.998,0.42,1.372c0.244,0.749,0.366,1.17,0.338,1.181c-0.028,0.011-0.203-0.389-0.497-1.124
						c-0.151-0.366-0.325-0.818-0.492-1.355c-0.172-0.535-0.39-1.139-0.561-1.827c-0.392-1.362-0.743-3.017-1.021-4.872
						c-0.252-1.858-0.415-3.919-0.401-6.085c0.032-2.166,0.238-4.222,0.529-6.074c0.316-1.848,0.703-3.495,1.123-4.849
						c0.185-0.684,0.416-1.283,0.599-1.815c0.179-0.533,0.362-0.982,0.521-1.345C439.004,388.225,439.188,387.829,439.216,387.84z"
						/>
				</g>
			</g>
		</g>
		<g>
			<g>
				<g>
					<path style="fill:#EBEBEB;" d="M402.792,355.043c0.005-0.006,0.073,0.044,0.202,0.146c0.146,0.12,0.333,0.272,0.566,0.464
						c0.482,0.425,1.247,0.994,2.123,1.848c1.813,1.639,4.277,4.202,6.937,7.678c2.668,3.468,5.426,7.924,7.886,13.163
						c2.46,5.238,4.568,11.272,6.132,17.761c1.532,6.5,2.438,12.808,2.992,18.559c0.555,5.754,0.799,10.953,0.94,15.318
						c0.139,4.366,0.187,7.899,0.21,10.341c0.006,1.197,0.01,2.138,0.013,2.812c-0.003,0.301-0.006,0.542-0.008,0.731
						c-0.004,0.165-0.01,0.249-0.018,0.249c-0.008,0-0.016-0.084-0.027-0.249c-0.009-0.189-0.021-0.429-0.035-0.731
						c-0.023-0.673-0.054-1.614-0.095-2.81c-0.075-2.44-0.169-5.972-0.348-10.333c-0.18-4.36-0.456-9.551-1.031-15.29
						c-0.575-5.737-1.49-12.022-3.016-18.498c-1.558-6.462-3.644-12.471-6.073-17.693c-2.428-5.223-5.144-9.672-7.768-13.147
						c-2.616-3.483-5.035-6.068-6.807-7.74c-0.855-0.87-1.601-1.458-2.064-1.904c-0.222-0.204-0.399-0.368-0.538-0.496
						C402.846,355.11,402.787,355.048,402.792,355.043z"/>
				</g>
			</g>
			<g>
				<g>
					<path style="fill:#EBEBEB;" d="M402.346,401.979c-0.004-0.014,0.11-0.055,0.33-0.119c0.221-0.058,0.544-0.165,0.973-0.247
						c0.85-0.192,2.104-0.384,3.667-0.436c3.101-0.124,7.551,0.527,11.719,2.939c4.168,2.417,6.945,5.955,8.38,8.707
						c0.732,1.382,1.189,2.565,1.445,3.397c0.142,0.412,0.21,0.745,0.27,0.966c0.054,0.223,0.075,0.341,0.061,0.345
						c-0.035,0.01-0.185-0.447-0.49-1.256c-0.303-0.809-0.799-1.961-1.555-3.305c-1.485-2.678-4.247-6.112-8.329-8.479
						c-4.082-2.363-8.434-3.052-11.497-3.008c-1.542,0.013-2.788,0.155-3.641,0.295
						C402.826,401.917,402.354,402.014,402.346,401.979z"/>
				</g>
			</g>
			<g>
				<g>
					<path style="fill:#EBEBEB;" d="M395.933,387.689c-0.003-0.015,0.125-0.051,0.372-0.108c0.248-0.051,0.611-0.145,1.087-0.213
						c0.948-0.164,2.336-0.32,4.06-0.34c3.429-0.059,8.284,0.624,13.032,2.97c4.75,2.345,8.242,5.787,10.28,8.546
						c1.031,1.381,1.751,2.579,2.197,3.431c0.235,0.419,0.381,0.765,0.491,0.992c0.105,0.23,0.154,0.354,0.141,0.361
						c-0.032,0.016-0.288-0.449-0.779-1.269c-0.488-0.822-1.242-1.984-2.293-3.327c-2.079-2.684-5.552-6.035-10.229-8.344
						c-4.674-2.31-9.445-3.032-12.84-3.052c-1.706-0.019-3.087,0.089-4.036,0.2C396.465,387.645,395.939,387.724,395.933,387.689z"
						/>
				</g>
			</g>
			<g>
				<g>
					<path style="fill:#EBEBEB;" d="M386.999,373.284c-0.004-0.014,0.135-0.068,0.404-0.156c0.27-0.082,0.664-0.225,1.187-0.352
						c1.037-0.283,2.566-0.605,4.482-0.811c3.809-0.43,9.286-0.182,14.81,1.944c5.526,2.126,9.756,5.614,12.294,8.487
						c1.283,1.437,2.202,2.701,2.782,3.606c0.303,0.444,0.499,0.814,0.645,1.056c0.14,0.245,0.208,0.378,0.195,0.386
						c-0.031,0.019-0.358-0.477-0.979-1.347c-0.619-0.871-1.568-2.097-2.869-3.494c-2.573-2.794-6.775-6.193-12.224-8.289
						c-5.446-2.097-10.842-2.392-14.625-2.044c-1.902,0.165-3.428,0.438-4.471,0.67C387.584,373.17,387.009,373.319,386.999,373.284
						z"/>
				</g>
			</g>
			<g>
				<g>
					<path style="fill:#EBEBEB;" d="M440.592,375.823c0.011,0.01-0.071,0.122-0.237,0.323c-0.202,0.237-0.447,0.523-0.74,0.867
						c-0.33,0.368-0.726,0.825-1.148,1.387c-0.427,0.557-0.946,1.165-1.433,1.903c-0.51,0.72-1.064,1.512-1.589,2.408
						c-0.567,0.869-1.073,1.856-1.629,2.881c-1.044,2.084-2.048,4.448-2.851,7.016c-0.776,2.578-1.271,5.099-1.576,7.41
						c-0.115,1.16-0.25,2.261-0.268,3.299c-0.068,1.036-0.054,2.002-0.035,2.885c-0.012,0.884,0.078,1.678,0.119,2.379
						c0.034,0.702,0.105,1.302,0.172,1.792c0.05,0.45,0.092,0.823,0.127,1.133c0.024,0.26,0.03,0.398,0.015,0.401
						c-0.015,0.003-0.049-0.13-0.102-0.386c-0.057-0.307-0.125-0.678-0.208-1.124c-0.093-0.488-0.189-1.089-0.247-1.793
						c-0.064-0.703-0.175-1.501-0.184-2.391c-0.038-0.889-0.071-1.863-0.018-2.909c0.003-1.048,0.125-2.16,0.23-3.332
						c0.285-2.336,0.774-4.886,1.558-7.49c0.811-2.595,1.837-4.979,2.911-7.073c0.571-1.029,1.093-2.019,1.679-2.888
						c0.543-0.895,1.116-1.684,1.646-2.398c0.506-0.732,1.046-1.331,1.494-1.877c0.442-0.551,0.859-0.994,1.21-1.346
						c0.319-0.323,0.584-0.592,0.803-0.814C440.478,375.903,440.581,375.813,440.592,375.823z"/>
				</g>
			</g>
			<g>
				<g>
					<path style="fill:#EBEBEB;" d="M433.47,361.414c0.061,0.054-0.995,1.214-2.441,3.278c-0.729,1.028-1.522,2.302-2.325,3.759
						c-0.784,1.467-1.566,3.122-2.25,4.916c-0.668,1.8-1.171,3.561-1.548,5.182c-0.355,1.625-0.599,3.107-0.728,4.36
						c-0.272,2.505-0.242,4.074-0.324,4.074c-0.03,0.001-0.056-0.39-0.077-1.1c-0.03-0.709-0.003-1.738,0.095-3.004
						c0.091-1.267,0.305-2.769,0.643-4.416c0.36-1.642,0.856-3.428,1.532-5.249c0.691-1.815,1.494-3.484,2.306-4.957
						c0.832-1.461,1.66-2.732,2.427-3.745c0.76-1.017,1.418-1.809,1.908-2.322C433.171,361.671,433.448,361.394,433.47,361.414z"/>
				</g>
			</g>
			<g>
				<g>
					<path style="fill:#EBEBEB;" d="M418.576,345.193c0.029,0.008-0.041,0.405-0.192,1.116c-0.157,0.709-0.363,1.74-0.591,3.016
						c-0.461,2.552-0.927,6.111-1.03,10.065c-0.095,3.956,0.192,7.534,0.524,10.106c0.164,1.286,0.318,2.326,0.439,3.042
						c0.115,0.717,0.165,1.118,0.136,1.124c-0.029,0.006-0.135-0.382-0.302-1.092c-0.172-0.708-0.373-1.744-0.578-3.031
						c-0.412-2.573-0.751-6.176-0.654-10.16c0.104-3.983,0.622-7.563,1.162-10.113c0.268-1.275,0.521-2.3,0.729-2.998
						C418.422,345.568,418.547,345.186,418.576,345.193z"/>
				</g>
			</g>
		</g>
	</g>
	<g>
		<g>
			<g>
				<g>
					<g>
						<g>
							<g>
								<g>
									<rect x="28.398" y="324.414" style="fill:#F5F5F5;" width="212.244" height="97.884"/>
								</g>
							</g>
						</g>
					</g>
				</g>
				<g>
					<g>
						<g>
							<g>
								<g>
									<path style="fill:#E0E0E0;" d="M235.59,417.685H33.256v-88.121H235.59V417.685z M34.576,416.365H234.27v-85.48H34.576
										V416.365z"/>
								</g>
							</g>
						</g>
					</g>
				</g>
				<g>
					<g>
						<g>
							<g>
								<g>
									<rect x="240.642" y="324.414" style="fill:#E0E0E0;" width="51.85" height="97.884"/>
								</g>
							</g>
						</g>
					</g>
				</g>
				<g>
					<g>
						<g>
							<g>
								<g>
									<g>
										<path style="fill:#E0E0E0;" d="M33.916,356.836c22.738,0,45.475,0,68.212,0c35.925,0,71.849,0,107.773,0
											c8.343,0,16.685,0,25.028,0c0.343,0,0.343-0.533,0-0.533c-22.737,0-45.475,0-68.212,0c-35.924,0-71.848,0-107.773,0
											c-8.343,0-16.685,0-25.028,0C33.573,356.303,33.573,356.836,33.916,356.836L33.916,356.836z"/>
									</g>
								</g>
							</g>
						</g>
					</g>
				</g>
				<g>
					<g>
						<g>
							<g>
								<g>
									<g>
										<path style="fill:#E0E0E0;" d="M135.08,356.569c0.602-8.689,0.538-17.892,0.069-26.589c-0.019-0.348-0.523-0.349-0.542,0
											c-0.469,8.697-0.534,17.9,0.069,26.589C134.694,356.829,135.061,356.83,135.08,356.569L135.08,356.569z"/>
									</g>
								</g>
							</g>
						</g>
					</g>
				</g>
				<g>
					<g>
						<g>
							<g>
								<g>
									<path style="fill:#E0E0E0;" d="M189.186,343.275c0,1.512-1.226,2.739-2.739,2.739c-1.513,0-2.738-1.226-2.738-2.739
										s1.226-2.738,2.738-2.738C187.959,340.537,189.186,341.763,189.186,343.275z"/>
								</g>
							</g>
						</g>
					</g>
				</g>
				<g>
					<g>
						<g>
							<g>
								<g>
									<path style="fill:#E0E0E0;" d="M83.693,343.275c0,1.512-1.226,2.739-2.738,2.739c-1.513,0-2.739-1.226-2.739-2.739
										s1.226-2.738,2.739-2.738C82.467,340.537,83.693,341.763,83.693,343.275z"/>
								</g>
							</g>
						</g>
					</g>
				</g>
				<g>
					<g>
						<g>
							<g>
								<g>
									<path style="fill:#E0E0E0;" d="M137.161,373.625c0,1.513-1.226,2.739-2.738,2.739c-1.513,0-2.738-1.226-2.738-2.739
										c0-1.513,1.226-2.738,2.738-2.738C135.936,370.887,137.161,372.112,137.161,373.625z"/>
								</g>
							</g>
						</g>
					</g>
				</g>
				<g>
					<g>
						<g>
							<g>
								<g>
									<polygon style="fill:#E0E0E0;" points="53.774,422.299 42.846,483.752 48.993,483.752 69.14,422.299 									"/>
								</g>
							</g>
						</g>
					</g>
				</g>
				<g>
					<g>
						<g>
							<g>
								<g>
									<polygon style="fill:#E0E0E0;" points="225.626,422.299 234.764,483.859 228.617,483.859 210.259,422.299 									"/>
								</g>
							</g>
						</g>
					</g>
				</g>
				<g>
					<g>
						<g>
							<g>
								<g>
									<polygon style="fill:#E0E0E0;" points="266.656,422.299 277.01,483.859 270.863,483.859 251.289,422.299 									"/>
								</g>
							</g>
						</g>
					</g>
				</g>
				<g>
					<g>
						<g>
							<g>
								<g>
									<path style="fill:#E0E0E0;" d="M136.978,401.328c0,1.512-1.226,2.738-2.738,2.738c-1.513,0-2.739-1.226-2.739-2.738
										c0-1.512,1.226-2.739,2.739-2.739C135.752,398.589,136.978,399.815,136.978,401.328z"/>
								</g>
							</g>
						</g>
					</g>
				</g>
				<g>
					<g>
						<g>
							<g>
								<g>
									<g>
										<path style="fill:#E0E0E0;" d="M33.916,387.147c22.738,0,45.475,0,68.212,0c35.925,0,71.849,0,107.773,0
											c8.343,0,16.685,0,25.028,0c0.343,0,0.343-0.533,0-0.533c-22.737,0-45.475,0-68.212,0c-35.924,0-71.848,0-107.773,0
											c-8.343,0-16.685,0-25.028,0C33.573,386.615,33.573,387.147,33.916,387.147L33.916,387.147z"/>
									</g>
								</g>
							</g>
						</g>
					</g>
				</g>
			</g>
		</g>
		<g>
			<g>
				<g>
					<g>
						<g>
							<g>
								<g>
									
										<rect x="137.932" y="252.745" transform="matrix(0.0053 1 -1 0.0053 428.5292 138.8674)" style="fill:#E0E0E0;" width="13.064" height="64.173"/>
								</g>
							</g>
						</g>
					</g>
				</g>
			</g>
			<g>
				<g>
					<g>
						<g>
							<g>
								<g>
									<g>
										
											<rect x="138.329" y="278.42" transform="matrix(0.0053 1 -1 0.0053 461.8706 164.0439)" style="fill:#F5F5F5;" width="20.299" height="71.525"/>
									</g>
								</g>
							</g>
						</g>
					</g>
				</g>
				<g>
					<g>
						<g>
							<g>
								<g>
									<g>
										<path style="fill:#E0E0E0;" d="M170.514,324.001c-0.192,0-0.347-4.544-0.347-10.149c0-5.607,0.155-10.15,0.347-10.15
											c0.192,0,0.347,4.544,0.347,10.15C170.861,319.457,170.706,324.001,170.514,324.001z"/>
									</g>
								</g>
							</g>
						</g>
					</g>
				</g>
				<g>
					<g>
						<g>
							<g>
								<g>
									<g>
										<path style="fill:#E0E0E0;" d="M173.519,324.001c-0.192,0-0.347-4.544-0.347-10.149c0-5.607,0.156-10.15,0.347-10.15
											c0.191,0,0.347,4.544,0.347,10.15C173.866,319.457,173.71,324.001,173.519,324.001z"/>
									</g>
								</g>
							</g>
						</g>
					</g>
				</g>
				<g>
					<g>
						<g>
							<g>
								<g>
									<g>
										<path style="fill:#E0E0E0;" d="M123.531,324.001c-0.192,0-0.347-4.544-0.347-10.149c0-5.607,0.156-10.15,0.347-10.15
											c0.192,0,0.347,4.544,0.347,10.15C123.878,319.457,123.723,324.001,123.531,324.001z"/>
									</g>
								</g>
							</g>
						</g>
					</g>
				</g>
				<g>
					<g>
						<g>
							<g>
								<g>
									<g>
										<path style="fill:#E0E0E0;" d="M126.536,324.001c-0.192,0-0.347-4.544-0.347-10.149c0-5.607,0.155-10.15,0.347-10.15
											c0.192,0,0.347,4.544,0.347,10.15C126.883,319.457,126.727,324.001,126.536,324.001z"/>
									</g>
								</g>
							</g>
						</g>
					</g>
				</g>
				<g>
					<g>
						<g>
							<g>
								<g>
									<g>
										<path style="fill:#E0E0E0;" d="M133.092,314.178c0-0.194,7.216-0.352,16.115-0.352c8.903,0,16.117,0.157,16.117,0.352
											c0,0.194-7.215,0.352-16.117,0.352C140.308,314.53,133.092,314.373,133.092,314.178z"/>
									</g>
								</g>
							</g>
						</g>
					</g>
				</g>
			</g>
			<g>
				<g>
					<g>
						<g>
							<g>
								<g>
									<g>
										
											<rect x="160.457" y="253.298" transform="matrix(0.0053 1 -1 0.0053 463.5325 128.8733)" style="fill:#EBEBEB;" width="13.063" height="88.26"/>
									</g>
								</g>
							</g>
						</g>
					</g>
				</g>
				<g>
					<g>
						<g>
							<g>
								<g>
									<path style="fill:#E0E0E0;" d="M198.516,302.107c-2.303,0-4.171-1.892-4.171-4.225c0-2.333,1.867-4.225,4.171-4.225
										c2.304,0,4.171,1.892,4.171,4.225C202.687,300.215,200.82,302.107,198.516,302.107z"/>
								</g>
							</g>
						</g>
					</g>
				</g>
				<g>
					<g>
						<g>
							<g>
								<g>
									
										<rect x="156.199" y="268.342" transform="matrix(-1.836970e-16 1 -1 -1.836970e-16 455.3867 140.3773)" style="fill:#E0E0E0;" width="2.612" height="59.08"/>
								</g>
							</g>
						</g>
					</g>
				</g>
			</g>
		</g>
	</g>
</g>
<g id="Background_Simple" style="display:none;">
	<path style="display:inline;fill:#F5F5F5;" d="M407.318,104.081l-2.065-3.403c-17.41-28.69-48.887-45.984-82.074-43.886
		c-4.266,0.27-8.514,0.847-12.705,1.744c-30.174,6.459-56.429,29.277-67.312,58.5c-6.4,17.187-8.188,36.975-20.334,50.617
		c-15.807,17.754-42.643,18.312-66.238,17.576c-23.594-0.736-50.449-0.108-66.179,17.716c-9.852,11.163-12.982,27.038-12.188,41.988
		c2.103,39.58,29.683,74.97,64.757,92.561c35.075,17.591,76.371,19.166,114.758,11.428c53.776-10.84,104.916-40.61,135.655-86.59
		C424.133,216.352,431.912,153.708,407.318,104.081z"/>
</g>
<g id="Plant">
	<g>
		<path style="fill:#455A64;" d="M161.398,285.111c-10.399,5.387-18.374,14.661-24.107,24.873
			c-5.734,10.212-9.429,21.417-13.09,32.542l-3.203,57.375c12.1-20.585,21.812-44.785,24.436-68.518
			c-2.684-0.239-5.368-0.478-8.052-0.717c5.399-0.824,9.931-4.736,12.814-9.374c2.883-4.638,4.367-9.987,5.816-15.253
			c-3.275,0.487-6.549,0.974-9.824,1.46C153.881,302.365,159.459,294.155,161.398,285.111z"/>
		<g style="opacity:0.3;">
			<path d="M161.398,285.111c-10.399,5.387-18.374,14.661-24.107,24.873c-5.734,10.212-9.429,21.417-13.09,32.542l-3.203,57.375
				c12.1-20.585,21.812-44.785,24.436-68.518c-2.684-0.239-5.368-0.478-8.052-0.717c5.399-0.824,9.931-4.736,12.814-9.374
				c2.883-4.638,4.367-9.987,5.816-15.253c-3.275,0.487-6.549,0.974-9.824,1.46C153.881,302.365,159.459,294.155,161.398,285.111z"
				/>
		</g>
		<path style="fill:#455A64;" d="M119.206,413.345c0,0-26.264-31.436-25.961-61.445h10.609c0,0-11.524-7.578-10.612-11.822
			c0.912-4.244,1.215-20.31,1.215-20.31l9.7,2.425c0,0-7.275-3.637-8.184-9.397c-0.909-5.759,2.122-32.435,2.122-32.435
			s11.822,12.428,15.46,25.16c3.637,12.731,13.186,27.585,10.382,66.385C121.133,410.707,119.206,413.345,119.206,413.345z"/>
		<path style="fill:#455A64;" d="M132.521,416.313c0,0,28.454-18.956,34.776-43.149l-8.53-2.321c0,0,10.923-3.571,11.118-7.183
			c0.195-3.611,3.467-16.594,3.467-16.594l-8.329-0.173c0,0,6.645-1.333,8.636-5.764c1.991-4.431,5.39-26.541,5.39-26.541
			s-12.224,7.406-17.934,16.845s-16.636,19.292-22.871,51.1C132.011,414.341,132.521,416.313,132.521,416.313z"/>
		<g>
			<path style="fill:#263238;" d="M105.27,307.77c0.009-0.002,0.041,0.108,0.096,0.326c0.058,0.245,0.134,0.564,0.23,0.967
				c0.198,0.885,0.479,2.135,0.836,3.73c0.365,1.619,0.789,3.605,1.249,5.918c0.468,2.311,1.014,4.94,1.547,7.86
				c1.126,5.828,2.314,12.797,3.536,20.549c1.185,7.758,2.368,16.307,3.419,25.303c1.03,9.002,1.828,17.597,2.445,25.422
				c0.578,7.828,1.012,14.884,1.245,20.816c0.147,2.964,0.215,5.648,0.287,8.005c0.08,2.356,0.12,4.386,0.134,6.046
				c0.016,1.634,0.028,2.915,0.037,3.822c-0.002,0.414-0.003,0.743-0.004,0.994c-0.004,0.224-0.01,0.339-0.019,0.339
				c-0.009,0-0.02-0.114-0.034-0.338c-0.012-0.251-0.028-0.579-0.048-0.993c-0.032-0.906-0.077-2.186-0.135-3.819
				c-0.045-1.658-0.115-3.687-0.222-6.041c-0.099-2.354-0.193-5.036-0.364-7.998c-0.28-5.926-0.752-12.975-1.356-20.796
				c-0.642-7.818-1.455-16.405-2.484-25.4c-1.05-8.99-2.218-17.533-3.376-25.29c-1.196-7.751-2.345-14.721-3.424-20.555
				c-0.51-2.922-1.03-5.555-1.47-7.87c-0.433-2.317-0.828-4.308-1.162-5.933c-0.316-1.603-0.565-2.86-0.74-3.749
				c-0.075-0.408-0.134-0.731-0.18-0.978C105.277,307.886,105.262,307.772,105.27,307.77z"/>
		</g>
		<path style="fill:#455A64;" d="M115.564,432.595c0,0-24.035-27.271-31.497-43.756l5.634-2.407
			c-4.084,0.674-8.267-1.081-11.434-3.746c-3.167-2.665-5.492-6.171-7.772-9.625l7.422-1.254c-6.749-1.894-12.695-6.5-16.216-12.561
			c8.758,1.44,16.681,6.251,23.21,12.263c5.288,4.869,9.765,10.521,14.064,16.296c2.097,2.817,3.933,5.819,5.462,8.98
			C108.475,405.135,115.577,422.58,115.564,432.595z"/>
		<g>
			<path style="fill:#263238;" d="M167.676,330.461c0.008,0.004-0.029,0.098-0.11,0.278c-0.095,0.205-0.216,0.466-0.368,0.793
				c-0.35,0.725-0.839,1.738-1.461,3.027c-1.287,2.619-3.111,6.428-5.318,11.154c-2.215,4.723-4.763,10.389-7.502,16.718
				c-2.716,6.339-5.609,13.349-8.488,20.769c-2.863,7.429-5.438,14.563-7.694,21.082c-2.232,6.527-4.158,12.433-5.697,17.418
				c-1.546,4.982-2.759,9.027-3.569,11.83c-0.407,1.371-0.727,2.45-0.955,3.222c-0.108,0.344-0.194,0.619-0.261,0.834
				c-0.062,0.187-0.098,0.282-0.106,0.28c-0.009-0.002,0.01-0.102,0.055-0.294c0.055-0.219,0.124-0.499,0.211-0.848
				c0.206-0.778,0.495-1.866,0.862-3.249c0.75-2.821,1.909-6.883,3.412-11.883c1.495-5.002,3.386-10.925,5.595-17.466
				c2.233-6.533,4.797-13.678,7.662-21.114c2.882-7.427,5.791-14.437,8.533-20.772c2.766-6.324,5.35-11.979,7.61-16.685
				c2.252-4.71,4.127-8.496,5.47-11.088c0.659-1.27,1.177-2.269,1.548-2.984c0.171-0.317,0.307-0.571,0.414-0.77
				C167.615,330.543,167.668,330.457,167.676,330.461z"/>
		</g>
		<g>
			<path style="fill:#263238;" d="M117.603,444.281c-0.018,0.002-0.058-0.171-0.118-0.501c-0.064-0.39-0.142-0.867-0.238-1.447
				c-0.184-1.259-0.499-3.074-0.94-5.303c-0.433-2.232-1.052-4.867-1.839-7.766c-0.813-2.891-1.81-6.041-3.025-9.288
				c-1.234-3.24-2.568-6.264-3.868-8.972c-1.325-2.696-2.603-5.083-3.753-7.044c-1.142-1.965-2.105-3.535-2.799-4.601
				c-0.312-0.498-0.568-0.908-0.778-1.243c-0.173-0.288-0.257-0.444-0.242-0.454c0.015-0.01,0.128,0.126,0.329,0.394
				c0.232,0.32,0.516,0.713,0.86,1.19c0.747,1.034,1.76,2.578,2.947,4.526c1.195,1.944,2.512,4.323,3.866,7.021
				c1.331,2.709,2.685,5.742,3.925,8.999c1.221,3.263,2.21,6.434,3.001,9.345c0.766,2.919,1.35,5.575,1.738,7.823
				c0.396,2.246,0.657,4.075,0.779,5.344c0.056,0.585,0.103,1.068,0.141,1.462C117.615,444.103,117.62,444.279,117.603,444.281z"/>
		</g>
		<rect x="96.713" y="437.867" style="fill:#FF725E;" width="52.604" height="10.73"/>
		<polygon style="fill:#FF725E;" points="101.726,448.597 107.416,484.69 139.202,484.69 144.506,448.597 		"/>
		<g>
			<path style="fill:#263238;" d="M146.09,448.597c0,0.144-9.951,0.26-22.223,0.26c-12.277,0-22.226-0.117-22.226-0.26
				s9.949-0.26,22.226-0.26C136.139,448.337,146.09,448.453,146.09,448.597z"/>
		</g>
	</g>
</g>
<g id="Screens">
	<g>
		<rect x="222.874" y="91.953" style="fill:#FFFFFF;" width="228.163" height="173.783"/>
		<rect x="222.874" y="123.153" style="fill:#F5F5F5;" width="71.563" height="142.583"/>
		<g>
			<g>
				<path style="fill:#E0E0E0;" d="M243.978,200.892l-0.144-18.218c-0.171-0.764,0.089-1.961,0.684-2.429
					c0.298-0.234,0.655-0.368,1.034-0.364l10.246,0.106c0.625-0.013,1.201,0.358,1.477,0.953l1.152,2.48l13.406,0.151
					c1.785-0.133,2.883,1.281,2.738,2.575l-0.307,15.471c-0.204,1.828-1.817,3.188-3.372,3.172l-23.69-0.243
					C245.576,204.528,244.216,203.081,243.978,200.892z"/>
			</g>
			<g>
				<path style="fill:#EBEBEB;" d="M243.618,200.618l0.036-15.277c0.15-1.206,0.958-2.092,1.898-2.082l26.865,0.276
					c1.137,0.012,2.005,1.31,1.855,2.774l0.056,14.132c-0.036,3.526-1.922,4.56-3.528,4.543l-23.542-0.242
					C244.839,204.717,243.465,203.649,243.618,200.618z"/>
			</g>
		</g>
		<g>
			<g>
				<path style="fill:#E0E0E0;" d="M244.067,246.796l-0.144-18.219c-0.171-0.764,0.089-1.961,0.684-2.429
					c0.298-0.234,0.655-0.368,1.034-0.364l10.246,0.106c0.625-0.014,1.201,0.358,1.477,0.953l1.152,2.48l13.406,0.151
					c1.785-0.133,2.883,1.281,2.738,2.575l-0.307,15.471c-0.204,1.828-1.817,3.188-3.372,3.173l-23.689-0.243
					C245.664,250.432,244.304,248.985,244.067,246.796z"/>
			</g>
			<g>
				<path style="fill:#EBEBEB;" d="M243.706,246.522l0.036-15.277c0.15-1.206,0.958-2.092,1.898-2.082l26.865,0.276
					c1.137,0.012,2.005,1.31,1.855,2.774l0.056,14.132c-0.036,3.526-1.923,4.56-3.528,4.543l-23.542-0.242
					C244.927,250.621,243.554,249.554,243.706,246.522z"/>
			</g>
		</g>
		<rect x="222.874" y="108.693" style="fill:#EBEBEB;" width="228.163" height="16.74"/>
		<rect x="222.874" y="91.953" style="fill:#E0E0E0;" width="228.163" height="16.74"/>
		<path style="fill:#455A64;" d="M233.477,98.388c0,1.067-0.865,1.932-1.932,1.932c-1.067,0-1.932-0.865-1.932-1.932
			s0.865-1.932,1.932-1.932C232.613,96.456,233.477,97.321,233.477,98.388z"/>
		<path style="fill:#455A64;" d="M240.686,98.388c0,1.067-0.865,1.932-1.932,1.932c-1.067,0-1.932-0.865-1.932-1.932
			s0.865-1.932,1.932-1.932C239.821,96.456,240.686,97.321,240.686,98.388z"/>
		<path style="fill:#455A64;" d="M248.335,98.388c0,1.067-0.865,1.932-1.932,1.932c-1.067,0-1.932-0.865-1.932-1.932
			s0.865-1.932,1.932-1.932C247.47,96.456,248.335,97.321,248.335,98.388z"/>
		<path style="fill:#263238;" d="M451.037,265.463c0,0-0.017-1.082-0.025-3.158c-0.006-2.081-0.014-5.159-0.026-9.179
			c-0.013-8.046-0.033-19.86-0.058-34.967c-0.028-30.19-0.069-73.534-0.119-126.186l0.227,0.242
			c-63.664,0.016-142.703,0.035-228.144,0.057h-0.019l0.28-0.299c-0.009,62.118-0.018,121.06-0.025,173.491l-0.255-0.272
			c67.401,0.055,124.41,0.102,164.578,0.135c20.098,0.031,35.981,0.056,46.848,0.073c5.432,0.014,9.609,0.025,12.437,0.033
			c1.408,0.007,2.479,0.012,3.206,0.016C450.663,265.453,451.037,265.463,451.037,265.463s-0.354,0.011-1.066,0.016
			c-0.72,0.004-1.781,0.009-3.177,0.016c-2.816,0.007-6.976,0.018-12.386,0.033c-10.853,0.017-26.717,0.042-46.79,0.073
			c-40.208,0.033-97.275,0.079-164.744,0.135l-0.255,0l0-0.272c-0.008-52.431-0.016-111.373-0.025-173.491l0-0.299h0.28h0.019
			c85.442,0.021,164.481,0.041,228.144,0.057h0.227l0,0.242c-0.05,52.716-0.09,96.112-0.119,126.338
			c-0.025,15.084-0.045,26.879-0.058,34.913c-0.011,4.001-0.02,7.063-0.025,9.134C451.053,264.417,451.037,265.463,451.037,265.463z
			"/>
		<g>
			<g>
				<path style="fill:#FF725E;" d="M244.163,159.223l-0.323-17.78c-0.174-0.744,0.067-1.915,0.643-2.378
					c0.288-0.232,0.635-0.366,1.006-0.366l10.001,0.001c0.61-0.02,1.176,0.337,1.451,0.915l1.149,2.41l13.086,0.013
					c1.74-0.148,2.826,1.221,2.698,2.486l-0.145,15.102c-0.18,1.786-1.741,3.13-3.259,3.13h-23.123
					C245.759,162.756,244.417,161.357,244.163,159.223z"/>
			</g>
			<g style="opacity:0.3;">
				<path d="M244.163,159.223l-0.323-17.78c-0.174-0.744,0.067-1.915,0.643-2.378c0.288-0.232,0.635-0.366,1.006-0.366l10.001,0.001
					c0.61-0.02,1.176,0.337,1.451,0.915l1.149,2.41l13.086,0.013c1.74-0.148,2.826,1.221,2.698,2.486l-0.145,15.102
					c-0.18,1.786-1.741,3.13-3.259,3.13h-23.123C245.759,162.756,244.417,161.357,244.163,159.223z"/>
			</g>
			<g>
				<path style="fill:#FF725E;" d="M243.903,158.961l-0.118-14.91c0.134-1.178,0.914-2.051,1.832-2.051l26.223,0
					c1.11,0,1.97,1.258,1.838,2.689l0.197,13.792c0,3.442-1.831,4.47-3.398,4.47l-22.98,0
					C245.135,162.949,243.784,161.921,243.903,158.961z"/>
			</g>
		</g>
		<g>
			<path style="fill:#E0E0E0;" d="M294.897,171.349c0,0.144-16.043,0.26-35.829,0.26c-19.792,0-35.832-0.117-35.832-0.26
				s16.04-0.26,35.832-0.26C278.854,171.088,294.897,171.205,294.897,171.349z"/>
		</g>
		<g>
			<path style="fill:#E0E0E0;" d="M294.485,216.41c0,0.144-16.043,0.26-35.829,0.26c-19.792,0-35.832-0.117-35.832-0.26
				c0-0.144,16.04-0.26,35.832-0.26C278.442,216.149,294.485,216.266,294.485,216.41z"/>
		</g>
		<g>
			<path style="fill:#E0E0E0;" d="M293.88,125.816c0.144,0,0.26,31.324,0.26,69.956c0,38.645-0.117,69.963-0.26,69.963
				c-0.144,0-0.26-31.318-0.26-69.963C293.62,157.14,293.737,125.816,293.88,125.816z"/>
		</g>
		<g>
			<g>
				<g>
					<g>
						<g>
							<g>
								<polygon style="fill:#FF725E;" points="309.226,161.458 340.199,161.558 340.199,138.333 309.301,138.234 								"/>
							</g>
						</g>
					</g>
				</g>
				<g style="opacity:0.2;">
					<g>
						<g>
							<g>
								<g>
									<g>
										<path d="M329.593,145.319c-0.004,1.344-1.097,2.429-2.441,2.425c-1.344-0.004-2.429-1.097-2.425-2.441
											c0.004-1.344,1.097-2.429,2.441-2.425C328.512,142.883,329.597,143.976,329.593,145.319z"/>
									</g>
								</g>
							</g>
						</g>
					</g>
				</g>
				<g style="opacity:0.2;">
					<g>
						<g>
							<g>
								<polygon points="309.226,161.458 320.064,147.057 326.721,156.11 331.27,151.297 340.199,161.558 								"/>
							</g>
						</g>
					</g>
				</g>
			</g>
			<g>
				<path style="fill:#263238;" d="M341.181,168.738c0,0.144-6.925,0.26-15.465,0.26c-8.543,0-15.467-0.117-15.467-0.26
					s6.923-0.26,15.467-0.26C334.257,168.478,341.181,168.594,341.181,168.738z"/>
			</g>
			<g>
				<path style="fill:#E0E0E0;" d="M335.387,172.237c0,0.144-4.331,0.26-9.671,0.26c-5.343,0-9.672-0.117-9.672-0.26
					c0-0.144,4.329-0.26,9.672-0.26C331.057,171.977,335.387,172.093,335.387,172.237z"/>
			</g>
		</g>
		<g>
			<g>
				<g>
					<g>
						<g>
							<g>
								<polygon style="fill:#FF725E;" points="359.329,161.458 390.303,161.558 390.303,138.333 359.404,138.234 								"/>
							</g>
						</g>
					</g>
				</g>
				<g style="opacity:0.2;">
					<g>
						<g>
							<g>
								<g>
									<g>
										<path d="M379.696,145.319c-0.004,1.344-1.097,2.429-2.441,2.425c-1.344-0.004-2.429-1.097-2.425-2.441
											c0.004-1.344,1.097-2.429,2.441-2.425C378.615,142.883,379.701,143.976,379.696,145.319z"/>
									</g>
								</g>
							</g>
						</g>
					</g>
				</g>
				<g style="opacity:0.2;">
					<g>
						<g>
							<g>
								<polygon points="359.329,161.458 370.168,147.057 376.824,156.11 381.374,151.297 390.303,161.558 								"/>
							</g>
						</g>
					</g>
				</g>
			</g>
			<g>
				<path style="fill:#263238;" d="M391.285,168.738c0,0.144-6.925,0.26-15.465,0.26c-8.543,0-15.467-0.117-15.467-0.26
					s6.923-0.26,15.467-0.26C384.36,168.478,391.285,168.594,391.285,168.738z"/>
			</g>
			<g>
				<path style="fill:#E0E0E0;" d="M385.491,172.237c0,0.144-4.331,0.26-9.671,0.26c-5.342,0-9.672-0.117-9.672-0.26
					c0-0.144,4.329-0.26,9.672-0.26C381.16,171.977,385.491,172.093,385.491,172.237z"/>
			</g>
		</g>
		<g>
			<g>
				<g>
					<g>
						<g>
							<g>
								<polygon style="fill:#FF725E;" points="406.603,160.535 437.576,160.635 437.576,137.41 406.678,137.311 								"/>
							</g>
						</g>
					</g>
				</g>
				<g style="opacity:0.2;">
					<g>
						<g>
							<g>
								<g>
									<g>
										<path d="M426.97,144.396c-0.004,1.344-1.097,2.43-2.441,2.425c-1.344-0.004-2.429-1.097-2.425-2.441
											c0.004-1.344,1.097-2.429,2.441-2.425C425.889,141.96,426.974,143.053,426.97,144.396z"/>
									</g>
								</g>
							</g>
						</g>
					</g>
				</g>
				<g style="opacity:0.2;">
					<g>
						<g>
							<g>
								<polygon points="406.603,160.535 417.441,146.134 424.098,155.187 428.647,150.374 437.576,160.635 								"/>
							</g>
						</g>
					</g>
				</g>
			</g>
			<g>
				<path style="fill:#263238;" d="M438.559,167.815c0,0.144-6.925,0.26-15.465,0.26c-8.543,0-15.467-0.117-15.467-0.26
					c0-0.144,6.923-0.26,15.467-0.26C431.634,167.555,438.559,167.671,438.559,167.815z"/>
			</g>
			<g>
				<path style="fill:#E0E0E0;" d="M432.764,171.314c0,0.144-4.33,0.26-9.671,0.26c-5.342,0-9.672-0.117-9.672-0.26
					s4.33-0.26,9.672-0.26C428.434,171.053,432.764,171.17,432.764,171.314z"/>
			</g>
		</g>
		<g>
			<g>
				<g>
					<g>
						<g>
							<g>
								<polygon style="fill:#FF725E;" points="309.226,203.151 340.199,203.251 340.199,180.026 309.301,179.927 								"/>
							</g>
						</g>
					</g>
				</g>
				<g style="opacity:0.2;">
					<g>
						<g>
							<g>
								<g>
									<g>
										<path d="M329.593,187.012c-0.004,1.344-1.097,2.429-2.441,2.425c-1.344-0.004-2.429-1.097-2.425-2.441
											c0.004-1.344,1.097-2.429,2.441-2.425C328.512,184.576,329.597,185.668,329.593,187.012z"/>
									</g>
								</g>
							</g>
						</g>
					</g>
				</g>
				<g style="opacity:0.2;">
					<g>
						<g>
							<g>
								<polygon points="309.226,203.151 320.064,188.75 326.721,197.803 331.27,192.989 340.199,203.251 								"/>
							</g>
						</g>
					</g>
				</g>
			</g>
			<g>
				<path style="fill:#263238;" d="M341.181,210.431c0,0.144-6.925,0.26-15.465,0.26c-8.543,0-15.467-0.117-15.467-0.26
					c0-0.144,6.923-0.26,15.467-0.26C334.257,210.171,341.181,210.287,341.181,210.431z"/>
			</g>
			<g>
				<path style="fill:#E0E0E0;" d="M335.387,213.93c0,0.144-4.331,0.26-9.671,0.26c-5.343,0-9.672-0.117-9.672-0.26
					s4.329-0.26,9.672-0.26C331.057,213.669,335.387,213.786,335.387,213.93z"/>
			</g>
		</g>
		<g>
			<g>
				<g>
					<g>
						<g>
							<g>
								<polygon style="fill:#FF725E;" points="359.329,203.151 390.303,203.251 390.303,180.026 359.404,179.927 								"/>
							</g>
						</g>
					</g>
				</g>
				<g style="opacity:0.2;">
					<g>
						<g>
							<g>
								<g>
									<g>
										<path d="M379.696,187.012c-0.004,1.344-1.097,2.429-2.441,2.425c-1.344-0.004-2.429-1.097-2.425-2.441
											c0.004-1.344,1.097-2.429,2.441-2.425C378.615,184.576,379.701,185.668,379.696,187.012z"/>
									</g>
								</g>
							</g>
						</g>
					</g>
				</g>
				<g style="opacity:0.2;">
					<g>
						<g>
							<g>
								<polygon points="359.329,203.151 370.168,188.75 376.824,197.803 381.374,192.989 390.303,203.251 								"/>
							</g>
						</g>
					</g>
				</g>
			</g>
			<g>
				<path style="fill:#263238;" d="M391.285,210.431c0,0.144-6.925,0.26-15.465,0.26c-8.543,0-15.467-0.117-15.467-0.26
					c0-0.144,6.923-0.26,15.467-0.26C384.36,210.171,391.285,210.287,391.285,210.431z"/>
			</g>
			<g>
				<path style="fill:#E0E0E0;" d="M385.491,213.93c0,0.144-4.331,0.26-9.671,0.26c-5.342,0-9.672-0.117-9.672-0.26
					s4.329-0.26,9.672-0.26C381.16,213.669,385.491,213.786,385.491,213.93z"/>
			</g>
		</g>
		<g>
			<g>
				<g>
					<g>
						<g>
							<g>
								<polygon style="fill:#FF725E;" points="406.603,202.228 437.576,202.327 437.576,179.103 406.678,179.004 								"/>
							</g>
						</g>
					</g>
				</g>
				<g style="opacity:0.2;">
					<g>
						<g>
							<g>
								<g>
									<g>
										<path d="M426.97,186.089c-0.004,1.344-1.097,2.429-2.441,2.425c-1.344-0.004-2.429-1.097-2.425-2.441
											c0.004-1.344,1.097-2.429,2.441-2.425C425.889,183.652,426.974,184.745,426.97,186.089z"/>
									</g>
								</g>
							</g>
						</g>
					</g>
				</g>
				<g style="opacity:0.2;">
					<g>
						<g>
							<g>
								<polygon points="406.603,202.228 417.441,187.827 424.098,196.88 428.647,192.066 437.576,202.327 								"/>
							</g>
						</g>
					</g>
				</g>
			</g>
			<g>
				<path style="fill:#263238;" d="M438.559,209.508c0,0.144-6.925,0.26-15.465,0.26c-8.543,0-15.467-0.117-15.467-0.26
					c0-0.144,6.923-0.26,15.467-0.26C431.634,209.247,438.559,209.364,438.559,209.508z"/>
			</g>
			<g>
				<path style="fill:#E0E0E0;" d="M432.764,213.007c0,0.144-4.33,0.26-9.671,0.26c-5.342,0-9.672-0.117-9.672-0.26
					c0-0.144,4.33-0.26,9.672-0.26C428.434,212.746,432.764,212.863,432.764,213.007z"/>
			</g>
		</g>
		<g>
			<g>
				<g>
					<g>
						<g>
							<g>
								<polygon style="fill:#FF725E;" points="309.226,245.487 340.199,245.586 340.199,222.362 309.301,222.263 								"/>
							</g>
						</g>
					</g>
				</g>
				<g style="opacity:0.2;">
					<g>
						<g>
							<g>
								<g>
									<g>
										<path d="M329.593,229.348c-0.004,1.344-1.097,2.429-2.441,2.425c-1.344-0.004-2.429-1.097-2.425-2.441
											c0.004-1.344,1.097-2.429,2.441-2.425C328.512,226.911,329.597,228.004,329.593,229.348z"/>
									</g>
								</g>
							</g>
						</g>
					</g>
				</g>
				<g style="opacity:0.2;">
					<g>
						<g>
							<g>
								<polygon points="309.226,245.487 320.064,231.086 326.721,240.139 331.27,235.325 340.199,245.586 								"/>
							</g>
						</g>
					</g>
				</g>
			</g>
			<g>
				<path style="fill:#263238;" d="M341.181,252.767c0,0.144-6.925,0.26-15.465,0.26c-8.543,0-15.467-0.117-15.467-0.26
					c0-0.144,6.923-0.26,15.467-0.26C334.257,252.506,341.181,252.623,341.181,252.767z"/>
			</g>
			<g>
				<path style="fill:#E0E0E0;" d="M335.387,256.266c0,0.144-4.331,0.26-9.671,0.26c-5.343,0-9.672-0.117-9.672-0.26
					s4.329-0.26,9.672-0.26C331.057,256.005,335.387,256.122,335.387,256.266z"/>
			</g>
		</g>
		<g>
			<g>
				<g>
					<g>
						<g>
							<g>
								<polygon style="fill:#FF725E;" points="359.329,245.487 390.303,245.586 390.303,222.362 359.404,222.263 								"/>
							</g>
						</g>
					</g>
				</g>
				<g style="opacity:0.2;">
					<g>
						<g>
							<g>
								<g>
									<g>
										<path d="M379.696,229.348c-0.004,1.344-1.097,2.429-2.441,2.425c-1.344-0.004-2.429-1.097-2.425-2.441
											c0.004-1.344,1.097-2.429,2.441-2.425C378.615,226.911,379.701,228.004,379.696,229.348z"/>
									</g>
								</g>
							</g>
						</g>
					</g>
				</g>
				<g style="opacity:0.2;">
					<g>
						<g>
							<g>
								<polygon points="359.329,245.487 370.168,231.086 376.824,240.139 381.374,235.325 390.303,245.586 								"/>
							</g>
						</g>
					</g>
				</g>
			</g>
			<g>
				<path style="fill:#263238;" d="M391.285,252.767c0,0.144-6.925,0.26-15.465,0.26c-8.543,0-15.467-0.117-15.467-0.26
					c0-0.144,6.923-0.26,15.467-0.26C384.36,252.506,391.285,252.623,391.285,252.767z"/>
			</g>
			<g>
				<path style="fill:#E0E0E0;" d="M385.491,256.266c0,0.144-4.331,0.26-9.671,0.26c-5.342,0-9.672-0.117-9.672-0.26
					s4.329-0.26,9.672-0.26C381.16,256.005,385.491,256.122,385.491,256.266z"/>
			</g>
		</g>
		<g>
			<g>
				<g>
					<g>
						<g>
							<g>
								<polygon style="fill:#FF725E;" points="406.603,244.564 437.576,244.663 437.576,221.439 406.678,221.34 								"/>
							</g>
						</g>
					</g>
				</g>
				<g style="opacity:0.2;">
					<g>
						<g>
							<g>
								<g>
									<g>
										<path d="M426.97,228.425c-0.004,1.344-1.097,2.429-2.441,2.425c-1.344-0.004-2.429-1.097-2.425-2.441
											c0.004-1.344,1.097-2.429,2.441-2.425C425.889,225.988,426.974,227.081,426.97,228.425z"/>
									</g>
								</g>
							</g>
						</g>
					</g>
				</g>
				<g style="opacity:0.2;">
					<g>
						<g>
							<g>
								<polygon points="406.603,244.564 417.441,230.163 424.098,239.216 428.647,234.402 437.576,244.663 								"/>
							</g>
						</g>
					</g>
				</g>
			</g>
			<g>
				<path style="fill:#263238;" d="M438.559,251.844c0,0.144-6.925,0.26-15.465,0.26c-8.543,0-15.467-0.117-15.467-0.26
					c0-0.144,6.923-0.26,15.467-0.26C431.634,251.583,438.559,251.7,438.559,251.844z"/>
			</g>
			<g>
				<path style="fill:#E0E0E0;" d="M432.764,255.342c0,0.144-4.33,0.26-9.671,0.26c-5.342,0-9.672-0.117-9.672-0.26
					c0-0.144,4.33-0.26,9.672-0.26C428.434,255.082,432.764,255.199,432.764,255.342z"/>
			</g>
		</g>
	</g>
	<g>
		<rect x="60.282" y="39.506" style="fill:#FFFFFF;" width="203.65" height="187.085"/>
		<g>
			<g>
				<g>
					<g>
						<g>
							<polygon style="fill:#FF725E;" points="60.039,220.161 263.933,220.815 263.933,67.931 60.529,67.279 							"/>
						</g>
					</g>
				</g>
			</g>
			<g style="opacity:0.2;">
				<g>
					<g>
						<g>
							<g>
								<g>
									<path d="M194.113,113.918c-0.028,8.845-7.221,15.993-16.067,15.965c-8.845-0.029-15.993-7.222-15.964-16.067
										c0.029-8.846,7.221-15.993,16.067-15.964C186.994,97.88,194.141,105.073,194.113,113.918z"/>
								</g>
							</g>
						</g>
					</g>
				</g>
			</g>
			<g style="opacity:0.2;">
				<g>
					<g>
						<g>
							<polygon points="60.038,220.161 131.386,125.358 175.203,184.955 205.153,153.266 263.933,220.815 							"/>
						</g>
					</g>
				</g>
			</g>
		</g>
		<path style="fill:#E0E0E0;" d="M68.44,46.929c0,1.098-0.891,1.989-1.989,1.989c-1.098,0-1.989-0.89-1.989-1.989
			s0.89-1.989,1.989-1.989C67.55,44.94,68.44,45.831,68.44,46.929z"/>
		<path style="fill:#E0E0E0;" d="M74.785,47.021c0,1.098-0.89,1.989-1.989,1.989c-1.099,0-1.989-0.89-1.989-1.989
			s0.89-1.989,1.989-1.989C73.894,45.032,74.785,45.923,74.785,47.021z"/>
		<path style="fill:#E0E0E0;" d="M81.129,47.113c0,1.098-0.89,1.989-1.989,1.989c-1.098,0-1.989-0.891-1.989-1.989
			c0-1.098,0.89-1.989,1.989-1.989C80.238,45.124,81.129,46.015,81.129,47.113z"/>
		<rect x="60.282" y="54.207" style="fill:#F5F5F5;" width="203.65" height="13.724"/>
		<g>
			<path style="fill:#263238;" d="M201.053,47.176c0,0.144-15.593,0.26-34.823,0.26c-19.237,0-34.826-0.117-34.826-0.26
				c0-0.144,15.589-0.26,34.826-0.26C185.46,46.915,201.053,47.032,201.053,47.176z"/>
		</g>
		<g>
			<path style="fill:#263238;" d="M263.932,226.59c-0.002-1.877-0.089-74.649-0.222-187.085l0.222,0.222
				c-58.765,0.011-128.739,0.024-203.631,0.038h-0.019l0.26-0.26c-0.012,68.175-0.023,132.267-0.032,187.085l-0.228-0.228
				C182.001,226.499,261.965,226.588,263.932,226.59c-1.966,0.002-81.931,0.092-203.649,0.228l-0.228,0l0-0.229
				c-0.009-54.818-0.02-118.909-0.032-187.085l0-0.26h0.261h0.019c74.892,0.014,144.866,0.027,203.631,0.038h0.222l0,0.222
				C264.02,151.941,263.934,224.715,263.932,226.59z"/>
		</g>
		<g>
			<circle style="fill:#F5F5F5;stroke:#263238;stroke-width:0.05;stroke-miterlimit:10;" cx="263.933" cy="129.73" r="11.943"/>
			<g>
				<circle style="fill:#F5F5F5;" cx="263.933" cy="129.73" r="11.943"/>
				<g>
					<path style="fill:#263238;" d="M275.875,129.73c-0.073,0.006-0.003-1.065-0.472-2.891c-0.464-1.791-1.662-4.422-4.357-6.455
						c-1.335-0.993-3.014-1.836-4.95-2.172c-1.922-0.325-4.09-0.26-6.151,0.528c-1.038,0.362-2.038,0.908-2.957,1.597
						c-0.93,0.676-1.773,1.514-2.469,2.485c-1.437,1.914-2.247,4.372-2.27,6.906c0.023,2.535,0.832,4.994,2.27,6.909
						c0.695,0.972,1.539,1.81,2.469,2.486c0.919,0.689,1.92,1.236,2.957,1.598c2.061,0.788,4.229,0.852,6.151,0.528
						c1.935-0.337,3.615-1.18,4.95-2.173c2.694-2.033,3.893-4.664,4.356-6.455C275.872,130.795,275.802,129.724,275.875,129.73
						c0.018,0,0.022,0.262,0.014,0.764c0.002,0.252-0.01,0.562-0.069,0.926c-0.047,0.365-0.091,0.788-0.22,1.25
						c-0.411,1.835-1.581,4.563-4.329,6.699c-1.362,1.043-3.09,1.936-5.094,2.304c-1.99,0.356-4.242,0.306-6.394-0.501
						c-1.083-0.371-2.128-0.935-3.09-1.649c-0.972-0.701-1.855-1.572-2.584-2.584c-1.505-1.993-2.357-4.565-2.379-7.211
						c0.023-2.646,0.875-5.216,2.38-7.209c0.729-1.011,1.612-1.882,2.584-2.583c0.961-0.714,2.007-1.277,3.089-1.649
						c2.152-0.806,4.404-0.857,6.394-0.501c2.003,0.368,3.732,1.261,5.094,2.304c2.749,2.136,3.919,4.863,4.33,6.699
						c0.129,0.462,0.174,0.886,0.22,1.25c0.059,0.363,0.071,0.674,0.069,0.926C275.897,129.468,275.893,129.73,275.875,129.73z"/>
				</g>
			</g>
			<polyline style="fill:none;stroke:#263238;stroke-linecap:round;stroke-linejoin:round;stroke-miterlimit:10;" points="
				262.965,126.412 266.283,129.73 262.965,133.048 			"/>
		</g>
		<g>
			<g>
				
					<ellipse transform="matrix(0.9203 -0.3911 0.3911 0.9203 -47.3489 33.6219)" style="fill:#F5F5F5;" cx="58.864" cy="133.048" rx="11.943" ry="11.943"/>
				<g>
					<path style="fill:#263238;" d="M46.922,133.048c0.073-0.006,0.003,1.065,0.472,2.891c0.463,1.791,1.662,4.422,4.357,6.455
						c1.335,0.993,3.014,1.836,4.95,2.172c1.922,0.324,4.09,0.26,6.151-0.528c1.038-0.362,2.038-0.908,2.957-1.597
						c0.93-0.676,1.773-1.514,2.469-2.486c1.437-1.914,2.247-4.372,2.27-6.906c-0.023-2.535-0.832-4.994-2.27-6.909
						c-0.695-0.972-1.539-1.81-2.469-2.486c-0.919-0.689-1.92-1.236-2.957-1.598c-2.061-0.788-4.229-0.852-6.151-0.528
						c-1.935,0.337-3.615,1.179-4.95,2.173c-2.694,2.033-3.893,4.664-4.356,6.455C46.925,131.983,46.995,133.054,46.922,133.048
						c-0.018,0-0.022-0.262-0.014-0.764c-0.002-0.252,0.01-0.562,0.069-0.926c0.047-0.365,0.091-0.788,0.22-1.25
						c0.411-1.835,1.581-4.563,4.329-6.698c1.361-1.043,3.09-1.936,5.094-2.304c1.99-0.356,4.242-0.306,6.394,0.501
						c1.083,0.371,2.128,0.935,3.09,1.649c0.972,0.701,1.855,1.572,2.584,2.584c1.505,1.993,2.357,4.565,2.379,7.211
						c-0.023,2.645-0.875,5.216-2.38,7.208c-0.729,1.011-1.612,1.883-2.584,2.583c-0.961,0.714-2.007,1.278-3.089,1.649
						c-2.152,0.806-4.404,0.857-6.394,0.501c-2.003-0.368-3.732-1.261-5.094-2.304c-2.749-2.136-3.919-4.863-4.33-6.699
						c-0.129-0.462-0.174-0.885-0.22-1.25c-0.059-0.363-0.071-0.674-0.069-0.926C46.899,133.31,46.904,133.048,46.922,133.048z"/>
				</g>
			</g>
			<polyline style="fill:none;stroke:#263238;stroke-linecap:round;stroke-linejoin:round;stroke-miterlimit:10;" points="
				59.832,136.366 56.514,133.048 59.832,129.73 			"/>
		</g>
	</g>
</g>
<g id="Character">
	<g>
		<g>
			<g>
				<polygon style="fill:#263238;" points="406.26,485.145 397.191,485.269 306.762,385.415 312.336,380.367 				"/>
			</g>
			<g>
				<polygon style="fill:#263238;" points="307.137,485.145 296.42,484.761 394.167,380.887 399.644,386.041 				"/>
			</g>
			<g>
				<g>
					<polygon style="fill:#455A64;" points="449.475,227.703 390.292,229.178 324.859,380.404 397.571,380.568 					"/>
				</g>
				<g>
					<polygon style="fill:#455A64;" points="457.432,234.147 402.43,391.602 247.174,391.602 247.174,380.568 397.571,380.568 
						449.475,227.703 					"/>
				</g>
				<g>
					<g>
						<path style="fill:#263238;" d="M449.475,227.703c0,0-0.07,0.264-0.232,0.771c-0.171,0.522-0.415,1.27-0.734,2.246
							c-0.662,1.987-1.628,4.888-2.872,8.62c-2.522,7.494-6.163,18.309-10.659,31.669c-9.056,26.737-21.558,63.647-35.366,104.414
							c-0.609,1.793-1.215,3.578-1.777,5.233l-0.064,0.189l-0.2,0c-41.81-0.033-79.403-0.063-106.562-0.085
							c-13.561-0.037-24.514-0.067-32.097-0.087c-3.771-0.022-6.7-0.039-8.706-0.051c-0.982-0.012-1.735-0.021-2.262-0.027
							c-0.509-0.009-0.77-0.028-0.77-0.028s0.261-0.019,0.77-0.028c0.527-0.006,1.279-0.015,2.262-0.027
							c2.007-0.012,4.935-0.029,8.706-0.051c7.583-0.021,18.535-0.051,32.097-0.087c27.159-0.022,64.751-0.051,106.562-0.085
							l-0.263,0.189c0.562-1.655,1.168-3.441,1.777-5.233c13.869-40.746,26.425-77.638,35.521-104.362
							c4.568-13.336,8.265-24.131,10.827-31.612c1.286-3.717,2.286-6.607,2.971-8.586c0.341-0.968,0.603-1.71,0.786-2.229
							C449.369,227.955,449.475,227.703,449.475,227.703z"/>
					</g>
				</g>
			</g>
			<g>
				<polygon style="fill:#455A64;" points="376.576,485.269 364.791,485.269 274.361,385.415 279.935,380.367 				"/>
			</g>
			<g>
				<polygon style="fill:#455A64;" points="274.558,485.145 263.658,485.145 361.766,380.887 367.243,386.041 				"/>
			</g>
			<g>
				<rect x="319.335" y="425.978" style="fill:#455A64;" width="35.082" height="8.124"/>
			</g>
		</g>
		<g>
			<g>
				<g>
					<g>
						<path style="fill:#263238;" d="M368.591,163.653c6.111-0.632,11.272,2.043,16.146,5.784c4.874,3.74,8.376,9.134,10.218,14.995
							c1.94,6.173,2.065,12.985-0.135,19.071c-2.2,6.086-6.812,11.36-12.76,13.908c-8.123,3.479-18.087,1.428-24.773-4.351
							c-6.686-5.779-10.131-14.835-9.892-23.669c0.165-6.086,2.022-12.202,5.745-17.019
							C356.862,167.553,362.523,164.142,368.591,163.653"/>
					</g>
					<g>
						<g>
							<g>
								<path style="fill:#263238;" d="M384.435,185.331c-0.733-2.37-0.221-4.929-0.41-7.403
									c-0.417-5.447-4.482-10.059-9.373-12.492c-4.55-2.263-10.292-2.21-16.047-0.757c-3.945,0.996-7.723,2.936-10.504,5.905
									c-3.691,3.941-5.28,9.746-4.112,15.018l27.874-2.214c2.445,2.308,4.949,4.656,8.007,6.054
									c0.897,0.41,1.87,0.738,2.852,0.648c0.982-0.09,1.971-0.69,2.264-1.631C385.305,187.429,384.753,186.361,384.435,185.331z"
									/>
							</g>
						</g>
						<g>
							<g>
								<path style="fill:#FFBE9D;" d="M357.516,172.263l23.771,6.685c2.322,0.308,4.022,2.342,3.913,4.681l-3.704,52.148
									c-0.253,3.562-1.673,6.942-4.042,9.615l-2.493,2.814c-5.684,6.417-16.257,5.041-19.766-2.78
									c-0.245-0.547-0.408-1.022-0.465-1.402c-0.05-0.475-0.154-0.792-0.15-1.193c-0.422-4.085,0.099-7.927,0.099-7.927
									c0.069-4.66,0.121-6.571,0.117-6.528c0,0-9.783-1.893-11.479-14.768c-0.843-6.403-0.245-16.849,0.52-25.38
									C344.526,180.55,349.873,171.248,357.516,172.263z"/>
							</g>
						</g>
						<g>
							<g>
								<g>
									<g>
										<g>
											<g>
												<g>
													<g>
														<g>
															<g>
																<g>
																	<g>
																		<g>
																			<g>
																				<g>
																					<g>
																						<g>
																							<g>
																								<path style="fill:#263238;" d="M346.863,198.259c-0.054,0.868,0.637,1.629,1.541,1.701
																									c0.903,0.072,1.681-0.57,1.735-1.438c0.053-0.868-0.637-1.629-1.54-1.702
																									C347.694,196.748,346.917,197.392,346.863,198.259z"/>
																							</g>
																						</g>
																					</g>
																				</g>
																			</g>
																		</g>
																	</g>
																</g>
															</g>
														</g>
													</g>
												</g>
											</g>
										</g>
									</g>
									<g>
										<g>
											<g>
												<g>
													<g>
														<g>
															<g>
																<g>
																	<g>
																		<g>
																			<g>
																				<g>
																					<g>
																						<g>
																							<g>
																								<g>
																									<path style="fill:#263238;" d="M345.96,193.728c0.198,0.22,1.468-0.669,3.238-0.617
																										c1.768,0.026,3.042,0.971,3.24,0.759c0.097-0.093-0.101-0.486-0.655-0.913
																										c-0.546-0.425-1.485-0.848-2.587-0.873c-1.102-0.023-2.04,0.358-2.584,0.759
																										C346.057,193.247,345.863,193.629,345.96,193.728z"/>
																								</g>
																							</g>
																						</g>
																					</g>
																				</g>
																			</g>
																		</g>
																	</g>
																</g>
															</g>
														</g>
													</g>
												</g>
											</g>
										</g>
									</g>
								</g>
								<g>
									<g>
										<g>
											<g>
												<g>
													<g>
														<g>
															<g>
																<g>
																	<g>
																		<g>
																			<g>
																				<g>
																					<g>
																						<g>
																							<g>
																								<path style="fill:#263238;" d="M362.709,198.899c-0.054,0.868,0.636,1.628,1.541,1.701
																									c0.903,0.072,1.68-0.57,1.734-1.437c0.054-0.867-0.637-1.63-1.54-1.702
																									C363.54,197.387,362.762,198.031,362.709,198.899z"/>
																							</g>
																						</g>
																					</g>
																				</g>
																			</g>
																		</g>
																	</g>
																</g>
															</g>
														</g>
													</g>
												</g>
											</g>
										</g>
									</g>
									<g>
										<g>
											<g>
												<g>
													<g>
														<g>
															<g>
																<g>
																	<g>
																		<g>
																			<g>
																				<g>
																					<g>
																						<g>
																							<g>
																								<g>
																									<path style="fill:#263238;" d="M362.748,194.395c0.199,0.22,1.47-0.669,3.239-0.617
																										c1.768,0.026,3.042,0.971,3.24,0.759c0.096-0.094-0.099-0.486-0.655-0.913
																										c-0.546-0.425-1.484-0.849-2.586-0.874c-1.102-0.023-2.04,0.358-2.584,0.759
																										C362.847,193.913,362.651,194.296,362.748,194.395z"/>
																								</g>
																							</g>
																						</g>
																					</g>
																				</g>
																			</g>
																		</g>
																	</g>
																</g>
															</g>
														</g>
													</g>
												</g>
											</g>
										</g>
									</g>
								</g>
								<g>
									<g>
										<g>
											<g>
												<g>
													<g>
														<g>
															<g>
																<g>
																	<g>
																		<g>
																			<g>
																				<g>
																					<g>
																						<g>
																							<g>
																								<path style="fill:#263238;" d="M356.574,207.472c0.011-0.1-1.084-0.319-2.86-0.595
																									c-0.451-0.059-0.876-0.16-0.944-0.47c-0.098-0.33,0.104-0.811,0.337-1.331
																									c0.454-1.082,0.929-2.217,1.428-3.405c1.985-4.849,3.436-8.842,3.24-8.919
																									c-0.196-0.078-1.965,3.789-3.95,8.638c-0.478,1.196-0.936,2.336-1.372,3.427
																									c-0.185,0.509-0.494,1.084-0.282,1.767c0.113,0.341,0.438,0.595,0.725,0.68
																									c0.287,0.096,0.541,0.108,0.764,0.127C355.452,207.535,356.565,207.572,356.574,207.472z"/>
																							</g>
																						</g>
																					</g>
																				</g>
																			</g>
																		</g>
																	</g>
																</g>
															</g>
														</g>
													</g>
												</g>
											</g>
										</g>
									</g>
								</g>
								<g>
									<g>
										<g>
											<g>
												<g>
													<g>
														<g>
															<g>
																<g>
																	<g>
																		<g>
																			<g>
																				<g>
																					<g>
																						<g>
																							<path style="fill:#EB996E;" d="M354.796,228.378c0,0,8.611,0.785,17.293-4.124c0,0-4.553,8.761-17.354,7.22
																								L354.796,228.378z"/>
																						</g>
																					</g>
																				</g>
																			</g>
																		</g>
																	</g>
																</g>
															</g>
														</g>
													</g>
												</g>
											</g>
										</g>
									</g>
								</g>
								<g>
									<g>
										<g>
											<g>
												<g>
													<g>
														<g>
															<g>
																<g>
																	<g>
																		<g>
																			<g>
																				<g>
																					<g>
																						<g>
																							<path style="fill:#EB996E;" d="M357.209,211.756c0.659-0.824,1.786-1.257,2.89-1.108
																								c0.766,0.103,1.532,0.494,1.981,1.132c0.45,0.637,0.524,1.528,0.084,2.113
																								c-0.496,0.659-1.497,0.787-2.335,0.525c-0.838-0.263-1.55-0.838-2.226-1.41
																								c-0.187-0.158-0.378-0.323-0.491-0.537c-0.114-0.213-0.132-0.488,0.02-0.658"/>
																						</g>
																					</g>
																				</g>
																			</g>
																		</g>
																	</g>
																</g>
															</g>
														</g>
													</g>
												</g>
											</g>
										</g>
									</g>
								</g>
								<g>
									<g>
										<g>
											<g>
												<g>
													<g>
														<g>
															<g>
																<g>
																	<g>
																		<g>
																			<g>
																				<g>
																					<g>
																						<g>
																							<g>
																								<path style="fill:#263238;" d="M361.749,208.834c-0.287-0.025-0.342,1.896-2.022,3.216
																									c-1.677,1.324-3.719,1.054-3.741,1.322c-0.03,0.12,0.446,0.385,1.309,0.432
																									c0.847,0.052,2.092-0.188,3.12-0.995c1.025-0.809,1.486-1.913,1.573-2.699
																									C362.082,209.308,361.88,208.827,361.749,208.834z"/>
																							</g>
																						</g>
																					</g>
																				</g>
																			</g>
																		</g>
																	</g>
																</g>
															</g>
														</g>
													</g>
												</g>
											</g>
										</g>
									</g>
								</g>
							</g>
						</g>
						<g>
							<g>
								<g>
									<g>
										<g>
											<g>
												<g>
													<g>
														<g>
															<g>
																<g>
																	<g>
																		<g>
																			<g>
																				<path style="fill:#263238;" d="M363.19,189.163c0.161,0.486,1.935,0.305,4.003,0.61
																					c2.076,0.264,3.734,0.916,4.021,0.492c0.128-0.203-0.152-0.663-0.816-1.147
																					c-0.659-0.483-1.717-0.953-2.96-1.125c-1.243-0.169-2.389-0.002-3.153,0.286
																					C363.515,188.565,363.121,188.932,363.19,189.163z"/>
																			</g>
																		</g>
																	</g>
																</g>
															</g>
														</g>
													</g>
												</g>
											</g>
										</g>
									</g>
								</g>
							</g>
						</g>
						<g>
							<g>
								<g>
									<g>
										<g>
											<g>
												<g>
													<g>
														<g>
															<g>
																<g>
																	<g>
																		<g>
																			<g>
																				<path style="fill:#263238;" d="M346.679,186.004c0.301,0.41,1.531,0.025,2.997,0.044
																					c1.467-0.032,2.7,0.342,2.996-0.071c0.131-0.201-0.054-0.608-0.586-1.003c-0.525-0.393-1.41-0.727-2.418-0.723
																					c-1.008,0.005-1.89,0.346-2.411,0.744C346.728,185.395,346.547,185.804,346.679,186.004z"/>
																			</g>
																		</g>
																	</g>
																</g>
															</g>
														</g>
													</g>
												</g>
											</g>
										</g>
									</g>
								</g>
							</g>
						</g>
						<g>
							<g>
								<path style="fill:#263238;" d="M389.097,181.898c-2.018-7.504-12.275-18.22-20.044-18.031l-12.703,6.854
									c0.557,4.248,3.644,8.065,7.681,9.498c2.156,0.765,4.781,1.068,5.995,3.007c1.24,1.98,0.337,4.741,1.483,6.777
									c1.588,2.822,6.275,2.905,7.425,5.932c0.502,1.323,0.139,2.859,0.664,4.172c0.701,1.75,4.942,4.121,6.763,3.634
									s1.965-3.544,2.625-5.118c1.127-2.691,0.779-4.128,0.518-5.672C388.888,189.295,390.06,185.478,389.097,181.898z"/>
							</g>
						</g>
						<g>
							<g>
								<g>
									<g>
										<g>
											<path style="fill:#FFBE9D;" d="M380.997,205.013c0.028-0.955,1.191-3.176,2.138-3.299
												c2.528-0.326,7.062-0.003,6.934,6.393c-0.175,8.743-8.917,6.764-8.927,6.513
												C381.133,214.425,380.901,208.31,380.997,205.013z"/>
										</g>
									</g>
								</g>
							</g>
						</g>
						<g>
							<g>
								<g>
									<g>
										<g>
											<g>
												<path style="fill:#EB996E;" d="M383.879,211.362c0.039-0.027,0.15,0.11,0.405,0.233c0.249,0.12,0.679,0.208,1.138,0.046
													c0.931-0.32,1.738-1.771,1.811-3.346c0.038-0.796-0.113-1.556-0.383-2.19c-0.254-0.645-0.659-1.1-1.122-1.192
													c-0.46-0.116-0.795,0.155-0.907,0.399c-0.122,0.243-0.07,0.418-0.117,0.432c-0.025,0.022-0.185-0.15-0.107-0.509
													c0.04-0.173,0.146-0.377,0.355-0.541c0.213-0.166,0.523-0.247,0.847-0.206c0.673,0.06,1.268,0.693,1.564,1.388
													c0.333,0.699,0.522,1.555,0.479,2.448c-0.091,1.761-1.026,3.391-2.297,3.731c-0.618,0.148-1.128-0.048-1.388-0.259
													C383.89,211.574,383.848,211.377,383.879,211.362z"/>
											</g>
										</g>
									</g>
								</g>
							</g>
						</g>
					</g>
					<g>
						<path style="fill:#263238;" d="M391.112,179.758L391.112,179.758c0.15-2.729,3.673-4.29,6.37-4.734
							c2.697-0.444,5.453,0.548,7.759,2.015c1.349,0.858,2.687,2.041,2.898,3.626c0.211,1.585-1.417,3.351-2.874,2.693
							c2.798,1.167,4,5.085,2.337,7.62c-1.663,2.535-5.736,2.993-7.92,0.892c0.583,2.547,2.067,4.878,4.127,6.485
							c-4.526,0.346-9.162-1.881-11.721-5.631C389.527,188.976,389.142,183.848,391.112,179.758z"/>
					</g>
					<g>
						<g>
							<path style="fill:#FF725E;" d="M396.256,194.02c0.062,0.014,0.359-0.961,0.497-2.595c0.142-1.63,0.049-3.927-0.592-6.357
								c-0.649-2.429-1.709-4.469-2.64-5.814c-0.931-1.351-1.672-2.049-1.719-2.007c-0.168,0.103,2.567,3.19,3.8,7.969
								C396.902,189.976,396.059,194.014,396.256,194.02z"/>
						</g>
					</g>
					<g>
						<path style="fill:#263238;" d="M359.056,168.25c-1.035,3.497-6.727,7.695-9.276,10.303c-4.863,4.977-5.868,6.669-6.596,18.458
							c-1.867-4.21-3.239-8.306-2.775-12.888c0.464-4.582,2.457-9.072,5.867-12.169C349.685,168.859,354.551,167.294,359.056,168.25
							"/>
					</g>
				</g>
				<g>
					<path style="fill:#455A64;" d="M393.549,182.074c0.005,0.036-0.53,0.13-1.506,0.271c-0.487,0.077-1.085,0.154-1.785,0.193
						c-0.698,0.045-1.494,0.131-2.376,0.119c-1.764,0.052-3.868-0.057-6.186-0.34c-2.312-0.32-4.835-0.835-7.412-1.63
						c-2.57-0.82-4.936-1.838-7.017-2.897c-2.064-1.092-3.854-2.204-5.272-3.255c-0.731-0.495-1.335-1.019-1.882-1.455
						c-0.552-0.431-0.999-0.836-1.355-1.178c-0.72-0.673-1.105-1.056-1.081-1.082c0.025-0.026,0.456,0.307,1.213,0.929
						c0.374,0.316,0.837,0.697,1.403,1.103c0.561,0.411,1.175,0.911,1.914,1.382c1.433,1.003,3.224,2.072,5.278,3.128
						c2.071,1.024,4.413,2.016,6.954,2.827c2.548,0.785,5.037,1.309,7.321,1.651c2.289,0.306,4.37,0.452,6.119,0.447
						c0.875,0.035,1.665-0.024,2.36-0.041c0.696-0.01,1.293-0.058,1.781-0.104C393,182.065,393.544,182.039,393.549,182.074z"/>
				</g>
				<g>
					<path style="fill:#455A64;" d="M394.05,188.385c0.004,0.036-0.361,0.098-1.027,0.181c-0.665,0.091-1.635,0.155-2.835,0.174
						c-2.398,0.042-5.737-0.23-9.291-1.165c-3.553-0.946-6.589-2.362-8.652-3.585c-1.034-0.61-1.845-1.145-2.377-1.553
						c-0.537-0.401-0.823-0.636-0.803-0.665c0.052-0.075,1.267,0.771,3.36,1.897c2.089,1.129,5.103,2.47,8.606,3.403
						c3.504,0.922,6.786,1.248,9.16,1.3C392.567,188.429,394.041,188.294,394.05,188.385z"/>
				</g>
			</g>
			<path style="fill:#FF725E;" d="M379.99,326.605l-56.115,8.149c-21.077,5.965-43.283,7.712-66.497,5.697l84.45,39.395
				l33.904,0.526c0,0,10.323,0.032,12.128-9.007c1.832-9.178,3.809-36.432,3.809-36.432S384.971,329.108,379.99,326.605z"/>
			<g style="opacity:0.3;">
				<g>
					<path d="M379.825,350.226c0.921,5.613,1.254,11.322,0.99,17.003c3.468-3.745,5.054-9.151,4.159-14.177
						c-0.494-2.773-1.648-5.82-0.197-8.234c0.973-1.619,3.548-3.479,3.172-5.331c0,0-2.255,0-4.301-0.082
						c-1.64-0.066-5.053-0.167-5.053-0.167c1.725,4.44,1.593,7.177,0.907,11.148"/>
				</g>
			</g>
			<g>
				<g>
					<polygon style="fill:#FFBE9D;" points="353.844,237.879 381.855,235.518 385.905,235.927 368.027,250.616 358.895,253.797 
						350.867,250.042 348.926,244.658 					"/>
				</g>
				<g>
					<polygon style="fill:#FFBE9D;" points="320.703,269.511 310.151,302.956 287.538,334.898 301.836,345.193 326.549,314.693 
						334.823,276.897 					"/>
					<g>
						<path style="fill:#263238;" d="M316.123,263.525c0,0,10.284-15.501,13.395-18.266c3.745-3.328,10.537-5.904,10.537-5.904
							l13.789-1.477c0,0-8.495,9.816,1.246,11.034c9.742,1.218,30.814-12.986,30.814-12.986s14.728,2.757,18.382,4.949
							c3.653,2.192,12.908,7.794,12.421,22.65l0.018,11.934c0,0-27.783-0.974-28.026,0c-0.244,0.974-5.845,44.812-5.845,44.812
							l-14.126,8.524c0,0-38.091,7.286-40.527,7.773c-2.435,0.487-0.632-61.839-0.632-61.839S317.828,270.101,316.123,263.525z"/>
					</g>
					<g>
						<g>
							<path style="fill:#FFBE9D;" d="M331.319,324.275l52.022-7.807l5.358-41.009h26.059c0,0-6.185,28.895-7.55,36.288
								c-1.963,10.633-9.255,24.842-13.151,27.52c-3.897,2.679-65.855-2.7-65.855-2.7L331.319,324.275z"/>
						</g>
						<g>
							<path style="fill:#FFBE9D;" d="M301.771,329.014c0.314,0.739,1.034,1.255,1.836,1.238c0.16-0.004,0.328-0.024,0.503-0.068
								c1.158-0.29,1.203-2.607,1.203-2.607l5.494-0.532c0,0,6.77,5.021,9.087,8.207c2.317,3.186,8.892,1.159,8.892,1.159
								l2.982-11.44l-9.413-9.702c0,0,0.579,0.579,0-1.158c-0.579-1.738-3.765-1.303-3.765-1.303
								c-0.434-0.869-2.468-1.303-2.468-1.303l-8.842,0.437c-1.822,0.09-3.505,1-4.578,2.475l-4.096,5.632
								c0,0-2.237,4.101-1.986,5.105c0.379,1.515,1.969,1.288,1.969,1.288s0.249,2.809,0.973,2.953
								C300.288,329.538,301.771,329.014,301.771,329.014L301.771,329.014z"/>
						</g>
						<g>
							<g>
								<path style="fill:#EB996E;" d="M320.993,321.916c-0.015,0.091-1.175-0.093-3.055-0.134
									c-1.876-0.031-4.485,0.128-7.249,0.872c-1.381,0.366-2.664,0.833-3.796,1.337c-1.1,0.528-2.238,0.946-2.628,1.696
									c-0.195,0.367-0.144,0.756,0.027,1.052c0.167,0.295,0.408,0.497,0.626,0.603c0.448,0.22,0.755,0.109,0.762,0.163
									c0.021,0.014-0.288,0.224-0.847,0.038c-0.269-0.092-0.575-0.296-0.809-0.641c-0.24-0.328-0.354-0.892-0.117-1.387
									c0.224-0.499,0.685-0.867,1.173-1.162c0.498-0.282,1.02-0.569,1.598-0.833c1.145-0.541,2.454-1.034,3.867-1.409
									c2.83-0.762,5.51-0.86,7.411-0.726C319.864,321.53,321.006,321.855,320.993,321.916z"/>
							</g>
						</g>
						<g>
							<g>
								<path style="fill:#EB996E;" d="M321.241,327.552c-0.021,0.165-3.583-0.217-7.987-0.247
									c-4.406-0.046-7.973,0.275-7.991,0.109c-0.008-0.073,0.876-0.248,2.321-0.405c1.445-0.158,3.454-0.283,5.674-0.265
									c2.22,0.02,4.226,0.18,5.668,0.363C320.37,327.289,321.25,327.479,321.241,327.552z"/>
							</g>
						</g>
						<g>
							<g>
								<path style="fill:#EB996E;" d="M301.836,328.795c-0.029-0.007-0.047-0.333-0.049-0.942c0.003-0.606,0.023-1.486,0.163-2.57
									c0.073-0.542,0.17-1.136,0.361-1.764c0.181-0.632,0.531-1.287,0.987-1.856c0.869-1.145,2.05-2.314,3.509-3.152
									c1.454-0.828,2.898-1.513,4.336-1.847c1.427-0.332,2.743-0.351,3.828-0.329c1.088,0.033,1.96,0.114,2.562,0.176
									c0.602,0.064,0.933,0.118,0.932,0.156c-0.002,0.09-1.347,0.047-3.495,0.064c-1.07,0.028-2.35,0.09-3.706,0.435
									c-1.344,0.336-2.766,1.025-4.171,1.826c-1.408,0.814-2.51,1.882-3.391,2.99c-0.921,1.051-1.162,2.311-1.362,3.36
									C301.991,327.454,301.957,328.806,301.836,328.795z"/>
							</g>
						</g>
						<g>
							<g>
								<path style="fill:#EB996E;" d="M315.554,313.705c-0.005,0.084-1.321,0.032-3.434,0.136c-2.04,0.177-5.28,0.114-7.303,2.777
									c-2.159,2.401-4.01,4.681-4.88,6.594c-0.913,1.896-0.932,3.249-1.046,3.231c-0.03-0.001-0.06-0.335,0.01-0.934
									c0.064-0.598,0.25-1.464,0.674-2.459c0.809-2.026,2.656-4.396,4.828-6.811c0.553-0.606,1.146-1.176,1.819-1.613
									c0.671-0.446,1.432-0.681,2.128-0.835c1.41-0.3,2.69-0.331,3.759-0.347C314.249,313.442,315.56,313.634,315.554,313.705z"/>
							</g>
						</g>
						<g>
							<g>
								<path style="fill:#EB996E;" d="M318.098,333.257c-0.013,0.012-0.182-0.136-0.495-0.432
									c-0.356-0.327-0.817-0.749-1.392-1.276c-1.231-1.087-3.064-2.64-5.508-4.35l0.123,0.032c-1.639,0.17-3.488,0.361-5.49,0.569
									l0.201-0.217c-0.017,0.444-0.071,0.876-0.188,1.321c-0.12,0.436-0.292,0.904-0.702,1.267
									c-0.212,0.175-0.505,0.269-0.742,0.284c-0.246,0.046-0.51,0.053-0.767-0.005c-0.513-0.108-0.983-0.413-1.303-0.837
									c-0.082-0.104-0.151-0.219-0.215-0.337l-0.044-0.09l-0.021-0.046l-0.011-0.023l-0.001-0.003
									c-0.068-0.031,0.592,0.26,0.311,0.137l-0.006,0.002l-0.012,0.004l-0.177,0.059c-0.235,0.076-0.474,0.143-0.718,0.202
									c-0.245,0.058-0.494,0.109-0.756,0.137c-0.132,0.013-0.265,0.024-0.407,0.018c-0.132-0.004-0.292-0.009-0.497-0.13
									c-0.292-0.239-0.385-0.503-0.485-0.753c-0.093-0.254-0.165-0.508-0.221-0.765c-0.117-0.514-0.193-1.028-0.248-1.561
									l0.303,0.24c-0.713,0.078-1.533-0.146-1.979-0.823c-0.201-0.314-0.357-0.696-0.302-1.118
									c0.043-0.379,0.15-0.707,0.261-1.038c0.468-1.308,1.088-2.552,1.754-3.81l0.008-0.015l0.012-0.016
									c0.696-0.958,1.436-1.975,2.184-3.005c0.465-0.639,0.927-1.274,1.385-1.904c0.459-0.609,0.879-1.299,1.502-1.833
									c0.601-0.533,1.307-0.935,2.056-1.18c0.744-0.265,1.554-0.29,2.269-0.318c2.929-0.137,5.722-0.267,8.333-0.389l0.036-0.002
									l0.029,0.007c0.503,0.12,0.97,0.27,1.426,0.477c0.443,0.214,0.912,0.452,1.203,0.964l-0.298-0.115
									c0.954-0.32,2.03-0.254,2.809,0.342c0.782,0.591,1.102,1.484,1.249,2.313l-0.059-0.119c2.704,2.772,4.911,5.034,6.489,6.652
									c0.726,0.763,1.307,1.372,1.746,1.833c0.395,0.424,0.595,0.654,0.58,0.668c-0.015,0.015-0.243-0.187-0.666-0.584
									c-0.458-0.441-1.065-1.024-1.824-1.755c-1.61-1.586-3.861-3.804-6.62-6.522l-0.045-0.044l-0.014-0.075
									c-0.137-0.731-0.456-1.549-1.103-2.01c-0.627-0.485-1.57-0.533-2.369-0.259l-0.197,0.068l-0.101-0.183
									c-0.169-0.305-0.571-0.552-0.979-0.732c-0.413-0.185-0.873-0.328-1.329-0.433l0.064,0.005
									c-2.61,0.136-5.403,0.282-8.331,0.435c-0.747,0.033-1.443,0.056-2.123,0.298c-0.677,0.224-1.315,0.589-1.858,1.072
									c-0.55,0.466-0.946,1.114-1.42,1.746c-0.458,0.63-0.919,1.265-1.384,1.905c-0.749,1.029-1.489,2.046-2.186,3.003l0.019-0.03
									c-0.654,1.23-1.277,2.477-1.725,3.722c-0.107,0.309-0.206,0.628-0.238,0.915c-0.046,0.247,0.063,0.525,0.21,0.762
									c0.286,0.466,0.913,0.648,1.454,0.596l0.277-0.027l0.027,0.267c0.05,0.502,0.122,1.011,0.23,1.492
									c0.102,0.456,0.262,1.013,0.491,1.211c0.012,0.007,0.103,0.042,0.219,0.039c0.106,0.006,0.221-0.002,0.335-0.013
									c0.229-0.023,0.462-0.068,0.692-0.121c0.23-0.054,0.459-0.117,0.683-0.187l0.166-0.054l0.01-0.003l0.005-0.002
									c-0.279-0.124,0.383,0.167,0.315,0.138l0.001,0.002l0.008,0.018l0.017,0.036l0.034,0.072
									c0.05,0.093,0.103,0.184,0.168,0.267c0.25,0.337,0.617,0.576,1.009,0.663c0.196,0.047,0.396,0.042,0.6,0.005
									c0.219-0.016,0.367-0.068,0.51-0.176c0.553-0.505,0.69-1.463,0.743-2.231l0.014-0.201l0.187-0.017
									c2.005-0.18,3.856-0.347,5.497-0.494l0.07-0.006l0.053,0.038c2.44,1.768,4.238,3.367,5.434,4.507
									c0.595,0.574,1.039,1.032,1.329,1.351C317.966,333.072,318.111,333.244,318.098,333.257z"/>
							</g>
						</g>
					</g>
				</g>
			</g>
			<g>
				<g>
					<g>
						<path style="fill:#FF725E;" d="M288.925,344.192c0,0-35.552-11.171-46.719-14.791c-19.226-6.232-31.813,0.067-35.782,6.946
							c-5.151,8.926,7.2,26.329,11.957,30.329c14.098,11.853,38.262,13.451,38.262,13.451l0,0l86.889-0.163l-25.37-34.396
							L288.925,344.192z"/>
					</g>
					<g>
						<g>
							<path style="fill:#E0E0E0;" d="M292.675,358.063c-14.402,1.693-29.223-0.324-42.649-5.803
								c-2.348-0.958-4.665-2.024-7.123-2.648c-2.389-0.606-4.886-0.783-7.337-0.518c-1.94,0.209-4.003,0.791-5.182,2.346
								c-1.733,2.286-0.841,5.533,0.121,8.236c1.128,3.167,2.302,6.415,4.508,8.952c2.58,2.967,6.321,4.663,10.07,5.845
								c7.336,2.311,15.085,2.974,22.771,3.28l26.406-1.445L292.675,358.063z"/>
						</g>
						<g>
							<g>
								<path style="fill:#263238;" d="M288.763,376.166c-0.037,0.041-0.859-0.628-1.87-1.997c-1.012-1.36-2.135-3.479-2.728-6.019
									c-0.584-2.544-0.507-4.94-0.196-6.607c0.307-1.674,0.75-2.636,0.802-2.616c0.094,0.029-0.212,1.025-0.412,2.673
									c-0.205,1.644-0.216,3.959,0.349,6.424c0.576,2.462,1.603,4.536,2.51,5.922
									C288.121,375.339,288.834,376.099,288.763,376.166z"/>
							</g>
						</g>
						<g>
							<g>
								<path style="fill:#263238;" d="M241.691,349.624c0.032-0.014,0.187,0.232,0.405,0.709c0.219,0.476,0.482,1.193,0.699,2.11
									c0.442,1.818,0.591,4.523-0.299,7.292c-0.891,2.77-2.589,4.881-4.008,6.101c-0.711,0.618-1.342,1.047-1.798,1.307
									c-0.455,0.261-0.725,0.371-0.742,0.34c-0.052-0.083,0.955-0.658,2.272-1.936c1.314-1.261,2.891-3.326,3.745-5.982
									c0.853-2.656,0.776-5.252,0.443-7.043C242.083,350.716,241.6,349.661,241.691,349.624z"/>
							</g>
						</g>
						<g>
							<g>
								<path style="fill:#263238;" d="M288.485,362.458c0.007,0.154-0.925,0.321-2.081,0.373c-1.156,0.052-2.099-0.03-2.106-0.184
									c-0.007-0.154,0.924-0.321,2.081-0.373C287.535,362.223,288.478,362.305,288.485,362.458z"/>
							</g>
						</g>
						<g>
							<g>
								<path style="fill:#263238;" d="M287.689,369.669c0.063,0.136-0.456,0.485-1.196,0.483c-0.74,0.002-1.259-0.347-1.196-0.483
									c0.059-0.147,0.578-0.069,1.196-0.074C287.111,369.599,287.631,369.522,287.689,369.669z"/>
							</g>
						</g>
					</g>
					<g>
						<path style="fill:#FF725E;" d="M379.66,342.013c-2.064-5.847-2.408-14.446-15.134-18.574
							c-12.726-4.128-22.357,3.784-28.893,6.535c-6.535,2.752-42.307,22.358-42.307,22.358s-6.736,12.012-4.818,17.313
							c1.918,5.301,10.63,10.548,10.63,10.548h25.832c0,0,3.843,0,14.162,0c10.319,0,29.521-0.344,29.521-0.344
							c3.533-5.541,6.879-13.07,6.879-13.07l0.344-1.72C375.877,363.683,381.724,347.861,379.66,342.013z"/>
					</g>
					<g>
						<g>
							<path style="fill:#263238;" d="M357.503,372.396c0,0-0.029,0.23-0.294,0.545c-0.257,0.318-0.696,0.734-1.317,1.186
								c-1.242,0.906-3.165,2.027-5.655,3.168c-1.249,0.563-2.627,1.157-4.176,1.641c-1.544,0.487-3.241,0.847-5.04,1.088
								c-3.604,0.514-7.601,0.401-11.749,0.46c-8.32,0.134-15.858,0.446-21.323,0.385c-2.732-0.02-4.944-0.131-6.466-0.289
								c-0.761-0.078-1.35-0.161-1.745-0.246c-0.396-0.075-0.602-0.123-0.598-0.142c0.01-0.057,0.841,0.091,2.361,0.172
								c1.519,0.091,3.723,0.141,6.448,0.111c5.451-0.04,12.981-0.414,21.316-0.548c4.171-0.059,8.132,0.068,11.691-0.412
								c1.777-0.225,3.449-0.562,4.971-1.021c1.521-0.454,2.904-1.024,4.15-1.559c2.491-1.087,4.429-2.146,5.691-2.986
								c0.632-0.419,1.082-0.798,1.357-1.082C357.406,372.587,357.468,372.381,357.503,372.396z"/>
						</g>
					</g>
				</g>
				<g>
					<g>
						<path style="fill:#263238;" d="M299.139,380.193c0,0-0.187-0.082-0.529-0.281c-0.343-0.197-0.844-0.506-1.489-0.927
							c-1.276-0.857-3.159-2.148-5.258-4.182c-1.028-1.032-2.131-2.253-2.975-3.837c-0.888-1.596-0.928-3.671-0.587-5.689
							c0.708-4.09,2.497-8.462,4.835-13.047l0.028-0.055l0.059-0.032c6.547-3.603,14.063-7.704,22.275-12.113
							c4.108-2.2,8.389-4.48,12.831-6.774c2.227-1.14,4.473-2.309,6.833-3.37c2.348-0.997,4.593-2.302,6.94-3.497
							c3.318-1.702,6.749-3.199,10.337-3.886c1.782-0.391,3.596-0.494,5.382-0.493c1.785,0.088,3.553,0.289,5.24,0.754
							c3.368,0.891,6.547,2.298,9.162,4.375c1.285,1.061,2.403,2.281,3.329,3.606c0.905,1.342,1.593,2.781,2.15,4.231
							c0.56,1.45,0.967,2.918,1.374,4.342c0.371,1.432,0.948,2.762,1.144,4.239c0.289,2.9-0.189,5.633-0.682,8.178
							c-0.516,2.549-1.148,4.929-1.776,7.15c-0.323,1.107-0.635,2.179-0.937,3.214c-0.292,1.022-0.634,2.051-0.786,2.961
							l-0.003,0.032c-0.133,0.651-0.243,1.191-0.351,1.718l-0.002,0.009l-0.002,0.005c-1.446,4.508-3.203,7.832-4.594,9.966
							c-1.408,2.132-2.433,3.061-2.433,3.061c-0.005-0.005,0.046-0.074,0.15-0.206c0.121-0.148,0.276-0.337,0.473-0.578
							c0.411-0.513,0.992-1.297,1.672-2.367c1.338-2.145,3.046-5.483,4.436-9.964l-0.003,0.013c0.103-0.528,0.209-1.069,0.337-1.721
							l-0.003,0.031c0.161-1.06,0.488-2.009,0.774-3.059c0.294-1.036,0.598-2.109,0.912-3.217c0.612-2.221,1.226-4.597,1.725-7.131
							c0.478-2.525,0.93-5.252,0.638-8.038c-0.178-1.352-0.767-2.73-1.147-4.165c-0.413-1.426-0.822-2.877-1.377-4.298
							c-0.551-1.421-1.227-2.821-2.108-4.12c-0.903-1.283-1.987-2.46-3.237-3.488c-2.538-2.008-5.668-3.389-8.968-4.256
							c-1.65-0.452-3.377-0.645-5.12-0.73c-1.744,0.003-3.516,0.103-5.261,0.488c-3.513,0.674-6.892,2.148-10.191,3.839
							c-2.331,1.186-4.591,2.499-6.974,3.51c-2.324,1.043-4.581,2.214-6.802,3.348c-4.44,2.286-8.723,4.559-12.835,6.749
							c-8.199,4.421-15.733,8.483-22.314,12.031l0.087-0.087c-2.34,4.531-4.15,8.886-4.873,12.897
							c-0.347,1.998-0.328,3.951,0.509,5.496c0.804,1.545,1.878,2.767,2.882,3.8c2.054,2.042,3.908,3.362,5.157,4.25
							c0.62,0.417,1.102,0.742,1.451,0.977C298.974,380.073,299.139,380.193,299.139,380.193z"/>
					</g>
				</g>
				<g>
					<path style="fill:#E0E0E0;" d="M364.233,365.357c0,0,11.913,1.421,10.854,7.255c-1.059,5.834-4.952,7.792-4.952,7.792
						l-32.384,0.069C337.751,380.473,357.089,379.126,364.233,365.357z"/>
					<g>
						<path style="fill:#263238;" d="M365.388,362.523c0.066,0.019-0.027,0.661-0.362,1.655c-0.336,0.989-0.949,2.329-1.932,3.611
							c-1.998,2.598-4.535,3.611-4.557,3.491c-0.105-0.159,2.221-1.357,4.115-3.831C364.542,364.98,365.206,362.456,365.388,362.523
							z"/>
					</g>
				</g>
				<g>
					<g>
						<path style="fill:#263238;" d="M361.251,364.813c0.155,0.006-0.023,2.009-1.15,4.149c-1.093,2.148-2.496,3.533-2.598,3.434
							c-0.127-0.106,1.047-1.611,2.102-3.687C360.692,366.645,361.098,364.789,361.251,364.813z"/>
					</g>
				</g>
				<g>
					<g>
						<path style="fill:#263238;" d="M376.453,378.777c-0.089-0.046,0.677-1.523,1.612-4.026c0.939-2.498,1.961-6.064,2.429-10.11
							c0.456-4.049,0.266-7.753-0.086-10.399c-0.346-2.649-0.759-4.261-0.662-4.285c0.037-0.01,0.169,0.385,0.375,1.11
							c0.216,0.722,0.453,1.789,0.678,3.118c0.455,2.656,0.712,6.414,0.249,10.519c-0.475,4.103-1.573,7.705-2.616,10.19
							c-0.519,1.245-0.991,2.23-1.364,2.885C376.704,378.44,376.487,378.794,376.453,378.777z"/>
					</g>
				</g>
				<g style="opacity:0.3;">
					<g>
						<path d="M369.711,362.214c-0.084-0.784-0.395-1.714-1.168-1.871c-0.943-0.192-1.59,0.892-1.972,1.775
							c-4.107,9.499-17.615,16.896-27.919,17.852c4.237,0.033,10.789-0.465,14.958-1.221c4.169-0.756,8.282-2.356,11.408-5.217
							C368.145,370.67,370.163,366.427,369.711,362.214z"/>
					</g>
				</g>
				<g>
					<g>
						<path style="fill:#263238;" d="M290.808,349.291c-0.066,0.139-2.633-0.837-5.732-2.18c-3.1-1.343-5.566-2.547-5.508-2.69
							c0.058-0.143,2.624,0.833,5.733,2.18C288.408,347.948,290.874,349.152,290.808,349.291z"/>
					</g>
				</g>
			</g>
			<g style="opacity:0.2;">
				<path d="M302.359,344.285c-15.42-2.949-30.903-5.571-46.434-7.863l-11.572,3.659c3.243,6.031,9.652,9.871,16.312,11.464
					c6.66,1.593,13.621,1.209,20.44,0.581c7.509-0.692,15.221-1.741,21.755-5.505c0.5-0.288,1.058-0.717,0.997-1.291
					C303.788,344.678,303.002,344.409,302.359,344.285z"/>
			</g>
			<g>
				<g>
					<path style="fill:#E0E0E0;" d="M226.425,298.344l19.43,42.985c0.804,1.78,2.566,2.933,4.519,2.958l56.673,0.735l7.145-3.845
						l-11.189-0.819l-17.414-41.795c-0.555-1.333-1.853-2.205-3.297-2.216l-54.299-0.411
						C226.748,295.926,225.913,297.209,226.425,298.344z"/>
				</g>
				<g>
					<g>
						<path style="fill:#263238;" d="M301.337,344.947c-0.018,0.008-0.107-0.154-0.261-0.469c-0.175-0.376-0.389-0.834-0.647-1.388
							c-0.572-1.294-1.342-3.035-2.276-5.149c-1.895-4.359-4.468-10.401-7.238-17.105c-2.772-6.705-5.211-12.804-6.907-17.246
							c-0.844-2.223-1.519-4.024-1.953-5.282c-0.197-0.579-0.359-1.058-0.493-1.45c-0.107-0.334-0.154-0.512-0.136-0.519
							c0.018-0.007,0.101,0.159,0.241,0.48c0.16,0.382,0.355,0.848,0.59,1.412c0.532,1.311,1.247,3.073,2.116,5.214
							c1.835,4.469,4.315,10.506,7.055,17.178c2.752,6.666,5.242,12.698,7.086,17.164c0.868,2.143,1.582,3.906,2.113,5.218
							c0.22,0.57,0.402,1.042,0.551,1.429C301.3,344.763,301.355,344.94,301.337,344.947z"/>
					</g>
				</g>
				<g>
					<path style="fill:#FFFFFF;" d="M266.178,319.183c0,1.535-1.244,2.779-2.779,2.779c-1.535,0-2.779-1.244-2.779-2.779
						c0-1.535,1.244-2.779,2.779-2.779C264.934,316.404,266.178,317.648,266.178,319.183z"/>
				</g>
			</g>
		</g>
	</g>
</g>
<g id="Floor">
	<g>
		<path style="fill:#263238;" d="M457.487,485.153c0,0.144-92.902,0.26-207.477,0.26c-114.614,0-207.497-0.117-207.497-0.26
			s92.883-0.26,207.497-0.26C364.585,484.893,457.487,485.009,457.487,485.153z"/>
	</g>
</g>
</svg>
