<?xml version="1.0" encoding="utf-8"?>
<!-- Generator: Adobe Illustrator 27.5.0, SVG Export Plug-In . SVG Version: 6.00 Build 0)  -->
<svg version="1.1" xmlns="http://www.w3.org/2000/svg" xmlns:xlink="http://www.w3.org/1999/xlink" x="0px" y="0px"
	 viewBox="0 0 500 500" style="enable-background:new 0 0 500 500;" xml:space="preserve">
<g id="Background_Complete">
	<g>
		<g>
			<g>
				<g>
					<rect x="314.605" y="141.617" style="fill:#E0E0E0;" width="50.15" height="72.691"/>
				</g>
			</g>
		</g>
		<g>
			<g>
				<g>
					<rect x="312.092" y="141.617" style="fill:#F5F5F5;" width="50.15" height="72.691"/>
				</g>
			</g>
		</g>
		<g>
			<g>
				<g>
					<g>
						<rect x="318.323" y="149.49" style="fill:#FFFFFF;" width="37.689" height="56.945"/>
					</g>
				</g>
			</g>
			<g>
				<g>
					<g>
						<g>
							<path style="fill:#E0E0E0;" d="M356.012,206.435c0,0-0.005-0.096-0.007-0.278c-0.002-0.188-0.004-0.456-0.007-0.808
								c-0.004-0.716-0.009-1.763-0.015-3.123c-0.008-2.729-0.019-6.706-0.034-11.73c-0.015-10.041-0.036-24.26-0.062-41.005
								l0.125,0.125c-11.515,0.003-24.274,0.007-37.684,0.011h-0.004l0.136-0.136c-0.01,21.482-0.02,41.288-0.028,56.945
								l-0.109-0.109c11.478,0.024,20.886,0.044,27.432,0.057c3.275,0.012,5.832,0.021,7.579,0.028
								c0.868,0.005,1.533,0.009,1.989,0.012C355.774,206.427,356.012,206.435,356.012,206.435s-0.222,0.008-0.665,0.012
								c-0.452,0.003-1.11,0.007-1.969,0.012c-1.741,0.006-4.29,0.016-7.555,0.028c-6.563,0.014-15.994,0.033-27.5,0.057l-0.109,0
								v-0.109c-0.008-15.656-0.017-35.463-0.028-56.945l0-0.137h0.137h0.004c13.41,0.004,26.17,0.008,37.684,0.011l0.125,0l0,0.125
								c-0.025,16.778-0.046,31.026-0.062,41.087c-0.014,5.012-0.026,8.98-0.034,11.702c-0.007,1.349-0.012,2.389-0.015,3.098
								c-0.003,0.345-0.006,0.609-0.007,0.793C356.017,206.348,356.012,206.435,356.012,206.435z"/>
						</g>
					</g>
				</g>
			</g>
		</g>
		<g>
			<g>
				<g>
					<g>
						<path style="fill:none;stroke:#FBFBFB;stroke-width:0.25;stroke-miterlimit:10;" d="M354.264,149.87"/>
					</g>
				</g>
			</g>
		</g>
		<g>
			<g>
				<g>
					<g>
						<path style="fill:#E0E0E0;" d="M362.383,141.617c0.029,0.023-0.311,0.52-0.894,1.299c-0.583,0.779-1.409,1.839-2.353,2.984
							c-0.944,1.146-1.826,2.161-2.479,2.882c-0.653,0.721-1.076,1.15-1.103,1.126c-0.029-0.025,0.342-0.499,0.957-1.252
							c0.672-0.816,1.5-1.819,2.415-2.929c0.914-1.11,1.74-2.115,2.412-2.931C361.959,142.048,362.353,141.593,362.383,141.617z"/>
					</g>
				</g>
			</g>
		</g>
		<g>
			<g>
				<g>
					<g>
						<path style="fill:#FFFFFF;" d="M356.204,206.251c1.872,2.977,4.082,5.74,6.574,8.221"/>
					</g>
				</g>
			</g>
			<g>
				<g>
					<g>
						<g>
							<path style="fill:#E0E0E0;" d="M362.777,214.472c-0.025,0.025-0.472-0.363-1.146-1.043c-0.674-0.679-1.567-1.656-2.48-2.797
								c-0.912-1.142-1.669-2.228-2.183-3.035c-0.514-0.807-0.795-1.329-0.765-1.347c0.034-0.021,0.371,0.464,0.925,1.239
								c0.553,0.776,1.33,1.837,2.236,2.972c0.907,1.134,1.772,2.125,2.407,2.835C362.407,214.008,362.806,214.444,362.777,214.472z
								"/>
						</g>
					</g>
				</g>
			</g>
		</g>
		<g>
			<g>
				<g>
					<g>
						<path style="fill:#FFFFFF;" d="M312.085,214.25c2.19-2.702,4.379-5.403,6.569-8.105"/>
					</g>
				</g>
			</g>
			<g>
				<g>
					<g>
						<g>
							<path style="fill:#E0E0E0;" d="M318.654,206.145c0.059,0.047-1.365,1.9-3.178,4.138c-1.814,2.239-3.332,4.014-3.391,3.967
								c-0.058-0.047,1.364-1.9,3.179-4.138C317.077,207.874,318.595,206.098,318.654,206.145z"/>
						</g>
					</g>
				</g>
			</g>
		</g>
		<g>
			<g>
				<g>
					<g>
						<path style="fill:#E0E0E0;" d="M312.092,141.617c0.059-0.047,1.487,1.66,3.188,3.812c1.702,2.152,3.034,3.934,2.975,3.981
							c-0.059,0.047-1.486-1.66-3.189-3.812C313.365,143.446,312.033,141.663,312.092,141.617z"/>
					</g>
				</g>
			</g>
		</g>
		<g>
			<g>
				<g>
					<rect x="331.65" y="161.052" style="fill:#E0E0E0;" width="12.62" height="35.831"/>
				</g>
			</g>
		</g>
	</g>
	<g>
		<g>
			<g>
				<g>
					<path style="fill:#F5F5F5;" d="M264.996,345.024c-4.599,1.337-8.318,4.958-10.495,9.225c-2.178,4.266-2.944,9.132-3.009,13.921
						c-0.127,9.266,3.892,19.148,8.552,27.158c8.546-5.735,11.805-17.221,13.092-23.152
						C275.171,362.802,273.157,344.626,264.996,345.024"/>
				</g>
			</g>
		</g>
		<g>
			<g>
				<g>
					<path style="fill:#F5F5F5;" d="M249.185,409.267c1.888-5.006,0.46-10.943-3.054-14.978c-3.514-4.035-8.861-6.234-14.205-6.502
						c-2.471-0.124-5.206,0.254-6.863,2.09c-1.55,1.717-1.737,4.364-0.933,6.533c0.804,2.169,2.451,3.923,4.239,5.389
						C234.503,406.829,241.361,410.571,249.185,409.267"/>
				</g>
			</g>
		</g>
		<g>
			<g>
				<g>
					<g>
						<path style="fill:#E0E0E0;" d="M255.601,431.554c0.124-0.015,0.1-2.343-0.277-6.12c-0.189-1.891-0.686-4.154-1.525-6.52
							c-0.849-2.354-1.729-4.964-3.066-7.574c-2.615-5.232-6.353-9.202-9.52-11.342c-1.579-1.088-2.986-1.749-3.964-2.164
							c-1-0.373-1.566-0.528-1.591-0.464c-0.075,0.173,2.148,0.973,5.122,3.222c2.966,2.231,6.48,6.128,9.027,11.219
							c1.292,2.515,2.2,5.109,3.09,7.422c0.876,2.319,1.419,4.449,1.7,6.302C255.155,429.242,255.44,431.574,255.601,431.554z"/>
					</g>
				</g>
			</g>
		</g>
		<g>
			<g>
				<g>
					<g>
						<path style="fill:#E0E0E0;" d="M265.308,359.001c-0.071-0.011-0.315,1.065-0.695,3.021c-0.381,1.956-0.894,4.794-1.496,8.305
							c-1.204,7.022-2.759,16.744-4.214,27.52c-1.452,10.781-2.492,20.576-3.095,27.678c-0.302,3.551-0.512,6.427-0.618,8.418
							c-0.11,1.99-0.136,3.093-0.065,3.099c0.071,0.006,0.234-1.086,0.467-3.064c0.244-2.164,0.563-4.984,0.946-8.38
							c0.79-7.076,1.944-16.843,3.394-27.612c1.514-10.666,2.884-20.315,3.91-27.544c0.474-3.386,0.868-6.197,1.17-8.355
							C265.27,360.111,265.379,359.013,265.308,359.001z"/>
					</g>
				</g>
			</g>
		</g>
		<g>
			<g>
				<g>
					<path style="fill:#F5F5F5;" d="M260.348,414.254c4.614-10.294,14.494-18.055,25.587-20.101c2.825-0.521,6.303-0.42,7.855,1.997
						c1.555,2.421,0.188,5.641-1.52,7.956c-7.107,9.635-20.425,14.19-31.944,10.926"/>
				</g>
			</g>
		</g>
		<g>
			<g>
				<g>
					<g>
						<path style="fill:#E0E0E0;" d="M282.021,401.601c-0.022-0.068-0.589,0.057-1.595,0.343c-1.012,0.272-2.444,0.761-4.2,1.415
							c-3.452,1.38-8.323,3.501-12.616,7.438c-2.132,1.964-3.82,4.2-5.022,6.406c-1.215,2.209-1.857,4.398-2.292,6.23
							c-0.37,1.85-0.561,3.365-0.559,4.417c-0.032,1.05-0.016,1.628,0.056,1.631c0.208,0.017,0.291-2.309,1.216-5.873
							c0.514-1.761,1.204-3.849,2.417-5.944c1.201-2.093,2.834-4.211,4.888-6.104c4.13-3.793,8.846-5.987,12.194-7.523
							C279.906,402.555,282.075,401.759,282.021,401.601z"/>
					</g>
				</g>
			</g>
		</g>
	</g>
	<g>
		<g>
			<g>
				<g>
					<g>
						<path style="fill:#F5F5F5;" d="M455.591,169.763c0,0-10.483-3.094-14.722,21.013c-4.239,24.106-4.582,37.365-4.582,37.365
							s-1.47,5.229-5.346,3.293c-3.876-1.936-10.467-8.778-15.122-5.757c-4.827,3.133-4.76,9.571-1.094,17.937
							c3.666,8.367,11.026,26.992,11.686,28.679c0.647,1.656,0.441,4.45-2.41,3.555c-2.852-0.896-21.029-11.839-25.705-2.902
							c-4.676,8.936,9.368,30.566,10.858,32.96c1.49,2.394,1.321,3.663,0.281,4.687c-1.04,1.024-6.804-3.23-12.101-6.13
							c-5.298-2.9-11.949-5.335-14.214,0.047c-2.266,5.382,2.038,23.521,27.818,47.228l12.665,10.203l15.33-5.643
							c32.071-14.075,42.02-29.84,41.621-35.666c-0.4-5.826-7.481-5.678-13.432-4.65c-5.951,1.027-12.782,3.184-13.435,1.878
							c-0.652-1.306-0.401-2.561,1.785-4.343c2.185-1.782,22.48-17.694,20.952-27.663c-1.528-9.969-22.271-5.508-25.259-5.584
							c-2.988-0.077-2.277-2.787-1.128-4.144c1.17-1.382,14.168-16.618,20.348-23.345c6.18-6.727,8.329-12.796,4.777-17.324
							c-3.424-4.366-11.877-0.029-16.171,0.546c-4.294,0.576-3.991-4.848-3.991-4.848s3.972-12.654,7.773-36.833
							c3.801-24.18-7.396-24.607-7.396-24.607"/>
					</g>
				</g>
			</g>
		</g>
		<g>
			<g>
				<g>
					<g>
						<g>
							<path style="fill:#E0E0E0;" d="M451.758,191.345c0,0-0.008,0.175-0.052,0.511c-0.05,0.359-0.119,0.854-0.208,1.491
								c-0.198,1.334-0.484,3.259-0.85,5.725c-0.745,4.972-1.875,12.157-3.307,21.03c-2.857,17.747-7.013,42.23-11.691,69.253
								c-4.681,27.032-8.897,51.504-11.852,69.234c-1.466,8.848-2.654,16.016-3.48,20.999c-0.411,2.459-0.731,4.378-0.953,5.708
								c-0.112,0.633-0.198,1.125-0.261,1.482c-0.062,0.333-0.108,0.502-0.108,0.502s0.008-0.174,0.052-0.511
								c0.05-0.359,0.119-0.854,0.208-1.491c0.198-1.334,0.484-3.258,0.85-5.725c0.745-4.971,1.875-12.156,3.307-21.029
								c2.857-17.748,7.013-42.232,11.694-69.264c4.679-27.023,8.895-51.492,11.85-69.222c1.466-8.848,2.654-16.017,3.48-21
								c0.41-2.46,0.73-4.379,0.953-5.709c0.112-0.633,0.199-1.126,0.262-1.483C451.712,191.514,451.758,191.345,451.758,191.345z"
								/>
						</g>
					</g>
				</g>
			</g>
		</g>
		<g>
			<g>
				<g>
					<g>
						<g>
							<path style="fill:#E0E0E0;" d="M424.655,235.619c0.032-0.021,0.288,0.311,0.723,0.93c0.438,0.616,1.044,1.527,1.781,2.66
								c1.469,2.268,3.416,5.455,5.499,9.01c2.033,3.506,3.871,6.676,5.291,9.126c0.634,1.083,1.174,2.003,1.616,2.757
								c0.383,0.65,0.581,1.02,0.549,1.04c-0.032,0.021-0.29-0.309-0.73-0.924c-0.436-0.618-1.043-1.529-1.768-2.67
								c-1.447-2.283-3.352-5.494-5.434-9.049c-2.057-3.49-3.917-6.646-5.355-9.084c-0.64-1.08-1.184-1.998-1.63-2.75
								C424.818,236.011,424.623,235.64,424.655,235.619z"/>
						</g>
					</g>
				</g>
			</g>
		</g>
		<g>
			<g>
				<g>
					<g>
						<g>
							<path style="fill:#E0E0E0;" d="M441.627,260.981c-0.083-0.128,6.306-4.435,14.268-9.62c7.965-5.186,14.487-9.286,14.57-9.158
								c0.083,0.128-6.305,4.434-14.27,9.62C448.234,257.008,441.71,261.109,441.627,260.981z"/>
						</g>
					</g>
				</g>
			</g>
		</g>
		<g>
			<g>
				<g>
					<g>
						<g>
							<path style="fill:#E0E0E0;" d="M432.568,302.162c-0.009-0.037,0.393-0.182,1.129-0.413c0.85-0.259,1.893-0.577,3.122-0.952
								c2.634-0.806,6.269-1.93,10.234-3.315c3.97-1.377,7.52-2.745,10.083-3.754c1.196-0.469,2.211-0.866,3.039-1.191
								c0.72-0.276,1.125-0.413,1.141-0.378c0.015,0.035-0.361,0.238-1.056,0.575c-0.695,0.337-1.709,0.805-2.975,1.354
								c-2.53,1.104-6.069,2.534-10.051,3.915c-3.978,1.39-7.642,2.459-10.308,3.17c-1.335,0.35-2.418,0.62-3.173,0.784
								C432.999,302.124,432.578,302.199,432.568,302.162z"/>
						</g>
					</g>
				</g>
			</g>
		</g>
		<g>
			<g>
				<g>
					<g>
						<g>
							<path style="fill:#E0E0E0;" d="M412.168,282.601c0.026-0.028,0.339,0.215,0.882,0.677c0.543,0.462,1.316,1.144,2.264,1.996
								c1.895,1.703,4.487,4.083,7.326,6.737c2.841,2.655,5.391,5.08,7.217,6.856c0.914,0.888,1.646,1.613,2.144,2.124
								c0.498,0.511,0.761,0.806,0.735,0.834c-0.026,0.028-0.338-0.215-0.881-0.677c-0.543-0.462-1.316-1.144-2.264-1.996
								c-1.895-1.703-4.487-4.083-7.328-6.738c-2.839-2.654-5.389-5.079-7.216-6.855c-0.913-0.888-1.646-1.613-2.144-2.124
								C412.405,282.924,412.142,282.629,412.168,282.601z"/>
						</g>
					</g>
				</g>
			</g>
		</g>
		<g>
			<g>
				<g>
					<g>
						<g>
							<path style="fill:#E0E0E0;" d="M399.553,317.94c0.026-0.028,0.422,0.286,1.117,0.879c0.769,0.673,1.744,1.528,2.909,2.548
								c2.44,2.17,5.785,5.195,9.457,8.561c3.673,3.368,6.977,6.439,9.349,8.682c1.117,1.072,2.053,1.97,2.79,2.677
								c0.651,0.641,0.998,1.009,0.972,1.037c-0.026,0.028-0.422-0.286-1.117-0.879c-0.768-0.673-1.744-1.528-2.909-2.548
								c-2.44-2.17-5.786-5.195-9.459-8.563c-3.672-3.366-6.975-6.437-9.348-8.68c-1.118-1.072-2.053-1.97-2.791-2.677
								C399.875,318.336,399.527,317.968,399.553,317.94z"/>
						</g>
					</g>
				</g>
			</g>
		</g>
		<g>
			<g>
				<g>
					<g>
						<g>
							<path style="fill:#E0E0E0;" d="M425.677,341.564c-0.011-0.036,0.494-0.233,1.417-0.557c1.023-0.352,2.338-0.805,3.915-1.348
								c3.305-1.14,7.864-2.728,12.848-4.622c4.988-1.886,9.459-3.71,12.687-5.051c1.541-0.637,2.826-1.169,3.826-1.583
								c0.906-0.369,1.414-0.557,1.43-0.523c0.016,0.035-0.463,0.289-1.342,0.719c-0.879,0.43-2.162,1.03-3.759,1.745
								c-3.193,1.434-7.649,3.318-12.646,5.208c-4.993,1.897-9.582,3.43-12.921,4.476c-1.671,0.519-3.028,0.924-3.973,1.183
								C426.215,341.473,425.688,341.6,425.677,341.564z"/>
						</g>
					</g>
				</g>
			</g>
		</g>
	</g>
	<g>
		<g>
			<g>
				<g>
					<g>
						<g>
							<path style="fill:#F5F5F5;" d="M103.842,383.345c23.086-13.171,30.586-40.856,32.045-66.227
								c0.244-4.235,1.115-8.643-0.553-12.532c-1.67-3.887-6.123-6.848-10.066-5.416c-3.271,1.189-4.971,4.71-7.001,7.566
								c-2.701,3.799-6.482,6.801-10.768,8.55c-2.816,1.149-6.221,1.697-8.74-0.01c-3.457-2.343-3.426-7.413-3.015-11.611
								c0.767-7.822,1.532-15.644,2.298-23.464c0.411-4.196,0.816-8.483-0.125-12.587c-0.941-4.105-3.487-8.071-7.379-9.556
								c-3.893-1.484-9.043,0.366-10.263,4.398c-0.508,1.678-0.322,3.486-0.598,5.217c-0.276,1.733-1.265,3.587-2.965,3.921
								c-1.721,0.339-3.292-1.006-4.435-2.35c-3.946-4.637-6.386-10.368-8.637-16.051c-2.251-5.683-4.409-11.488-7.918-16.473
								c-3.509-4.985-8.612-9.147-14.594-10.039c-5.983-0.891-12.73,2.233-14.79,7.997c-2.066,5.78,0.837,12.103,4.156,17.239
								c4.924,7.62,10.944,14.512,17.81,20.39c1.237,1.061,2.579,2.207,2.943,3.809c0.656,2.883-2.252,5.42-5.1,6.087
								c-3.225,0.756-6.592,0.12-9.901,0.205c-3.309,0.085-6.989,1.205-8.511,4.185c-2.113,4.134,1.064,8.962,4.326,12.231
								c6.531,6.548,14.18,11.949,22.506,15.894c2.985,1.413,6.145,2.703,8.437,5.101c2.292,2.399,3.449,6.31,1.674,9.13
								c-1.777,2.823-5.727,3.416-8.907,2.518c-3.179-0.896-5.915-2.918-8.892-4.364c-5.571-2.707-13.059-2.992-17.212,1.657
								c-2.729,3.055-3.362,7.601-2.491,11.621c0.87,4.02,3.053,7.614,5.415,10.961c8.254,11.698,19.293,21.518,32.255,27.386
								C77.805,384.599,90.093,386.991,103.842,383.345"/>
						</g>
					</g>
				</g>
			</g>
		</g>
		<g>
			<g>
				<g>
					<g>
						<g>
							<g>
								<path style="fill:#E0E0E0;" d="M102.456,402.126c0.002-10.103-1.111-22.137-3.69-35.235
									c-2.553-13.105-6.543-27.238-11.224-41.876c-1.184-3.655-2.354-7.267-3.506-10.826c-1.159-3.55-2.308-7.072-3.645-10.446
									c-2.645-6.762-5.702-13.061-8.792-18.95c-3.088-5.893-6.233-11.372-9.211-16.473c-2.991-5.097-5.867-9.796-8.672-13.966
									c-5.585-8.366-10.878-14.567-14.685-18.676c-1.899-2.062-3.425-3.613-4.474-4.65c-0.505-0.493-0.901-0.881-1.2-1.172
									c-0.274-0.26-0.418-0.389-0.427-0.38c-0.01,0.01,0.116,0.157,0.371,0.436c0.285,0.305,0.664,0.71,1.145,1.226
									c1.011,1.073,2.501,2.656,4.365,4.746c3.733,4.167,8.942,10.4,14.452,18.78c2.768,4.178,5.611,8.882,8.572,13.986
									c2.952,5.113,6.072,10.595,9.136,16.481c3.064,5.884,6.095,12.167,8.715,18.895c1.324,3.358,2.46,6.849,3.619,10.409
									c1.151,3.558,2.318,7.168,3.501,10.821c4.676,14.627,8.677,28.719,11.262,41.778c2.608,13.049,3.773,25.028,3.841,35.095"/>
							</g>
						</g>
					</g>
				</g>
			</g>
		</g>
		<g>
			<g>
				<g>
					<g>
						<g>
							<g>
								<path style="fill:#E0E0E0;" d="M80.174,303.693c0.051,0.013,0.252-0.612,0.574-1.754c0.327-1.14,0.745-2.804,1.232-4.869
									c0.977-4.126,2.131-9.871,3.38-16.209c1.249-6.342,2.482-12.053,3.519-16.153c0.513-2.051,0.944-3.708,1.257-4.849
									c0.307-1.144,0.453-1.784,0.402-1.801c-0.051-0.016-0.293,0.593-0.689,1.711c-0.403,1.116-0.916,2.755-1.497,4.795
									c-1.177,4.078-2.5,9.795-3.75,16.143c-1.216,6.258-2.316,11.919-3.156,16.244c-0.392,1.952-0.724,3.596-0.99,4.916
									C80.225,303.03,80.121,303.68,80.174,303.693z"/>
							</g>
						</g>
					</g>
				</g>
			</g>
		</g>
		<g>
			<g>
				<g>
					<g>
						<g>
							<g>
								<path style="fill:#E0E0E0;" d="M27.113,288.658c-0.006,0.053,0.754,0.213,2.13,0.455c1.374,0.25,3.364,0.602,5.808,1.115
									c4.896,0.987,11.611,2.587,18.942,4.676c7.33,2.103,13.882,4.288,18.575,6.006c2.354,0.842,4.24,1.575,5.547,2.074
									c1.305,0.504,2.037,0.759,2.059,0.71c0.021-0.051-0.672-0.4-1.944-0.993c-1.274-0.586-3.134-1.399-5.47-2.312
									c-4.657-1.855-11.205-4.132-18.556-6.242c-7.353-2.094-14.114-3.616-19.051-4.465c-2.465-0.444-4.475-0.714-5.867-0.871
									C27.893,288.661,27.121,288.603,27.113,288.658z"/>
							</g>
						</g>
					</g>
				</g>
			</g>
		</g>
		<g>
			<g>
				<g>
					<g>
						<g>
							<g>
								<path style="fill:#E0E0E0;" d="M98.193,365.838c0.023,0.013,0.171-0.201,0.43-0.624c0.298-0.505,0.662-1.122,1.102-1.868
									c0.95-1.627,2.263-4.017,3.846-6.99c3.171-5.946,7.293-14.297,11.717-23.573c4.427-9.28,8.465-17.658,11.508-23.661
									c1.488-2.918,2.714-5.317,3.624-7.101c0.39-0.775,0.712-1.413,0.976-1.938c0.215-0.446,0.317-0.687,0.294-0.702
									c-0.024-0.012-0.171,0.203-0.431,0.626c-0.298,0.505-0.661,1.12-1.102,1.867c-0.95,1.627-2.263,4.016-3.846,6.99
									c-3.171,5.946-7.293,14.297-11.719,23.577c-4.425,9.277-8.464,17.654-11.506,23.659c-1.49,2.916-2.714,5.317-3.624,7.099
									c-0.391,0.775-0.712,1.415-0.976,1.938C98.272,365.584,98.17,365.824,98.193,365.838z"/>
							</g>
						</g>
					</g>
				</g>
			</g>
		</g>
		<g>
			<g>
				<g>
					<g>
						<g>
							<g>
								<path style="fill:#E0E0E0;" d="M28.574,336.144c-0.009,0.026,0.227,0.148,0.685,0.359c0.544,0.239,1.211,0.533,2.02,0.889
									c1.867,0.8,4.388,1.88,7.454,3.193c6.293,2.698,14.943,6.524,24.494,10.764c9.554,4.243,18.248,7.993,24.599,10.561
									c3.175,1.285,5.755,2.299,7.551,2.963c0.831,0.302,1.517,0.55,2.074,0.753c0.477,0.164,0.733,0.237,0.743,0.212
									c0.009-0.025-0.227-0.148-0.685-0.36c-0.542-0.238-1.21-0.531-2.02-0.888c-1.867-0.801-4.386-1.879-7.453-3.193
									c-6.294-2.697-14.944-6.524-24.498-10.766c-9.552-4.242-18.244-7.991-24.595-10.559c-3.175-1.285-5.755-2.299-7.553-2.963
									c-0.831-0.302-1.515-0.551-2.073-0.753C28.84,336.192,28.585,336.119,28.574,336.144z"/>
							</g>
						</g>
					</g>
				</g>
			</g>
		</g>
	</g>
	<g>
		<g>
			<g>
				<g>
					<polygon style="fill:#E0E0E0;" points="174.838,81.704 174.838,164.239 56.296,164.239 52.025,82.282 					"/>
				</g>
			</g>
		</g>
		<g>
			<g>
				<g>
					
						<rect x="70.404" y="63.902" transform="matrix(6.123234e-17 -1 1 6.123234e-17 -11.8775 234.4693)" style="fill:#FFFFFF;" width="81.784" height="118.542"/>
				</g>
			</g>
			<g>
				<g>
					<path style="fill:#E0E0E0;" d="M171.13,164.628H51.463V81.719H171.13V164.628z M52.587,163.503h117.418V82.844H52.587V163.503z
						"/>
				</g>
			</g>
		</g>
		<g>
			<g>
				<g>
					<g>
						<rect x="64.864" y="92.442" style="fill:#FFFFFF;" width="92.864" height="61.462"/>
					</g>
				</g>
			</g>
			<g>
				<g>
					<g>
						<g>
							<path style="fill:#E0E0E0;" d="M157.728,92.442c0,0-0.16,0.011-0.458,0.016c-0.315,0.004-0.751,0.009-1.32,0.016
								c-1.177,0.007-2.885,0.018-5.1,0.033c-4.46,0.017-10.946,0.041-19.137,0.072c-16.377,0.032-39.557,0.078-66.849,0.132
								l0.269-0.269c0.007,18.778,0.015,39.585,0.024,61.454v0.007l-0.293-0.293c35.031,0.022,67.328,0.043,92.864,0.059
								l-0.233,0.233c0.051-18.704,0.093-34.04,0.123-44.719c0.026-5.338,0.046-9.508,0.059-12.366
								c0.011-1.412,0.02-2.497,0.026-3.25C157.712,92.834,157.728,92.442,157.728,92.442s0.017,0.358,0.025,1.079
								c0.006,0.743,0.015,1.812,0.026,3.206c0.014,2.846,0.034,6.999,0.059,12.313c0.029,10.714,0.071,26.099,0.123,44.864
								l0.001,0.233l-0.234,0c-25.536,0.016-57.833,0.037-92.864,0.059l-0.293,0v-0.293v-0.007
								c0.009-21.869,0.017-42.676,0.024-61.454l0-0.269l0.269,0.001c27.364,0.054,50.605,0.1,67.025,0.132
								c8.165,0.031,14.63,0.055,19.076,0.072c2.192,0.014,3.882,0.025,5.046,0.033c0.556,0.007,0.983,0.012,1.29,0.016
								C157.589,92.432,157.728,92.442,157.728,92.442z"/>
						</g>
					</g>
				</g>
			</g>
		</g>
		<g>
			<g>
				<g>
					<g>
						<path style="fill:#E0E0E0;" d="M52.025,82.052c0.05-0.064,0.825,0.445,2.038,1.32c1.213,0.876,2.864,2.118,4.647,3.544
							c1.783,1.428,3.352,2.778,4.456,3.789c1.104,1.011,1.75,1.678,1.698,1.737c-0.11,0.124-2.96-2.226-6.52-5.069
							C54.782,84.534,51.92,82.186,52.025,82.052z"/>
					</g>
				</g>
			</g>
		</g>
		<g>
			<g>
				<g>
					<g>
						<path style="fill:#E0E0E0;" d="M170.567,82.282c0.1,0.127-2.693,2.504-6.237,5.31c-3.546,2.806-6.501,4.978-6.602,4.851
							c-0.1-0.127,2.692-2.504,6.238-5.31C167.511,84.327,170.467,82.155,170.567,82.282z"/>
					</g>
				</g>
			</g>
		</g>
		<g>
			<g>
				<g>
					<g>
						<path style="fill:#FFFFFF;" d="M170.473,164.077c-4.406-3.571-8.811-7.142-13.217-10.712"/>
					</g>
				</g>
			</g>
			<g>
				<g>
					<g>
						<g>
							<path style="fill:#E0E0E0;" d="M157.256,153.365c0.102-0.126,3.143,2.171,6.793,5.128c3.65,2.959,6.526,5.458,6.424,5.584
								c-0.102,0.126-3.143-2.17-6.793-5.129C160.031,155.99,157.154,153.49,157.256,153.365z"/>
						</g>
					</g>
				</g>
			</g>
		</g>
		<g>
			<g>
				<g>
					<g>
						<path style="fill:#E0E0E0;" d="M52.025,164.065c-0.1-0.127,2.663-2.48,6.172-5.255c3.51-2.776,6.436-4.923,6.536-4.796
							c0.1,0.127-2.663,2.479-6.173,5.255C55.051,162.045,52.125,164.192,52.025,164.065z"/>
					</g>
				</g>
			</g>
		</g>
		<g>
			<g>
				<g>
					
						<rect x="102.645" y="92.665" transform="matrix(6.123234e-17 -1 1 6.123234e-17 -8.9464 234.8162)" style="fill:#E0E0E0;" width="20.58" height="58.432"/>
				</g>
			</g>
		</g>
	</g>
	<g>
		<g>
			<g>
				<g>
					<rect x="385.185" y="62.522" style="fill:#E0E0E0;" width="63.382" height="91.869"/>
				</g>
			</g>
		</g>
		<g>
			<g>
				<g>
					<rect x="382.01" y="62.522" style="fill:#F5F5F5;" width="63.382" height="91.869"/>
				</g>
			</g>
		</g>
		<g>
			<g>
				<g>
					<g>
						<rect x="389.884" y="72.472" style="fill:#FFFFFF;" width="47.632" height="71.969"/>
					</g>
				</g>
			</g>
			<g>
				<g>
					<g>
						<g>
							<path style="fill:#E0E0E0;" d="M437.517,144.441c0,0-0.006-0.122-0.009-0.352c-0.002-0.238-0.005-0.577-0.009-1.02
								c-0.004-0.904-0.011-2.229-0.019-3.948c-0.01-3.449-0.024-8.476-0.042-14.825c-0.019-12.691-0.046-30.661-0.078-51.824
								l0.158,0.158c-14.553,0.004-30.678,0.009-47.627,0.014h-0.006l0.172-0.172c-0.013,27.15-0.025,52.182-0.035,71.969
								l-0.137-0.137c14.506,0.03,26.396,0.055,34.67,0.072c4.139,0.015,7.371,0.027,9.579,0.035
								c1.097,0.007,1.938,0.012,2.514,0.015C437.217,144.431,437.517,144.441,437.517,144.441s-0.28,0.01-0.84,0.015
								c-0.571,0.003-1.403,0.009-2.489,0.015c-2.201,0.008-5.422,0.02-9.548,0.035c-8.294,0.017-20.214,0.042-34.755,0.072
								l-0.137,0l0-0.138c-0.01-19.787-0.022-44.819-0.035-71.969l0-0.172h0.173h0.006c16.949,0.005,33.074,0.01,47.627,0.014
								l0.158,0l0,0.158c-0.032,21.205-0.059,39.212-0.078,51.928c-0.018,6.334-0.033,11.349-0.043,14.789
								c-0.008,1.705-0.015,3.019-0.019,3.916c-0.004,0.436-0.007,0.769-0.009,1.003
								C437.523,144.332,437.517,144.441,437.517,144.441z"/>
						</g>
					</g>
				</g>
			</g>
		</g>
		<g>
			<g>
				<g>
					<g>
						<path style="fill:none;stroke:#FBFBFB;stroke-width:0.25;stroke-miterlimit:10;" d="M435.308,72.952"/>
					</g>
				</g>
			</g>
		</g>
		<g>
			<g>
				<g>
					<g>
						<path style="fill:#E0E0E0;" d="M445.569,62.522c0.037,0.029-0.393,0.657-1.13,1.641c-0.736,0.985-1.781,2.324-2.974,3.772
							c-1.193,1.448-2.308,2.731-3.133,3.642s-1.359,1.454-1.394,1.423c-0.036-0.032,0.432-0.631,1.21-1.582
							c0.85-1.031,1.895-2.299,3.052-3.702c1.155-1.403,2.2-2.672,3.049-3.704C445.033,63.067,445.531,62.492,445.569,62.522z"/>
					</g>
				</g>
			</g>
		</g>
		<g>
			<g>
				<g>
					<g>
						<path style="fill:#FFFFFF;" d="M437.759,144.209c2.366,3.762,5.159,7.255,8.308,10.39"/>
					</g>
				</g>
			</g>
			<g>
				<g>
					<g>
						<g>
							<path style="fill:#E0E0E0;" d="M446.067,154.599c-0.031,0.032-0.597-0.459-1.448-1.318c-0.852-0.858-1.98-2.093-3.134-3.535
								c-1.153-1.443-2.109-2.816-2.759-3.835c-0.65-1.02-1.004-1.679-0.967-1.703c0.043-0.027,0.47,0.586,1.169,1.566
								c0.699,0.981,1.68,2.322,2.826,3.757c1.147,1.433,2.239,2.686,3.042,3.583C445.599,154.012,446.103,154.563,446.067,154.599z
								"/>
						</g>
					</g>
				</g>
			</g>
		</g>
		<g>
			<g>
				<g>
					<g>
						<path style="fill:#FFFFFF;" d="M382,154.318c2.767-3.414,5.535-6.829,8.302-10.243"/>
					</g>
				</g>
			</g>
			<g>
				<g>
					<g>
						<g>
							<path style="fill:#E0E0E0;" d="M390.302,144.075c0.074,0.06-1.725,2.402-4.017,5.23c-2.293,2.829-4.211,5.073-4.285,5.013
								c-0.074-0.06,1.724-2.401,4.017-5.23C388.31,146.26,390.229,144.015,390.302,144.075z"/>
						</g>
					</g>
				</g>
			</g>
		</g>
		<g>
			<g>
				<g>
					<g>
						<path style="fill:#E0E0E0;" d="M382.01,62.522c0.075-0.059,1.879,2.098,4.03,4.817c2.151,2.72,3.834,4.972,3.759,5.031
							c-0.075,0.059-1.879-2.097-4.03-4.818C383.618,64.834,381.935,62.581,382.01,62.522z"/>
					</g>
				</g>
			</g>
		</g>
		<g>
			<g>
				<g>
					<rect x="406.727" y="87.085" style="fill:#E0E0E0;" width="15.949" height="45.284"/>
				</g>
			</g>
		</g>
	</g>
</g>
<g id="Background_Simple" style="display:none;">
	<path style="display:inline;fill:#EBEBEB;" d="M438.413,137.212c-10.168-20.768-26.007-39.47-46.984-49.2
		c-36.034-16.714-80.637-3.25-109.795,23.726c-15.486,14.327-27.958,32.306-46.08,43.109c-30.699,18.3-70.517,12.085-103.324,26.264
		c-29.694,12.834-50.825,42.438-55.728,74.413c-4.903,31.975,5.673,65.487,26.144,90.536c20.47,25.048,50.202,41.798,81.759,48.911
		l37.439,1.091c36.034,1.05,71.994-5.217,105.24-19.154c32.897-13.791,62.615-34.392,85.203-61.91
		C452.442,266.077,466.244,194.055,438.413,137.212z"/>
</g>
<g id="Floor">
	<g>
		<g>
			<g>
				<path style="fill:#263238;" d="M461.925,437.042c0,0.144-97.411,0.26-217.546,0.26c-120.177,0-217.567-0.117-217.567-0.26
					c0-0.144,97.39-0.26,217.567-0.26C364.514,436.782,461.925,436.898,461.925,437.042z"/>
			</g>
		</g>
	</g>
</g>
<g id="Character_2">
	<g>
		<g>
			<g>
				<path style="fill:#263238;" d="M339.702,264.003c1.555,5.998-0.517,12.789-5.156,16.896c-3.046,2.697-7.021,4.26-9.8,7.232
					c-3.576,3.825-4.606,9.681-3.042,14.678c1.565,4.997,5.503,9.082,10.227,11.341c6.442,3.081,14.379,2.81,20.595-0.703
					c7.734-4.37,12.236-13.134,13.376-21.944c1.14-8.81-0.652-17.731-2.977-26.305"/>
			</g>
		</g>
		<g>
			<g>
				<g>
					<path style="fill:#263238;" d="M437.191,419.346c8.004-1.309,15.503,1.134,23.422,2.888c2.134,0.473,4.367,0.885,6.485,0.345
						c3.433-0.874,5.873-4.215,6.404-7.717c0.46-3.033-0.331-6.208-2.023-8.766c-0.717-1.083-1.61-2.079-2.739-2.721
						c-1.158-0.658-2.502-0.911-3.827-1.04c-4.82-0.466-9.721,0.607-14.106,2.66c-4.385,2.053-8.278,5.06-11.701,8.485
						C437.43,415.156,437.933,417.095,437.191,419.346"/>
				</g>
			</g>
			<g>
				<g>
					<path style="fill:#263238;" d="M274.959,290.233c-1.277-7.593-1.118-15.424,0.465-22.959c0.77-3.667,1.9-7.318,3.953-10.453
						c0.747-1.141,1.669-2.249,2.935-2.754c1.749-0.698,3.831-0.053,5.211,1.229c1.803,1.673,2.548,4.257,2.471,6.715
						c-0.077,2.458-0.883,4.832-1.781,7.122C285.117,277.035,280.243,283.592,274.959,290.233"/>
				</g>
			</g>
			<g>
				<g>
					<path style="fill:#E8505B;" d="M429.983,319.137c1.823,1.291,42.055,87.887,42.055,87.887l0,0
						c-3.229-1.387-6.809-1.741-10.246-1.011l-2.18,0.582c-3.905,1.043-7.608,2.731-10.955,4.996l-11.465,7.756l0,0
						c-0.925-0.525-1.535-1.468-1.634-2.526l-0.031-0.332l-31.169-53.497L429.983,319.137z"/>
				</g>
			</g>
			<g>
				<g>
					<g>
						<path style="fill:#FFBE9D;" d="M279.09,181.32l10.715,60.932c3.453,8.198,43.689,57.882,43.689,57.882l-13.308,42.741
							l-52.835-72.25c-4.906-5.248-7.576-12.201-7.442-19.384l2.064-65.099L279.09,181.32z"/>
					</g>
				</g>
			</g>
			<g>
				<g>
					<path style="fill:#E8505B;" d="M336.135,290.583l27.591,2.086l24.061,3.733c0,0,42.195,11.09,42.195,15.711
						c0,1.538-11.527,38.229-17.95,60.211c-2.772,9.487-3.883,16.235-3.883,16.235l21.833,48.485H326.169v-44.457
						c0,0-6.969-58.325-5.768-66.291S336.135,290.583,336.135,290.583z"/>
				</g>
			</g>
			<g>
				<g>
					<path style="fill:#EB996E;" d="M266.034,156.702c0.159-6.205,0.792-12.398,1.894-18.506c0.156-0.866,0.509-1.919,1.382-2.034
						c1.079-0.142,1.629,1.246,1.769,2.325c0.957,7.349,0.649,14.862-0.906,22.108"/>
				</g>
			</g>
			<g>
				<g>
					<path style="fill:#E8505B;" d="M278.303,285.72c11.838-10.582,12.24-28.913,11.228-43.496c-0.075-1.076-0.155-2.25,0.463-3.134
						c1.127-1.613,3.879-1.015,4.98,0.616c1.102,1.631,1.04,3.754,0.938,5.719c0.606-1.667,3.209-1.657,4.429-0.37
						c1.22,1.287,1.426,3.203,1.569,4.971c0.132,1.629,0.263,3.258,0.394,4.886l34.582,32.96c0,0,0.951-2.959,3.491-1.268
						c2.54,1.69,4.181,5.373,4.181,5.373l-24.372,53.196l-45.231-55.029C274.956,290.144,276.376,287.443,278.303,285.72z"/>
				</g>
			</g>
			<g>
				<g>
					<path style="fill:#E8505B;" d="M325.236,322.528c-3.502,4.67-6.422,9.853-7.937,15.489s-1.561,11.762,0.515,17.218
						c2.926,7.689,10.189,13.555,18.322,14.796"/>
				</g>
			</g>
			<g>
				<g>
					<path style="fill:#FFBE9D;" d="M437.191,419.346l-1.314,17.697h25.634l6.011-31.254l0,0
						c-7.808-0.436-15.509,1.978-21.671,6.792L437.191,419.346z"/>
				</g>
			</g>
			<g>
				<g>
					<g>
						<path style="fill:#263238;" d="M290.349,281.805c-0.032-0.016,0.17-0.516,0.562-1.404c0.402-0.883,0.938-2.181,1.55-3.801
							c0.62-1.617,1.258-3.58,1.867-5.785c0.583-2.212,1.122-4.671,1.512-7.282c0.371-2.615,0.558-5.126,0.63-7.413
							c0.046-2.287-0.006-4.35-0.138-6.077c-0.124-1.727-0.267-3.124-0.4-4.085c-0.122-0.962-0.173-1.499-0.138-1.505
							c0.035-0.006,0.154,0.518,0.338,1.474c0.195,0.954,0.395,2.351,0.567,4.085c0.18,1.734,0.271,3.811,0.25,6.118
							c-0.047,2.306-0.22,4.84-0.595,7.478c-0.394,2.634-0.952,5.112-1.565,7.335c-0.639,2.216-1.319,4.181-1.987,5.791
							c-0.659,1.613-1.25,2.895-1.71,3.754C290.644,281.352,290.381,281.821,290.349,281.805z"/>
					</g>
				</g>
			</g>
			<g>
				<g>
					<g>
						<path style="fill:#263238;" d="M297.884,272.525c-0.072-0.04,0.409-0.978,1.069-2.538c0.661-1.558,1.46-3.76,2.044-6.272
							c0.578-2.515,0.825-4.844,0.915-6.534c0.091-1.691,0.07-2.745,0.153-2.749c0.061-0.004,0.213,1.046,0.215,2.759
							c0.005,1.711-0.188,4.087-0.775,6.641c-0.593,2.552-1.461,4.771-2.216,6.307C298.534,271.678,297.937,272.555,297.884,272.525
							z"/>
					</g>
				</g>
			</g>
			<g>
				<g>
					<g>
						<path style="fill:#263238;" d="M338.504,300.175c-0.079-0.045,0.337-0.696,0.579-1.873c0.256-1.168,0.24-2.862-0.26-4.631
							c-0.504-1.772-1.253-3.296-1.738-4.423c-0.498-1.124-0.757-1.845-0.691-1.875c0.066-0.029,0.439,0.631,1.022,1.714
							c0.569,1.086,1.383,2.602,1.908,4.444c0.523,1.846,0.481,3.649,0.116,4.858C339.088,299.612,338.542,300.21,338.504,300.175z"
							/>
					</g>
				</g>
			</g>
			<g>
				<g>
					<g>
						<path style="fill:#263238;" d="M332.487,370.617c-0.01,0.015-0.16-0.069-0.434-0.243c-0.321-0.212-0.712-0.47-1.185-0.782
							c-1.019-0.694-2.488-1.708-4.225-3.074c-1.73-1.367-3.741-3.099-5.613-5.368c-1.86-2.26-3.532-5.138-4.343-8.452
							c-0.837-3.302-0.902-6.586-0.574-9.497c0.327-2.919,1.018-5.48,1.711-7.576c0.7-2.098,1.402-3.743,1.906-4.868
							c0.256-0.561,0.461-0.994,0.609-1.283c0.147-0.29,0.232-0.438,0.249-0.431c0.035,0.016-0.22,0.648-0.671,1.793
							c-0.446,1.146-1.092,2.805-1.742,4.901c-0.643,2.095-1.288,4.638-1.584,7.515c-0.298,2.868-0.217,6.091,0.601,9.317
							c0.794,3.237,2.404,6.038,4.211,8.278c1.818,2.245,3.782,3.989,5.472,5.385c1.696,1.394,3.13,2.452,4.112,3.195
							c0.45,0.343,0.822,0.628,1.128,0.861C332.368,370.49,332.497,370.603,332.487,370.617z"/>
					</g>
				</g>
			</g>
			<g>
				<g>
					<g>
						<path style="fill:#263238;" d="M389.139,380.511c0.005,0.017-0.147,0.071-0.441,0.159c-0.296,0.078-0.726,0.227-1.298,0.338
							c-1.135,0.264-2.812,0.526-4.902,0.588c-4.144,0.153-10.111-0.805-15.561-4.246c-5.447-3.451-8.869-8.433-10.507-12.243
							c-0.839-1.915-1.321-3.542-1.569-4.681c-0.145-0.565-0.195-1.017-0.251-1.318c-0.047-0.303-0.063-0.463-0.046-0.466
							c0.044-0.009,0.184,0.62,0.493,1.734c0.306,1.115,0.837,2.708,1.708,4.578c1.703,3.723,5.111,8.573,10.45,11.956
							c5.342,3.373,11.184,4.375,15.278,4.318c2.063-0.014,3.73-0.217,4.869-0.419C388.501,380.61,389.128,380.467,389.139,380.511z
							"/>
					</g>
				</g>
			</g>
			<g>
				<g>
					<g>
						<path style="fill:#263238;" d="M405.051,399.945c-0.139-0.036,1.184-5.564,2.955-12.345c1.771-6.783,3.32-12.251,3.459-12.214
							c0.139,0.036-1.184,5.563-2.955,12.346C406.738,394.513,405.19,399.982,405.051,399.945z"/>
					</g>
				</g>
			</g>
			<g>
				<g>
					<g>
						<path style="fill:#263238;" d="M419.044,388.207c-0.124,0.073-4.144-6.499-8.977-14.677c-4.835-8.181-8.654-14.87-8.53-14.944
							c0.124-0.073,4.143,6.497,8.978,14.679C415.349,381.443,419.168,388.134,419.044,388.207z"/>
					</g>
				</g>
			</g>
			<g>
				<g>
					<g>
						<path style="fill:#263238;" d="M457.388,404.4c0.01,0.098-1.455,0.221-3.736,0.797c-1.142,0.28-2.474,0.717-3.913,1.297
							c-1.429,0.604-2.959,1.365-4.478,2.314c-1.509,0.965-2.853,2.021-4.012,3.053c-1.141,1.052-2.108,2.067-2.85,2.979
							c-1.499,1.814-2.239,3.084-2.322,3.033c-0.031-0.018,0.134-0.346,0.461-0.925c0.317-0.585,0.852-1.39,1.574-2.338
							c0.716-0.954,1.67-2.013,2.813-3.102c1.161-1.069,2.522-2.157,4.059-3.14c1.547-0.966,3.113-1.729,4.577-2.319
							c1.474-0.565,2.84-0.973,4.008-1.21c1.166-0.246,2.122-0.383,2.787-0.419C457.018,404.373,457.385,404.364,457.388,404.4z"/>
					</g>
				</g>
			</g>
			<g>
				<g>
					<g>
						<path style="fill:#263238;" d="M462.286,398.379c-0.008,0.106-1.61-0.086-4.174,0.133c-1.282,0.098-2.794,0.359-4.438,0.779
							c-1.635,0.453-3.396,1.083-5.153,1.95c-1.746,0.889-3.306,1.923-4.647,2.961c-1.32,1.066-2.434,2.121-3.28,3.089
							c-1.71,1.923-2.515,3.321-2.605,3.264c-0.031-0.018,0.158-0.372,0.528-1c0.18-0.318,0.414-0.697,0.727-1.11
							c0.307-0.416,0.633-0.912,1.072-1.395c0.823-1.014,1.93-2.116,3.258-3.223c1.35-1.079,2.933-2.147,4.715-3.053
							c1.792-0.884,3.594-1.514,5.266-1.949c1.681-0.401,3.227-0.629,4.532-0.681c0.65-0.062,1.242-0.026,1.759-0.024
							c0.518-0.004,0.962,0.036,1.324,0.082C461.893,398.283,462.29,398.343,462.286,398.379z"/>
					</g>
				</g>
			</g>
			<g style="opacity:0.3;">
				<g>
					<g>
						<path d="M355.635,360.771c-2.358,4.462-0.392,9.903,1.76,14.468c1.668,3.538,3.527,7.137,6.563,9.603
							c2.984,2.424,6.996,3.539,10.803,3.002c3.807-0.537,7.353-2.719,9.55-5.874c-12.706,0.053-24.983-8.633-29.162-20.632"/>
					</g>
				</g>
			</g>
			<g style="opacity:0.3;">
				<g>
					<g>
						<path d="M401.537,358.586c-1.792,4.294-0.441,10.166,1.444,14.419c1.886,4.253,3.875,9.005,2.364,13.405
							c-0.283,0.823-0.69,1.654-0.585,2.518c0.105,0.864,1.039,1.687,1.812,1.287c0.448-0.232,0.645-0.756,0.805-1.235
							c1.424-4.278,2.847-8.556,4.271-12.834"/>
					</g>
				</g>
			</g>
			<g>
				<g>
					<g>
						<path style="fill:#FAFAFA;" d="M306.944,302.098c-0.142-0.023,0.316-3.586,1.023-7.958c0.707-4.373,1.395-7.899,1.537-7.876
							c0.142,0.023-0.316,3.586-1.023,7.959C307.774,298.595,307.086,302.121,306.944,302.098z"/>
					</g>
				</g>
			</g>
			<g>
				<g>
					<g>
						<path style="fill:#FAFAFA;" d="M296.405,299.886c-0.127,0.086-1.85-2.319-4.224-5.075c-2.366-2.765-4.481-4.832-4.377-4.945
							c0.088-0.102,2.382,1.812,4.772,4.605C294.975,297.256,296.519,299.814,296.405,299.886z"/>
					</g>
				</g>
			</g>
			<g>
				<g>
					<g>
						<path style="fill:#FAFAFA;" d="M305.446,274.131c0.056,0.042-0.368,0.733-1.129,1.798c-0.76,1.065-1.864,2.5-3.156,4.022
							c-1.294,1.523-2.531,2.843-3.459,3.766c-0.928,0.923-1.542,1.453-1.592,1.405c-0.107-0.105,2.083-2.475,4.654-5.508
							C303.341,276.588,305.325,274.043,305.446,274.131z"/>
					</g>
				</g>
			</g>
			<g>
				<g>
					<g>
						<path style="fill:#FAFAFA;" d="M301.915,261.545c-0.144,0.057-0.711-1.216-1.819-2.482c-1.094-1.28-2.272-2.024-2.194-2.158
							c0.051-0.123,1.42,0.456,2.588,1.817C301.669,260.074,302.045,261.512,301.915,261.545z"/>
					</g>
				</g>
			</g>
			<g>
				<g>
					<g>
						<path style="fill:#FAFAFA;" d="M292.8,269.298c0.023,0.142-1.141,0.444-2.599,0.676c-1.459,0.231-2.659,0.303-2.681,0.161
							c-0.023-0.142,1.141-0.444,2.6-0.676C291.577,269.228,292.777,269.156,292.8,269.298z"/>
					</g>
				</g>
			</g>
			<g>
				<g>
					<g>
						<path style="fill:#FAFAFA;" d="M315.807,280.411c-0.16-0.022,0.232-2.134-0.332-4.653c-0.53-2.526-1.762-4.286-1.625-4.373
							c0.085-0.097,1.572,1.607,2.134,4.262C316.573,278.296,315.924,280.464,315.807,280.411z"/>
					</g>
				</g>
			</g>
			<g>
				<g>
					<g>
						<path style="fill:#FAFAFA;" d="M328.1,293.629c-0.143,0.076-1.191-2.042-3.217-4.062c-2.005-2.042-4.115-3.106-4.038-3.248
							c0.035-0.122,2.324,0.764,4.407,2.882C327.353,291.299,328.223,293.595,328.1,293.629z"/>
					</g>
				</g>
			</g>
			<g>
				<g>
					<g>
						<path style="fill:#FAFAFA;" d="M308.37,316.572c0.049,0.12-1.987,0.859-4.616,0.759c-2.63-0.08-4.611-0.958-4.553-1.074
							c0.048-0.151,2.037,0.478,4.571,0.553C306.305,316.91,308.333,316.418,308.37,316.572z"/>
					</g>
				</g>
			</g>
			<g>
				<g>
					<g>
						<path style="fill:#FAFAFA;" d="M317.632,321.317c-0.143-0.054,0.637-2.36,1.287-5.278c0.661-2.916,0.942-5.334,1.095-5.321
							c0.134,0.006,0.084,2.475-0.587,5.436C318.767,319.115,317.756,321.369,317.632,321.317z"/>
					</g>
				</g>
			</g>
			<g>
				<g>
					<g>
						<path style="fill:#FAFAFA;" d="M337.856,322.093c-0.106,0.097-2.061-1.876-4.366-4.407c-2.305-2.531-4.088-4.661-3.981-4.758
							s2.061,1.876,4.366,4.407C336.179,319.866,337.962,321.996,337.856,322.093z"/>
					</g>
				</g>
			</g>
			<g>
				<g>
					<g>
						<path style="fill:#FAFAFA;" d="M347.285,345.46c-0.104,0.1-1.563-1.244-3.26-3.001c-1.698-1.758-2.989-3.263-2.886-3.363
							c0.103-0.1,1.563,1.243,3.26,3.001C346.096,343.855,347.388,345.36,347.285,345.46z"/>
					</g>
				</g>
			</g>
			<g>
				<g>
					<g>
						<path style="fill:#FAFAFA;" d="M329.769,347.688c0.089,0.101-1.58,1.645-3.995,3.041c-2.41,1.406-4.578,2.09-4.622,1.962
							c-0.056-0.142,1.993-1.031,4.36-2.413C327.886,348.908,329.673,347.569,329.769,347.688z"/>
					</g>
				</g>
			</g>
			<g>
				<g>
					<g>
						<path style="fill:#FAFAFA;" d="M337.83,369.925c-0.151-0.038,0.448-2.665,0.746-5.958c0.314-3.293,0.21-5.985,0.365-5.994
							c0.131-0.015,0.471,2.699,0.153,6.042C338.791,367.359,337.956,369.964,337.83,369.925z"/>
					</g>
				</g>
			</g>
			<g>
				<g>
					<g>
						<path style="fill:#FAFAFA;" d="M368.137,351.845c-0.076,0.108-2.221-1.388-4.325-3.806c-2.117-2.409-3.313-4.734-3.196-4.794
							c0.133-0.081,1.509,2.087,3.588,4.452C366.269,350.072,368.235,351.724,368.137,351.845z"/>
					</g>
				</g>
			</g>
			<g>
				<g>
					<g>
						<path style="fill:#FAFAFA;" d="M379.212,361.282c-0.118-0.093,1.396-2.171,3.094-4.84c1.705-2.665,2.951-4.915,3.085-4.846
							c0.123,0.059-0.924,2.435-2.646,5.126C381.03,359.417,379.318,361.369,379.212,361.282z"/>
					</g>
				</g>
			</g>
			<g>
				<g>
					<g>
						<path style="fill:#FAFAFA;" d="M377.589,338.197c-0.037,0.139-2.313-0.351-5.082-1.095c-2.77-0.744-4.985-1.459-4.948-1.598
							c0.037-0.139,2.313,0.351,5.083,1.095C375.411,337.343,377.626,338.058,377.589,338.197z"/>
					</g>
				</g>
			</g>
			<g>
				<g>
					<g>
						<path style="fill:#FAFAFA;" d="M369.517,378.819c-0.144-0.008-0.135-2.131,0.018-4.74c0.153-2.61,0.394-4.719,0.538-4.71
							c0.144,0.008,0.136,2.131-0.018,4.741C369.901,376.719,369.66,378.828,369.517,378.819z"/>
					</g>
				</g>
			</g>
			<g>
				<g>
					<g>
						<path style="fill:#FAFAFA;" d="M376.497,392.733c-0.147-0.069,0.904-2.142,1.263-4.93c0.39-2.785-0.075-5.062,0.085-5.089
							c0.117-0.049,0.834,2.262,0.431,5.159C377.899,390.771,376.597,392.811,376.497,392.733z"/>
					</g>
				</g>
			</g>
			<g>
				<g>
					<g>
						<path style="fill:#FAFAFA;" d="M358.407,389.659c-0.128,0.02-0.441-2.33,0.113-5.169c0.537-2.843,1.698-4.91,1.809-4.844
							c0.145,0.064-0.778,2.177-1.298,4.942C358.491,387.349,358.565,389.653,358.407,389.659z"/>
					</g>
				</g>
			</g>
			<g>
				<g>
					<g>
						<path style="fill:#FAFAFA;" d="M341.909,396.708c-0.101,0.11-2.125-1.617-4.696-3.646c-2.567-2.036-4.712-3.608-4.629-3.732
							c0.076-0.116,2.366,1.274,4.952,3.324C340.125,394.697,342.004,396.607,341.909,396.708z"/>
					</g>
				</g>
			</g>
			<g>
				<g>
					<g>
						<path style="fill:#FAFAFA;" d="M353.085,377.09c0.067,0.127-2.558,1.653-5.864,3.407c-3.307,1.755-6.041,3.074-6.109,2.947
							c-0.067-0.127,2.558-1.652,5.865-3.407C350.282,378.283,353.017,376.963,353.085,377.09z"/>
					</g>
				</g>
			</g>
			<g>
				<g>
					<g>
						<path style="fill:#263238;" d="M387.79,421.116c0.004,0.018-0.219,0.074-0.647,0.165c-0.43,0.08-1.058,0.242-1.883,0.349
							c-1.641,0.268-4.049,0.501-7.029,0.45c-2.978-0.045-6.53-0.452-10.346-1.462c-3.813-1.003-7.87-2.664-11.748-5.061
							c-3.857-2.433-7.131-5.35-9.706-8.336c-2.583-2.986-4.507-5.999-5.855-8.655c-1.353-2.656-2.2-4.921-2.68-6.513
							c-0.267-0.788-0.396-1.423-0.513-1.844c-0.106-0.424-0.153-0.649-0.136-0.654c0.017-0.005,0.098,0.211,0.237,0.625
							c0.149,0.411,0.31,1.035,0.604,1.809c0.537,1.565,1.431,3.795,2.814,6.406c1.377,2.612,3.315,5.575,5.89,8.511
							c2.567,2.937,5.811,5.807,9.62,8.21c3.83,2.367,7.831,4.022,11.597,5.04c3.768,1.024,7.28,1.466,10.232,1.557
							c2.954,0.097,5.35-0.078,6.992-0.283c0.825-0.075,1.456-0.205,1.891-0.251C387.557,421.12,387.786,421.098,387.79,421.116z"/>
					</g>
				</g>
			</g>
			<g>
				<g>
					<g>
						<path style="fill:#FAFAFA;" d="M357.914,415.942c-0.123,0.04-0.496-2.195,0.469-4.727c0.938-2.543,2.688-3.982,2.754-3.871
							c0.122,0.107-1.38,1.639-2.266,4.054C357.951,413.799,358.076,415.942,357.914,415.942z"/>
					</g>
				</g>
			</g>
			<g>
				<g>
					<g>
						<path style="fill:#FAFAFA;" d="M349.68,412.502c0.074,0.14-1.427,0.873-2.602,2.473c-1.203,1.58-1.481,3.227-1.636,3.195
							c-0.133,0.016-0.075-1.796,1.219-3.507C347.935,412.938,349.657,412.37,349.68,412.502z"/>
					</g>
				</g>
			</g>
			<g>
				<g>
					<g>
						<path style="fill:#FAFAFA;" d="M381.327,431.339c0.005,0.128-2.277-0.052-4.605-1.519c-2.343-1.445-3.508-3.415-3.391-3.466
							c0.126-0.102,1.428,1.648,3.666,3.025C379.218,430.782,381.363,431.181,381.327,431.339z"/>
					</g>
				</g>
			</g>
			<g>
				<g>
					<g>
						<path style="fill:#FAFAFA;" d="M386.252,403.637c0.131-0.003-0.158,2.084-1.792,3.986c-1.613,1.921-3.626,2.544-3.644,2.414
							c-0.073-0.143,1.734-0.941,3.247-2.751C385.604,405.501,386.098,403.588,386.252,403.637z"/>
					</g>
				</g>
			</g>
			<g>
				<g>
					<g>
						<path style="fill:#FAFAFA;" d="M400.24,424.293c-0.12-0.099,1.202-1.77,2.416-4.073c1.23-2.296,1.875-4.325,2.024-4.282
							c0.129,0.027-0.303,2.169-1.564,4.526C401.868,422.828,400.334,424.385,400.24,424.293z"/>
					</g>
				</g>
			</g>
			<g>
				<g>
					<g>
						<path style="fill:#FAFAFA;" d="M418.729,427.021c0.059,0.147-1.763,0.869-3.593,2.377c-1.847,1.489-2.921,3.128-3.054,3.04
							c-0.119-0.052,0.796-1.885,2.725-3.444C416.722,427.42,418.703,426.894,418.729,427.021z"/>
					</g>
				</g>
			</g>
			<g>
				<g>
					<g>
						<path style="fill:#FAFAFA;" d="M404.628,403.333c-0.155,0.049-1.025-2.875-2.866-6.115c-1.818-3.255-3.867-5.514-3.745-5.621
							c0.048-0.045,0.623,0.464,1.433,1.4c0.81,0.935,1.835,2.316,2.766,3.965c0.928,1.65,1.578,3.242,1.957,4.42
							C404.554,402.56,404.691,403.315,404.628,403.333z"/>
					</g>
				</g>
			</g>
			<g>
				<g>
					<g>
						<path style="fill:#FAFAFA;" d="M407.395,373.555c0.032,0.14-2.091,0.75-4.742,1.362c-2.652,0.612-4.827,0.994-4.86,0.854
							c-0.032-0.14,2.091-0.75,4.743-1.362C405.186,373.798,407.362,373.415,407.395,373.555z"/>
					</g>
				</g>
			</g>
			<g>
				<g>
					<g>
						<path style="fill:#FAFAFA;" d="M398.884,364.656c-0.114,0.088-1.484-1.485-3.061-3.514c-1.577-2.03-2.764-3.746-2.65-3.834
							c0.114-0.088,1.484,1.485,3.062,3.514C397.811,362.851,398.997,364.568,398.884,364.656z"/>
					</g>
				</g>
			</g>
			<g>
				<g>
					<g>
						<path style="fill:#FAFAFA;" d="M419.96,359.315c-0.014,0.137-2.188,0.002-4.793-0.619c-2.608-0.614-4.611-1.468-4.562-1.597
							c0.05-0.141,2.108,0.484,4.682,1.09C417.859,358.803,419.979,359.167,419.96,359.315z"/>
					</g>
				</g>
			</g>
			<g>
				<g>
					<g>
						<path style="fill:#FAFAFA;" d="M434.95,359.055c-0.134-0.069,0.694-1.876,1.53-4.169c0.845-2.29,1.381-4.203,1.528-4.17
							c0.134,0.027-0.181,2.021-1.039,4.349C436.119,357.395,435.07,359.121,434.95,359.055z"/>
					</g>
				</g>
			</g>
			<g>
				<g>
					<g>
						<path style="fill:#FAFAFA;" d="M431.578,379.371c-0.033,0.128-2.112-0.395-4.359-1.741c-2.256-1.334-3.707-2.911-3.61-3.001
							c0.105-0.114,1.679,1.256,3.876,2.554C429.673,378.495,431.628,379.224,431.578,379.371z"/>
					</g>
				</g>
			</g>
			<g>
				<g>
					<g>
						<path style="fill:#FAFAFA;" d="M441.325,378.753c-0.14-0.032,0.352-2.691,1.098-5.939c0.747-3.249,1.466-5.855,1.606-5.823
							c0.14,0.032-0.352,2.691-1.099,5.94C442.184,376.178,441.465,378.785,441.325,378.753z"/>
					</g>
				</g>
			</g>
			<g>
				<g>
					<g>
						<path style="fill:#FAFAFA;" d="M433.185,401.467c-0.116,0.085-1.699-1.885-3.536-4.4c-1.837-2.515-3.232-4.622-3.116-4.707
							c0.116-0.085,1.699,1.885,3.536,4.4C431.906,399.275,433.301,401.382,433.185,401.467z"/>
					</g>
				</g>
			</g>
			<g>
				<g>
					<g>
						<path style="fill:#FAFAFA;" d="M447.074,392.784c-0.14,0.064-1.053-1.742-2.492-3.761c-1.428-2.027-2.829-3.488-2.722-3.599
							c0.088-0.101,1.684,1.221,3.147,3.298C446.48,390.79,447.199,392.735,447.074,392.784z"/>
					</g>
				</g>
			</g>
			<g>
				<g>
					<g>
						<path style="fill:#FAFAFA;" d="M460.091,390.829c-0.129,0.078-1.436-1.884-3.201-4.185c-1.758-2.307-3.309-4.083-3.2-4.186
							c0.097-0.096,1.835,1.537,3.614,3.87C459.089,388.656,460.21,390.76,460.091,390.829z"/>
					</g>
				</g>
			</g>
			<g>
				<g>
					<g>
						<path style="fill:#FAFAFA;" d="M457.033,399.456c-0.155,0.007-0.054-1.732-1.192-3.411c-1.097-1.707-2.735-2.297-2.668-2.438
							c0.017-0.058,0.455-0.006,1.086,0.312c0.628,0.312,1.418,0.935,2.017,1.839c0.595,0.906,0.857,1.878,0.897,2.577
							C457.217,399.04,457.093,399.463,457.033,399.456z"/>
					</g>
				</g>
			</g>
			<g>
				<g>
					<g>
						<path style="fill:#FAFAFA;" d="M446.878,411.286c-0.075-0.021-0.052-0.267-0.131-0.621c-0.073-0.35-0.278-0.824-0.686-1.145
							c-0.411-0.318-0.921-0.402-1.278-0.387c-0.363,0.01-0.596,0.092-0.634,0.024c-0.036-0.053,0.15-0.269,0.577-0.388
							c0.413-0.12,1.092-0.094,1.655,0.341c0.559,0.441,0.749,1.093,0.733,1.523C447.103,411.076,446.938,411.308,446.878,411.286z"
							/>
					</g>
				</g>
			</g>
			<g>
				<g>
					<g>
						<path style="fill:#FAFAFA;" d="M342.842,430.198c-0.03,0.121-2.629-0.861-4.994-3.247c-2.387-2.366-3.368-4.965-3.247-4.995
							c0.145-0.079,1.305,2.341,3.615,4.626C340.5,428.892,342.921,430.053,342.842,430.198z"/>
					</g>
				</g>
			</g>
			<g>
				<g>
					<path style="fill:#FFBE9D;" d="M279.187,181.999c-1.604-15.206-4.514-29.514-5.304-44.432c-0.039-0.748-0.125-1.59-0.71-2.058
						c-0.796-0.637-2.07-0.125-2.591,0.751c-0.521,0.877-0.509,1.957-0.505,2.976c0.031,7.91-1.316,15.824-3.963,23.278
						c-1.719,4.841-3.984,9.499-5.283,14.471c-1.298,4.971,1.127,6.658,3.363,11.283"/>
				</g>
			</g>
			<g>
				<g>
					<g>
						<g>
							<path style="fill:#263238;" d="M228.123,121.764c-0.093,0.11-5.717-4.465-12.561-10.219
								c-6.846-5.755-12.319-10.508-12.227-10.618c0.092-0.11,5.716,4.465,12.562,10.22
								C222.741,116.9,228.215,121.654,228.123,121.764z"/>
						</g>
					</g>
				</g>
				<g>
					<g>
						<g>
							<path style="fill:#263238;" d="M256.639,114.914c-0.144,0.007-0.709-8.881-1.263-19.851
								c-0.554-10.973-0.886-19.872-0.742-19.879c0.144-0.007,0.709,8.88,1.263,19.853
								C256.451,106.006,256.783,114.907,256.639,114.914z"/>
						</g>
					</g>
				</g>
				<g>
					<g>
						<g>
							<path style="fill:#263238;" d="M238.477,108.561c-0.137,0.044-1.89-5.028-3.916-11.327
								c-2.027-6.301-3.558-11.444-3.421-11.488c0.137-0.044,1.89,5.027,3.917,11.328
								C237.083,103.373,238.614,108.517,238.477,108.561z"/>
						</g>
					</g>
				</g>
				<g>
					<g>
						<g>
							<path style="fill:#263238;" d="M222.291,131.139c-0.06,0.131-3.515-1.325-7.715-3.251c-4.202-1.927-7.559-3.594-7.499-3.725
								c0.06-0.131,3.514,1.325,7.716,3.252C218.993,129.34,222.351,131.008,222.291,131.139z"/>
						</g>
					</g>
				</g>
				<g>
					<g>
						<g>
							<path style="fill:#263238;" d="M195.978,119.652c-0.018,0.143-0.85,0.156-1.858,0.03c-1.009-0.126-1.812-0.344-1.794-0.487
								c0.018-0.143,0.85-0.156,1.858-0.03C195.192,119.291,195.996,119.509,195.978,119.652z"/>
						</g>
					</g>
				</g>
				<g>
					<g>
						<g>
							<path style="fill:#263238;" d="M231.787,79.294c-0.144,0-0.26-0.818-0.26-1.826c0-1.009,0.117-1.826,0.26-1.826
								c0.144,0,0.26,0.817,0.26,1.826C232.048,78.477,231.931,79.294,231.787,79.294z"/>
						</g>
					</g>
				</g>
				<g>
					<g>
						<g>
							<path style="fill:#263238;" d="M292.01,93.413c0.107,0.096-4.506,5.389-10.301,11.819
								c-5.797,6.433-10.582,11.568-10.689,11.471c-0.107-0.096,4.504-5.387,10.302-11.82
								C287.117,98.453,291.903,93.317,292.01,93.413z"/>
						</g>
					</g>
				</g>
				<g>
					<g>
						<g>
							<path style="fill:#263238;" d="M299.35,86.142c0.102,0.102-0.429,0.797-1.185,1.554c-0.756,0.757-1.452,1.287-1.554,1.185
								c-0.102-0.102,0.429-0.797,1.185-1.554C298.552,86.571,299.248,86.04,299.35,86.142z"/>
						</g>
					</g>
				</g>
				<g>
					<g>
						<g>
							<path style="fill:#263238;" d="M317.172,111.742c0.017,0.032-0.468,0.318-1.359,0.808c-0.889,0.493-2.192,1.175-3.816,1.993
								c-3.246,1.637-7.794,3.776-12.918,5.903c-5.127,2.125-9.854,3.833-13.306,4.974c-1.725,0.572-3.129,1.012-4.106,1.293
								c-0.976,0.284-1.521,0.425-1.531,0.391c-0.011-0.034,0.513-0.24,1.469-0.583c1.043-0.373,2.405-0.861,4.048-1.448
								c3.415-1.229,8.111-2.987,13.227-5.107c5.113-2.123,9.674-4.204,12.956-5.753c1.576-0.748,2.884-1.368,3.885-1.842
								C316.64,111.936,317.156,111.711,317.172,111.742z"/>
						</g>
					</g>
				</g>
				<g>
					<g>
						<g>
							<path style="fill:#263238;" d="M302.545,136.357c0.018,0.065-0.989,0.421-2.652,0.878c-1.663,0.457-3.987,0.999-6.582,1.444
								c-2.597,0.442-4.969,0.702-6.689,0.822c-1.721,0.121-2.789,0.12-2.793,0.052c-0.005-0.076,1.052-0.204,2.757-0.418
								c1.705-0.214,4.056-0.529,6.638-0.969c2.581-0.442,4.903-0.924,6.582-1.288C301.484,136.514,302.525,136.284,302.545,136.357
								z"/>
						</g>
					</g>
				</g>
				<g>
					<g>
						<g>
							<path style="fill:#263238;" d="M315.836,133.898c0,0.144-1.289,0.26-2.88,0.26c-1.591,0-2.88-0.117-2.88-0.26
								c0-0.144,1.289-0.26,2.88-0.26C314.546,133.637,315.836,133.754,315.836,133.898z"/>
						</g>
					</g>
				</g>
			</g>
			<g>
				<g>
					<path style="fill:#FFBE9D;" d="M264.196,188.268c-3.986-2.974-6.107-8.26-5.281-13.164c0.505-2.999,1.99-5.725,3.175-8.526
						c1.185-2.801,2.093-5.904,1.37-8.858c-0.277-1.13-0.789-2.223-0.795-3.387c-0.006-1.164,0.743-2.464,1.905-2.517
						c0.878-0.04,1.621,0.628,2.173,1.312c1.943,2.41,3.512,9.458,2.528,14.708"/>
				</g>
			</g>
			<g>
				<g>
					<g>
						<path style="fill:#EB996E;" d="M269.271,167.835c-0.051-0.009,0.102-0.808,0.161-2.266c0.05-1.456-0.015-3.581-0.514-6.14
							c-0.254-1.275-0.616-2.663-1.195-4.069c-0.292-0.698-0.633-1.415-1.119-2.033c-0.48-0.609-1.12-1.222-1.876-1.271
							c-0.76-0.059-1.42,0.609-1.668,1.399c-0.281,0.793-0.1,1.69,0.164,2.574c0.275,0.88,0.602,1.833,0.695,2.834
							c0.1,0.996,0.061,2.017-0.11,3.021c-0.696,4.055-2.862,7.34-3.955,10.583c-0.565,1.618-0.905,3.221-0.893,4.741
							c-0.008,1.517,0.236,2.928,0.616,4.164c0.77,2.483,2.038,4.231,3.004,5.304c0.981,1.077,1.65,1.548,1.615,1.592
							c-0.011,0.014-0.179-0.099-0.492-0.329c-0.315-0.225-0.755-0.597-1.271-1.125c-1.026-1.047-2.371-2.797-3.207-5.331
							c-0.413-1.261-0.687-2.709-0.697-4.277c-0.031-1.57,0.307-3.242,0.871-4.896c1.101-3.322,3.233-6.603,3.895-10.51
							c0.165-0.967,0.201-1.939,0.109-2.882c-0.087-0.947-0.386-1.826-0.669-2.744c-0.266-0.9-0.484-1.926-0.147-2.877
							c0.158-0.462,0.412-0.898,0.788-1.227c0.365-0.337,0.884-0.525,1.38-0.493c1.024,0.094,1.698,0.825,2.208,1.467
							c0.525,0.684,0.865,1.428,1.158,2.151c0.578,1.454,0.923,2.866,1.158,4.164c0.46,2.602,0.467,4.753,0.354,6.22
							c-0.065,0.734-0.138,1.302-0.222,1.681C269.337,167.641,269.289,167.839,269.271,167.835z"/>
					</g>
				</g>
			</g>
		</g>
		<g>
			<g>
				<g>
					<g>
						<path style="fill:#263238;" d="M400.008,249.054c0.527,2.877,3.262,5.095,6.177,5.337c2.915,0.242,5.827-1.321,7.53-3.699
							c1.703-2.378,2.263-5.462,1.868-8.36c-0.575-4.21-3.373-8.258-7.432-9.515c-4.059-1.257-9.11,0.98-10.233,5.079l-4.68,6.535
							L400.008,249.054z"/>
					</g>
				</g>
				<g>
					<g>
						<g>
							<g>
								<path style="fill:#FFBE9D;" d="M394.474,236.221c1.9-15.168-9.072-29.029-24.473-30.496
									c-14.516-1.383-27.417,9.426-29.593,23.844c-1.907,12.64-3.547,25.399-3.488,30.033
									c0.178,13.974,8.354,19.414,11.669,21.048c0.757,0.373,2.842,0.796,3.677,0.915l0,0c0.052,0.007,0.088,0.057,0.078,0.109
									l-3.103,16.041c-1.407,10.51,4.46,19.884,14.953,21.413c10.528,1.535,18.758-6.538,20.365-17.056L394.474,236.221z"/>
							</g>
						</g>
						<g>
							<g>
								<g>
									<g>
										<g>
											<g>
												<g>
													<path style="fill:#263238;" d="M342.817,237.741c0.231,0.327,2.076-0.663,4.441-0.312
														c2.367,0.317,3.926,1.787,4.224,1.534c0.145-0.11-0.057-0.667-0.733-1.328c-0.664-0.656-1.855-1.374-3.33-1.583
														c-1.475-0.207-2.793,0.155-3.587,0.606C343.024,237.111,342.702,237.594,342.817,237.741z"/>
												</g>
											</g>
										</g>
									</g>
								</g>
							</g>
						</g>
						<g>
							<g>
								<g>
									<g>
										<g>
											<g>
												<g>
													<path style="fill:#263238;" d="M363.863,242.301c0.231,0.326,2.078-0.663,4.441-0.312
														c2.367,0.317,3.926,1.786,4.225,1.534c0.144-0.11-0.055-0.667-0.734-1.328c-0.664-0.656-1.855-1.374-3.329-1.583
														c-1.475-0.206-2.793,0.155-3.587,0.606C364.071,241.671,363.748,242.153,363.863,242.301z"/>
												</g>
											</g>
										</g>
									</g>
								</g>
							</g>
						</g>
						<g>
							<g>
								<g>
									<g>
										<g>
											<g>
												<path style="fill:#263238;" d="M355.678,253.481c0.03-0.133-1.403-0.601-3.741-1.253
													c-0.595-0.151-1.149-0.354-1.191-0.781c-0.079-0.457,0.269-1.072,0.664-1.732c0.781-1.379,1.598-2.824,2.457-4.339
													c3.435-6.187,6.016-11.31,5.765-11.446c-0.25-0.136-3.238,4.768-6.673,10.955c-0.832,1.528-1.628,2.984-2.385,4.378
													c-0.328,0.653-0.835,1.374-0.659,2.325c0.097,0.475,0.493,0.867,0.865,1.028c0.37,0.175,0.709,0.231,1.005,0.292
													C354.163,253.387,355.649,253.615,355.678,253.481z"/>
											</g>
										</g>
									</g>
								</g>
							</g>
						</g>
						<g>
							<g>
								<g>
									<g>
										<g>
											<path style="fill:#EB996E;" d="M352.362,281.578c0,0,9.024,2.081,21.449-3.12c0,0-5.364,11.548-22.285,7.443
												L352.362,281.578z"/>
										</g>
									</g>
								</g>
							</g>
						</g>
						<g>
							<g>
								<g>
									<g>
										<g>
											<path style="fill:#EB996E;" d="M355.847,259.328c1.015-1.001,2.595-1.401,4.052-1.026c1.01,0.26,1.976,0.906,2.477,1.833
												c0.502,0.927,0.46,2.133-0.224,2.847c-0.769,0.805-2.133,0.817-3.215,0.332c-1.082-0.485-1.945-1.37-2.76-2.245
												c-0.225-0.242-0.455-0.494-0.574-0.798c-0.118-0.304-0.099-0.676,0.132-0.88"/>
										</g>
									</g>
								</g>
							</g>
						</g>
						<g>
							<g>
								<g>
									<g>
										<g>
											<g>
												<path style="fill:#263238;" d="M362.401,256.132c-0.381-0.078-0.761,2.489-3.224,3.991
													c-2.46,1.509-5.155,0.821-5.227,1.177c-0.059,0.156,0.537,0.588,1.687,0.788c1.128,0.204,2.836,0.081,4.343-0.838
													c1.504-0.922,2.298-2.329,2.538-3.37C362.772,256.821,362.579,256.143,362.401,256.132z"/>
											</g>
										</g>
									</g>
								</g>
							</g>
						</g>
						<g>
							<g>
								<g>
									<g>
										<g>
											<path style="fill:#263238;" d="M365.492,234.604c0.139,0.677,2.546,0.717,5.272,1.456c2.741,0.684,4.861,1.823,5.313,1.3
												c0.204-0.252-0.097-0.914-0.911-1.669c-0.806-0.752-2.151-1.552-3.79-1.98c-1.639-0.425-3.203-0.383-4.274-0.119
												C366.023,233.853,365.436,234.284,365.492,234.604z"/>
										</g>
									</g>
								</g>
							</g>
						</g>
						<g>
							<g>
								<g>
									<g>
										<g>
											<path style="fill:#263238;" d="M345.207,230.449c0.338,0.598,2.048,0.278,4.012,0.537c1.972,0.19,3.566,0.889,4.03,0.382
												c0.207-0.249,0.024-0.825-0.627-1.439c-0.64-0.611-1.775-1.199-3.128-1.355c-1.352-0.153-2.59,0.164-3.352,0.615
												C345.37,229.639,345.061,230.16,345.207,230.449z"/>
										</g>
									</g>
								</g>
							</g>
						</g>
					</g>
					<g>
						<g>
							<path style="fill:#263238;" d="M337.665,226.437c2.892,4.414,12.07,1.687,17.613-1.345c5.838,3.87,13.951,2.19,17.994-3.726
								c3.171,4.039,9.612,2.704,11.961-1.848c2.349-4.553,1.027-10.816-2.199-14.798c-3.226-3.982-7.946-5.993-12.605-6.853
								c-11.048-2.041-23.083,2.242-29.693,12.233C337.687,214.709,335.857,220.916,337.665,226.437"/>
						</g>
					</g>
					<g>
						<g>
							<g>
								<path style="fill:#455A64;" d="M368.206,199.444c-0.011,0.193-2.611-0.306-6.703,0.376
									c-4.018,0.673-9.675,2.769-13.887,7.471c-4.116,4.769-5.987,10.422-6.671,14.455c-0.689,4.097-0.163,6.684-0.342,6.7
									c-0.052,0.01-0.224-0.621-0.377-1.794c-0.136-1.173-0.183-2.897,0.081-5c0.542-4.163,2.34-9.994,6.626-14.967
									c4.412-4.92,10.324-6.976,14.473-7.503c2.105-0.276,3.83-0.216,5.001-0.083
									C367.581,199.225,368.214,199.394,368.206,199.444z"/>
							</g>
						</g>
					</g>
					<g>
						<g>
							<g>
								<path style="fill:#455A64;" d="M353.267,219.983c-0.052,0.005-0.171-0.55-0.221-1.573c-0.054-1.022,0.031-2.519,0.45-4.313
									c0.785-3.543,3.354-8.439,8.302-11.381c4.974-2.902,10.502-2.775,13.981-1.744c1.773,0.503,3.123,1.155,3.991,1.698
									c0.87,0.54,1.298,0.913,1.268,0.956c-0.089,0.165-1.937-1.21-5.418-2.028c-3.403-0.839-8.66-0.838-13.358,1.905
									c-4.675,2.778-7.224,7.375-8.141,10.758C353.148,217.702,353.456,219.986,353.267,219.983z"/>
							</g>
						</g>
					</g>
				</g>
				<g>
					<g>
						<path style="fill:#263238;" d="M379.78,215.196c-0.928,3.938-1.862,7.919-1.864,11.964c-0.002,4.046,1.012,8.224,3.595,11.338
							c3.861,4.657,10.298,6.069,16.241,7.2c3.181-7.884,4.15-16.647,2.768-25.035c-0.675-4.096-1.993-8.265-4.882-11.246
							c-4.169-4.303-11.43-5.169-16.494-1.969"/>
					</g>
				</g>
				<g>
					<g>
						<path style="fill:#263238;" d="M383.083,234.558c-1.568,3.379-1.45,7.292-0.908,10.977c0.541,3.685,1.476,7.341,1.44,11.066
							c-0.036,3.725-1.22,7.667-4.141,9.979c-0.831,0.658-1.787,1.174-2.483,1.973s-1.072,2.02-0.516,2.921
							c0.557,0.901,2.242,0.882,2.487-0.149l-0.152,0.261c-0.638,1.094,0.137,2.518,1.403,2.495c1.98-0.037,4.009-1.085,5.336-2.621
							c1.91-2.211,2.668-5.176,3.17-8.055c1.54-8.831,1.24-17.981,3.678-26.607"/>
					</g>
				</g>
				<g>
					<g>
						<path style="fill:#E8505B;" d="M349.173,292.546c1.37,5.995,5.445,11.316,10.875,14.202c5.43,2.886,12.121,3.285,17.855,1.065
							c5.176-2.003,9.353-5.902,13.39-9.711c1.435,8.644-0.959,17.853-6.422,24.704c-5.463,6.851-13.909,11.234-22.656,11.758
							c-6.624,0.397-13.749-1.627-17.914-6.793c-2.907-3.605-4.086-8.375-4.039-13.006c0.047-4.631,1.228-9.174,2.615-13.592
							c1.187-3.78,3.051-8.02,6.876-9.055"/>
					</g>
				</g>
				<g>
					<g>
						<g>
							<path style="fill:#263238;" d="M396.613,246.018c3.96,2.154,6.136,6.649,6.905,11.09c0.769,4.441,0.383,8.991,0.571,13.495
								c0.188,4.503,1.051,9.206,3.897,12.702c3.022,3.714,7.75,5.472,11.965,7.745c9.323,5.027,16.988,13.536,19.796,23.748
								c2.809,10.213,0.262,22.024-7.389,29.349c-6.962,6.665-17.096,9.011-26.735,8.984c-6.876-0.02-14.425-1.479-18.713-6.855
								c-4.235-5.309-4.044-12.899-2.496-19.512c1.548-6.612,4.248-13.054,4.354-19.845c-1.019,4.192-2.818,8.193-5.279,11.736
								c-0.704,1.013-1.914,2.106-3.002,1.525c-1.207-0.644-0.749-2.452-0.188-3.7c8.286-18.432,5.401-55.579,10.31-75.929"/>
						</g>
					</g>
					<g>
						<g>
							<g>
								<g>
									<g>
										<g>
											<g>
												<g>
													<g>
														<g>
															<path style="fill:#FFBE9D;" d="M389.791,243.914c0.249-0.08,9.915-1.911,8.674,7.648
																c-1.241,9.559-10.582,6.342-10.563,6.065C387.921,257.351,389.791,243.914,389.791,243.914z"/>
														</g>
													</g>
												</g>
											</g>
										</g>
									</g>
								</g>
							</g>
						</g>
						<g>
							<g>
								<g>
									<g>
										<g>
											<g>
												<g>
													<g>
														<g>
															<g>
																<path style="fill:#EB996E;" d="M391.292,254.385c0.046-0.025,0.152,0.138,0.416,0.304
																	c0.258,0.161,0.719,0.309,1.241,0.187c1.058-0.24,2.117-1.732,2.386-3.449c0.137-0.867,0.063-1.719-0.157-2.445
																	c-0.201-0.737-0.59-1.285-1.086-1.441c-0.491-0.183-0.89,0.075-1.042,0.329c-0.163,0.251-0.127,0.449-0.179,0.459
																	c-0.03,0.021-0.185-0.186-0.056-0.571c0.064-0.185,0.205-0.396,0.454-0.55c0.254-0.157,0.603-0.208,0.953-0.124
																	c0.73,0.147,1.306,0.911,1.547,1.708c0.281,0.806,0.386,1.766,0.231,2.739c-0.311,1.918-1.531,3.593-2.965,3.813
																	c-0.695,0.088-1.23-0.188-1.49-0.451C391.279,254.619,391.256,254.398,391.292,254.385z"/>
															</g>
														</g>
													</g>
												</g>
											</g>
										</g>
									</g>
								</g>
							</g>
						</g>
					</g>
				</g>
				<g>
					<g>
						<g>
							<path style="fill:#263238;" d="M339.286,313.154c-0.065-0.041,0.585-1.156,1.625-2.955c1.025-1.802,2.458-4.304,3.45-7.291
								c0.991-2.986,1.159-5.883,0.862-7.913c-0.275-2.043-0.859-3.215-0.765-3.251c0.028-0.013,0.199,0.264,0.434,0.803
								c0.237,0.538,0.506,1.353,0.696,2.391c0.4,2.072,0.285,5.073-0.732,8.133c-1.017,3.056-2.521,5.559-3.63,7.319
								c-0.56,0.881-1.034,1.579-1.371,2.055C339.518,312.92,339.316,313.173,339.286,313.154z"/>
						</g>
					</g>
				</g>
				<g>
					<g>
						<g>
							<path style="fill:#FAFAFA;" d="M344.163,302.117c-0.144,0.034-0.416-0.815-1.271-1.39c-0.836-0.604-1.727-0.565-1.744-0.712
								c-0.011-0.064,0.212-0.176,0.605-0.183c0.389-0.01,0.941,0.123,1.437,0.468c0.495,0.346,0.811,0.818,0.936,1.186
								C344.255,301.858,344.227,302.105,344.163,302.117z"/>
						</g>
					</g>
				</g>
				<g>
					<g>
						<g>
							<path style="fill:#FAFAFA;" d="M350.336,302.104c-0.136,0.079-0.894-1.298-2.461-2.309c-1.548-1.041-3.113-1.194-3.093-1.35
								c-0.026-0.132,1.691-0.211,3.38,0.915C349.862,300.466,350.468,302.076,350.336,302.104z"/>
						</g>
					</g>
				</g>
				<g>
					<g>
						<g>
							<path style="fill:#FAFAFA;" d="M354.223,322.393c-0.141-0.029,0.118-1.857,0.578-4.083c0.46-2.227,0.947-4.007,1.088-3.978
								c0.141,0.029-0.118,1.857-0.578,4.083C354.851,320.641,354.364,322.422,354.223,322.393z"/>
						</g>
					</g>
				</g>
				<g>
					<g>
						<g>
							<path style="fill:#FAFAFA;" d="M369.824,325.453c-0.144-0.005-0.2-1.937-0.126-4.316c0.074-2.38,0.251-4.305,0.395-4.301
								c0.144,0.004,0.2,1.937,0.126,4.317C370.144,323.531,369.968,325.457,369.824,325.453z"/>
						</g>
					</g>
				</g>
			</g>
		</g>
	</g>
</g>
<g id="Character_1">
	<g>
		<g>
			<polygon style="fill:#B78876;" points="51.307,369.887 35.888,437.042 68.499,437.142 83.564,378.088 			"/>
		</g>
	</g>
	<g>
		<g>
			<g>
				<path style="fill:#263238;" d="M211.454,287.394c-3.099-4.157-6.661-8.147-8.295-13.068c-0.79-2.377-1.098-4.896-1.939-7.256
					c-0.84-2.359-2.368-4.66-4.709-5.55c-2.341-0.89-4.118,0.012-5.642,1.676l-11.191,32.73l6.453,25.143
					c6.435-1.452,14.503-3.169,20.517-5.881c6.014-2.711,10.043-7.05,10.418-13.636
					C217.361,296.376,214.553,291.551,211.454,287.394z"/>
			</g>
		</g>
		<g>
			<g>
				<path style="fill:#E8505B;" d="M109.619,281.606c0,0-38.902,16.935-43.764,24.575c-4.861,7.639-20.833,62.108-20.833,62.108
					l40.955,12.051l-0.675,56.703h100.502l-0.829-99.972l-12.608-55.263c0,0-22.19-1.429-24.244-2.441
					C146.068,278.354,109.619,281.606,109.619,281.606z"/>
			</g>
		</g>
		<g>
			<g>
				<g>
					<path style="fill:#B78876;" d="M247.857,142.991c0.321-2.294-1.284-4.813-0.132-6.822c0.637-1.11,1.922-1.646,3.116-2.107
						c0.616-0.238,1.254-0.479,1.914-0.457c0.66,0.022,1.356,0.376,1.573,0.999c0.255,0.732-0.217,1.516-0.765,2.064
						c-0.548,0.547-1.217,1.025-1.51,1.742c-0.393,0.959-0.033,3.967,0.366,4.924c0.684,1.642,3.096,8.935,3.307,10.701"/>
				</g>
			</g>
			<g>
				<g>
					<path style="fill:#B78876;" d="M239.648,143.783c0.143-3.471,2.957-17.146,3.1-20.618c2.347,0.724,3.708,3.224,4.15,5.64
						s0.214,4.914,0.632,7.335c0.561,3.25,2.25,6.18,3.953,9.004c1.703,2.824,3.477,5.683,4.242,8.891
						c0.765,3.208,3.67,11.517,1.41,13.919"/>
				</g>
			</g>
			<g>
				<g>
					<path style="fill:#B78876;" d="M238.996,167.183l-13.904,66.082c-0.49,2.985-52.726,48.543-52.726,48.543l10.317,41.212
						l68.052-66.532c4.906-5.248,7.576-12.201,7.442-19.384l-1.154-62.004L238.996,167.183z"/>
				</g>
			</g>
			<g>
				<g>
					<path style="fill:#B78876;" d="M236.622,144.201l2.374,22.982l18.027,7.917c0,0,0.221-1.632,0.995-9.595
						c0.855-8.787-8.59-12.557-12.796-19.04c-1.801-2.776-1.329-7.877-2.72-14.197c-0.16-0.728-1.165-5.144-1.705-7.517
						c-0.299-1.313-1.042-2.497-2.16-3.248c-0.812-0.545-1.735-0.817-2.411-0.004C235.537,122.328,236.622,144.201,236.622,144.201z
						"/>
				</g>
			</g>
			<g>
				<g>
					<path style="fill:#B78876;" d="M247.858,171.039c2.048-1.731,2.486-4.831,1.728-7.403c-0.758-2.572-2.491-4.731-4.248-6.757
						c-1.757-2.026-3.61-4.041-4.691-6.495c-0.761-1.728-1.115-3.62-1.954-5.312c-0.84-1.691-2.368-3.241-4.255-3.315
						c1.507,9.509,1.471,14.981,4.557,25.426"/>
				</g>
			</g>
			<g>
				<g>
					<g>
						<path style="fill:#7C5142;" d="M236.274,152.583c0.005,0.036-0.072-0.261-0.186-0.762c-0.135-0.608-0.295-1.33-0.482-2.178
							c-0.421-1.988-0.966-4.557-1.586-7.482l-0.059-0.28l0.291-0.023c1.187-0.093,2.422,0.432,3.361,1.257
							c1.574,1.339,2.292,3.222,2.815,4.815c0.523,1.621,0.972,3.063,1.582,4.173c0.555,1.143,1.321,1.836,1.759,2.425
							c0.436,0.578,0.625,0.931,0.599,0.949c-0.033,0.024-0.279-0.29-0.755-0.819c-0.459-0.52-1.305-1.214-1.926-2.377
							c-0.671-1.122-1.172-2.602-1.714-4.196c-0.547-1.582-1.246-3.339-2.701-4.575c-0.871-0.762-1.957-1.219-2.99-1.148
							l0.231-0.302C235.708,148.083,236.492,152.591,236.274,152.583z"/>
					</g>
				</g>
			</g>
			<g>
				<g>
					<g>
						<path style="fill:#7C5142;" d="M244.358,146.735c-0.142,0.021-0.885-4.18-1.66-9.383c-0.775-5.204-1.287-9.439-1.145-9.46
							c0.142-0.021,0.885,4.179,1.66,9.384C243.987,142.478,244.5,146.714,244.358,146.735z"/>
					</g>
				</g>
			</g>
			<g>
				<g>
					<g>
						<path style="fill:#7C5142;" d="M250.092,147.506c0.027-0.004,0.071,0.109,0.132,0.353l-0.155,0.033
							c-0.337-0.827-1.124-3.419-1.815-6.537c-0.43-1.929-0.746-3.692-0.932-4.973c-0.187-1.282-0.251-2.082-0.182-2.094
							c0.147-0.024,0.762,3.111,1.622,6.954c0.688,3.105,1.325,5.725,1.459,6.608l-0.155,0.033
							C250.055,147.63,250.064,147.51,250.092,147.506z"/>
					</g>
				</g>
			</g>
			<g>
				<g>
					<g>
						<path style="fill:#7C5142;" d="M253.637,160.177c-0.074,0.044-0.437-0.518-1.161-1.289c-0.72-0.773-1.852-1.717-3.3-2.42
							c-1.451-0.696-2.896-0.994-3.949-1.077c-1.055-0.087-1.72-0.021-1.732-0.106c-0.011-0.056,0.646-0.255,1.747-0.262
							c1.096-0.011,2.635,0.244,4.159,0.976c1.521,0.738,2.678,1.783,3.352,2.648C253.435,159.512,253.687,160.151,253.637,160.177z
							"/>
					</g>
				</g>
			</g>
			<g>
				<g>
					<g>
						<path style="fill:#7C5142;" d="M240.627,168.996c-0.062,0.024-0.544-1.002-1.184-2.72c-0.64-1.716-1.415-4.131-2.068-6.852
							c-0.65-2.722-1.051-5.227-1.257-7.047c-0.207-1.821-0.241-2.954-0.175-2.961c0.077-0.008,0.241,1.111,0.539,2.909
							c0.298,1.798,0.753,4.274,1.398,6.977c0.648,2.702,1.361,5.115,1.91,6.854C240.339,167.896,240.699,168.968,240.627,168.996z"
							/>
					</g>
				</g>
			</g>
		</g>
		<g>
			<g>
				<path style="fill:#E8505B;" d="M160.163,282.979c1.675-2.787,5.781-3.747,8.518-1.991c7.341-5.97,14.847-11.822,22.188-17.792
					c-2.395,11.966-3.974,28.737,1.369,39.709c0,0,6.768,12.586,17.548,10.66l-9.611,9.454l-15.2,14.051"/>
			</g>
		</g>
		<g>
			<g>
				<g>
					<path style="fill:#263238;" d="M157.778,288.599c-0.128,0.007,0.008-2.224,1.415-4.513c1.385-2.303,3.303-3.451,3.356-3.334
						c0.102,0.125-1.595,1.407-2.911,3.604C158.293,286.536,157.936,288.633,157.778,288.599z"/>
				</g>
			</g>
		</g>
		<g>
			<g>
				<g>
					<path style="fill:#263238;" d="M165.706,295.951c-0.048,0.023-0.485-0.772-0.835-2.186c-0.354-1.407-0.538-3.453-0.153-5.652
						c0.394-2.199,1.27-4.057,2.087-5.257c0.815-1.207,1.499-1.803,1.536-1.766c0.068,0.059-0.51,0.737-1.223,1.96
						c-0.716,1.219-1.505,3.029-1.886,5.153c-0.372,2.124-0.253,4.096,0.001,5.486C165.48,295.084,165.79,295.919,165.706,295.951z"
						/>
				</g>
			</g>
		</g>
		<g>
			<g>
				<g>
					<path style="fill:#FAFAFA;" d="M202.453,321.684c0,0-0.772,0.539-2.394,0.962c-1.603,0.433-4.112,0.632-7.005-0.211
						c-2.893-0.811-6.01-2.893-8.423-6.04c-2.451-3.129-4.113-7.267-5.022-11.71c-1.72-8.932-1.652-17.208-1.199-23.113
						c0.232-2.959,0.565-5.338,0.836-6.974c0.13-0.819,0.255-1.451,0.343-1.878c0.088-0.428,0.142-0.65,0.16-0.647
						c0.018,0.003-0.002,0.232-0.056,0.665c-0.063,0.486-0.145,1.112-0.246,1.89c-0.209,1.641-0.484,4.02-0.669,6.971
						c-0.359,5.883-0.364,14.131,1.341,22.98c0.901,4.395,2.518,8.45,4.893,11.525c2.34,3.092,5.345,5.144,8.149,5.979
						c2.808,0.866,5.262,0.732,6.852,0.366C201.62,322.094,202.429,321.625,202.453,321.684z"/>
				</g>
			</g>
		</g>
		<g>
			<g>
				<g>
					<path style="fill:#263238;" d="M86.192,397.168c-0.144,0-0.26-14.215-0.26-31.746c0-17.537,0.117-31.749,0.26-31.749
						c0.144,0,0.26,14.212,0.26,31.749C86.453,382.953,86.336,397.168,86.192,397.168z"/>
				</g>
			</g>
		</g>
		<g>
			<g>
				<g>
					<path style="fill:#263238;" d="M85.385,322.704c-0.107,0.003-0.077-1.422-0.567-3.633c-0.233-1.107-0.657-2.39-1.248-3.759
						c-0.624-1.355-1.435-2.787-2.471-4.163c-1.056-1.362-2.223-2.523-3.366-3.482c-1.165-0.931-2.291-1.678-3.297-2.194
						c-2.003-1.055-3.386-1.401-3.355-1.504c0.009-0.035,0.355,0.039,0.977,0.205c0.313,0.077,0.692,0.186,1.114,0.362
						c0.424,0.17,0.923,0.333,1.43,0.609c1.048,0.485,2.222,1.215,3.431,2.149c1.187,0.961,2.396,2.142,3.479,3.539
						c1.062,1.412,1.883,2.889,2.497,4.287c0.582,1.413,0.977,2.738,1.169,3.876c0.132,0.562,0.158,1.086,0.21,1.54
						c0.059,0.454,0.065,0.848,0.056,1.17C85.441,322.352,85.421,322.705,85.385,322.704z"/>
				</g>
			</g>
		</g>
		<g>
			<g>
				<g>
					<path style="fill:#263238;" d="M153.884,281.175c0.018-0.003,0.074,0.286,0.165,0.842c0.112,0.554,0.194,1.38,0.259,2.45
						c0.112,2.133-0.082,5.282-1.248,8.951c-1.198,3.628-3.447,7.796-7.247,11.221c-3.753,3.455-9.152,5.817-15.016,6.274
						c-5.869,0.423-11.561-1.108-15.787-3.966c-4.269-2.82-7.113-6.607-8.839-10.016c-1.7-3.454-2.361-6.539-2.568-8.665
						c-0.095-1.068-0.137-1.896-0.109-2.461c0.007-0.563,0.02-0.857,0.038-0.857c0.018,0,0.041,0.296,0.067,0.855
						c0.006,0.561,0.08,1.383,0.205,2.438c0.267,2.101,0.977,5.136,2.695,8.522c1.744,3.341,4.575,7.04,8.774,9.782
						c4.154,2.777,9.729,4.261,15.486,3.848c5.752-0.45,11.042-2.748,14.735-6.113c3.743-3.337,5.991-7.415,7.217-10.979
						c1.194-3.604,1.444-6.711,1.395-8.829c-0.034-1.062-0.083-1.886-0.161-2.442C153.888,281.473,153.866,281.178,153.884,281.175z
						"/>
				</g>
			</g>
		</g>
		<g>
			<g>
				<g>
					<path style="fill:#FAFAFA;" d="M85.329,367.93c-0.045,0.137-8.304-2.469-18.445-5.82c-10.144-3.352-18.329-6.179-18.284-6.315
						c0.045-0.136,8.303,2.469,18.447,5.821C77.188,364.966,85.374,367.793,85.329,367.93z"/>
				</g>
			</g>
		</g>
		<g>
			<g>
				<g>
					<path style="fill:#FAFAFA;" d="M184.002,354.053c0.001,0.144-22.054,0.353-49.254,0.467c-27.209,0.114-49.26,0.09-49.261-0.054
						c-0.001-0.144,22.049-0.353,49.259-0.467C161.946,353.885,184.002,353.909,184.002,354.053z"/>
				</g>
			</g>
		</g>
		<g>
			<g>
				<g>
					<path style="fill:#FAFAFA;" d="M184.501,362.758c0,0.144-22.166,0.26-49.504,0.26c-27.347,0-49.508-0.117-49.508-0.26
						s22.162-0.26,49.508-0.26C162.334,362.497,184.501,362.614,184.501,362.758z"/>
				</g>
			</g>
		</g>
		<g>
			<g>
				<g>
					<path style="fill:#263238;" d="M170.922,373.342c0.017,0.006-0.08,0.284-0.279,0.807c-0.222,0.565-0.521,1.325-0.897,2.281
						c-0.2,0.499-0.421,1.047-0.66,1.645c-0.257,0.595-0.57,1.225-0.889,1.911c-0.658,1.362-1.341,2.947-2.29,4.6
						c-0.457,0.837-0.935,1.713-1.432,2.625c-0.504,0.91-1.104,1.811-1.685,2.769c-1.136,1.934-2.541,3.874-3.981,5.942
						c-2.997,4.049-6.566,8.306-10.701,12.4c-4.176,4.056-8.502,7.541-12.61,10.459c-2.096,1.399-4.064,2.767-6.02,3.864
						c-0.969,0.562-1.882,1.144-2.802,1.63c-0.922,0.479-1.807,0.94-2.653,1.38c-1.671,0.917-3.27,1.568-4.644,2.2
						c-0.692,0.305-1.329,0.606-1.928,0.851c-0.602,0.228-1.155,0.438-1.657,0.628c-0.963,0.357-1.729,0.641-2.298,0.852
						c-0.527,0.189-0.807,0.28-0.813,0.263c-0.006-0.017,0.262-0.141,0.776-0.362c0.559-0.233,1.312-0.547,2.259-0.942
						c0.496-0.203,1.042-0.426,1.636-0.668c0.592-0.258,1.221-0.571,1.905-0.888c1.359-0.655,2.941-1.327,4.595-2.261
						c0.838-0.448,1.714-0.917,2.626-1.404c0.911-0.493,1.815-1.082,2.775-1.649c1.938-1.109,3.887-2.484,5.966-3.886
						c4.073-2.926,8.367-6.403,12.522-10.439c4.114-4.074,7.674-8.298,10.679-12.312c1.443-2.051,2.856-3.972,4.002-5.888
						c0.586-0.949,1.192-1.841,1.703-2.742c0.506-0.903,0.991-1.77,1.456-2.599c0.967-1.635,1.67-3.204,2.351-4.55
						c0.33-0.678,0.656-1.301,0.925-1.888c0.254-0.589,0.488-1.131,0.7-1.623c0.413-0.939,0.742-1.686,0.986-2.24
						C170.776,373.6,170.905,373.335,170.922,373.342z"/>
				</g>
			</g>
		</g>
		<g style="opacity:0.3;">
			<g>
				<g>
					<path d="M166.859,382.04c-6.721,8.177-13.759,14.114-23.632,17.929c-4.726,1.826-9.68,3.072-14.259,5.238
						c-4.58,2.166-8.892,5.442-10.947,10.072c-1.589,3.579-0.817,8.968,3.015,9.777c1.455,0.307,2.951-0.162,4.349-0.668
						C144.932,417.302,157.777,399.427,166.859,382.04"/>
				</g>
			</g>
		</g>
	</g>
	<g>
		<g>
			<g>
				<g>
					<path style="fill:#263238;" d="M96.933,204.079c-4.22,3.313-4.504,9.501-4.294,14.863c0.21,5.361,0.273,11.457-3.612,15.158
						c-3.201,3.05-8.801,4.183-9.722,8.508c-0.43,2.018,0.532,4.257,2.29,5.335c1.759,1.078,4.191,0.918,5.794-0.38
						c-1.357,3.384-0.741,7.731,2.145,9.96c2.886,2.228,7.946,1.187,9.042-2.29c-0.676,2.304,0.906,5.012,3.245,5.555
						c2.339,0.543,4.952-1.192,5.36-3.558"/>
				</g>
			</g>
			<g>
				<g>
					<path style="fill:#263238;" d="M158.174,242.893c0.88,2.708,4.202,4.331,6.88,3.361c2.678-0.97,4.189-4.345,3.129-6.988
						c-0.831-2.074-2.955-3.645-3.058-5.877c-0.124-2.703,2.71-4.487,5.202-5.542c2.492-1.055,5.413-2.442,5.806-5.119
						c0.38-2.584-1.845-4.716-3.707-6.547c-1.862-1.831-3.648-4.609-2.337-6.867c0.671-1.155,1.981-1.776,2.857-2.785
						c1.939-2.234,1.162-5.977-1.077-7.911c-2.238-1.934-5.451-2.344-8.384-1.961c-2.933,0.382-5.726,1.455-8.598,2.161
						c-9.473,2.327-19.899,0.446-27.962-5.044"/>
				</g>
			</g>
			<g>
				<g>
					<g>
						<g>
							<g>
								<g>
									<g>
										<g>
											<g>
												<g>
													<g>
														<g>
															<g>
																<path style="fill:#B78876;" d="M99.795,224.699l10.295,59.641c1.811,10.49,11.812,17.502,22.291,15.629l0,0
																	c9.791-1.75,16.623-10.695,15.741-20.603c-0.471-5.287-0.875-9.667-0.875-9.667s14.94-3.838,13.649-19.023
																	c-0.624-7.338-3.14-22.349-5.573-35.902c-2.613-14.555-15.983-24.654-30.701-23.219l-1.463,0.143
																	C107.468,194.158,96.902,209.082,99.795,224.699z"/>
															</g>
														</g>
													</g>
												</g>
											</g>
										</g>
									</g>
								</g>
							</g>
						</g>
					</g>
				</g>
				<g>
					<g>
						<g>
							<g>
								<g>
									<g>
										<g>
											<g>
												<g>
													<g>
														<g>
															<g>
																<g>
																	<g>
																		<g>
																			<path style="fill:#263238;" d="M152.134,224.613c0.152,1.14-0.688,2.208-1.876,2.389
																				c-1.185,0.18-2.271-0.595-2.423-1.735c-0.152-1.14,0.688-2.21,1.873-2.39
																				C150.896,222.696,151.982,223.473,152.134,224.613z"/>
																		</g>
																	</g>
																</g>
															</g>
														</g>
													</g>
												</g>
											</g>
										</g>
										<g>
											<g>
												<g>
													<g>
														<g>
															<g>
																<g>
																	<g>
																		<g>
																			<g>
																				<path style="fill:#263238;" d="M152.79,222.536c-0.241,0.308-2-0.746-4.331-0.512
																					c-2.331,0.2-3.924,1.565-4.205,1.305c-0.137-0.114,0.087-0.651,0.779-1.266c0.681-0.612,1.88-1.259,3.333-1.394
																					c1.453-0.134,2.726,0.282,3.481,0.76C152.617,221.91,152.91,222.397,152.79,222.536z"/>
																			</g>
																		</g>
																	</g>
																</g>
															</g>
														</g>
													</g>
												</g>
											</g>
										</g>
									</g>
									<g>
										<g>
											<g>
												<g>
													<g>
														<g>
															<g>
																<g>
																	<g>
																		<g>
																			<path style="fill:#263238;" d="M129.33,227.275c0.152,1.14-0.688,2.208-1.875,2.389
																				c-1.185,0.18-2.271-0.595-2.423-1.735c-0.152-1.14,0.688-2.21,1.873-2.39
																				C128.092,225.358,129.178,226.135,129.33,227.275z"/>
																		</g>
																	</g>
																</g>
															</g>
														</g>
													</g>
												</g>
											</g>
										</g>
										<g>
											<g>
												<g>
													<g>
														<g>
															<g>
																<g>
																	<g>
																		<g>
																			<g>
																				<path style="fill:#263238;" d="M129.922,225.204c-0.242,0.309-2.003-0.745-4.331-0.512
																					c-2.331,0.2-3.925,1.565-4.206,1.304c-0.136-0.114,0.085-0.65,0.78-1.265c0.681-0.612,1.88-1.259,3.332-1.394
																					c1.453-0.133,2.726,0.282,3.482,0.76C129.747,224.578,130.041,225.065,129.922,225.204z"/>
																			</g>
																		</g>
																	</g>
																</g>
															</g>
														</g>
													</g>
												</g>
											</g>
										</g>
									</g>
									<g>
										<g>
											<g>
												<g>
													<g>
														<g>
															<g>
																<g>
																	<g>
																		<g>
																			<path style="fill:#263238;" d="M140.065,241.665c-0.024-0.132,1.401-0.523,3.719-1.052
																				c0.589-0.119,1.141-0.292,1.202-0.709c0.098-0.444-0.213-1.061-0.569-1.725c-0.7-1.386-1.433-2.838-2.202-4.36
																				c-3.073-6.214-5.36-11.348-5.109-11.469c0.251-0.121,2.947,4.817,6.02,11.032
																				c0.743,1.534,1.454,2.995,2.13,4.395c0.291,0.654,0.753,1.384,0.536,2.306c-0.117,0.46-0.522,0.826-0.894,0.966
																				c-0.37,0.154-0.705,0.193-0.997,0.239C141.552,241.643,140.087,241.797,140.065,241.665z"/>
																		</g>
																	</g>
																</g>
															</g>
														</g>
													</g>
												</g>
											</g>
										</g>
									</g>
								</g>
							</g>
						</g>
						<g>
							<g>
								<g>
									<g>
										<g>
											<g>
												<g>
													<g>
														<g>
															<path style="fill:#263238;" d="M129.633,216.012c-0.168,0.656-2.525,0.583-5.227,1.179
																c-2.715,0.542-4.842,1.557-5.26,1.024c-0.188-0.256,0.138-0.89,0.97-1.59c0.824-0.699,2.177-1.418,3.801-1.761
																c1.624-0.339,3.153-0.225,4.188,0.083C129.149,215.252,129.702,215.701,129.633,216.012z"/>
														</g>
													</g>
												</g>
											</g>
										</g>
									</g>
								</g>
							</g>
						</g>
						<g>
							<g>
								<g>
									<g>
										<g>
											<g>
												<g>
													<g>
														<g>
															<path style="fill:#263238;" d="M151.275,215.874c-0.358,0.569-2.017,0.176-3.951,0.339
																c-1.939,0.094-3.531,0.703-3.961,0.186c-0.191-0.253,0.015-0.808,0.68-1.379c0.655-0.568,1.793-1.091,3.123-1.18
																c1.331-0.087,2.527,0.28,3.252,0.757C151.154,215.075,151.431,215.598,151.275,215.874z"/>
														</g>
													</g>
												</g>
											</g>
										</g>
									</g>
								</g>
							</g>
						</g>
					</g>
				</g>
				<g>
					<g>
						<g>
							<path style="fill:#263238;" d="M114.642,206.462c-0.026,0.025-0.051,0.049-0.077,0.074c-2.229,2.143-3.557,5.058-3.683,8.147
								c-0.004,0.109-0.008,0.212-0.012,0.31c-0.172,4.384,0.365,8.775,0.151,13.156c-0.214,4.382-1.282,8.923-4.187,12.211
								c-1.195,1.353-3.436,2.422-4.656,1.092c-0.472-0.514-0.612-1.242-0.733-1.93c-1.827-10.367-5.583-19.356-6.628-30.281
								c-0.285-2.973,0.843-5.9,3.09-7.867c2.128-1.862,4.754-3.834,7.412-2.878c2.666,0.958,6.415,5.393,8.582,7.217"/>
						</g>
					</g>
				</g>
				<g>
					<g>
						<g>
							<g>
								<g>
									<g>
										<g>
											<g>
												<g>
													<g>
														<path style="fill:#B78876;" d="M105.578,231.063c-0.27-0.087-10.722-2.066-9.38,8.27
															c1.342,10.337,11.443,6.858,11.423,6.559C107.6,245.593,105.578,231.063,105.578,231.063z"/>
													</g>
												</g>
											</g>
										</g>
									</g>
								</g>
							</g>
						</g>
					</g>
					<g>
						<g>
							<g>
								<g>
									<g>
										<g>
											<g>
												<g>
													<g>
														<g>
															<path style="fill:#7C5142;" d="M103.954,242.386c-0.05-0.027-0.164,0.149-0.45,0.329
																c-0.279,0.174-0.777,0.334-1.342,0.202c-1.144-0.259-2.289-1.873-2.581-3.73c-0.149-0.937-0.068-1.859,0.169-2.643
																c0.217-0.798,0.638-1.389,1.175-1.558c0.531-0.198,0.963,0.081,1.127,0.355c0.176,0.271,0.137,0.486,0.194,0.496
																c0.033,0.022,0.2-0.202,0.061-0.618c-0.069-0.199-0.222-0.428-0.491-0.595c-0.274-0.169-0.652-0.225-1.03-0.134
																c-0.79,0.159-1.412,0.985-1.673,1.847c-0.304,0.871-0.417,1.909-0.25,2.962c0.337,2.074,1.656,3.885,3.206,4.123
																c0.752,0.095,1.33-0.203,1.612-0.488C103.968,242.638,103.993,242.4,103.954,242.386z"/>
														</g>
													</g>
												</g>
											</g>
										</g>
									</g>
								</g>
							</g>
						</g>
					</g>
				</g>
				<g>
					<g>
						<g>
							<path style="fill:#263238;" d="M105.125,200.136c-2.957-3.899,3.457-10.538,8.418-12.65
								c4.961-2.112,11.945-0.275,17.203,0.918c3.317,0.753,6.665,1.927,10.034,1.458c2.259-0.315,4.343-1.35,6.41-2.316
								c2.067-0.965,4.226-1.89,6.506-1.956c2.28-0.066,4.73,0.911,5.794,2.929c1.064,2.018,0.113,5.017-2.105,5.549
								c2.716-1.857,7.07-0.189,7.852,3.007c0.782,3.196-2.307,6.685-5.574,6.298c1.366-1.261,3.806,0.365,3.804,2.223
								c-0.002,1.859-1.541,3.361-3.163,4.271c-4.139,2.32-9.24,2.206-13.863,1.136c-4.623-1.07-9.002-3.012-13.597-4.197
								c-4.595-1.185-12.31-3.363-16.611-1.358c-3.167,1.476-5.064,5.648-7,4.957c-1.872-0.668-3.189-2.432-3.736-4.343
								C104.949,204.148,105.035,202.121,105.125,200.136"/>
						</g>
					</g>
				</g>
			</g>
		</g>
		<g>
			<g>
				<path style="fill:#263238;" d="M105.705,232.835c0.298,5.479,0.602,10.994,1.88,16.331c1.278,5.337,3.6,10.542,7.447,14.454
					c5.042,5.127,11.562,10.043,18.657,11.211c7.75,1.275,17.23-0.338,23.538-5.017c2.992-2.219,5.17-7.012,4.243-10.62
					c2.547-1.166,4.349-3.811,4.503-6.607c0.154-2.797-1.55-6.295-3.766-6.671c1.667-0.274,2.137-2.912,1.514-4.407
					c-0.65-1.559-2.822-1.939-4.481-1.62c-1.659,0.319-3.106,1.299-4.468,2.298c-1.362,0.999-2.727,2.059-4.333,2.581
					c-5.359,1.743-10.792-2.985-16.423-2.766c-5.091,0.198-9.622,4.424-14.667,3.715c-2.82-0.397-5.246-2.347-6.801-4.732
					c-1.555-2.386-0.878-11.217-1.49-13.998"/>
			</g>
		</g>
		<g>
			<g>
				<g style="opacity:0.6;">
					<g>
						<path style="fill:#455A64;" d="M146.558,256.635c-0.038,0.066-0.483-0.164-1.241-0.372c-0.752-0.211-1.844-0.363-3.011-0.153
							c-1.167,0.211-2.136,0.737-2.767,1.198c-0.637,0.461-0.973,0.832-1.032,0.784c-0.047-0.034,0.199-0.493,0.815-1.052
							c0.607-0.557,1.629-1.18,2.896-1.409c1.267-0.229,2.442-0.004,3.206,0.305C146.2,256.243,146.59,256.587,146.558,256.635z"/>
					</g>
				</g>
			</g>
		</g>
		<g>
			<g>
				<g>
					<g>
						<g>
							<g>
								<g>
									<g>
										<g>
											<g>
												<path style="fill:#FFFFFF;" d="M135.612,245.146c0.377-0.059,0.628,2.471,2.969,4.055
													c2.337,1.591,5.007,1.044,5.061,1.396c0.051,0.155-0.553,0.55-1.688,0.692c-1.113,0.147-2.778-0.053-4.21-1.022
													c-1.428-0.972-2.14-2.387-2.327-3.416C135.216,245.803,135.437,245.148,135.612,245.146z"/>
											</g>
										</g>
									</g>
								</g>
							</g>
						</g>
					</g>
				</g>
			</g>
		</g>
		<g>
			<g>
				<g>
					<path style="fill:#455A64;" d="M128.09,273.136c0.008-0.016,0.234,0.068,0.653,0.241c0.426,0.158,1.056,0.383,1.888,0.611
						c1.657,0.467,4.119,0.966,7.196,1.13c1.536,0.088,3.228,0.08,5.026-0.101c1.801-0.149,3.707-0.515,5.646-1.102
						c1.948-0.564,3.902-1.451,5.762-2.627c1.861-1.167,3.64-2.65,4.988-4.539c1.593-2.234,2.405-5.026,1.976-7.494l-0.037-0.214
						l0.186-0.08c1.277-0.547,2.321-1.519,3.125-2.575c0.399-0.534,0.747-1.097,1.006-1.678c0.256-0.575,0.387-1.198,0.45-1.808
						c0.234-2.47-0.867-4.759-2.407-6.053l-0.143-0.12l0.117-0.146c1.018-1.262,1.083-2.934,0.614-4.114
						c-0.464-1.218-1.459-1.927-2.301-2.253c-0.86-0.339-1.603-0.339-2.084-0.29c-0.486,0.056-0.734,0.145-0.742,0.119
						c0,0,0.232-0.134,0.726-0.227c0.49-0.085,1.261-0.123,2.173,0.201c0.89,0.309,1.976,1.033,2.507,2.339
						c0.528,1.26,0.502,3.051-0.599,4.466l-0.026-0.266c1.653,1.351,2.844,3.749,2.619,6.387c-0.062,0.653-0.195,1.318-0.472,1.954
						c-0.274,0.628-0.635,1.218-1.051,1.781c-0.838,1.111-1.922,2.145-3.319,2.751l0.149-0.293c0.479,2.702-0.388,5.571-2.042,7.914
						c-1.401,1.965-3.238,3.485-5.142,4.671c-1.905,1.196-3.908,2.093-5.895,2.655c-1.979,0.586-3.919,0.94-5.746,1.073
						c-1.825,0.165-3.536,0.151-5.087,0.039c-3.106-0.213-5.578-0.773-7.232-1.303c-0.83-0.26-1.456-0.519-1.871-0.709
						C128.292,273.267,128.082,273.152,128.09,273.136z"/>
				</g>
			</g>
		</g>
		<g>
			<g>
				<g>
					<path style="fill:#455A64;" d="M82.757,246.75c0,0-0.206-0.039-0.527-0.259c-0.319-0.214-0.754-0.633-1.049-1.321
						c-0.284-0.683-0.442-1.623-0.208-2.665c0.222-1.051,0.959-2.098,1.989-2.923c1.036-0.834,2.361-1.451,3.797-1.973
						c1.429-0.533,2.992-1.004,4.421-1.878c1.428-0.864,2.592-2.256,3.333-3.919c0.758-1.66,1.122-3.557,1.177-5.5
						c0.084-3.914-0.821-7.618-0.921-11.074c-0.157-3.436,0.505-6.665,2.074-8.828c1.548-2.169,3.611-3.17,5.042-3.426
						c0.723-0.15,1.3-0.11,1.681-0.085c0.381,0.059,0.577,0.098,0.575,0.116c-0.002,0.07-0.813-0.156-2.213,0.167
						c-1.373,0.307-3.332,1.327-4.782,3.439c-1.464,2.097-2.076,5.221-1.896,8.599c0.12,3.393,1.043,7.094,0.962,11.107
						c-0.056,1.999-0.434,3.965-1.233,5.698c-0.778,1.735-2.027,3.215-3.546,4.117c-1.511,0.906-3.103,1.363-4.525,1.875
						c-1.426,0.498-2.714,1.08-3.716,1.857c-0.996,0.772-1.702,1.733-1.934,2.703c-0.245,0.97-0.127,1.865,0.113,2.521
						C81.904,246.44,82.823,246.695,82.757,246.75z"/>
				</g>
			</g>
		</g>
		<g>
			<g>
				<g>
					<path style="fill:#455A64;" d="M157.725,193.863c-0.005-0.013,0.15-0.085,0.457-0.213c0.152-0.07,0.345-0.142,0.585-0.198
						c0.235-0.073,0.513-0.137,0.835-0.17c1.25-0.191,3.334,0.111,5.094,1.831l0.001,0.001l0.006,0.007
						c1.177,1.477,1.88,3.745,1.546,6.198c-0.28,2.457-1.753,5.011-4.101,6.772c-2.326,1.797-5.428,2.836-8.693,3.019
						c-3.276,0.199-6.689-0.296-10.098-1.11c-5.563-1.342-10.555-3.738-14.651-6.488c-2.067-1.337-4.024-2.612-6.007-3.497
						c-1.971-0.906-3.963-1.357-5.8-1.48c-3.699-0.243-6.649,0.716-8.507,1.581c-1.875,0.885-2.766,1.642-2.802,1.587
						c0,0,0.843-0.816,2.714-1.77c1.854-0.931,4.835-1.966,8.618-1.766c1.875,0.1,3.933,0.545,5.953,1.453
						c2.031,0.886,4.019,2.165,6.09,3.488c4.089,2.711,9.012,5.056,14.516,6.386c3.371,0.806,6.745,1.298,9.943,1.113
						c3.192-0.17,6.189-1.164,8.446-2.881c2.276-1.689,3.696-4.106,3.993-6.459c0.347-2.352-0.296-4.529-1.395-5.962l0.007,0.008
						c-1.635-1.654-3.639-2.014-4.856-1.872C158.365,193.576,157.743,193.921,157.725,193.863z"/>
				</g>
			</g>
		</g>
		<g>
			<g>
				<g>
					<path style="fill:#455A64;" d="M152.427,185.054c0,0,0.069,0.86-0.472,2.289c-0.545,1.403-1.891,3.309-4.273,4.665
						c-1.175,0.684-2.584,1.241-4.172,1.497c-1.581,0.263-3.306,0.253-5.08,0.02c-3.57-0.442-7.261-1.849-11.144-3.058
						c-3.869-1.209-7.786-1.927-11.223-1.185c-3.435,0.705-6.129,2.645-7.888,4.596c-1.784,1.969-2.726,3.959-3.196,5.363
						c-0.462,1.417-0.548,2.249-0.61,2.238c-0.018-0.002,0.002-0.209,0.056-0.602c0.036-0.397,0.169-0.966,0.361-1.698
						c0.417-1.443,1.324-3.5,3.115-5.548c1.766-2.028,4.509-4.061,8.063-4.82c3.559-0.794,7.579-0.06,11.474,1.156
						c3.914,1.221,7.561,2.623,11.055,3.081c1.735,0.241,3.416,0.265,4.949,0.029c1.532-0.229,2.906-0.748,4.057-1.391
						c2.334-1.276,3.679-3.081,4.268-4.424C152.352,185.898,152.36,185.042,152.427,185.054z"/>
				</g>
			</g>
		</g>
	</g>
</g>
<g id="Plant">
	<g>
		<g>
			<g>
				<g>
					<path style="fill:#E8505B;" d="M240.685,382.029c2.829,0.371,5.346,2.167,7.013,4.482c1.668,2.315,2.559,5.11,3.031,7.924
						c0.912,5.444-0.56,11.625-2.579,16.763c-5.55-2.604-8.508-9.072-9.802-12.447C236.301,393.416,235.844,382.532,240.685,382.029
						"/>
				</g>
			</g>
		</g>
		<g>
			<g>
				<g>
					<path style="fill:#E8505B;" d="M256.331,418.859c-1.761-2.657-1.719-6.294-0.214-9.103c1.505-2.81,4.318-4.796,7.386-5.661
						c1.418-0.4,3.057-0.544,4.263,0.303c1.128,0.792,1.587,2.304,1.408,3.67c-0.179,1.366-0.902,2.603-1.746,3.692
						C264.534,415.495,261.047,418.578,256.331,418.859"/>
				</g>
			</g>
		</g>
		<g>
			<g>
				<g>
					<g>
						<path style="fill:#263238;" d="M254.929,436.103c-0.043,0.002-0.107-0.406-0.186-1.146c-0.078-0.74-0.171-1.813-0.245-3.143
							c-0.133-2.649-0.243-6.383,0.634-10.404c0.882-4.025,2.833-7.353,4.729-9.266c0.939-0.967,1.814-1.629,2.456-2.017
							c0.641-0.391,1.024-0.553,1.041-0.522c0.071,0.104-1.427,0.869-3.176,2.836c-1.761,1.935-3.585,5.182-4.446,9.104
							c-0.858,3.925-0.823,7.612-0.801,10.255C254.979,434.451,255.021,436.098,254.929,436.103z"/>
					</g>
				</g>
			</g>
		</g>
		<g>
			<g>
				<g>
					<g>
						<path style="fill:#263238;" d="M241.976,390.286c0.041-0.013,0.288,0.621,0.7,1.78c0.414,1.159,0.984,2.844,1.666,4.935
							c1.366,4.181,3.158,9.988,4.978,16.447c1.819,6.462,3.322,12.352,4.339,16.63c0.509,2.139,0.903,3.875,1.154,5.079
							c0.253,1.204,0.374,1.874,0.332,1.884c-0.042,0.01-0.241-0.641-0.566-1.827c-0.346-1.293-0.798-2.986-1.345-5.029
							c-1.125-4.249-2.693-10.113-4.51-16.569c-1.819-6.453-3.542-12.273-4.8-16.485c-0.6-2.028-1.098-3.709-1.478-4.992
							C242.105,390.959,241.935,390.3,241.976,390.286z"/>
					</g>
				</g>
			</g>
		</g>
		<g>
			<g>
				<g>
					<path style="fill:#E8505B;" d="M248.939,424.035c-2.707-6.15-8.56-10.813-15.16-12.077c-1.68-0.322-3.753-0.275-4.687,1.158
						c-0.936,1.436-0.135,3.359,0.873,4.745c4.194,5.768,12.109,8.535,18.983,6.638"/>
				</g>
			</g>
		</g>
		<g>
			<g>
				<g>
					<g>
						<path style="fill:#263238;" d="M235.624,416.795c0.007-0.042,0.399,0,1.106,0.113c0.355,0.05,0.786,0.129,1.275,0.271
							c0.49,0.136,1.06,0.259,1.656,0.497c1.218,0.404,2.613,1.049,4.082,1.903c1.45,0.885,2.963,1.997,4.383,3.355
							c1.403,1.376,2.564,2.852,3.495,4.273c0.901,1.441,1.591,2.814,2.034,4.018c0.257,0.588,0.398,1.154,0.55,1.639
							c0.158,0.484,0.251,0.912,0.312,1.265c0.136,0.703,0.19,1.092,0.148,1.101c-0.118,0.027-0.421-1.525-1.415-3.84
							c-0.486-1.161-1.201-2.482-2.106-3.872c-0.936-1.37-2.081-2.798-3.449-4.141c-1.385-1.324-2.849-2.421-4.249-3.312
							c-1.419-0.86-2.762-1.532-3.938-1.98C237.163,417.166,235.601,416.913,235.624,416.795z"/>
					</g>
				</g>
			</g>
		</g>
	</g>
</g>
</svg>
