<?xml version="1.0" encoding="utf-8"?>
<!-- Generator: Adobe Illustrator 27.5.0, SVG Export Plug-In . SVG Version: 6.00 Build 0)  -->
<svg version="1.1" xmlns="http://www.w3.org/2000/svg" xmlns:xlink="http://www.w3.org/1999/xlink" x="0px" y="0px"
	 viewBox="0 0 500 500" style="enable-background:new 0 0 500 500;" xml:space="preserve">
<g id="Background_Complete">
	<g>
		<g>
			<g>
				<g>
					<rect x="170.213" y="51.562" style="fill:#EBEBEB;" width="66.439" height="17.576"/>
				</g>
			</g>
		</g>
		<g>
			<g>
				<g>
					<g>
						<path style="fill:#E0E0E0;" d="M208.558,87.651c-0.007-0.007-0.014-0.115-0.021-0.319c-0.006-0.235-0.013-0.532-0.022-0.902
							c-0.012-0.827-0.029-1.98-0.05-3.459c-0.027-3.034-0.065-7.396-0.114-12.896l0.206,0.206
							c-15.17,0.03-39.295,0.078-66.434,0.133c0.15-0.151-0.342,0.338,0.335-0.338v0.004v0.009v0.018v0.035v0.071v0.141v0.283
							l0,0.565v1.127c0,0.75,0,1.497,0,2.242c0,1.49-0.001,2.969-0.001,4.435c-0.002,2.934-0.004,5.819-0.006,8.645l-0.331-0.331
							c18.919,0.06,35.473,0.113,47.346,0.15c5.914,0.04,10.66,0.072,13.975,0.094c1.612,0.019,2.875,0.033,3.779,0.043
							c0.407,0.009,0.732,0.016,0.988,0.021C208.432,87.637,208.551,87.644,208.558,87.651c0.007,0.007-0.097,0.014-0.308,0.021
							c-0.246,0.005-0.558,0.012-0.948,0.021c-0.887,0.01-2.125,0.025-3.707,0.044c-3.297,0.022-8.017,0.054-13.899,0.094
							c-11.931,0.038-28.566,0.09-47.577,0.15l-0.331,0.001l0-0.332c-0.002-2.826-0.004-5.712-0.006-8.645
							c0-1.467-0.001-2.946-0.001-4.435c0-0.745,0-1.492,0-2.242l0-1.127v-0.565v-0.283v-0.141v-0.071v-0.035v-0.018V70.08v-0.004
							c0.677-0.677,0.19-0.188,0.343-0.339c27.139,0.054,51.265,0.102,66.434,0.133l0.208,0l-0.002,0.206
							c-0.049,5.552-0.087,9.955-0.114,13.019c-0.021,1.459-0.038,2.597-0.05,3.413c-0.009,0.355-0.016,0.64-0.022,0.865
							C208.571,87.564,208.565,87.658,208.558,87.651z"/>
					</g>
				</g>
			</g>
		</g>
	</g>
	<g>
		<g>
			<g>
				<g>
					<g>
						<g>
							<g>
								<g>
									<g>
										<g>
											<rect x="41.861" y="24.628" style="fill:#E0E0E0;" width="115.225" height="120.112"/>
										</g>
									</g>
								</g>
							</g>
						</g>
					</g>
				</g>
			</g>
		</g>
		<g>
			<g>
				<g>
					<g>
						<g>
							<g>
								<g>
									<g>
										<g>
											<rect x="34.058" y="24.628" style="fill:#FAFAFA;" width="115.224" height="120.112"/>
										</g>
									</g>
								</g>
							</g>
						</g>
					</g>
				</g>
			</g>
			<g>
				<g>
					<g>
						<g>
							<g>
								<g>
									<g>
										<g>
											<path style="fill:#E0E0E0;" d="M149.318,144.776H34.022V24.592h115.296V144.776z M34.094,144.704h115.153V24.664H34.094
												V144.704z"/>
										</g>
									</g>
								</g>
							</g>
						</g>
					</g>
				</g>
			</g>
		</g>
		<g>
			<g>
				<g>
					<g>
						<g>
							<g>
								<g>
									<g>
										<g>
											<rect x="49.547" y="40.775" style="fill:#FFFFFF;" width="84.246" height="87.819"/>
										</g>
									</g>
								</g>
							</g>
						</g>
					</g>
				</g>
			</g>
		</g>
		<g>
			<g>
				<g>
					<g>
						<g>
							<g>
								<g>
									<g>
										<g>
											<g>
												<path style="fill:#E0E0E0;" d="M49.547,129.178c0.066,0.079-0.734,0.997-2.079,2.417
													c-1.345,1.42-3.236,3.341-5.355,5.429c-2.12,2.088-4.068,3.948-5.504,5.268c-1.437,1.32-2.362,2.101-2.435,2.028
													c-0.073-0.073,0.722-0.987,2.068-2.407c1.345-1.42,3.241-3.346,5.367-5.439c2.125-2.094,4.077-3.958,5.514-5.278
													C48.56,129.875,49.481,129.099,49.547,129.178z"/>
											</g>
										</g>
									</g>
								</g>
							</g>
						</g>
					</g>
				</g>
			</g>
		</g>
		<g>
			<g>
				<g>
					<g>
						<g>
							<g>
								<g>
									<g>
										<g>
											<g>
												<path style="fill:#E0E0E0;" d="M133.793,128.962c0.079-0.066,0.997,0.734,2.417,2.079
													c1.42,1.346,3.341,3.236,5.429,5.355c2.088,2.12,3.948,4.068,5.268,5.504c1.32,1.437,2.101,2.362,2.028,2.435
													c-0.073,0.073-0.987-0.722-2.407-2.067c-1.419-1.346-3.346-3.242-5.44-5.367c-2.093-2.125-3.957-4.078-5.278-5.514
													C134.491,129.949,133.715,129.028,133.793,128.962z"/>
											</g>
										</g>
									</g>
								</g>
							</g>
						</g>
					</g>
				</g>
			</g>
		</g>
		<g>
			<g>
				<g>
					<g>
						<g>
							<g>
								<g>
									<g>
										<g>
											<g>
												<path style="fill:#E0E0E0;" d="M133.563,41.009c-0.066-0.079,0.734-0.997,2.079-2.417
													c1.345-1.42,3.236-3.341,5.355-5.429c2.119-2.088,4.067-3.948,5.504-5.269c1.437-1.32,2.362-2.101,2.435-2.028
													c0.072,0.073-0.723,0.987-2.068,2.407c-1.345,1.42-3.241,3.346-5.367,5.44c-2.125,2.094-4.077,3.957-5.514,5.278
													C134.55,40.311,133.629,41.088,133.563,41.009z"/>
											</g>
										</g>
									</g>
								</g>
							</g>
						</g>
					</g>
				</g>
			</g>
		</g>
		<g>
			<g>
				<g>
					<g>
						<g>
							<g>
								<g>
									<g>
										<g>
											<g>
												<path style="fill:#E0E0E0;" d="M49.317,41.224c-0.079,0.066-0.997-0.733-2.417-2.079
													c-1.42-1.345-3.341-3.236-5.429-5.355c-2.088-2.12-3.948-4.067-5.268-5.504c-1.321-1.437-2.101-2.362-2.028-2.435
													c0.073-0.073,0.987,0.722,2.407,2.067c1.42,1.345,3.346,3.241,5.44,5.367c2.094,2.125,3.958,4.078,5.278,5.514
													C48.619,40.237,49.396,41.158,49.317,41.224z"/>
											</g>
										</g>
									</g>
								</g>
							</g>
						</g>
					</g>
				</g>
			</g>
		</g>
		<g>
			<g>
				<g>
					<g>
						<g>
							<g>
								<g>
									<g>
										<g>
											<g>
												<path style="fill:#E0E0E0;" d="M133.563,128.593c-0.006-0.006-0.012-0.15-0.018-0.427
													c-0.005-0.299-0.011-0.703-0.019-1.226c-0.009-1.101-0.021-2.685-0.038-4.741c-0.02-4.16-0.049-10.213-0.085-17.898
													c-0.04-15.381-0.097-37.292-0.165-63.528l0.325,0.325c-24.525,0.014-53.327,0.03-84.007,0.048h-0.008l0.373-0.373
													c-0.019,32.233-0.038,62.388-0.053,87.819l-0.32-0.32c25.175,0.068,46.136,0.124,60.832,0.163
													c7.342,0.036,13.118,0.064,17.087,0.083c1.96,0.016,3.47,0.029,4.521,0.037c0.497,0.008,0.882,0.014,1.168,0.018
													C133.42,128.582,133.557,128.587,133.563,128.593c0.006,0.006-0.119,0.012-0.371,0.018
													c-0.278,0.005-0.651,0.01-1.134,0.018c-1.037,0.008-2.525,0.021-4.459,0.037c-3.952,0.019-9.703,0.048-17.015,0.084
													c-14.745,0.039-35.776,0.096-61.036,0.164l-0.32,0.001l0-0.322c-0.015-25.431-0.034-55.586-0.053-87.819l0-0.373h0.373
													h0.008c30.68,0.017,59.482,0.034,84.007,0.048h0.326l-0.001,0.325c-0.069,26.322-0.125,48.305-0.165,63.736
													c-0.037,7.654-0.066,13.682-0.086,17.825c-0.016,2.029-0.029,3.591-0.038,4.678c-0.008,0.508-0.014,0.899-0.018,1.19
													C133.575,128.469,133.569,128.6,133.563,128.593z"/>
											</g>
										</g>
									</g>
								</g>
							</g>
						</g>
					</g>
				</g>
			</g>
		</g>
		<g>
			<g>
				<g>
					<g>
						<g>
							<g>
								<g>
									<g>
										<g>
											<rect x="77.614" y="70.628" style="fill:#EBEBEB;" width="28.112" height="28.111"/>
										</g>
									</g>
								</g>
							</g>
						</g>
					</g>
				</g>
			</g>
		</g>
	</g>
	<g>
		<path style="fill:#E0E0E0;" d="M68.23,168.42l17.462-3.978l4.897,35.052l-11.667,2.658L68.23,168.42z M82.567,220.299
			c-2.006-1.194-3.267-2.925-3.784-5.192c-0.528-2.318-0.139-4.412,1.17-6.281c1.308-1.869,3.249-3.098,5.826-3.685
			c2.575-0.587,4.844-0.317,6.807,0.807c1.963,1.124,3.209,2.845,3.737,5.164c0.517,2.267,0.129,4.374-1.162,6.319
			c-1.291,1.948-3.199,3.209-5.721,3.783C86.863,221.8,84.573,221.496,82.567,220.299z"/>
	</g>
	<g>
		<path style="fill:#E0E0E0;" d="M33.666,174.485c1.718,0.058,3.144,0.727,4.281,2.004c1.163,1.307,1.655,2.795,1.475,4.465
			c-0.18,1.669-0.996,3.149-2.448,4.441c-1.452,1.292-3.01,1.924-4.674,1.896c-1.664-0.029-3.079-0.697-4.241-2.004
			c-1.137-1.277-1.634-2.773-1.493-4.484c0.141-1.714,0.924-3.203,2.346-4.469C30.364,175.042,31.948,174.425,33.666,174.485z
			 M61.316,202.839l-9.845,8.76l-15.594-20.857l6.578-5.853L61.316,202.839z"/>
	</g>
	<g>
		<g>
			<g>
				<g>
					<rect x="394.538" y="276.352" style="fill:#EBEBEB;" width="66.439" height="17.576"/>
				</g>
			</g>
		</g>
		<g>
			<g>
				<g>
					<g>
						<path style="fill:#E0E0E0;" d="M432.883,312.441c-0.007-0.007-0.014-0.115-0.021-0.319c-0.006-0.235-0.013-0.532-0.022-0.902
							c-0.012-0.827-0.029-1.98-0.05-3.459c-0.027-3.034-0.065-7.396-0.114-12.896l0.206,0.206
							c-15.17,0.03-39.295,0.078-66.435,0.133c0.15-0.151-0.341,0.338,0.335-0.338v0.004v0.009v0.018v0.035v0.071v0.141v0.283
							l0,0.565v1.127c0,0.75,0,1.497,0,2.242c0,1.49-0.001,2.969-0.001,4.435c-0.002,2.934-0.004,5.819-0.006,8.645l-0.331-0.331
							c18.919,0.06,35.473,0.113,47.346,0.15c5.914,0.04,10.66,0.072,13.975,0.094c1.612,0.019,2.875,0.033,3.779,0.043
							c0.407,0.009,0.732,0.016,0.988,0.021C432.758,312.427,432.876,312.434,432.883,312.441c0.007,0.007-0.097,0.014-0.308,0.021
							c-0.246,0.005-0.558,0.013-0.948,0.021c-0.887,0.01-2.125,0.025-3.707,0.044c-3.297,0.022-8.017,0.055-13.899,0.094
							c-11.931,0.038-28.566,0.09-47.577,0.151l-0.331,0.001l0-0.332c-0.002-2.826-0.004-5.712-0.006-8.645
							c0-1.467-0.001-2.946-0.001-4.435c0-0.745,0-1.492,0-2.242l0-1.127v-0.565v-0.283v-0.141v-0.071v-0.035v-0.018v-0.009v-0.004
							c0.677-0.677,0.19-0.188,0.343-0.339c27.139,0.054,51.265,0.102,66.435,0.133l0.208,0l-0.002,0.206
							c-0.049,5.552-0.087,9.956-0.114,13.019c-0.021,1.459-0.038,2.597-0.05,3.413c-0.009,0.355-0.016,0.64-0.022,0.865
							C432.897,312.354,432.89,312.448,432.883,312.441z"/>
					</g>
				</g>
			</g>
		</g>
	</g>
	<g>
		<g>
			<g>
				<g>
					<g>
						<path style="fill:#E0E0E0;" d="M409.108,64.867c-0.007-0.007-0.014-0.115-0.021-0.319c-0.006-0.235-0.013-0.532-0.022-0.902
							c-0.012-0.827-0.029-1.98-0.05-3.459c-0.027-3.034-0.065-7.396-0.114-12.896l0.206,0.206
							c-15.17,0.03-39.295,0.078-66.434,0.133c0.15-0.151-0.342,0.338,0.335-0.338v0.004v0.009v0.018v0.035v0.071v0.141l0,0.283
							v0.565v1.127c0,0.75,0,1.498,0,2.242c-0.001,1.49-0.001,2.969-0.002,4.436c-0.002,2.933-0.004,5.819-0.006,8.645l-0.331-0.331
							c18.919,0.06,35.473,0.113,47.346,0.15c5.914,0.04,10.66,0.072,13.975,0.094c1.612,0.019,2.875,0.033,3.779,0.044
							c0.407,0.009,0.732,0.016,0.988,0.021C408.982,64.853,409.101,64.86,409.108,64.867c0.007,0.007-0.097,0.014-0.307,0.021
							c-0.246,0.005-0.558,0.012-0.948,0.021c-0.887,0.01-2.126,0.025-3.707,0.043c-3.297,0.022-8.017,0.054-13.899,0.094
							c-11.931,0.038-28.566,0.09-47.577,0.151l-0.331,0.001l0-0.332c-0.002-2.826-0.004-5.712-0.006-8.645
							c0-1.467-0.001-2.946-0.001-4.436c0-0.745,0-1.492,0-2.242l0-1.127v-0.565V47.57v-0.141v-0.071v-0.035v-0.018v-0.009v-0.004
							c0.677-0.677,0.19-0.188,0.343-0.339c27.139,0.054,51.265,0.102,66.434,0.133l0.208,0l-0.002,0.206
							c-0.049,5.552-0.087,9.956-0.114,13.019c-0.021,1.459-0.038,2.597-0.05,3.413c-0.009,0.355-0.016,0.64-0.022,0.866
							C409.121,64.78,409.115,64.874,409.108,64.867z"/>
					</g>
				</g>
			</g>
		</g>
		<g>
			<g>
				<g>
					<g>
						<path style="fill:#E0E0E0;" d="M418.116,47.291c-0.008-0.008-0.017-0.122-0.025-0.334c-0.007-0.252-0.016-0.558-0.026-0.931
							c-0.015-0.865-0.035-2.041-0.061-3.524c-0.032-3.082-0.076-7.434-0.131-12.786l0.243,0.243
							c-10.341,0.025-24.41,0.058-39.916,0.095c-0.304,0.302,0.409-0.413,0.336-0.337v0.005v0.009v0.018v0.036v0.072v0.145l0,0.289
							v0.577l0,1.149c0,0.764-0.001,1.524-0.001,2.279c-0.001,1.511-0.002,3.003-0.003,4.474c-0.004,2.94-0.008,5.791-0.012,8.522
							l-0.322-0.322c11.524,0.062,21.445,0.115,28.556,0.153c3.507,0.038,6.318,0.068,8.318,0.089
							c0.934,0.017,1.678,0.03,2.243,0.04C417.829,47.265,418.103,47.278,418.116,47.291c0.013,0.013-0.235,0.026-0.725,0.04
							c-0.548,0.01-1.27,0.024-2.176,0.041c-1.983,0.021-4.769,0.051-8.245,0.089c-7.165,0.038-17.161,0.091-28.773,0.153
							l-0.322,0.002l-0.001-0.324c-0.004-2.731-0.008-5.582-0.012-8.522c-0.001-1.47-0.002-2.963-0.003-4.474
							c0-0.755,0-1.515-0.001-2.279l0-1.149V30.29v-0.289v-0.145v-0.072v-0.036V29.73v-0.009v-0.005
							c-0.074,0.071,0.642-0.643,0.341-0.34c15.506,0.037,29.574,0.071,39.916,0.095l0.246,0.001l-0.003,0.243
							c-0.055,5.414-0.099,9.817-0.131,12.934c-0.026,1.461-0.046,2.618-0.061,3.47C418.149,46.905,418.133,47.308,418.116,47.291z"
							/>
					</g>
				</g>
			</g>
		</g>
	</g>
	<g>
		<g>
			<g>
				<g>
					<g>
						<path style="fill:#E0E0E0;" d="M314.392,410.339c-0.007-0.007-0.014-0.115-0.021-0.319c-0.006-0.236-0.013-0.532-0.022-0.902
							c-0.012-0.827-0.029-1.98-0.05-3.459c-0.027-3.034-0.065-7.396-0.114-12.896l0.206,0.206
							c-15.17,0.03-39.295,0.078-66.434,0.133c0.15-0.151-0.342,0.338,0.334-0.338v0.004v0.009v0.018v0.035v0.071v0.141l0,0.283
							v0.565v1.127c0,0.75,0,1.497,0,2.242c-0.001,1.49-0.001,2.969-0.002,4.436c-0.002,2.933-0.004,5.819-0.006,8.645l-0.331-0.331
							c18.919,0.06,35.473,0.113,47.346,0.15c5.914,0.04,10.66,0.072,13.975,0.095c1.613,0.018,2.875,0.033,3.779,0.043
							c0.407,0.009,0.732,0.016,0.988,0.021C314.266,410.325,314.385,410.332,314.392,410.339c0.007,0.007-0.097,0.014-0.307,0.021
							c-0.246,0.006-0.558,0.013-0.948,0.021c-0.887,0.01-2.126,0.025-3.708,0.043c-3.297,0.022-8.017,0.055-13.899,0.094
							c-11.931,0.038-28.566,0.09-47.577,0.151l-0.331,0.001l0-0.332c-0.002-2.826-0.003-5.712-0.006-8.645
							c0-1.467-0.001-2.946-0.001-4.436c0-0.745,0-1.492,0-2.242l0-1.127v-0.565v-0.283v-0.141v-0.071v-0.035v-0.018v-0.009v-0.004
							c0.677-0.677,0.19-0.188,0.343-0.339c27.139,0.054,51.265,0.102,66.434,0.133l0.208,0l-0.002,0.206
							c-0.049,5.552-0.087,9.956-0.114,13.019c-0.021,1.459-0.038,2.597-0.05,3.413c-0.009,0.355-0.016,0.64-0.022,0.866
							C314.405,410.252,314.399,410.346,314.392,410.339z"/>
					</g>
				</g>
			</g>
		</g>
		<g>
			<g>
				<g>
					<g>
						<path style="fill:#E0E0E0;" d="M323.4,392.763c-0.008-0.008-0.017-0.122-0.025-0.335c-0.007-0.252-0.016-0.558-0.026-0.931
							c-0.015-0.865-0.035-2.041-0.061-3.524c-0.032-3.082-0.076-7.434-0.131-12.786l0.243,0.243
							c-10.341,0.025-24.41,0.058-39.916,0.095c-0.304,0.302,0.409-0.413,0.336-0.337v0.005v0.009v0.018v0.036v0.072v0.145l0,0.289
							v0.577l0,1.149c0,0.764-0.001,1.524-0.001,2.279c-0.001,1.511-0.002,3.003-0.003,4.474c-0.004,2.94-0.008,5.791-0.012,8.522
							l-0.322-0.322c11.524,0.062,21.445,0.115,28.556,0.153c3.507,0.038,6.318,0.068,8.318,0.089
							c0.934,0.017,1.678,0.03,2.243,0.04C323.113,392.737,323.387,392.75,323.4,392.763c0.013,0.013-0.235,0.026-0.725,0.04
							c-0.548,0.01-1.27,0.024-2.176,0.04c-1.983,0.021-4.769,0.051-8.245,0.089c-7.165,0.038-17.161,0.091-28.773,0.153
							l-0.322,0.002l-0.001-0.324c-0.004-2.731-0.008-5.582-0.012-8.522c-0.001-1.471-0.002-2.963-0.003-4.474
							c0-0.755,0-1.515-0.001-2.279l0-1.149v-0.577v-0.289v-0.145v-0.072v-0.036v-0.018v-0.009v-0.005
							c-0.074,0.071,0.642-0.643,0.341-0.34c15.506,0.037,29.574,0.071,39.916,0.095l0.246,0.001l-0.003,0.243
							c-0.055,5.414-0.099,9.817-0.131,12.934c-0.026,1.461-0.046,2.618-0.061,3.47C323.433,392.377,323.417,392.78,323.4,392.763z"
							/>
					</g>
				</g>
			</g>
		</g>
	</g>
</g>
<g id="Background_Simple" style="display:none;">
	<g style="display:inline;">
		
			<ellipse transform="matrix(0.2413 -0.9704 0.9704 0.2413 -5.0461 145.1267)" style="fill:#F5F5F5;" cx="90.296" cy="75.791" rx="36.463" ry="36.463"/>
	</g>
	<g style="display:inline;">
		<path style="fill:#F5F5F5;" d="M399.122,96.77l-1.991-3.28c-16.781-27.653-47.121-44.322-79.108-42.3
			c-4.112,0.26-8.206,0.817-12.246,1.681c-29.084,6.225-54.39,28.219-64.879,56.386c-6.169,16.566-7.893,35.639-19.599,48.788
			c-15.236,17.113-41.102,17.65-63.844,16.941s-48.625-0.104-63.787,17.076c-9.495,10.76-12.513,26.061-11.747,40.47
			c2.027,38.15,28.61,72.261,62.417,89.216c33.807,16.955,73.611,18.474,110.611,11.015
			c51.832-10.448,101.124-39.142,130.753-83.461C415.329,204.984,422.828,144.604,399.122,96.77z"/>
	</g>
	<g style="display:inline;">
		
			<ellipse transform="matrix(0.1615 -0.9869 0.9869 0.1615 38.7711 681.2904)" style="fill:#F5F5F5;" cx="420.317" cy="317.829" rx="26.631" ry="26.632"/>
	</g>
</g>
<g id="Desk">
	<g>
		<g>
			<path style="fill:#263238;" d="M448.078,469.548c0,0.144-88.69,0.26-198.069,0.26c-109.417,0-198.087-0.117-198.087-0.26
				c0-0.144,88.671-0.26,198.087-0.26C359.388,469.288,448.078,469.405,448.078,469.548z"/>
		</g>
	</g>
</g>
<g id="Plant">
	<g>
		<g>
			<g>
				<g>
					<g>
						<g>
							<g>
								<path style="fill:#FF725E;" d="M411.501,355.207c-0.472,1.174-0.677,2.454-0.595,3.717
									c-0.297-1.491-0.873-2.927-1.688-4.211c-0.304-0.479-0.788-0.996-1.338-0.856c-0.553,0.141-0.729,0.834-0.749,1.404
									c-0.055,1.564,0.303,3.14,1.028,4.526c-1.01-1.28-2.337-2.309-3.83-2.967c-0.265-0.117-0.584-0.219-0.83-0.066
									c-0.287,0.179-0.295,0.59-0.247,0.924c0.376,2.631,2.238,4.997,4.706,5.982l0.809,0.118
									c1.725-0.475,3.257-1.618,4.204-3.135c0.948-1.518,1.302-3.396,0.971-5.154c-0.126-0.67-0.507-1.45-1.188-1.462
									C412.144,354.018,411.729,354.64,411.501,355.207z"/>
							</g>
						</g>
					</g>
				</g>
			</g>
		</g>
		<g>
			<g>
				<g>
					<g>
						<g>
							<g>
								<g>
									<g>
										<path style="fill:#455A64;" d="M393.321,391.519c1.882-1.359,5.421-2.657,7.706-3.106
											c-1.616-5.518-1.711-11.477-0.218-17.031c0.59-2.196,1.441-4.365,2.876-6.129c1.435-1.764,3.518-3.091,5.788-3.231
											c2.449-0.151,4.794,1.119,6.43,2.978l2.844,6.578c0.164,0.958,0.288,1.924,0.341,2.89
											c0.352,6.359-1.109,12.805-4.153,18.398c2.965,3.269,6.173,8.902,5.206,15.431h-33.772
											C385.78,402.034,388.165,395.241,393.321,391.519z"/>
									</g>
								</g>
							</g>
						</g>
					</g>
				</g>
				<g>
					<g>
						<g>
							<g>
								<g>
									<g>
										<g>
											<path style="fill:#263238;" d="M416.442,394.965c0.014-0.011-0.074-0.137-0.255-0.367
												c-0.191-0.22-0.433-0.586-0.836-0.971c-0.757-0.817-2.001-1.879-3.745-2.862c-1.738-0.988-4.02-1.823-6.66-2.127
												c-2.629-0.31-5.628-0.014-8.468,1.182c-2.821,1.243-5.096,3.221-6.676,5.346c-1.592,2.128-2.552,4.362-3.027,6.303
												c-0.482,1.943-0.564,3.577-0.49,4.688c0.004,0.557,0.103,0.984,0.132,1.275c0.043,0.29,0.074,0.44,0.091,0.437
												c0.151,0.009-0.426-2.494,0.617-6.306c0.509-1.89,1.482-4.054,3.053-6.111c1.56-2.055,3.776-3.958,6.502-5.161
												c2.745-1.155,5.65-1.46,8.214-1.183c2.574,0.27,4.815,1.048,6.539,1.976
												C414.921,392.943,416.345,395.081,416.442,394.965z"/>
										</g>
									</g>
								</g>
							</g>
						</g>
					</g>
				</g>
				<g>
					<g>
						<g>
							<g>
								<g>
									<g>
										<g>
											<path style="fill:#263238;" d="M419.263,376.888c0.066-0.003,0.115-0.856,0.061-2.238
												c-0.062-1.376-0.23-3.311-0.91-5.342c-0.682-2.034-1.839-3.667-2.89-4.597c-1.048-0.947-1.885-1.249-1.904-1.201
												c-0.046,0.077,0.711,0.487,1.651,1.461c0.946,0.96,1.999,2.544,2.657,4.502c0.658,1.96,0.881,3.847,1.035,5.205
												C419.109,376.041,419.188,376.891,419.263,376.888z"/>
										</g>
									</g>
								</g>
							</g>
						</g>
					</g>
				</g>
				<g>
					<g>
						<g>
							<g>
								<g>
									<g>
										<g>
											<path style="fill:#263238;" d="M399.736,404c0.093-0.113-1.392-1.478-3.154-3.225c-1.767-1.743-3.149-3.211-3.261-3.117
												c-0.106,0.087,1.114,1.72,2.9,3.482C398.003,402.905,399.65,404.106,399.736,404z"/>
										</g>
									</g>
								</g>
							</g>
						</g>
					</g>
				</g>
				<g>
					<g>
						<g>
							<g>
								<g>
									<g>
										<g>
											<path style="fill:#263238;" d="M403.5,402.034c0.138-0.033-0.108-1.533-0.548-3.35c-0.44-1.817-0.909-3.263-1.047-3.229
												c-0.138,0.033,0.108,1.533,0.548,3.35C402.894,400.622,403.362,402.067,403.5,402.034z"/>
										</g>
									</g>
								</g>
							</g>
						</g>
					</g>
				</g>
				<g>
					<g>
						<g>
							<g>
								<g>
									<g>
										<g>
											<path style="fill:#263238;" d="M413.528,398.284c-0.113-0.076-1.097,1.227-1.922,3.053
												c-0.831,1.824-1.163,3.422-1.032,3.457c0.142,0.041,0.685-1.461,1.499-3.245
												C412.88,399.762,413.653,398.363,413.528,398.284z"/>
										</g>
									</g>
								</g>
							</g>
						</g>
					</g>
				</g>
				<g>
					<g>
						<g>
							<g>
								<g>
									<g>
										<g>
											<path style="fill:#263238;" d="M402.683,382.512c0.113-0.085-0.91-1.629-2.284-3.446
												c-1.375-1.818-2.581-3.223-2.694-3.137c-0.113,0.085,0.91,1.628,2.285,3.447
												C401.364,381.192,402.57,382.597,402.683,382.512z"/>
										</g>
									</g>
								</g>
							</g>
						</g>
					</g>
				</g>
				<g>
					<g>
						<g>
							<g>
								<g>
									<g>
										<g>
											<path style="fill:#263238;" d="M405.068,371.949c0.117-0.08-1.041-1.973-2.585-4.227
												c-1.545-2.255-2.892-4.018-3.009-3.938c-0.117,0.08,1.041,1.973,2.586,4.228
												C403.604,370.266,404.951,372.029,405.068,371.949z"/>
										</g>
									</g>
								</g>
							</g>
						</g>
					</g>
				</g>
				<g>
					<g>
						<g>
							<g>
								<g>
									<g>
										<g>
											<path style="fill:#263238;" d="M408.873,374.721c-0.142-0.009-0.357,1.593-0.481,3.577
												c-0.124,1.985-0.11,3.601,0.031,3.609c0.141,0.009,0.357-1.592,0.481-3.577
												C409.028,376.346,409.014,374.73,408.873,374.721z"/>
										</g>
									</g>
								</g>
							</g>
						</g>
					</g>
				</g>
				<g>
					<g>
						<g>
							<g>
								<g>
									<g>
										<g>
											<path style="fill:#263238;" d="M424.045,379.525c-0.063-0.122-2.254,0.898-4.792,2.449
												c-2.542,1.547-4.451,3.027-4.371,3.14c0.083,0.119,2.112-1.164,4.638-2.702
												C422.042,380.87,424.113,379.654,424.045,379.525z"/>
										</g>
									</g>
								</g>
							</g>
						</g>
					</g>
				</g>
				<g style="opacity:0.3;">
					<g>
						<g>
							<g>
								<g>
									<g>
										<g>
											<path d="M411.888,388.618c-1.638-0.961-3.579-1.257-5.475-1.351c-1.968-0.098-4.168,0.101-5.501,1.553v0.07
												c4.727-0.336,10.24,1.28,13.87,4.327C414.809,391.319,413.525,389.578,411.888,388.618z"/>
										</g>
									</g>
								</g>
							</g>
						</g>
					</g>
				</g>
			</g>
			<g>
				<g>
					<g>
						<g>
							<g>
								<g>
									<path style="fill:#FF725E;" d="M395.834,322.288c-0.962-0.259-1.982-0.298-2.962-0.115
										c1.138-0.373,2.206-0.958,3.133-1.716c0.346-0.283,0.704-0.71,0.543-1.127c-0.162-0.419-0.72-0.491-1.168-0.453
										c-1.228,0.104-2.426,0.533-3.442,1.23c0.906-0.91,1.585-2.045,1.959-3.273c0.066-0.218,0.116-0.478-0.027-0.655
										c-0.167-0.207-0.489-0.175-0.746-0.106c-2.021,0.542-3.696,2.22-4.234,4.242l-0.016,0.643
										c0.534,1.304,1.571,2.394,2.847,2.992c1.276,0.598,2.777,0.698,4.121,0.274c0.512-0.161,1.086-0.533,1.031-1.067
										C396.825,322.678,396.299,322.412,395.834,322.288z"/>
								</g>
							</g>
						</g>
					</g>
				</g>
			</g>
			<g>
				<g>
					<g>
						<g>
							<g>
								<g>
									<path style="fill:#FF725E;" d="M327.717,279.12c-0.177,0.981-0.131,2.001,0.134,2.961
										c-0.467-1.103-1.139-2.118-1.973-2.978c-0.311-0.321-0.766-0.643-1.168-0.447c-0.404,0.197-0.429,0.759-0.354,1.202
										c0.207,1.215,0.734,2.373,1.514,3.327c-0.983-0.826-2.17-1.408-3.426-1.678c-0.223-0.048-0.486-0.076-0.651,0.082
										c-0.193,0.184-0.133,0.502-0.043,0.752c0.709,1.969,2.522,3.497,4.582,3.863l0.643-0.038
										c1.254-0.641,2.254-1.766,2.742-3.088c0.489-1.321,0.463-2.826-0.072-4.129c-0.204-0.497-0.622-1.037-1.149-0.938
										C328.023,278.101,327.802,278.646,327.717,279.12z"/>
								</g>
							</g>
						</g>
					</g>
				</g>
			</g>
			<g>
				<g>
					<g>
						<g>
							<g>
								<g>
									<path style="fill:#455A64;" d="M375.14,367.435c-0.501,0.018-0.969,0.077-1.447,0.122
										c-0.876-9.648,2.048-19.444-0.898-28.667l0.391,0.502c3.55,0.465,7.243,0.325,10.588-0.95
										c3.346-1.275,6.313-3.778,7.658-7.096c1.345-3.318,0.844-7.441-1.632-10.027c-3.34-3.489-9.222-3.306-13.412-0.902
										c-4.042,2.319-6.875,6.214-9.541,10.05c-1.403-1.102-2.947-2.02-4.612-2.652c4.655-6.41,9.157-13.139,10.626-20.881
										c1.606-8.47-1.557-18.506-9.42-22.042c-6.696-3.012-15.092-0.291-19.811,5.334c-0.369,0.44-0.682,0.916-1.01,1.382
										l0.158-0.457c-1.168-2.94-3.461-5.457-6.367-6.704c-2.907-1.248-6.404-1.149-9.14,0.439
										c-2.736,1.587-4.585,4.683-4.491,7.845c0.106,3.564,2.611,6.788,5.816,8.35c3.072,1.497,6.666,1.616,10.021,0.927
										c-0.43,2.976-0.412,6.038,0.05,8.998c1.05,6.738,4.054,13.005,7.623,18.836c-0.985,0.667-1.921,1.406-2.745,2.268
										c-6.067,6.353-6.458,16.553-3.278,24.742c3.18,8.19,11.791,14.229,17.766,20.67l0.007-0.004
										c-2.57,4.346-3.919,9.536-4.589,14.408c-2.078-4.345-6.715-7.458-11.564-7.422c-2.607,0.019-5.528,1.179-6.335,3.658
										c-0.711,2.184,0.486,4.551,2.039,6.244c3.617,3.941,10.094,5.743,15.292,4.479l0.066-1.596
										c-0.329,6.26,0.264,11.009,0.264,11.009h38.536C391.75,408.297,402.049,366.439,375.14,367.435z"/>
								</g>
							</g>
						</g>
					</g>
				</g>
			</g>
			<g>
				<g>
					<g>
						<g>
							<g>
								<g>
									<g>
										<g>
											<rect x="344.74" y="408.297" style="fill:#FF725E;" width="91.186" height="16.162"/>
										</g>
									</g>
								</g>
							</g>
						</g>
					</g>
				</g>
				<g>
					<g>
						<g>
							<g>
								<g>
									<g>
										<g>
											<polygon style="fill:#FF725E;" points="351.55,421.253 362.638,469.548 416.985,469.548 429.116,421.253 											"/>
										</g>
									</g>
								</g>
							</g>
						</g>
					</g>
				</g>
				<g>
					<g>
						<g>
							<g>
								<g>
									<g>
										<g>
											<g>
												<path style="fill:#263238;" d="M435.875,424.479c0,0.177-20.568,0.321-45.934,0.321
													c-25.375,0-45.939-0.143-45.939-0.321c0-0.177,20.564-0.32,45.939-0.32
													C415.307,424.159,435.875,424.302,435.875,424.479z"/>
											</g>
										</g>
									</g>
								</g>
							</g>
						</g>
					</g>
				</g>
			</g>
			<g>
				<g>
					<g>
						<g>
							<g>
								<g>
									<g>
										<path style="fill:#263238;" d="M382.29,369.027c0.008-0.016-0.173-0.118-0.527-0.301
											c-0.347-0.199-0.889-0.423-1.601-0.686c-1.424-0.504-3.628-0.945-6.346-0.732c-2.703,0.217-5.91,1.146-8.93,3.126
											c-3.02,1.976-5.705,5.036-7.671,8.677c-1.968,3.654-3.093,7.484-3.671,11.014c-0.564,3.54-0.617,6.767-0.619,9.459
											c0.016,2.696,0.101,4.873,0.155,6.377c0.03,0.707,0.055,1.281,0.074,1.732c0.021,0.396,0.042,0.604,0.059,0.604
											c0.018,0,0.032-0.208,0.044-0.605c0.006-0.451,0.013-1.026,0.022-1.734c0.002-1.571,0.005-3.731,0.008-6.372
											c0.048-2.684,0.14-5.892,0.723-9.384c0.595-3.479,1.722-7.257,3.656-10.847c1.931-3.578,4.551-6.579,7.481-8.528
											c2.932-1.954,6.057-2.901,8.701-3.159c2.658-0.254,4.828,0.121,6.252,0.56C381.532,368.67,382.262,369.086,382.29,369.027
											z"/>
									</g>
								</g>
							</g>
						</g>
					</g>
				</g>
			</g>
			<g>
				<g>
					<g>
						<g>
							<g>
								<g>
									<g>
										<path style="fill:#263238;" d="M374.142,348.567c0.018,0.001,0.038-0.156,0.062-0.457c0.013-0.301,0.073-0.746,0.053-1.32
											c0.011-1.147-0.119-2.817-0.57-4.825c-0.46-2.001-1.257-4.357-2.678-6.696c-0.691-1.177-1.553-2.337-2.584-3.413
											c-1.021-1.082-2.222-2.085-3.608-2.861c-1.377-0.787-2.843-1.333-4.303-1.655c-1.467-0.296-2.912-0.374-4.278-0.317
											c-2.738,0.157-5.13,0.858-7.018,1.665c-1.894,0.807-3.327,1.667-4.266,2.326c-0.481,0.312-0.819,0.606-1.06,0.786
											c-0.236,0.188-0.354,0.293-0.344,0.307c0.026,0.035,0.546-0.326,1.513-0.926c0.964-0.603,2.41-1.405,4.293-2.157
											c1.878-0.754,4.235-1.402,6.904-1.529c1.332-0.042,2.733,0.043,4.151,0.336c1.411,0.319,2.823,0.849,4.153,1.609
											c1.337,0.748,2.503,1.716,3.5,2.764c1.008,1.04,1.856,2.166,2.543,3.31c1.412,2.273,2.231,4.575,2.729,6.535
											c0.489,1.968,0.674,3.611,0.723,4.746C374.11,347.931,374.096,348.565,374.142,348.567z"/>
									</g>
								</g>
							</g>
						</g>
					</g>
				</g>
			</g>
			<g>
				<g>
					<g>
						<g>
							<g>
								<g>
									<g>
										<path style="fill:#263238;" d="M338.317,307.791c0.074,0.005,0.192-1.183,0.327-3.095
											c0.074-0.955,0.172-2.087,0.381-3.327c0.201-1.251,0.517-2.575,1.092-3.911c1.113-2.683,2.474-4.963,3.521-6.555
											c1.054-1.594,1.852-2.47,1.794-2.526c-0.024-0.023-0.253,0.17-0.633,0.555c-0.37,0.393-0.888,0.982-1.458,1.763
											c-1.137,1.56-2.563,3.833-3.699,6.569c-0.587,1.36-0.911,2.772-1.084,4.031c-0.188,1.268-0.248,2.421-0.277,3.382
											C338.24,306.6,338.25,307.786,338.317,307.791z"/>
									</g>
								</g>
							</g>
						</g>
					</g>
				</g>
			</g>
			<g>
				<g>
					<g>
						<g>
							<g>
								<g>
									<g>
										<path style="fill:#263238;" d="M343.292,394.445c-0.093-0.107-1.269,0.763-2.627,1.943c-1.358,1.18-2.383,2.223-2.29,2.33
											c0.093,0.107,1.269-0.763,2.627-1.943C342.359,395.595,343.384,394.552,343.292,394.445z"/>
									</g>
								</g>
							</g>
						</g>
					</g>
				</g>
			</g>
			<g>
				<g>
					<g>
						<g>
							<g>
								<g>
									<g>
										<path style="fill:#263238;" d="M340.056,391.226c0.014-0.141-1.449-0.399-3.267-0.577
											c-1.819-0.178-3.304-0.207-3.317-0.066c-0.014,0.141,1.449,0.399,3.268,0.577
											C338.557,391.337,340.042,391.366,340.056,391.226z"/>
									</g>
								</g>
							</g>
						</g>
					</g>
				</g>
			</g>
			<g>
				<g>
					<g>
						<g>
							<g>
								<g>
									<g>
										<path style="fill:#263238;" d="M342.509,385.54c0.103-0.106-0.829-1.147-1.831-2.533c-1.01-1.381-1.713-2.588-1.845-2.523
											c-0.123,0.056,0.39,1.401,1.431,2.824C341.296,384.737,342.418,385.64,342.509,385.54z"/>
									</g>
								</g>
							</g>
						</g>
					</g>
				</g>
			</g>
			<g>
				<g>
					<g>
						<g>
							<g>
								<g>
									<g>
										<path style="fill:#263238;" d="M346.824,382.93c-0.138,0.032,0.129,1.703,0.596,3.733c0.467,2.03,0.958,3.65,1.096,3.619
											c0.138-0.032-0.129-1.703-0.596-3.734C347.453,384.518,346.962,382.898,346.824,382.93z"/>
									</g>
								</g>
							</g>
						</g>
					</g>
				</g>
			</g>
			<g>
				<g>
					<g>
						<g>
							<g>
								<g>
									<g>
										<path style="fill:#263238;" d="M349.709,395.957c0.095-0.105-0.514-0.808-1.36-1.569
											c-0.846-0.762-1.609-1.293-1.704-1.188c-0.095,0.105,0.514,0.808,1.36,1.569
											C348.852,395.531,349.614,396.063,349.709,395.957z"/>
									</g>
								</g>
							</g>
						</g>
					</g>
				</g>
			</g>
			<g>
				<g>
					<g>
						<g>
							<g>
								<g>
									<g>
										<path style="fill:#263238;" d="M363.11,393.435c0.102-0.098-0.638-1.036-1.652-2.094c-1.015-1.058-1.92-1.837-2.022-1.739
											c-0.102,0.098,0.637,1.035,1.652,2.094C362.102,392.754,363.008,393.533,363.11,393.435z"/>
									</g>
								</g>
							</g>
						</g>
					</g>
				</g>
			</g>
			<g>
				<g>
					<g>
						<g>
							<g>
								<g>
									<g>
										<path style="fill:#263238;" d="M366.019,381.06c0.121-0.074-0.433-1.197-1.236-2.509
											c-0.803-1.312-1.552-2.315-1.673-2.241c-0.121,0.074,0.432,1.197,1.236,2.509
											C365.149,380.131,365.898,381.134,366.019,381.06z"/>
									</g>
								</g>
							</g>
						</g>
					</g>
				</g>
			</g>
			<g>
				<g>
					<g>
						<g>
							<g>
								<g>
									<g>
										<path style="fill:#263238;" d="M374.55,370.986c-0.142-0.002-0.275,1.437-0.299,3.213
											c-0.023,1.777,0.072,3.218,0.214,3.22c0.142,0.002,0.276-1.436,0.299-3.213
											C374.788,372.43,374.692,370.988,374.55,370.986z"/>
									</g>
								</g>
							</g>
						</g>
					</g>
				</g>
			</g>
			<g>
				<g>
					<g>
						<g>
							<g>
								<g>
									<g>
										<path style="fill:#263238;" d="M392.455,374.4c-0.122-0.081-1.175,1.317-2.546,2.973c-1.366,1.661-2.539,2.96-2.436,3.064
											c0.094,0.099,1.445-1.053,2.831-2.738C391.696,376.019,392.57,374.474,392.455,374.4z"/>
									</g>
								</g>
							</g>
						</g>
					</g>
				</g>
			</g>
			<g>
				<g>
					<g>
						<g>
							<g>
								<g>
									<g>
										<path style="fill:#263238;" d="M394.752,391.987c-0.027-0.139-1.455,0.02-3.19,0.355c-1.735,0.335-3.12,0.719-3.093,0.859
											c0.027,0.139,1.455-0.02,3.19-0.355C393.394,392.51,394.779,392.126,394.752,391.987z"/>
									</g>
								</g>
							</g>
						</g>
					</g>
				</g>
			</g>
			<g>
				<g>
					<g>
						<g>
							<g>
								<g>
									<g>
										<path style="fill:#263238;" d="M376.18,398.114c0.129-0.041-0.294-1.674-1.233-3.52c-0.934-1.849-2.001-3.155-2.111-3.075
											c-0.121,0.084,0.739,1.496,1.653,3.307C375.41,396.633,376.04,398.162,376.18,398.114z"/>
									</g>
								</g>
							</g>
						</g>
					</g>
				</g>
			</g>
			<g>
				<g>
					<g>
						<g>
							<g>
								<g>
									<g>
										<path style="fill:#263238;" d="M382.37,389.676c0.142,0.003,0.282-1.161,0.315-2.599c0.032-1.439-0.057-2.608-0.199-2.611
											c-0.142-0.003-0.282,1.16-0.314,2.599C382.139,388.504,382.228,389.673,382.37,389.676z"/>
									</g>
								</g>
							</g>
						</g>
					</g>
				</g>
			</g>
			<g>
				<g>
					<g>
						<g>
							<g>
								<g>
									<g>
										<path style="fill:#263238;" d="M362.386,404.552c0.128-0.045-0.232-1.33-1.089-2.719
											c-0.851-1.393-1.835-2.295-1.933-2.202c-0.11,0.098,0.674,1.123,1.496,2.47
											C361.689,403.443,362.249,404.605,362.386,404.552z"/>
									</g>
								</g>
							</g>
						</g>
					</g>
				</g>
			</g>
			<g>
				<g>
					<g>
						<g>
							<g>
								<g>
									<g>
										<path style="fill:#263238;" d="M383.588,405.772c0.13,0.057,0.749-1.063,1.384-2.501c0.635-1.439,1.044-2.651,0.914-2.708
											c-0.129-0.057-0.749,1.062-1.384,2.501C383.867,404.502,383.458,405.715,383.588,405.772z"/>
									</g>
								</g>
							</g>
						</g>
					</g>
				</g>
			</g>
			<g>
				<g>
					<g>
						<g>
							<g>
								<g>
									<g>
										<path style="fill:#263238;" d="M350.629,366.563c-0.004-0.142-1.587-0.204-3.533-0.14
											c-1.947,0.064-3.521,0.231-3.517,0.372s1.586,0.204,3.533,0.14C349.059,366.872,350.634,366.705,350.629,366.563z"/>
									</g>
								</g>
							</g>
						</g>
					</g>
				</g>
			</g>
			<g>
				<g>
					<g>
						<g>
							<g>
								<g>
									<g>
										<path style="fill:#263238;" d="M342.942,353.406c0.082-0.116-1.436-1.332-3.389-2.717
											c-1.954-1.385-3.604-2.414-3.686-2.298c-0.082,0.116,1.436,1.332,3.39,2.717
											C341.21,352.492,342.86,353.521,342.942,353.406z"/>
									</g>
								</g>
							</g>
						</g>
					</g>
				</g>
			</g>
			<g>
				<g>
					<g>
						<g>
							<g>
								<g>
									<g>
										<path style="fill:#263238;" d="M343.74,336.506c0.06-0.136-1.254-0.821-2.764-1.828c-1.515-0.999-2.658-1.942-2.76-1.834
											c-0.096,0.095,0.918,1.233,2.477,2.262C342.246,336.14,343.689,336.631,343.74,336.506z"/>
									</g>
								</g>
							</g>
						</g>
					</g>
				</g>
			</g>
			<g>
				<g>
					<g>
						<g>
							<g>
								<g>
									<g>
										<path style="fill:#263238;" d="M352.353,330.533c0.138-0.034-0.197-1.879-0.747-4.121
											c-0.55-2.243-1.107-4.033-1.245-3.999c-0.138,0.034,0.197,1.878,0.747,4.121
											C351.658,328.776,352.215,330.566,352.353,330.533z"/>
									</g>
								</g>
							</g>
						</g>
					</g>
				</g>
			</g>
			<g>
				<g>
					<g>
						<g>
							<g>
								<g>
									<g>
										<path style="fill:#263238;" d="M366.748,326.272c-0.124-0.069-0.874,1.042-1.676,2.482
											c-0.802,1.44-1.352,2.662-1.228,2.731c0.124,0.069,0.874-1.042,1.676-2.482
											C366.322,327.563,366.872,326.341,366.748,326.272z"/>
									</g>
								</g>
							</g>
						</g>
					</g>
				</g>
			</g>
			<g>
				<g>
					<g>
						<g>
							<g>
								<g>
									<g>
										<path style="fill:#263238;" d="M379.156,354.787c-0.096-0.115-1.737,1.142-3.898,2.47
											c-2.156,1.338-4.014,2.243-3.954,2.38c0.049,0.124,2.029-0.582,4.223-1.943
											C377.726,356.341,379.245,354.887,379.156,354.787z"/>
									</g>
								</g>
							</g>
						</g>
					</g>
				</g>
			</g>
			<g>
				<g>
					<g>
						<g>
							<g>
								<g>
									<g>
										<path style="fill:#263238;" d="M359.043,361.199c0.074-0.121-1.032-0.938-2.471-1.824
											c-1.439-0.887-2.666-1.509-2.741-1.388c-0.074,0.121,1.032,0.937,2.471,1.825
											C357.742,360.698,358.969,361.32,359.043,361.199z"/>
									</g>
								</g>
							</g>
						</g>
					</g>
				</g>
			</g>
			<g>
				<g>
					<g>
						<g>
							<g>
								<g>
									<g>
										<path style="fill:#263238;" d="M355.672,347.56c0.104-0.112-1.196-1.389-2.404-3.251
											c-1.224-1.854-1.872-3.556-2.017-3.506c-0.126,0.031,0.321,1.864,1.587,3.786
											C354.092,346.518,355.593,347.664,355.672,347.56z"/>
									</g>
								</g>
							</g>
						</g>
					</g>
				</g>
			</g>
			<g>
				<g>
					<g>
						<g>
							<g>
								<g>
									<g>
										<path style="fill:#263238;" d="M362.277,344.483c0.142-0.007,0.188-1.487,0.103-3.305c-0.085-1.82-0.268-3.289-0.41-3.282
											c-0.141,0.007-0.188,1.486-0.103,3.306C361.952,343.02,362.135,344.489,362.277,344.483z"/>
									</g>
								</g>
							</g>
						</g>
					</g>
				</g>
			</g>
			<g>
				<g>
					<g>
						<g>
							<g>
								<g>
									<g>
										<path style="fill:#263238;" d="M365.924,357.962c0.141,0.016,0.429-1.479,0.644-3.34c0.215-1.861,0.275-3.383,0.134-3.399
											c-0.141-0.016-0.429,1.479-0.644,3.34C365.844,356.423,365.784,357.945,365.924,357.962z"/>
									</g>
								</g>
							</g>
						</g>
					</g>
				</g>
			</g>
			<g>
				<g>
					<g>
						<g>
							<g>
								<g>
									<g>
										<path style="fill:#263238;" d="M376.122,317.354c-0.147-0.02-0.481,1.703-1.076,3.772
											c-0.587,2.072-1.212,3.712-1.076,3.772c0.122,0.058,0.97-1.517,1.569-3.632
											C376.146,319.155,376.256,317.368,376.122,317.354z"/>
									</g>
								</g>
							</g>
						</g>
					</g>
				</g>
			</g>
			<g>
				<g>
					<g>
						<g>
							<g>
								<g>
									<g>
										<path style="fill:#263238;" d="M383.305,341.029c0.069-0.131-1.327-0.985-2.946-2.169
											c-1.625-1.179-2.866-2.245-2.969-2.139c-0.097,0.095,1.007,1.349,2.667,2.554
											C381.712,340.484,383.245,341.15,383.305,341.029z"/>
									</g>
								</g>
							</g>
						</g>
					</g>
				</g>
			</g>
			<g>
				<g>
					<g>
						<g>
							<g>
								<g>
									<g>
										<path style="fill:#263238;" d="M393.064,333.759c0.009-0.147-1.618-0.348-3.592-0.73
											c-1.977-0.375-3.562-0.789-3.608-0.649c-0.045,0.128,1.496,0.77,3.512,1.153
											C391.388,333.922,393.059,333.895,393.064,333.759z"/>
									</g>
								</g>
							</g>
						</g>
					</g>
				</g>
			</g>
			<g>
				<g>
					<g>
						<g>
							<g>
								<g>
									<g>
										<path style="fill:#263238;" d="M383.566,325.64c-0.077-0.119-0.996,0.333-2.053,1.009
											c-1.058,0.677-1.853,1.322-1.777,1.442c0.076,0.119,0.995-0.333,2.053-1.01
											C382.847,326.405,383.642,325.759,383.566,325.64z"/>
									</g>
								</g>
							</g>
						</g>
					</g>
				</g>
			</g>
			<g>
				<g>
					<g>
						<g>
							<g>
								<g>
									<g>
										<path style="fill:#263238;" d="M388.308,316.869c-0.082-0.108-1.23,0.657-2.336,1.932
											c-1.112,1.271-1.711,2.512-1.593,2.579c0.126,0.077,0.903-1.011,1.98-2.242
											C387.43,317.902,388.401,316.984,388.308,316.869z"/>
									</g>
								</g>
							</g>
						</g>
					</g>
				</g>
			</g>
			<g>
				<g>
					<g>
						<g>
							<g>
								<g>
									<g>
										<path style="fill:#263238;" d="M394.767,325.226c-0.056-0.136-1.508,0.342-3.321,0.826
											c-1.811,0.491-3.308,0.805-3.287,0.95c0.016,0.136,1.573,0.045,3.421-0.455
											C393.429,326.053,394.821,325.351,394.767,325.226z"/>
									</g>
								</g>
							</g>
						</g>
					</g>
				</g>
			</g>
			<g>
				<g>
					<g>
						<g>
							<g>
								<g>
									<g>
										<path style="fill:#263238;" d="M350.011,313.98c0.115-0.093-1.299-2.003-2.913-4.441
											c-1.621-2.434-2.832-4.479-2.962-4.409c-0.12,0.062,0.898,2.234,2.535,4.693
											C348.3,312.285,349.907,314.068,350.011,313.98z"/>
									</g>
								</g>
							</g>
						</g>
					</g>
				</g>
			</g>
			<g>
				<g>
					<g>
						<g>
							<g>
								<g>
									<g>
										<path style="fill:#263238;" d="M352.886,303.748c0.141-0.018,0.031-1.729-0.244-3.821
											c-0.275-2.092-0.612-3.773-0.753-3.755c-0.14,0.019-0.031,1.729,0.244,3.822
											C352.409,302.085,352.746,303.767,352.886,303.748z"/>
									</g>
								</g>
							</g>
						</g>
					</g>
				</g>
			</g>
			<g>
				<g>
					<g>
						<g>
							<g>
								<g>
									<g>
										<path style="fill:#263238;" d="M362.832,305.34c-0.151-0.028-0.569,1.941-1.552,4.193
											c-0.967,2.26-2.116,3.913-1.991,4.004c0.098,0.086,1.464-1.473,2.462-3.8C362.762,307.416,362.961,305.352,362.832,305.34
											z"/>
									</g>
								</g>
							</g>
						</g>
					</g>
				</g>
			</g>
			<g>
				<g>
					<g>
						<g>
							<g>
								<g>
									<g>
										<path style="fill:#263238;" d="M374.513,307.815c-0.118-0.093-1.571,1.619-3.583,3.503
											c-2.004,1.894-3.802,3.238-3.716,3.362c0.071,0.112,2.029-1.063,4.068-2.988
											C373.328,309.775,374.621,307.893,374.513,307.815z"/>
									</g>
								</g>
							</g>
						</g>
					</g>
				</g>
			</g>
			<g>
				<g>
					<g>
						<g>
							<g>
								<g>
									<g>
										<path style="fill:#263238;" d="M369.993,286.597c-0.147-0.025-0.599,2.132-1.402,4.715
											c-0.793,2.588-1.635,4.623-1.499,4.686c0.12,0.06,1.184-1.907,1.99-4.534C369.897,288.84,370.126,286.615,369.993,286.597
											z"/>
									</g>
								</g>
							</g>
						</g>
					</g>
				</g>
			</g>
			<g>
				<g>
					<g>
						<g>
							<g>
								<g>
									<g>
										<path style="fill:#263238;" d="M356.534,279.617c-0.141-0.009-0.359,1.682-0.487,3.776
											c-0.128,2.095-0.116,3.799,0.025,3.808c0.141,0.009,0.359-1.682,0.487-3.777
											C356.687,281.331,356.676,279.626,356.534,279.617z"/>
									</g>
								</g>
							</g>
						</g>
					</g>
				</g>
			</g>
			<g>
				<g>
					<g>
						<g>
							<g>
								<g>
									<g>
										<path style="fill:#263238;" d="M328.758,297.559c-0.037-0.143-1.314,0.084-2.894,0.209
											c-1.581,0.133-2.877,0.116-2.89,0.263c-0.016,0.135,1.299,0.385,2.932,0.248
											C327.539,298.15,328.796,297.69,328.758,297.559z"/>
									</g>
								</g>
							</g>
						</g>
					</g>
				</g>
			</g>
			<g>
				<g>
					<g>
						<g>
							<g>
								<g>
									<g>
										<path style="fill:#263238;" d="M329.578,290.553c0.066-0.125-1.714-1.2-3.977-2.401c-2.263-1.201-4.151-2.073-4.217-1.948
											c-0.066,0.125,1.714,1.2,3.977,2.401C327.623,289.806,329.511,290.678,329.578,290.553z"/>
									</g>
								</g>
							</g>
						</g>
					</g>
				</g>
			</g>
			<g>
				<g>
					<g>
						<g>
							<g>
								<g>
									<g>
										<path style="fill:#263238;" d="M337.09,290.804c0.135-0.042-0.246-1.639-0.85-3.566c-0.605-1.927-1.204-3.455-1.34-3.413
											c-0.135,0.042,0.246,1.639,0.85,3.566C336.355,289.318,336.954,290.846,337.09,290.804z"/>
									</g>
								</g>
							</g>
						</g>
					</g>
				</g>
			</g>
			<g style="opacity:0.3;">
				<g>
					<g>
						<g>
							<g>
								<g>
									<g>
										<path d="M358.123,377.556c0.074-3.656,2.099-7.395,5.134-9.433c3.036-2.038,8.503-2.239,10.651-0.711
											c-3.182-0.034-6.786,1.331-9.344,3.223C362.006,372.526,359.846,374.88,358.123,377.556"/>
									</g>
								</g>
							</g>
						</g>
					</g>
				</g>
			</g>
			<g style="opacity:0.3;">
				<g>
					<g>
						<g>
							<g>
								<g>
									<g>
										<path d="M346.235,330.533c1.322-2.878,4.223-5.147,7.338-5.717c3.115-0.569,7.526,1.161,8.704,3.117
											c-2.515-1.127-5.849-1.289-8.535-0.671C351.057,327.88,348.527,329.003,346.235,330.533"/>
									</g>
								</g>
							</g>
						</g>
					</g>
				</g>
			</g>
			<g style="opacity:0.3;">
				<g>
					<g>
						<g>
							<g>
								<g>
									<g>
										<path d="M338.373,302.568c-1.233-2.127-1.424-4.828-0.503-7.107c0.921-2.28,2.707-3.402,5.072-4.076
											c-2.418,3.505-4.32,7.064-4.504,11.318"/>
									</g>
								</g>
							</g>
						</g>
					</g>
				</g>
			</g>
			<g>
				<g>
					<g>
						<g>
							<g>
								<g>
									<g>
										<path style="fill:#263238;" d="M387.019,371.238c-0.028,0.037,0.404,0.372,1.039,1.12
											c0.633,0.745,1.494,1.886,2.331,3.421c1.545,3.114,2.946,7.857,3.346,13.194c0.415,5.35-0.15,10.217-0.678,13.691
											c-0.271,1.741-0.533,3.144-0.714,4.114c-0.185,0.969-0.27,1.51-0.232,1.519c0.038,0.009,0.195-0.515,0.447-1.472
											c0.247-0.958,0.569-2.354,0.892-4.095c0.631-3.475,1.267-8.38,0.847-13.801c-0.41-5.418-1.879-10.19-3.56-13.345
											c-0.9-1.543-1.823-2.661-2.517-3.375C387.522,371.493,387.036,371.211,387.019,371.238z"/>
									</g>
								</g>
							</g>
						</g>
					</g>
				</g>
			</g>
		</g>
		<g>
			<g>
				<g>
					<g>
						<g>
							<g>
								<g>
									<path style="fill:#263238;" d="M344.74,408.297c0,0.009,0.094,0.018,0.277,0.026c0.213,0.007,0.48,0.015,0.814,0.026
										c0.753,0.012,1.799,0.028,3.128,0.048c2.756,0.02,6.677,0.047,11.505,0.081c9.748,0.019,23.152,0.046,37.957,0.075
										c14.597-0.029,27.829-0.054,37.504-0.073l-0.183-0.184c0.019,4.971,0.035,9.006,0.045,11.841
										c0.016,1.368,0.029,2.445,0.039,3.219c0.01,0.344,0.017,0.619,0.023,0.837c0.008,0.189,0.017,0.285,0.026,0.285
										c0.009,0,0.018-0.096,0.027-0.285c0.007-0.218,0.017-0.494,0.028-0.837c0.014-0.774,0.034-1.851,0.059-3.219
										c0.028-2.835,0.069-6.87,0.119-11.84l0.002-0.184l-0.185,0c-9.676-0.019-22.907-0.045-37.504-0.073
										c-14.806,0.029-28.209,0.056-37.957,0.075c-4.828,0.034-8.749,0.062-11.505,0.082c-1.329,0.02-2.375,0.036-3.128,0.048
										c-0.333,0.01-0.601,0.019-0.814,0.026C344.834,408.279,344.74,408.288,344.74,408.297z"/>
								</g>
							</g>
						</g>
					</g>
				</g>
			</g>
		</g>
	</g>
</g>
<g id="Speech_Bubble">
	<g>
		<g>
			<g>
				<polygon style="fill:#FFFFFF;" points="248.441,83.632 256.014,236.667 283.063,236.159 283.063,276.166 321.408,236.772 
					443.899,236.772 457.659,75.791 				"/>
			</g>
			<g>
				<g>
					<path style="fill:#263238;" d="M248.441,83.632c2.016-0.078,84.706-3.269,209.21-8.073l0.262-0.01l-0.022,0.261
						c-4.096,48.023-8.773,102.849-13.732,160.984l-0.02,0.238h-0.239c-4.235,0-8.803,0-13.389,0
						c-37.952-0.004-74.617-0.007-109.102-0.011l0.179-0.076c-13.288,13.645-26.099,26.799-38.355,39.383l-0.404,0.415l0-0.579
						c0.005-13.902,0.01-27.23,0.015-40.007l0.224,0.22c-9.354,0.172-18.359,0.337-27.049,0.496l-0.202,0.004l-0.01-0.201
						C251.317,143.396,248.522,85.325,248.441,83.632c0.086,1.691,3.038,59.756,7.781,153.025l-0.211-0.197
						c8.69-0.168,17.694-0.341,27.048-0.522l0.225-0.004l0,0.225c0.005,12.777,0.01,26.105,0.015,40.007l-0.404-0.164
						c12.249-12.591,25.053-25.752,38.335-39.403l0.074-0.076h0.106c34.485-0.003,71.15-0.007,109.102-0.011
						c4.586,0,9.154,0,13.389,0l-0.259,0.238c4.979-58.133,9.675-112.958,13.789-160.979l0.239,0.251
						C333.154,80.551,250.455,83.559,248.441,83.632z"/>
				</g>
			</g>
		</g>
		<g>
			<path style="fill:#FF725E;" d="M295.163,146.805v4.454h-16.36v-20.377h15.981v4.454h-10.276v3.435h9.054v4.309h-9.054v3.726
				H295.163z"/>
			<path style="fill:#FF725E;" d="M311.056,151.259l-4.221-6.317l-4.163,6.317h-6.579l7.424-10.305l-7.103-10.072h6.492l4.075,5.88
				l4.018-5.88h6.229l-7.103,9.839l7.568,10.538H311.056z"/>
			<path style="fill:#FF725E;" d="M323.328,150.313c-1.698-0.902-3.033-2.159-4.003-3.77c-0.971-1.611-1.455-3.435-1.455-5.473
				c0-2.038,0.484-3.862,1.455-5.473c0.97-1.611,2.305-2.868,4.003-3.77c1.698-0.902,3.614-1.354,5.749-1.354
				c1.863,0,3.542,0.33,5.036,0.99c1.494,0.66,2.736,1.611,3.727,2.853l-3.668,3.318c-1.32-1.591-2.921-2.387-4.804-2.387
				c-1.105,0-2.091,0.243-2.954,0.728c-0.864,0.485-1.534,1.169-2.009,2.052c-0.476,0.883-0.714,1.897-0.714,3.042
				c0,1.146,0.238,2.159,0.714,3.042c0.475,0.883,1.145,1.567,2.009,2.052c0.863,0.485,1.849,0.727,2.954,0.727
				c1.883,0,3.483-0.795,4.804-2.387l3.668,3.319c-0.99,1.242-2.232,2.193-3.727,2.853c-1.494,0.659-3.173,0.99-5.036,0.99
				C326.942,151.667,325.026,151.216,323.328,150.313z"/>
			<path style="fill:#FF725E;" d="M340.401,130.882h5.764v20.377h-5.764V130.882z"/>
			<path style="fill:#FF725E;" d="M354.606,135.452h-6.259v-4.57H366.6v4.57h-6.229v15.807h-5.765V135.452z"/>
			<path style="fill:#FF725E;" d="M368.754,130.882h5.764v20.377h-5.764V130.882z"/>
			<path style="fill:#FF725E;" d="M398.01,130.882v20.377h-4.745l-8.995-10.858v10.858h-5.648v-20.377h4.745l8.995,10.858v-10.858
				H398.01z"/>
			<path style="fill:#FF725E;" d="M415.739,140.634h5.095v8.442c-1.164,0.835-2.504,1.475-4.017,1.921
				c-1.514,0.446-3.027,0.67-4.541,0.67c-2.135,0-4.057-0.451-5.764-1.354c-1.708-0.902-3.048-2.159-4.018-3.77
				c-0.971-1.611-1.455-3.435-1.455-5.473c0-2.038,0.484-3.862,1.455-5.473c0.97-1.611,2.319-2.868,4.047-3.77
				c1.727-0.902,3.677-1.354,5.851-1.354c1.902,0,3.61,0.32,5.124,0.96c1.514,0.641,2.774,1.563,3.784,2.766l-3.668,3.319
				c-1.378-1.514-3.027-2.271-4.949-2.271c-1.746,0-3.153,0.529-4.221,1.586c-1.067,1.058-1.602,2.47-1.602,4.235
				c0,1.126,0.243,2.13,0.729,3.013c0.484,0.883,1.164,1.572,2.037,2.067c0.874,0.495,1.873,0.742,2.999,0.742
				c1.105,0,2.144-0.223,3.114-0.669V140.634z"/>
		</g>
		<g>
			<path style="fill:#FF725E;" d="M310.051,162.367v31.659h-7.372l-13.975-16.87v16.87h-8.774v-31.659h7.372l13.976,16.87v-16.87
				H310.051z"/>
			<path style="fill:#FF725E;" d="M341.801,187.107v6.92h-25.418v-31.659h24.83v6.92h-15.966v5.337h14.065v6.693h-14.065v5.789
				H341.801z"/>
			<path style="fill:#FF725E;" d="M395.983,162.367l-10.267,31.659h-9.588l-6.061-19.267l-6.332,19.267h-9.588l-10.267-31.659h9.227
				l6.377,20.217l6.693-20.217h8.231l6.377,20.398l6.648-20.398H395.983z"/>
			<path style="fill:#FF725E;" d="M402.857,193.71c-2.412-0.633-4.372-1.477-5.879-2.533l2.939-6.604
				c1.417,0.935,3.06,1.689,4.93,2.262c1.869,0.573,3.709,0.859,5.518,0.859c3.438,0,5.156-0.859,5.156-2.578
				c0-0.905-0.49-1.575-1.47-2.013c-0.98-0.436-2.556-0.897-4.727-1.379c-2.382-0.512-4.372-1.063-5.97-1.651
				c-1.599-0.588-2.971-1.53-4.116-2.827c-1.147-1.296-1.719-3.045-1.719-5.247c0-1.929,0.527-3.67,1.583-5.224
				c1.056-1.553,2.631-2.781,4.727-3.686c2.096-0.904,4.665-1.357,7.711-1.357c2.081,0,4.131,0.234,6.151,0.701
				c2.02,0.468,3.799,1.153,5.337,2.058l-2.759,6.648c-3.016-1.628-5.941-2.442-8.775-2.442c-1.779,0-3.075,0.264-3.89,0.792
				c-0.814,0.528-1.221,1.214-1.221,2.058c0,0.845,0.481,1.477,1.447,1.899c0.964,0.423,2.517,0.859,4.658,1.312
				c2.412,0.513,4.409,1.063,5.992,1.65c1.583,0.588,2.955,1.523,4.116,2.804c1.16,1.282,1.741,3.023,1.741,5.224
				c0,1.9-0.528,3.618-1.583,5.156c-1.056,1.537-2.639,2.767-4.749,3.686c-2.111,0.919-4.674,1.379-7.688,1.379
				C407.757,194.66,405.269,194.343,402.857,193.71z"/>
		</g>
		<g>
			<polygon style="fill:#FF725E;" points="425.14,121.76 437.368,92.483 447.848,98.702 			"/>
		</g>
		<g>
			<polygon style="fill:#FF725E;" points="437.172,144.129 469.362,146.259 466.827,158.389 			"/>
		</g>
		<g>
			<polygon style="fill:#FF725E;" points="432.562,127.671 474.535,103.628 482.757,121.928 			"/>
		</g>
		<g>
			<polygon style="fill:#FF725E;" points="385.672,104.847 387.516,109.334 392.002,111.178 387.516,113.022 385.672,117.509 
				383.828,113.022 379.341,111.178 383.828,109.334 			"/>
		</g>
		<g>
			<polygon style="fill:#FF725E;" points="279.213,207.332 281.056,211.819 285.543,213.663 281.056,215.506 279.213,219.993 
				277.369,215.506 272.882,213.663 277.369,211.819 			"/>
		</g>
		<g>
			<polygon style="fill:#FF725E;" points="370.474,102.011 371.396,104.254 373.64,105.176 371.396,106.098 370.474,108.341 
				369.552,106.098 367.309,105.176 369.552,104.254 			"/>
		</g>
		<g>
			<polygon style="fill:#FF725E;" points="295.532,205.513 296.454,207.757 298.697,208.679 296.454,209.601 295.532,211.844 
				294.61,209.601 292.366,208.679 294.61,207.757 			"/>
		</g>
		<g>
			<polygon style="fill:#FF725E;" points="437.87,173.337 438.792,175.58 441.035,176.502 438.792,177.424 437.87,179.668 
				436.948,177.424 434.704,176.502 436.948,175.58 			"/>
		</g>
	</g>
</g>
<g id="Character_1_">
	<g>
		<g>
			<g>
				<g>
					<g>
						<path style="fill:#263238;" d="M124.626,116.933c2.885-9.479,9.752-17.675,18.578-22.177
							c9.698-4.945,21.254-5.366,31.863-2.926c10.609,2.441,20.415,7.554,29.677,13.273c5.198,3.208,10.371,6.72,14.033,11.607
							c6.684,8.921,13.129,23.443,13.48,34.585c0.284,9.009-3.803,31.428-7.838,39.488c-1.436,2.868-4.802,5.407-8.848,7.541
							c-4.355,7.947-10.053,15.152-16.906,21.086c-1.912-6.099-3.824-12.198-5.737-18.298L124.626,116.933z"/>
					</g>
				</g>
				<g>
					<g>
						<path style="fill:#263238;" d="M236.189,228.152c4.39-16.241,2.46-36.239,1.768-50.139c-0.691-13.9,2.381-19.893-8.085-43.168
							c-7.835-17.425-20.789-27.994-33.143-34.403l-49.863,5.429c0.351-0.881,0.708-1.735,1.074-2.543l-17.816,2.664
							c-6.551-0.798-11.08,2.324-14.248,7.345c-1.077,1.223-2.019,2.575-2.756,4.009c-2.358,4.586-3.14,9.794-3.888,14.896
							c-0.692,4.714-1.001,9.845-1.077,15.228c-0.148,2.022-0.273,3.787-0.41,5.166c-0.179,1.801,0.059,4.078,0.553,6.615
							c0.731,21.417,3.479,45.026,0.868,62.815c-0.273,1.86-0.527,3.851,0.294,5.542c0.876,1.804,2.773,2.849,4.585,3.71
							c22.11,10.504,37.75-2.1,59.606-13.123c4.254-2.145,8.604-4.741,13.365-4.562c5.038,0.189,9.207,13.378,13.822,15.408"/>
					</g>
				</g>
				<g>
					<g>
						<path style="fill:#A26760;" d="M213.072,146.803c-0.569-13.509-8.981-24.816-21.982-28.531l-40.525-11.58
							c-17.588-2.409-29.989,18.957-31.649,36.631c-1.844,19.636-3.228,40.373-1.348,55.124
							c3.779,29.662,26.288,34.115,26.288,34.115c0.004-0.044-0.396,14.045-0.627,22.667l19.671,94.57l42.769-98.693l7.498-103.941
							C213.192,146.66,213.101,147.477,213.072,146.803z"/>
					</g>
				</g>
				<g>
					<g>
						<g>
							<g>
								<g>
									<g>
										<g>
											<g>
												<g>
													<g>
														<g>
															<g>
																<g>
																	<path style="fill:#263238;" d="M129.573,169.971c-0.133,1.998,1.449,3.756,3.533,3.933
																		c2.078,0.175,3.875-1.296,4.007-3.293c0.132-1.997-1.45-3.758-3.528-3.933
																		C131.501,166.501,129.705,167.975,129.573,169.971z"/>
																</g>
															</g>
														</g>
													</g>
												</g>
											</g>
										</g>
									</g>
								</g>
							</g>
						</g>
					</g>
				</g>
				<g>
					<g>
						<g>
							<g>
								<g>
									<g>
										<g>
											<g>
												<g>
													<g>
														<g>
															<g>
																<g>
																	<g>
																		<path style="fill:#263238;" d="M123.018,155.015c0.454,0.509,3.388-1.525,7.461-1.39
																			c4.071,0.078,6.996,2.265,7.454,1.78c0.224-0.214-0.228-1.12-1.5-2.107c-1.252-0.983-3.41-1.969-5.947-2.036
																			c-2.538-0.064-4.702,0.804-5.957,1.723C123.245,153.908,122.793,154.787,123.018,155.015z"/>
																	</g>
																</g>
															</g>
														</g>
													</g>
												</g>
											</g>
										</g>
									</g>
								</g>
							</g>
						</g>
					</g>
				</g>
				<g>
					<g>
						<g>
							<g>
								<g>
									<g>
										<g>
											<g>
												<g>
													<g>
														<g>
															<g>
																<g>
																	<path style="fill:#263238;" d="M164.307,170.555c-0.132,1.997,1.45,3.755,3.533,3.931
																		c2.078,0.175,3.874-1.296,4.007-3.293c0.132-1.997-1.451-3.758-3.53-3.934
																		C166.235,167.083,164.439,168.557,164.307,170.555z"/>
																</g>
															</g>
														</g>
													</g>
												</g>
											</g>
										</g>
									</g>
								</g>
							</g>
						</g>
					</g>
				</g>
				<g>
					<g>
						<g>
							<g>
								<g>
									<g>
										<g>
											<g>
												<g>
													<g>
														<g>
															<g>
																<g>
																	<g>
																		<path style="fill:#263238;" d="M161.707,156.12c0.456,0.508,3.392-1.526,7.463-1.39
																			c4.07,0.077,6.996,2.264,7.452,1.779c0.223-0.214-0.223-1.119-1.5-2.107c-1.252-0.984-3.409-1.969-5.947-2.037
																			c-2.538-0.063-4.701,0.805-5.958,1.723C161.939,155.012,161.484,155.892,161.707,156.12z"/>
																	</g>
																</g>
															</g>
														</g>
													</g>
												</g>
											</g>
										</g>
									</g>
								</g>
							</g>
						</g>
					</g>
				</g>
				<g>
					<g>
						<g>
							<g>
								<g>
									<g>
										<g>
											<g>
												<g>
													<g>
														<g>
															<g>
																<g>
																	<g>
																		<path style="fill:#263238;" d="M148.058,187.752c0.025-0.23-2.493-0.746-6.58-1.397
																			c-1.037-0.14-2.015-0.376-2.168-1.092c-0.222-0.759,0.247-1.867,0.789-3.062c1.056-2.487,2.16-5.094,3.32-7.826
																			c4.618-11.146,7.996-20.324,7.546-20.506c-0.45-0.183-4.561,8.704-9.179,19.851
																			c-1.114,2.749-2.179,5.369-3.192,7.877c-0.43,1.17-1.149,2.491-0.665,4.066c0.256,0.786,1.002,1.374,1.664,1.574
																			c0.66,0.224,1.245,0.253,1.759,0.299C145.474,187.887,148.035,187.984,148.058,187.752z"/>
																	</g>
																</g>
															</g>
														</g>
													</g>
												</g>
											</g>
										</g>
									</g>
								</g>
							</g>
						</g>
					</g>
				</g>
				<g>
					<g>
						<path style="fill:#7B4B45;" d="M183.309,223.176c0,0-10.186,20.003-39.644,16.331l0.19-6.944
							C143.855,232.562,163.271,234.396,183.309,223.176z"/>
					</g>
				</g>
				<g>
					<g>
						<g>
							<g>
								<g>
									<g>
										<g>
											<g>
												<g>
													<g>
														<path style="fill:#263238;" d="M163.406,137.598c0.367,1.119,4.451,0.72,9.212,1.443
															c4.777,0.628,8.587,2.145,9.252,1.171c0.298-0.466-0.342-1.529-1.867-2.649c-1.512-1.118-3.946-2.211-6.805-2.619
															c-2.86-0.402-5.501-0.027-7.263,0.627C164.159,136.223,163.25,137.066,163.406,137.598z"/>
													</g>
												</g>
											</g>
										</g>
									</g>
								</g>
							</g>
						</g>
					</g>
				</g>
				<g>
					<g>
						<g>
							<g>
								<g>
									<g>
										<g>
											<g>
												<g>
													<g>
														<path style="fill:#263238;" d="M123.926,137.21c0.688,0.946,3.524,0.073,6.899,0.132
															c3.378-0.06,6.213,0.813,6.901-0.134c0.303-0.462-0.119-1.402-1.341-2.317c-1.204-0.911-3.24-1.687-5.561-1.689
															c-2.321,0.003-4.356,0.779-5.559,1.691C124.045,135.808,123.624,136.749,123.926,137.21z"/>
													</g>
												</g>
											</g>
										</g>
									</g>
								</g>
							</g>
						</g>
					</g>
				</g>
				<g>
					<g>
						<path style="fill:#263238;" d="M127.705,116.591c1.932-4.39,6.883-6.918,11.678-7.024c4.796-0.106,9.421,1.841,13.504,4.359
							c17.291,10.664,25.626,35.467,42.698,46.477c4.199,2.708,9.827,0.498,13.363,4.027c3.536,3.529,5.737,9.07,3.597,13.584
							c2.426-3.134,4.884-6.327,6.318-10.022c1.434-3.696,1.724-8.032-0.159-11.521c-1.429-2.647-4.027-4.71-4.673-7.649
							c-0.568-2.584,0.522-5.24,0.486-7.886c-0.036-2.694-1.231-5.225-2.49-7.607c-6.46-12.228-15.511-23.381-27.371-30.493
							c-7.749-4.647-16.681-7.49-25.717-7.44c-9.035,0.049-18.146,3.11-24.929,9.08C130.022,107.987,125.83,111.618,127.705,116.591
							"/>
					</g>
				</g>
				<g>
					<g>
						<g>
							<g>
								<g>
									<g>
										<g>
											<g>
												<g>
													<g>
														<g>
															<g>
																<g>
																	<g>
																		<g>
																			<g>
																				<path style="fill:#A26760;" d="M208.418,168.076c0.335-0.838,15.893-5.956,15.63,10.417
																					c-0.256,15.906-16.211,12.318-16.23,11.862C207.799,189.898,208.418,168.076,208.418,168.076z"/>
																			</g>
																		</g>
																	</g>
																</g>
															</g>
														</g>
													</g>
												</g>
											</g>
										</g>
									</g>
								</g>
							</g>
						</g>
					</g>
				</g>
				<g>
					<g>
						<g>
							<g>
								<g>
									<g>
										<g>
											<g>
												<g>
													<g>
														<g>
															<g>
																<g>
																	<g>
																		<g>
																			<g>
																				<g>
																					<path style="fill:#7B4B45;" d="M212.84,184.423c0.071-0.049,0.274,0.2,0.738,0.423
																						c0.452,0.218,1.235,0.377,2.071,0.083c1.692-0.584,3.158-3.225,3.29-6.09c0.068-1.447-0.208-2.831-0.7-3.982
																						c-0.464-1.173-1.2-2.001-2.043-2.167c-0.838-0.211-1.447,0.284-1.65,0.729
																						c-0.222,0.441-0.127,0.76-0.212,0.786c-0.045,0.039-0.336-0.273-0.195-0.927
																						c0.072-0.316,0.265-0.687,0.645-0.985c0.388-0.303,0.952-0.451,1.54-0.375
																						c1.225,0.108,2.308,1.257,2.847,2.521c0.607,1.27,0.952,2.827,0.875,4.452
																						c-0.163,3.203-1.862,6.171-4.173,6.791c-1.124,0.271-2.051-0.085-2.526-0.469
																						C212.861,184.808,212.785,184.451,212.84,184.423z"/>
																				</g>
																			</g>
																		</g>
																	</g>
																</g>
															</g>
														</g>
													</g>
												</g>
											</g>
										</g>
									</g>
								</g>
							</g>
						</g>
					</g>
				</g>
				<g>
					<g>
						<g>
							<path style="fill:#455A64;" d="M214.977,160.085c-0.013,0.021-0.338-0.173-0.945-0.562c-0.597-0.404-1.521-0.947-2.618-1.771
								c-2.176-1.67-5.186-4.304-8.361-8.059c-3.196-3.735-6.515-8.559-10.109-13.937c-3.602-5.366-7.554-11.306-12.656-16.714
								c-2.601-2.644-5.347-5.031-8.276-6.933c-2.922-1.916-5.999-3.354-9.029-4.412c-6.067-2.145-11.934-2.744-16.785-2.549
								c-4.871,0.166-8.748,1.088-11.347,1.89c-1.318,0.359-2.297,0.771-2.976,1.008c-0.678,0.244-1.039,0.361-1.049,0.338
								c-0.01-0.023,0.332-0.185,0.994-0.473c0.664-0.281,1.632-0.738,2.946-1.141c2.59-0.89,6.486-1.9,11.41-2.133
								c4.904-0.263,10.857,0.288,17.028,2.431c3.082,1.057,6.216,2.505,9.194,4.446c2.988,1.928,5.78,4.349,8.415,7.028
								c5.165,5.474,9.117,11.46,12.688,16.845c3.564,5.4,6.822,10.227,9.946,13.979c3.103,3.771,6.031,6.437,8.141,8.166
								c1.063,0.853,1.956,1.43,2.525,1.872C214.692,159.828,214.991,160.064,214.977,160.085z"/>
						</g>
					</g>
				</g>
				<g>
					<g>
						<g>
							<path style="fill:#FFFFFF;" d="M214.567,187.285c1.557-0.244,3.204,0.881,3.544,2.42c0.34,1.538-0.68,3.253-2.194,3.688
								c-1.514,0.436-3.289-0.476-3.817-1.96c-0.529-1.484,0.27-3.312,1.719-3.932"/>
						</g>
					</g>
				</g>
				<g>
					<g>
						<g>
							<g>
								<path style="fill:#263238;" d="M213.818,187.5c0.089,0.097-1.053,0.521-1.491,2.096c-0.206,0.751-0.134,1.758,0.55,2.514
									c0.647,0.752,1.841,1.243,2.939,0.935c1.094-0.321,1.846-1.372,1.995-2.353c0.179-1.003-0.295-1.895-0.868-2.422
									c-1.207-1.101-2.4-0.855-2.376-0.984c-0.008-0.039,0.249-0.157,0.75-0.154c0.494,0.003,1.246,0.175,1.964,0.751
									c0.707,0.543,1.376,1.636,1.193,2.904c-0.151,1.219-1.023,2.524-2.457,2.956c-1.445,0.394-2.876-0.249-3.651-1.201
									c-0.828-0.977-0.841-2.258-0.531-3.095c0.302-0.869,0.849-1.414,1.266-1.679C213.524,187.499,213.805,187.463,213.818,187.5
									z"/>
							</g>
						</g>
					</g>
				</g>
				<g>
					<g>
						<path style="fill:#263238;" d="M210.85,164.47c0.125,4.35,0.195,8.941-1.922,12.743c-2.117,3.802-7.252,6.283-10.967,4.017
							c-3.031-1.849-3.839-5.82-4.261-9.344c-1.219-10.17-1.617-20.428-2.924-30.588L210.85,164.47z"/>
					</g>
				</g>
				<g>
					<g>
						<path style="fill:#455A64;" d="M131.836,109.139c0.014,0.093,1.412-0.225,3.963-0.233c2.535,0.004,6.269,0.446,10.468,2.223
							c2.091,0.884,4.311,2.043,6.495,3.583c2.188,1.537,4.411,3.367,6.652,5.387c4.449,4.072,9.038,8.948,12.905,14.734
							c1.938,2.894,3.645,5.861,5.506,8.616c1.842,2.764,3.91,5.272,6.17,7.35c4.508,4.148,9.189,7.099,13.18,9.373
							c4.007,2.267,7.364,3.87,9.681,4.978c1.095,0.504,1.984,0.913,2.687,1.236c0.619,0.272,0.95,0.402,0.964,0.375
							c0.014-0.028-0.291-0.211-0.884-0.536c-0.683-0.362-1.547-0.821-2.611-1.386c-2.266-1.202-5.576-2.89-9.52-5.214
							c-3.93-2.331-8.528-5.311-12.935-9.428c-2.195-2.049-4.194-4.5-6.006-7.237c-1.827-2.726-3.529-5.697-5.489-8.624
							c-3.924-5.87-8.575-10.772-13.097-14.849c-2.281-2.025-4.536-3.847-6.784-5.385c-2.247-1.545-4.529-2.695-6.678-3.558
							c-4.314-1.737-8.141-2.089-10.712-1.985c-1.293,0.048-2.289,0.191-2.954,0.325
							C132.174,109.022,131.829,109.109,131.836,109.139z"/>
					</g>
				</g>
				<g>
					<g>
						<g>
							<path style="fill:#7B4B45;" d="M164.276,198.024c-0.119-1.527-0.628-2.993-1.133-4.439c-0.192-0.549-0.428-1.15-0.948-1.409
								c-0.522-0.26-1.146-0.084-1.701,0.096c-3.343,1.084-7.627,3.062-10.97,4.146c-0.509,2.229,0.223,4.801,1.644,6.623
								c1.081,1.387,3.904,1.955,5.663,1.933c2.544-0.031,4.625-0.682,6.262-2.629C164.078,201.172,164.394,199.551,164.276,198.024
								z"/>
						</g>
					</g>
					<g>
						<g>
							<g>
								<path style="fill:#263238;" d="M152.578,203.444c0.093-0.222,1.776,1.255,4.905,0.974c1.505-0.146,3.326-0.81,4.591-2.319
									c1.26-1.489,1.909-3.796,1.438-6.019c-0.24-1.08-0.747-2.169-1.442-2.828c-0.661-0.673-1.517-0.503-2.519-0.116
									c-1.853,0.758-3.603,1.474-5.246,2.146c-3.004,1.191-4.906,1.852-4.983,1.695c-0.076-0.157,1.692-1.104,4.624-2.513
									c1.624-0.756,3.352-1.561,5.183-2.414c0.509-0.201,1.08-0.431,1.779-0.464c0.704-0.052,1.492,0.271,1.991,0.747
									c1.009,0.955,1.536,2.168,1.847,3.481c0.555,2.636-0.241,5.31-1.793,7.046c-1.579,1.764-3.729,2.405-5.414,2.448
									c-1.721,0.05-3.058-0.45-3.865-0.917C152.862,203.911,152.533,203.497,152.578,203.444z"/>
							</g>
						</g>
					</g>
				</g>
			</g>
			<g>
				<g>
					<path style="fill:#7B4B45;" d="M179.43,179.17c-0.061,0.08-0.931-0.628-2.537-1.387c-0.798-0.388-1.798-0.741-2.931-1.03
						c-1.14-0.261-2.418-0.441-3.769-0.453c-1.351,0.009-2.63,0.185-3.771,0.444c-1.134,0.286-2.134,0.637-2.933,1.023
						c-1.608,0.756-2.48,1.462-2.54,1.381c-0.022-0.028,0.182-0.218,0.574-0.541c0.193-0.166,0.438-0.357,0.747-0.544
						c0.306-0.191,0.642-0.433,1.055-0.626c0.799-0.439,1.816-0.838,2.98-1.159c1.171-0.293,2.492-0.491,3.888-0.499
						c1.396,0.012,2.717,0.213,3.886,0.508c1.163,0.324,2.179,0.725,2.977,1.166c0.413,0.193,0.749,0.437,1.054,0.628
						c0.309,0.188,0.553,0.38,0.746,0.546C179.249,178.952,179.453,179.142,179.43,179.17z"/>
				</g>
			</g>
		</g>
		<g>
			<g>
				<path style="fill:#FF725E;" d="M90.296,469.548l155.904-0.193l-1.619-30.255l2.908-108.8l-3.173-70.875
					c-13.006-5.349-37.788-13.59-37.788-13.59s-9.188,22.081-33.196,22.081c-22.337,0-30.643-19.553-30.643-19.553l-11.058,4.364
					c0,0-20.13,2.88-41.336,11.607l5.522,75.639c0,0,11.601,63.642,9.613,74.912C103.442,426.156,90.296,469.548,90.296,469.548z"/>
			</g>
			<g style="opacity:0.3;">
				<g>
					<path d="M158.201,360.128c-1.305,8.617-2.243,18.542,3.642,24.971c3.393,3.706,8.38,5.4,12.801,7.789
						c9.081,4.907,16.011,12.959,22.286,21.154c6.275,8.195,12.202,16.809,20.061,23.5c7.859,6.691,18.144,11.346,28.364,9.898
						l-2.134-20.339l-52.893-53.854L158.201,360.128z"/>
				</g>
			</g>
			<g>
				<path style="fill:#FF725E;" d="M92.298,263.596c0,0-12.432,4.274-23.525,27.067c-6.854,14.084-31.675,100.003-32.604,110.76
					c-0.058,0.672,0.013,1.445-0.078,2.29c-3.246,29.998,25.495,50.72,49.846,34.553c7.274-4.829,12.573-12.112,15.261-20.42
					l9.408-29.076L92.298,263.596z"/>
			</g>
			<g>
				<g>
					<path style="fill:#263238;" d="M164.376,404.052c-0.076,0.122-10.71-6.35-23.749-14.454
						c-13.044-8.107-23.553-14.775-23.477-14.897c0.076-0.122,10.708,6.348,23.752,14.455
						C153.94,397.26,164.452,403.93,164.376,404.052z"/>
				</g>
			</g>
			<g>
				<path style="fill:#FF725E;" d="M244.317,259.427c0,0,29.662,5.674,36.023,26.064c5.631,18.049,18.702,98.737,20.465,115.538
					c2.408,22.953-2.621,48.66-27.159,51.252c-24.539,2.592-70.611-39.847-70.611-39.847l30.243-39.187l12.077,6.49l-2.215-55.945
					L244.317,259.427z"/>
			</g>
			<g>
				<g>
					<path style="fill:#263238;" d="M254.064,448.099c-0.003,0.007-0.101-0.026-0.291-0.098c-0.211-0.083-0.489-0.193-0.843-0.332
						c-0.73-0.32-1.859-0.69-3.225-1.379c-2.765-1.309-6.672-3.457-11.372-6.454c-9.368-6.046-21.887-15.456-35.466-27.211
						l-0.179-0.155l0.146-0.19c3.711-4.813,7.644-9.913,11.69-15.159c6.573-8.506,12.848-16.626,18.562-24.021l0.123-0.159
						l0.177,0.09c6.709,3.424,12.762,6.88,18.15,9.986c5.385,3.113,10.087,5.91,13.97,8.243c3.883,2.334,6.946,4.208,9.035,5.503
						c1.024,0.641,1.82,1.14,2.384,1.493c0.254,0.165,0.453,0.293,0.608,0.394c0.135,0.091,0.202,0.14,0.199,0.145
						s-0.078-0.031-0.22-0.111c-0.16-0.092-0.366-0.21-0.629-0.36c-0.573-0.337-1.383-0.814-2.424-1.427
						c-2.139-1.265-5.223-3.088-9.104-5.384c-3.904-2.297-8.624-5.061-14.022-8.145c-5.401-3.076-11.465-6.509-18.165-9.906
						l0.3-0.068c-5.705,7.402-11.97,15.53-18.533,24.044c-4.05,5.243-7.986,10.34-11.701,15.15l-0.033-0.344
						c13.539,11.757,26.009,21.212,35.308,27.319c4.667,3.029,8.538,5.215,11.272,6.569c1.35,0.712,2.464,1.106,3.182,1.453
						c0.347,0.156,0.619,0.28,0.826,0.373C253.974,448.044,254.067,448.091,254.064,448.099z"/>
				</g>
			</g>
			<g>
				<g>
					<path style="fill:#263238;" d="M97.251,330.763c-0.002,0.014-0.225-0.002-0.653-0.045c-0.464-0.051-1.09-0.12-1.885-0.208
						c-1.684-0.204-4.076-0.493-7.076-0.855c-6.092-0.773-14.644-1.858-24.658-3.129l0.264-0.172
						c-1.704,5.872-3.519,12.339-5.375,19.115c-3.966,14.488-7.305,27.67-9.5,37.262c-1.096,4.796-1.919,8.692-2.465,11.388
						c-0.263,1.32-0.471,2.359-0.62,3.107c-0.071,0.33-0.129,0.595-0.174,0.806c-0.042,0.181-0.068,0.273-0.077,0.272
						c-0.009-0.001,0-0.096,0.024-0.281c0.032-0.213,0.073-0.481,0.123-0.815c0.126-0.753,0.301-1.799,0.524-3.127
						c0.485-2.71,1.255-6.621,2.305-11.431c2.104-9.62,5.389-22.825,9.357-37.319c1.857-6.78,3.684-13.244,5.412-19.115l0.059-0.2
						l0.205,0.028c10.004,1.347,18.548,2.497,24.634,3.316c2.992,0.421,5.378,0.756,7.058,0.993c0.79,0.12,1.413,0.214,1.875,0.284
						C97.033,330.707,97.253,330.749,97.251,330.763z"/>
				</g>
			</g>
			<g>
				<g>
					<path style="fill:#263238;" d="M103.062,317.829c0.144-0.005,0.987,20.522,1.883,45.842
						c0.896,25.329,1.507,45.859,1.363,45.865c-0.144,0.005-0.987-20.517-1.883-45.846
						C103.528,338.369,102.918,317.834,103.062,317.829z"/>
				</g>
			</g>
			<g>
				<g>
					<path style="fill:#263238;" d="M243.239,327.078c0.018,0.001,0.03,0.186,0.037,0.538c0.001,0.41,0.002,0.917,0.004,1.536
						c-0.003,1.332,0.011,3.261,0.066,5.644c0.098,4.766,0.354,11.348,0.704,18.615c0.379,7.234,0.722,13.78,0.976,18.612
						c0.118,2.325,0.216,4.234,0.287,5.641c0.023,0.618,0.041,1.125,0.056,1.535c0.007,0.351,0.003,0.537-0.015,0.538
						c-0.018,0.001-0.049-0.181-0.09-0.531c-0.041-0.408-0.092-0.913-0.154-1.529c-0.113-1.405-0.266-3.311-0.452-5.632
						c-0.347-4.758-0.779-11.336-1.128-18.61c-0.351-7.271-0.548-13.862-0.552-18.636c-0.009-2.387,0.034-4.319,0.099-5.653
						c0.038-0.618,0.069-1.125,0.094-1.535C243.198,327.26,243.221,327.077,243.239,327.078z"/>
				</g>
			</g>
			<g>
				<g>
					<path style="fill:#263238;" d="M264.058,281.044c0.121,0.078-4.824,8.005-11.044,17.705
						c-6.222,9.703-11.363,17.503-11.484,17.425c-0.121-0.078,4.823-8.004,11.045-17.706
						C258.796,288.769,263.937,280.967,264.058,281.044z"/>
				</g>
			</g>
		</g>
		<g>
			<g>
				<path style="fill:#A26760;" d="M111.676,261.443c-3.427,0.145-3.77-1.717-7.547,3.872c-3.777,5.589-1.625,12.114-7.93,13.202
					c-6.305,1.087-10.341-12.382-10.953-13.659c-0.276-0.577-1.875-4.095-3.979-8.719c-2.553-5.612-5.849-12.852-8.426-18.439
					c-4.701-10.191-9.448-6.105-9.448-6.105l8.268,29.744c0,0-11.93-22.131-16.989-27.016c-5.058-4.886-8.444-0.606-8.444-0.606
					l16.158,31.461c0,0-12.761-17.686-16.403-22.767c-3.642-5.081-6.642-4.912-7.67-3.259c-1.029,1.653-0.3,4.903,0.923,7.458
					s16.71,26.183,16.127,26.1c-0.583-0.083-13.117-9.603-16.451-11.267c-3.334-1.665-6.111-0.274-6.526,2.643
					c-0.415,2.917,23.903,24.429,23.903,24.429l10.572,27.492l-1.848,10.721l30.527,3.575l0.533-15.955
					c0,0,6.835-10.474,9.302-18.059c2.467-7.585,6.261-27.281,7.537-29.281C114.19,265.005,115.103,261.298,111.676,261.443z"/>
			</g>
			<g>
				<g>
					<path style="fill:#7B4B45;" d="M95.225,296.234c-0.011,0.042-0.633-0.123-1.774-0.314c-1.138-0.191-2.807-0.39-4.866-0.304
						c-1.032,0.04-2.142,0.179-3.348,0.384c-1.198,0.18-2.563,0.391-3.961,0c-1.394-0.376-2.628-1.317-3.648-2.429
						c-1.038-1.112-1.916-2.399-2.892-3.632c-3.877-4.989-8.176-8.824-11.466-11.325c-1.645-1.256-3.03-2.202-3.996-2.843
						c-0.967-0.638-1.505-0.99-1.485-1.024c0.009-0.016,0.155,0.052,0.426,0.196c0.269,0.146,0.669,0.356,1.167,0.656
						c1.002,0.591,2.425,1.494,4.108,2.72c3.365,2.439,7.744,6.267,11.656,11.3c0.988,1.25,1.856,2.527,2.855,3.606
						c0.984,1.082,2.132,1.958,3.404,2.314c1.268,0.372,2.572,0.198,3.768,0.035c1.203-0.186,2.355-0.308,3.4-0.325
						c2.095-0.04,3.78,0.219,4.916,0.473c0.57,0.126,1.005,0.25,1.298,0.342C95.08,296.159,95.23,296.217,95.225,296.234z"/>
				</g>
			</g>
		</g>
		<g>
			<g>
				<path style="fill:#263238;" d="M157.096,307.8l1.336,68.917c0.068,3.518,2.979,6.312,6.496,6.237l29.041-0.618
					c3.4-0.072,6.142-2.806,6.225-6.206l1.666-68.298c0.087-3.573-2.786-6.517-6.36-6.517h-32.044
					C159.895,301.314,157.027,304.238,157.096,307.8z"/>
			</g>
			<g>
				<path style="fill:#FFFFFF;" d="M182.644,314.508c0,1.478-1.198,2.675-2.675,2.675c-1.477,0-2.675-1.198-2.675-2.675
					c0-1.477,1.198-2.675,2.675-2.675C181.446,311.832,182.644,313.03,182.644,314.508z"/>
			</g>
		</g>
		<g>
			<g>
				<path style="fill:#A26760;" d="M201.145,323.607c0,0,8.31,9.841,11.372,14.215c3.062,4.374,4.155,18.589,4.155,18.589
					l1.968,16.404l11.606,6.748l-21.734,27.394l-17.893-16.653l-17.236-6.338c0,0-11.601-10.934-13.569-15.964
					c-1.968-5.03-1.749-8.966-1.749-8.966s-5.467-11.809-6.561-15.964c-1.093-4.155-1.093-11.59-1.093-11.59
					s3.062-0.875,5.686,4.155l-4.155-8.529c0,0,2.187-6.561,7.873-0.219c5.686,6.342,15.089,17.058,15.089,17.058l10.716,8.529
					l1.312-1.531c0,0-19.026-23.181-18.589-27.336c0.437-4.155,4.374-4.374,8.529,0c4.155,4.374,21.213,26.243,23.4,26.461
					c2.187,0.219,2.843-2.843,2.843-2.843l-1.531-8.31l-0.875-1.75L201.145,323.607z"/>
			</g>
			<g>
				<g>
					<path style="fill:#7B4B45;" d="M171.645,358.173c-0.028,0.022-0.3-0.27-0.766-0.818c-0.468-0.547-1.124-1.355-1.918-2.366
						c-1.589-2.023-3.711-4.876-5.923-8.119c-2.211-3.245-4.092-6.263-5.395-8.481c-0.652-1.109-1.164-2.015-1.502-2.65
						c-0.339-0.634-0.512-0.994-0.481-1.012c0.031-0.018,0.263,0.306,0.655,0.909c0.448,0.699,0.996,1.554,1.641,2.561
						c1.38,2.165,3.305,5.143,5.511,8.38c2.207,3.235,4.276,6.114,5.787,8.19c0.701,0.968,1.297,1.791,1.784,2.464
						C171.456,357.816,171.674,358.151,171.645,358.173z"/>
				</g>
			</g>
			<g>
				<g>
					<path style="fill:#7B4B45;" d="M166.525,369.125c-0.117,0.084-2.432-2.926-5.17-6.723c-2.739-3.798-4.865-6.944-4.748-7.028
						c0.117-0.084,2.431,2.926,5.17,6.723C164.516,365.895,166.641,369.041,166.525,369.125z"/>
				</g>
			</g>
		</g>
	</g>
</g>
</svg>
