<?xml version="1.0" encoding="utf-8"?>
<!-- Generator: Adobe Illustrator 27.5.0, SVG Export Plug-In . SVG Version: 6.00 Build 0)  -->
<svg version="1.1" xmlns="http://www.w3.org/2000/svg" xmlns:xlink="http://www.w3.org/1999/xlink" x="0px" y="0px"
	 viewBox="0 0 500 500" style="enable-background:new 0 0 500 500;" xml:space="preserve">
<g id="Background_Complete">
	<g>
		<g>
			<g>
				<g>
					<g>
						<path style="fill:#E0E0E0;" d="M300.646,135.204c-0.719,0.045-1.383,0.492-1.673,1.203l-3.62,8.921
							c-0.229,0.561-0.18,1.197,0.13,1.716c0.31,0.52,0.846,0.865,1.448,0.932c1.578,0.175,3.072,1.065,4.096,2.442
							c0.943,1.266,1.34,2.778,1.089,4.148c-0.249,1.365-1.157,2.651-2.492,3.528c-1.43,0.939-3.173,1.293-4.671,0.945
							c-3.06-0.709-5.43-4.092-5.175-7.387c0.082-1.064-0.713-1.994-1.778-2.076c-1.083-0.08-1.995,0.714-2.077,1.779
							c-0.401,5.178,3.258,10.316,8.158,11.451c2.54,0.589,5.338,0.05,7.666-1.481c2.214-1.454,3.735-3.665,4.174-6.065
							c0.443-2.421-0.209-5.028-1.791-7.152c-1.143-1.535-2.665-2.7-4.363-3.373l2.792-6.876c0.401-0.99-0.075-2.117-1.065-2.518
							C301.214,135.23,300.926,135.187,300.646,135.204z"/>
					</g>
				</g>
			</g>
		</g>
		<g>
			<g>
				<g>
					<g>
						<path style="fill:#E0E0E0;" d="M304.635,132.454c0.349-0.801-0.017-1.733-0.818-2.082c-0.801-0.349-1.733,0.017-2.082,0.818
							c-0.349,0.801,0.017,1.733,0.818,2.082C303.354,133.621,304.286,133.255,304.635,132.454z"/>
					</g>
				</g>
			</g>
		</g>
	</g>
	<g>
		<g>
			<g>
				<g>
					<g>
						<path style="fill:#E0E0E0;" d="M244.672,65.073c0.288-0.654,0.198-1.444-0.298-2.025l-6.216-7.265
							c-0.39-0.458-0.973-0.705-1.573-0.669c-0.6,0.036-1.149,0.351-1.483,0.852c-0.875,1.312-2.342,2.223-4.024,2.498
							c-1.548,0.254-3.062-0.086-4.156-0.933c-1.091-0.843-1.81-2.231-1.974-3.809c-0.175-1.689,0.308-3.389,1.299-4.552
							c2.022-2.375,6.088-2.921,8.878-1.193c0.901,0.559,2.085,0.281,2.643-0.62c0.565-0.919,0.281-2.085-0.621-2.644
							c-4.385-2.717-10.587-1.835-13.825,1.968c-1.679,1.972-2.481,4.685-2.194,7.438c0.272,2.617,1.527,4.967,3.444,6.45
							c1.934,1.496,4.531,2.111,7.126,1.685c1.876-0.307,3.599-1.118,4.967-2.309l4.79,5.601c0.69,0.806,1.902,0.9,2.707,0.21
							C244.39,65.562,244.56,65.328,244.672,65.073z"/>
					</g>
				</g>
			</g>
		</g>
		<g>
			<g>
				<g>
					<g>
						<path style="fill:#E0E0E0;" d="M245.277,69.847c0.547,0.673,1.536,0.776,2.21,0.229c0.673-0.547,0.776-1.536,0.229-2.21
							c-0.547-0.673-1.536-0.776-2.21-0.229C244.832,68.184,244.73,69.174,245.277,69.847z"/>
					</g>
				</g>
			</g>
		</g>
	</g>
	<g>
		<g>
			<g>
				<g>
					<rect x="372.99" y="70.358" style="fill:#E0E0E0;" width="88.833" height="128.761"/>
				</g>
			</g>
		</g>
		<g>
			<g>
				<g>
					<rect x="368.54" y="70.358" style="fill:#F5F5F5;" width="88.834" height="128.761"/>
				</g>
			</g>
		</g>
		<g>
			<g>
				<g>
					<g>
						<rect x="379.577" y="84.304" style="fill:#FFFFFF;" width="66.76" height="100.869"/>
					</g>
				</g>
			</g>
			<g>
				<g>
					<g>
						<g>
							<path style="fill:#E0E0E0;" d="M446.337,185.173c0,0-0.009-0.171-0.013-0.493c-0.003-0.333-0.007-0.808-0.013-1.43
								c-0.006-1.268-0.015-3.123-0.027-5.533c-0.014-4.834-0.034-11.879-0.06-20.779c-0.027-17.787-0.065-42.974-0.109-72.634
								l0.221,0.221c-20.396,0.006-42.997,0.013-66.752,0.02h-0.008l0.241-0.242c-0.018,38.052-0.036,73.136-0.049,100.869
								l-0.192-0.192c20.331,0.042,36.996,0.077,48.592,0.101c5.801,0.021,10.331,0.038,13.425,0.049
								c1.538,0.009,2.716,0.017,3.524,0.022C445.916,185.16,446.337,185.173,446.337,185.173s-0.393,0.014-1.178,0.021
								c-0.8,0.005-1.966,0.012-3.488,0.022c-3.084,0.011-7.6,0.028-13.382,0.049c-11.625,0.024-28.331,0.059-48.712,0.101
								l-0.193,0.001l0-0.193c-0.014-27.733-0.031-62.817-0.049-100.869l0-0.242h0.242h0.008c23.755,0.007,46.355,0.014,66.752,0.02
								l0.222,0l0,0.222c-0.044,29.72-0.082,54.957-0.109,72.78c-0.026,8.878-0.046,15.906-0.06,20.728
								c-0.012,2.39-0.021,4.231-0.027,5.488c-0.006,0.611-0.01,1.078-0.013,1.405C446.345,185.02,446.337,185.173,446.337,185.173z
								"/>
						</g>
					</g>
				</g>
			</g>
		</g>
		<g>
			<g>
				<g>
					<g>
						<path style="fill:none;stroke:#FBFBFB;stroke-width:0.25;stroke-miterlimit:10;" d="M443.241,84.977"/>
					</g>
				</g>
			</g>
		</g>
		<g>
			<g>
				<g>
					<g>
						<path style="fill:#E0E0E0;" d="M457.623,70.358c0.052,0.04-0.551,0.921-1.583,2.301c-1.032,1.38-2.497,3.257-4.168,5.287
							c-1.672,2.03-3.234,3.827-4.391,5.105c-1.157,1.277-1.905,2.038-1.954,1.995c-0.051-0.045,0.606-0.884,1.695-2.217
							c1.191-1.445,2.656-3.223,4.277-5.189c1.619-1.967,3.083-3.745,4.273-5.191C456.871,71.123,457.569,70.317,457.623,70.358z"/>
					</g>
				</g>
			</g>
		</g>
		<g>
			<g>
				<g>
					<g>
						<path style="fill:#FFFFFF;" d="M446.677,184.848c3.316,5.272,7.23,10.168,11.644,14.562"/>
					</g>
				</g>
			</g>
			<g>
				<g>
					<g>
						<g>
							<path style="fill:#E0E0E0;" d="M458.321,199.411c-0.044,0.044-0.836-0.643-2.03-1.847c-1.194-1.202-2.776-2.934-4.392-4.954
								c-1.616-2.022-2.956-3.946-3.867-5.375c-0.911-1.429-1.408-2.353-1.355-2.386c0.06-0.038,0.658,0.821,1.638,2.195
								c0.979,1.374,2.355,3.255,3.961,5.265c1.607,2.008,3.139,3.764,4.264,5.022C457.665,198.588,458.371,199.361,458.321,199.411
								z"/>
						</g>
					</g>
				</g>
			</g>
		</g>
		<g>
			<g>
				<g>
					<g>
						<path style="fill:#FFFFFF;" d="M368.527,199.017c3.879-4.785,7.757-9.571,11.636-14.356"/>
					</g>
				</g>
			</g>
			<g>
				<g>
					<g>
						<g>
							<path style="fill:#E0E0E0;" d="M380.163,184.661c0.104,0.084-2.417,3.366-5.63,7.33c-3.214,3.965-5.902,7.11-6.006,7.026
								c-0.104-0.084,2.417-3.365,5.63-7.331C377.37,187.723,380.059,184.577,380.163,184.661z"/>
						</g>
					</g>
				</g>
			</g>
		</g>
		<g>
			<g>
				<g>
					<g>
						<path style="fill:#E0E0E0;" d="M368.54,70.358c0.105-0.083,2.634,2.94,5.648,6.751c3.015,3.812,5.374,6.969,5.269,7.052
							c-0.105,0.083-2.633-2.94-5.648-6.752C370.794,73.598,368.435,70.441,368.54,70.358z"/>
					</g>
				</g>
			</g>
		</g>
		<g>
			<g>
				<g>
					<rect x="403.183" y="104.785" style="fill:#E0E0E0;" width="22.354" height="63.469"/>
				</g>
			</g>
		</g>
	</g>
	<g>
		<g>
			<g>
				<g>
					<g>
						<g>
							
								<rect x="112.379" y="76.039" transform="matrix(1 -0.0054 0.0054 1 -0.5008 0.6229)" style="fill:#E0E0E0;" width="7.107" height="35.362"/>
						</g>
					</g>
				</g>
			</g>
		</g>
		<g>
			<g>
				<g>
					<g>
						<g>
							<g>
								
									<rect x="50.77" y="76.162" transform="matrix(1 -0.0054 0.0054 1 -0.459 0.3222)" style="fill:#EBEBEB;" width="18.403" height="19.522"/>
							</g>
						</g>
					</g>
				</g>
			</g>
			<g>
				<g>
					<g>
						<g>
							<g>
								
									<rect x="69.086" y="76.064" transform="matrix(1 -0.0054 0.0054 1 -0.4582 0.4202)" style="fill:#F5F5F5;" width="18.403" height="19.522"/>
							</g>
						</g>
					</g>
				</g>
			</g>
			<g>
				<g>
					<g>
						<g>
							<g>
								<g>
									<path style="fill:#E0E0E0;" d="M50.747,81.603c12.23,0.101,24.49,0.03,36.719-0.169c0.252-0.004,0.25-0.39-0.002-0.391
										c-12.23-0.068-24.491-0.007-36.719,0.225C50.529,81.271,50.531,81.601,50.747,81.603L50.747,81.603z"/>
								</g>
							</g>
						</g>
					</g>
				</g>
			</g>
		</g>
		<g>
			<g>
				<g>
					<g>
						<g>
							<g>
								
									<rect x="39.286" y="95.398" transform="matrix(1 -0.0054 0.0054 1 -0.5528 0.3015)" style="fill:#EBEBEB;" width="33.436" height="15.909"/>
							</g>
						</g>
					</g>
				</g>
			</g>
			<g>
				<g>
					<g>
						<g>
							<g>
								
									<rect x="72.564" y="95.22" transform="matrix(1 -0.0054 0.0054 1 -0.5514 0.4797)" style="fill:#F5F5F5;" width="33.436" height="15.909"/>
							</g>
						</g>
					</g>
				</g>
			</g>
			<g>
				<g>
					<g>
						<g>
							<g>
								<g>
									<path style="fill:#E0E0E0;" d="M39.268,99.913c22.212,0.251,44.502,0.026,66.713-0.329c0.252-0.004,0.25-0.39-0.002-0.391
										c-22.214-0.117-44.505-0.104-66.713,0.385C39.05,99.582,39.052,99.91,39.268,99.913L39.268,99.913z"/>
								</g>
							</g>
						</g>
					</g>
				</g>
			</g>
		</g>
		<g>
			<g>
				<g>
					<g>
						<g>
							<rect x="26.764" y="111.397" style="fill:#E0E0E0;" width="129.54" height="5.699"/>
						</g>
					</g>
				</g>
			</g>
			<g>
				<g>
					<g>
						<g>
							<rect x="47.972" y="114.137" style="fill:#E0E0E0;" width="5.259" height="19.448"/>
						</g>
					</g>
				</g>
			</g>
			<g>
				<g>
					<g>
						<g>
							<rect x="126.473" y="114.137" style="fill:#E0E0E0;" width="5.259" height="19.448"/>
						</g>
					</g>
				</g>
			</g>
		</g>
		<g>
			<g>
				<g>
					<g>
						<g>
							
								<rect x="119.349" y="62.853" transform="matrix(1 -0.0054 0.0054 1 -0.4656 0.6601)" style="fill:#EBEBEB;" width="7.107" height="48.635"/>
						</g>
					</g>
				</g>
			</g>
		</g>
		<g>
			<g>
				<g>
					<g>
						<g>
							<g>
								
									<rect x="126.492" y="71.917" transform="matrix(1 -0.0054 0.0054 1 -0.4901 0.7103)" style="fill:#F5F5F5;" width="11.043" height="39.413"/>
							</g>
						</g>
					</g>
				</g>
			</g>
			<g>
				<g>
					<g>
						<g>
							<g>
								<path style="fill:#E0E0E0;" d="M137.355,79.48c0,0.106-2.472,0.191-5.521,0.191c-3.05,0-5.521-0.086-5.521-0.191
									c0-0.106,2.472-0.191,5.521-0.191C134.883,79.289,137.355,79.375,137.355,79.48z"/>
							</g>
						</g>
					</g>
				</g>
			</g>
			<g>
				<g>
					<g>
						<g>
							<g>
								<path style="fill:#E0E0E0;" d="M137.355,77.825c0,0.106-2.472,0.191-5.521,0.191c-3.05,0-5.521-0.086-5.521-0.191
									c0-0.106,2.472-0.191,5.521-0.191C134.883,77.633,137.355,77.719,137.355,77.825z"/>
							</g>
						</g>
					</g>
				</g>
			</g>
			<g>
				<g>
					<g>
						<g>
							<g>
								<path style="fill:#E0E0E0;" d="M137.355,105.37c0,0.106-2.472,0.191-5.521,0.191c-3.05,0-5.521-0.086-5.521-0.191
									c0-0.106,2.472-0.191,5.521-0.191C134.883,105.179,137.355,105.265,137.355,105.37z"/>
							</g>
						</g>
					</g>
				</g>
			</g>
			<g>
				<g>
					<g>
						<g>
							<g>
								<path style="fill:#E0E0E0;" d="M137.355,103.715c0,0.106-2.472,0.191-5.521,0.191c-3.05,0-5.521-0.086-5.521-0.191
									c0-0.106,2.472-0.191,5.521-0.191C134.883,103.523,137.355,103.609,137.355,103.715z"/>
							</g>
						</g>
					</g>
				</g>
			</g>
			<g>
				<g>
					<g>
						<g>
							<g>
								<path style="fill:#E0E0E0;" d="M132.011,100.102c-0.106,0-0.191-3.976-0.191-8.88c0-4.906,0.086-8.881,0.191-8.881
									c0.106,0,0.191,3.976,0.191,8.881C132.203,96.126,132.117,100.102,132.011,100.102z"/>
							</g>
						</g>
					</g>
				</g>
			</g>
		</g>
		<g>
			<g>
				<g>
					<g>
						<g>
							<rect x="137.475" y="81.566" style="fill:#EBEBEB;" width="12.02" height="29.749"/>
						</g>
					</g>
				</g>
			</g>
		</g>
		<g>
			<g>
				<g>
					<g>
						<path style="fill:#E0E0E0;" d="M124.71,71.137c0,1.128-0.914,2.043-2.042,2.043s-2.043-0.914-2.043-2.043
							c0-1.128,0.914-2.043,2.043-2.043S124.71,70.009,124.71,71.137z"/>
					</g>
				</g>
			</g>
		</g>
		<g>
			<g>
				<g>
					<g>
						<rect x="122.036" y="76.755" style="fill:#E0E0E0;" width="1.263" height="28.932"/>
					</g>
				</g>
			</g>
		</g>
	</g>
</g>
<g id="Background_Simple" style="display:none;">
	<path style="display:inline;fill:#F5F5F5;" d="M401.941,191.704c-17.103-15.465-42.524-17.398-65.42-14.664
		c-22.896,2.734-40.328,10.682-63.337,9.165c-16.681-1.1-35.228-9.2-47.354-23.034c-6.309-7.197-10.172-16.189-11.627-25.649
		c-3.589-23.345-9.435-38.539-27.954-50.825c-20.432-13.556-47.676-14.773-70.542-5.921c-22.866,8.853-41.453,26.883-53.959,47.974
		c-24.585,41.462-26.052,94.845-7.102,139.167c18.949,44.322,56.998,79.333,101.391,98.114
		c44.393,18.782,94.625,21.917,141.928,12.644c34.126-6.69,68.201-20.515,91.332-46.482c17.26-19.377,27.358-44.485,31.104-70.163
		C424.047,237.041,420.673,208.642,401.941,191.704z"/>
</g>
<g id="Floor">
	<g>
		<g>
			<g>
				<path style="fill:#263238;" d="M464,478.814c0,0.144-95.819,0.26-213.99,0.26c-118.212,0-214.01-0.117-214.01-0.26
					s95.798-0.26,214.01-0.26C368.181,478.553,464,478.67,464,478.814z"/>
			</g>
		</g>
	</g>
</g>
<g id="Character">
	<g>
		<g>
			<g>
				<g>
					<rect x="84.267" y="239.3" style="fill:#E0E0E0;" width="290.205" height="9.293"/>
				</g>
			</g>
			<g>
				<g>
					<polygon style="fill:#E0E0E0;" points="110.602,479.288 101.181,479.255 101.181,247.366 110.602,247.366 					"/>
				</g>
			</g>
			<g>
				<g>
					<polygon style="fill:#E0E0E0;" points="360.683,479.267 351.165,479.267 351.262,247.366 360.683,247.366 					"/>
				</g>
			</g>
		</g>
		<g>
			<g>
				<g>
					<path style="fill:#E8505B;" d="M196.728,153.861c0,0,51.804,54.27,50.889,66.314c-0.915,12.044-12.506,14.656-16.292,14.189
						c-3.786-0.467-32.262-32.186-32.262-32.186L196.728,153.861z"/>
				</g>
			</g>
			<g style="opacity:0.4;">
				<g>
					<path d="M196.728,153.861c0,0,51.804,54.27,50.889,66.314c-0.915,12.044-12.506,14.656-16.292,14.189
						c-3.786-0.467-32.262-32.186-32.262-32.186L196.728,153.861z"/>
				</g>
			</g>
		</g>
		<g>
			<g>
				<g>
					<g>
						<polygon style="fill:#FFBE9D;" points="224.334,421.976 238.377,468.973 254.164,460.401 245.195,417.375 						"/>
					</g>
				</g>
				<g>
					<g>
						<g>
							<g>
								<path style="fill:#E8505B;" d="M252.226,439.721l4.837,22.243c0,0,24.233,2.554,25.527,6.578l-42.792,10.926l-8.958-34.349
									L252.226,439.721z"/>
							</g>
						</g>
						<g>
							<g>
								<g>
									<path style="fill:#E0E0E0;" d="M243.357,463.489c-0.77,0.438-1.105,1.515-0.699,2.303c0.406,0.788,1.499,1.137,2.277,0.713
										c0.778-0.424,1.219-1.705,0.728-2.442c-0.491-0.737-1.797-1.078-2.45-0.479"/>
								</g>
							</g>
						</g>
						<g style="opacity:0.4;">
							<g>
								<path d="M239.798,479.469l-0.768-3.497l41.315-9.168c0,0,2.117,0.342,2.244,1.739L239.798,479.469z"/>
							</g>
						</g>
						<g>
							<g>
								<g>
									<path style="fill:#263238;" d="M257.7,461.569c0.046,0.211-0.974,0.572-1.831,1.507c-0.881,0.912-1.18,1.952-1.393,1.919
										c-0.203,0.009-0.21-1.32,0.847-2.433C256.369,461.439,257.696,461.366,257.7,461.569z"/>
								</g>
							</g>
						</g>
						<g>
							<g>
								<g>
									<path style="fill:#263238;" d="M262.662,462.28c0.1,0.19-0.715,0.777-1.199,1.842c-0.515,1.051-0.45,2.052-0.661,2.096
										c-0.188,0.083-0.645-1.104-0.018-2.417C261.4,462.483,262.607,462.082,262.662,462.28z"/>
								</g>
							</g>
						</g>
						<g>
							<g>
								<g>
									<path style="fill:#263238;" d="M266.583,467c-0.179,0.093-0.736-0.877-0.492-2.158c0.235-1.283,1.105-1.986,1.238-1.835
										c0.162,0.142-0.316,0.918-0.5,1.973C266.62,466.031,266.785,466.927,266.583,467z"/>
								</g>
							</g>
						</g>
						<g>
							<g>
								<g>
									<path style="fill:#263238;" d="M256.035,456.622c-0.039,0.213-1.071,0.169-2.232,0.551
										c-1.168,0.358-1.986,0.989-2.141,0.838c-0.159-0.12,0.54-1.123,1.914-1.553
										C254.946,456.017,256.096,456.432,256.035,456.622z"/>
								</g>
							</g>
						</g>
					</g>
					<g>
						<g>
							<g>
								<path style="fill:#263238;" d="M254.977,452.153c0.024,0.086-0.768,0.426-2.146,0.536c-0.686,0.054-1.514,0.037-2.418-0.116
									c-0.451-0.077-0.921-0.188-1.397-0.339c-0.23-0.077-0.496-0.145-0.776-0.339c-0.287-0.159-0.56-0.679-0.38-1.087
									c0.135-0.385,0.486-0.626,0.794-0.711c0.313-0.091,0.585-0.092,0.832-0.094c0.506-0.006,0.993,0.038,1.449,0.117
									c0.913,0.163,1.697,0.464,2.307,0.792c1.228,0.666,1.766,1.36,1.704,1.419c-0.077,0.093-0.727-0.438-1.931-0.939
									c-0.6-0.249-1.343-0.475-2.186-0.589c-0.422-0.055-0.867-0.081-1.327-0.065c-0.484-0.003-0.87,0.092-0.935,0.323
									c-0.023,0.088-0.02,0.12,0.108,0.228c0.129,0.097,0.344,0.17,0.57,0.246c0.442,0.15,0.877,0.268,1.297,0.358
									c0.841,0.18,1.619,0.25,2.275,0.265C254.13,452.188,254.952,452.039,254.977,452.153z"/>
							</g>
						</g>
					</g>
					<g>
						<g>
							<g>
								<path style="fill:#263238;" d="M254.781,452.522c-0.066,0.051-0.672-0.592-1.094-1.926
									c-0.207-0.662-0.345-1.493-0.307-2.421c0.022-0.463,0.089-0.949,0.214-1.441c0.143-0.487,0.304-1.131,1.091-1.431
									c0.419-0.124,0.855,0.117,1.048,0.369c0.215,0.253,0.307,0.495,0.421,0.729c0.206,0.48,0.322,0.972,0.37,1.443
									c0.098,0.945-0.081,1.798-0.35,2.448c-0.553,1.322-1.361,1.795-1.397,1.729c-0.097-0.087,0.529-0.677,0.897-1.906
									c0.181-0.606,0.285-1.37,0.164-2.187c-0.059-0.407-0.173-0.826-0.356-1.228c-0.183-0.438-0.447-0.761-0.606-0.671
									c-0.213,0.051-0.488,0.486-0.57,0.893c-0.122,0.44-0.196,0.877-0.234,1.297c-0.071,0.842,0.002,1.612,0.131,2.245
									C254.464,451.736,254.887,452.461,254.781,452.522z"/>
							</g>
						</g>
					</g>
				</g>
			</g>
			<g>
				<g>
					<path style="fill:#263238;" d="M186.196,287.97c0.52,2.08,37.205,151.751,37.205,151.751l33.313-10.057l-31.452-151.601
						L186.196,287.97z"/>
				</g>
			</g>
		</g>
		<g>
			<g>
				<g>
					<g>
						<g>
							<g>
								<g>
									<g>
										<g>
											<g>
												<g>
													<g>
														<g>
															<g>
																<g>
																	<g>
																		<path style="fill:#FFBE9D;" d="M181.294,96.749l-5.822,44.719c-0.99,7.605,4.585,14.49,12.229,15.104l0,0
																			c7.134,0.573,13.462-4.563,14.378-11.661c0.435-3.367,0.804-6.173,0.872-6.517c0,0,11.523,0.411,13.812-10.749
																			c1.106-5.393,2.48-16.687,3.604-26.919c1.208-10.989-6.24-21.059-17.096-23.146l-1.079-0.208
																			C190.424,75.815,182.526,84.941,181.294,96.749z"/>
																	</g>
																</g>
															</g>
														</g>
													</g>
												</g>
											</g>
										</g>
									</g>
									<g>
										<g>
											<g>
												<g>
													<g>
														<g>
															<g>
																<g>
																	<g>
																		<path style="fill:#EB996E;" d="M203.001,138.237c0,0-7.181-0.784-13.787-6.949c0,0,1.899,8.714,13.256,9.852
																			L203.001,138.237z"/>
																	</g>
																</g>
															</g>
														</g>
													</g>
												</g>
											</g>
										</g>
									</g>
								</g>
							</g>
						</g>
						<g>
							<g>
								<g>
									<g>
										<g>
											<g>
												<g>
													<g>
														<g>
															<g>
																<g>
																	<g>
																		<g>
																			<g>
																				<g>
																					<path style="fill:#263238;" d="M217.17,107.046c-0.132,0.849-0.961,1.438-1.85,1.316
																						c-0.888-0.122-1.502-0.908-1.37-1.757c0.132-0.849,0.961-1.439,1.849-1.317
																						C216.688,105.409,217.303,106.196,217.17,107.046z"/>
																				</g>
																			</g>
																		</g>
																	</g>
																</g>
															</g>
														</g>
													</g>
												</g>
												<g>
													<g>
														<g>
															<g>
																<g>
																	<g>
																		<g>
																			<g>
																				<g>
																					<g>
																						<path style="fill:#263238;" d="M217.263,105.121c-0.238,0.17-1.276-0.958-2.997-1.284
																							c-1.713-0.35-3.145,0.292-3.291,0.045c-0.074-0.111,0.2-0.448,0.826-0.742
																							c0.617-0.294,1.614-0.504,2.684-0.294c1.07,0.212,1.895,0.779,2.335,1.282
																							C217.272,104.635,217.379,105.046,217.263,105.121z"/>
																					</g>
																				</g>
																			</g>
																		</g>
																	</g>
																</g>
															</g>
														</g>
													</g>
												</g>
											</g>
											<g>
												<g>
													<g>
														<g>
															<g>
																<g>
																	<g>
																		<g>
																			<g>
																				<g>
																					<path style="fill:#263238;" d="M199.875,104.593c-0.133,0.849-0.961,1.438-1.85,1.316
																						c-0.888-0.122-1.502-0.907-1.37-1.757c0.132-0.849,0.961-1.438,1.849-1.317
																						C199.393,102.957,200.008,103.744,199.875,104.593z"/>
																				</g>
																			</g>
																		</g>
																	</g>
																</g>
															</g>
														</g>
													</g>
												</g>
												<g>
													<g>
														<g>
															<g>
																<g>
																	<g>
																		<g>
																			<g>
																				<g>
																					<g>
																						<path style="fill:#263238;" d="M200.072,102.422c-0.239,0.17-1.278-0.958-2.997-1.284
																							c-1.713-0.35-3.145,0.292-3.291,0.045c-0.073-0.111,0.199-0.448,0.827-0.742
																							c0.617-0.295,1.614-0.504,2.684-0.294c1.07,0.212,1.895,0.779,2.335,1.282
																							C200.079,101.936,200.187,102.348,200.072,102.422z"/>
																					</g>
																				</g>
																			</g>
																		</g>
																	</g>
																</g>
															</g>
														</g>
													</g>
												</g>
											</g>
											<g>
												<g>
													<g>
														<g>
															<g>
																<g>
																	<g>
																		<g>
																			<g>
																				<g>
																					<path style="fill:#263238;" d="M203.737,116.775c0.011-0.099,1.115-0.078,2.889,0.033
																						c0.448,0.039,0.88,0.032,1.012-0.254c0.164-0.297,0.072-0.806-0.043-1.357
																						c-0.209-1.142-0.426-2.338-0.656-3.592c-0.888-5.106-1.44-9.27-1.235-9.304
																						c0.206-0.034,1.093,4.077,1.981,9.183c0.208,1.257,0.408,2.456,0.597,3.602
																						c0.07,0.531,0.247,1.152-0.104,1.767c-0.181,0.305-0.549,0.482-0.845,0.503
																						c-0.298,0.032-0.546-0.011-0.766-0.04C204.808,117.074,203.725,116.874,203.737,116.775z"/>
																				</g>
																			</g>
																		</g>
																	</g>
																</g>
															</g>
														</g>
													</g>
												</g>
											</g>
										</g>
									</g>
								</g>
								<g>
									<g>
										<g>
											<g>
												<g>
													<g>
														<g>
															<g>
																<g>
																	<path style="fill:#263238;" d="M201.25,98.922c-0.26,0.435-1.933-0.117-3.997-0.261
																		c-2.061-0.186-3.801,0.092-3.988-0.379c-0.081-0.224,0.287-0.609,1.032-0.935c0.739-0.326,1.861-0.556,3.098-0.458
																		c1.236,0.101,2.308,0.506,2.985,0.946C201.063,98.275,201.365,98.714,201.25,98.922z"/>
																</g>
															</g>
														</g>
													</g>
												</g>
											</g>
										</g>
									</g>
								</g>
								<g>
									<g>
										<g>
											<g>
												<g>
													<g>
														<g>
															<g>
																<g>
																	<path style="fill:#263238;" d="M218.055,98.866c-0.377,0.332-1.484-0.301-2.904-0.593
																		c-1.41-0.343-2.68-0.243-2.879-0.705c-0.083-0.222,0.181-0.576,0.779-0.844c0.59-0.269,1.516-0.403,2.489-0.185
																		c0.973,0.219,1.753,0.736,2.171,1.231C218.137,98.267,218.225,98.701,218.055,98.866z"/>
																</g>
															</g>
														</g>
													</g>
												</g>
											</g>
										</g>
									</g>
								</g>
							</g>
						</g>
						<g>
							<g>
								<g>
									<g>
										<g>
											<g>
												<g>
													<g>
														<g>
															<g>
																<path style="fill:#FFBE9D;" d="M180.615,105.208c-0.175-0.119-7.249-3.751-8.475,3.944
																	c-1.226,7.695,6.752,7.339,6.801,7.12C178.989,116.053,180.615,105.208,180.615,105.208z"/>
															</g>
														</g>
													</g>
												</g>
											</g>
										</g>
									</g>
								</g>
							</g>
							<g>
								<g>
									<g>
										<g>
											<g>
												<g>
													<g>
														<g>
															<g>
																<g>
																	<path style="fill:#EB996E;" d="M177.055,112.982c-0.03-0.03-0.149,0.073-0.392,0.14
																		c-0.237,0.066-0.628,0.075-1.005-0.139c-0.765-0.428-1.244-1.828-1.061-3.221c0.092-0.703,0.345-1.347,0.681-1.86
																		c0.325-0.526,0.751-0.861,1.172-0.868c0.422-0.029,0.673,0.262,0.733,0.493c0.069,0.231-0.005,0.377,0.034,0.397
																		c0.019,0.023,0.186-0.103,0.175-0.43c-0.008-0.158-0.069-0.354-0.226-0.53c-0.161-0.18-0.42-0.299-0.71-0.314
																		c-0.6-0.054-1.221,0.407-1.59,0.97c-0.402,0.56-0.703,1.281-0.807,2.071c-0.198,1.559,0.365,3.136,1.426,3.635
																		c0.519,0.227,0.996,0.136,1.258-0.008C177.011,113.166,177.079,113,177.055,112.982z"/>
																</g>
															</g>
														</g>
													</g>
												</g>
											</g>
										</g>
									</g>
								</g>
							</g>
						</g>
					</g>
				</g>
				<g>
					<g>
						<g>
							<g>
								<g>
									<path style="fill:#263238;" d="M176.41,104.131c1.221-0.058,3.032,1.407,3.319,2.595c0.287,1.188,0.159,2.446,0.444,3.634
										c0.286,1.188,1.217,2.392,2.438,2.34c0.842-0.036,1.563-0.68,1.929-1.439c0.366-0.759,0.443-1.621,0.497-2.462
										c0.236-3.659,0.166-7.345,0.714-10.97c0.548-3.625,1.779-7.264,4.257-9.965c2.478-2.701,6.381-4.288,9.914-3.309
										c2.34,0.649,4.282,2.307,6.58,3.092c2.725,0.93,5.874,0.512,8.261-1.099c0.081-0.054,0.234-0.134,0.416-0.22
										c0.846-0.404,1.368-1.322,1.196-2.244c-0.059-0.314-0.155-0.608-0.311-0.819c-3.852-5.233-12.061-8.066-18.549-7.698
										c-6.487,0.368-13.128,3.622-16.906,8.909C176.832,89.762,176.071,97.98,176.41,104.131"/>
								</g>
							</g>
						</g>
					</g>
				</g>
			</g>
			<g>
				<g>
					<g>
						<path style="fill:#263238;" d="M207.201,121.988c-0.05,0.135-1.142-0.143-2.44-0.621c-1.298-0.478-2.309-0.975-2.26-1.11
							c0.05-0.135,1.142,0.143,2.44,0.621C206.238,121.356,207.25,121.854,207.201,121.988z"/>
					</g>
				</g>
			</g>
			<g>
				<g>
					<g>
						<path style="fill:#EB996E;" d="M215.558,130.615c0.052,0.013-0.148,0.893-0.951,2.08c-0.786,1.188-2.248,2.594-4.178,3.604
							c-1.929,1.01-3.841,1.497-5.213,1.78c-1.379,0.277-2.243,0.36-2.256,0.294c-0.015-0.075,0.827-0.287,2.17-0.653
							c1.339-0.372,3.193-0.907,5.055-1.883c1.86-0.975,3.291-2.272,4.123-3.361C215.156,131.394,215.476,130.58,215.558,130.615z"
							/>
					</g>
				</g>
			</g>
		</g>
		<g>
			<g>
				<g>
					<path style="fill:#EB996E;" d="M210.141,136.328c-2.708,1.356-4.703,5.039-6.424,7.426c-0.526,0.73-1.068,1.495-1.215,2.383
						c-0.156,0.942,0.152,1.894,0.484,2.789c0.494,1.332,1.051,2.64,1.608,3.947c0.158,0.371,0.369,0.789,0.763,0.879
						c0.5,0.114,0.928-0.378,1.132-0.849c0.51-1.17,0.46-2.495,0.634-3.76c0.174-1.264,0.696-2.63,1.857-3.16"/>
				</g>
			</g>
			<g>
				<g>
					<g>
						<path style="fill:#FFBE9D;" d="M214.422,146.313l-2.636-1.968c-0.332-0.271-0.82-0.229-1.1,0.095l-1.4,1.617
							c-0.003,0.004-0.004,0.01-0.001,0.014l0.736,4.092c0.862,5.247-3.028,4.429-3.028,4.429l-0.309-1.004l-1.709-6.399
							c-0.344-3.055-0.101-3.416,1.384-5.629l3.261-4.661c0.677-1.008,1.951-1.421,3.09-1c4.678,1.727,14.772,4.856,15.909,8.819
							c2.072,7.225,3.742,25.652,3.771,25.98c0.001,0.007,0,0,0.001,0.007l-14.245,1.278c0,0-0.001,0.007,0,0l0.067-12.297
							c0,0-2.068-1.203-2.677-3.373S214.422,146.313,214.422,146.313"/>
					</g>
				</g>
				<g>
					<g>
						<g>
							<path style="fill:#EB996E;" d="M224.291,148.722c0.022,0.024-0.152,0.247-0.543,0.576c-0.391,0.318-1.013,0.775-1.94,0.984
								c-0.461,0.099-0.993,0.119-1.545-0.012c-0.545-0.128-1.125-0.439-1.528-0.947c-0.835-1.008-0.955-2.426-1.699-3.457
								c-0.378-0.47-0.947-0.86-1.467-1.203c-0.532-0.344-1.07-0.643-1.595-0.891c-0.51-0.224-1.077-0.503-1.46-0.413
								c-0.439,0.106-0.835,0.407-1.162,0.688c-1.292,1.196-1.999,2.09-2.073,2.016c-0.027-0.024,0.128-0.255,0.428-0.659
								c0.306-0.4,0.738-0.988,1.398-1.63c0.336-0.311,0.724-0.665,1.314-0.836c0.152-0.035,0.313-0.048,0.483-0.027
								c0.151,0.025,0.296,0.06,0.436,0.104c0.283,0.086,0.56,0.196,0.836,0.32c0.554,0.248,1.113,0.546,1.67,0.897
								c0.553,0.364,1.123,0.724,1.611,1.323c0.848,1.225,0.943,2.609,1.653,3.465c0.674,0.877,1.814,1.038,2.632,0.899
								c0.847-0.143,1.474-0.525,1.889-0.785C224.044,148.865,224.265,148.693,224.291,148.722z"/>
						</g>
					</g>
				</g>
			</g>
			<g>
				<g>
					<g>
						<path style="fill:#EB996E;" d="M222.71,153.058c-0.022,0.137-1.849-0.061-4.018-0.69c-2.171-0.624-3.822-1.43-3.768-1.558
							c0.056-0.138,1.772,0.443,3.913,1.057C220.975,152.488,222.737,152.911,222.71,153.058z"/>
					</g>
				</g>
			</g>
			<g>
				<g>
					<path style="fill:#FFBE9D;" d="M217.635,146.372c-3.735,0.008-4.171-0.172-8.404,0.059c-0.63,0.034-1.272,0.071-1.86,0.3
						c-0.588,0.229-1.123,0.686-1.279,1.297c-0.295,1.158,0.874,2.214,2.04,2.479c1.165,0.264,2.399,0.059,3.563,0.329
						c1.775,0.412,3.638,1.26,4.687,2.75c2.435,3.458,4.995,1.795,6.658,3.029l4.364-2.755l-1.541-6.443L217.635,146.372"/>
				</g>
			</g>
			<g>
				<g>
					<g>
						<path style="fill:#EB996E;" d="M223.421,156.615c-0.031,0.051-0.387-0.269-1.194-0.368c-0.777-0.153-2.038,0.042-3.455-0.608
							c-0.695-0.325-1.353-0.875-1.907-1.568c-0.524-0.717-1.099-1.345-1.924-1.837c-0.8-0.494-1.739-0.859-2.744-1.105
							c-0.978-0.273-2.063-0.139-3.225-0.279c-1.163-0.119-2.362-0.799-2.733-1.986c-0.178-0.596,0.023-1.262,0.416-1.678
							c0.382-0.429,0.899-0.681,1.398-0.804c1.015-0.227,1.928-0.174,2.795-0.228c0.866-0.028,1.674-0.038,2.412-0.026
							c1.476,0.029,2.66,0.104,3.481,0.137c0.821,0.038,1.275,0.069,1.275,0.106c0,0.035-0.454,0.073-1.277,0.096
							c-0.822,0.029-2.016,0.011-3.479,0.029c-0.732,0.011-1.533,0.043-2.393,0.089c-0.852,0.069-1.809,0.046-2.692,0.261
							c-0.856,0.187-1.721,0.98-1.443,1.883c0.271,0.877,1.273,1.514,2.308,1.605c1.061,0.135,2.203-0.001,3.281,0.3
							c1.046,0.263,2.028,0.654,2.876,1.193c0.855,0.511,1.533,1.286,2.007,1.975c0.51,0.666,1.103,1.186,1.731,1.506
							c1.27,0.643,2.52,0.525,3.33,0.739c0.412,0.086,0.715,0.23,0.901,0.348C223.345,156.527,223.432,156.601,223.421,156.615z"/>
					</g>
				</g>
			</g>
			<g>
				<g>
					<g>
						<path style="fill:#EB996E;" d="M217.221,143.453c0.005-0.064,0.274-0.117,0.659,0.061c0.374,0.167,0.85,0.619,0.952,1.297
							c0.091,0.68-0.24,1.247-0.552,1.512c-0.32,0.278-0.593,0.302-0.616,0.242c-0.034-0.07,0.153-0.209,0.342-0.489
							c0.19-0.272,0.375-0.718,0.31-1.191c-0.069-0.472-0.371-0.85-0.63-1.057C217.427,143.611,217.208,143.53,217.221,143.453z"/>
					</g>
				</g>
			</g>
		</g>
		<g>
			<g>
				<g>
					<g>
						<polygon style="fill:#FFBE9D;" points="225.592,311.078 207.355,356.612 225.048,359.719 244.789,320.452 						"/>
					</g>
				</g>
				<g>
					<g>
						<g>
							<g>
								<path style="fill:#E8505B;" d="M236.394,342.322l-10.049,20.425c0,0,17.386,17.074,15.896,21.029l-40.302-18.062
									l14.351-32.467L236.394,342.322z"/>
							</g>
						</g>
						<g>
							<g>
								<g>
									<path style="fill:#E0E0E0;" d="M214.665,355.415c-0.876-0.136-1.807,0.499-1.98,1.368
										c-0.172,0.869,0.466,1.823,1.339,1.974c0.873,0.152,2.015-0.577,2.089-1.46c0.074-0.883-0.737-1.961-1.62-1.899"/>
								</g>
							</g>
						</g>
						<g style="opacity:0.4;">
							<g>
								<path d="M201.939,365.714l1.449-3.277l38.178,18.581c0,0,1.444,1.585,0.675,2.758L201.939,365.714z"/>
							</g>
						</g>
						<g>
							<g>
								<g>
									<path style="fill:#263238;" d="M227.09,362.834c-0.095,0.194-1.119-0.158-2.371,0.041
										c-1.257,0.166-2.138,0.795-2.285,0.636c-0.164-0.12,0.656-1.165,2.176-1.379
										C226.129,361.905,227.214,362.673,227.09,362.834z"/>
								</g>
							</g>
						</g>
						<g>
							<g>
								<g>
									<path style="fill:#263238;" d="M230.534,366.477c-0.04,0.211-1.043,0.164-2.084,0.697c-1.057,0.502-1.629,1.327-1.821,1.23
										c-0.199-0.052,0.182-1.266,1.489-1.903C229.419,365.851,230.614,366.287,230.534,366.477z"/>
								</g>
							</g>
						</g>
						<g>
							<g>
								<g>
									<path style="fill:#263238;" d="M230.667,372.612c-0.198-0.038-0.031-1.144,0.958-1.995
										c0.982-0.859,2.101-0.868,2.111-0.667c0.039,0.212-0.818,0.522-1.619,1.234C231.3,371.876,230.871,372.68,230.667,372.612z
										"/>
								</g>
							</g>
						</g>
						<g>
							<g>
								<g>
									<path style="fill:#263238;" d="M228.864,357.925c-0.163,0.142-0.944-0.534-2.09-0.957
										c-1.138-0.446-2.171-0.461-2.197-0.676c-0.05-0.193,1.121-0.543,2.465-0.026
										C228.387,356.774,229.03,357.814,228.864,357.925z"/>
								</g>
							</g>
						</g>
					</g>
					<g>
						<g>
							<g>
								<path style="fill:#263238;" d="M230.815,353.767c-0.034,0.083-0.866-0.145-2.014-0.915
									c-0.571-0.384-1.209-0.913-1.821-1.595c-0.305-0.341-0.605-0.72-0.883-1.135c-0.132-0.203-0.299-0.422-0.397-0.748
									c-0.126-0.303-0.016-0.881,0.379-1.087c0.345-0.217,0.77-0.187,1.064-0.063c0.301,0.123,0.515,0.291,0.71,0.444
									c0.4,0.31,0.754,0.647,1.062,0.993c0.613,0.695,1.04,1.419,1.314,2.056c0.547,1.285,0.537,2.163,0.452,2.171
									c-0.118,0.025-0.297-0.795-0.928-1.936c-0.315-0.568-0.757-1.208-1.346-1.821c-0.296-0.305-0.629-0.602-0.999-0.877
									c-0.377-0.303-0.739-0.469-0.933-0.328c-0.072,0.055-0.09,0.081-0.057,0.246c0.041,0.157,0.163,0.347,0.293,0.547
									c0.252,0.392,0.52,0.755,0.793,1.087c0.547,0.664,1.112,1.203,1.616,1.622C230.131,353.268,230.866,353.662,230.815,353.767
									z"/>
							</g>
						</g>
					</g>
					<g>
						<g>
							<g>
								<path style="fill:#263238;" d="M230.432,353.935c-0.083-0.001-0.158-0.881,0.341-2.188c0.249-0.647,0.658-1.384,1.266-2.086
									c0.305-0.349,0.66-0.688,1.063-0.995c0.415-0.292,0.942-0.696,1.744-0.442c0.405,0.164,0.597,0.624,0.591,0.941
									c0.011,0.332-0.067,0.578-0.124,0.833c-0.137,0.504-0.352,0.962-0.608,1.36c-0.511,0.801-1.182,1.357-1.796,1.699
									c-1.256,0.691-2.182,0.558-2.169,0.484c-0.021-0.128,0.835-0.201,1.887-0.935c0.519-0.362,1.075-0.896,1.489-1.61
									c0.207-0.356,0.378-0.754,0.486-1.183c0.129-0.457,0.123-0.874-0.057-0.902c-0.199-0.093-0.684,0.077-1.002,0.345
									c-0.369,0.269-0.699,0.565-0.99,0.87c-0.579,0.615-1.002,1.263-1.294,1.839
									C230.673,353.121,230.553,353.952,230.432,353.935z"/>
							</g>
						</g>
					</g>
				</g>
			</g>
			<g>
				<g>
					<g>
						<path style="fill:#263238;" d="M190.677,256.477l56.163-27.501c9.883-4.839,21.772-2.614,29.236,5.472l0,0
							c6.951,7.531,8.576,18.552,4.094,27.769l-37.264,76.621l-31.168-9.826l27.409-58.405l-30.834,23.498
							c-8.328,6.346-18.487,9.825-28.957,9.915l-8.074,0.069c-13.528-0.564-25.782-8.141-32.331-19.991l0,0L190.677,256.477z"/>
					</g>
				</g>
				<g>
					<g>
						<g>
							<path style="fill:#455A64;" d="M242.906,338.838c0,0-0.197-0.04-0.572-0.147c-0.398-0.118-0.947-0.28-1.652-0.489
								c-1.473-0.45-3.591-1.098-6.29-1.923c-5.456-1.697-13.25-4.122-22.718-7.067l-0.23-0.071l0.102-0.219
								c5.504-11.761,12.36-26.411,19.777-42.259c2.621-5.579,5.172-11.01,7.593-16.164l0.382,0.31
								c-14.143,10.536-26.8,19.287-36.139,25.05c-4.674,2.871-8.529,4.983-11.302,6.176c-1.387,0.592-2.499,0.963-3.275,1.115
								c-0.38,0.112-0.69,0.088-0.888,0.116c-0.201,0.014-0.303,0.017-0.303,0.01c-0.003-0.034,0.413-0.032,1.172-0.214
								c0.762-0.179,1.854-0.574,3.224-1.188c2.737-1.238,6.558-3.387,11.201-6.292c9.278-5.829,21.892-14.63,36.006-25.178
								l0.813-0.607l-0.43,0.918c-2.417,5.155-4.964,10.588-7.581,16.169c-7.451,15.832-14.338,30.467-19.867,42.217l-0.127-0.29
								c9.445,3.017,17.22,5.501,22.663,7.24c2.684,0.872,4.791,1.556,6.255,2.032c0.697,0.233,1.24,0.415,1.634,0.547
								C242.722,338.758,242.906,338.838,242.906,338.838z"/>
						</g>
					</g>
				</g>
				<g>
					<g>
						<g>
							<path style="fill:#455A64;" d="M249.706,257.923c0.102,0.146-3.435,1.907-6.465,5.571c-3.076,3.628-4.188,7.419-4.349,7.344
								c-0.056-0.016,0.142-0.974,0.744-2.433c0.597-1.456,1.658-3.39,3.206-5.245c1.554-1.85,3.271-3.233,4.6-4.077
								C248.771,258.234,249.68,257.871,249.706,257.923z"/>
						</g>
					</g>
				</g>
			</g>
		</g>
		<g>
			<g>
				<g>
					<path style="fill:#E0E0E0;" d="M130.651,366.338h80.783c1.123,0,2.042,0.893,2.073,2.016l0,0
						c0.033,1.168-0.905,2.132-2.073,2.132h-80.783c-1.145,0-2.074-0.928-2.074-2.074l0,0
						C128.577,367.266,129.506,366.338,130.651,366.338z"/>
				</g>
			</g>
			<g>
				<g>
					<path style="fill:#455A64;" d="M200.808,314.912h-63.191l0,0c0-6.762,5.481-12.243,12.243-12.243h38.704
						C195.326,302.668,200.808,308.15,200.808,314.912L200.808,314.912z"/>
				</g>
			</g>
			<g>
				<g>
					<rect x="136.129" y="314.912" style="fill:#E0E0E0;" width="66.663" height="3.714"/>
				</g>
			</g>
			<g>
				<g>
					<polygon style="fill:#E0E0E0;" points="142.063,318.625 125.763,479.288 129.597,479.288 149.49,318.625 					"/>
				</g>
			</g>
			<g>
				<g>
					<polygon style="fill:#E0E0E0;" points="196.362,318.625 212.654,479.209 208.821,479.23 188.943,318.686 					"/>
				</g>
			</g>
			<g>
				<g>
					<polygon style="fill:#E0E0E0;" points="173.657,317.214 170.914,479.284 166.98,479.284 165.264,316.768 					"/>
				</g>
			</g>
		</g>
		<g>
			<g>
				<g>
					<polygon style="fill:#E8505B;" points="172.381,141.068 176.338,129.046 202.47,141.14 201.274,153.861 188.251,157.561 
						175.466,149.728 					"/>
				</g>
			</g>
			<g>
				<g>
					<path style="fill:#E8505B;" d="M138.95,284.098c0,0-3.648-2.22-3.661-7.292c-0.012-4.818,4.298-5.215,4.437-7.881
						c1.438-27.552,4.556-84.622,6.613-102.631c2.594-22.699,29.186-27.495,29.186-27.495l21.958,5.394v1.659
						c7.6,9.77,10.887,24.497,10.894,36.874l-1.023,65.585L138.95,284.098z"/>
				</g>
			</g>
			<g>
				<g>
					<g>
						<path style="fill:#263238;" d="M163.628,247.366c0.028,0.023-0.264,0.42-0.814,1.12c-0.548,0.702-1.371,1.693-2.412,2.898
							c-2.08,2.41-5.074,5.64-8.588,8.998c-3.518,3.356-6.884,6.197-9.388,8.163c-1.251,0.984-2.28,1.76-3.006,2.275
							c-0.724,0.518-1.135,0.79-1.156,0.762c-0.022-0.029,0.347-0.356,1.033-0.922c0.762-0.631,1.734-1.436,2.898-2.4
							c2.439-2.034,5.755-4.909,9.261-8.253c3.502-3.346,6.527-6.525,8.673-8.867c1.017-1.118,1.866-2.052,2.532-2.784
							C163.256,247.696,163.6,247.343,163.628,247.366z"/>
					</g>
				</g>
			</g>
			<g style="opacity:0.2;">
				<g>
					<g>
						<path d="M141.995,268.831c0.078-4.153,3.182-7.568,6.26-10.357c3.602-3.264,7.437-6.27,11.466-8.988
							c0.196,2.027-1.181,3.838-2.522,5.371c-4.498,5.143-9.487,9.855-14.878,14.053"/>
					</g>
				</g>
			</g>
			<g>
				<g>
					<g>
						<path style="fill:#263238;" d="M180.428,139.08c-0.137-0.043,0.225-1.604,0.808-3.486c0.584-1.883,1.168-3.375,1.306-3.333
							c0.137,0.043-0.224,1.603-0.808,3.487C181.15,137.631,180.565,139.123,180.428,139.08z"/>
					</g>
				</g>
			</g>
			<g>
				<g>
					<g>
						<path style="fill:#263238;" d="M190.623,135.67c0.14,0.032-0.097,1.585-0.529,3.468c-0.433,1.884-0.897,3.384-1.037,3.352
							c-0.14-0.032,0.097-1.585,0.53-3.468C190.019,137.139,190.483,135.638,190.623,135.67z"/>
					</g>
				</g>
			</g>
			<g>
				<g>
					<g>
						<path style="fill:#263238;" d="M198.213,139.459c0.144,0.034-0.073,1.432-0.27,3.155c-0.203,1.723-0.311,3.133-0.459,3.133
							c-0.14,0.002-0.265-1.435-0.058-3.193C197.627,140.796,198.078,139.425,198.213,139.459z"/>
					</g>
				</g>
			</g>
			<g>
				<g>
					<g>
						<path style="fill:#FAFAFA;" d="M171.834,203.64c0,0.036-0.394,0.063-1.108,0.081c-0.713,0.018-1.745,0.027-3.021,0.026
							c-2.551-0.001-6.075-0.038-9.968-0.11c-3.893-0.073-7.418-0.168-9.968-0.263c-1.275-0.047-2.307-0.095-3.019-0.139
							c-0.713-0.045-1.106-0.086-1.106-0.122c0.001-0.036,0.396-0.063,1.109-0.081c0.714-0.018,1.746-0.027,3.022-0.026
							c2.551,0.001,6.075,0.037,9.967,0.11c3.891,0.073,7.413,0.168,9.964,0.263c1.186,0.055,2.194,0.101,3.02,0.139
							C171.439,203.563,171.834,203.605,171.834,203.64z"/>
					</g>
				</g>
			</g>
			<g>
				<g>
					<g>
						<path style="fill:#FAFAFA;" d="M166.256,195.251c-0.003,0.144-5.015,0.153-11.193,0.021
							c-6.18-0.132-11.186-0.355-11.183-0.499c0.003-0.144,5.014-0.153,11.194-0.021
							C161.252,194.884,166.259,195.108,166.256,195.251z"/>
					</g>
				</g>
			</g>
			<g style="opacity:0.2;">
				<g>
					<g>
						<path d="M156.755,182.322c7.989,17.417,17.773,33.056,29.147,48.478c2.93,3.972,6.067,7.96,10.302,10.494
							c4.235,2.534,7.038,1.827,11.263-0.725c-4.724-1.505-5.968-1.984-9.982-4.894c-3.959-2.87-7.215-6.816-10.093-10.769
							c-10.014-13.757-19.764-27.928-29.778-41.685"/>
					</g>
				</g>
			</g>
		</g>
		<g>
			<g>
				<g>
					<path style="fill:#FFBE9D;" d="M239.924,207.089c0.175-1.147,0.359-2.321,0.925-3.334c0.565-1.013,1.601-1.846,2.761-1.833
						c1.16,0.013,2.282,1.133,2.02,2.263c-0.155,0.667-0.701,1.156-1.106,1.707c-1.277,1.736-1.157,4.086-1.139,6.241
						c0.018,2.155-0.269,4.601-1.993,5.894"/>
				</g>
			</g>
			<g>
				<g>
					<path style="fill:#E8505B;" d="M160.581,156.889c-8.453,5.907-10.298,17.659-4.062,25.873l36.541,48.122
						c7.938,10.325,22.051,13.63,33.748,7.903h0c9.867-4.832,15.891-15.093,15.3-26.063l-8.045-50.604L214.4,163.34l1.858,41.212
						l-30.418-43.227C180.08,153.14,168.785,151.156,160.581,156.889L160.581,156.889z"/>
				</g>
			</g>
			<g>
				<g>
					<path style="fill:#FFBE9D;" d="M239.339,227.066c-4.836-1.129-5.657-1.96-10.493-3.089c-1.439-0.336-3.287-1.271-2.642-2.793
						c0.338-0.797,1.189-1.27,2.052-1.2c1.885,0.153,4.917,1.276,6.734,1.449c0.454,0.043,0.441-0.414,0.241-0.724
						c-2.955-0.885-5.98-1.535-9.038-1.94c-1.906-0.253-2.652-2.762-1.112-3.915c0.195-0.146,1.058-0.404,1.295-0.37
						c1.936,0.28,1.936,0.28,4.002,0.637c5.797,1.003,5.028-0.145,5.028-0.145c0.037-0.435-6.596-1.076-9.988-1.483
						c-0.719-0.086-1.511-0.21-1.974-0.768c-0.562-0.678-0.363-1.76,0.23-2.411c0.593-0.651,1.446-1.15,2.327-1.165
						c3.77-0.065,16.147,1.311,16.147,1.311s1.621,2.204,1.126,6.706C242.73,222.113,239.339,227.066,239.339,227.066z"/>
				</g>
			</g>
			<g>
				<g>
					<g>
						<path style="fill:#263238;" d="M221.828,240.574c0,0-0.176,0.034-0.523,0.074c-0.367,0.038-0.879,0.091-1.539,0.16
							c-1.354,0.124-3.355,0.315-5.944,0.344c-2.576,0.003-5.8-0.13-9.322-1.29c-3.523-1.165-7.079-3.626-10.289-6.963
							c-3.228-3.332-6.34-7.337-9.651-11.643c-3.29-4.324-6.73-9-10.308-13.95c-3.576-4.951-7.286-10.18-11.094-15.627
							c-1.892-2.732-3.818-5.512-5.772-8.333c-0.485-0.708-0.972-1.418-1.46-2.131l-0.691-1.119c-0.243-0.368-0.449-0.757-0.63-1.16
							c-0.816-1.567-1.336-3.29-1.64-5.046c-0.323-1.759-0.331-3.559-0.107-5.307c0.08-0.881,0.308-1.733,0.5-2.589
							c0.278-0.831,0.511-1.676,0.894-2.46c0.318-0.813,0.779-1.551,1.194-2.308c0.499-0.704,0.946-1.445,1.531-2.076
							c1.08-1.334,2.391-2.446,3.776-3.397c1.386-0.964,2.922-1.655,4.477-2.212c1.583-0.463,3.192-0.846,4.818-0.875
							c3.241-0.186,6.428,0.597,9.188,1.972c2.743,1.435,5.05,3.507,6.713,5.919c1.648,2.378,3.247,4.686,4.794,6.918
							c3.09,4.464,5.969,8.624,8.598,12.423c5.235,7.591,9.475,13.739,12.42,18.009c1.447,2.118,2.576,3.77,3.355,4.911
							c0.369,0.551,0.656,0.978,0.862,1.285c0.192,0.291,0.279,0.448,0.279,0.448s-0.117-0.136-0.323-0.417
							c-0.216-0.3-0.517-0.717-0.904-1.255c-0.798-1.128-1.954-2.761-3.435-4.856c-2.977-4.248-7.264-10.364-12.556-17.916
							c-2.645-3.788-5.542-7.936-8.651-12.387c-1.554-2.228-3.161-4.531-4.816-6.904c-1.63-2.348-3.881-4.359-6.554-5.751
							c-2.691-1.332-5.794-2.09-8.946-1.903c-1.581,0.03-3.145,0.408-4.684,0.858c-1.51,0.545-3.003,1.216-4.349,2.156
							c-1.346,0.927-2.62,2.008-3.667,3.305c-0.568,0.612-1,1.334-1.486,2.017c-0.402,0.737-0.851,1.453-1.159,2.243
							c-0.373,0.762-0.598,1.584-0.868,2.391c-0.185,0.831-0.408,1.659-0.485,2.515c-0.217,1.698-0.21,3.446,0.104,5.155
							c0.296,1.706,0.799,3.38,1.593,4.901c0.747,1.536,1.775,2.926,2.743,4.348c1.951,2.822,3.874,5.602,5.763,8.334
							c3.801,5.449,7.501,10.682,11.065,15.638c3.566,4.955,6.991,9.638,10.263,13.969c3.291,4.311,6.384,8.325,9.571,11.648
							c3.17,3.329,6.658,5.771,10.119,6.945c3.464,1.171,6.663,1.335,9.228,1.363c2.578,0.003,4.58-0.156,5.936-0.246
							c0.662-0.046,1.175-0.082,1.543-0.108C221.649,240.573,221.828,240.574,221.828,240.574z"/>
					</g>
				</g>
			</g>
			<g>
				<g>
					<g>
						<path style="fill:#263238;" d="M218.349,219.654c-0.177-0.023,1.038-3.651,0.288-8.156c-0.685-4.518-2.967-7.588-2.805-7.665
							c0.044-0.034,0.671,0.67,1.413,1.994c0.743,1.318,1.537,3.293,1.907,5.589c0.361,2.297,0.219,4.42-0.078,5.904
							C218.779,218.809,218.401,219.672,218.349,219.654z"/>
					</g>
				</g>
			</g>
			<g>
				<g>
					<g>
						<path style="fill:#263238;" d="M218.843,168.713c-0.133,0.039-0.579-1.152-0.706-2.703c-0.133-1.55,0.111-2.799,0.248-2.783
							c0.149,0.014,0.142,1.242,0.271,2.739C218.777,167.465,218.987,168.676,218.843,168.713z"/>
					</g>
				</g>
			</g>
			<g>
				<g>
					<g>
						<path style="fill:#263238;" d="M224.257,168.209c-0.132,0.044-0.614-1.108-0.809-2.624c-0.201-1.515-0.03-2.752,0.109-2.743
							c0.149,0.005,0.213,1.212,0.408,2.676C224.152,166.983,224.4,168.166,224.257,168.209z"/>
					</g>
				</g>
			</g>
			<g>
				<g>
					<g>
						<path style="fill:#263238;" d="M229.626,167.042c-0.144,0.007-0.312-0.979-0.377-2.203c-0.064-1.225,0-2.223,0.143-2.231
							c0.144-0.008,0.312,0.979,0.377,2.203C229.833,166.036,229.769,167.035,229.626,167.042z"/>
					</g>
				</g>
			</g>
			<g>
				<g>
					<g>
						<path style="fill:#FAFAFA;" d="M196.518,178.185c0.082,0.118-6.119,4.558-13.848,9.916c-7.732,5.36-14.064,9.607-14.146,9.489
							c-0.082-0.118,6.118-4.557,13.85-9.917C190.103,182.315,196.436,178.067,196.518,178.185z"/>
					</g>
				</g>
			</g>
			<g>
				<g>
					<g>
						<path style="fill:#FAFAFA;" d="M191.678,170.928c0.02,0.03-0.369,0.327-1.087,0.837c-0.804,0.564-1.829,1.283-3.055,2.143
							c-2.582,1.804-6.133,4.317-9.994,7.176c-3.861,2.861-7.301,5.526-9.779,7.47c-1.18,0.922-2.166,1.693-2.94,2.298
							c-0.698,0.539-1.095,0.823-1.118,0.796c-0.023-0.028,0.33-0.365,0.988-0.952c0.657-0.588,1.626-1.419,2.838-2.428
							c2.422-2.02,5.832-4.735,9.701-7.602c3.868-2.864,7.46-5.334,10.098-7.062c1.319-0.865,2.395-1.55,3.15-2.007
							C191.232,171.137,191.658,170.898,191.678,170.928z"/>
					</g>
				</g>
			</g>
		</g>
	</g>
</g>
<g id="Plant">
	<g>
		<g>
			<g>
				<g>
					<g>
						<rect x="363.765" y="421.646" style="fill:#263238;" width="68.043" height="9.349"/>
					</g>
				</g>
			</g>
			<g>
				<g>
					<g>
						<path style="fill:#263238;" d="M431.924,431.112h-68.275v-9.582h68.275V431.112z M363.882,430.879h67.81v-9.117h-67.81
							V430.879z"/>
					</g>
				</g>
			</g>
		</g>
		<g>
			<g>
				<g>
					<g>
						<polygon style="fill:#263238;" points="370.074,427.884 379.868,476.202 416.107,476.202 425.574,430.996 						"/>
					</g>
				</g>
			</g>
		</g>
		<g>
			<g>
				<g>
					<g>
						<polygon style="fill:#455A64;" points="370.074,471.631 375.297,478.814 419.345,478.814 425.574,471.631 						"/>
					</g>
				</g>
			</g>
		</g>
		<g>
			<g>
				<g>
					<g>
						<g>
							<path style="fill:#263238;" d="M395.231,429.295c-0.134,0-0.305-22.384-0.383-49.991
								c-0.078-27.616-0.032-49.997,0.102-49.997c0.134,0,0.305,22.379,0.383,49.996
								C395.411,406.91,395.365,429.295,395.231,429.295z"/>
						</g>
					</g>
				</g>
			</g>
		</g>
		<g>
			<g>
				<g>
					<g>
						<g>
							<path style="fill:#263238;" d="M410.388,373.278c0.015,0.007-0.048,0.187-0.182,0.521c-0.159,0.38-0.361,0.859-0.607,1.449
								c-0.136,0.319-0.284,0.667-0.444,1.043c-0.141,0.394-0.292,0.818-0.453,1.271c-0.165,0.458-0.34,0.944-0.524,1.458
								c-0.182,0.517-0.325,1.08-0.503,1.662c-0.743,2.32-1.334,5.165-1.903,8.331c-0.495,3.182-0.867,6.705-1.054,10.418
								c-0.331,7.434,0.089,14.175,0.538,19.031c0.219,2.429,0.439,4.393,0.601,5.748c0.07,0.636,0.127,1.153,0.172,1.563
								c0.034,0.358,0.044,0.548,0.027,0.55c-0.017,0.002-0.059-0.182-0.124-0.536c-0.069-0.407-0.155-0.921-0.262-1.552
								c-0.219-1.349-0.492-3.309-0.755-5.739c-0.537-4.857-1.014-11.618-0.681-19.088c0.188-3.73,0.575-7.272,1.097-10.469
								c0.596-3.181,1.226-6.036,2.016-8.358c0.19-0.582,0.345-1.145,0.539-1.661c0.198-0.512,0.386-0.997,0.563-1.453
								c0.176-0.449,0.34-0.871,0.493-1.262c0.168-0.381,0.339-0.721,0.485-1.031c0.281-0.576,0.511-1.044,0.692-1.415
								C410.281,373.435,410.373,373.271,410.388,373.278z"/>
						</g>
					</g>
				</g>
			</g>
		</g>
		<g>
			<g>
				<g>
					<g>
						<g>
							<path style="fill:#263238;" d="M408.649,355.174c0.016,0.006-0.059,0.26-0.216,0.738c-0.176,0.518-0.412,1.211-0.708,2.081
								c-0.158,0.455-0.331,0.956-0.52,1.5c-0.169,0.559-0.352,1.162-0.547,1.808c-0.398,1.295-0.859,2.767-1.269,4.423
								c-0.218,0.826-0.445,1.689-0.683,2.588c-0.205,0.909-0.418,1.853-0.638,2.83c-0.476,1.948-0.818,4.065-1.257,6.276
								c-0.75,4.446-1.41,9.361-1.866,14.545c-0.43,5.188-0.617,10.146-0.683,14.656c-0.014,4.51,0.044,8.574,0.229,11.982
								c0.06,1.705,0.169,3.245,0.257,4.598c0.078,1.354,0.163,2.518,0.249,3.469c0.07,0.917,0.125,1.647,0.167,2.193
								c0.033,0.502,0.042,0.766,0.025,0.768c-0.017,0.002-0.058-0.259-0.122-0.758c-0.064-0.544-0.15-1.271-0.257-2.185
								c-0.115-0.949-0.228-2.112-0.332-3.466c-0.114-1.353-0.247-2.893-0.329-4.6c-0.229-3.411-0.322-7.482-0.333-12.003
								c0.041-4.521,0.216-9.492,0.647-14.694c0.457-5.198,1.133-10.127,1.909-14.582c0.452-2.215,0.811-4.335,1.305-6.286
								c0.23-0.978,0.453-1.923,0.667-2.832c0.248-0.899,0.487-1.762,0.715-2.588c0.432-1.655,0.918-3.124,1.341-4.415
								c0.21-0.643,0.406-1.243,0.587-1.799c0.204-0.54,0.391-1.038,0.561-1.489c0.332-0.858,0.597-1.542,0.795-2.053
								C408.528,355.41,408.633,355.168,408.649,355.174z"/>
						</g>
					</g>
				</g>
			</g>
		</g>
		<g>
			<g>
				<g>
					<g>
						<g>
							<path style="fill:#263238;" d="M390.927,433.255c-0.008,0-0.021-0.088-0.038-0.262c-0.017-0.201-0.038-0.455-0.064-0.77
								c-0.048-0.713-0.115-1.705-0.2-2.964c-0.163-2.612-0.396-6.327-0.682-10.904c-0.591-9.204-1.445-21.921-2.994-35.905
								c-0.791-6.992-1.709-13.633-2.663-19.653c-0.507-3.005-0.967-5.865-1.489-8.525c-0.479-2.668-0.994-5.14-1.469-7.395
								c-0.447-2.262-0.946-4.287-1.347-6.074c-0.394-1.789-0.775-3.319-1.094-4.569c-0.3-1.225-0.537-2.19-0.707-2.884
								c-0.07-0.309-0.127-0.557-0.172-0.754c-0.036-0.171-0.051-0.259-0.043-0.261c0.008-0.002,0.039,0.082,0.091,0.248
								c0.057,0.194,0.129,0.438,0.219,0.741c0.191,0.689,0.457,1.647,0.795,2.863c0.347,1.243,0.755,2.768,1.175,4.553
								c0.426,1.783,0.949,3.805,1.418,6.064c0.497,2.254,1.033,4.724,1.529,7.393c0.54,2.66,1.015,5.521,1.535,8.528
								c0.98,6.024,1.912,12.672,2.704,19.671c1.55,13.999,2.351,26.727,2.854,35.939c0.25,4.607,0.424,8.336,0.528,10.914
								c0.047,1.262,0.083,2.255,0.109,2.969c0.007,0.317,0.012,0.571,0.016,0.773C390.939,433.165,390.936,433.255,390.927,433.255
								z"/>
						</g>
					</g>
				</g>
			</g>
		</g>
		<g>
			<g>
				<g>
					<g>
						<path style="fill:#E8505B;" d="M394.676,340.068c-0.296-3.171-3.5-5.564-6.685-5.596c-3.185-0.033-6.153,1.877-8.101,4.397
							c-1.948,2.52-3.022,5.596-3.901,8.658c-2.145,7.471-3.317,15.321-2.4,23.039c0.917,7.719,4.049,15.318,9.587,20.771
							c0.901,0.887,2.067,1.773,3.303,1.51c0.676-0.144,1.23-0.613,1.742-1.077c10.881-9.829,17.163-24.55,16.733-39.207
							c-0.086-2.935-0.472-5.99-2.097-8.435C401.232,341.683,397.443,339.086,394.676,340.068"/>
					</g>
				</g>
			</g>
		</g>
		<g>
			<g>
				<g>
					<g>
						<g>
							<path style="fill:#E8505B;" d="M370.895,314.668c-1.495,2.708-2.99,5.416-4.486,8.123c-0.105,0.189-0.243,0.402-0.458,0.42
								c-0.236,0.02-0.412-0.203-0.541-0.401c-3.953-6.067-7.906-12.134-11.859-18.201l2.732-1.548L370.895,314.668z"/>
						</g>
					</g>
				</g>
			</g>
			<g style="opacity:0.2;">
				<g>
					<g>
						<g>
							<g>
								<path d="M370.895,314.668c-1.495,2.708-2.99,5.416-4.486,8.123c-0.105,0.189-0.243,0.402-0.458,0.42
									c-0.236,0.02-0.412-0.203-0.541-0.401c-3.953-6.067-7.906-12.134-11.859-18.201l2.732-1.548L370.895,314.668z"/>
							</g>
						</g>
					</g>
				</g>
			</g>
			<g>
				<g>
					<g>
						<g>
							<path style="fill:#E8505B;" d="M394.95,329.307c-13.485-7.957-26.969-15.914-40.454-23.871
								c-0.412-0.243-0.86-0.531-0.985-0.993c-0.162-0.598,0.288-1.176,0.72-1.621c5.564-5.74,13.645-9.067,21.619-8.493
								c7.973,0.574,15.641,5.18,19.545,12.155C399.298,313.459,399.427,322.685,394.95,329.307"/>
						</g>
					</g>
				</g>
			</g>
			<g>
				<g>
					<g>
						<g>
							<g>
								<path style="fill:#263238;" d="M360.327,297.816c-0.001-0.017,0.181-0.039,0.53-0.066c0.349-0.018,0.864-0.081,1.529-0.073
									c1.329-0.033,3.262,0.055,5.613,0.446c2.35,0.386,5.11,1.142,7.994,2.428c2.882,1.28,5.864,3.133,8.581,5.567
									c2.694,2.461,4.836,5.244,6.397,7.985c1.567,2.742,2.594,5.413,3.213,7.712c0.624,2.3,0.903,4.215,1.003,5.54
									c0.073,0.661,0.044,0.831,0.062,1.179c0.008,0.35-0.296,0.882-0.312,0.883c-0.043,0.002,0.223-0.73,0.063-2.042
									c-0.157-1.312-0.486-3.201-1.145-5.466c-1.279-4.505-4.249-10.579-9.605-15.432c-5.361-4.844-11.699-7.194-16.31-8.018
									c-2.319-0.43-4.233-0.569-5.554-0.594C361.063,297.836,360.329,297.859,360.327,297.816z"/>
							</g>
						</g>
					</g>
				</g>
			</g>
			<g>
				<g>
					<g>
						<g>
							<g>
								<path style="fill:#263238;" d="M389.474,312.831c0.023,0.061-0.756,0.422-2.045,0.93c-1.289,0.508-3.09,1.157-5.104,1.797
									c-2.016,0.64-3.861,1.149-5.207,1.478c-1.346,0.329-2.19,0.484-2.207,0.421c-0.017-0.066,0.795-0.338,2.114-0.751
									c1.491-0.466,3.23-1.009,5.152-1.609c1.915-0.618,3.649-1.178,5.136-1.658C388.63,313.013,389.45,312.766,389.474,312.831z"
									/>
							</g>
						</g>
					</g>
				</g>
			</g>
			<g>
				<g>
					<g>
						<g>
							<g>
								<path style="fill:#263238;" d="M383.104,295.719c0.13-0.012,0.417,2.005,0.478,4.513c0.065,2.508-0.119,4.537-0.25,4.532
									c-0.137-0.005-0.17-2.028-0.235-4.519C383.037,297.754,382.968,295.731,383.104,295.719z"/>
							</g>
						</g>
					</g>
				</g>
			</g>
			<g>
				<g>
					<g>
						<g>
							<g>
								<path style="fill:#263238;" d="M354.143,304.983c-0.019-0.062,1.101-0.468,2.939-1.034c1.838-0.567,4.397-1.284,7.25-1.972
									c2.855-0.687,5.46-1.214,7.354-1.547c1.894-0.333,3.076-0.481,3.087-0.418c0.012,0.068-1.146,0.335-3.02,0.754
									c-1.874,0.418-4.461,0.996-7.308,1.682c-2.846,0.686-5.412,1.349-7.271,1.831
									C355.317,304.76,354.163,305.049,354.143,304.983z"/>
							</g>
						</g>
					</g>
				</g>
			</g>
		</g>
		<g>
			<g>
				<g>
					<g>
						<g>
							<path style="fill:#E8505B;" d="M377.886,333.187c-3.479-2.638-7.158-3.158-11.521-2.985
								c-4.363,0.173-8.61,1.502-12.609,3.254c-6.822,2.987-13.233,7.391-17.309,13.624c-4.076,6.232-5.494,14.484-2.443,21.277
								c0.304,0.677,0.7,1.384,1.382,1.676c0.718,0.307,1.541,0.067,2.283-0.175c7.758-2.531,15.572-5.086,22.705-9.049
								c7.133-3.964,13.627-9.473,17.455-16.68c0.918-1.729,1.687-3.583,1.837-5.535
								C379.816,336.641,379.276,334.566,377.886,333.187"/>
						</g>
					</g>
				</g>
			</g>
			<g>
				<g>
					<g>
						<g>
							<g>
								<path style="fill:#263238;" d="M377.955,332.369c0.004,0.016-0.188,0.094-0.558,0.227c-0.42,0.144-0.959,0.33-1.626,0.559
									c-0.359,0.12-0.752,0.251-1.177,0.392c-0.427,0.154-0.882,0.345-1.375,0.536c-0.982,0.397-2.121,0.794-3.321,1.376
									c-0.607,0.277-1.242,0.566-1.902,0.866c-0.66,0.305-1.318,0.679-2.016,1.034c-1.406,0.691-2.829,1.573-4.344,2.468
									c-2.974,1.88-6.122,4.144-9.186,6.813c-3.038,2.7-5.685,5.534-7.929,8.245c-1.08,1.389-2.137,2.688-3.001,3.995
									c-0.441,0.646-0.897,1.252-1.283,1.867c-0.383,0.617-0.75,1.209-1.102,1.777c-0.73,1.116-1.269,2.196-1.788,3.119
									c-0.252,0.466-0.5,0.892-0.706,1.296c-0.195,0.404-0.375,0.777-0.539,1.117c-0.312,0.632-0.565,1.143-0.762,1.541
									c-0.179,0.35-0.281,0.532-0.296,0.525c-0.015-0.007,0.056-0.201,0.207-0.564c0.176-0.408,0.401-0.933,0.68-1.582
									c0.153-0.348,0.321-0.728,0.503-1.139c0.195-0.411,0.432-0.846,0.673-1.319c0.498-0.939,1.019-2.035,1.734-3.169
									c0.345-0.576,0.706-1.177,1.081-1.803c0.38-0.624,0.83-1.239,1.267-1.894c0.856-1.325,1.907-2.641,2.985-4.047
									c2.24-2.745,4.896-5.609,7.956-8.328c3.086-2.688,6.265-4.957,9.272-6.829c1.532-0.89,2.971-1.765,4.394-2.445
									c0.706-0.35,1.372-0.718,2.04-1.016c0.668-0.292,1.311-0.574,1.926-0.842c1.215-0.565,2.369-0.942,3.364-1.316
									c0.5-0.179,0.962-0.359,1.394-0.5c0.432-0.128,0.83-0.246,1.195-0.354c0.679-0.194,1.228-0.351,1.656-0.473
									C377.749,332.399,377.951,332.353,377.955,332.369z"/>
							</g>
						</g>
					</g>
				</g>
			</g>
			<g>
				<g>
					<g>
						<g>
							<g>
								<path style="fill:#263238;" d="M350.773,347.087c0.038,0.129-3.752,1.349-8.463,2.727c-4.713,1.378-8.562,2.39-8.6,2.262
									c-0.037-0.128,3.751-1.349,8.464-2.727C346.885,347.971,350.736,346.958,350.773,347.087z"/>
							</g>
						</g>
					</g>
				</g>
			</g>
			<g>
				<g>
					<g>
						<g>
							<g>
								<path style="fill:#263238;" d="M350.425,365.763c-0.066,0.001-0.142-1.006-0.186-2.637c-0.045-1.63-0.052-3.884,0.017-6.371
									c0.07-2.488,0.203-4.738,0.339-6.364c0.136-1.625,0.268-2.627,0.333-2.622c0.068,0.005,0.057,1.014,0.009,2.641
									c-0.055,1.786-0.122,3.957-0.196,6.358c-0.06,2.4-0.114,4.571-0.159,6.358C350.539,364.754,350.494,365.762,350.425,365.763
									z"/>
							</g>
						</g>
					</g>
				</g>
			</g>
			<g>
				<g>
					<g>
						<g>
							<g>
								<path style="fill:#263238;" d="M366.424,357.612c-0.134,0.009-0.559-4.57-0.95-10.227c-0.391-5.659-0.6-10.252-0.467-10.262
									c0.134-0.009,0.559,4.569,0.95,10.228C366.348,353.009,366.557,357.603,366.424,357.612z"/>
							</g>
						</g>
					</g>
				</g>
			</g>
			<g>
				<g>
					<g>
						<g>
							<g>
								<path style="fill:#263238;" d="M346.509,336.68c0.003-0.067,1.04-0.093,2.713-0.082c1.673,0.012,3.982,0.061,6.531,0.145
									c2.55,0.084,4.857,0.188,6.527,0.287c1.67,0.099,2.702,0.194,2.701,0.261c-0.001,0.067-1.036,0.093-2.709,0.082
									c-1.673-0.012-3.984-0.061-6.536-0.145c-2.551-0.084-4.86-0.188-6.53-0.287C347.537,336.841,346.506,336.746,346.509,336.68
									z"/>
							</g>
						</g>
					</g>
				</g>
			</g>
		</g>
		<g>
			<g>
				<g>
					<g>
						<g>
							<path style="fill:#263238;" d="M384.911,392.401c-0.017,0-0.036-0.186-0.058-0.541c-0.019-0.407-0.042-0.923-0.071-1.556
								c-0.061-1.352-0.075-3.31-0.023-5.729c0.044-2.419,0.208-5.298,0.499-8.486c0.315-3.185,0.771-6.678,1.424-10.316
								c0.671-3.637,1.474-7.069,2.302-10.165c0.851-3.09,1.712-5.848,2.524-8.133c0.804-2.288,1.508-4.121,2.042-5.369
								c0.251-0.585,0.454-1.06,0.616-1.436c0.146-0.326,0.23-0.494,0.245-0.488c0.016,0.006-0.038,0.186-0.154,0.524
								c-0.139,0.384-0.314,0.87-0.53,1.467c-0.479,1.266-1.132,3.113-1.893,5.408c-0.768,2.293-1.593,5.052-2.417,8.138
								c-0.801,3.092-1.589,6.515-2.257,10.138c-0.651,3.625-1.118,7.103-1.457,10.275c-0.314,3.175-0.513,6.042-0.601,8.454
								c-0.095,2.411-0.134,4.366-0.131,5.716c-0.008,0.634-0.015,1.149-0.02,1.556
								C384.941,392.213,384.928,392.401,384.911,392.401z"/>
						</g>
					</g>
				</g>
			</g>
		</g>
		<g>
			<g>
				<g>
					<g>
						<g>
							<path style="fill:#263238;" d="M387.045,365.915c0.046,0.047-0.567,0.728-1.614,1.771c-1.047,1.043-2.533,2.445-4.228,3.932
								c-1.697,1.487-3.28,2.777-4.452,3.678c-1.172,0.901-1.926,1.419-1.967,1.368c-0.043-0.054,0.636-0.666,1.75-1.633
								c1.243-1.079,2.719-2.361,4.349-3.777c1.617-1.431,3.08-2.726,4.313-3.817C386.302,366.458,386.998,365.865,387.045,365.915z
								"/>
						</g>
					</g>
				</g>
			</g>
		</g>
		<g>
			<g>
				<g>
					<g>
						<g>
							<path style="fill:#263238;" d="M399.85,376.229c-0.058,0.036-0.7-0.884-1.719-2.381c-1.106-1.614-2.479-3.618-3.997-5.834
								c-1.551-2.195-2.952-4.179-4.081-5.777c-1.049-1.475-1.689-2.397-1.634-2.439c0.051-0.04,0.787,0.808,1.909,2.234
								c1.122,1.425,2.623,3.433,4.204,5.705c1.58,2.272,2.941,4.377,3.887,5.925C399.366,375.21,399.905,376.195,399.85,376.229z"
								/>
						</g>
					</g>
				</g>
			</g>
		</g>
		<g>
			<g>
				<g>
					<g>
						<g>
							<path style="fill:#263238;" d="M393.142,343.79c0.072,0.113-4.181,2.976-9.499,6.395c-5.32,3.42-9.69,6.1-9.762,5.988
								c-0.072-0.113,4.18-2.976,9.5-6.396C388.699,346.359,393.07,343.678,393.142,343.79z"/>
						</g>
					</g>
				</g>
			</g>
		</g>
		<g>
			<g>
				<g>
					<g>
						<g>
							<path style="fill:#263238;" d="M405.136,356.735c-0.094,0.096-2.974-2.566-6.434-5.945c-3.46-3.38-6.189-6.197-6.095-6.292
								c0.094-0.096,2.974,2.566,6.434,5.945C402.5,353.823,405.229,356.64,405.136,356.735z"/>
						</g>
					</g>
				</g>
			</g>
		</g>
		<g>
			<g>
				<g>
					<g>
						<g>
							<path style="fill:#E8505B;" d="M408.152,356.476l3.651-0.302c2.591-0.215,5.108-0.982,7.374-2.257
								c1.12-0.63,2.246-1.248,3.437-1.726c4.514-1.812,9.551-1.488,14.409-1.732c7.93-0.398,15.776-2.403,22.923-5.862
								c0.413-0.2,0.778-0.504,0.999-0.906c0.75-1.366-0.643-2.583-1.842-3.322c-6.151-3.79-12.413-7.629-19.389-9.511
								c-6.976-1.882-14.895-1.563-20.847,2.533C411.879,338.199,409.333,348.076,408.152,356.476"/>
						</g>
					</g>
				</g>
			</g>
			<g>
				<g>
					<g>
						<g>
							<g>
								<path style="fill:#263238;" d="M461.027,343.242c-0.008,0.015-0.221-0.085-0.619-0.288
									c-0.438-0.229-1.013-0.531-1.731-0.906c-1.501-0.789-3.662-1.954-6.392-3.264c-2.732-1.295-6.043-2.757-9.895-3.814
									c-3.836-1.066-8.261-1.624-12.825-1.039c-4.544,0.599-8.729,2.367-11.691,5.021c-2.981,2.645-4.802,5.837-6.088,8.551
									c-1.283,2.737-2.073,5.065-2.649,6.658c-0.27,0.764-0.485,1.376-0.65,1.842c-0.152,0.42-0.24,0.638-0.255,0.633
									c-0.016-0.005,0.04-0.233,0.162-0.663c0.143-0.473,0.33-1.095,0.564-1.871c0.521-1.614,1.263-3.964,2.517-6.742
									c1.257-2.753,3.068-6.014,6.103-8.741c3.018-2.738,7.3-4.559,11.924-5.167c4.641-0.596,9.139-0.012,13.007,1.089
									c3.886,1.091,7.202,2.596,9.926,3.936c2.721,1.354,4.859,2.566,6.333,3.407c0.7,0.409,1.26,0.737,1.687,0.986
									C460.838,343.099,461.035,343.227,461.027,343.242z"/>
							</g>
						</g>
					</g>
				</g>
			</g>
			<g>
				<g>
					<g>
						<g>
							<g>
								<path style="fill:#263238;" d="M452.258,347.953c-0.075,0.111-4.85-2.978-10.665-6.899
									c-5.817-3.922-10.47-7.191-10.395-7.302c0.075-0.111,4.85,2.978,10.666,6.9
									C447.679,344.573,452.333,347.842,452.258,347.953z"/>
							</g>
						</g>
					</g>
				</g>
			</g>
			<g>
				<g>
					<g>
						<g>
							<g>
								<path style="fill:#263238;" d="M447.164,333.5c0.024,0.106-1.522,0.466-3.477,0.625c-1.955,0.163-3.548,0.062-3.546-0.046
									c0-0.115,1.574-0.196,3.504-0.358C445.576,333.565,447.141,333.387,447.164,333.5z"/>
							</g>
						</g>
					</g>
				</g>
			</g>
			<g>
				<g>
					<g>
						<g>
							<g>
								<path style="fill:#263238;" d="M426.259,330.776c0.115,0.053-0.586,1.149-1.566,2.447c-0.981,1.299-1.869,2.308-1.984,2.255
									c-0.115-0.053,0.586-1.149,1.567-2.448C425.255,331.733,426.144,330.723,426.259,330.776z"/>
							</g>
						</g>
					</g>
				</g>
			</g>
			<g>
				<g>
					<g>
						<g>
							<g>
								<path style="fill:#263238;" d="M430.538,350.766c-0.033,0.054-0.919-0.409-2.298-1.246c-1.379-0.837-3.244-2.064-5.236-3.51
									c-1.992-1.447-3.749-2.815-5.011-3.816c-1.261-1.003-2.023-1.646-1.983-1.7c0.04-0.053,0.875,0.493,2.189,1.426
									c1.433,1.041,3.169,2.302,5.089,3.697c1.986,1.441,3.81,2.707,5.137,3.615C429.753,350.14,430.575,350.706,430.538,350.766z
									"/>
							</g>
						</g>
					</g>
				</g>
			</g>
		</g>
		<g>
			<g>
				<g>
					<g>
						<g>
							<path style="fill:#E8505B;" d="M413.528,371.989c-3.483-0.92-7.634,2.468-8.352,5.998c-0.718,3.53,0.606,7.14,2.156,10.392
								c3.431,7.198,8.166,13.874,14.402,18.844c6.236,4.969,14.047,8.148,22.021,8.107c-1.472-6.839,0.39-13.983-0.431-20.931
								c-0.716-6.064-3.544-11.857-7.883-16.153c-4.339-4.296-10.16-7.065-16.231-7.721
								C416.988,370.285,414.415,369.936,413.528,371.989"/>
						</g>
					</g>
				</g>
			</g>
			<g>
				<g>
					<g>
						<g>
							<g>
								<path style="fill:#263238;" d="M443.756,415.329c-0.008,0.015-0.178-0.065-0.496-0.231
									c-0.314-0.171-0.768-0.448-1.303-0.875c-1.093-0.83-2.346-2.43-3.439-4.599c-0.556-1.078-1.176-2.249-1.782-3.545
									c-0.588-1.301-1.215-2.686-1.874-4.142c-0.665-1.451-1.395-2.958-2.302-4.427c-0.903-1.472-1.978-2.91-3.169-4.309
									c-2.384-2.801-4.943-5.224-7.161-7.539c-2.229-2.306-4.105-4.527-5.46-6.55c-1.368-2.016-2.197-3.822-2.668-5.095
									c-0.224-0.642-0.386-1.145-0.465-1.494c-0.088-0.347-0.126-0.53-0.11-0.535c0.045-0.013,0.242,0.711,0.751,1.96
									c0.521,1.241,1.385,3,2.775,4.97c1.377,1.977,3.26,4.154,5.498,6.433c2.227,2.29,4.8,4.707,7.21,7.536
									c1.203,1.413,2.29,2.874,3.204,4.375c0.918,1.499,1.648,3.028,2.304,4.49c0.644,1.461,1.257,2.852,1.832,4.158
									c0.584,1.29,1.189,2.473,1.722,3.557c1.049,2.175,2.22,3.75,3.256,4.612C443.096,414.957,443.785,415.283,443.756,415.329z"
									/>
							</g>
						</g>
					</g>
				</g>
			</g>
			<g>
				<g>
					<g>
						<g>
							<g>
								<path style="fill:#263238;" d="M425.746,409.646c-0.063-0.012,0.046-0.91,0.32-2.345c0.273-1.434,0.72-3.403,1.323-5.548
									c0.605-2.146,1.251-4.059,1.767-5.424c0.516-1.366,0.891-2.189,0.951-2.167c0.065,0.024-0.196,0.888-0.627,2.278
									c-0.431,1.39-1.023,3.309-1.625,5.444c-0.601,2.135-1.098,4.081-1.456,5.491
									C426.043,408.787,425.814,409.66,425.746,409.646z"/>
							</g>
						</g>
					</g>
				</g>
			</g>
			<g>
				<g>
					<g>
						<g>
							<g>
								<path style="fill:#263238;" d="M443.096,392.86c-0.021,0.067-0.953-0.171-2.453-0.564c-1.501-0.392-3.573-0.928-5.878-1.448
									c-2.306-0.519-4.409-0.923-5.933-1.212c-1.524-0.288-2.468-0.473-2.458-0.542c0.009-0.063,0.97,0.001,2.513,0.204
									c1.542,0.203,3.666,0.556,5.985,1.077c2.318,0.523,4.387,1.114,5.867,1.592C442.219,392.445,443.115,392.798,443.096,392.86
									z"/>
							</g>
						</g>
					</g>
				</g>
			</g>
			<g>
				<g>
					<g>
						<g>
							<g>
								<path style="fill:#263238;" d="M412.822,397.737c-0.064-0.012,0.071-1.05,0.377-2.713c0.306-1.662,0.794-3.948,1.445-6.445
									c0.653-2.498,1.345-4.73,1.89-6.33c0.546-1.6,0.936-2.571,0.997-2.551c0.066,0.022-0.209,1.03-0.67,2.653
									c-0.461,1.623-1.098,3.863-1.748,6.351c-0.649,2.488-1.187,4.753-1.579,6.394
									C413.143,396.736,412.89,397.75,412.822,397.737z"/>
							</g>
						</g>
					</g>
				</g>
			</g>
			<g>
				<g>
					<g>
						<g>
							<g>
								<path style="fill:#263238;" d="M435.106,378.231c-0.014,0.133-4.362-0.219-9.71-0.786c-5.35-0.567-9.674-1.135-9.66-1.268
									c0.014-0.133,4.361,0.219,9.711,0.786C430.795,377.53,435.12,378.098,435.106,378.231z"/>
							</g>
						</g>
					</g>
				</g>
			</g>
		</g>
		<g>
			<g>
				<g>
					<g>
						<g>
							<path style="fill:#455A64;" d="M431.921,430.956c0,0.134-15.284,0.242-34.132,0.242c-18.855,0-34.136-0.109-34.136-0.242
								c0-0.134,15.28-0.242,34.136-0.242C416.637,430.714,431.921,430.823,431.921,430.956z"/>
						</g>
					</g>
				</g>
			</g>
		</g>
		<g>
			<g>
				<g>
					<g>
						<g>
							<path style="fill:#455A64;" d="M421.287,450.624c0,0.134-10.298,0.242-22.997,0.242c-12.704,0-23-0.109-23-0.242
								c0-0.134,10.295-0.242,23-0.242C410.99,450.382,421.287,450.491,421.287,450.624z"/>
						</g>
					</g>
				</g>
			</g>
		</g>
		<g>
			<g>
				<g>
					<g>
						<g>
							<path style="fill:#455A64;" d="M420.888,453.436c0,0.134-10.118,0.242-22.597,0.242c-12.483,0-22.599-0.109-22.599-0.242
								s10.116-0.242,22.599-0.242C410.769,453.194,420.888,453.303,420.888,453.436z"/>
						</g>
					</g>
				</g>
			</g>
		</g>
		<g>
			<g>
				<g>
					<g>
						<g>
							<path style="fill:#455A64;" d="M421.689,448.306c0,0.134-10.652,0.242-23.788,0.242c-13.141,0-23.79-0.108-23.79-0.242
								c0-0.134,10.649-0.242,23.79-0.242C411.037,448.064,421.689,448.173,421.689,448.306z"/>
						</g>
					</g>
				</g>
			</g>
		</g>
	</g>
</g>
<g id="Speech_Bubble">
	<g>
		<g>
			<g>
				<g>
					<g>
						<path style="fill:#FAFAFA;" d="M285.015,47.198c-8.924-1.988-20.371,4.203-23.456,12.543
							c-3.085,8.34,0.263,18.66,6.979,24.488c-5.24,6.74-5.459,16.766-1.03,24.064s13.016,11.682,21.553,11.63
							c8.537-0.052,16.82-4.298,22.372-10.783c7.232,3.564,16.442,2.686,22.87-2.181c6.428-4.867,9.771-13.494,8.301-21.422
							c10.117-3.691,15.676-16.621,11.395-26.503s-17.515-14.67-27.128-9.814c0.208-10.771-9.186-20.822-19.946-21.342
							C296.164,27.358,285.846,36.457,285.015,47.198C285.678,47.09,284.351,47.305,285.015,47.198"/>
					</g>
				</g>
				<g>
					<g>
						<g>
							<path style="fill:#263238;" d="M285.015,47.198c0,0-0.042,0.014-0.159,0.037l-0.023,0.004l-0.006,0.001
								c-0.011-0.045-0.003-0.013-0.002-0.023l0.013-0.002l0.055-0.01c0.04-0.007,0.084-0.015,0.133-0.024
								c0.05-0.009,0.105-0.019,0.166-0.03c-0.002,0.077-0.112,0.041-0.173,0.069l-0.031,0.014l0.006-0.037
								c0.132-0.858,0.168-3.126,1.537-6.224c0.654-1.551,1.664-3.266,3.057-5.032c1.397-1.762,3.281-3.5,5.632-4.989
								c2.346-1.487,5.23-2.675,8.497-3.077c0.408-0.046,0.82-0.092,1.236-0.139c0.419-0.004,0.841-0.007,1.266-0.011
								c0.854-0.052,1.712,0.119,2.59,0.184c1.728,0.315,3.516,0.741,5.208,1.559c0.435,0.175,0.861,0.379,1.27,0.622
								c0.414,0.233,0.84,0.454,1.252,0.703c0.793,0.548,1.629,1.062,2.373,1.72c0.793,0.599,1.482,1.334,2.215,2.039
								c0.659,0.775,1.368,1.527,1.945,2.399c2.464,3.358,4.031,7.684,4.012,12.272l-0.307-0.193
								c4.181-2.092,9.351-2.493,14.221-1.115c4.847,1.352,9.558,4.477,12.313,9.22c2.792,4.727,3.073,10.849,1.127,16.229
								c-0.962,2.701-2.458,5.256-4.444,7.425c-1.98,2.167-4.471,3.942-7.3,4.989l0.164-0.288c0.767,4.137,0.237,8.572-1.449,12.586
								c-1.681,4.006-4.538,7.652-8.335,10.048c-6.569,4.168-15.108,4.502-21.753,1.247l0.309-0.063
								c-4.802,5.556-11.381,9.355-18.27,10.482c-6.892,1.198-13.93-0.563-19.266-4.265c-2.674-1.851-4.941-4.184-6.599-6.835
								c-1.649-2.654-2.688-5.601-3.086-8.552c-0.44-2.95-0.243-5.902,0.425-8.648c0.686-2.745,1.928-5.263,3.547-7.384l0.027,0.273
								c-3.252-2.852-5.459-6.464-6.774-10.106c-0.669-1.824-1.062-3.686-1.257-5.505c-0.19-1.819-0.184-3.611,0.093-5.307
								c0.481-3.399,1.914-6.423,3.87-8.621c1.916-2.24,4.107-3.868,6.209-5.051c2.109-1.185,4.146-1.921,5.947-2.387
								c1.809-0.453,3.39-0.596,4.663-0.617c1.273,0.006,2.248,0.085,2.887,0.225C284.689,47.124,285.015,47.198,285.015,47.198
								c0,0-0.335-0.035-0.979-0.13c-0.639-0.121-1.611-0.18-2.875-0.167c-1.265,0.04-2.832,0.2-4.623,0.667
								c-1.783,0.48-3.797,1.227-5.879,2.415c-2.074,1.187-4.233,2.813-6.11,5.033c-1.918,2.181-3.302,5.141-3.764,8.491
								c-0.265,1.669-0.264,3.434-0.07,5.225c0.198,1.791,0.592,3.624,1.258,5.42c1.307,3.585,3.496,7.137,6.695,9.926l0.141,0.123
								l-0.114,0.15c-1.578,2.079-2.788,4.548-3.454,7.241c-0.649,2.694-0.836,5.591-0.397,8.484
								c0.396,2.894,1.422,5.778,3.038,8.37c1.628,2.592,3.854,4.875,6.48,6.688c5.246,3.626,12.152,5.345,18.914,4.163
								c6.763-1.112,13.24-4.857,17.961-10.324l0.131-0.151l0.179,0.088c6.475,3.172,14.841,2.844,21.246-1.225
								c3.699-2.334,6.491-5.892,8.136-9.809c1.651-3.924,2.168-8.258,1.423-12.291l-0.039-0.213l0.204-0.075
								c5.527-2.049,9.586-6.845,11.449-12.099c1.908-5.26,1.635-11.226-1.072-15.821c-2.671-4.617-7.274-7.69-12.021-9.023
								c-4.769-1.358-9.824-0.973-13.906,1.056l-0.309,0.154l0.002-0.347c0.029-4.481-1.491-8.73-3.905-12.039
								c-0.564-0.86-1.26-1.601-1.905-2.366c-0.719-0.696-1.394-1.422-2.172-2.013c-0.73-0.651-1.55-1.158-2.329-1.701
								c-0.405-0.246-0.823-0.464-1.229-0.695c-0.402-0.242-0.819-0.443-1.247-0.617c-1.661-0.811-3.417-1.236-5.113-1.553
								c-0.862-0.066-1.705-0.24-2.544-0.191c-0.419,0.002-0.834,0.004-1.245,0.005c-0.409,0.044-0.814,0.088-1.216,0.132
								c-3.217,0.381-6.07,1.536-8.398,2.993c-2.333,1.459-4.21,3.166-5.607,4.901c-1.393,1.739-2.41,3.43-3.076,4.962
								c-1.392,3.06-1.467,5.311-1.637,6.165l-0.025-0.023c0.066,0.007,0.16-0.062,0.186,0.011
								c-0.061,0.009-0.117,0.017-0.167,0.024c-0.049,0.007-0.093,0.013-0.133,0.019l-0.055,0.008l-0.013,0.002
								c-0.004-0.01-0.001,0.024-0.005-0.023l0.006-0.001l0.023-0.003C284.971,47.198,285.015,47.198,285.015,47.198z"/>
						</g>
					</g>
				</g>
			</g>
			<g>
				<g>
					<g>
						<g>
							<path style="fill:#E8505B;" d="M301.809,91.321c2.098,1.162,4.507,1.703,6.858,1.377c2.772-0.383,5.367-1.998,7.12-4.431
								c1.662-2.306,2.341-5.098,1.863-7.658c-0.481-2.583-2.132-4.937-4.527-6.458c-1.909-1.218-4.119-1.803-6.275-1.703
								l0.185-9.028c0.019-0.882-0.682-1.612-1.566-1.631c-0.882-0.018-1.613,0.683-1.631,1.566l-0.223,10.915
								c-0.011,0.501,0.215,0.977,0.608,1.288c0.389,0.311,0.908,0.419,1.393,0.292c1.901-0.496,4.011-0.134,5.795,1.001
								c1.649,1.047,2.779,2.631,3.098,4.345c0.318,1.706-0.161,3.602-1.314,5.203c-1.245,1.727-3.054,2.868-4.964,3.133
								c-3.802,0.527-7.98-2.29-9.124-6.147c-0.25-0.847-1.139-1.329-1.986-1.079c-0.846,0.251-1.329,1.141-1.078,1.987
								C296.936,87.315,299.117,89.829,301.809,91.321z"/>
						</g>
					</g>
				</g>
				<g>
					<g>
						<g>
							<path style="fill:#E8505B;" d="M307.636,56.864c0.045-0.989-0.72-1.828-1.709-1.874c-0.989-0.045-1.828,0.72-1.874,1.709
								c-0.045,0.989,0.72,1.828,1.709,1.874C306.752,58.618,307.591,57.853,307.636,56.864z"/>
						</g>
					</g>
				</g>
			</g>
		</g>
		<g>
			<g>
				<g>
					<path style="fill:#FAFAFA;" d="M248.244,97.223c-4.544-0.505-9.139,3.164-9.651,7.708s3.151,9.143,7.694,9.662
						c4.542,0.518,9.148-3.138,9.673-7.68c0.525-4.542-3.125-9.152-7.666-9.684"/>
				</g>
			</g>
			<g>
				<g>
					<g>
						<path style="fill:#263238;" d="M248.293,97.229c0,0,0.787-0.033,2.098,0.454c1.292,0.476,3.106,1.612,4.451,3.75
							c0.657,1.063,1.195,2.371,1.344,3.854c0.137,1.476-0.124,3.119-0.932,4.59c-0.384,0.743-0.89,1.445-1.5,2.071
							c-0.597,0.638-1.3,1.203-2.086,1.66c-1.551,0.944-3.472,1.439-5.411,1.243c-1.933-0.245-3.695-1.161-4.993-2.43
							c-0.664-0.622-1.221-1.331-1.659-2.088c-0.453-0.747-0.788-1.546-0.995-2.356c-0.455-1.616-0.339-3.276,0.127-4.683
							c0.479-1.412,1.298-2.565,2.178-3.452c1.793-1.78,3.816-2.478,5.182-2.65c1.387-0.178,2.146,0.031,2.146,0.031
							c-0.002,0.064-0.771-0.066-2.114,0.169c-1.323,0.228-3.26,0.962-4.951,2.708c-0.83,0.87-1.594,1.987-2.031,3.33
							c-0.422,1.34-0.517,2.896-0.073,4.423c0.201,0.765,0.523,1.52,0.958,2.226c0.42,0.715,0.952,1.386,1.584,1.973
							c1.236,1.2,2.898,2.052,4.701,2.282c1.807,0.182,3.618-0.275,5.092-1.165c0.747-0.429,1.417-0.963,1.987-1.565
							c0.583-0.59,1.067-1.253,1.435-1.953c0.775-1.387,1.034-2.925,0.925-4.325c-0.122-1.407-0.615-2.667-1.228-3.702
							c-1.255-2.082-2.976-3.234-4.214-3.754C249.06,97.338,248.281,97.292,248.293,97.229z"/>
					</g>
				</g>
			</g>
		</g>
		<g>
			<g>
				<g>
					<path style="fill:#FAFAFA;" d="M231.219,116.244c-1.96-0.218-3.941,1.365-4.162,3.324c-0.221,1.959,1.359,3.943,3.318,4.167
						c1.959,0.224,3.945-1.354,4.172-3.312c0.226-1.959-1.348-3.947-3.306-4.176"/>
				</g>
			</g>
			<g>
				<g>
					<g>
						<path style="fill:#263238;" d="M231.241,116.247c0-0.023,0.345-0.055,0.927,0.142c0.573,0.192,1.381,0.678,1.988,1.616
							c0.296,0.466,0.541,1.044,0.612,1.705c0.067,0.658-0.047,1.397-0.404,2.055c-0.677,1.309-2.24,2.406-4.017,2.228
							c-1.773-0.227-3.049-1.648-3.413-3.076c-0.2-0.722-0.143-1.468,0.07-2.094c0.219-0.628,0.587-1.136,0.981-1.524
							c0.802-0.777,1.699-1.068,2.3-1.127c0.611-0.061,0.94,0.047,0.935,0.07c-0.003,0.048-0.336,0.012-0.902,0.13
							c-0.558,0.114-1.369,0.441-2.07,1.184c-0.698,0.718-1.236,1.949-0.85,3.235c0.34,1.254,1.502,2.499,3.009,2.683
							c1.509,0.159,2.922-0.792,3.535-1.937c0.665-1.166,0.418-2.486-0.1-3.343c-0.515-0.882-1.231-1.383-1.75-1.62
							C231.566,116.334,231.234,116.294,231.241,116.247z"/>
					</g>
				</g>
			</g>
		</g>
	</g>
</g>
</svg>
