<?xml version="1.0" encoding="utf-8"?>
<!-- Generator: Adobe Illustrator 27.5.0, SVG Export Plug-In . SVG Version: 6.00 Build 0)  -->
<svg version="1.1" xmlns="http://www.w3.org/2000/svg" xmlns:xlink="http://www.w3.org/1999/xlink" x="0px" y="0px"
	 viewBox="0 0 500 500" style="enable-background:new 0 0 500 500;" xml:space="preserve">
<g id="Background_Complete">
	<g>
		<g>
			<rect x="167.011" y="378.75" style="fill:#EBEBEB;" width="104.154" height="80.332"/>
			<g>
				<path style="fill:#E0E0E0;" d="M245.07,458.516c-0.144,0-0.26-17.906-0.26-39.99c0-22.091,0.117-39.993,0.26-39.993
					s0.26,17.902,0.26,39.993C245.33,440.609,245.214,458.516,245.07,458.516z"/>
			</g>
			<rect x="254.349" y="440.798" style="fill:#FAFAFA;" width="7.985" height="9.026"/>
			<rect x="198.785" y="378.957" style="fill:#E0E0E0;" width="11.831" height="17.141"/>
			<rect x="198.785" y="441.703" style="fill:#E0E0E0;" width="11.831" height="17.141"/>
		</g>
	</g>
	<g>
		<g>
			<rect x="328.821" y="358.609" style="fill:#EBEBEB;" width="131.326" height="101.29"/>
			<g>
				<path style="fill:#E0E0E0;" d="M427.243,459.184c-0.144,0-0.26-22.578-0.26-50.422c0-27.854,0.117-50.427,0.26-50.427
					s0.26,22.573,0.26,50.427C427.504,436.607,427.387,459.184,427.243,459.184z"/>
			</g>
			<rect x="438.943" y="436.844" style="fill:#FAFAFA;" width="10.068" height="11.381"/>
			<rect x="368.884" y="358.871" style="fill:#E0E0E0;" width="14.917" height="21.613"/>
			<rect x="368.884" y="437.985" style="fill:#E0E0E0;" width="14.917" height="21.613"/>
		</g>
	</g>
	<g>
		<g>
			<g>
				<g>
					<g>
						<path style="fill:#EBEBEB;" d="M81.461,361.589c5.315-2.742,11.574-3.099,17.475-2.124c3.17,0.524,6.475,1.473,8.632,3.854
							c2.157,2.381,2.566,6.572,0.089,8.618c-1.475,1.218-3.531,1.403-5.443,1.381c-4.619-0.054-9.745-0.867-13.435,1.912
							c-2.106,1.586-3.507,4.222-6.025,5.002c-2.463,0.763-5.242-0.691-6.548-2.913c-1.306-2.223-1.349-5.001-0.741-7.507
							C75.466,369.812,76.107,364.352,81.461,361.589z"/>
					</g>
				</g>
			</g>
			<g>
				<g>
					<g>
						<path style="fill:#EBEBEB;" d="M69.284,338.082c3.25,4.642,9.567,3.105,12.496,0.272c2.929-2.833,4.167-6.94,5.294-10.856
							c2.575-8.948,5.171-18.334,3.256-27.446c-0.572-2.724-1.591-5.441-3.505-7.462c-1.914-2.021-4.858-3.223-7.549-2.512
							c-3.185,0.841-5.165,3.961-6.595,6.929c-4.205,8.723-6.432,18.393-6.465,28.076C66.199,329.605,66.733,334.348,69.284,338.082
							"/>
					</g>
				</g>
			</g>
			<g>
				<g>
					<g>
						<path style="fill:#EBEBEB;" d="M60.358,344.742c3.529-4.188,4.199-10.297,2.628-15.543c-1.57-5.247-5.118-9.71-9.206-13.354
							c-4.794-4.272-10.428-7.597-16.486-9.727c-2.384-0.838-4.898-1.499-7.414-1.259c-2.516,0.24-5.049,1.526-6.222,3.764
							c-1.735,3.309-0.072,7.322,1.728,10.597c3.17,5.769,6.794,11.287,10.828,16.489c3.245,4.184,6.963,8.311,11.909,10.202
							c4.946,1.891,10.084,1.668,12.706-1.762"/>
					</g>
				</g>
			</g>
			<g>
				<g>
					<g>
						<g>
							<path style="fill:#E0E0E0;" d="M69.064,408.105c0.061,0.004,0.16-0.748,0.294-2.109c0.149-1.535,0.337-3.463,0.56-5.756
								c0.268-2.422,0.622-5.305,1.295-8.444c0.671-3.131,1.721-6.524,3.069-9.966c1.396-3.421,3.099-6.53,5.089-9.017
								c1.976-2.498,4.273-4.306,6.433-5.348c2.153-1.064,4.084-1.495,5.418-1.687c1.346-0.138,2.1-0.244,2.1-0.304
								c0.001-0.06-0.755-0.07-2.137-0.033c-1.37,0.091-3.38,0.438-5.65,1.47c-2.276,1.01-4.714,2.846-6.786,5.395
								c-2.089,2.539-3.854,5.717-5.275,9.199c-1.372,3.502-2.406,6.93-3.047,10.129c-0.639,3.193-0.931,6.108-1.122,8.55
								c-0.183,2.444-0.252,4.424-0.285,5.792C68.989,407.343,69.004,408.102,69.064,408.105z"/>
						</g>
					</g>
				</g>
			</g>
			<g>
				<g>
					<g>
						<g>
							<path style="fill:#E0E0E0;" d="M69.46,403.676c0.03-0.002,0.049-0.339,0.057-0.979c-0.002-0.735-0.004-1.662-0.007-2.799
								c-0.007-2.429-0.006-5.944,0.124-10.284c0.215-8.681,0.962-18.024,2.406-31.195c1.367-12.386,3.202-26.8,5.139-36.171
								c0.415-2.131,0.833-4.05,1.227-5.729c0.375-1.684,0.696-3.135,1.005-4.309c0.266-1.105,0.482-2.006,0.654-2.72
								c0.14-0.625,0.2-0.957,0.171-0.966c-0.029-0.008-0.145,0.307-0.34,0.918c-0.213,0.704-0.482,1.592-0.813,2.682
								c-0.36,1.164-0.73,2.605-1.151,4.282c-0.44,1.673-0.901,3.586-1.356,5.714c-1.916,8.492-3.945,20.36-5.402,33.563
								c-1.447,13.199-2.098,25.217-2.156,33.92c-0.052,4.351,0.041,7.874,0.152,10.304c0.069,1.137,0.126,2.063,0.171,2.797
								C69.39,403.343,69.43,403.677,69.46,403.676z"/>
						</g>
					</g>
				</g>
			</g>
			<g>
				<g>
					<g>
						<g>
							<path style="fill:#E0E0E0;" d="M69.518,380.496c0.061-0.002,0.05-1.041-0.02-2.924c-0.108-1.879-0.366-4.594-0.895-7.921
								c-0.561-3.319-1.345-7.259-2.576-11.541c-0.534-1.958-1.788-6.648-4.826-13.656c-4.003-9.496-9.441-17.26-14.173-22.068
								c-1.11-1.276-2.346-2.197-3.334-3.099c-0.512-0.432-0.964-0.864-1.424-1.206c-0.463-0.319-0.894-0.616-1.293-0.892
								c-1.557-1.065-2.429-1.626-2.461-1.576c-0.14,0.19,3.488,2.325,8.068,7.198c4.562,4.863,9.848,12.573,13.819,21.989
								c2.214,5.107,3.758,9.663,4.854,13.53c1.266,4.24,2.106,8.141,2.741,11.426c0.604,3.293,0.953,5.981,1.164,7.843
								C69.334,379.465,69.459,380.498,69.518,380.496z"/>
						</g>
					</g>
				</g>
			</g>
		</g>
		<g>
			<g>
				<g>
					<polygon style="fill:#EBEBEB;" points="45.563,417.864 47.885,449.685 88.765,449.685 91.087,417.864 					"/>
				</g>
			</g>
		</g>
		<g>
			<g>
				<g>
					<rect x="41.614" y="405.321" style="fill:#EBEBEB;" width="54.351" height="12.542"/>
				</g>
			</g>
		</g>
		<g>
			<g>
				<g>
					<polygon style="fill:#E0E0E0;" points="41.614,448.467 41.614,451.944 44.168,451.944 95.067,451.944 95.067,448.467 					"/>
				</g>
			</g>
		</g>
		<g>
			<g>
				<g>
					<polygon style="fill:#E0E0E0;" points="46.671,457.677 44.168,451.559 93.12,451.559 90.199,457.677 					"/>
				</g>
			</g>
		</g>
		<g>
			<g>
				<g>
					<g>
						<path style="fill:#F5F5F5;" d="M90.328,428.264c0.009,0.007-0.056,0.107-0.19,0.292c-0.162,0.215-0.363,0.482-0.611,0.81
							c-0.58,0.743-1.378,1.764-2.381,3.048l-0.106,0.136l-0.103-0.142c-1.497-2.07-3.497-4.836-5.851-8.092h0.337
							c-1.74,2.464-3.679,5.209-5.76,8.156l-0.181,0.256l-0.202-0.241c-2.126-2.529-4.435-5.276-6.831-8.128l0.394-0.005
							c-0.119,0.149-0.247,0.31-0.376,0.472c-2.119,2.656-4.169,5.227-6.108,7.658l-0.204,0.255l-0.188-0.266
							c-2.074-2.934-4.011-5.675-5.763-8.154l0.335,0.016c-2.84,3.236-5.249,5.98-7.097,8.086l-0.126,0.144l-0.096-0.162
							c-0.936-1.572-1.682-2.825-2.222-3.734c-0.232-0.405-0.42-0.733-0.57-0.994c-0.126-0.227-0.185-0.348-0.174-0.355
							c0.011-0.007,0.092,0.101,0.238,0.315c0.166,0.251,0.374,0.567,0.631,0.957c0.568,0.892,1.351,2.122,2.333,3.666l-0.222-0.018
							c1.819-2.132,4.189-4.91,6.984-8.185l0.176-0.206l0.159,0.223c1.767,2.467,3.722,5.196,5.814,8.117l-0.391-0.011
							c1.935-2.435,3.98-5.009,6.094-7.669c0.129-0.162,0.257-0.323,0.376-0.472l0.194-0.244l0.2,0.239
							c2.39,2.857,4.692,5.61,6.812,8.144l-0.382,0.015c2.102-2.932,4.06-5.663,5.817-8.115l0.171-0.238l0.166,0.238
							c2.305,3.291,4.262,6.087,5.727,8.18l-0.208-0.006c1.044-1.251,1.873-2.246,2.477-2.97c0.269-0.311,0.487-0.564,0.663-0.768
							C90.236,428.341,90.319,428.256,90.328,428.264z"/>
					</g>
				</g>
			</g>
		</g>
		<g>
			<g>
				<g>
					<g>
						<path style="fill:#F5F5F5;" d="M91.656,417.654c0,0.141-10.243,0.255-22.875,0.255c-12.637,0-22.878-0.114-22.878-0.255
							c0-0.14,10.241-0.254,22.878-0.254C81.413,417.399,91.656,417.513,91.656,417.654z"/>
					</g>
				</g>
			</g>
		</g>
	</g>
	<g>
		<g>
			<g>
				<g>
					
						<rect x="370.151" y="56.843" transform="matrix(1 -0.0054 0.0054 1 -0.4109 2.0068)" style="fill:#E0E0E0;" width="8.38" height="41.7"/>
				</g>
			</g>
		</g>
		<g>
			<g>
				<g>
					<g>
						
							<rect x="297.501" y="56.988" transform="matrix(1 -0.0054 0.0054 1 -0.3623 1.652)" style="fill:#EBEBEB;" width="21.702" height="23.021"/>
					</g>
				</g>
			</g>
			<g>
				<g>
					<g>
						
							<rect x="319.1" y="56.872" transform="matrix(1 -0.0054 0.0054 1 -0.3614 1.7677)" style="fill:#F5F5F5;" width="21.702" height="23.021"/>
					</g>
				</g>
			</g>
			<g>
				<g>
					<g>
						<g>
							<path style="fill:#E0E0E0;" d="M297.473,63.404c14.422,0.119,28.88,0.035,43.3-0.199c0.297-0.005,0.295-0.459-0.003-0.461
								c-14.422-0.08-28.88-0.009-43.3,0.265C297.217,63.013,297.219,63.402,297.473,63.404L297.473,63.404z"/>
						</g>
					</g>
				</g>
			</g>
		</g>
		<g>
			<g>
				<g>
					<g>
						
							<rect x="283.959" y="79.672" transform="matrix(1 -0.0054 0.0054 1 -0.4729 1.6287)" style="fill:#EBEBEB;" width="39.429" height="18.76"/>
					</g>
				</g>
			</g>
			<g>
				<g>
					<g>
						
							<rect x="323.2" y="79.462" transform="matrix(1 -0.0054 0.0054 1 -0.471 1.8381)" style="fill:#F5F5F5;" width="39.429" height="18.76"/>
					</g>
				</g>
			</g>
			<g>
				<g>
					<g>
						<g>
							<path style="fill:#E0E0E0;" d="M283.937,84.995c26.193,0.297,52.478,0.031,78.67-0.388c0.297-0.005,0.295-0.46-0.002-0.461
								c-26.195-0.138-52.481-0.123-78.669,0.454C283.68,84.606,283.682,84.993,283.937,84.995L283.937,84.995z"/>
						</g>
					</g>
				</g>
			</g>
		</g>
		<g>
			<g>
				<g>
					<rect x="269.192" y="98.538" style="fill:#E0E0E0;" width="152.757" height="6.721"/>
				</g>
			</g>
			<g>
				<g>
					<rect x="294.201" y="101.77" style="fill:#E0E0E0;" width="6.201" height="22.934"/>
				</g>
			</g>
			<g>
				<g>
					<rect x="386.772" y="101.77" style="fill:#E0E0E0;" width="6.201" height="22.934"/>
				</g>
			</g>
		</g>
		<g>
			<g>
				<g>
					
						<rect x="378.371" y="41.293" transform="matrix(1 -0.0054 0.0054 1 -0.3694 2.0507)" style="fill:#EBEBEB;" width="8.38" height="57.352"/>
				</g>
			</g>
		</g>
		<g>
			<g>
				<g>
					<g>
						
							<rect x="386.795" y="51.982" transform="matrix(1 -0.0054 0.0054 1 -0.3976 2.1093)" style="fill:#F5F5F5;" width="13.022" height="46.477"/>
					</g>
				</g>
			</g>
			<g>
				<g>
					<g>
						<path style="fill:#E0E0E0;" d="M399.604,60.901c0,0.125-2.915,0.226-6.51,0.226c-3.597,0-6.511-0.101-6.511-0.226
							c0-0.125,2.915-0.226,6.511-0.226C396.689,60.676,399.604,60.777,399.604,60.901z"/>
					</g>
				</g>
			</g>
			<g>
				<g>
					<g>
						<path style="fill:#E0E0E0;" d="M399.604,58.949c0,0.125-2.915,0.226-6.51,0.226c-3.597,0-6.511-0.101-6.511-0.226
							c0-0.125,2.915-0.226,6.511-0.226C396.689,58.723,399.604,58.824,399.604,58.949z"/>
					</g>
				</g>
			</g>
			<g>
				<g>
					<g>
						<path style="fill:#E0E0E0;" d="M399.604,91.431c0,0.125-2.915,0.226-6.51,0.226c-3.597,0-6.511-0.101-6.511-0.226
							c0-0.125,2.915-0.226,6.511-0.226C396.689,91.206,399.604,91.307,399.604,91.431z"/>
					</g>
				</g>
			</g>
			<g>
				<g>
					<g>
						<path style="fill:#E0E0E0;" d="M399.604,89.479c0,0.125-2.915,0.226-6.51,0.226c-3.597,0-6.511-0.101-6.511-0.226
							c0-0.125,2.915-0.226,6.511-0.226C396.689,89.253,399.604,89.354,399.604,89.479z"/>
					</g>
				</g>
			</g>
			<g>
				<g>
					<g>
						<path style="fill:#E0E0E0;" d="M393.303,85.219c-0.125,0-0.226-4.689-0.226-10.472c0-5.785,0.101-10.473,0.226-10.473
							s0.226,4.688,0.226,10.473C393.529,80.53,393.427,85.219,393.303,85.219z"/>
					</g>
				</g>
			</g>
		</g>
		<g>
			<g>
				<g>
					<rect x="399.745" y="63.361" style="fill:#EBEBEB;" width="14.174" height="35.081"/>
				</g>
			</g>
		</g>
		<g>
			<g>
				<circle style="fill:#E0E0E0;" cx="382.284" cy="51.063" r="2.409"/>
			</g>
		</g>
		<g>
			<g>
				<rect x="381.54" y="57.688" style="fill:#E0E0E0;" width="1.489" height="34.118"/>
			</g>
		</g>
	</g>
</g>
<g id="Background_Simple" style="display:none;">
	<path style="display:inline;fill:#EBEBEB;" d="M415.728,110.916l-2.119-3.447c-17.859-29.061-50.149-46.58-84.193-44.454
		c-4.376,0.273-8.734,0.858-13.033,1.767c-30.953,6.543-57.886,29.656-69.049,59.258c-6.566,17.409-8.4,37.454-20.859,51.273
		c-16.215,17.984-43.744,18.549-67.948,17.804c-24.203-0.745-51.751-0.11-67.887,17.946c-10.106,11.308-13.318,27.388-12.503,42.531
		c2.157,40.092,30.449,75.941,66.429,93.76c35.98,17.819,78.342,19.414,117.72,11.576c55.164-10.981,107.624-41.136,139.157-87.712
		C432.977,224.641,440.957,161.186,415.728,110.916z"/>
</g>
<g id="Floor">
	<g>
		<path style="fill:#263238;" d="M464.657,459.351c0,0.144-96.113,0.26-214.647,0.26c-118.575,0-214.667-0.117-214.667-0.26
			c0-0.144,96.092-0.26,214.667-0.26C368.544,459.091,464.657,459.207,464.657,459.351z"/>
	</g>
</g>
<g id="Character">
	<g>
		<g>
			<path style="fill:#263238;" d="M149.209,92.351c4.694,5.696,7.298,13.077,7.218,20.458c-0.046,4.218-0.823,8.869,1.631,12.3
				c1.862,2.604,5.258,3.907,6.771,6.729c1.82,3.393,0.268,7.679,1.388,11.363c1.587,5.222,7.704,7.406,11.331,11.485
				c3.145,3.537,4.309,8.713,3.042,13.274c-1.267,4.561-4.903,8.377-9.376,9.925c-2.402,0.831-5.148,1.009-7.422-0.124
				c-2.453-1.223-3.969-3.731-5.197-6.181c-2.415-4.815-23.587-30.872-24.786-36.124"/>
			<path style="fill:#263238;" d="M133.807,86.208c-8.657-1.394-16.978,4.354-20.626,12.328c-3.648,7.974-3.747,17.043-4.016,25.808
				c-0.269,8.765-0.885,17.914-5.359,25.456c-2.84,4.787-7.237,8.985-7.927,14.508c-0.617,4.945,1.942,9.925,1.092,14.835
				c-0.74,4.275-3.997,7.994-3.868,12.331c0.155,5.217,5.521,9.148,10.739,9.288c5.217,0.14,10.092-2.594,14.182-5.835
				c6.637-5.26,12.017-12.096,15.569-19.783"/>
		</g>
		<g>
			<g>
				<g>
					<g>
						<g>
							<path style="fill:#FFBE9D;" d="M119.565,106.853c-1.144-9.13,5.461-17.474,14.732-18.357
								c8.738-0.833,16.504,5.674,17.813,14.353c1.148,7.609,2.135,15.289,2.1,18.078c-0.107,8.412-5.029,11.686-7.024,12.67
								c-0.455,0.225-1.711,0.479-2.214,0.551l0,0c-0.031,0.005-0.053,0.034-0.047,0.065l1.868,9.656
								c0.847,6.327-2.685,11.969-9.001,12.89c-6.337,0.924-11.291-3.936-12.259-10.267L119.565,106.853z"/>
						</g>
						<g>
							<g>
								<g>
									<g>
										<g>
											<g>
												<path style="fill:#263238;" d="M150.39,106.534c-0.139,0.197-1.25-0.399-2.673-0.188
													c-1.425,0.191-2.363,1.076-2.543,0.924c-0.087-0.066,0.035-0.402,0.441-0.8c0.4-0.395,1.117-0.827,2.005-0.953
													c0.888-0.124,1.681,0.093,2.159,0.365C150.265,106.155,150.459,106.445,150.39,106.534z"/>
											</g>
										</g>
									</g>
								</g>
							</g>
						</g>
						<g>
							<g>
								<g>
									<g>
										<g>
											<g>
												<path style="fill:#263238;" d="M137.727,109.61c-0.139,0.197-1.251-0.399-2.673-0.188
													c-1.424,0.19-2.363,1.075-2.543,0.923c-0.087-0.066,0.033-0.401,0.442-0.799c0.4-0.395,1.117-0.827,2.004-0.953
													c0.888-0.124,1.682,0.093,2.159,0.365C137.602,109.231,137.796,109.521,137.727,109.61z"/>
											</g>
										</g>
									</g>
								</g>
							</g>
						</g>
						<g>
							<g>
								<g>
									<g>
										<g>
											<path style="fill:#263238;" d="M142.918,117.243c-0.018-0.08,0.844-0.362,2.252-0.754
												c0.358-0.091,0.692-0.213,0.717-0.47c0.047-0.275-0.162-0.645-0.4-1.042c-0.47-0.83-0.962-1.7-1.479-2.612
												c-2.068-3.724-3.621-6.808-3.471-6.89c0.151-0.082,1.949,2.87,4.017,6.594c0.501,0.92,0.98,1.796,1.436,2.635
												c0.198,0.393,0.503,0.827,0.397,1.399c-0.058,0.286-0.296,0.522-0.52,0.619c-0.223,0.105-0.427,0.139-0.605,0.176
												C143.83,117.187,142.936,117.324,142.918,117.243z"/>
										</g>
									</g>
								</g>
							</g>
						</g>
						<g>
							<g>
								<g>
									<g>
										<path style="fill:#EB996E;" d="M144.914,134.156c0,0-5.432,1.253-12.911-1.878c0,0,3.229,6.951,13.415,4.48
											L144.914,134.156z"/>
									</g>
								</g>
							</g>
						</g>
						<g>
							<g>
								<g>
									<g>
										<path style="fill:#263238;" d="M137.011,105.88c-0.084,0.408-1.532,0.431-3.174,0.876
											c-1.65,0.412-2.926,1.097-3.198,0.782c-0.123-0.152,0.058-0.55,0.549-1.005c0.485-0.453,1.295-0.934,2.281-1.192
											c0.987-0.256,1.928-0.23,2.573-0.072C136.691,105.428,137.045,105.687,137.011,105.88z"/>
									</g>
								</g>
							</g>
						</g>
						<g>
							<g>
								<g>
									<g>
										<path style="fill:#263238;" d="M149.222,103.379c-0.204,0.36-1.233,0.167-2.415,0.324
											c-1.187,0.115-2.147,0.535-2.426,0.23c-0.125-0.15-0.015-0.497,0.377-0.866c0.386-0.368,1.068-0.722,1.883-0.816
											c0.814-0.092,1.559,0.099,2.018,0.37C149.124,102.892,149.309,103.205,149.222,103.379z"/>
									</g>
								</g>
							</g>
						</g>
					</g>
				</g>
				<g>
					<g>
						<g>
							<g>
								<g>
									<g>
										<path style="fill:#263238;" d="M134.642,111.449c0.098,0.618,0.701,1.045,1.349,0.955c0.646-0.09,1.092-0.663,0.995-1.281
											c-0.098-0.618-0.702-1.046-1.348-0.956C134.99,110.257,134.544,110.83,134.642,111.449z"/>
									</g>
								</g>
							</g>
						</g>
					</g>
				</g>
				<g>
					<g>
						<g>
							<g>
								<g>
									<g>
										<path style="fill:#263238;" d="M147.249,108.721c0.097,0.618,0.702,1.045,1.349,0.955c0.646-0.09,1.092-0.663,0.995-1.281
											c-0.098-0.618-0.702-1.046-1.348-0.956C147.597,107.529,147.151,108.103,147.249,108.721z"/>
									</g>
								</g>
							</g>
						</g>
					</g>
				</g>
				<path style="fill:#EB996E;" d="M145.158,120.016c-0.916-0.265-1.705,0.199-2.076,0.863c-0.372,0.664-0.283,1.573,0.252,2.114
					c0.535,0.542,1.487,0.627,2.078,0.147c0.4-0.326,0.602-0.846,0.653-1.36c0.047-0.475-0.03-0.983-0.323-1.359
					c-0.293-0.377-0.835-0.579-1.271-0.385"/>
				<path style="fill:#263238;" d="M151,96.043c-0.651-3.164-2.83-5.863-5.482-7.707c-2.253-1.566-4.918-2.603-7.66-2.687
					c-2.743-0.084-5.554,0.838-7.535,2.736c-1.465,1.403-2.216,3.391-2.284,5.417l0.159-1.398c-0.411,1.148-0.41,2.395,0.018,3.524
					c0.001,0.002,0.001,0.005,0.001,0.007l-0.001-0.006c0.232,0.613,0.51,1.225,0.756,1.84c0.7,1.748,2.056,3.223,3.738,4.068
					c0.775,0.389,1.634,0.65,2.501,0.609c0.866-0.041,1.74-0.414,2.266-1.104c0.751-0.985,0.664-2.351,0.542-3.584
					c0.744,1.162,1.533,2.367,2.729,3.055c1.196,0.688,2.923,0.664,3.765-0.43c0.815-1.058,0.492-2.579,0.02-3.829
					c0.764,1.165,1.859,2.111,3.123,2.699c0.699,0.325,1.524,0.538,2.232,0.232c0.6-0.26,1.005-0.861,1.158-1.497
					C151.2,97.353,151.132,96.684,151,96.043z"/>
				<g>
					<path style="fill:#455A64;" d="M143.775,98.655c-0.091,0.003-0.076-1.186-0.46-3.03c-0.386-1.813-1.304-4.376-3.453-6.27
						c-1.059-0.935-2.277-1.582-3.46-1.868c-1.185-0.293-2.312-0.258-3.22-0.081c-1.839,0.374-2.73,1.246-2.785,1.155
						c-0.018-0.02,0.173-0.254,0.613-0.572c0.437-0.318,1.142-0.699,2.091-0.942c0.945-0.234,2.139-0.313,3.411-0.027
						c1.272,0.28,2.576,0.957,3.695,1.945c2.272,2.004,3.17,4.721,3.47,6.59c0.153,0.952,0.187,1.731,0.18,2.267
						C143.849,98.361,143.807,98.656,143.775,98.655z"/>
				</g>
			</g>
		</g>
		<path style="fill:#FFBE9D;" d="M235.874,215.246l-38.451-15.243c0,0-19.698-25.831-19.287-26.332l-13.826,15.143l20.096,27.204
			l46.567,10.901l22.054,0.178C251.321,218.615,235.874,215.246,235.874,215.246z"/>
		<g>
			<g>
				<g>
					<g>
						<g>
							<path style="fill:#E8505B;" d="M152.067,141.558l-5.235-2.029l-22.62,2.868v3.997l-0.648,0.079c0,0-7.026,1.277-13.857,5.378
								c-8.271,4.966-12.57,14.544-11.038,24.07c0.92,5.72,2.703,12.673,6.138,16.691c6.569,7.685,12.569-1.813,12.569-1.813
								s4.124,9.405,3.887,13.853c-0.198,3.725-1.846,11.487-2.376,13.911c-0.089,0.409,0.179,0.803,0.59,0.879l47.719,8.822
								l0.233-11.663l-1.518-47.972l-2.106-18.632C163.805,149.999,163.872,141.098,152.067,141.558z"/>
						</g>
					</g>
				</g>
			</g>
			<polygon style="fill:#E8505B;" points="163.073,146.9 181.267,173.188 166.619,191.031 			"/>
			<g>
				<path style="fill:#263238;" d="M166.973,202.22c-0.036-0.001-0.06-0.605-0.072-1.697c-0.015-1.179-0.034-2.736-0.058-4.619
					c-0.094-3.896-0.314-9.283-1.09-15.177c-0.754-5.898-1.9-11.167-2.777-14.965c-0.431-1.834-0.787-3.35-1.057-4.498
					c-0.249-1.063-0.37-1.655-0.336-1.664c0.035-0.009,0.222,0.565,0.532,1.613c0.311,1.047,0.734,2.57,1.219,4.462
					c0.97,3.782,2.179,9.059,2.936,14.986c0.78,5.921,0.942,11.335,0.942,15.24c-0.019,1.954-0.047,3.535-0.108,4.626
					C167.054,201.618,167.009,202.221,166.973,202.22z"/>
			</g>
			<g>
				<path style="fill:#FAFAFA;" d="M122.203,162.249c-0.003,0.084-1.381,0.067-3.596,0.185c-2.215,0.116-5.268,0.42-8.58,1.102
					c-3.312,0.689-6.235,1.624-8.313,2.397c-2.08,0.771-3.338,1.334-3.374,1.258c-0.016-0.032,0.283-0.207,0.837-0.495
					c0.552-0.293,1.372-0.674,2.402-1.106c2.059-0.867,4.996-1.868,8.342-2.564c3.346-0.69,6.439-0.938,8.673-0.96
					c1.117-0.013,2.021,0.011,2.644,0.061C121.861,162.172,122.204,162.214,122.203,162.249z"/>
			</g>
			<g>
				<path style="fill:#FAFAFA;" d="M164.348,174.285c0.011,0.067-0.852,0.276-2.268,0.493c-1.416,0.217-3.387,0.427-5.574,0.503
					c-2.187,0.074-4.169,0-5.596-0.12c-1.428-0.119-2.303-0.269-2.297-0.337c0.006-0.075,0.891-0.056,2.315-0.031
					c1.424,0.026,3.39,0.041,5.56-0.032c2.169-0.075,4.129-0.225,5.548-0.348C163.456,174.29,164.337,174.21,164.348,174.285z"/>
			</g>
			<g>
				<path style="fill:#FAFAFA;" d="M172.701,162.387c0.093,0.097-1.518,1.706-3.903,3.158c-2.379,1.463-4.545,2.164-4.589,2.037
					c-0.058-0.143,1.984-1.046,4.317-2.482C170.865,163.677,172.6,162.271,172.701,162.387z"/>
			</g>
			<g>
				<path style="fill:#FAFAFA;" d="M165.347,150.198c0.09,0.089-2.056,2.018-5.299,3.378c-3.234,1.383-6.112,1.581-6.114,1.455
					c-0.027-0.16,2.755-0.583,5.911-1.935C163.011,151.771,165.251,150.067,165.347,150.198z"/>
			</g>
			<g>
				<path style="fill:#FAFAFA;" d="M166.34,194.636c0.014,0.033-0.323,0.208-0.945,0.497c-0.62,0.294-1.54,0.671-2.692,1.093
					c-2.303,0.847-5.58,1.793-9.289,2.367c-3.712,0.566-7.122,0.648-9.573,0.531c-1.226-0.057-2.216-0.14-2.896-0.235
					c-0.68-0.088-1.054-0.154-1.05-0.19c0.008-0.085,1.517,0.037,3.956,0.057c2.437,0.022,5.809-0.117,9.485-0.677
					c3.673-0.568,6.931-1.447,9.249-2.2C164.904,195.127,166.307,194.557,166.34,194.636z"/>
			</g>
			<g>
				<path style="fill:#FAFAFA;" d="M166.711,208.194c0.007,0.016-0.14,0.099-0.427,0.242c-0.344,0.163-0.762,0.362-1.267,0.601
					c-1.1,0.522-2.729,1.199-4.769,1.962c-2.038,0.771-4.509,1.568-7.288,2.332c-2.786,0.736-5.883,1.423-9.169,1.943
					c-3.29,0.5-6.451,0.784-9.329,0.926c-2.88,0.114-5.477,0.104-7.653-0.014c-2.175-0.109-3.932-0.261-5.139-0.425
					c-0.553-0.075-1.011-0.138-1.389-0.189c-0.317-0.049-0.482-0.083-0.48-0.101c0.002-0.018,0.171-0.019,0.491-0.003
					c0.38,0.025,0.84,0.055,1.397,0.091c1.21,0.102,2.965,0.197,5.133,0.258c2.168,0.07,4.752,0.043,7.615-0.097
					c2.862-0.168,6.001-0.464,9.273-0.962c3.267-0.517,6.348-1.186,9.126-1.893c2.77-0.734,5.241-1.491,7.286-2.214
					c2.047-0.715,3.692-1.338,4.814-1.802c0.519-0.203,0.949-0.372,1.303-0.51C166.542,208.229,166.703,208.178,166.711,208.194z"/>
			</g>
		</g>
		<g>
			<g>
				<g>
					<path style="fill:#E8505B;" d="M78.968,420.777l-5.405,24.433l-9.847,18.092c-0.71,1.304-0.167,2.936,1.182,3.556l0,0
						c0.756,0.347,1.625,0.31,2.345-0.106c4.581-2.647,21.386-12.468,21.681-14.278c0.342-2.096,7.412-25.394,7.412-25.394
						L78.968,420.777z"/>
				</g>
				<g style="opacity:0.6;">
					<path style="fill:#FFFFFF;" d="M64.898,466.858l24.429-16.024l-0.253,1.03c-0.218,0.89-0.742,1.676-1.485,2.212
						c-1.988,1.435-7.564,5.277-20.273,12.695C66.577,467.203,65.666,467.236,64.898,466.858L64.898,466.858z"/>
				</g>
				<g style="opacity:0.6;">
					<g>
						<path style="fill:#FFFFFF;" d="M86.262,441.771c-0.712,0.272-1.137,1.144-0.895,1.866c0.242,0.723,1.125,1.163,1.842,0.904
							c0.717-0.259,1.259-1.29,0.938-1.981c-0.321-0.691-1.387-1.151-2.02-0.727"/>
					</g>
				</g>
				<g>
					<g>
						<path style="fill:#263238;" d="M73.058,457.602c-0.154,0.033-0.39-1.374-1.667-2.413c-1.246-1.077-2.673-1.064-2.667-1.221
							c-0.006-0.065,0.347-0.178,0.936-0.119c0.584,0.055,1.386,0.337,2.084,0.919c0.695,0.585,1.112,1.326,1.268,1.892
							C73.173,457.229,73.123,457.597,73.058,457.602z"/>
					</g>
				</g>
				<g>
					<g>
						<path style="fill:#263238;" d="M70.528,460.432c-0.141,0.077-0.728-0.905-1.896-1.573c-1.154-0.694-2.296-0.727-2.298-0.888
							c-0.04-0.141,1.256-0.37,2.576,0.414C70.238,459.155,70.671,460.397,70.528,460.432z"/>
					</g>
				</g>
				<g>
					<g>
						<path style="fill:#263238;" d="M77.303,454.221c-0.142,0.088-1.036-1.427-2.763-2.625c-1.708-1.226-3.434-1.561-3.399-1.725
							c-0.008-0.139,1.881-0.034,3.716,1.276C76.705,452.438,77.437,454.182,77.303,454.221z"/>
					</g>
				</g>
				<g>
					<g>
						<path style="fill:#263238;" d="M79.567,446.932c-0.101,0.13-1.306-0.761-3.037-1.252c-1.725-0.516-3.22-0.412-3.235-0.575
							c-0.038-0.135,1.533-0.502,3.388,0.048C78.543,445.685,79.672,446.838,79.567,446.932z"/>
					</g>
				</g>
				<g>
					<g>
						<path style="fill:#263238;" d="M81.335,439.8c-0.11,0.122-1.261-1.019-3.127-1.387c-1.858-0.41-3.369,0.174-3.421,0.019
							c-0.027-0.061,0.313-0.3,0.953-0.487c0.635-0.188,1.578-0.278,2.581-0.07c1.002,0.211,1.83,0.671,2.337,1.098
							C81.169,439.399,81.384,439.755,81.335,439.8z"/>
					</g>
				</g>
				<g>
					<g>
						<path style="fill:#263238;" d="M78.584,437.065c-0.031-0.007-0.006-0.347,0.192-0.927c0.198-0.575,0.582-1.4,1.321-2.228
							c0.373-0.387,0.789-0.901,1.546-1.054c0.377-0.079,0.864,0.107,1.074,0.5c0.209,0.383,0.201,0.804,0.115,1.191
							c-0.404,1.537-2.094,2.704-3.884,2.5c-1.789-0.236-3.123-1.618-3.486-3.119c-0.067-0.382-0.067-0.83,0.222-1.195
							c0.287-0.369,0.821-0.413,1.155-0.267c0.695,0.285,1.049,0.812,1.397,1.225c0.672,0.879,1.017,1.714,1.195,2.295
							c0.179,0.585,0.199,0.925,0.167,0.931c-0.101,0.043-0.321-1.344-1.665-2.983c-0.346-0.386-0.736-0.862-1.244-1.038
							c-0.247-0.087-0.49-0.04-0.63,0.142c-0.141,0.173-0.165,0.491-0.1,0.794c0.316,1.233,1.538,2.493,3.054,2.669
							c1.506,0.187,2.991-0.841,3.327-2.075c0.077-0.298,0.071-0.618-0.045-0.835c-0.114-0.213-0.342-0.32-0.588-0.284
							c-0.52,0.074-0.962,0.507-1.326,0.868C78.92,435.708,78.686,437.115,78.584,437.065z"/>
					</g>
				</g>
			</g>
			<g style="opacity:0.3;">
				<polygon points="78.337,423.428 77.168,429.032 94.861,431.967 96.336,427.08 78.968,420.777 				"/>
			</g>
		</g>
		<g>
			<g>
				<g>
					<path style="fill:#E8505B;" d="M158.023,429.819l-1.461,19.524c0,0,19.355,8.042,19.436,11.676l-37.957-1.473l1.027-30.514
						L158.023,429.819z"/>
				</g>
				<g style="opacity:0.6;">
					<g>
						<path style="fill:#FFFFFF;" d="M144.889,447.243c-0.742,0.172-1.282,0.979-1.14,1.727c0.142,0.749,0.957,1.305,1.702,1.146
							c0.745-0.159,1.423-1.107,1.198-1.836c-0.225-0.728-1.218-1.329-1.903-0.995"/>
					</g>
				</g>
				<g style="opacity:0.6;">
					<path style="fill:#FFFFFF;" d="M138.041,459.547l0.224-3.072l36.309,2.56c0,0,1.661,0.801,1.424,1.984L138.041,459.547z"/>
				</g>
				<g>
					<g>
						<path style="fill:#263238;" d="M157.185,449.173c-0.013,0.185-0.943,0.233-1.878,0.794c-0.95,0.536-1.451,1.321-1.619,1.241
							c-0.169-0.043,0.15-1.14,1.294-1.799C156.12,448.74,157.232,449.005,157.185,449.173z"/>
					</g>
				</g>
				<g>
					<g>
						<path style="fill:#263238;" d="M161.102,450.974c0.036,0.181-0.78,0.465-1.439,1.225c-0.682,0.74-0.874,1.581-1.058,1.566
							c-0.175,0.022-0.261-1.068,0.577-1.997C160.012,450.833,161.105,450.798,161.102,450.974z"/>
					</g>
				</g>
				<g>
					<g>
						<path style="fill:#263238;" d="M163.179,455.827c-0.17,0.033-0.392-0.903,0.123-1.9c0.508-1.001,1.398-1.367,1.47-1.21
							c0.099,0.156-0.485,0.679-0.896,1.504C163.447,455.037,163.363,455.816,163.179,455.827z"/>
					</g>
				</g>
				<g>
					<g>
						<path style="fill:#263238;" d="M157.024,444.687c-0.084,0.166-0.925-0.123-1.975-0.092c-1.051,0.009-1.88,0.329-1.97,0.167
							c-0.102-0.138,0.72-0.793,1.958-0.812C156.274,443.921,157.121,444.545,157.024,444.687z"/>
					</g>
				</g>
			</g>
			<g style="opacity:0.3;">
				<polygon points="157.729,433.685 157.473,437.165 138.824,436.272 138.95,432.248 				"/>
			</g>
			<g>
				<g>
					<path style="fill:#263238;" d="M157.246,440.743c-0.001,0.077-0.738,0.163-1.901-0.083c-0.579-0.123-1.257-0.341-1.965-0.688
						c-0.353-0.174-0.714-0.38-1.069-0.622c-0.171-0.119-0.374-0.241-0.557-0.469c-0.198-0.201-0.296-0.697-0.047-0.989
						c0.206-0.284,0.554-0.397,0.829-0.392c0.28,0.002,0.505,0.067,0.709,0.126c0.419,0.119,0.81,0.275,1.166,0.451
						c0.713,0.358,1.286,0.798,1.708,1.218c0.849,0.85,1.123,1.554,1.058,1.587c-0.086,0.058-0.492-0.539-1.362-1.247
						c-0.434-0.352-0.991-0.721-1.658-1.021c-0.334-0.148-0.695-0.279-1.078-0.379c-0.398-0.121-0.74-0.137-0.85,0.038
						c-0.04,0.067-0.046,0.094,0.033,0.215c0.083,0.112,0.242,0.224,0.409,0.343c0.327,0.232,0.658,0.435,0.982,0.613
						c0.649,0.354,1.274,0.603,1.81,0.776C156.54,440.564,157.253,440.642,157.246,440.743z"/>
				</g>
			</g>
			<g>
				<g>
					<path style="fill:#263238;" d="M156.994,440.999c-0.067,0.026-0.409-0.653-0.43-1.856c-0.009-0.597,0.081-1.316,0.34-2.071
						c0.131-0.377,0.305-0.761,0.529-1.135c0.237-0.366,0.528-0.858,1.25-0.913c0.376,0.001,0.677,0.306,0.773,0.561
						c0.116,0.262,0.132,0.483,0.168,0.704c0.053,0.446,0.027,0.88-0.048,1.28c-0.151,0.803-0.508,1.463-0.888,1.932
						c-0.78,0.955-1.562,1.146-1.575,1.083c-0.058-0.095,0.602-0.428,1.206-1.352c0.298-0.455,0.57-1.06,0.671-1.763
						c0.051-0.35,0.06-0.723,0.008-1.1c-0.044-0.406-0.182-0.737-0.335-0.702c-0.188-0.01-0.521,0.281-0.689,0.597
						c-0.208,0.333-0.377,0.675-0.511,1.012c-0.265,0.677-0.394,1.329-0.442,1.883C156.925,440.273,157.096,440.975,156.994,440.999
						z"/>
				</g>
			</g>
		</g>
		<g>
			<path style="fill:#263238;" d="M118.723,219.304c0,0-6.027,0.264-9.998,20.786c-3.971,20.522-34.495,186.79-34.495,186.79
				l22.106,0.2l41.705-158.076l-2.771,162.963l22.459,1.719c0,0,16.854-180.286,17.012-190.776
				c0.198-13.078-7.313-26.307-7.313-26.307L118.723,219.304z"/>
			<g>
				<path style="fill:#455A64;" d="M149.108,217.547c0.141,0.029-2.153,11.753-5.123,26.183c-2.971,14.435-5.493,26.109-5.634,26.08
					c-0.141-0.029,2.153-11.75,5.124-26.185C146.444,229.195,148.967,217.518,149.108,217.547z"/>
			</g>
			<g>
				<path style="fill:#455A64;" d="M152.555,220.475c-0.038-0.051,0.599-0.24,1.285,0.373c0.315,0.295,0.626,0.786,0.603,1.414
					c-0.012,0.636-0.493,1.255-1.132,1.517c-0.634,0.274-1.413,0.186-1.876-0.249c-0.466-0.422-0.6-0.987-0.591-1.419
					c0.04-0.919,0.62-1.243,0.63-1.18c0.069,0.052-0.326,0.428-0.262,1.17c0.034,0.354,0.188,0.785,0.534,1.063
					c0.334,0.284,0.877,0.339,1.364,0.135c0.486-0.206,0.826-0.633,0.855-1.07c0.042-0.441-0.158-0.853-0.388-1.124
					C153.089,220.541,152.544,220.561,152.555,220.475z"/>
			</g>
			<g>
				<path style="fill:#455A64;" d="M151.597,228.602c-0.013-0.063,0.622,0.021,0.969,0.832c0.154,0.383,0.223,0.938-0.061,1.472
					c-0.279,0.546-0.964,0.87-1.624,0.811c-0.661-0.044-1.288-0.47-1.479-1.053c-0.199-0.572-0.044-1.109,0.167-1.464
					c0.469-0.748,1.109-0.732,1.086-0.672c0.032,0.079-0.471,0.202-0.761,0.844c-0.135,0.307-0.206,0.735-0.045,1.119
					c0.147,0.383,0.576,0.666,1.072,0.706c0.496,0.037,0.963-0.176,1.168-0.532c0.218-0.354,0.215-0.788,0.129-1.112
					C152.031,228.875,151.553,228.675,151.597,228.602z"/>
			</g>
			<g>
				<path style="fill:#455A64;" d="M130.412,220.681c0.03,0.01-0.049,0.379-0.263,1.028c-0.213,0.649-0.586,1.568-1.165,2.648
					c-1.14,2.152-3.266,4.929-6.415,7.003c-3.149,2.076-6.54,2.935-8.967,3.134c-1.22,0.107-2.212,0.087-2.892,0.027
					c-0.68-0.059-1.051-0.132-1.048-0.163c0.005-0.098,1.51,0.073,3.9-0.229c2.375-0.288,5.657-1.183,8.721-3.202
					c3.063-2.019,5.179-4.681,6.381-6.75C129.883,222.098,130.32,220.647,130.412,220.681z"/>
			</g>
			<g>
				<path style="fill:#455A64;" d="M173.427,235.266c-0.021,0.029-0.256-0.114-0.664-0.4c-0.414-0.277-0.968-0.745-1.603-1.372
					c-1.273-1.248-2.775-3.278-3.767-5.837c-0.982-2.563-1.231-5.076-1.125-6.856c0.049-0.891,0.146-1.609,0.268-2.093
					c0.111-0.486,0.189-0.749,0.224-0.742c0.094,0.017-0.12,1.095-0.123,2.844c-0.01,1.745,0.289,4.17,1.242,6.66
					c0.964,2.485,2.369,4.484,3.548,5.77C172.603,234.535,173.484,235.191,173.427,235.266z"/>
			</g>
		</g>
	</g>
	<g>
		<g>
			<g>
				<g>
					<g>
						<path style="fill:#FFBE9D;" d="M109.932,179.756l9.822,0.543c0.621,3.184,2.777,8.053,2.777,8.053
							c7.906-13.723,14.036-32.109,15.557-39.499c-0.222-0.738-0.484-1.555-0.812-2.467c-0.378-1.053-0.054-3.048,0.125-4.155
							c0.265-1.645,0.726-3.859,0.864-4.883c0.421-3.122,0.924-3.613,2.013-3.26c1.482,0.48-0.607,8.769,0.607,8.949
							c0.653,0.097,1.45-2.743,1.682-5.073c0.232-2.33,1.285-9.497,2.055-9.975c1.129-0.7,2.113,0.407,1.828,2.728
							c-0.288,2.349-0.652,9.351,0.579,9.446c1.213,0.094,2.232-11.789,2.232-11.789s-0.192-2.586,1.234-2.524
							c2.571,0.112,0.562,12.639,0.342,13.826c-0.154,0.826,1.182,0.977,1.299,0.081c0.121-0.922,0.742-11.883,3.359-11.795
							c2.009,0.068-1.557,10.323-0.428,12.701c1.128,2.377,1.912-8.074,3.831-7.93c0.714,0.054,1.242,0.194-0.07,6.108
							c-0.705,3.179-2.777,9.023-4.588,13.862c-3.04,16.399-16.385,68.862-37.305,59.259c-11.706-5.374-17.169-31.98-17.169-31.98
							L109.932,179.756z"/>
					</g>
				</g>
				<g>
					<g>
						<g>
							<path style="fill:#EB996E;" d="M154.239,152.71c-0.01-0.004,0.024-0.125,0.1-0.359c0.09-0.265,0.205-0.605,0.35-1.032
								c0.327-0.945,0.785-2.271,1.369-3.959c0.583-1.722,1.299-3.83,2.011-6.307c0.365-1.237,0.66-2.576,0.936-4.013
								c0.133-0.717,0.27-1.456,0.353-2.215c0.035-0.377,0.075-0.765,0.053-1.138c-0.028-0.39-0.088-0.708-0.395-0.714
								c-0.319-0.086-0.532,0.177-0.751,0.508c-0.2,0.333-0.357,0.716-0.496,1.109c-0.28,0.788-0.5,1.626-0.717,2.484
								c-0.218,0.859-0.419,1.741-0.68,2.64c-0.158,0.454-0.227,0.892-0.6,1.38c-0.07,0.059-0.133,0.138-0.274,0.165
								c-0.154,0.04-0.268-0.02-0.376-0.085c-0.144-0.128-0.213-0.257-0.276-0.377c-0.112-0.253-0.181-0.512-0.211-0.763
								c-0.179-2.007,0.279-3.947,0.592-5.961c0.172-1.004,0.354-2.02,0.486-3.049c0.064-0.514,0.118-1.032,0.124-1.543
								c0.019-0.474-0.064-1.115-0.272-1.205c-0.256-0.097-0.719,0.193-0.964,0.617c-0.276,0.417-0.48,0.912-0.655,1.418
								c-0.347,1.017-0.573,2.102-0.769,3.199c-0.19,1.101-0.339,2.223-0.462,3.36c-0.056,0.57-0.112,1.142-0.168,1.717
								l-0.075,0.868c-0.022,0.235-0.021,0.726-0.398,1.008c-0.347,0.26-0.812,0.288-1.183,0.046
								c-0.186-0.12-0.331-0.343-0.359-0.568c-0.024-0.114-0.003-0.22,0.005-0.321l0.037-0.214c0.089-0.58,0.178-1.163,0.268-1.748
								c0.165-1.174,0.308-2.361,0.422-3.558c0.112-1.197,0.195-2.406,0.214-3.619c0.002-1.2-0.007-2.458-0.352-3.558
								c-0.113-0.333-0.298-0.637-0.504-0.724c-0.212-0.076-0.518,0.001-0.675,0.215c-0.346,0.487-0.404,1.289-0.377,1.943
								l0.001,0.032l-0.002,0.018c-0.214,2.35-0.469,4.66-0.808,6.93c-0.175,1.135-0.36,2.258-0.645,3.369
								c-0.071,0.278-0.156,0.555-0.254,0.833c-0.133,0.277-0.169,0.559-0.566,0.863c-0.344,0.164-0.599-0.022-0.735-0.161
								c-0.146-0.153-0.205-0.304-0.272-0.452c-0.116-0.294-0.173-0.579-0.225-0.862c-0.318-2.254-0.186-4.423-0.059-6.55
								c0.042-1.069,0.303-2.127,0.162-3.066c-0.068-0.465-0.249-0.931-0.558-1.139c-0.152-0.1-0.326-0.123-0.513-0.079
								c-0.093,0.029-0.187,0.062-0.279,0.118c-0.09,0.075-0.072,0.047-0.141,0.173c-0.389,0.817-0.578,1.85-0.788,2.784
								c-0.197,0.957-0.365,1.908-0.518,2.848c-0.152,0.94-0.287,1.868-0.407,2.782c-0.125,0.906-0.187,1.825-0.365,2.718
								c-0.17,0.89-0.376,1.756-0.7,2.587c-0.082,0.207-0.176,0.412-0.289,0.614c-0.14,0.188-0.219,0.433-0.602,0.55
								c-0.218,0.06-0.408-0.089-0.506-0.214c-0.084-0.129-0.125-0.252-0.158-0.37c-0.051-0.231-0.073-0.451-0.081-0.666
								c-0.022-1.704,0.231-3.267,0.316-4.776c0.047-0.749,0.081-1.489-0.006-2.172c-0.045-0.321-0.148-0.698-0.332-0.773
								c-0.268-0.107-0.614-0.163-0.815-0.018c-0.442,0.319-0.596,1.051-0.74,1.636c-0.141,0.618-0.206,1.232-0.32,1.823
								c-0.416,2.365-0.856,4.396-1.07,6.057c-0.098,0.83-0.137,1.579-0.032,2.203c0.139,0.605,0.342,1.141,0.458,1.562
								c0.118,0.398,0.213,0.717,0.287,0.966c0.061,0.219,0.088,0.331,0.078,0.335c-0.01,0.003-0.056-0.104-0.136-0.317
								c-0.089-0.244-0.201-0.556-0.343-0.946c-0.139-0.426-0.348-0.913-0.519-1.566c-0.13-0.655-0.106-1.418-0.025-2.261
								c0.181-1.69,0.585-3.707,0.969-6.077c0.106-0.59,0.163-1.215,0.3-1.852c0.072-0.319,0.141-0.643,0.263-0.969
								c0.127-0.316,0.263-0.678,0.626-0.917c0.388-0.241,0.817-0.153,1.18-0.015c0.469,0.268,0.486,0.718,0.568,1.071
								c0.102,0.748,0.07,1.495,0.03,2.257c-0.073,1.518-0.31,3.113-0.276,4.728c0.008,0.199,0.032,0.395,0.072,0.573
								c0.042,0.194,0.142,0.269,0.122,0.232c0.035,0.007,0.188-0.166,0.274-0.323c0.094-0.172,0.179-0.358,0.254-0.552
								c0.299-0.779,0.497-1.633,0.657-2.499c0.167-0.864,0.223-1.766,0.344-2.693c0.115-0.921,0.246-1.855,0.394-2.801
								c0.149-0.946,0.313-1.904,0.508-2.874c0.222-0.975,0.363-1.937,0.837-2.952c0.029-0.102,0.235-0.33,0.351-0.385
								c0.126-0.076,0.27-0.132,0.421-0.176c0.305-0.081,0.679-0.036,0.956,0.15c0.55,0.388,0.724,0.991,0.816,1.527
								c0.083,0.549,0.055,1.105-0.007,1.634c-0.059,0.513-0.102,1.035-0.139,1.56c-0.122,2.092-0.237,4.284,0.07,6.405
								c0.046,0.259,0.103,0.519,0.192,0.741c0.045,0.103,0.098,0.214,0.149,0.26c0.025,0.035,0.042,0.033,0.05,0.039l0.004,0.001
								l0.001,0.003c-0.017,0.234-0.002,0.049-0.007,0.095c-0.003-0.044-0.013-0.035-0.041-0.086
								c0.051-0.042,0.212-0.318,0.289-0.549c0.088-0.25,0.167-0.509,0.235-0.776c0.272-1.067,0.456-2.184,0.627-3.306
								c0.332-2.25,0.586-4.557,0.797-6.892l0,0.049c-0.011-0.769-0.024-1.575,0.506-2.372c0.31-0.393,0.87-0.606,1.395-0.408
								c0.52,0.243,0.712,0.709,0.859,1.094c0.396,1.279,0.383,2.534,0.386,3.772c-0.019,1.238-0.105,2.46-0.219,3.668
								c-0.116,1.208-0.261,2.404-0.429,3.586c-0.091,0.591-0.182,1.18-0.273,1.766c-0.074,0.372-0.056,0.384,0.055,0.494
								c0.12,0.091,0.352,0.077,0.465-0.018c0.127-0.085,0.142-0.26,0.17-0.585l0.077-0.868c0.058-0.579,0.115-1.155,0.173-1.728
								c0.126-1.146,0.28-2.28,0.476-3.397c0.203-1.116,0.435-2.219,0.802-3.287c0.187-0.532,0.402-1.06,0.727-1.551
								c0.166-0.242,0.359-0.485,0.642-0.663c0.289-0.166,0.607-0.317,1.04-0.15c0.411,0.224,0.481,0.604,0.546,0.881
								c0.043,0.292,0.062,0.576,0.053,0.85c-0.009,0.551-0.068,1.083-0.135,1.608c-0.139,1.049-0.326,2.068-0.503,3.071
								c-0.326,1.992-0.776,3.975-0.62,5.795c0.024,0.224,0.084,0.429,0.159,0.61c0.046,0.091,0.097,0.166,0.129,0.199
								c0.005-0.011-0.008-0.018-0.024,0.044c-0.009,0.081,0.003-0.018-0.01-0.005c-0.038-0.062-0.01-0.044,0.006-0.066
								c0.211-0.259,0.359-0.761,0.49-1.174c0.26-0.872,0.468-1.755,0.693-2.616c0.225-0.861,0.452-1.707,0.749-2.522
								c0.149-0.407,0.314-0.807,0.546-1.187c0.126-0.186,0.25-0.376,0.456-0.53c0.09-0.082,0.225-0.14,0.357-0.177
								c0.156-0.024,0.282-0.021,0.384-0.001c0.235,0.01,0.554,0.216,0.632,0.463c0.097,0.233,0.118,0.453,0.128,0.662
								c0.02,0.422-0.026,0.816-0.066,1.208c-0.094,0.779-0.239,1.522-0.38,2.244c-0.291,1.438-0.607,2.796-0.99,4.034
								c-0.747,2.481-1.497,4.579-2.117,6.291c-0.623,1.711-1.128,3.03-1.479,3.922c-0.169,0.419-0.303,0.752-0.408,1.011
								C154.302,152.6,154.249,152.714,154.239,152.71z"/>
						</g>
					</g>
				</g>
			</g>
			<g>
				<path style="fill:#E8505B;" d="M99.654,180.892c1.9,6.704,5.612,17.062,9.602,27.982c0.577,1.578,2.772,1.681,3.491,0.162
					l9.784-20.684c0,0-2.356-16.993-2.156-16.393c0.2,0.6-20.185,2.198-20.185,2.198L99.654,180.892z"/>
			</g>
		</g>
		<g>
			<path style="fill:#FAFAFA;" d="M121.688,177.558c0.022,0.083-1.215,0.442-3.152,1.18c-1.936,0.736-4.556,1.906-7.258,3.54
				c-2.699,1.642-4.948,3.424-6.495,4.801c-1.55,1.376-2.441,2.307-2.504,2.249c-0.027-0.024,0.169-0.281,0.548-0.726
				c0.375-0.449,0.955-1.065,1.706-1.793c1.497-1.459,3.74-3.313,6.475-4.976c2.738-1.656,5.418-2.788,7.404-3.441
				c0.993-0.329,1.807-0.559,2.379-0.684C121.361,177.579,121.679,177.523,121.688,177.558z"/>
		</g>
		<g>
			<path style="fill:#263238;" d="M125.566,182.716c-0.051,0.037-0.717-0.748-1.632-2.136c-0.915-1.386-2.048-3.396-3.022-5.743
				c-0.971-2.349-1.593-4.571-1.927-6.198c-0.336-1.628-0.421-2.654-0.358-2.664c0.079-0.013,0.292,0.988,0.716,2.578
				c0.423,1.591,1.091,3.766,2.05,6.084c0.963,2.316,2.028,4.326,2.855,5.749C125.074,181.812,125.631,182.67,125.566,182.716z"/>
		</g>
	</g>
	<g>
		<path style="fill:#263238;" d="M132.092,91.104c-3.422,5.531-4.149,12.687-1.911,18.808c1.005,2.748,2.596,5.462,2.305,8.377
			c-0.298,2.986-2.563,5.807-1.763,8.697c0.473,1.708,1.939,2.975,2.501,4.655c0.66,1.972-0.028,4.106-0.342,6.164
			c-0.799,5.237,0.874,10.503,1.289,15.786c0.415,5.283-1.011,11.466-5.722,13.77c-1.432,0.701-3.304,0.902-4.495-0.166
			c-1.512-1.355-1.091-3.791-0.677-5.793c4.14-20.018-8.649-39.519-5.729-59.756c0.468-3.244,2.28-8.747,4.615-11.017
			c2.335-2.27,8.794-1.994,11.004,0.401"/>
		<g>
			<path style="fill:#455A64;" d="M112.394,149.117c-0.041-0.034,0.601-0.721,1.501-2.139c0.896-1.409,2.024-3.61,2.612-6.548
				c0.286-1.468,0.412-3.103,0.308-4.864c-0.077-1.761-0.325-3.655-0.206-5.682c0.042-1.014,0.259-2.045,0.574-3.064
				c0.355-1.005,0.815-1.991,1.373-2.937c1.119-1.892,2.536-3.654,3.833-5.537c1.297-1.875,2.373-3.862,2.721-5.962
				c0.35-2.098-0.028-4.177-0.349-6.136c-0.346-1.96-0.585-3.889-0.441-5.683c0.114-1.792,0.473-3.437,0.959-4.88
				c0.982-2.895,2.434-4.946,3.535-6.223c0.554-0.642,1.023-1.106,1.361-1.397c0.334-0.295,0.515-0.443,0.527-0.43
				c0.038,0.04-0.674,0.652-1.731,1.957c-1.042,1.303-2.422,3.354-3.341,6.209c-0.455,1.423-0.785,3.038-0.878,4.789
				c-0.121,1.755,0.124,3.616,0.483,5.578c0.331,1.953,0.739,4.083,0.379,6.299c-0.361,2.215-1.483,4.276-2.795,6.174
				c-1.314,1.906-2.725,3.656-3.824,5.502c-0.548,0.922-0.995,1.873-1.341,2.836c-0.305,0.974-0.52,1.954-0.566,2.937
				c-0.129,1.962,0.099,3.851,0.159,5.632c0.087,1.784-0.064,3.467-0.379,4.956c-0.647,2.988-1.846,5.196-2.804,6.586
				c-0.48,0.7-0.898,1.209-1.193,1.543C112.572,148.962,112.408,149.129,112.394,149.117z"/>
		</g>
		<g>
			<path style="fill:#455A64;" d="M102.91,150.614c-0.016-0.009,0.092-0.239,0.31-0.671c0.245-0.474,0.568-1.098,0.972-1.877
				c0.837-1.631,2.09-3.977,3.322-7.007c1.208-3.019,2.405-6.801,2.442-11.113c0.007-1.073-0.071-2.172-0.244-3.281
				c-0.172-1.111-0.431-2.245-0.598-3.428c-0.16-1.179-0.237-2.436,0.076-3.678c0.31-1.245,1.092-2.353,2.035-3.21
				c1.885-1.714,4.159-2.83,5.334-4.836c1.203-1.972,1.469-4.285,1.773-6.413c0.26-2.151,0.673-4.222,1.377-6.042
				c0.68-1.829,1.589-3.418,2.537-4.771c1.909-2.718,4.032-4.429,5.559-5.446c0.769-0.508,1.392-0.863,1.83-1.071
				c0.434-0.215,0.666-0.32,0.674-0.304c0.027,0.05-0.896,0.487-2.389,1.541c-1.477,1.059-3.533,2.79-5.371,5.489
				c-0.913,1.344-1.786,2.914-2.435,4.713c-0.673,1.794-1.057,3.797-1.306,5.954c-0.295,2.129-0.539,4.504-1.813,6.616
				c-1.273,2.16-3.627,3.308-5.415,4.951c-0.901,0.824-1.601,1.823-1.888,2.958c-0.289,1.136-0.226,2.327-0.072,3.478
				c0.16,1.156,0.413,2.288,0.584,3.422c0.172,1.137,0.246,2.264,0.232,3.36c-0.065,4.405-1.321,8.223-2.581,11.249
				c-1.286,3.036-2.592,5.36-3.485,6.964c-0.439,0.76-0.791,1.369-1.058,1.831C103.064,150.409,102.926,150.623,102.91,150.614z"/>
		</g>
	</g>
</g>
<g id="Plant">
	<g>
		<g>
			<g>
				<g>
					<g>
						<path style="fill:#263238;" d="M433.773,433.181c-0.009-0.005,0.051-0.148,0.175-0.422c0.14-0.299,0.327-0.699,0.567-1.208
							c0.481-1.067,1.107-2.684,1.665-4.836c1.102-4.3,1.486-10.871-0.142-18.676c-0.756-3.908-1.975-8.1-3.464-12.544
							c-1.466-4.452-3.169-9.176-4.56-14.282c-1.375-5.094-2.461-10.624-2.252-16.421c0.211-5.808,1.93-11.606,3.822-17.377
							c1.887-5.78,3.839-11.43,4.424-17.113c0.661-5.673-0.553-11.242-3.137-15.805c-2.503-4.612-5.652-8.556-8.009-12.641
							c-2.394-4.072-3.891-8.259-4.814-12.153c-1.789-7.852-1.162-14.467-0.305-18.827c0.929-4.383,1.965-6.649,1.965-6.649
							c0.01,0.004-0.03,0.153-0.116,0.442c-0.098,0.315-0.23,0.737-0.398,1.275c-0.346,1.12-0.795,2.793-1.221,4.977
							c-0.783,4.351-1.336,10.921,0.488,18.686c0.941,3.851,2.445,7.983,4.83,11.999c2.351,4.037,5.514,7.965,8.067,12.63
							c2.639,4.613,3.908,10.364,3.236,16.126c-0.588,5.779-2.555,11.467-4.438,17.24c-1.891,5.766-3.59,11.503-3.805,17.214
							c-0.214,5.708,0.844,11.184,2.198,16.254c1.368,5.081,3.051,9.806,4.499,14.271c1.47,4.458,2.674,8.683,3.407,12.619
							c1.586,7.863,1.133,14.5-0.048,18.815c-0.597,2.16-1.263,3.774-1.782,4.829c-0.262,0.5-0.468,0.893-0.622,1.186
							C433.859,433.052,433.782,433.185,433.773,433.181z"/>
					</g>
				</g>
			</g>
			<g>
				<g>
					<g>
						<path style="fill:#E8505B;" d="M426.062,305.886c0,0-4.786-15.304,3.799-24.264c0.302-0.314,0.832-0.166,0.91,0.263
							C431.229,284.411,431.802,292.109,426.062,305.886z"/>
					</g>
				</g>
				<g>
					<g>
						<g>
							<path style="fill:#263238;" d="M428.929,286.721c0.081,0.016-0.056,1.093-0.322,2.823c-0.315,1.945-0.684,4.228-1.092,6.75
								c-0.401,2.522-0.763,4.805-1.071,6.75c-0.262,1.728-0.419,2.8-0.507,2.793c-0.078-0.006-0.07-1.095,0.086-2.845
								c0.158-1.749,0.467-4.154,0.9-6.795c0.432-2.64,0.892-5.018,1.267-6.731C428.564,287.754,428.848,286.705,428.929,286.721z"
								/>
						</g>
					</g>
				</g>
			</g>
			<g>
				<g>
					<g>
						<path style="fill:#E8505B;" d="M431.684,341.98c0,0,2.927-15.765,14.705-19.671c0.414-0.137,0.813,0.242,0.681,0.658
							C446.294,325.415,443.2,332.487,431.684,341.98z"/>
					</g>
				</g>
				<g>
					<g>
						<g>
							<path style="fill:#263238;" d="M443.181,326.381c0.064,0.052-0.56,0.94-1.605,2.345c-1.188,1.572-2.582,3.417-4.121,5.456
								c-1.534,2.043-2.922,3.891-4.104,5.465c-1.04,1.405-1.68,2.279-1.754,2.232c-0.066-0.041,0.45-1,1.406-2.474
								c0.958-1.471,2.355-3.454,3.974-5.585c1.616-2.132,3.136-4.018,4.268-5.357C442.375,327.123,443.117,326.329,443.181,326.381
								z"/>
						</g>
					</g>
				</g>
			</g>
			<g>
				<g>
					<g>
						<path style="fill:#E8505B;" d="M428.501,381.53c0,0-1.778-15.935,8.359-23.094c0.356-0.251,0.848-0.004,0.843,0.432
							C437.67,361.436,436.764,369.102,428.501,381.53z"/>
					</g>
				</g>
				<g>
					<g>
						<g>
							<path style="fill:#263238;" d="M434.972,363.264c0.077,0.031-0.263,1.062-0.855,2.71c-0.68,1.849-1.478,4.02-2.36,6.418
								c-0.874,2.4-1.665,4.572-2.339,6.421c-0.587,1.647-0.946,2.669-1.03,2.645c-0.075-0.02,0.141-1.088,0.627-2.776
								c0.489-1.686,1.251-3.989,2.18-6.498c0.928-2.51,1.833-4.756,2.528-6.366C434.416,364.208,434.895,363.233,434.972,363.264z"
								/>
						</g>
					</g>
				</g>
			</g>
			<g>
				<g>
					<g>
						<path style="fill:#E8505B;" d="M437.373,421.311c0,0-1.206-15.989,9.18-22.78c0.365-0.238,0.848,0.026,0.827,0.461
							C447.256,401.558,446.076,409.187,437.373,421.311z"/>
					</g>
				</g>
				<g>
					<g>
						<g>
							<path style="fill:#263238;" d="M444.494,403.289c0.076,0.034-0.301,1.052-0.951,2.678c-0.746,1.824-1.621,3.964-2.588,6.329
								c-0.96,2.367-1.828,4.509-2.568,6.333c-0.646,1.625-1.04,2.633-1.124,2.607c-0.074-0.023,0.18-1.082,0.726-2.752
								c0.549-1.668,1.393-3.941,2.412-6.416c1.017-2.475,2.003-4.687,2.754-6.271C443.905,404.212,444.419,403.255,444.494,403.289
								z"/>
						</g>
					</g>
				</g>
			</g>
			<g>
				<g>
					<g>
						<path style="fill:#E8505B;" d="M419.184,292.44c0,0-14.213-7.422-14.492-19.829c-0.01-0.436,0.47-0.706,0.829-0.458
							C407.634,273.614,413.487,278.646,419.184,292.44z"/>
					</g>
				</g>
				<g>
					<g>
						<g>
							<path style="fill:#263238;" d="M407.644,276.873c0.069-0.046,0.734,0.811,1.771,2.223c1.154,1.596,2.51,3.47,4.007,5.541
								c1.503,2.065,2.863,3.934,4.021,5.526c1.038,1.406,1.686,2.275,1.619,2.332c-0.059,0.051-0.824-0.724-1.953-2.07
								c-1.126-1.347-2.611-3.265-4.174-5.437c-1.564-2.171-2.922-4.176-3.87-5.651
								C408.117,277.861,407.575,276.919,407.644,276.873z"/>
						</g>
					</g>
				</g>
			</g>
			<g>
				<g>
					<g>
						<path style="fill:#E8505B;" d="M434.446,325.306c0,0-14.638-6.546-15.669-18.912c-0.036-0.434,0.426-0.733,0.799-0.508
							C421.774,307.216,427.922,311.883,434.446,325.306z"/>
					</g>
				</g>
				<g>
					<g>
						<g>
							<path style="fill:#263238;" d="M421.982,310.469c0.066-0.05,0.782,0.765,1.903,2.111c1.249,1.523,2.716,3.311,4.336,5.287
								c1.625,1.97,3.096,3.753,4.349,5.272c1.122,1.341,1.821,2.168,1.758,2.229c-0.056,0.054-0.866-0.673-2.075-1.948
								c-1.206-1.276-2.804-3.1-4.496-5.174c-1.693-2.072-3.17-3.991-4.206-5.406C422.514,311.426,421.916,310.519,421.982,310.469z
								"/>
						</g>
					</g>
				</g>
			</g>
			<g>
				<g>
					<g>
						<path style="fill:#E8505B;" d="M426.024,361.966c0,0-10.05-12.494-5.336-23.973c0.165-0.403,0.714-0.458,0.943-0.088
							C422.981,340.09,426.329,347.045,426.024,361.966z"/>
					</g>
				</g>
				<g>
					<g>
						<g>
							<path style="fill:#263238;" d="M421.685,343.08c0.082-0.014,0.348,1.038,0.733,2.746c0.418,1.925,0.909,4.185,1.452,6.682
								c0.55,2.494,1.047,4.751,1.471,6.674c0.388,1.705,0.634,2.76,0.549,2.785c-0.074,0.023-0.465-0.994-0.96-2.679
								c-0.492-1.685-1.085-4.037-1.647-6.653c-0.564-2.615-1.004-4.997-1.282-6.728
								C421.722,344.175,421.603,343.095,421.685,343.08z"/>
						</g>
					</g>
				</g>
			</g>
			<g>
				<g>
					<g>
						<path style="fill:#E8505B;" d="M435.979,405.108c0,0-14.526-6.791-15.349-19.172c-0.029-0.435,0.439-0.726,0.808-0.494
							C423.612,386.807,429.681,391.577,435.979,405.108z"/>
					</g>
				</g>
				<g>
					<g>
						<g>
							<path style="fill:#263238;" d="M423.766,390.063c0.067-0.049,0.769,0.778,1.867,2.142c1.223,1.544,2.66,3.357,4.246,5.359
								c1.592,1.997,3.033,3.804,4.26,5.344c1.099,1.359,1.784,2.198,1.72,2.258c-0.057,0.053-0.855-0.687-2.042-1.982
								c-1.184-1.296-2.752-3.147-4.409-5.248c-1.658-2.1-3.102-4.044-4.114-5.475C424.282,391.03,423.699,390.112,423.766,390.063z
								"/>
						</g>
					</g>
				</g>
			</g>
			<g>
				<g>
					<g>
						<g>
							<path style="fill:#263238;" d="M464.912,342.066c0.014,0.001,0.02,0.121,0.018,0.353c-0.007,0.279-0.015,0.616-0.025,1.025
								c-0.043,0.963-0.1,2.264-0.172,3.888c-0.187,3.418-0.448,8.184-0.761,13.884l-0.001,0.014l-0.004,0.02
								c-1.037,5.802-3.992,12.233-7.961,18.477c-2.912,4.599-5.964,8.781-8.596,12.67c-2.65,3.878-4.886,7.47-6.445,10.653
								c-1.569,3.178-2.481,5.909-3.015,7.818c-0.255,0.958-0.447,1.705-0.558,2.216c-0.119,0.509-0.192,0.775-0.213,0.772
								c-0.02-0.004,0.013-0.277,0.094-0.795c0.072-0.52,0.228-1.278,0.45-2.251c0.467-1.937,1.326-4.715,2.859-7.944
								c1.523-3.234,3.738-6.874,6.368-10.777c2.614-3.917,5.65-8.105,8.546-12.681c3.948-6.213,6.888-12.546,7.964-18.255
								l-0.004,0.033c0.4-5.695,0.735-10.456,0.975-13.871c0.131-1.62,0.236-2.918,0.314-3.879c0.041-0.407,0.075-0.742,0.103-1.02
								C464.877,342.184,464.898,342.065,464.912,342.066z"/>
						</g>
					</g>
				</g>
				<g>
					<g>
						<g>
							<path style="fill:#E8505B;" d="M456.263,378.533c0,0,6.152-14.807-1.587-24.508c-0.272-0.34-0.814-0.24-0.93,0.179
								C453.061,356.679,451.794,364.293,456.263,378.533z"/>
						</g>
					</g>
					<g>
						<g>
							<g>
								<path style="fill:#263238;" d="M455.143,359.187c0.082-0.009,0.271,1.062,0.488,2.802c0.218,1.74,0.461,4.15,0.652,6.818
									c0.193,2.669,0.282,5.093,0.281,6.848c-0.003,1.757-0.094,2.842-0.172,2.841c-0.088-0.001-0.147-1.083-0.252-2.828
									c-0.131-1.964-0.285-4.27-0.456-6.819c-0.178-2.549-0.339-4.856-0.476-6.821C455.099,360.28,455.06,359.196,455.143,359.187
									z"/>
							</g>
						</g>
					</g>
					<g style="opacity:0.3;">
						<g>
							<path d="M456.263,378.533c0,0,6.152-14.807-1.587-24.508c-0.272-0.34-0.814-0.24-0.93,0.179
								C453.061,356.679,451.794,364.293,456.263,378.533z"/>
						</g>
					</g>
				</g>
				<g>
					<g>
						<g>
							<path style="fill:#E8505B;" d="M437.209,414.216c0,0,4.931-15.258-3.569-24.299c-0.298-0.318-0.83-0.174-0.912,0.254
								C432.246,392.694,431.6,400.386,437.209,414.216z"/>
						</g>
					</g>
					<g>
						<g>
							<g>
								<path style="fill:#263238;" d="M434.524,395.025c0.081-0.015,0.356,1.036,0.713,2.753c0.358,1.716,0.796,4.098,1.203,6.742
									c0.409,2.645,0.694,5.053,0.836,6.803c0.139,1.751,0.136,2.84,0.059,2.845c-0.088,0.006-0.234-1.067-0.48-2.798
									c-0.29-1.947-0.631-4.234-1.007-6.76c-0.384-2.526-0.732-4.812-1.028-6.76C434.569,396.118,434.442,395.04,434.524,395.025z
									"/>
							</g>
						</g>
					</g>
					<g style="opacity:0.3;">
						<g>
							<path d="M437.209,414.216c0,0,4.931-15.258-3.569-24.299c-0.298-0.318-0.83-0.174-0.912,0.254
								C432.246,392.694,431.6,400.386,437.209,414.216z"/>
						</g>
					</g>
				</g>
				<g>
					<g>
						<g>
							<path style="fill:#E8505B;" d="M464.097,360.436c0,0,13.136-9.196,11.81-21.534c-0.047-0.433-0.557-0.639-0.881-0.348
								C473.12,340.276,467.965,346.022,464.097,360.436z"/>
						</g>
					</g>
					<g style="opacity:0.3;">
						<g>
							<path d="M464.097,360.436c0,0,13.136-9.196,11.81-21.534c-0.047-0.433-0.557-0.639-0.881-0.348
								C473.12,340.276,467.965,346.022,464.097,360.436z"/>
						</g>
					</g>
					<g>
						<g>
							<g>
								<path style="fill:#263238;" d="M473.531,343.51c0.074,0.037-0.341,1.041-1.091,2.626c-0.75,1.585-1.837,3.749-3.108,6.104
									c-1.269,2.356-2.494,4.449-3.437,5.93c-0.945,1.48-1.604,2.347-1.669,2.305c-0.074-0.048,0.457-0.993,1.305-2.521
									c0.943-1.728,2.05-3.757,3.274-5.999c1.217-2.246,2.319-4.279,3.258-6.012C472.908,344.409,473.457,343.473,473.531,343.51z
									"/>
							</g>
						</g>
					</g>
				</g>
				<g>
					<g>
						<g>
							<path style="fill:#E8505B;" d="M442.506,399.09c0,0,15.843-2.47,20.087-14.131c0.149-0.409-0.219-0.82-0.638-0.7
								C459.486,384.964,452.327,387.853,442.506,399.09z"/>
						</g>
					</g>
					<g style="opacity:0.3;">
						<g>
							<path d="M442.506,399.09c0,0,15.843-2.47,20.087-14.131c0.149-0.409-0.219-0.82-0.638-0.7
								C459.486,384.964,452.327,387.853,442.506,399.09z"/>
						</g>
					</g>
					<g>
						<g>
							<g>
								<path style="fill:#263238;" d="M458.43,388.048c0.05,0.066-0.765,0.784-2.136,1.877c-1.371,1.093-3.301,2.557-5.478,4.111
									c-2.177,1.556-4.199,2.896-5.698,3.811c-1.501,0.913-2.474,1.401-2.514,1.334c-0.045-0.076,0.847-0.69,2.282-1.689
									c1.608-1.136,3.495-2.47,5.581-3.944c2.082-1.481,3.967-2.821,5.572-3.962C457.475,388.581,458.38,387.982,458.43,388.048z"
									/>
							</g>
						</g>
					</g>
				</g>
			</g>
		</g>
		<g>
			<g>
				<polygon style="fill:#455A64;" points="427.392,428.246 422.77,459.351 451.571,459.351 447.837,428.246 				"/>
			</g>
		</g>
		<g>
			<g>
				<g>
					<path style="fill:#263238;" d="M448.989,437.885c0,0.166-5.2,0.3-11.613,0.3c-6.415,0-11.614-0.134-11.614-0.3
						c0-0.166,5.199-0.3,11.614-0.3C443.788,437.585,448.989,437.719,448.989,437.885z"/>
				</g>
			</g>
		</g>
		<g>
			<g>
				<g>
					<path style="fill:#263238;" d="M449.56,440.36c0,0.166-5.371,0.3-11.994,0.3c-6.626,0-11.995-0.134-11.995-0.3
						c0-0.166,5.369-0.3,11.995-0.3C444.189,440.06,449.56,440.194,449.56,440.36z"/>
				</g>
			</g>
		</g>
	</g>
</g>
<g id="Boxes">
	<g>
		<g>
			<path style="fill:#263238;" d="M337.565,126.542c0,0-0.266,0.005-0.782-0.01c-0.516-0.022-1.283-0.058-2.288,0.012
				c-1.996,0.111-4.993,0.488-8.522,1.965c-3.49,1.475-7.574,4.08-10.823,8.434c-1.611,2.168-2.958,4.775-3.778,7.73
				c-0.79,2.959-1.058,6.24-0.682,9.62c0.428,3.367,1.457,6.852,3.345,10.051c0.936,1.596,2.046,3.146,3.403,4.513
				c1.311,1.407,2.858,2.652,4.601,3.6c1.74,0.942,3.733,1.535,5.772,1.454c2.022-0.066,4.11-0.779,5.59-2.255
				c1.49-1.465,2.227-3.617,2.228-5.764c0.011-2.163-0.739-4.315-2.028-6.127c-2.596-3.649-6.794-6.104-11.261-7.426
				c-4.51-1.314-9.462-1.349-14.204-0.197c-2.363,0.615-4.67,1.517-6.84,2.719c-2.169,1.209-4.143,2.786-5.873,4.607
				c-0.41,0.476-0.877,0.907-1.242,1.423l-1.129,1.524c-0.659,1.082-1.334,2.162-1.841,3.337c-1.061,2.319-1.804,4.806-2.174,7.369
				c-0.671,5.123-0.051,10.398,2.019,15.002c1.999,4.611,5.408,8.569,9.655,10.954c2.119,1.185,4.462,1.949,6.838,2.078
				c2.371,0.147,4.736-0.464,6.748-1.62c2.009-1.153,3.686-2.885,4.566-4.973c0.875-2.086,0.859-4.467,0.104-6.539
				c-0.744-2.094-2.136-3.882-3.76-5.317c-1.635-1.434-3.541-2.508-5.53-3.214c-4.034-1.317-8.332-1.247-12.174-0.211
				c-3.854,1.049-7.288,3.034-9.986,5.568c-2.694,2.55-4.583,5.679-5.725,8.873c-2.307,6.438-1.72,12.973,0.262,17.967
				c2.041,5.036,5.28,8.621,8.239,10.991c2.986,2.387,5.704,3.675,7.569,4.409c0.941,0.358,1.665,0.612,2.162,0.752
				c0.493,0.154,0.742,0.246,0.742,0.246s-0.258-0.058-0.757-0.195c-0.503-0.123-1.235-0.361-2.185-0.705
				c-1.884-0.705-4.632-1.97-7.658-4.349c-2.999-2.363-6.292-5.957-8.383-11.041c-2.032-5.045-2.656-11.658-0.339-18.199
				c1.148-3.245,3.058-6.434,5.795-9.04c2.739-2.588,6.227-4.615,10.15-5.693c3.913-1.063,8.289-1.15,12.435,0.195
				c2.049,0.723,4.006,1.821,5.691,3.294c1.674,1.474,3.12,3.318,3.903,5.508c0.794,2.168,0.818,4.684-0.105,6.889
				c-0.926,2.205-2.681,4.014-4.769,5.216c-2.089,1.205-4.555,1.844-7.023,1.693c-2.465-0.132-4.883-0.921-7.059-2.136
				c-4.359-2.444-7.839-6.487-9.882-11.192c-2.112-4.696-2.745-10.065-2.06-15.284c0.377-2.611,1.135-5.146,2.218-7.514
				c0.518-1.199,1.207-2.303,1.882-3.408l1.154-1.558c0.374-0.527,0.851-0.968,1.27-1.454c1.768-1.861,3.786-3.47,5.998-4.701
				c2.214-1.225,4.564-2.142,6.97-2.766c4.828-1.17,9.868-1.131,14.466,0.214c4.557,1.359,8.827,3.848,11.516,7.63
				c1.332,1.875,2.121,4.139,2.104,6.402c-0.004,2.246-0.78,4.524-2.375,6.089c-1.586,1.572-3.786,2.309-5.896,2.374
				c-2.134,0.081-4.207-0.545-5.993-1.519c-1.793-0.98-3.366-2.256-4.697-3.691c-1.378-1.396-2.503-2.976-3.449-4.601
				c-1.909-3.257-2.942-6.796-3.364-10.211c-0.37-3.428-0.086-6.754,0.728-9.75c0.843-2.993,2.222-5.631,3.864-7.816
				c3.311-4.389,7.45-6.99,10.978-8.447c3.568-1.459,6.589-1.804,8.595-1.882c1.01-0.053,1.779,0,2.296,0.039
				C337.303,126.511,337.565,126.542,337.565,126.542z"/>
		</g>
		<rect x="230.753" y="226.602" style="fill:#E8505B;" width="140.21" height="108.143"/>
		<g>
			<polygon style="fill:#E8505B;" points="230.753,226.602 256.65,250.757 394.483,250.757 370.963,226.602 			"/>
			<g>
				<path style="fill:#263238;" d="M230.753,226.602c2.529-0.005,60.44-0.11,140.21-0.255l0.108,0l0.075,0.077
					c7.512,7.712,15.307,15.715,23.281,23.903c0.082,0.084,0.164,0.168,0.242,0.249l0.431,0.443l-0.617-0.001
					c-56.518-0.042-106.681-0.08-137.833-0.104h-0.062l-0.045-0.042C240.338,235.622,231.603,227.402,230.753,226.602
					c0.857,0.792,9.665,8.935,26.004,24.04l-0.107-0.042c31.152-0.023,81.315-0.061,137.833-0.104l-0.187,0.442
					c-0.078-0.08-0.16-0.164-0.242-0.249c-7.972-8.19-15.765-16.195-23.274-23.91l0.183,0.077
					C291.193,226.712,233.28,226.607,230.753,226.602z"/>
			</g>
		</g>
		<g>
			<path style="fill:#263238;" d="M272.866,276.468c-1.484,0.002-2.838,1.335-2.863,2.819c-0.026,1.484,1.281,2.862,2.764,2.916
				c1.483,0.054,2.886-1.227,2.968-2.709c0.082-1.482-1.173-2.909-2.652-3.018"/>
			<path style="fill:#263238;" d="M305.972,276.468c-1.484,0.002-2.838,1.335-2.863,2.819c-0.026,1.484,1.281,2.862,2.764,2.916
				c1.483,0.054,2.886-1.227,2.968-2.709s-1.173-2.909-2.652-3.018"/>
			<g>
				<path style="fill:#263238;" d="M306.185,302.355c-0.15,0.062-0.371-2.706-2.775-6.216c-1.181-1.741-2.95-3.586-5.297-5.082
					c-2.333-1.497-5.296-2.573-8.497-2.69c-3.204-0.059-6.221,0.853-8.634,2.22c-2.426,1.365-4.293,3.111-5.568,4.784
					c-2.593,3.373-2.965,6.125-3.111,6.054c-0.018-0.004,0.011-0.166,0.081-0.473c0.085-0.302,0.15-0.769,0.367-1.328
					c0.362-1.141,1.097-2.741,2.37-4.476c1.264-1.737,3.147-3.555,5.625-4.979c2.462-1.426,5.569-2.385,8.885-2.323
					c3.313,0.12,6.361,1.249,8.741,2.807c2.395,1.558,4.176,3.476,5.343,5.28c1.176,1.803,1.822,3.441,2.121,4.6
					c0.186,0.57,0.225,1.04,0.294,1.346C306.183,302.188,306.203,302.352,306.185,302.355z"/>
			</g>
		</g>
		<polygon style="opacity:0.5;" points="231.071,227.792 255.867,259.231 370.963,259.231 370.963,250.757 256.65,250.757 		"/>
		<g>
			<path style="fill:#263238;" d="M343.315,334.497c-0.144,0-0.26-18.81-0.26-42.008c0-23.206,0.116-42.012,0.26-42.012
				c0.144,0,0.26,18.806,0.26,42.012C343.575,315.687,343.459,334.497,343.315,334.497z"/>
		</g>
		<rect x="352.971" y="309.982" style="fill:#F5F5F5;" width="12.359" height="13.971"/>
		<g>
			<polygon style="fill:#E8505B;" points="230.753,226.602 201.967,250.757 230.753,250.757 			"/>
			<g style="opacity:0.4;">
				<polygon points="230.753,226.602 201.967,250.757 230.753,250.757 				"/>
			</g>
		</g>
	</g>
	<g>
		<g>
			<rect x="213.892" y="334.745" style="fill:#E8505B;" width="161.209" height="124.338"/>
			<rect x="213.892" y="334.745" style="opacity:0.3;" width="161.209" height="124.338"/>
			<g>
				<path style="fill:#263238;" d="M334.711,458.205c-0.144,0-0.26-27.715-0.26-61.895c0-34.192,0.117-61.901,0.26-61.901
					s0.26,27.709,0.26,61.901C334.971,430.49,334.855,458.205,334.711,458.205z"/>
			</g>
			<rect x="349.073" y="430.781" style="fill:#F5F5F5;" width="12.359" height="13.971"/>
			<rect x="263.072" y="335.065" style="fill:#263238;" width="18.311" height="26.531"/>
			<rect x="263.072" y="432.182" style="fill:#263238;" width="18.311" height="26.531"/>
		</g>
		<g>
			<path style="fill:#263238;" d="M373.695,334.745c0,0.009-0.14,0.018-0.413,0.027c-0.297,0.006-0.699,0.015-1.211,0.026
				c-1.092,0.011-2.656,0.028-4.656,0.049c-4.071,0.02-9.914,0.048-17.124,0.082c-14.482,0.019-34.445,0.046-56.495,0.075
				c-22.057-0.029-42.022-0.056-56.504-0.075c-7.209-0.035-13.052-0.063-17.123-0.082c-2-0.021-3.563-0.037-4.655-0.049
				c-0.512-0.011-0.913-0.02-1.211-0.026c-0.273-0.009-0.412-0.018-0.412-0.027s0.14-0.018,0.412-0.027
				c0.297-0.006,0.698-0.015,1.211-0.026c1.092-0.012,2.655-0.028,4.655-0.049c4.07-0.02,9.913-0.048,17.123-0.083
				c14.482-0.02,34.447-0.047,56.504-0.077c22.049,0.03,42.012,0.058,56.495,0.077c7.209,0.035,13.053,0.064,17.124,0.083
				c2,0.021,3.564,0.037,4.656,0.049c0.512,0.011,0.914,0.02,1.211,0.026C373.556,334.727,373.695,334.736,373.695,334.745z"/>
		</g>
	</g>
</g>
<g id="Speech_Bubble">
	<g>
		<g>
			<path style="fill:#263238;" d="M97.417,119.468c-1.16-0.285-6.746-1.658-17.554-4.313l0.129-0.02
				c-3.86,2.462-9.09,4.449-15.153,4.543c-3.016-0.011-6.206-0.374-9.39-1.371c-3.181-0.991-6.308-2.635-9.15-4.851
				c-5.687-4.399-10.115-11.449-11.071-19.564c-0.488-4.031-0.161-8.269,1.093-12.326c1.277-4.047,3.481-7.881,6.449-11.109
				c1.505-1.706,3.276-3.121,5.084-4.43c0.949-0.586,1.885-1.195,2.863-1.71l1.493-0.719l0.744-0.358l0.773-0.283
				c4.09-1.586,8.443-2.2,12.621-1.922c4.183,0.269,8.189,1.439,11.693,3.283c3.51,1.84,6.519,4.338,8.881,7.174
				c2.368,2.837,4.09,6.009,5.185,9.211c1.094,3.206,1.593,6.431,1.622,9.478c0.036,6.121-1.877,11.372-4.205,15.206l0.002-0.158
				C94.407,114.036,96.873,118.486,97.417,119.468c-0.563-0.971-3.115-5.373-8.165-14.084l-0.046-0.079l0.048-0.08
				c2.269-3.814,4.119-9.008,4.05-15.041c-0.045-3.003-0.552-6.176-1.641-9.325c-1.09-3.146-2.794-6.257-5.131-9.038
				c-2.33-2.78-5.292-5.225-8.742-7.023c-3.444-1.801-7.375-2.941-11.478-3.199c-4.099-0.266-8.366,0.34-12.374,1.898l-0.758,0.278
				l-0.729,0.351l-1.463,0.705c-0.959,0.505-1.875,1.103-2.806,1.677c-1.771,1.284-3.508,2.671-4.983,4.343
				c-2.91,3.165-5.071,6.922-6.326,10.887c-1.232,3.975-1.557,8.132-1.084,12.086c0.926,7.958,5.252,14.886,10.827,19.227
				c2.786,2.186,5.854,3.813,8.979,4.8c3.128,0.993,6.266,1.364,9.238,1.391c5.974-0.062,11.145-1.986,14.983-4.389l0.061-0.038
				l0.068,0.018C90.703,117.687,96.264,119.162,97.417,119.468z"/>
		</g>
		<path style="fill:#E8505B;" d="M61.961,77.3l0.928,14.663c0.076,1.199,1.034,2.153,2.233,2.225l0,0
			c1.265,0.075,2.367-0.854,2.506-2.114l1.628-14.737c0.123-1.116-0.759-2.087-1.882-2.072l-3.577,0.05
			C62.731,75.33,61.893,76.235,61.961,77.3z"/>
		<path style="fill:#E8505B;" d="M69.009,102.436c-0.623,1.876-2.648,2.892-4.524,2.269c-1.876-0.623-2.892-2.648-2.269-4.524
			c0.623-1.876,2.648-2.892,4.524-2.269C68.616,98.534,69.632,100.56,69.009,102.436z"/>
	</g>
</g>
</svg>
