<?xml version="1.0" encoding="utf-8"?>
<!-- Generator: Adobe Illustrator 27.5.0, SVG Export Plug-In . SVG Version: 6.00 Build 0)  -->
<svg version="1.1" xmlns="http://www.w3.org/2000/svg" xmlns:xlink="http://www.w3.org/1999/xlink" x="0px" y="0px"
	 viewBox="0 0 500 500" style="enable-background:new 0 0 500 500;" xml:space="preserve">
<g id="Background_Complete">
	<g>
		<g>
			<g>
				<g>
					<g>
						<g>
							<g>
								<g>
									<path style="fill:#EBEBEB;" d="M317.524,250.717c-48.039-0.456-91.512-0.868-123.023-1.167
										c-15.72-0.075-28.445-0.136-37.282-0.178c-4.378,0.01-7.785,0.018-10.137,0.023c-1.135,0.015-2.01,0.027-2.636,0.035
										c-0.594,0.014-0.898,0.031-0.898,0.049c0,0.018,0.304,0.037,0.898,0.057c0.627,0.015,1.501,0.035,2.636,0.062
										c2.352,0.029,5.759,0.072,10.136,0.126c8.836,0.047,21.562,0.115,37.282,0.199c31.513,0.02,74.987,0.047,123.028,0.077
										c48.017-0.005,91.499,0.058,122.977,0.287c15.739,0.112,28.476,0.259,37.279,0.427c4.401,0.084,7.819,0.171,10.136,0.26
										c2.317,0.089,3.534,0.178,3.534,0.264c-0.001,0.085-1.218,0.163-3.536,0.228c-2.318,0.065-5.736,0.119-10.138,0.158
										c-8.805,0.078-21.543,0.097-37.282,0.05C409.019,251.584,365.539,251.207,317.524,250.717z"/>
								</g>
							</g>
						</g>
					</g>
				</g>
			</g>
		</g>
		<g>
			<g>
				<g>
					<g>
						<g>
							<g>
								<g>
									<path style="fill:#EBEBEB;" d="M316.567,261.407c-47.383-7.816-90.262-14.889-121.342-20.016
										c-15.517-2.482-28.079-4.491-36.802-5.886c-4.326-0.66-7.693-1.173-10.018-1.527c-1.124-0.158-1.99-0.28-2.61-0.367
										c-0.589-0.076-0.892-0.106-0.896-0.088c-0.003,0.018,0.294,0.085,0.878,0.196c0.617,0.111,1.477,0.266,2.593,0.467
										c2.319,0.39,5.677,0.955,9.993,1.681c8.722,1.402,21.282,3.42,36.797,5.913c31.127,4.846,74.07,11.532,121.524,18.92
										c47.435,7.348,90.38,14.069,121.44,19.119c15.53,2.522,28.09,4.621,36.759,6.137c4.335,0.758,7.697,1.37,9.971,1.814
										c2.275,0.444,3.462,0.72,3.448,0.806c-0.014,0.086-1.229-0.023-3.529-0.313c-2.3-0.289-5.686-0.759-10.041-1.395
										c-8.71-1.27-21.297-3.203-36.837-5.661C406.812,276.296,363.92,269.255,316.567,261.407z"/>
								</g>
							</g>
						</g>
					</g>
				</g>
			</g>
		</g>
		<g>
			<g>
				<g>
					<g>
						<g>
							<g>
								<g>
									<path style="fill:#EBEBEB;" d="M313.923,271.817c-45.543-15.079-86.756-28.725-116.63-38.616
										c-14.927-4.86-27.011-8.795-35.403-11.528c-4.167-1.323-7.41-2.352-9.65-3.063c-1.085-0.33-1.92-0.585-2.519-0.767
										c-0.57-0.167-0.864-0.243-0.87-0.225c-0.006,0.018,0.277,0.13,0.835,0.331c0.591,0.206,1.416,0.492,2.487,0.865
										c2.228,0.746,5.453,1.825,9.599,3.213c8.39,2.739,20.47,6.683,35.394,11.555c29.965,9.618,71.305,22.888,116.987,37.551
										c45.671,14.62,87.007,27.925,116.872,37.736c14.934,4.903,27.001,8.927,35.32,11.772c4.159,1.422,7.381,2.549,9.557,3.342
										c2.175,0.793,3.304,1.251,3.276,1.334c-0.028,0.083-1.211-0.212-3.437-0.855c-2.225-0.642-5.494-1.632-9.693-2.935
										c-8.399-2.606-20.52-6.468-35.474-11.31C400.663,300.54,359.43,286.925,313.923,271.817z"/>
								</g>
							</g>
						</g>
					</g>
				</g>
			</g>
		</g>
		<g>
			<g>
				<g>
					<g>
						<g>
							<g>
								<g>
									<path style="fill:#EBEBEB;" d="M309.653,281.676c-42.571-21.955-81.096-41.824-109.02-56.225
										c-13.966-7.117-25.272-12.878-33.122-16.878c-3.904-1.954-6.943-3.474-9.039-4.523c-1.019-0.495-1.803-0.877-2.365-1.15
										c-0.536-0.253-0.814-0.375-0.823-0.359c-0.009,0.017,0.253,0.171,0.772,0.456c0.55,0.294,1.32,0.705,2.318,1.239
										c2.08,1.081,5.094,2.648,8.967,4.661c7.847,4.006,19.149,9.775,33.11,16.902c28.056,14.15,66.762,33.673,109.533,55.246
										c42.767,21.529,81.465,41.085,109.393,55.408c13.965,7.159,25.241,13.004,33.003,17.102
										c3.881,2.049,6.884,3.661,8.906,4.78c2.022,1.119,3.064,1.745,3.024,1.822c-0.04,0.077-1.16-0.4-3.255-1.381
										c-2.095-0.981-5.164-2.466-9.103-4.406c-7.877-3.878-19.231-9.575-33.226-16.677
										C390.733,323.495,352.185,303.653,309.653,281.676z"/>
								</g>
							</g>
						</g>
					</g>
				</g>
			</g>
		</g>
		<g>
			<g>
				<g>
					<g>
						<g>
							<g>
								<g>
									<path style="fill:#EBEBEB;" d="M303.866,290.757c-38.568-28.248-73.469-53.811-98.768-72.34
										c-12.666-9.182-22.919-16.615-30.039-21.777c-3.546-2.532-6.306-4.501-8.212-5.862c-0.927-0.646-1.642-1.143-2.153-1.5
										c-0.489-0.333-0.745-0.496-0.756-0.481c-0.011,0.015,0.223,0.207,0.691,0.569c0.498,0.376,1.192,0.9,2.093,1.581
										c1.884,1.389,4.612,3.401,8.119,5.986c7.117,5.167,17.364,12.607,30.024,21.798c25.469,18.301,60.605,43.55,99.431,71.45
										c38.829,27.857,73.951,53.138,99.265,71.59c12.659,9.224,22.869,16.735,29.886,21.98c3.509,2.622,6.219,4.677,8.039,6.095
										c1.82,1.417,2.75,2.196,2.698,2.266c-0.052,0.07-1.083-0.574-2.997-1.865c-1.913-1.292-4.71-3.231-8.293-5.754
										c-7.166-5.045-17.477-12.421-30.174-21.593C377.321,344.559,342.393,319.02,303.866,290.757z"/>
								</g>
							</g>
						</g>
					</g>
				</g>
			</g>
		</g>
		<g>
			<g>
				<g>
					<g>
						<g>
							<g>
								<g>
									<path style="fill:#EBEBEB;" d="M296.717,298.834c-33.644-33.819-64.089-64.424-86.158-86.608
										c-11.063-11.013-20.02-19.929-26.239-26.12c-3.104-3.045-5.519-5.414-7.187-7.05c-0.814-0.781-1.441-1.382-1.891-1.812
										c-0.43-0.404-0.658-0.604-0.671-0.591c-0.014,0.013,0.188,0.239,0.593,0.668c0.432,0.448,1.036,1.072,1.819,1.882
										c1.642,1.661,4.02,4.067,7.076,7.158c6.215,6.195,15.165,15.117,26.221,26.137c22.272,21.985,52.998,52.316,86.952,85.833
										c33.963,33.474,64.669,63.835,86.765,85.945c11.051,11.053,19.952,20.039,26.056,26.296
										c3.052,3.128,5.406,5.574,6.98,7.253c1.575,1.679,2.37,2.591,2.308,2.652c-0.062,0.061-0.979-0.733-2.666-2.303
										c-1.686-1.57-4.143-3.915-7.284-6.956c-6.283-6.083-15.305-14.951-26.401-25.959
										C360.794,363.248,330.317,332.662,296.717,298.834z"/>
								</g>
							</g>
						</g>
					</g>
				</g>
			</g>
		</g>
		<g>
			<g>
				<g>
					<g>
						<g>
							<g>
								<g>
									<path style="fill:#EBEBEB;" d="M288.383,305.717c-27.9-38.569-53.148-73.471-71.448-98.77
										c-9.192-12.576-16.633-22.757-21.8-29.826c-2.586-3.484-4.598-6.194-5.988-8.066c-0.681-0.896-1.206-1.586-1.582-2.08
										c-0.361-0.465-0.554-0.698-0.57-0.687c-0.015,0.011,0.147,0.265,0.48,0.751c0.356,0.508,0.853,1.217,1.499,2.139
										c1.36,1.893,3.33,4.634,5.861,8.156c5.162,7.073,12.596,17.259,21.779,29.841c18.533,25.134,44.102,59.808,72.356,98.125
										c28.27,38.276,53.815,72.977,72.155,98.207c9.172,12.613,16.548,22.856,21.591,29.973c2.522,3.559,4.461,6.335,5.751,8.236
										c1.29,1.9,1.932,2.923,1.861,2.974c-0.071,0.051-0.851-0.874-2.27-2.683c-1.418-1.809-3.475-4.502-6.099-7.989
										c-5.247-6.972-12.761-17.116-21.986-29.692C341.519,379.176,316.238,344.287,288.383,305.717z"/>
								</g>
							</g>
						</g>
					</g>
				</g>
			</g>
		</g>
		<g>
			<g>
				<g>
					<g>
						<g>
							<g>
								<g>
									<path style="fill:#EBEBEB;" d="M279.062,311.233c-21.441-42.397-40.843-80.763-54.907-108.573
										c-7.085-13.839-12.821-25.041-16.804-32.821c-2.002-3.839-3.56-6.827-4.636-8.89c-0.531-0.99-0.94-1.752-1.233-2.298
										c-0.284-0.515-0.438-0.774-0.455-0.766c-0.017,0.009,0.103,0.285,0.355,0.816c0.271,0.557,0.65,1.334,1.141,2.344
										c1.043,2.079,2.554,5.09,4.495,8.96c3.977,7.782,9.704,18.989,16.779,32.833c14.321,27.682,34.079,65.872,55.912,108.073
										c21.855,42.163,41.586,80.376,55.7,108.124c7.06,13.873,12.721,25.126,16.573,32.934c1.926,3.904,3.401,6.945,4.374,9.021
										c0.973,2.076,1.445,3.186,1.366,3.225c-0.079,0.039-0.703-0.994-1.818-3c-1.115-2.005-2.719-4.982-4.758-8.83
										c-4.078-7.695-9.891-18.873-17.009-32.717C319.895,391.984,300.458,353.625,279.062,311.233z"/>
								</g>
							</g>
						</g>
					</g>
				</g>
			</g>
		</g>
		<g>
			<g>
				<g>
					<g>
						<g>
							<g>
								<g>
									<path style="fill:#EBEBEB;" d="M268.978,315.24c-14.409-45.196-27.448-86.095-36.899-115.741
										c-4.79-14.765-8.667-26.719-11.359-35.019c-1.365-4.102-2.427-7.294-3.161-9.498c-0.367-1.06-0.649-1.876-0.852-2.461
										c-0.198-0.552-0.308-0.833-0.327-0.827c-0.018,0.006,0.056,0.297,0.22,0.861c0.179,0.592,0.429,1.419,0.753,2.492
										c0.698,2.215,1.709,5.423,3.008,9.546c2.686,8.302,6.554,20.258,11.331,35.027c9.727,29.559,23.147,70.339,37.976,115.402
										c14.858,45.029,28.247,85.826,37.758,115.419c4.759,14.795,8.553,26.787,11.111,35.095c1.279,4.154,2.25,7.387,2.879,9.588
										c0.63,2.201,0.918,3.371,0.833,3.397c-0.084,0.026-0.536-1.091-1.318-3.244c-0.781-2.153-1.891-5.342-3.291-9.458
										c-2.8-8.232-6.757-20.173-11.578-34.948C296.418,401.321,283.343,360.424,268.978,315.24z"/>
								</g>
							</g>
						</g>
					</g>
				</g>
			</g>
		</g>
		<g>
			<g>
				<g>
					<g>
						<g>
							<g>
								<g>
									<path style="fill:#EBEBEB;" d="M258.377,317.631c-7.019-46.868-13.371-89.281-17.976-120.025
										c-2.374-15.325-4.295-27.731-5.629-36.345c-0.693-4.263-1.233-7.58-1.605-9.87c-0.193-1.104-0.341-1.953-0.448-2.562
										c-0.107-0.576-0.172-0.87-0.19-0.867c-0.018,0.003,0.009,0.302,0.081,0.884c0.082,0.613,0.197,1.467,0.346,2.577
										c0.336,2.296,0.823,5.621,1.449,9.894c1.328,8.616,3.24,21.023,5.602,36.349c4.889,30.7,11.635,73.055,19.088,119.857
										c7.487,46.774,14.199,89.141,18.87,119.84c2.339,15.349,4.173,27.781,5.374,36.382c0.601,4.301,1.043,7.644,1.314,9.915
										c0.271,2.271,0.369,3.471,0.282,3.484c-0.087,0.013-0.355-1.161-0.783-3.408c-0.428-2.248-1.014-5.569-1.739-9.851
										c-1.451-8.564-3.454-20.97-5.857-36.31C271.743,406.897,265.356,364.481,258.377,317.631z"/>
								</g>
							</g>
						</g>
					</g>
				</g>
			</g>
		</g>
		<g>
			<g>
				<g>
					<g>
						<g>
							<g>
								<g>
									<path style="fill:#EBEBEB;" d="M247.525,318.358c0.432-47.375,0.824-90.246,1.108-121.322
										c0.066-15.502,0.12-28.052,0.157-36.766c-0.013-4.317-0.023-7.677-0.03-9.996c-0.016-1.12-0.029-1.982-0.038-2.6
										c-0.015-0.586-0.031-0.886-0.049-0.886c-0.018,0-0.038,0.3-0.058,0.885c-0.015,0.618-0.035,1.48-0.061,2.599
										c-0.028,2.319-0.069,5.679-0.121,9.996c-0.042,8.715-0.104,21.264-0.179,36.766c-0.001,31.077-0.002,73.95-0.003,121.326
										c0.035,47.353-0.002,90.234-0.215,121.276c-0.104,15.521-0.245,28.083-0.41,36.764c-0.082,4.341-0.169,7.711-0.258,9.996
										c-0.089,2.285-0.178,3.485-0.265,3.485c-0.087,0-0.166-1.201-0.233-3.487c-0.068-2.286-0.124-5.657-0.166-9.998
										c-0.085-8.682-0.112-21.245-0.073-36.766C246.702,408.589,247.057,365.709,247.525,318.358z"/>
								</g>
							</g>
						</g>
					</g>
				</g>
			</g>
		</g>
		<g>
			<g>
				<g>
					<g>
						<g>
							<g>
								<g>
									<path style="fill:#EBEBEB;" d="M236.685,317.421c7.896-46.732,15.041-89.022,20.22-119.677
										c2.507-15.304,4.536-27.693,5.945-36.296c0.666-4.267,1.184-7.588,1.542-9.88c0.16-1.109,0.282-1.962,0.371-2.574
										c0.077-0.581,0.107-0.88,0.089-0.883c-0.019-0.003-0.086,0.29-0.199,0.865c-0.112,0.608-0.269,1.456-0.472,2.558
										c-0.394,2.287-0.965,5.599-1.698,9.855c-1.415,8.602-3.454,20.99-5.973,36.292c-4.895,30.699-11.647,73.052-19.109,119.854
										c-7.421,46.784-14.209,89.139-19.311,119.772c-2.548,15.317-4.668,27.704-6.2,36.254c-0.766,4.275-1.384,7.591-1.833,9.835
										c-0.449,2.244-0.728,3.415-0.815,3.401c-0.087-0.014,0.023-1.212,0.315-3.481c0.292-2.269,0.767-5.608,1.408-9.903
										c1.283-8.59,3.234-21.004,5.718-36.331C221.644,406.428,228.756,364.124,236.685,317.421z"/>
								</g>
							</g>
						</g>
					</g>
				</g>
			</g>
		</g>
		<g>
			<g>
				<g>
					<g>
						<g>
							<g>
								<g>
									<path style="fill:#EBEBEB;" d="M226.126,314.82c15.262-44.922,29.074-85.574,39.084-115.041
										c4.919-14.723,8.901-26.643,11.667-34.92c1.339-4.11,2.38-7.309,3.099-9.518c0.334-1.07,0.592-1.894,0.776-2.485
										c0.169-0.562,0.246-0.852,0.228-0.858c-0.018-0.006-0.132,0.273-0.335,0.824c-0.208,0.583-0.499,1.397-0.875,2.453
										c-0.755,2.198-1.848,5.379-3.252,9.468c-2.772,8.275-6.764,20.192-11.694,34.911
										c-9.735,29.557-23.164,70.333-38.004,115.393c-14.797,45.048-28.262,85.822-38.192,115.28
										c-4.962,14.73-9.035,26.633-11.915,34.838c-1.439,4.103-2.58,7.281-3.382,9.427c-0.802,2.146-1.266,3.259-1.351,3.231
										c-0.084-0.027,0.215-1.194,0.864-3.389c0.65-2.195,1.651-5.419,2.97-9.561c2.637-8.284,6.546-20.24,11.446-34.99
										C197.056,400.378,210.836,359.708,226.126,314.82z"/>
								</g>
							</g>
						</g>
					</g>
				</g>
			</g>
		</g>
		<g>
			<g>
				<g>
					<g>
						<g>
							<g>
								<g>
									<path style="fill:#EBEBEB;" d="M216.126,310.616c22.236-41.996,42.359-80.001,56.945-107.548
										c7.208-13.777,13.043-24.93,17.094-32.675c1.979-3.852,3.518-6.849,4.581-8.917c0.502-1.005,0.888-1.779,1.164-2.333
										c0.257-0.528,0.38-0.803,0.363-0.812c-0.017-0.008-0.173,0.25-0.461,0.762c-0.298,0.543-0.714,1.302-1.255,2.287
										c-1.095,2.052-2.682,5.025-4.721,8.846c-4.057,7.741-9.901,18.89-17.119,32.662
										c-14.331,27.676-34.103,65.86-55.952,108.053c-21.805,42.189-41.61,80.363-56.116,107.914
										c-7.251,13.777-13.17,24.9-17.321,32.557c-2.075,3.829-3.708,6.791-4.841,8.786c-1.133,1.995-1.768,3.023-1.845,2.983
										c-0.078-0.04,0.405-1.145,1.398-3.211c0.994-2.066,2.498-5.094,4.462-8.979c3.928-7.771,9.697-18.971,16.89-32.776
										C173.772,390.601,193.868,352.574,216.126,310.616z"/>
								</g>
							</g>
						</g>
					</g>
				</g>
			</g>
		</g>
		<g>
			<g>
				<g>
					<g>
						<g>
							<g>
								<g>
									<path style="fill:#EBEBEB;" d="M206.915,304.915c28.62-38.052,54.52-72.487,73.293-97.446
										c9.303-12.496,16.834-22.613,22.064-29.637c2.565-3.499,4.561-6.221,5.939-8.101c0.654-0.915,1.158-1.62,1.52-2.125
										c0.337-0.482,0.502-0.735,0.487-0.746c-0.015-0.011-0.21,0.22-0.576,0.681c-0.381,0.491-0.912,1.176-1.601,2.065
										c-1.408,1.859-3.445,4.551-6.065,8.01c-5.235,7.021-12.773,17.132-22.085,29.622
										c-18.542,25.127-44.123,59.793-72.391,98.101c-28.223,38.309-53.837,72.961-72.532,97.937
										c-9.345,12.489-16.956,22.563-22.27,29.486c-2.657,3.461-4.739,6.136-6.175,7.931c-1.436,1.796-2.226,2.713-2.296,2.662
										c-0.071-0.051,0.581-1.068,1.89-2.957c1.308-1.888,3.274-4.647,5.829-8.181c5.111-7.07,12.585-17.243,21.877-29.771
										C152.404,377.388,178.28,342.926,206.915,304.915z"/>
								</g>
							</g>
						</g>
					</g>
				</g>
			</g>
		</g>
		<g>
			<g>
				<g>
					<g>
						<g>
							<g>
								<g>
									<path style="fill:#EBEBEB;" d="M198.72,297.87c34.273-33.199,65.288-63.243,87.769-85.02
										c11.161-10.917,20.196-19.755,26.47-25.892c3.086-3.063,5.487-5.446,7.145-7.092c0.791-0.803,1.4-1.422,1.836-1.865
										c0.409-0.425,0.613-0.649,0.599-0.662c-0.013-0.013-0.242,0.185-0.677,0.585c-0.454,0.427-1.086,1.022-1.908,1.795
										c-1.683,1.62-4.121,3.967-7.254,6.983c-6.278,6.133-15.319,14.965-26.488,25.874
										c-22.28,21.977-53.017,52.298-86.983,85.802c-33.923,33.514-64.69,63.814-87.097,85.618
										c-11.201,10.904-20.308,19.688-26.649,25.712c-3.17,3.012-5.649,5.334-7.35,6.888c-1.701,1.554-2.626,2.339-2.688,2.278
										c-0.062-0.061,0.743-0.966,2.333-2.63c1.59-1.664,3.967-4.088,7.049-7.188c6.164-6.2,15.151-15.103,26.306-26.052
										C133.443,361.1,164.438,331.026,198.72,297.87z"/>
								</g>
							</g>
						</g>
					</g>
				</g>
			</g>
		</g>
		<g>
			<g>
				<g>
					<g>
						<g>
							<g>
								<g>
									<path style="fill:#EBEBEB;" d="M191.735,289.655c39.092-27.538,74.469-52.458,100.111-70.521
										c12.747-9.072,23.066-16.417,30.231-21.517c3.531-2.552,6.278-4.538,8.176-5.91c0.908-0.672,1.607-1.19,2.108-1.561
										c0.471-0.357,0.707-0.547,0.696-0.562c-0.011-0.015-0.268,0.146-0.76,0.474c-0.516,0.352-1.234,0.843-2.168,1.48
										c-1.919,1.342-4.697,3.286-8.267,5.785c-7.169,5.095-17.493,12.433-30.246,21.496
										c-25.475,18.293-60.62,43.53-99.456,71.417c-38.795,27.903-73.967,53.116-99.54,71.218
										c-12.785,9.053-23.166,16.334-30.38,21.311c-3.607,2.489-6.422,4.403-8.348,5.676c-1.926,1.274-2.963,1.908-3.015,1.837
										c-0.051-0.07,0.886-0.84,2.72-2.241c1.833-1.4,4.563-3.43,8.097-6.019c7.067-5.179,17.348-12.595,30.095-21.701
										C117.279,342.102,152.641,317.149,191.735,289.655z"/>
								</g>
							</g>
						</g>
					</g>
				</g>
			</g>
		</g>
		<g>
			<g>
				<g>
					<g>
						<g>
							<g>
								<g>
									<path style="fill:#EBEBEB;" d="M186.135,280.467c42.978-21.171,81.87-40.329,110.062-54.216
										c14.028-6.996,25.385-12.659,33.271-16.592c3.892-1.977,6.921-3.515,9.011-4.577c1.004-0.525,1.776-0.928,2.33-1.218
										c0.522-0.28,0.785-0.432,0.776-0.449c-0.009-0.017-0.289,0.102-0.827,0.35c-0.564,0.268-1.353,0.642-2.376,1.127
										c-2.107,1.03-5.16,2.521-9.083,4.438c-7.889,3.927-19.249,9.582-33.282,16.568c-28.061,14.14-66.775,33.649-109.555,55.207
										c-42.741,21.58-81.477,41.061-109.605,54.997c-14.063,6.971-25.471,12.56-33.386,16.364
										c-3.957,1.902-7.041,3.358-9.145,4.319c-2.104,0.961-3.229,1.426-3.269,1.349c-0.04-0.078,1.008-0.694,3.041-1.795
										c2.033-1.101,5.051-2.685,8.951-4.698c7.8-4.026,19.131-9.766,33.165-16.794
										C104.278,320.786,143.162,301.593,186.135,280.467z"/>
								</g>
							</g>
						</g>
					</g>
				</g>
			</g>
		</g>
		<g>
			<g>
				<g>
					<g>
						<g>
							<g>
								<g>
									<path style="fill:#EBEBEB;" d="M182.067,270.524c45.82-14.238,87.285-27.123,117.341-36.462
										c14.969-4.733,27.088-8.564,35.503-11.224c4.159-1.349,7.395-2.398,9.629-3.123c1.074-0.362,1.902-0.641,2.495-0.841
										c0.56-0.196,0.844-0.305,0.838-0.323c-0.006-0.018-0.301,0.056-0.873,0.217c-0.6,0.177-1.438,0.424-2.526,0.744
										c-2.246,0.69-5.498,1.689-9.678,2.973c-8.417,2.654-20.539,6.476-35.512,11.197
										c-29.968,9.611-71.311,22.871-116.997,37.523c-45.651,14.681-87.012,27.91-117.013,37.309
										c-15,4.702-27.157,8.452-35.581,10.98c-4.212,1.264-7.489,2.223-9.72,2.845c-2.232,0.622-3.417,0.907-3.444,0.824
										c-0.027-0.083,1.106-0.53,3.289-1.302c2.183-0.772,5.416-1.868,9.589-3.251c8.346-2.766,20.451-6.677,35.431-11.44
										C94.796,297.639,136.258,284.72,182.067,270.524z"/>
								</g>
							</g>
						</g>
					</g>
				</g>
			</g>
		</g>
		<g>
			<g>
				<g>
					<g>
						<g>
							<g>
								<g>
									<path style="fill:#EBEBEB;" d="M179.635,260.072c47.521-6.952,90.526-13.243,121.697-17.802
										c15.538-2.35,28.117-4.253,36.851-5.574c4.323-0.686,7.686-1.22,10.008-1.589c1.119-0.191,1.98-0.338,2.598-0.443
										c0.584-0.106,0.882-0.17,0.879-0.188c-0.003-0.018-0.306,0.009-0.896,0.08c-0.621,0.082-1.488,0.195-2.614,0.343
										c-2.328,0.333-5.699,0.815-10.031,1.435c-8.736,1.315-21.316,3.209-36.856,5.548
										c-31.128,4.841-74.072,11.519-121.526,18.899c-47.425,7.413-90.382,14.058-121.509,18.684
										c-15.563,2.316-28.168,4.133-36.889,5.323c-4.361,0.595-7.75,1.034-10.053,1.302c-2.303,0.268-3.519,0.366-3.533,0.28
										c-0.013-0.086,1.177-0.351,3.456-0.774c2.279-0.423,5.646-1.004,9.988-1.722c8.683-1.436,21.262-3.42,36.815-5.799
										C89.125,273.309,132.132,266.983,179.635,260.072z"/>
								</g>
							</g>
						</g>
					</g>
				</g>
			</g>
		</g>
		<g>
			<g>
				<g>
					<g>
						<g>
							<g>
								<g>
									<path style="fill:#EBEBEB;" d="M178.891,249.372c48.04,0.397,91.513,0.756,123.024,1.017
										c15.72,0.056,28.446,0.101,37.283,0.132c4.378-0.015,7.784-0.028,10.136-0.036c1.135-0.017,2.01-0.03,2.636-0.039
										c0.594-0.015,0.898-0.031,0.898-0.049c0-0.018-0.304-0.037-0.898-0.056c-0.626-0.014-1.501-0.034-2.636-0.059
										c-2.352-0.026-5.759-0.064-10.136-0.114c-8.837-0.036-21.563-0.089-37.283-0.154c-31.512,0.019-74.987,0.044-123.028,0.073
										c-48.017,0.064-91.5,0.054-122.978-0.137c-15.739-0.092-28.477-0.224-37.28-0.381c-4.402-0.078-7.819-0.162-10.136-0.248
										c-2.317-0.086-3.534-0.174-3.534-0.259c0-0.085,1.218-0.164,3.535-0.232c2.318-0.068,5.736-0.126,10.138-0.17
										c8.804-0.089,21.543-0.123,37.282-0.095C87.395,248.615,130.876,248.94,178.891,249.372z"/>
								</g>
							</g>
						</g>
					</g>
				</g>
			</g>
		</g>
		<g>
			<g>
				<g>
					<g>
						<g>
							<g>
								<g>
									<path style="fill:#EBEBEB;" d="M179.834,238.68c47.393,7.757,90.281,14.776,121.368,19.864
										c15.52,2.462,28.084,4.456,36.809,5.84c4.328,0.654,7.695,1.163,10.02,1.515c1.124,0.157,1.99,0.277,2.611,0.364
										c0.589,0.076,0.893,0.105,0.895,0.087c0.003-0.018-0.294-0.085-0.877-0.195c-0.617-0.11-1.477-0.264-2.595-0.464
										c-2.319-0.387-5.678-0.948-9.994-1.668c-8.724-1.391-21.286-3.393-36.805-5.867
										c-31.133-4.807-74.085-11.439-121.548-18.768c-47.445-7.288-90.399-13.956-121.464-18.967
										c-15.534-2.503-28.096-4.586-36.767-6.091c-4.336-0.752-7.698-1.36-9.974-1.801c-2.276-0.441-3.463-0.716-3.45-0.802
										c0.014-0.086,1.23,0.022,3.53,0.308c2.301,0.286,5.687,0.752,10.042,1.382c8.711,1.259,21.301,3.176,36.845,5.615
										C89.57,223.904,132.471,230.891,179.834,238.68z"/>
								</g>
							</g>
						</g>
					</g>
				</g>
			</g>
		</g>
		<g>
			<g>
				<g>
					<g>
						<g>
							<g>
								<g>
									<path style="fill:#EBEBEB;" d="M182.465,228.266c45.562,15.022,86.793,28.616,116.68,38.47
										c14.933,4.842,27.022,8.761,35.418,11.483c4.169,1.317,7.413,2.342,9.653,3.05c1.085,0.329,1.921,0.582,2.52,0.764
										c0.57,0.166,0.865,0.242,0.871,0.224c0.006-0.018-0.277-0.13-0.835-0.33c-0.592-0.205-1.417-0.491-2.488-0.862
										c-2.229-0.743-5.456-1.819-9.603-3.201c-8.393-2.728-20.479-6.657-35.408-11.51
										c-29.978-9.581-71.335-22.799-117.036-37.404c-45.69-14.563-87.044-27.816-116.921-37.59
										c-14.94-4.884-27.012-8.893-35.334-11.727c-4.161-1.417-7.385-2.54-9.561-3.33c-2.176-0.79-3.306-1.246-3.278-1.33
										c0.028-0.083,1.211,0.211,3.438,0.85c2.226,0.639,5.496,1.625,9.697,2.922c8.402,2.595,20.528,6.442,35.489,11.265
										C95.688,199.652,136.938,213.216,182.465,228.266z"/>
								</g>
							</g>
						</g>
					</g>
				</g>
			</g>
		</g>
		<g>
			<g>
				<g>
					<g>
						<g>
							<g>
								<g>
									<path style="fill:#EBEBEB;" d="M186.722,218.402c42.6,21.902,81.15,41.722,109.092,56.089
										c13.975,7.099,25.288,12.846,33.144,16.837c3.907,1.949,6.947,3.465,9.045,4.512c1.02,0.494,1.804,0.874,2.366,1.147
										c0.536,0.253,0.815,0.374,0.824,0.357c0.009-0.016-0.253-0.17-0.773-0.455c-0.551-0.293-1.32-0.704-2.319-1.236
										c-2.082-1.079-5.098-2.641-8.973-4.65c-7.853-3.996-19.162-9.752-33.131-16.861
										c-28.074-14.116-66.805-33.59-109.605-55.109c-42.795-21.476-81.517-40.984-109.463-55.272
										c-13.974-7.141-25.258-12.972-33.025-17.061c-3.883-2.044-6.888-3.652-8.912-4.769c-2.024-1.117-3.067-1.741-3.027-1.818
										c0.04-0.077,1.161,0.399,3.257,1.377c2.096,0.978,5.167,2.459,9.108,4.394c7.882,3.868,19.243,9.551,33.247,16.636
										C105.588,176.684,144.161,196.478,186.722,218.402z"/>
								</g>
							</g>
						</g>
					</g>
				</g>
			</g>
		</g>
		<g>
			<g>
				<g>
					<g>
						<g>
							<g>
								<g>
									<path style="fill:#EBEBEB;" d="M192.497,209.314c38.604,28.2,73.538,53.72,98.86,72.217
										c12.678,9.166,22.94,16.587,30.067,21.74c3.55,2.527,6.312,4.493,8.218,5.851c0.929,0.645,1.644,1.142,2.156,1.497
										c0.489,0.333,0.745,0.495,0.757,0.48c0.011-0.015-0.223-0.207-0.691-0.568c-0.498-0.375-1.193-0.899-2.096-1.578
										c-1.886-1.387-4.616-3.395-8.126-5.976c-7.123-5.158-17.381-12.585-30.052-21.76c-25.492-18.27-60.66-43.475-99.522-71.327
										c-38.865-27.809-74.019-53.046-99.356-71.467c-12.671-9.208-22.891-16.707-29.914-21.943
										c-3.512-2.618-6.225-4.67-8.047-6.084c-1.822-1.415-2.753-2.193-2.701-2.263c0.052-0.07,1.084,0.572,2.999,1.861
										c1.915,1.289,4.714,3.226,8.3,5.744c7.172,5.036,17.493,12.4,30.202,21.556
										C118.974,155.603,153.935,181.099,192.497,209.314z"/>
								</g>
							</g>
						</g>
					</g>
				</g>
			</g>
		</g>
		<g>
			<g>
				<g>
					<g>
						<g>
							<g>
								<g>
									<path style="fill:#EBEBEB;" d="M199.636,201.228c33.686,33.778,64.171,64.345,86.267,86.501
										c11.077,10.999,20.045,19.904,26.272,26.087c3.108,3.041,5.526,5.407,7.196,7.041c0.815,0.78,1.443,1.38,1.893,1.81
										c0.431,0.404,0.659,0.603,0.672,0.59c0.013-0.013-0.188-0.239-0.594-0.667c-0.433-0.447-1.037-1.071-1.821-1.88
										c-1.644-1.659-4.025-4.062-7.085-7.149c-6.223-6.187-15.184-15.098-26.254-26.105c-22.3-21.958-53.065-52.251-87.06-85.725
										c-34.005-33.432-64.751-63.755-86.875-85.838C101.182,104.854,92.27,95.879,86.157,89.63
										c-3.056-3.125-5.413-5.567-6.989-7.244c-1.576-1.677-2.373-2.588-2.311-2.649c0.062-0.061,0.98,0.732,2.668,2.299
										c1.688,1.567,4.148,3.91,7.293,6.947c6.291,6.075,15.324,14.932,26.435,25.926
										C135.478,136.893,165.993,167.441,199.636,201.228z"/>
								</g>
							</g>
						</g>
					</g>
				</g>
			</g>
		</g>
		<g>
			<g>
				<g>
					<g>
						<g>
							<g>
								<g>
									<path style="fill:#EBEBEB;" d="M207.962,194.335c27.949,38.534,53.241,73.405,71.574,98.682
										c9.208,12.565,16.662,22.736,21.838,29.799c2.591,3.48,4.606,6.189,5.998,8.059c0.683,0.895,1.208,1.584,1.585,2.078
										c0.362,0.464,0.555,0.697,0.57,0.686c0.015-0.011-0.148-0.265-0.481-0.75c-0.357-0.508-0.855-1.217-1.502-2.137
										c-1.362-1.891-3.335-4.63-5.871-8.149c-5.171-7.067-12.618-17.243-21.817-29.814
										c-18.565-25.111-44.178-59.754-72.482-98.035c-28.319-38.241-53.908-72.91-72.28-98.118
										c-9.189-12.602-16.577-22.835-21.629-29.946c-2.526-3.555-4.468-6.33-5.761-8.228c-1.293-1.898-1.936-2.921-1.865-2.971
										c0.071-0.051,0.853,0.873,2.274,2.68c1.421,1.807,3.481,4.498,6.109,7.981c5.256,6.965,12.783,17.1,22.024,29.665
										C154.732,120.941,180.057,155.799,207.962,194.335z"/>
								</g>
							</g>
						</g>
					</g>
				</g>
			</g>
		</g>
		<g>
			<g>
				<g>
					<g>
						<g>
							<g>
								<g>
									<path style="fill:#EBEBEB;" d="M217.275,188.806c21.495,42.37,40.947,80.712,55.046,108.505
										c7.103,13.83,12.853,25.025,16.846,32.8c2.007,3.837,3.569,6.823,4.647,8.884c0.533,0.989,0.942,1.751,1.236,2.297
										c0.284,0.514,0.438,0.774,0.455,0.765c0.017-0.008-0.104-0.284-0.356-0.815c-0.272-0.557-0.652-1.334-1.144-2.342
										c-1.046-2.078-2.56-5.087-4.506-8.954c-3.987-7.777-9.729-18.977-16.822-32.812
										c-14.357-27.664-34.164-65.829-56.051-108.003c-21.909-42.136-41.689-80.324-55.839-108.054
										c-7.077-13.864-12.753-25.111-16.615-32.913c-1.931-3.901-3.41-6.941-4.385-9.016c-0.975-2.075-1.449-3.184-1.37-3.223
										c0.078-0.039,0.705,0.993,1.822,2.997c1.117,2.004,2.726,4.979,4.769,8.824c4.088,7.69,9.915,18.861,17.051,32.695
										C176.338,108.107,195.825,146.441,217.275,188.806z"/>
								</g>
							</g>
						</g>
					</g>
				</g>
			</g>
		</g>
		<g>
			<g>
				<g>
					<g>
						<g>
							<g>
								<g>
									<path style="fill:#EBEBEB;" d="M227.354,184.787c14.467,45.178,27.559,86.061,37.049,115.695
										c4.808,14.759,8.701,26.707,11.404,35.005c1.37,4.1,2.437,7.291,3.173,9.494c0.368,1.059,0.652,1.875,0.855,2.46
										c0.199,0.552,0.31,0.832,0.328,0.826c0.018-0.006-0.057-0.297-0.221-0.86c-0.18-0.592-0.431-1.418-0.756-2.491
										c-0.701-2.214-1.716-5.421-3.021-9.542c-2.696-8.299-6.58-20.25-11.377-35.013c-9.765-29.547-23.237-70.31-38.125-115.354
										c-14.916-45.01-28.358-85.791-37.907-115.371c-4.778-14.789-8.588-26.777-11.157-35.081
										c-1.285-4.152-2.259-7.384-2.891-9.584c-0.632-2.2-0.922-3.369-0.838-3.396c0.084-0.027,0.538,1.09,1.322,3.242
										c0.784,2.152,1.897,5.34,3.303,9.454c2.81,8.228,6.784,20.164,11.623,34.934
										C199.803,98.741,212.931,139.621,227.354,184.787z"/>
								</g>
							</g>
						</g>
					</g>
				</g>
			</g>
		</g>
		<g>
			<g>
				<g>
					<g>
						<g>
							<g>
								<g>
									<path style="fill:#EBEBEB;" d="M237.952,182.383c7.079,46.859,13.486,89.265,18.129,120.002
										c2.393,15.322,4.331,27.725,5.676,36.338c0.699,4.262,1.242,7.578,1.617,9.868c0.194,1.103,0.344,1.953,0.451,2.562
										c0.108,0.576,0.173,0.87,0.191,0.867c0.019-0.003-0.009-0.302-0.081-0.884c-0.083-0.612-0.199-1.467-0.35-2.577
										c-0.339-2.296-0.83-5.62-1.462-9.892c-1.339-8.614-3.267-21.019-5.649-36.342c-4.928-30.694-11.728-73.04-19.241-119.834
										c-7.547-46.764-14.313-89.123-19.024-119.816c-2.358-15.346-4.209-27.775-5.421-36.375c-0.606-4.3-1.053-7.642-1.327-9.913
										c-0.274-2.271-0.374-3.47-0.287-3.483c0.087-0.013,0.357,1.16,0.787,3.408c0.43,2.247,1.021,5.568,1.752,9.849
										c1.462,8.562,3.481,20.966,5.904,36.302C224.471,93.134,230.913,135.542,237.952,182.383z"/>
								</g>
							</g>
						</g>
					</g>
				</g>
			</g>
		</g>
		<g>
			<g>
				<g>
					<g>
						<g>
							<g>
								<g>
									<path style="fill:#EBEBEB;" d="M248.801,181.642c-0.372,47.375-0.709,90.247-0.953,121.323
										c-0.047,15.502-0.084,28.052-0.111,36.767c0.019,4.317,0.033,7.677,0.043,9.996c0.018,1.12,0.031,1.982,0.041,2.6
										c0.015,0.586,0.033,0.886,0.051,0.886c0.018,0,0.037-0.3,0.057-0.885c0.014-0.618,0.033-1.48,0.058-2.599
										c0.025-2.319,0.062-5.679,0.109-9.996c0.031-8.715,0.076-21.264,0.132-36.766c-0.039-31.076-0.093-73.95-0.152-121.326
										c-0.095-47.353-0.112-90.234,0.061-121.277c0.084-15.522,0.21-28.083,0.363-36.764c0.077-4.341,0.159-7.711,0.245-9.996
										c0.086-2.285,0.174-3.485,0.261-3.485c0.086,0,0.167,1.201,0.237,3.487c0.071,2.286,0.131,5.657,0.179,9.998
										c0.096,8.682,0.139,21.244,0.12,36.766C249.51,91.411,249.209,134.291,248.801,181.642z"/>
								</g>
							</g>
						</g>
					</g>
				</g>
			</g>
		</g>
		<g>
			<g>
				<g>
					<g>
						<g>
							<g>
								<g>
									<path style="fill:#EBEBEB;" d="M259.643,182.566c-7.835,46.742-14.925,89.042-20.064,119.702
										c-2.487,15.307-4.5,27.699-5.898,36.304c-0.661,4.268-1.174,7.589-1.529,9.882c-0.158,1.109-0.28,1.963-0.367,2.575
										c-0.076,0.581-0.106,0.88-0.087,0.883c0.019,0.003,0.086-0.29,0.198-0.866c0.111-0.608,0.267-1.457,0.469-2.559
										c0.391-2.287,0.957-5.6,1.685-9.857c1.404-8.604,3.427-20.994,5.925-36.3c4.854-30.706,11.552-73.067,18.953-119.878
										c7.36-46.793,14.093-89.157,19.155-119.796c2.528-15.32,4.632-27.71,6.153-36.262c0.76-4.276,1.374-7.593,1.82-9.837
										c0.446-2.244,0.724-3.416,0.811-3.402c0.087,0.014-0.021,1.212-0.31,3.481c-0.289,2.269-0.759,5.608-1.395,9.904
										c-1.271,8.592-3.207,21.008-5.671,36.338C274.568,93.54,267.511,135.853,259.643,182.566z"/>
								</g>
							</g>
						</g>
					</g>
				</g>
			</g>
		</g>
		<g>
			<g>
				<g>
					<g>
						<g>
							<g>
								<g>
									<path style="fill:#EBEBEB;" d="M270.205,185.153c-15.203,44.941-28.961,85.611-38.934,115.091
										c-4.9,14.73-8.866,26.654-11.621,34.935c-1.333,4.112-2.371,7.312-3.087,9.522c-0.333,1.07-0.589,1.894-0.773,2.486
										c-0.168,0.562-0.245,0.853-0.226,0.859c0.018,0.006,0.132-0.273,0.334-0.824c0.207-0.584,0.496-1.397,0.872-2.454
										c0.752-2.199,1.841-5.382,3.24-9.472c2.761-8.279,6.737-20.2,11.649-34.926c9.696-29.569,23.072-70.363,37.853-115.441
										c14.737-45.067,28.149-85.858,38.041-115.328c4.943-14.736,9-26.645,11.869-34.853c1.434-4.105,2.571-7.284,3.37-9.431
										c0.8-2.147,1.262-3.26,1.346-3.233c0.085,0.027-0.213,1.194-0.86,3.39c-0.647,2.196-1.644,5.421-2.957,9.565
										c-2.626,8.288-6.519,20.249-11.4,35.005C299.164,99.558,285.437,140.246,270.205,185.153z"/>
								</g>
							</g>
						</g>
					</g>
				</g>
			</g>
		</g>
		<g>
			<g>
				<g>
					<g>
						<g>
							<g>
								<g>
									<path style="fill:#EBEBEB;" d="M280.211,189.345c-22.182,42.024-42.255,80.054-56.805,107.619
										c-7.19,13.786-13.011,24.947-17.052,32.696c-1.974,3.854-3.509,6.853-4.569,8.923c-0.5,1.006-0.885,1.78-1.161,2.334
										c-0.256,0.529-0.379,0.804-0.362,0.812c0.017,0.009,0.173-0.25,0.46-0.762c0.298-0.544,0.713-1.303,1.252-2.288
										c1.092-2.054,2.675-5.029,4.709-8.852c4.047-7.747,9.876-18.903,17.076-32.684c14.295-27.695,34.018-65.903,55.811-108.124
										c21.75-42.217,41.506-80.416,55.976-107.985c7.233-13.786,13.138-24.917,17.279-32.579c2.07-3.831,3.699-6.796,4.83-8.792
										c1.131-1.996,1.764-3.025,1.842-2.986c0.078,0.04-0.404,1.145-1.394,3.213c-0.991,2.068-2.491,5.097-4.45,8.985
										c-3.918,7.776-9.672,18.983-16.848,32.798C322.461,109.307,302.414,147.359,280.211,189.345z"/>
								</g>
							</g>
						</g>
					</g>
				</g>
			</g>
		</g>
		<g>
			<g>
				<g>
					<g>
						<g>
							<g>
								<g>
									<path style="fill:#EBEBEB;" d="M289.429,195.034c-28.571,38.088-54.426,72.555-73.167,97.538
										c-9.287,12.508-16.805,22.634-22.025,29.665c-2.56,3.502-4.553,6.227-5.928,8.109c-0.654,0.916-1.157,1.621-1.517,2.127
										c-0.337,0.483-0.501,0.736-0.486,0.747c0.015,0.011,0.21-0.22,0.575-0.682c0.38-0.491,0.911-1.177,1.599-2.067
										c1.405-1.86,3.44-4.555,6.054-8.018c5.226-7.028,12.751-17.148,22.047-29.65c18.51-25.151,44.046-59.849,72.264-98.191
										c28.174-38.345,53.743-73.029,72.406-98.028c9.329-12.501,16.927-22.585,22.231-29.514
										c2.653-3.465,4.731-6.142,6.165-7.939c1.434-1.798,2.222-2.716,2.293-2.665c0.07,0.051-0.58,1.069-1.886,2.959
										c-1.306,1.889-3.268,4.651-5.819,8.189c-5.102,7.076-12.562,17.259-21.839,29.798
										C343.847,122.494,318.016,156.988,289.429,195.034z"/>
								</g>
							</g>
						</g>
					</g>
				</g>
			</g>
		</g>
		<g>
			<g>
				<g>
					<g>
						<g>
							<g>
								<g>
									<path style="fill:#EBEBEB;" d="M297.634,202.07c-34.23,33.242-65.206,63.324-87.659,85.129
										c-11.147,10.931-20.17,19.78-26.437,25.925c-3.082,3.067-5.48,5.453-7.135,7.101c-0.79,0.804-1.399,1.424-1.834,1.868
										c-0.409,0.425-0.612,0.65-0.599,0.663c0.013,0.013,0.242-0.185,0.676-0.586c0.453-0.427,1.085-1.023,1.906-1.797
										c1.681-1.622,4.116-3.972,7.245-6.992c6.27-6.141,15.3-14.984,26.454-25.908c22.251-22.005,52.949-52.364,86.872-85.911
										c33.88-33.556,64.608-63.895,86.986-85.727c11.187-10.918,20.283-19.714,26.616-25.745
										c3.167-3.016,5.642-5.341,7.342-6.897c1.699-1.556,2.623-2.342,2.684-2.281c0.062,0.061-0.742,0.967-2.33,2.633
										c-1.588,1.666-3.962,4.093-7.04,7.196c-6.156,6.207-15.132,15.122-26.273,26.085
										C362.83,138.758,331.873,168.87,297.634,202.07z"/>
								</g>
							</g>
						</g>
					</g>
				</g>
			</g>
		</g>
		<g>
			<g>
				<g>
					<g>
						<g>
							<g>
								<g>
									<path style="fill:#EBEBEB;" d="M304.629,210.276c-39.057,27.587-74.401,52.552-100.02,70.647
										c-12.735,9.088-23.044,16.446-30.204,21.555c-3.528,2.557-6.273,4.546-8.168,5.92c-0.908,0.674-1.606,1.192-2.107,1.564
										c-0.47,0.357-0.706,0.548-0.695,0.563c0.011,0.015,0.268-0.146,0.76-0.475c0.515-0.352,1.233-0.844,2.166-1.483
										c1.917-1.345,4.692-3.292,8.26-5.795c7.163-5.104,17.477-12.455,30.219-21.534c25.451-18.325,60.564-43.605,99.364-71.542
										c38.759-27.952,73.898-53.209,99.448-71.343c12.773-9.069,23.145-16.363,30.352-21.349c3.604-2.494,6.416-4.411,8.34-5.687
										c1.924-1.276,2.961-1.911,3.012-1.841c0.051,0.07-0.885,0.842-2.717,2.244c-1.832,1.402-4.559,3.436-8.089,6.029
										c-7.06,5.188-17.332,12.617-30.067,21.738C379.017,157.735,343.687,182.733,304.629,210.276z"/>
								</g>
							</g>
						</g>
					</g>
				</g>
			</g>
		</g>
		<g>
			<g>
				<g>
					<g>
						<g>
							<g>
								<g>
									<path style="fill:#EBEBEB;" d="M310.241,219.457c-42.95,21.225-81.818,40.432-109.991,54.355
										c-14.019,7.014-25.368,12.691-33.249,16.634c-3.889,1.982-6.916,3.524-9.005,4.589c-1.003,0.526-1.775,0.93-2.328,1.22
										c-0.522,0.281-0.785,0.433-0.776,0.449c0.009,0.017,0.288-0.102,0.826-0.351c0.564-0.269,1.352-0.643,2.375-1.13
										c2.106-1.032,5.157-2.528,9.077-4.45c7.884-3.937,19.237-9.606,33.261-16.61c28.043-14.176,66.731-33.733,109.483-55.345
										c42.713-21.634,81.423-41.164,109.533-55.136c14.054-6.989,25.455-12.593,33.364-16.406c3.955-1.907,7.036-3.367,9.14-4.33
										c2.103-0.963,3.228-1.43,3.267-1.353c0.04,0.078-1.007,0.696-3.038,1.799c-2.031,1.103-5.047,2.691-8.945,4.709
										c-7.795,4.036-19.119,9.79-33.143,16.836C392.045,179.034,353.186,198.276,310.241,219.457z"/>
								</g>
							</g>
						</g>
					</g>
				</g>
			</g>
		</g>
		<g>
			<g>
				<g>
					<g>
						<g>
							<g>
								<g>
									<path style="fill:#EBEBEB;" d="M314.323,229.394c-45.802,14.296-87.25,27.233-117.294,36.611
										c-14.963,4.752-27.077,8.598-35.488,11.269c-4.157,1.354-7.392,2.408-9.625,3.135c-1.074,0.364-1.901,0.644-2.494,0.844
										c-0.559,0.196-0.843,0.306-0.837,0.324c0.006,0.018,0.301-0.056,0.872-0.218c0.6-0.178,1.437-0.425,2.525-0.747
										c2.245-0.693,5.496-1.696,9.674-2.985c8.414-2.664,20.53-6.502,35.497-11.242c29.955-9.649,71.281-22.962,116.948-37.672
										c45.632-14.739,86.976-28.021,116.965-37.457c14.994-4.721,27.146-8.487,35.566-11.025c4.21-1.269,7.486-2.233,9.717-2.858
										c2.231-0.625,3.415-0.911,3.443-0.828c0.027,0.083-1.106,0.531-3.287,1.306c-2.182,0.774-5.414,1.875-9.585,3.263
										c-8.342,2.777-20.443,6.703-35.416,11.485C401.558,202.168,360.113,215.14,314.323,229.394z"/>
								</g>
							</g>
						</g>
					</g>
				</g>
			</g>
		</g>
		<g>
			<g>
				<g>
					<g>
						<g>
							<g>
								<g>
									<path style="fill:#EBEBEB;" d="M316.768,239.843c-47.512,7.012-90.508,13.357-121.674,17.956
										c-15.535,2.37-28.111,4.289-36.844,5.621c-4.321,0.692-7.684,1.23-10.006,1.602c-1.119,0.192-1.98,0.34-2.597,0.447
										c-0.584,0.107-0.882,0.171-0.879,0.189c0.003,0.019,0.306-0.009,0.896-0.081c0.621-0.082,1.488-0.197,2.613-0.346
										c2.327-0.336,5.698-0.823,10.03-1.448c8.734-1.326,21.312-3.236,36.848-5.594c31.122-4.88,74.057-11.613,121.502-19.052
										c47.415-7.473,90.364-14.172,121.485-18.838c15.56-2.336,28.162-4.168,36.882-5.369c4.36-0.601,7.749-1.044,10.052-1.315
										c2.303-0.271,3.518-0.371,3.532-0.285c0.014,0.086-1.176,0.353-3.455,0.778c-2.278,0.426-5.645,1.011-9.986,1.734
										c-8.681,1.447-21.258,3.446-36.808,5.845C407.26,226.492,364.261,232.872,316.768,239.843z"/>
								</g>
							</g>
						</g>
					</g>
				</g>
			</g>
		</g>
	</g>
	<g>
		<path style="fill:#E0E0E0;" d="M378.885,371.399c-5.658-6.658-13.484-10.667-18.923-12.197c-5.093-1.434-12.814-2.74-20.675-0.823
			c-4.882,1.191-9.158,3.491-12.708,6.838c-4.205,3.964-7.416,9.43-9.543,16.246c-0.319,1.023-0.213,2.105,0.299,3.049
			c0.514,0.948,1.369,1.632,2.408,1.924l13.354,3.759c1.884,0.53,3.9-0.42,4.688-2.21c1.771-4.021,6.241-10.373,16.283-7.732
			c7.652,2.016,9.24,8.408,9.568,11.065c0.535,4.323-1.168,8.793-4.554,11.955c-5.203,4.858-11.992,3.915-15.576,2.921
			c-4.122-1.144-8.412,1.256-9.564,5.349l-4.045,14.37c-0.591,2.099,0.636,4.286,2.735,4.877l13.011,3.662
			c2.099,0.591,4.286-0.636,4.877-2.735l0.85-3.019c0.02-0.072,0.083-0.122,0.16-0.127c3.239-0.205,9.655-1.095,16.241-4.763
			c8.408-4.682,14.111-12.175,16.953-22.269C388.791,387.094,383.793,377.175,378.885,371.399z"/>
		<path style="fill:#E0E0E0;" d="M338.767,436.421l-1.138-0.32c-5.441-1.532-11.115,1.649-12.646,7.091s1.649,11.115,7.091,12.646
			l1.138,0.32c5.441,1.532,11.115-1.649,12.646-7.091S344.209,437.953,338.767,436.421z"/>
	</g>
	<g>
		<path style="fill:#F5F5F5;" d="M407.562,291.81c-3.929-2.152-8.412-2.637-11.297-2.374c-2.702,0.247-6.639,1.036-10.052,3.394
			c-2.12,1.465-3.746,3.35-4.833,5.603c-1.287,2.669-1.823,5.875-1.593,9.528c0.035,0.548,0.284,1.047,0.702,1.405
			c0.42,0.36,0.955,0.53,1.506,0.48l7.084-0.647c1-0.091,1.791-0.915,1.84-1.917c0.111-2.25,1.088-6.111,6.381-6.686
			c4.034-0.437,5.965,2.333,6.609,3.545c1.048,1.972,1.052,4.424,0.01,6.559c-1.601,3.28-5.025,4.072-6.924,4.253
			c-2.183,0.207-3.798,2.143-3.6,4.314l0.696,7.623c0.102,1.113,1.09,1.936,2.203,1.835l6.902-0.63
			c1.113-0.102,1.936-1.09,1.834-2.203l-0.146-1.602c-0.004-0.038,0.017-0.074,0.053-0.09c1.513-0.691,4.423-2.294,6.905-5.257
			c3.168-3.783,4.527-8.416,4.038-13.77C415.181,297.51,410.971,293.677,407.562,291.81z"/>
		<path style="fill:#F5F5F5;" d="M400.265,330.298l-0.604,0.055c-2.886,0.264-5.02,2.826-4.757,5.713
			c0.264,2.887,2.826,5.02,5.713,4.757l0.604-0.055c2.886-0.264,5.02-2.826,4.757-5.713
			C405.714,332.168,403.151,330.034,400.265,330.298z"/>
	</g>
	<g>
		<path style="fill:#F5F5F5;" d="M123.88,129.071c-2.662-2.623-6.148-4.034-8.523-4.481c-2.224-0.418-5.563-0.683-8.839,0.431
			c-2.035,0.692-3.77,1.834-5.156,3.394c-1.642,1.848-2.803,4.298-3.451,7.282c-0.097,0.448-0.011,0.905,0.243,1.288
			c0.255,0.385,0.645,0.643,1.099,0.729l5.832,1.096c0.823,0.155,1.646-0.326,1.914-1.119c0.602-1.78,2.267-4.655,6.645-3.91
			c3.336,0.57,4.254,3.233,4.495,4.352c0.391,1.822-0.165,3.79-1.488,5.265c-2.033,2.267-4.961,2.122-6.526,1.833
			c-1.799-0.331-3.536,0.853-3.872,2.641l-1.18,6.275c-0.172,0.916,0.433,1.802,1.349,1.974l5.682,1.068
			c0.916,0.172,1.802-0.433,1.974-1.349l0.248-1.318c0.006-0.032,0.031-0.055,0.063-0.06c1.372-0.21,4.072-0.832,6.739-2.643
			c3.405-2.313,5.552-5.72,6.38-10.128C128.694,135.382,126.19,131.346,123.88,129.071z"/>
		<path style="fill:#F5F5F5;" d="M109.248,158.289l-0.497-0.093c-2.376-0.447-4.673,1.123-5.12,3.499
			c-0.447,2.376,1.123,4.673,3.499,5.12l0.497,0.093c2.376,0.447,4.673-1.123,5.12-3.499
			C113.193,161.033,111.624,158.736,109.248,158.289z"/>
	</g>
	<g>
		<path style="fill:#EBEBEB;" d="M397.009,131.075c-3.921-2.167-8.401-2.67-11.287-2.418c-2.703,0.236-6.643,1.009-10.065,3.354
			c-2.126,1.456-3.759,3.335-4.855,5.584c-1.298,2.664-1.847,5.867-1.631,9.522c0.032,0.548,0.28,1.048,0.696,1.408
			c0.419,0.362,0.953,0.534,1.504,0.486l7.086-0.619c1-0.087,1.794-0.908,1.848-1.91c0.12-2.25,1.112-6.106,6.407-6.661
			c4.036-0.421,5.956,2.357,6.595,3.572c1.04,1.976,1.034,4.429-0.016,6.559c-1.614,3.274-5.041,4.052-6.941,4.225
			c-2.184,0.199-3.807,2.128-3.617,4.3l0.666,7.625c0.097,1.114,1.082,1.94,2.196,1.843l6.904-0.603
			c1.114-0.097,1.94-1.082,1.843-2.196l-0.14-1.602c-0.003-0.038,0.018-0.074,0.054-0.09c1.516-0.685,4.432-2.276,6.926-5.229
			c3.183-3.77,4.56-8.398,4.092-13.754C404.606,136.806,400.41,132.955,397.009,131.075z"/>
		<path style="fill:#EBEBEB;" d="M389.559,169.534l-0.604,0.053c-2.887,0.252-5.031,2.806-4.779,5.694
			c0.252,2.888,2.806,5.032,5.694,4.779l0.604-0.053c2.887-0.252,5.031-2.806,4.779-5.694
			C395.001,171.426,392.447,169.282,389.559,169.534z"/>
	</g>
	<g>
		<path style="fill:#EBEBEB;" d="M183.956,361.509c-4.907-2.311-10.36-2.567-13.826-2.036c-3.247,0.497-7.946,1.741-11.897,4.843
			c-2.454,1.926-4.28,4.324-5.427,7.127c-1.359,3.32-1.771,7.234-1.223,11.632c0.082,0.66,0.42,1.245,0.952,1.647
			c0.534,0.404,1.193,0.571,1.855,0.469l8.513-1.304c1.201-0.184,2.096-1.238,2.083-2.452c-0.031-2.727,0.865-7.465,7.219-8.55
			c4.843-0.825,7.381,2.38,8.249,3.798c1.412,2.306,1.597,5.269,0.495,7.926c-1.693,4.082-5.773,5.292-8.054,5.65
			c-2.623,0.412-4.432,2.869-4.033,5.479l1.403,9.16c0.205,1.338,1.46,2.259,2.798,2.055l8.294-1.27
			c1.338-0.205,2.259-1.46,2.055-2.798l-0.295-1.925c-0.007-0.046,0.016-0.091,0.058-0.113c1.778-0.947,5.176-3.098,7.957-6.862
			c3.55-4.805,4.85-10.504,3.865-16.939C193.584,367.837,188.213,363.514,183.956,361.509z"/>
		<path style="fill:#EBEBEB;" d="M177.974,408.559l-0.726,0.111c-3.469,0.531-5.859,3.786-5.327,7.254s3.786,5.859,7.254,5.327
			l0.726-0.111c3.469-0.531,5.859-3.785,5.327-7.254C184.697,410.418,181.442,408.028,177.974,408.559z"/>
	</g>
	<g>
		<path style="fill:#EBEBEB;" d="M109.308,188.164c-6.9-3.234-14.561-3.581-19.431-2.826c-4.56,0.707-11.16,2.466-16.703,6.833
			c-3.443,2.713-6.002,6.086-7.607,10.027c-1.901,4.668-2.469,10.168-1.689,16.346c0.117,0.927,0.593,1.748,1.341,2.311
			c0.751,0.566,1.677,0.799,2.607,0.655l11.957-1.853c1.687-0.261,2.942-1.745,2.92-3.451c-0.051-3.832,1.196-10.49,10.12-12.031
			c6.802-1.171,10.376,3.326,11.599,5.315c1.99,3.237,2.257,7.399,0.716,11.135c-2.369,5.739-8.097,7.449-11.302,7.958
			c-3.685,0.585-6.22,4.042-5.652,7.708l1.994,12.867c0.291,1.879,2.057,3.171,3.936,2.88l11.65-1.805
			c1.879-0.291,3.171-2.057,2.88-3.936l-0.419-2.703c-0.01-0.065,0.022-0.127,0.081-0.159c2.496-1.335,7.264-4.365,11.162-9.66
			c4.976-6.76,6.788-14.77,5.388-23.808C122.851,197.03,115.294,190.97,109.308,188.164z"/>
		<path style="fill:#EBEBEB;" d="M101.021,254.282l-1.019,0.158c-4.872,0.755-8.222,5.333-7.467,10.205s5.333,8.222,10.205,7.467
			l1.019-0.158c4.872-0.755,8.222-5.333,7.467-10.205S105.893,253.527,101.021,254.282z"/>
	</g>
</g>
<g id="Background_Simple" style="display:none;">
	<path style="display:inline;fill:#F5F5F5;" d="M74.2,295.627l1.406-1.095c11.85-9.233,27.772-11.459,41.323-5.3
		c1.742,0.792,3.427,1.709,5.038,2.752c11.597,7.504,18.95,21.229,18.853,35.188c-0.057,8.209-2.458,16.773,0.452,24.413
		c3.788,9.944,14.927,14.448,24.916,17.895c9.989,3.447,21.124,7.983,24.869,17.944c2.345,6.238,1.129,13.378-1.583,19.507
		c-7.179,16.225-24.35,26.643-41.824,28.421c-17.474,1.778-35.003-4.135-49.832-13.481c-20.774-13.093-37.433-33.687-42.976-57.816
		C49.298,339.923,56.013,312.476,74.2,295.627z"/>
	<path style="display:inline;fill:#F5F5F5;" d="M442.303,182.327l-1.331,1.185c-11.223,9.986-26.966,13.245-40.889,7.982
		c-1.79-0.677-3.531-1.482-5.207-2.417c-12.061-6.732-20.294-19.949-21.107-33.884c-0.478-8.195,1.36-16.897-2.043-24.332
		c-4.428-9.676-15.837-13.444-26.03-16.232c-10.192-2.789-21.6-6.589-25.986-16.284c-2.747-6.072-1.999-13.276,0.308-19.568
		c6.106-16.658,22.561-28.173,39.882-31.087c17.321-2.913,35.198,1.844,50.605,10.204c21.583,11.711,39.549,31.175,46.654,54.892
		C464.264,136.501,459.354,164.327,442.303,182.327z"/>
	<circle style="display:inline;fill:#F5F5F5;" cx="89.664" cy="232.819" r="32.964"/>
	<circle style="display:inline;fill:#F5F5F5;" cx="420.832" cy="260.076" r="32.964"/>
</g>
<g id="Speech_Bubble">
	<g>
		<g>
			<g>
				<g>
					<g>
						<g>
							<g>
								<g>
									<g>
										<path style="fill:#FFFFFF;" d="M277.718,106.669l9.013,1.502c4.431,5.296,10.496,9.349,17.771,11.285
											c17.158,4.566,35.311-4.855,41.489-21.5c7.139-19.233-3.763-40.472-23.74-45.774
											c-16.959-4.501-34.903,4.634-41.265,20.986c-3.157,8.115-3.065,16.614-0.42,24.148l-0.011-0.016L277.718,106.669z"/>
										<g>
											<path style="fill:#263238;" d="M277.718,106.669c0,0,0.046-0.196,0.16-0.596c0.121-0.421,0.293-1.017,0.516-1.791
												c0.473-1.614,1.164-3.968,2.057-7.012l0.062-0.211l0.126,0.181l0.011,0.016l-0.187,0.095
												c-1.44-4.07-2.666-9.876-1.642-16.725c0.497-3.408,1.59-7.015,3.352-10.593c1.791-3.56,4.343-7.036,7.644-10.05
												c3.311-2.996,7.382-5.501,11.988-7.133c4.595-1.622,9.739-2.433,14.964-1.874c5.215,0.513,10.476,2.25,15.19,5.156
												c4.738,2.879,8.783,7.097,11.68,12.081c1.532,2.49,2.555,5.22,3.429,7.941c0.199,0.687,0.328,1.391,0.495,2.083
												c0.136,0.698,0.363,1.378,0.422,2.086c0.085,0.703,0.17,1.404,0.255,2.103l0.121,1.047l0.017,1.051
												c0.204,5.6-0.993,11.068-3.166,15.89c-2.156,4.85-5.499,8.915-9.253,12.085c-3.775,3.17-8.04,5.417-12.335,6.75
												c-4.305,1.319-8.624,1.745-12.62,1.472c-0.995-0.116-1.973-0.23-2.935-0.342c-0.958-0.135-1.879-0.388-2.794-0.571
												c-1.825-0.396-3.529-0.996-5.127-1.641c-6.417-2.635-10.769-6.648-13.497-9.929l0.062,0.035
												c-2.903-0.51-5.159-0.906-6.71-1.179c-0.742-0.134-1.312-0.237-1.718-0.31
												C277.902,106.712,277.718,106.669,277.718,106.669s0.215,0.024,0.612,0.083c0.414,0.063,0.995,0.152,1.75,0.268
												c1.541,0.243,3.782,0.596,6.667,1.05l0.037,0.006l0.025,0.03c2.748,3.233,7.095,7.179,13.465,9.753
												c1.586,0.63,3.276,1.216,5.085,1.599c0.907,0.176,1.819,0.423,2.767,0.552c0.952,0.107,1.92,0.215,2.904,0.326
												c3.952,0.253,8.218-0.184,12.466-1.5c4.238-1.33,8.443-3.56,12.16-6.697c3.697-3.136,6.986-7.149,9.103-11.932
												c2.135-4.756,3.309-10.147,3.103-15.663l-0.017-1.036l-0.12-1.032c-0.084-0.688-0.168-1.379-0.252-2.071
												c-0.058-0.697-0.284-1.367-0.418-2.054c-0.165-0.681-0.292-1.375-0.488-2.052c-0.863-2.68-1.869-5.369-3.38-7.822
												c-2.854-4.91-6.836-9.067-11.502-11.906c-4.642-2.866-9.827-4.584-14.965-5.097c-5.148-0.559-10.222,0.232-14.759,1.822
												c-4.548,1.6-8.574,4.062-11.853,7.011c-3.269,2.967-5.803,6.392-7.588,9.904c-1.757,3.53-2.857,7.096-3.367,10.468
												c-1.051,6.776,0.121,12.544,1.509,16.604l0.253,0.741l-0.44-0.646l-0.011-0.016l0.188-0.029
												c-0.936,3.002-1.66,5.323-2.157,6.914c-0.247,0.78-0.436,1.378-0.571,1.802
												C277.796,106.453,277.718,106.669,277.718,106.669z"/>
										</g>
									</g>
								</g>
							</g>
						</g>
					</g>
				</g>
			</g>
		</g>
		<g>
			<path style="fill:#FF725E;" d="M320.761,69.774c-2.667-1.768-5.828-2.382-7.897-2.368c-1.937,0.013-4.787,0.338-7.357,1.811
				c-1.597,0.915-2.867,2.159-3.776,3.697c-1.077,1.822-1.651,4.071-1.706,6.685c-0.008,0.392,0.139,0.762,0.415,1.042
				c0.277,0.281,0.648,0.435,1.043,0.432l5.08-0.035c0.717-0.005,1.329-0.544,1.425-1.254c0.214-1.595,1.142-4.283,4.943-4.375
				c2.897-0.068,4.105,2.019,4.491,2.92c0.627,1.467,0.483,3.212-0.387,4.669c-1.337,2.238-3.821,2.596-5.183,2.61
				c-1.566,0.016-2.832,1.297-2.821,2.854l0.037,5.467c0.005,0.798,0.659,1.443,1.458,1.438l4.95-0.034
				c0.798-0.005,1.443-0.659,1.438-1.458l-0.008-1.149c0-0.028,0.017-0.052,0.043-0.061c1.119-0.401,3.285-1.366,5.23-3.326
				c2.482-2.502,3.727-5.717,3.701-9.557C325.84,74.289,323.074,71.307,320.761,69.774z"/>
			<path style="fill:#FF725E;" d="M313.254,96.726l-0.433,0.003c-2.07,0.014-3.743,1.71-3.729,3.78s1.71,3.743,3.78,3.729
				l0.433-0.003c2.07-0.014,3.743-1.71,3.729-3.78S315.324,96.712,313.254,96.726z"/>
		</g>
	</g>
</g>
<g id="Character">
	<g>
		<path style="fill:#FF725E;" d="M327.049,151.747c-23.611-15.881-51.684-21.539-70.083-21.539
			c-17.231,0-42.589,2.718-65.541,15.664c-14.254,8.041-25.627,19.026-33.804,32.651c-9.685,16.138-14.927,36.106-15.58,59.351
			c-0.098,3.487,1.19,6.787,3.628,9.294c2.449,2.519,5.732,3.906,9.246,3.906h45.181c6.375,0,11.856-4.757,12.747-11.064
			c2.004-14.168,10.413-38.024,44.224-38.607c25.757-0.442,36.385,18.204,39.759,26.243c5.491,13.081,4.099,28.594-3.726,41.496
			c-12.023,19.822-34.14,22.857-46.253,22.901c-13.93,0.051-25.264,11.36-25.264,25.209v48.618c0,7.1,5.776,12.876,12.876,12.876
			h44.02c7.1,0,12.876-5.776,12.876-12.876v-10.215c0-0.245,0.153-0.457,0.389-0.54c9.972-3.499,29.301-11.953,46.711-29.263
			c22.226-22.097,33.495-50.618,33.495-84.769C371.951,192.207,347.533,165.525,327.049,151.747z"/>
		<path style="fill:#263238;" d="M255.362,401.425h3.553c17.482,0,31.705,14.223,31.705,31.705
			c0,17.482-14.223,31.705-31.705,31.705h-3.553c-17.482,0-31.705-14.223-31.705-31.705
			C223.657,415.647,237.88,401.425,255.362,401.425z"/>
		<g>
			<path style="fill:#263238;" d="M234.29,388.147h44.002c7.097,0,12.871-5.593,12.871-12.468v-19.877
				c0-0.237,0.153-0.443,0.389-0.523c5.201-1.768,12.478-5.01,20.711-10.071c-28.114-0.197-79.359-0.484-90.845-0.065v30.536
				C221.419,382.554,227.193,388.147,234.29,388.147z"/>
			<g>
				<g>
					<g>
						<g>
							<g>
								<g>
									<g>
										<g>
											<g>
												<g>
													<path style="fill:#FFBF9D;" d="M270.531,167.901l-28.237-82.001c-5.963-20.532-22.882-34.175-43.241-27.645
														l-1.846,0.713c-18.579,7.178-28.54,27.416-22.878,46.512c5.267,17.767,11.315,37.33,15.001,46.53
														c7.63,19.045,27.605,13.699,27.605,13.699c0.044-0.015,4.446,12.694,6.371,18.399l10.342,10.219l4.272-4.667
														L270.531,167.901z"/>
												</g>
											</g>
										</g>
									</g>
								</g>
							</g>
						</g>
					</g>
					<g>
						<g>
							<g>
								<g>
									<g>
										<g>
											<g>
												<g>
													<g>
														<path style="fill:#FF9A6C;" d="M216.934,165.709c0,0,12.335-3.952,22.07-16.993c0,0-0.436,16.703-20.197,22.357
															L216.934,165.709z"/>
													</g>
												</g>
											</g>
										</g>
									</g>
								</g>
							</g>
						</g>
					</g>
					<g>
						<g>
							<g>
								<g>
									<g>
										<g>
											<g>
												<g>
													<g>
														<g>
															<g>
																<g>
																	<g>
																		<g>
																			<g>
																				<path style="fill:#263238;" d="M188.144,118.429c0.506,1.463,2.163,2.24,3.7,1.739
																					c1.534-0.5,2.371-2.089,1.865-3.552c-0.506-1.463-2.163-2.242-3.698-1.742
																					C188.474,115.374,187.638,116.966,188.144,118.429z"/>
																			</g>
																		</g>
																	</g>
																</g>
															</g>
														</g>
													</g>
												</g>
											</g>
										</g>
									</g>
								</g>
							</g>
						</g>
					</g>
					<g>
						<g>
							<g>
								<g>
									<g>
										<g>
											<g>
												<g>
													<g>
														<g>
															<g>
																<g>
																	<g>
																		<g>
																			<g>
																				<g>
																					<path style="fill:#263238;" d="M181.348,111.431c0.476,0.225,1.954-2.107,4.899-3.235
																						c2.924-1.17,5.667-0.49,5.846-0.974c0.095-0.22-0.498-0.73-1.702-1.051c-1.188-0.323-3.022-0.377-4.851,0.339
																						c-1.828,0.718-3.108,1.987-3.727,3.02C181.177,110.573,181.119,111.336,181.348,111.431z"/>
																				</g>
																			</g>
																		</g>
																	</g>
																</g>
															</g>
														</g>
													</g>
												</g>
											</g>
										</g>
									</g>
								</g>
							</g>
						</g>
					</g>
					<g>
						<g>
							<g>
								<g>
									<g>
										<g>
											<g>
												<g>
													<g>
														<g>
															<g>
																<g>
																	<g>
																		<g>
																			<g>
																				<g>
																					<path style="fill:#263238;" d="M212.732,108.679c0.477,0.225,1.959-2.107,4.9-3.235
																						c2.924-1.169,5.667-0.49,5.847-0.974c0.094-0.22-0.495-0.73-1.703-1.05c-1.188-0.324-3.022-0.377-4.851,0.338
																						c-1.828,0.719-3.108,1.988-3.728,3.02C212.564,107.821,212.505,108.584,212.732,108.679z"/>
																				</g>
																			</g>
																		</g>
																	</g>
																</g>
															</g>
														</g>
													</g>
												</g>
											</g>
										</g>
									</g>
								</g>
							</g>
						</g>
					</g>
					<g>
						<g>
							<g>
								<g>
									<g>
										<g>
											<g>
												<g>
													<g>
														<g>
															<g>
																<g>
																	<g>
																		<g>
																			<g>
																				<path style="fill:#263238;" d="M208.619,127.648c-0.051-0.172-2.001,0.218-5.109,0.983
																					c-0.781,0.213-1.549,0.339-1.874-0.125c-0.386-0.474-0.385-1.405-0.359-2.42
																					c0.004-2.09,0.007-4.281,0.011-6.576c-0.061-9.333-0.415-16.889-0.791-16.884
																					c-0.376,0.007-0.631,7.575-0.57,16.908c0.034,2.295,0.063,4.482,0.095,6.574
																					c0.046,0.963-0.069,2.12,0.749,3.098c0.419,0.483,1.128,0.677,1.659,0.621c0.539-0.039,0.964-0.194,1.344-0.315
																					C206.818,128.521,208.672,127.82,208.619,127.648z"/>
																			</g>
																		</g>
																	</g>
																</g>
															</g>
														</g>
													</g>
												</g>
											</g>
										</g>
									</g>
								</g>
							</g>
						</g>
					</g>
					<g>
						<g>
							<g>
								<g>
									<g>
										<g>
											<g>
												<g>
													<g>
														<g>
															<g>
																<path style="fill:#263238;" d="M205.932,92.145c0.69,0.596,3.238-1.296,6.683-2.712
																	c3.417-1.487,6.549-1.998,6.602-2.908c0.011-0.428-0.836-0.878-2.294-1.013c-1.447-0.14-3.496,0.104-5.555,0.973
																	c-2.056,0.872-3.658,2.173-4.566,3.309C205.884,90.934,205.616,91.855,205.932,92.145z"/>
															</g>
														</g>
													</g>
												</g>
											</g>
										</g>
									</g>
								</g>
							</g>
						</g>
					</g>
					<g>
						<g>
							<g>
								<g>
									<g>
										<g>
											<g>
												<g>
													<g>
														<g>
															<g>
																<path style="fill:#263238;" d="M177.872,102.837c0.863,0.444,3.013-1.142,5.897-2.244
																	c2.85-1.187,5.514-1.523,5.819-2.435c0.121-0.432-0.513-0.962-1.819-1.203c-1.29-0.244-3.247-0.109-5.218,0.676
																	c-1.97,0.788-3.469,2.034-4.222,3.093C177.561,101.793,177.48,102.609,177.872,102.837z"/>
															</g>
														</g>
													</g>
												</g>
											</g>
										</g>
									</g>
								</g>
							</g>
						</g>
					</g>
					<g>
						<g>
							<g>
								<g>
									<g>
										<g>
											<g>
												<path style="fill:#FFBF9D;" d="M245.891,99.746c0.271-0.267,11.646-8.969,16.283,4.275
													c4.636,13.244-9.616,15.167-9.773,14.796C252.246,118.445,245.891,99.746,245.891,99.746z"/>
											</g>
										</g>
									</g>
								</g>
							</g>
						</g>
					</g>
					<g>
						<g>
							<g>
								<g>
									<g>
										<g>
											<g>
												<g>
													<path style="fill:#FF9A6C;" d="M254.691,112.383c0.043-0.063,0.287,0.08,0.74,0.123
														c0.441,0.041,1.137-0.068,1.737-0.569c1.219-1.003,1.62-3.637,0.848-6.047c-0.388-1.217-1.043-2.276-1.802-3.077
														c-0.744-0.827-1.607-1.285-2.356-1.163c-0.758,0.084-1.109,0.68-1.14,1.109c-0.048,0.432,0.129,0.667,0.066,0.715
														c-0.025,0.046-0.362-0.123-0.447-0.707c-0.037-0.283,0.008-0.649,0.231-1.012c0.227-0.37,0.648-0.665,1.157-0.784
														c1.046-0.287,2.294,0.331,3.129,1.209c0.892,0.864,1.656,2.045,2.092,3.412c0.849,2.698,0.358,5.674-1.363,6.898
														c-0.847,0.57-1.722,0.56-2.233,0.388C254.826,112.694,254.653,112.423,254.691,112.383z"/>
												</g>
											</g>
										</g>
									</g>
								</g>
							</g>
						</g>
					</g>
					<g>
						<g>
							<g>
								<g>
									<g>
										<g>
											<g>
												<g>
													<g>
														<path style="fill:#263238;" d="M218.615,126.313c-0.467,0.127,0.55,3.184-1.34,6.228
															c-1.883,3.05-5.255,3.796-5.136,4.232c0.022,0.206,0.924,0.351,2.312-0.072c1.364-0.405,3.188-1.497,4.345-3.359
															c1.15-1.865,1.242-3.869,0.928-5.157C219.412,126.869,218.818,126.226,218.615,126.313z"/>
													</g>
												</g>
											</g>
										</g>
									</g>
								</g>
							</g>
						</g>
					</g>
				</g>
				<g>
					<g>
						<g>
							<g>
								<g>
									<g>
										<path style="fill:#263238;" d="M141.26,96.179c-0.064-0.853,0.277-1.695,0.828-2.35c1.201-1.43,2.989-1.926,4.667-2.548
											c4.176-1.547,7.963-4.089,11.038-7.309c-1.538-0.202-3.041-0.576-4.441-1.245c-2.891-1.38-5.272-4.215-5.3-7.418
											c-0.005-0.601,0.109-1.273,0.592-1.631c0.767-0.567,1.817,0.012,2.652,0.471c2.747,1.508,4.901,1.812,7.737,0.479
											c1.761-0.828,3.386-1.861,4.507-3.261c0.036-0.08,0.064-0.164,0.101-0.243c0.438-0.953,0.871-1.868,1.302-2.757
											c0-0.003,0.002-0.005,0.002-0.008l-0.001,0.005c3.239-6.693,6.315-11.623,10.099-14.951
											c5.545-4.878,15.98-9.74,23.34-10.346c7.361-0.606,15.337,2.728,18.706,9.3c2.653-4.526,8.335-6.497,13.589-6.269
											l0.098-0.091c5.769,0.021,10.588,4.41,13.942,9.103c0.183,0.257,0.357,0.521,0.536,0.781
											c2.701,2.137,5.885,3.66,9.27,4.306c0.597,0.114,1.289,0.267,1.55,0.816c0.259,0.544-0.053,1.18-0.399,1.674
											c-0.919,1.313-2.146,2.395-3.54,3.185c0.906,1.077,1.881,2.09,2.968,3.003c0.924,0.776,2.024,1.707,1.878,2.904
											c-0.113,0.926-1,1.603-1.916,1.783c-0.915,0.179-1.857-0.031-2.766-0.239c1.054,1.167,2.107,2.335,3.161,3.502
											c-1.74,0.976-3.713,1.504-5.706,1.592c0.633,5.271,3.004,14.611,2.913,18.367c-3.491,1.299-4.479,1.218-6.045,2.431
											c-2.023,1.568,0.28,5.317-3.108,5.215c-1.725-0.052-6.083-4.985-7.137-6.353c-6.987-9.075-11.98-19.674-14.543-30.836
											c-2.92-1.515-6.134-2.461-9.409-2.771l0.302,0.126c-6.074,0.027-12.847,0.335-17.086,4.685
											c-3.288,3.374-4.173,8.332-5.989,12.679c-3.441,8.239-8.654,13.825-16.94,17.152c1.3,6.11,4.442,15.745,6.078,21.298
											l-8.501-9.273l0.012,0.045c-0.602-0.507-1.139-1.042-1.667-1.582l-0.172-0.16l-0.008-0.025
											c-0.842-0.869-1.662-1.748-2.626-2.561c-0.012,0.022-0.024,0.043-0.036,0.065c-2.036,3.647-7.793,1.196-6.582-2.802
											c0.24-0.793,0.595-1.549,1.064-2.236c-0.903,1.743-2.703,3.06-4.665,3.14c-1.962,0.08-3.967-1.228-4.463-3.128
											c-0.339-1.297,0.165-2.74,1.127-3.639c-2.321,1.024-4.945,1.365-7.443,0.911C143.191,98.866,141.402,98.058,141.26,96.179
											z"/>
									</g>
								</g>
							</g>
						</g>
					</g>
					<g>
						<g>
							<g>
								<g>
									<g>
										<path style="fill:#455A64;" d="M211.777,56.738c-0.021,0.064,0.992,0.226,2.569,1.092
											c1.564,0.864,3.594,2.612,5.239,5.384c0.827,1.374,1.602,2.964,2.229,4.748c0.636,1.781,1.166,3.742,1.739,5.803
											c0.579,2.059,1.184,4.236,2.093,6.403c0.454,1.081,0.983,2.158,1.618,3.197c0.632,1.017,1.344,2.113,2.512,2.769
											c0.936,0.539,2.166,0.492,3.057-0.044c0.908-0.512,1.587-1.331,1.97-2.256c0.734-1.893,0.395-3.848,0.131-5.582
											l-0.389,0.192c1.179,1.227,2.37,2.431,3.786,3.228c1.402,0.81,3.048,1.092,4.491,0.724
											c0.719-0.183,1.382-0.541,1.874-1.053c0.505-0.512,0.771-1.174,0.886-1.815c0.098-0.646,0.039-1.297-0.194-1.862
											c-0.235-0.563-0.652-1.03-1.153-1.287l-0.141,0.256c2.093,1.175,3.992,1.534,5.261,1.656
											c0.64,0.06,1.133,0.056,1.466,0.047c0.332-0.017,0.502-0.035,0.502-0.048c-0.001-0.015-0.173-0.023-0.502-0.033
											c-0.33-0.016-0.819-0.039-1.449-0.122c-1.249-0.168-3.106-0.568-5.132-1.752l-0.141,0.255
											c0.895,0.461,1.36,1.66,1.143,2.833c-0.113,0.581-0.361,1.174-0.81,1.615c-0.442,0.45-1.047,0.773-1.706,0.933
											c-1.329,0.325-2.866,0.057-4.185-0.718c-1.341-0.766-2.497-1.939-3.669-3.171l-0.497-0.523l0.108,0.716
											c0.263,1.733,0.556,3.62-0.119,5.332c-0.342,0.829-0.968,1.572-1.763,2.018c-0.791,0.463-1.786,0.499-2.598,0.04
											c-1.017-0.564-1.714-1.594-2.334-2.596c-0.62-1.013-1.141-2.066-1.59-3.129c-0.899-2.128-1.511-4.288-2.1-6.341
											c-0.584-2.057-1.13-4.021-1.791-5.819c-0.652-1.8-1.456-3.406-2.315-4.791c-1.708-2.793-3.819-4.543-5.438-5.369
											C212.801,56.836,211.777,56.738,211.777,56.738z"/>
									</g>
								</g>
							</g>
						</g>
					</g>
					<g>
						<g>
							<g>
								<g>
									<g>
										<path style="fill:#455A64;" d="M158.496,96.699c-0.003,0.007,0.066,0.034,0.202,0.077
											c0.164,0.049,0.364,0.109,0.608,0.182c0.267,0.084,0.601,0.174,1.006,0.237c0.402,0.074,0.865,0.173,1.397,0.205
											c2.1,0.221,5.284,0.054,8.817-1.43c3.502-1.46,7.344-4.236,10.169-8.436c2.89-4.146,4.841-9.442,5.964-15.114
											c0.583-2.842,0.883-5.651,1.367-8.317c0.475-2.665,1.14-5.208,2.251-7.422c1.088-2.216,2.594-4.1,4.388-5.354
											c0.887-0.644,1.863-1.063,2.824-1.376c0.973-0.286,1.947-0.412,2.877-0.432c1.867-0.028,3.539,0.42,4.895,1.009
											c1.363,0.596,2.407,1.365,3.185,2.065c1.508,1.47,1.96,2.596,2.023,2.552c0.008-0.004-0.022-0.07-0.087-0.198
											c-0.082-0.152-0.18-0.336-0.301-0.561c-0.277-0.485-0.766-1.158-1.506-1.928c-0.771-0.734-1.821-1.542-3.205-2.176
											c-1.377-0.626-3.084-1.11-5.008-1.103c-0.959,0.01-1.966,0.129-2.979,0.416c-0.999,0.313-2.025,0.746-2.947,1.405
											c-1.87,1.285-3.432,3.222-4.556,5.483c-1.149,2.262-1.833,4.852-2.317,7.536c-0.493,2.688-0.797,5.491-1.375,8.307
											c-1.114,5.63-3.033,10.862-5.858,14.957c-2.763,4.15-6.504,6.893-9.937,8.375c-3.459,1.5-6.587,1.717-8.668,1.556
											C159.626,97.045,158.511,96.631,158.496,96.699z"/>
									</g>
								</g>
							</g>
						</g>
					</g>
					<g>
						<g>
							<g>
								<g>
									<g>
										<path style="fill:#455A64;" d="M153.734,88.808c-0.006,0.033,0.301,0.116,0.865,0.239c0.562,0.133,1.394,0.249,2.425,0.32
											c1.032,0.079,2.27,0.057,3.634-0.078c1.361-0.159,2.847-0.445,4.359-0.915c1.508-0.487,2.887-1.109,4.092-1.762
											c1.193-0.676,2.217-1.369,3.016-2.028c0.802-0.652,1.415-1.225,1.798-1.658c0.391-0.426,0.594-0.67,0.57-0.693
											c-0.065-0.064-0.941,0.864-2.576,2.082c-0.813,0.616-1.838,1.267-3.02,1.908c-1.193,0.619-2.549,1.216-4.027,1.693
											c-1.482,0.46-2.934,0.753-4.266,0.934c-1.335,0.156-2.549,0.213-3.567,0.178C155,88.973,153.75,88.719,153.734,88.808z"/>
									</g>
								</g>
							</g>
						</g>
					</g>
				</g>
			</g>
			<path style="fill:#263238;" d="M190.002,227.426c-0.173,0.05,2.094,11.402,4.314,23.177h0.702
				C192.798,238.828,190.176,227.376,190.002,227.426z"/>
			<path style="fill:#455A64;" d="M199.583,251.172c6.418,0,12.326-4.624,13.223-10.922c2.017-14.148,10.09-38.095,44.124-38.677
				c25.927-0.442,36.839,17.91,39.896,26.072c4.853,12.957,4.25,28.685-3.626,41.568c-12.102,19.793-34.365,22.823-46.558,22.868
				c-14.022,0.051-25.43,11.343-25.43,25.172v52.863l70.234-1.321V355.6c0-0.245,0.154-0.456,0.392-0.539
				c8.555-2.978,22.119-8.623,37.381-20.93l-4.572-60.88c0,0,13.366-25.689,12.704-31.469c-6.052-52.803-24.01-82.681-31.309-85.468
				c-8.195-3.128-39.835-1.605-39.835-1.605s-13.665,25.319-32.836,28.124c-10.667,1.561-14.562-11.76-14.562-11.76L194.03,185.6
				c-17.635,8.895-21.057,43.503-21.381,65.572H199.583z"/>
			<g style="opacity:0.3;">
				<path d="M280.975,282.276c14.157,3.604,28.114,8.163,42.271,11.767c1.05,0.267,2.169,0.576,2.878,1.396
					c1.042,1.207,0.808,3.039,0.341,4.564c-1.489,4.867-4.701,9.073-8.524,12.432c-3.08,2.706-6.77,4.989-10.858,5.308
					c-4.552,0.355-8.928-1.756-12.777-4.212c-9.842-6.281-18.241-15.459-23.519-25.873c0,0,3.319-1.366,5.859-2.724
					C279.005,283.673,280.975,282.276,280.975,282.276z"/>
			</g>
			<path style="fill:#FFBF9D;" d="M296.536,228.012c5.661,13.062,4.225,28.552-3.841,41.435
				c-4.477,7.151-10.177,12.255-16.394,15.679c6.696,7.284,13.493,13.701,20.212,18.47c7.231,5.131,23.897,3.672,30.216-7.561
				c7.796-13.86,8.448-49.268,8.448-49.268c1.481-21.346,1.481-21.346,1.481-21.346l-43.597-6.678l-0.35,1.195
				C294.581,222.742,295.683,226.044,296.536,228.012z"/>
			<g>
				<g>
					<g>
						<g>
							<g>
								<g>
									<g>
										<g>
											<g>
												<g>
													<g>
														<g>
															<path style="fill:#455A64;" d="M220.621,219.042l-2.482,3.913c-1.887,1.302-3.683,0.587-4.849-1.832l-26.838-40.85
																l6.538-4.158l29.642,39.174C222.633,215.289,223.05,217.366,220.621,219.042z"/>
														</g>
													</g>
												</g>
											</g>
										</g>
									</g>
								</g>
							</g>
						</g>
					</g>
				</g>
			</g>
			<g>
				<g>
					<g>
						<g>
							<g>
								<g>
									<g>
										<g>
											<g>
												<g>
													<g>
														<g>
															<path style="fill:#263238;" d="M158.616,179.572c-5.254-2.965-9.661-7.538-12.388-13.415
																c-3.359-7.238-3.698-15.352-0.954-22.846c2.744-7.494,8.241-13.471,15.481-16.83
																c14.943-6.934,32.742-0.418,39.677,14.526l0,0c3.359,7.239,3.697,15.353,0.954,22.847
																c-2.744,7.494-8.241,13.47-15.48,16.83C176.839,184.89,166.72,184.146,158.616,179.572z M187.059,129.333
																c-7.562-4.268-17.002-4.962-25.462-1.037c-6.754,3.134-11.884,8.711-14.444,15.703
																c-2.56,6.992-2.244,14.563,0.89,21.317c3.134,6.755,8.71,11.884,15.703,14.444c6.992,2.56,14.562,2.244,21.317-0.89
																c6.754-3.134,11.884-8.711,14.443-15.703c2.561-6.992,2.244-14.562-0.89-21.317
																C196.073,136.367,191.96,132.099,187.059,129.333z"/>
														</g>
													</g>
												</g>
											</g>
										</g>
									</g>
								</g>
							</g>
						</g>
						<g>
							<g>
								<g>
									<g>
										<g>
											<g>
												<g>
													<g>
														<g>
															<path style="fill:#455A64;" d="M159.889,178.319c-5.254-2.965-9.661-7.538-12.388-13.415
																c-3.359-7.238-3.698-15.352-0.954-22.846c2.744-7.494,8.241-13.471,15.481-16.83
																c14.943-6.934,32.742-0.418,39.677,14.527l0,0c3.359,7.239,3.697,15.353,0.954,22.847
																c-2.743,7.494-8.241,13.471-15.48,16.83C178.111,183.637,167.992,182.893,159.889,178.319z M188.331,128.079
																c-7.562-4.268-17.002-4.962-25.462-1.037c-6.754,3.134-11.884,8.711-14.444,15.703
																c-2.56,6.992-2.244,14.563,0.89,21.317c3.134,6.755,8.71,11.884,15.703,14.444c6.992,2.56,14.562,2.244,21.317-0.89
																c6.754-3.134,11.884-8.711,14.443-15.703c2.56-6.992,2.244-14.563-0.89-21.317
																C197.345,135.113,193.233,130.845,188.331,128.079z"/>
														</g>
													</g>
												</g>
											</g>
										</g>
									</g>
								</g>
							</g>
						</g>
					</g>
				</g>
				<g>
					<g>
						<g>
							<path style="fill:#FFFFFF;" d="M199.452,152.748c-0.011,0-0.021-0.17-0.031-0.491c-0.024-0.321,0.014-0.795-0.057-1.401
								c-0.068-1.215-0.34-2.968-0.99-5.042c-0.319-1.039-0.772-2.142-1.308-3.302c-0.58-1.137-1.218-2.349-2.043-3.527
								c-0.805-1.188-1.73-2.386-2.806-3.52c-1.068-1.138-2.251-2.252-3.586-3.234c-1.328-0.989-2.725-1.813-4.136-2.483
								c-1.419-0.655-2.849-1.142-4.234-1.515c-2.786-0.701-5.395-0.894-7.564-0.767c-2.171,0.12-3.91,0.462-5.083,0.789
								c-0.595,0.134-1.036,0.311-1.347,0.392c-0.308,0.092-0.472,0.136-0.476,0.125c-0.004-0.01,0.152-0.074,0.454-0.186
								c0.305-0.101,0.742-0.298,1.335-0.451c1.168-0.365,2.914-0.744,5.104-0.895c2.188-0.157,4.827,0.013,7.65,0.707
								c1.404,0.37,2.855,0.857,4.294,1.517c1.431,0.675,2.85,1.509,4.196,2.511c1.351,0.994,2.547,2.123,3.623,3.277
								c1.085,1.149,2.015,2.363,2.822,3.569c0.827,1.194,1.463,2.423,2.038,3.577c0.531,1.176,0.976,2.295,1.285,3.349
								c0.628,2.103,0.868,3.878,0.898,5.102c0.053,0.611-0.006,1.088-0.003,1.41C199.474,152.58,199.463,152.748,199.452,152.748z"
								/>
						</g>
					</g>
				</g>
				<g>
					<g>
						<g>
							<path style="fill:#FFFFFF;" d="M168.276,177.068c0.021-0.074,1.385,0.434,3.686,0.748c0.289,0.035,0.591,0.071,0.904,0.109
								c0.314,0.035,0.645,0.036,0.985,0.057c0.68,0.055,1.409,0.019,2.174,0.004c1.529-0.091,3.202-0.323,4.913-0.772
								c1.706-0.472,3.269-1.113,4.637-1.802c0.669-0.372,1.317-0.707,1.878-1.096c0.283-0.189,0.569-0.355,0.823-0.544
								c0.252-0.19,0.494-0.373,0.727-0.548c1.831-1.428,2.756-2.552,2.811-2.499c0.017,0.014-0.215,0.29-0.651,0.779
								c-0.214,0.249-0.485,0.543-0.833,0.853c-0.343,0.313-0.715,0.695-1.186,1.045c-0.231,0.183-0.472,0.373-0.722,0.571
								c-0.253,0.196-0.538,0.37-0.822,0.566c-0.561,0.404-1.212,0.752-1.887,1.136c-1.378,0.713-2.961,1.372-4.69,1.85
								c-1.735,0.456-3.434,0.681-4.983,0.757c-0.776,0.007-1.514,0.033-2.202-0.034c-0.344-0.027-0.677-0.034-0.995-0.076
								c-0.316-0.045-0.62-0.089-0.911-0.131c-0.583-0.065-1.096-0.209-1.551-0.308c-0.456-0.093-0.839-0.211-1.149-0.319
								C168.608,177.211,168.269,177.089,168.276,177.068z"/>
						</g>
					</g>
				</g>
				<g>
					<g>
						<g>
							<path style="fill:#FFFFFF;" d="M188.832,157.933c-0.063,0.062-3.958-3.837-8.697-8.706c-4.741-4.871-8.532-8.868-8.469-8.93
								c0.063-0.062,3.957,3.836,8.698,8.707C185.104,153.873,188.895,157.872,188.832,157.933z"/>
						</g>
					</g>
				</g>
				<g>
					<g>
						<g>
							<path style="fill:#FFFFFF;" d="M184.234,165.759c-0.008,0.007-0.106-0.088-0.284-0.277c-0.198-0.216-0.452-0.492-0.766-0.835
								c-0.684-0.762-1.629-1.813-2.785-3.099c-2.348-2.619-5.602-6.227-9.239-10.173c-3.639-3.947-6.972-7.483-9.392-10.036
								c-1.188-1.256-2.159-2.283-2.862-3.027c-0.316-0.341-0.571-0.617-0.77-0.831c-0.173-0.193-0.261-0.297-0.253-0.305
								c0.008-0.008,0.111,0.082,0.299,0.26c0.21,0.204,0.479,0.466,0.813,0.789c0.702,0.69,1.705,1.7,2.936,2.957
								c2.462,2.514,5.823,6.027,9.464,9.976c3.639,3.948,6.868,7.582,9.174,10.241c1.153,1.329,2.078,2.411,2.709,3.167
								c0.296,0.359,0.535,0.649,0.721,0.874C184.161,165.642,184.242,165.751,184.234,165.759z"/>
						</g>
					</g>
				</g>
				<g style="opacity:0.3;">
					<g>
						<path style="fill:#FFFFFF;" d="M159.874,129.168l36.683,39.848c0,0-2.969,4.153-5.689,5.96l-37.457-40.779
							C153.411,134.196,156.111,130.943,159.874,129.168z"/>
					</g>
				</g>
				<g style="opacity:0.3;">
					<g>
						<path style="fill:#FFFFFF;" d="M150.257,138.791l36.079,38.824c0,0,0.335,0.183-2.151,0.811l-34.947-37.664
							C149.238,140.762,149.421,139.818,150.257,138.791z"/>
					</g>
				</g>
			</g>
			<g>
				<g>
					<g>
						<g>
							<path style="fill:#FFBF9D;" d="M245.229,202.847c-7.706-6.188-26.591-21.323-27.454-21.726
								c-1.086-0.508-17.707-6.413-20.891-4.516c-3.184,1.897-11.72,12.612-11.72,12.612s0.811,6.664,8.256,1.895
								c5.681-3.638,6.562-4.203,6.662-4.267c-0.006,0.004-0.011,0.007-0.011,0.007l7.915,1.849c0,0-9.654,4.032-11.696,6.152
								c-2.042,2.12-5.271,10.237-3.257,12.106s4.353,2.029,4.353,2.029s-3.985,5.66,3.084,9.077c0,0,1.032,4.758,4.519,6.623
								c3.487,1.864,9.984,1.205,9.984,1.205s3.013-1.782,0.775-4.736c-2.238-2.954-6.367-3.363-6.367-3.363l5.117-2.985
								c0,0,2.662,0.815,6.606,3.862c0,0,4.672-5.981,9.337-9.362C235.677,205.515,245.229,202.847,245.229,202.847z"/>
							<g>
								<g>
									<g>
										<g>
											<path style="fill:#FF9A6C;" d="M212.471,205.361c-0.003-0.023-0.274-0.018-0.76,0.045
												c-0.486,0.062-1.184,0.201-2.022,0.469c-1.667,0.522-3.903,1.678-5.736,3.671c-1.834,1.994-2.798,4.319-3.179,6.024
												c-0.197,0.857-0.277,1.564-0.298,2.054c-0.022,0.489-0.004,0.76,0.019,0.761c0.072,0.006,0.087-1.082,0.538-2.749
												c0.44-1.657,1.418-3.897,3.198-5.834c1.781-1.936,3.931-3.098,5.545-3.675
												C211.4,205.538,212.483,205.432,212.471,205.361z"/>
										</g>
									</g>
								</g>
							</g>
							<g>
								<g>
									<g>
										<g>
											<path style="fill:#FF9A6C;" d="M212.811,196.748c-0.003-0.026-0.291-0.004-0.812,0.057
												c-0.261,0.027-0.579,0.07-0.942,0.154c-0.364,0.08-0.784,0.149-1.232,0.293c-0.908,0.24-1.961,0.633-3.086,1.162
												c-1.114,0.551-2.295,1.251-3.439,2.121c-1.134,0.884-2.113,1.847-2.93,2.784c-0.8,0.953-1.448,1.87-1.912,2.687
												c-0.253,0.396-0.428,0.785-0.598,1.116c-0.174,0.33-0.297,0.626-0.39,0.871c-0.193,0.488-0.287,0.76-0.263,0.77
												c0.069,0.03,0.492-1.05,1.478-2.619c0.486-0.788,1.147-1.674,1.946-2.597c0.817-0.908,1.785-1.845,2.898-2.713
												c1.123-0.854,2.414-1.815,3.501-2.374c1.097-0.537,1.983-0.684,2.869-0.953
												C211.671,196.956,212.823,196.822,212.811,196.748z"/>
										</g>
									</g>
								</g>
							</g>
							<g>
								<g>
									<g>
										<g>
											<path style="fill:#FF9A6C;" d="M214.257,186.856c0.01-0.041-0.389-0.196-1.075-0.242
												c-0.682-0.049-1.651,0.058-2.623,0.469c-1.315,0.562-1.778,1.11-2.159,1.563c-0.443,0.525-0.609,0.92-0.572,0.941
												c0.088,0.079,1.006-1.384,2.879-2.156C212.562,186.62,214.252,186.974,214.257,186.856z"/>
										</g>
									</g>
								</g>
							</g>
						</g>
					</g>
				</g>
			</g>
			<path style="fill:#455A64;" d="M302.967,155.517c0,0,24.39,2.34,32.133,23.53c6.145,16.819,9.484,67.206,7.944,68.233
				l-43.062-1.377c-0.567-12.287-3.875-21.76-8.513-27.89L302.967,155.517z"/>
			<g>
				<path style="fill:#FF9A6C;" d="M300.642,245.903c0.02-0.03,0.32,0.139,0.845,0.471c0.527,0.329,1.268,0.838,2.162,1.497
					c1.79,1.314,4.16,3.28,6.553,5.685c2.397,2.403,4.359,4.771,5.705,6.534c0.671,0.884,1.198,1.611,1.541,2.128
					c0.346,0.515,0.524,0.81,0.495,0.831c-0.064,0.047-0.913-1.029-2.324-2.73c-1.414-1.698-3.408-4.011-5.786-6.396
					c-2.375-2.387-4.686-4.38-6.409-5.762C301.703,246.778,300.596,245.97,300.642,245.903z"/>
			</g>
			<g>
				<path style="fill:#263238;" d="M295.513,194.073c0.142,0.024-0.648,5.403-1.765,12.013c-1.117,6.612-2.137,11.951-2.279,11.927
					c-0.142-0.024,0.648-5.402,1.765-12.014C294.351,199.389,295.371,194.049,295.513,194.073z"/>
			</g>
			<g>
				<path style="fill:#263238;" d="M241.318,345.176c-0.001-0.018,0.245-0.055,0.715-0.108c0.522-0.053,1.206-0.122,2.059-0.208
					c1.847-0.175,4.42-0.418,7.574-0.717c6.394-0.614,15.219-1.536,24.94-2.763c9.724-1.232,18.502-2.537,24.847-3.534
					c3.129-0.496,5.681-0.901,7.513-1.192c0.847-0.129,1.527-0.232,2.045-0.311c0.469-0.065,0.716-0.091,0.719-0.074
					c0.003,0.018-0.238,0.078-0.701,0.177c-0.514,0.103-1.188,0.239-2.029,0.408c-1.763,0.346-4.322,0.811-7.489,1.356
					c-6.333,1.091-15.109,2.455-24.841,3.688c-9.729,1.229-18.568,2.093-24.973,2.613c-3.203,0.261-5.796,0.448-7.591,0.552
					c-0.856,0.046-1.543,0.082-2.067,0.11C241.568,345.192,241.319,345.194,241.318,345.176z"/>
			</g>
			<g>
				<path style="fill:#263238;" d="M237.511,338.739c-0.001-0.036,0.631-0.091,1.775-0.161c1.229-0.065,2.864-0.152,4.845-0.258
					c4.17-0.214,9.781-0.501,15.981-0.819c6.2-0.359,11.809-0.684,15.978-0.926c1.981-0.111,3.615-0.203,4.844-0.272
					c1.144-0.056,1.779-0.07,1.781-0.034c0.003,0.036-0.626,0.118-1.766,0.236c-1.14,0.119-2.791,0.269-4.833,0.437
					c-4.084,0.338-9.731,0.737-15.976,1.079c-6.243,0.34-11.899,0.558-15.995,0.667c-2.048,0.055-3.706,0.086-4.852,0.092
					C238.146,338.788,237.512,338.775,237.511,338.739z"/>
			</g>
			<g>
				<g>
					<g>
						<path style="fill:#FFBF9D;" d="M168.926,247.563c0.158-0.613,0.416-1.19,0.779-1.71c0.72-1.033,1.811-1.82,3.046-2.102
							c2.052-0.468,4.351,0.493,5.461,2.282c-0.074-1.364,1.003-2.635,2.321-2.995c1.317-0.36,2.34,0.148,3.391,1.02
							c1.051,0.872,1.32,1.566,1.747,2.864c1.049-2.356,6.443-2.068,7.099-0.3c0,0,4.641-5.08,7.015-2.582
							c0.986,1.038,0.563,2.63-0.09,4.225c-0.872,2.129-1.446,3.016-2.586,5.361l-4.393,0.24c-0.37,1.375-1.149,6.966-1.314,8.38
							c-0.165,1.414-0.448,2.854-1.2,4.063c-0.752,1.209-2.059,2.155-3.483,2.136c-1.424-0.02-2.826-1.24-2.742-2.662
							c-0.299,1.175-0.799,2.334-1.665,3.182c-0.866,0.848-2.148,1.337-3.321,1.031c-1.173-0.306-2.103-1.533-1.865-2.721
							c-1.566,1.085-3.881,0.121-4.875-1.504c-0.995-1.625-1.019-3.645-0.958-5.55c0.054-1.688,0.207-3.582-0.458-5.18
							c-0.105-0.252-0.285-0.47-0.346-0.738c-0.09-0.397-0.03-0.847-0.058-1.254c-0.062-0.885-0.225-1.767-0.529-2.602
							c-0.067-0.183-0.14-0.364-0.221-0.542c-0.213-0.473-0.528-0.873-0.769-1.325c-0.053-0.099-0.098-0.197-0.111-0.31
							C168.774,248.038,168.869,247.781,168.926,247.563z"/>
						<g>
							<g>
								<g>
									<path style="fill:#FFBF9D;" d="M163.984,245.123c-1.174-0.042-2.453,0.201-3.237,1.076
										c-0.929,1.038-1.143,3.522-1.037,4.911c1.628,0.307,2.497-0.055,4.125,0.252c0.343,0.065,0.63-0.022,0.914,0.18
										c0.751,0.533,0.629,2.329,0.931,3.199c0.524,1.509,2.457,2.246,3.955,1.691c1.498-0.555,2.462-2.148,2.538-3.744
										c0.076-1.595-0.626-3.156-1.654-4.378C168.913,246.401,166.478,245.213,163.984,245.123z"/>
								</g>
							</g>
						</g>
					</g>
				</g>
				<g>
					<path style="fill:#FF9A6C;" d="M191.709,259.914c-0.166-0.035,0.504-3.015,0.928-6.722c0.204-1.854,0.251-3.541,0.178-4.757
						c-0.063-1.216-0.206-1.964-0.125-1.983c0.059-0.017,0.332,0.712,0.492,1.95c0.17,1.235,0.18,2.965-0.027,4.846
						c-0.202,1.882-0.554,3.556-0.844,4.755C192.015,259.202,191.777,259.929,191.709,259.914z"/>
				</g>
				<g>
					<path style="fill:#FF9A6C;" d="M183.78,266.314c-0.073-0.016,0.115-1.099,0.435-2.84c0.317-1.742,0.764-4.146,1.102-6.818
						c0.338-2.673,0.459-5.109,0.423-6.871c-0.026-1.763-0.154-2.852-0.07-2.864c0.058-0.01,0.316,1.067,0.438,2.849
						c0.131,1.78,0.068,4.254-0.274,6.951c-0.341,2.696-0.848,5.102-1.258,6.829C184.162,265.277,183.848,266.33,183.78,266.314z"/>
				</g>
				<g>
					<path style="fill:#FF9A6C;" d="M177.073,267.457c-0.078-0.021,0.199-1.216,0.549-3.161c0.352-1.944,0.74-4.648,0.906-7.655
						c0.161-3.008,0.07-5.738-0.068-7.709c-0.137-1.972-0.282-3.19-0.202-3.202c0.036-0.005,0.112,0.293,0.22,0.839
						c0.112,0.545,0.233,1.341,0.349,2.33c0.234,1.976,0.385,4.733,0.222,7.771c-0.168,3.037-0.618,5.761-1.065,7.699
						c-0.222,0.97-0.43,1.748-0.6,2.278C177.216,267.178,177.107,267.466,177.073,267.457z"/>
				</g>
				<g>
					<path style="fill:#FF9A6C;" d="M168.229,247.875c0.023-0.053,0.602,0.115,1.37,0.692c0.764,0.567,1.684,1.592,2.224,2.969
						c0.539,1.374,0.581,2.767,0.295,3.707c-0.291,0.966-0.898,1.302-0.918,1.241c-0.059-0.058,0.394-0.452,0.561-1.331
						c0.17-0.863,0.078-2.152-0.423-3.426c-0.502-1.28-1.309-2.267-1.975-2.877C168.695,248.232,168.189,247.95,168.229,247.875z"/>
				</g>
			</g>
		</g>
	</g>
</g>
</svg>
