<?xml version="1.0" encoding="utf-8"?>
<!-- Generator: Adobe Illustrator 27.5.0, SVG Export Plug-In . SVG Version: 6.00 Build 0)  -->
<svg version="1.1" xmlns="http://www.w3.org/2000/svg" xmlns:xlink="http://www.w3.org/1999/xlink" x="0px" y="0px"
	 viewBox="0 0 500 500" style="enable-background:new 0 0 500 500;" xml:space="preserve">
<g id="Background_Complete">
	<g>
		<g>
			<g>
				<g>
					<g>
						<g>
							<g>
								<g>
									<g>
										<g>
											
												<rect x="39.395" y="245.71" transform="matrix(0.2084 -0.978 0.978 0.2084 -224.2475 301.93)" style="fill:#FAFAFA;" width="70.024" height="87.588"/>
										</g>
									</g>
								</g>
							</g>
						</g>
						<g>
							<g>
								<g>
									<g>
										<g>
											<g>
												<path style="fill:#E0E0E0;" d="M124.538,264.39c0,0-0.146-0.022-0.418-0.076c-0.284-0.057-0.683-0.138-1.205-0.243
													c-1.07-0.222-2.631-0.545-4.66-0.965c-4.076-0.854-10.018-2.1-17.55-3.679c-15.053-3.18-36.446-7.699-61.879-13.072
													l0.27-0.175c-4.337,20.386-9.308,43.755-14.569,68.484l-0.002,0.007l-0.195-0.301
													c31.711,6.775,61.18,13.071,85.655,18.299l-0.25,0.162c4.44-20.613,8.12-37.699,10.693-49.648
													c1.297-5.974,2.315-10.661,3.012-13.871c0.35-1.593,0.619-2.816,0.804-3.657
													C124.429,264.826,124.538,264.39,124.538,264.39s-0.072,0.413-0.239,1.231c-0.172,0.835-0.423,2.048-0.749,3.629
													c-0.67,3.204-1.648,7.883-2.896,13.847c-2.529,11.992-6.145,29.138-10.507,49.824l-0.044,0.207l-0.207-0.044
													c-24.48-5.205-53.955-11.472-85.673-18.216l-0.249-0.053l0.053-0.249l0.001-0.007
													c5.279-24.725,10.269-48.091,14.621-68.473l0.048-0.223l0.222,0.048c25.472,5.477,46.899,10.084,61.975,13.325
													c7.5,1.625,13.417,2.907,17.475,3.786c2.005,0.439,3.547,0.777,4.605,1.009c0.509,0.114,0.898,0.202,1.175,0.264
													C124.412,264.354,124.538,264.39,124.538,264.39z"/>
											</g>
										</g>
									</g>
								</g>
							</g>
						</g>
					</g>
				</g>
			</g>
			<g>
				<g>
					<g>
						<g>
							<g>
								
									<rect x="43.747" y="248.775" transform="matrix(0.2085 -0.978 0.978 0.2085 -224.2801 301.8654)" style="fill:#EBEBEB;" width="61.208" height="81.435"/>
							</g>
						</g>
					</g>
				</g>
			</g>
			<g>
				<g>
					<g>
						<g>
							<g>
								<polygon style="fill:#E0E0E0;" points="28.149,310.936 63.898,279.655 76.168,306.608 90.508,296.653 107.795,327.911 
																	"/>
							</g>
						</g>
					</g>
				</g>
			</g>
			<g>
				<g>
					<g>
						<g>
							<g>
								<g>
									<g>
										<path style="fill:#E0E0E0;" d="M89.416,280.328c-0.738,3.464-4.144,5.673-7.608,4.935
											c-3.463-0.738-5.673-4.144-4.935-7.608c0.738-3.464,4.144-5.673,7.608-4.935
											C87.945,273.459,90.154,276.865,89.416,280.328z"/>
									</g>
								</g>
							</g>
						</g>
					</g>
				</g>
			</g>
		</g>
	</g>
	<g>
		<g>
			<g>
				<g>
					<g>
						<g>
							<g>
								<g>
									<g>
										<g>
											
												<rect x="362.269" y="345.03" transform="matrix(0.9968 -0.0797 0.0797 0.9968 -29.7601 34.6074)" style="fill:#FAFAFA;" width="112.525" height="89.96"/>
										</g>
									</g>
								</g>
							</g>
						</g>
						<g>
							<g>
								<g>
									<g>
										<g>
											<g>
												<path style="fill:#E0E0E0;" d="M471.029,340.688c0,0-0.188,0.027-0.543,0.06c-0.37,0.034-0.891,0.081-1.573,0.143
													c-1.399,0.12-3.439,0.295-6.091,0.522c-5.332,0.444-13.105,1.092-22.958,1.914c-19.699,1.611-47.697,3.901-80.98,6.623
													l0.268-0.314c2.145,26.689,4.603,57.285,7.205,89.661l0.001,0.009l-0.351-0.299
													c41.527-3.301,80.119-6.368,112.171-8.916l-0.249,0.292c-2.101-27.007-3.843-49.393-5.061-65.049
													c-0.596-7.831-1.064-13.975-1.384-18.183c-0.154-2.09-0.271-3.694-0.353-4.798
													C471.055,341.265,471.029,340.688,471.029,340.688s0.063,0.535,0.158,1.603c0.094,1.091,0.232,2.677,0.41,4.742
													c0.351,4.191,0.865,10.31,1.519,18.111c1.289,15.692,3.132,38.129,5.355,65.197l0.022,0.27l-0.271,0.022
													c-32.049,2.579-70.638,5.684-112.162,9.026l-0.325,0.026l-0.026-0.326l-0.001-0.01
													c-2.577-32.378-5.012-62.976-7.137-89.667l-0.023-0.292l0.291-0.023c33.37-2.609,61.441-4.803,81.191-6.347
													c9.83-0.753,17.585-1.347,22.904-1.754c2.629-0.195,4.652-0.345,6.039-0.448c0.668-0.046,1.18-0.082,1.543-0.107
													C470.861,340.69,471.029,340.688,471.029,340.688z"/>
											</g>
										</g>
									</g>
								</g>
							</g>
						</g>
					</g>
				</g>
			</g>
			<g>
				<g>
					<g>
						<g>
							<g>
								
									<rect x="366.149" y="350.699" transform="matrix(0.9968 -0.0797 0.0797 0.9968 -29.7608 34.6015)" style="fill:#EBEBEB;" width="104.619" height="78.634"/>
							</g>
						</g>
					</g>
				</g>
			</g>
			<g>
				<g>
					<g>
						<g>
							<g>
								<polygon style="fill:#E0E0E0;" points="369.45,433.378 401.977,381.742 426.979,410.421 440.979,392.901 473.736,425.038 
																	"/>
							</g>
						</g>
					</g>
				</g>
			</g>
			<g>
				<g>
					<g>
						<g>
							<g>
								<g>
									<g>
										<path style="fill:#E0E0E0;" d="M433.641,373.203c0.363,4.535-3.019,8.505-7.555,8.868
											c-4.535,0.362-8.505-3.02-8.868-7.555c-0.363-4.535,3.019-8.505,7.554-8.868
											C429.309,365.286,433.278,368.668,433.641,373.203z"/>
									</g>
								</g>
							</g>
						</g>
					</g>
				</g>
			</g>
		</g>
	</g>
	<g>
		<polygon style="fill:#E0E0E0;" points="110.394,168.089 116.347,183.517 83.951,187.486 103.081,204.957 81.805,222.88 
			109.131,226.93 105.987,252.206 123.711,240.037 110.101,244.74 114.276,222.176 93.46,219.342 110.196,204.592 96.395,190.123 
			122.135,185.869 		"/>
	</g>
	<g>
		<g>
			<g>
				<g>
					<g>
						<g>
							<g>
								<g>
									<g>
										<path style="fill:#E0E0E0;" d="M87.3,388.332c-0.006-0.006-0.012-0.096-0.017-0.268c-0.005-0.198-0.011-0.447-0.018-0.757
											c-0.01-0.695-0.024-1.663-0.042-2.906c-0.022-2.549-0.055-6.213-0.096-10.833l0.173,0.173
											c-12.743,0.025-33.007,0.066-55.804,0.111c0.126-0.127-0.287,0.284,0.281-0.284v0.004v0.008v0.015v0.03v0.059v0.119
											l0,0.238v0.474v0.947c0,0.63,0,1.258,0,1.883c0,1.251-0.001,2.494-0.001,3.726c-0.002,2.464-0.003,4.888-0.005,7.262
											l-0.278-0.278c15.892,0.051,29.797,0.095,39.77,0.126c4.968,0.034,8.954,0.06,11.739,0.079
											c1.355,0.016,2.415,0.028,3.174,0.037c0.342,0.007,0.615,0.013,0.83,0.018C87.195,388.319,87.294,388.325,87.3,388.332
											c0.006,0.006-0.081,0.012-0.258,0.018c-0.206,0.005-0.468,0.01-0.796,0.018c-0.745,0.009-1.785,0.021-3.114,0.036
											c-2.769,0.019-6.734,0.046-11.675,0.079c-10.022,0.032-23.995,0.076-39.964,0.127l-0.278,0.001l0-0.279
											c-0.001-2.374-0.003-4.798-0.005-7.262c0-1.232-0.001-2.474-0.001-3.726c0-0.626,0-1.253,0-1.883l0-0.947v-0.474v-0.238
											v-0.119v-0.059v-0.03v-0.015v-0.008v-0.004c0.569-0.569,0.16-0.158,0.288-0.285c22.797,0.046,43.062,0.086,55.804,0.111
											l0.175,0l-0.001,0.173c-0.041,4.664-0.073,8.363-0.096,10.936c-0.018,1.225-0.032,2.181-0.042,2.867
											c-0.007,0.298-0.013,0.537-0.018,0.727C87.311,388.258,87.306,388.337,87.3,388.332z"/>
									</g>
								</g>
							</g>
						</g>
					</g>
				</g>
			</g>
		</g>
		<g>
			<g>
				<g>
					<g>
						<g>
							<g>
								<g>
									<g>
										<path style="fill:#E0E0E0;" d="M94.867,373.568c-0.007-0.007-0.014-0.102-0.021-0.281
											c-0.006-0.212-0.013-0.469-0.022-0.782c-0.012-0.727-0.03-1.714-0.051-2.96c-0.027-2.589-0.064-6.245-0.11-10.74
											l0.204,0.204c-8.687,0.021-20.504,0.049-33.529,0.08c-0.255,0.254,0.343-0.346,0.282-0.283v0.004v0.008v0.015v0.03v0.061
											v0.121l0,0.243v0.484l0,0.965c0,0.642,0,1.28-0.001,1.915c-0.001,1.269-0.002,2.523-0.003,3.758
											c-0.004,2.469-0.007,4.864-0.01,7.158l-0.27-0.271c9.68,0.052,18.014,0.096,23.986,0.129
											c2.946,0.031,5.307,0.057,6.987,0.075c0.785,0.014,1.41,0.025,1.884,0.034C94.625,373.546,94.856,373.557,94.867,373.568
											c0.011,0.011-0.197,0.022-0.609,0.033c-0.46,0.008-1.067,0.02-1.828,0.034c-1.666,0.018-4.006,0.043-6.925,0.075
											c-6.018,0.032-14.415,0.077-24.169,0.129l-0.271,0.001l0-0.272c-0.003-2.294-0.007-4.689-0.01-7.158
											c-0.001-1.235-0.002-2.489-0.003-3.758c0-0.635,0-1.273-0.001-1.915l0-0.965v-0.484v-0.243v-0.121v-0.061v-0.03v-0.015
											v-0.008v-0.004c-0.062,0.06,0.54-0.54,0.287-0.286c13.025,0.031,24.842,0.059,33.529,0.08l0.207,0.001l-0.002,0.204
											c-0.046,4.548-0.084,8.246-0.11,10.865c-0.021,1.227-0.039,2.199-0.051,2.914
											C94.895,373.243,94.881,373.582,94.867,373.568z"/>
									</g>
								</g>
							</g>
						</g>
					</g>
				</g>
			</g>
		</g>
	</g>
	<g>
		<g>
			<g>
				<g>
					<g>
						<g>
							<g>
								<g>
									<g>
										<path style="fill:#E0E0E0;" d="M438.456,293.945c-0.006-0.006-0.011-0.096-0.017-0.268
											c-0.005-0.198-0.011-0.447-0.018-0.757c-0.01-0.695-0.024-1.663-0.042-2.905c-0.022-2.549-0.055-6.213-0.096-10.833
											l0.173,0.173c-12.742,0.025-33.007,0.066-55.804,0.111c0.126-0.127-0.287,0.284,0.281-0.284v0.004v0.008v0.015v0.03v0.059
											v0.119l0,0.238v0.474v0.947c0,0.63,0,1.258,0,1.883c0,1.251-0.001,2.494-0.001,3.726
											c-0.002,2.464-0.003,4.888-0.005,7.262l-0.278-0.278c15.892,0.051,29.797,0.095,39.77,0.126
											c4.968,0.034,8.954,0.061,11.739,0.079c1.354,0.016,2.415,0.028,3.174,0.037c0.342,0.007,0.615,0.013,0.83,0.018
											C438.351,293.933,438.45,293.939,438.456,293.945c0.006,0.006-0.081,0.012-0.258,0.018
											c-0.206,0.005-0.468,0.01-0.796,0.018c-0.745,0.009-1.785,0.021-3.114,0.036c-2.769,0.019-6.734,0.046-11.675,0.079
											c-10.022,0.032-23.995,0.076-39.964,0.127l-0.278,0.001l0-0.279c-0.001-2.374-0.003-4.798-0.005-7.262
											c0-1.232-0.001-2.474-0.001-3.726c0-0.625,0-1.253,0-1.883l0-0.947v-0.474v-0.238v-0.119v-0.059v-0.03v-0.015v-0.008
											v-0.004c0.569-0.569,0.16-0.158,0.288-0.285c22.797,0.046,43.062,0.086,55.804,0.111l0.174,0l-0.001,0.173
											c-0.041,4.664-0.073,8.363-0.096,10.936c-0.018,1.225-0.032,2.181-0.042,2.867c-0.007,0.298-0.013,0.537-0.018,0.727
											C438.468,293.872,438.462,293.951,438.456,293.945z"/>
									</g>
								</g>
							</g>
						</g>
					</g>
				</g>
			</g>
		</g>
	</g>
	<g>
		<g>
			<g>
				<g>
					<g>
						<g>
							<g>
								<g>
									<g>
										<path style="fill:#E0E0E0;" d="M454.357,308.787c-0.006-0.006-0.012-0.096-0.017-0.268
											c-0.005-0.198-0.011-0.447-0.018-0.757c-0.01-0.695-0.024-1.663-0.042-2.905c-0.022-2.549-0.055-6.213-0.096-10.833
											l0.173,0.173c-12.743,0.025-33.007,0.066-55.804,0.111c0.126-0.127-0.287,0.284,0.281-0.284v0.004v0.008v0.015v0.03v0.059
											v0.119l0,0.238v0.474v0.947c0,0.63,0,1.258,0,1.883c0,1.251-0.001,2.494-0.001,3.726
											c-0.002,2.464-0.003,4.888-0.005,7.262l-0.278-0.278c15.892,0.051,29.797,0.095,39.77,0.126
											c4.968,0.034,8.954,0.061,11.739,0.079c1.354,0.016,2.415,0.028,3.174,0.037c0.342,0.007,0.615,0.013,0.83,0.018
											C454.251,308.775,454.351,308.781,454.357,308.787c0.006,0.006-0.081,0.012-0.258,0.018
											c-0.207,0.005-0.469,0.01-0.796,0.018c-0.745,0.009-1.785,0.021-3.114,0.036c-2.769,0.019-6.734,0.046-11.675,0.079
											c-10.022,0.032-23.995,0.076-39.964,0.127l-0.278,0.001l0-0.279c-0.001-2.374-0.003-4.798-0.005-7.262
											c0-1.232-0.001-2.474-0.001-3.726c0-0.625,0-1.253,0-1.883l0-0.947v-0.474v-0.238v-0.119v-0.059v-0.03v-0.015v-0.008
											v-0.004c0.569-0.569,0.16-0.158,0.288-0.285c22.797,0.046,43.062,0.086,55.804,0.111l0.174,0l-0.001,0.173
											c-0.041,4.664-0.073,8.363-0.096,10.936c-0.018,1.225-0.032,2.181-0.042,2.867c-0.007,0.298-0.013,0.537-0.018,0.727
											C454.368,308.714,454.362,308.793,454.357,308.787z"/>
									</g>
								</g>
							</g>
						</g>
					</g>
				</g>
			</g>
		</g>
	</g>
	<g>
		<g>
			<g>
				<g>
					<g>
						<g>
							<g>
								<g>
									<g>
										<g>
											<path style="fill:#E0E0E0;" d="M300.523,49.003c-0.006-0.006-0.012-0.096-0.017-0.268
												c-0.005-0.198-0.011-0.447-0.018-0.757c-0.01-0.695-0.024-1.663-0.042-2.906c-0.022-2.549-0.055-6.213-0.096-10.833
												l0.173,0.173c-12.742,0.025-33.007,0.066-55.804,0.111c0.126-0.127-0.287,0.284,0.281-0.284v0.004v0.007v0.015v0.03
												v0.059v0.119l0,0.238v0.474v0.947c0,0.63,0,1.258,0,1.883c-0.001,1.251-0.001,2.494-0.001,3.726
												c-0.002,2.464-0.003,4.888-0.005,7.262l-0.278-0.278c15.892,0.051,29.797,0.095,39.77,0.126
												c4.968,0.034,8.954,0.061,11.739,0.079c1.354,0.016,2.415,0.028,3.174,0.037c0.342,0.007,0.615,0.013,0.83,0.018
												C300.417,48.991,300.517,48.997,300.523,49.003c0.006,0.006-0.081,0.012-0.258,0.018
												c-0.206,0.005-0.468,0.011-0.796,0.018c-0.745,0.009-1.785,0.021-3.114,0.036c-2.769,0.019-6.734,0.046-11.675,0.079
												c-10.022,0.032-23.995,0.076-39.964,0.126l-0.278,0.001l0-0.279c-0.001-2.374-0.003-4.798-0.005-7.262
												c0-1.232-0.001-2.474-0.001-3.726c0-0.625,0-1.253,0-1.883l0-0.947v-0.474v-0.238v-0.119v-0.059v-0.03v-0.015v-0.007
												V34.24c0.569-0.569,0.16-0.158,0.288-0.285c22.797,0.045,43.062,0.086,55.804,0.111l0.175,0l-0.001,0.173
												c-0.041,4.664-0.073,8.363-0.096,10.936c-0.018,1.225-0.032,2.181-0.042,2.867c-0.008,0.298-0.013,0.537-0.018,0.727
												C300.534,48.93,300.528,49.009,300.523,49.003z"/>
										</g>
									</g>
								</g>
							</g>
						</g>
					</g>
				</g>
			</g>
		</g>
		<g>
			<g>
				<g>
					<g>
						<g>
							<g>
								<g>
									<g>
										<g>
											<path style="fill:#E0E0E0;" d="M325.545,34.17c-0.006-0.006-0.012-0.096-0.017-0.268
												c-0.005-0.198-0.011-0.447-0.018-0.757c-0.01-0.695-0.024-1.663-0.042-2.906c-0.022-2.549-0.055-6.213-0.096-10.833
												l0.173,0.173c-12.742,0.025-33.007,0.066-55.804,0.111c0.126-0.127-0.287,0.284,0.281-0.284v0.004v0.007v0.015v0.03
												v0.059v0.119l0,0.238v0.474v0.947c0,0.63,0,1.258,0,1.883c0,1.251-0.001,2.494-0.001,3.726
												c-0.002,2.464-0.003,4.888-0.005,7.262l-0.278-0.278c15.892,0.051,29.797,0.095,39.77,0.126
												c4.968,0.034,8.954,0.061,11.739,0.079c1.354,0.016,2.415,0.028,3.174,0.037c0.342,0.007,0.615,0.013,0.83,0.018
												C325.44,34.158,325.539,34.164,325.545,34.17c0.006,0.006-0.081,0.012-0.258,0.018c-0.206,0.005-0.468,0.011-0.796,0.018
												c-0.745,0.009-1.785,0.021-3.114,0.037c-2.769,0.019-6.734,0.046-11.675,0.079c-10.022,0.032-23.995,0.076-39.964,0.126
												l-0.278,0.001l0-0.279c-0.001-2.374-0.003-4.798-0.005-7.262c0-1.232-0.001-2.474-0.001-3.726c0-0.625,0-1.253,0-1.883
												l0-0.947v-0.474V19.64v-0.119v-0.059v-0.03v-0.015V19.41v-0.004c0.569-0.569,0.16-0.158,0.288-0.285
												c22.797,0.045,43.062,0.086,55.804,0.111l0.175,0l-0.001,0.173c-0.041,4.664-0.073,8.363-0.096,10.936
												c-0.018,1.225-0.032,2.181-0.042,2.867c-0.008,0.298-0.013,0.537-0.018,0.727
												C325.557,34.097,325.551,34.176,325.545,34.17z"/>
										</g>
									</g>
								</g>
							</g>
						</g>
					</g>
				</g>
			</g>
		</g>
	</g>
</g>
<g id="Background_Simple" style="display:none;">
	<g style="display:inline;">
		<path style="fill:#F5F5F5;" d="M380.648,116.016l-1.991-3.28c-16.781-27.653-47.121-44.323-79.108-42.3
			c-4.112,0.26-8.206,0.817-12.246,1.681c-29.084,6.226-54.39,28.219-64.88,56.386c-6.169,16.566-7.893,35.639-19.599,48.788
			c-15.236,17.113-41.102,17.65-63.844,16.941c-22.742-0.709-48.625-0.104-63.787,17.076c-9.496,10.76-12.513,26.061-11.748,40.47
			c2.027,38.15,28.61,72.261,62.418,89.216c33.807,16.955,73.611,18.474,110.611,11.015
			c51.832-10.448,101.124-39.142,130.753-83.461C396.855,224.23,404.353,163.85,380.648,116.016z"/>
	</g>
	<g style="display:inline;">
		
			<ellipse transform="matrix(0.7071 -0.7071 0.7071 0.7071 -141.0294 394.2903)" style="fill:#F5F5F5;" cx="405.436" cy="367.383" rx="42.974" ry="42.974"/>
	</g>
</g>
<g id="Desk">
	<g>
		<g>
			<path style="fill:#263238;" d="M463.743,471.566c0,0.144-95.704,0.26-213.733,0.26c-118.07,0-213.753-0.117-213.753-0.26
				s95.683-0.26,213.753-0.26C368.039,471.305,463.743,471.422,463.743,471.566z"/>
		</g>
	</g>
</g>
<g id="Photos">
	<g>
		<g>
			<g>
				<g>
					<g>
						<g>
							<g>
								<g>
									<g>
										
											<rect x="356.261" y="209.8" transform="matrix(0.9796 -0.2008 0.2008 0.9796 -41.376 85.8916)" style="fill:#FFFFFF;" width="92.725" height="74.131"/>
									</g>
								</g>
							</g>
						</g>
					</g>
					<g>
						<g>
							<g>
								<g>
									<g>
										<g>
											<path style="fill:#263238;" d="M440.598,201.243c0,0-0.151,0.04-0.438,0.104c-0.299,0.065-0.721,0.156-1.272,0.275
												c-1.132,0.238-2.783,0.587-4.929,1.039c-4.316,0.9-10.608,2.212-18.584,3.875c-15.949,3.3-38.617,7.99-65.565,13.565
												l0.187-0.284c4.439,21.613,9.529,46.389,14.914,72.607l0.001,0.008l-0.317-0.209
												c33.632-6.878,64.887-13.269,90.844-18.578l-0.174,0.264c-4.436-21.877-8.113-40.011-10.685-52.693
												c-1.275-6.345-2.276-11.323-2.961-14.732c-0.336-1.694-0.594-2.994-0.771-3.889
												C440.677,201.713,440.598,201.243,440.598,201.243s0.105,0.431,0.291,1.295c0.187,0.882,0.459,2.166,0.813,3.837
												c0.709,3.392,1.744,8.346,3.064,14.659c2.633,12.704,6.398,30.87,10.94,52.784l0.045,0.219l-0.22,0.045
												c-25.952,5.334-57.201,11.756-90.826,18.667l-0.264,0.054l-0.054-0.264l-0.002-0.008
												c-5.366-26.222-10.436-51.002-14.859-72.618l-0.048-0.236l0.236-0.048c27.03-5.491,49.767-10.11,65.766-13.36
												c7.964-1.605,14.247-2.871,18.556-3.739c2.131-0.424,3.77-0.751,4.894-0.974c0.542-0.105,0.957-0.185,1.251-0.242
												C440.461,201.262,440.598,201.243,440.598,201.243z"/>
										</g>
									</g>
								</g>
							</g>
						</g>
					</g>
				</g>
			</g>
		</g>
		<g>
			<g>
				<g>
					<g>
						<g>
							
								<rect x="359.459" y="214.478" transform="matrix(0.9796 -0.2008 0.2008 0.9796 -41.379 85.8783)" style="fill:#455A64;" width="86.21" height="64.798"/>
						</g>
					</g>
				</g>
			</g>
		</g>
		<g style="opacity:0.2;">
			<g>
				<g>
					<g>
						<g>
							<polygon points="366.844,287.273 388.253,241.768 411.586,262.708 421.274,246.971 451.298,269.959 							"/>
						</g>
					</g>
				</g>
			</g>
		</g>
		<g style="opacity:0.2;">
			<g>
				<g>
					<g>
						<g>
							<g>
								<g>
									<path d="M413.291,231.599c0.753,3.673-1.614,7.26-5.286,8.013c-3.673,0.753-7.26-1.614-8.013-5.286
										c-0.753-3.673,1.614-7.26,5.286-8.013C408.95,225.56,412.538,227.926,413.291,231.599z"/>
								</g>
							</g>
						</g>
					</g>
				</g>
			</g>
		</g>
	</g>
	<g>
		<g>
			<g>
				<g>
					<g>
						<g>
							<g>
								<g>
									<g>
										<g>
											
												<rect x="63.263" y="33.192" transform="matrix(0.1047 -0.9945 0.9945 0.1047 6.6263 195.7825)" style="fill:#FAFAFA;" width="97.566" height="122.039"/>
										</g>
									</g>
								</g>
							</g>
						</g>
						<g>
							<g>
								<g>
									<g>
										<g>
											<g>
												<path style="fill:#263238;" d="M177.836,52.082c0,0-0.205-0.009-0.59-0.044c-0.402-0.038-0.967-0.091-1.705-0.161
													c-1.515-0.151-3.725-0.37-6.598-0.656c-5.772-0.588-14.188-1.445-24.856-2.531c-21.322-2.205-51.627-5.339-87.652-9.064
													l0.348-0.282c-3.028,28.881-6.5,61.989-10.173,97.024l-0.001,0.01l-0.315-0.389c44.93,4.75,86.684,9.165,121.362,12.831
													l-0.323,0.262c3.138-29.211,5.738-53.423,7.557-70.357c0.924-8.468,1.649-15.111,2.145-19.661
													c0.252-2.258,0.446-3.993,0.58-5.185C177.749,52.702,177.836,52.082,177.836,52.082s-0.039,0.582-0.15,1.741
													c-0.117,1.181-0.286,2.9-0.507,5.137c-0.46,4.538-1.132,11.164-1.987,19.61c-1.751,16.986-4.254,41.273-7.273,70.573
													l-0.03,0.293l-0.294-0.031c-34.681-3.632-76.44-8.006-121.374-12.713l-0.352-0.037l0.037-0.352l0.001-0.01
													c3.7-35.032,7.197-68.138,10.247-97.016l0.034-0.316l0.315,0.034c36.096,3.864,66.459,7.114,87.823,9.401
													c10.63,1.155,19.016,2.066,24.768,2.691c2.842,0.316,5.029,0.559,6.528,0.725c0.722,0.084,1.274,0.148,1.667,0.194
													C177.657,52.051,177.836,52.082,177.836,52.082z"/>
											</g>
										</g>
									</g>
								</g>
							</g>
						</g>
					</g>
				</g>
			</g>
			<g>
				<g>
					<g>
						<g>
							<g>
								
									<rect x="69.326" y="37.47" transform="matrix(0.1047 -0.9945 0.9945 0.1047 6.5637 195.6961)" style="fill:#FF725E;" width="85.283" height="113.465"/>
							</g>
						</g>
					</g>
				</g>
			</g>
			<g style="opacity:0.2;">
				<g>
					<g>
						<g>
							<g>
								<polygon points="51.084,130.672 96.044,82.1 116.987,117.653 135.402,101.763 163.925,142.547 								"/>
							</g>
						</g>
					</g>
				</g>
			</g>
			<g style="opacity:0.2;">
				<g>
					<g>
						<g>
							<g>
								<g>
									<g>
										<path d="M131.502,79.302c-0.516,4.907-4.913,8.466-9.82,7.95c-4.907-0.517-8.466-4.913-7.95-9.82
											c0.516-4.907,4.913-8.466,9.82-7.95C128.459,69.998,132.018,74.395,131.502,79.302z"/>
									</g>
								</g>
							</g>
						</g>
					</g>
				</g>
			</g>
		</g>
	</g>
	<g>
		<g>
			<g>
				<g>
					<g>
						<g>
							<g>
								<g>
									<g>
										<g>
											
												<rect x="76.739" y="390.424" transform="matrix(0.9933 -0.1155 0.1155 0.9933 -47.8631 16.093)" style="fill:#FAFAFA;" width="76.302" height="61.001"/>
										</g>
									</g>
								</g>
							</g>
						</g>
						<g>
							<g>
								<g>
									<g>
										<g>
											<g>
												<path style="fill:#263238;" d="M149.262,386.22c0,0-0.127,0.023-0.366,0.054c-0.25,0.032-0.602,0.077-1.062,0.135
													c-0.945,0.115-2.323,0.284-4.115,0.502c-3.602,0.431-8.853,1.06-15.51,1.857c-13.31,1.572-32.226,3.807-54.714,6.464
													l0.174-0.219c2.105,18.034,4.517,38.707,7.07,60.583l0.001,0.006l-0.245-0.194c28.06-3.25,54.137-6.27,75.795-8.779
													l-0.161,0.204c-2.083-18.25-3.81-33.377-5.017-43.957c-0.595-5.292-1.062-9.444-1.382-12.288
													c-0.155-1.412-0.274-2.497-0.356-3.243C149.294,386.611,149.262,386.22,149.262,386.22s0.056,0.361,0.146,1.082
													c0.09,0.737,0.222,1.808,0.394,3.203c0.34,2.831,0.837,6.966,1.471,12.236c1.256,10.602,3.053,25.762,5.22,44.05
													l0.022,0.183l-0.183,0.021c-21.655,2.53-47.729,5.575-75.786,8.853l-0.22,0.026l-0.026-0.22l-0.001-0.006
													c-2.536-21.878-4.933-42.553-7.024-60.589l-0.023-0.197l0.197-0.023c22.55-2.582,41.518-4.754,54.864-6.282
													c6.643-0.75,11.884-1.342,15.478-1.748c1.777-0.196,3.144-0.347,4.082-0.451c0.452-0.048,0.797-0.084,1.043-0.11
													C149.148,386.226,149.262,386.22,149.262,386.22z"/>
											</g>
										</g>
									</g>
								</g>
							</g>
						</g>
					</g>
				</g>
			</g>
			<g>
				<g>
					<g>
						<g>
							<g>
								
									<rect x="79.37" y="394.27" transform="matrix(0.9933 -0.1155 0.1155 0.9933 -47.8639 16.0872)" style="fill:#455A64;" width="70.941" height="53.321"/>
							</g>
						</g>
					</g>
				</g>
			</g>
			<g style="opacity:0.2;">
				<g>
					<g>
						<g>
							<g>
								<polygon points="82.688,451.51 103.471,415.726 121.112,434.55 130.172,422.336 153.154,443.314 								"/>
							</g>
						</g>
					</g>
				</g>
			</g>
			<g style="opacity:0.2;">
				<g>
					<g>
						<g>
							<g>
								<g>
									<g>
										<path d="M124.719,409.167c0.356,3.064-1.839,5.837-4.903,6.194c-3.064,0.356-5.837-1.839-6.194-4.903
											c-0.356-3.064,1.839-5.837,4.903-6.194C121.59,403.907,124.363,406.102,124.719,409.167z"/>
									</g>
								</g>
							</g>
						</g>
					</g>
				</g>
			</g>
		</g>
	</g>
</g>
<g id="Speech_Bubble">
	<g>
		<g>
			<g>
				<g>
					<g>
						<g>
							<g>
								<g>
									<g>
										<g>
											<g>
												<g>
													<g>
														<g>
															<g>
																<polygon style="fill:#FFFFFF;" points="412.742,85.755 400.547,58.888 384.861,83.755 358.249,67.329 
																	363.894,100.86 338.08,108.604 364.393,128.526 341.078,156.82 374.487,144.685 392.167,173.135 405.622,146.984 
																	437.281,153.692 424.498,126.856 451.26,113.854 426.752,105.503 439.621,79.784 																"/>
															</g>
															<g>
																<g>
																	<path style="fill:#263238;" d="M412.742,85.755c0,0,0.608-0.152,1.779-0.421c1.178-0.269,2.914-0.664,5.188-1.182
																		c4.556-1.027,11.257-2.538,19.886-4.484l0.244-0.055l-0.112,0.224c-3.518,7.059-7.853,15.756-12.828,25.739
																		l-0.094-0.23c7.341,2.492,15.618,5.302,24.518,8.324l0.446,0.151l-0.423,0.206
																		c-8.211,3.998-17.225,8.386-26.751,13.024l0.102-0.29c4.072,8.536,8.35,17.502,12.799,26.829l0.205,0.43
																		l-0.467-0.099c-10.078-2.131-20.701-4.378-31.662-6.695l0.273-0.129c-4.274,8.313-8.812,17.137-13.448,26.154
																		l-0.207,0.402l-0.239-0.384c-5.657-9.1-11.616-18.688-17.683-28.448l0.31,0.107
																		c-2.884,1.048-5.99,2.176-9.112,3.31c-8.209,2.981-16.318,5.926-24.298,8.824l-0.892,0.324l0.603-0.732
																		c7.975-9.675,15.764-19.123,23.32-28.289l0.042,0.361c-9.057-6.862-17.84-13.517-26.305-19.931l-0.377-0.286
																		l0.453-0.136c8.924-2.672,17.539-5.252,25.818-7.731l-0.158,0.254c-1.994-11.895-3.874-23.112-5.621-33.536
																		l-0.073-0.437l0.377,0.233c9.784,6.054,18.632,11.528,26.595,16.455l-0.23,0.053
																		c6.194-9.785,11.405-18.017,15.725-24.842l0.121-0.191l0.093,0.206c3.931,8.731,6.954,15.444,8.999,19.985
																		c1.016,2.27,1.788,3.995,2.311,5.163C412.485,85.148,412.742,85.755,412.742,85.755s-0.276-0.567-0.806-1.712
																		c-0.533-1.157-1.32-2.867-2.355-5.117c-2.078-4.542-5.15-11.256-9.145-19.987l0.214,0.015
																		c-4.299,6.839-9.484,15.087-15.647,24.892l-0.088,0.141l-0.142-0.087c-7.973-4.91-16.832-10.365-26.629-16.399
																		l0.303-0.204c1.762,10.421,3.659,21.635,5.67,33.527l0.033,0.197l-0.191,0.057
																		c-8.277,2.488-16.889,5.076-25.81,7.758l0.076-0.421c8.469,6.407,17.258,13.056,26.319,19.912l0.209,0.158
																		l-0.167,0.203c-7.552,9.168-15.337,18.62-23.309,28.298l-0.288-0.408c7.979-2.898,16.088-5.844,24.297-8.826
																		c3.121-1.134,6.228-2.262,9.112-3.309l0.198-0.072l0.111,0.179c6.064,9.761,12.022,19.35,17.676,28.452
																		l-0.446,0.018c4.641-9.015,9.183-17.837,13.462-26.147l0.087-0.169l0.186,0.039
																		c10.959,2.327,21.58,4.582,31.657,6.721l-0.261,0.331c-4.438-9.332-8.706-18.304-12.767-26.844l-0.093-0.195
																		l0.194-0.094c9.534-4.622,18.555-8.996,26.773-12.98l0.022,0.357c-8.893-3.041-17.163-5.869-24.499-8.378
																		l-0.179-0.061l0.085-0.169c5.007-9.967,9.37-18.65,12.91-25.697l0.132,0.169
																		c-8.667,1.896-15.398,3.369-19.974,4.371c-2.269,0.491-4.002,0.866-5.178,1.121
																		C413.331,85.641,412.742,85.755,412.742,85.755z"/>
																</g>
															</g>
														</g>
													</g>
												</g>
											</g>
										</g>
									</g>
								</g>
							</g>
						</g>
					</g>
				</g>
			</g>
		</g>
		<g>
			<g>
				<g>
					<g>
						<path style="fill:#FF725E;" d="M400.542,101.301l-1.29,21.561c-0.106,1.763-1.509,3.171-3.271,3.282l0,0
							c-1.859,0.117-3.484-1.244-3.695-3.095l-2.468-21.657c-0.187-1.64,1.105-3.073,2.756-3.055l5.258,0.055
							C399.4,98.409,400.636,99.735,400.542,101.301z"/>
					</g>
				</g>
			</g>
			<g>
				<g>
					<g>
						<path style="fill:#FF725E;" d="M390.309,138.29c0.925,2.755,3.908,4.237,6.663,3.312c2.754-0.925,4.238-3.908,3.313-6.662
							c-0.925-2.755-3.908-4.237-6.663-3.312C390.867,132.552,389.383,135.535,390.309,138.29z"/>
					</g>
				</g>
			</g>
		</g>
	</g>
</g>
<g id="Character">
	<g>
		<g>
			<g>
				<g>
					<g>
						<g>
							<g>
								<g>
									<g>
										<path style="fill:#263238;" d="M287.952,97.819c11.975-0.207,23.359,18.274,22.211,28.989
											c-0.559,5.205-2.406,11.226,1.755,14.895c4.118,3.632,12.292,2.977,16.236,6.734c0,0,5.053,4.838,4.922,11.385
											c-0.13,6.548,1.38,15.191,6.403,17.309l-23.73,10.235c-2.668-2.593-3.92-6.801-6.587-9.394
											c3.036,2.708,6.417,12.672-6.508,14.336l-8.53-7.246c-21.734,6.941-44.497,15.396-62.759,5.904"/>
									</g>
								</g>
							</g>
						</g>
					</g>
					<g>
						<g>
							<g>
								<g>
									<g>
										<path style="fill:#263238;" d="M175.81,159.55c1.453-4.982,4.011-9.64,4.934-14.748
											c1.981-10.979-3.723-23.084,1.252-33.07c3.542-7.107,11.455-10.785,18.966-13.363c7.51-2.578,14.726-4.241,20.204-9.99
											c4.018-4.216,6.199-9.915,10.202-14.145c5.706-6.026,14.341-8.283,22.604-9.057c8.486-0.794,17.303-0.258,25.07,3.25
											c7.767,3.508,14.343,10.351,15.974,18.716c0.795,4.078,0.43,8.391,1.848,12.297c1.56,4.295,5.078,7.563,7.309,11.551
											c4.715,8.427,2.677,20.042-4.625,26.361l-55.962,77.266c-12.115,5.024-26.33-9.973-36.097-18.726
											C197.723,187.141,172.138,172.142,175.81,159.55z"/>
									</g>
								</g>
							</g>
						</g>
					</g>
					<g>
						<g>
							<g>
								<path style="fill:#FFBF9D;" d="M297.7,127.824c-2.954-17.041-16.62-36.855-33.52-33.181l-51.917,19.32
									c-5.134,1.116-7.698,5.397-4.576,4.076l16.832,123.754l36.322,24.632l21.001-30.925
									c-1.012-10.407-1.408-17.842-1.408-17.842s21.679-4.086,23.1-33.184C304.24,170.002,300.981,146.757,297.7,127.824z"/>
							</g>
						</g>
					</g>
					<g>
						<g>
							<g>
								<g>
									<g>
										<g>
											<g>
												<g>
													<g>
														<g>
															<g>
																<g>
																	<g>
																		<g>
																			<g>
																				<g>
																					<g>
																						<g>
																							<g>
																								<g>
																									<g>
																										<g>
																											<g>
																												<g>
																													<path style="fill:#263238;" d="M289.84,153.72c0.28,1.929-1.123,3.758-3.134,4.087
																														c-2.005,0.328-3.862-0.964-4.142-2.895c-0.279-1.929,1.123-3.76,3.129-4.089
																														C287.704,150.494,289.561,151.79,289.84,153.72z"/>
																												</g>
																											</g>
																										</g>
																									</g>
																								</g>
																							</g>
																						</g>
																					</g>
																				</g>
																			</g>
																		</g>
																	</g>
																</g>
															</g>
														</g>
													</g>
												</g>
											</g>
											<g>
												<g>
													<g>
														<g>
															<g>
																<g>
																	<g>
																		<g>
																			<g>
																				<g>
																					<g>
																						<g>
																							<g>
																								<g>
																									<g>
																										<g>
																											<g>
																												<g>
																													<g>
																														<path style="fill:#263238;" d="M294.972,141.107c-0.377,0.687-3.87-1.368-8.132-0.607
																															c-4.271,0.689-6.918,3.786-7.496,3.261c-0.279-0.229,0.018-1.4,1.162-2.792
																															c1.123-1.382,3.201-2.9,5.859-3.353c2.66-0.449,5.11,0.296,6.615,1.233
																															C294.513,139.788,295.163,140.796,294.972,141.107z"/>
																													</g>
																												</g>
																											</g>
																										</g>
																									</g>
																								</g>
																							</g>
																						</g>
																					</g>
																				</g>
																			</g>
																		</g>
																	</g>
																</g>
															</g>
														</g>
													</g>
												</g>
											</g>
										</g>
										<g>
											<g>
												<g>
													<g>
														<g>
															<g>
																<g>
																	<g>
																		<g>
																			<g>
																				<g>
																					<g>
																						<g>
																							<g>
																								<g>
																									<g>
																										<g>
																											<g>
																												<g>
																													<g>
																														<path style="fill:#263238;" d="M256.678,156.831c-0.485,0.635-3.931-1.7-8.531-1.356
																															c-4.603,0.272-7.784,3.051-8.33,2.484c-0.265-0.25,0.185-1.366,1.572-2.62
																															c1.359-1.248,3.741-2.535,6.61-2.729c2.869-0.189,5.369,0.769,6.847,1.826
																															C256.35,155.499,256.917,156.545,256.678,156.831z"/>
																													</g>
																												</g>
																											</g>
																										</g>
																									</g>
																								</g>
																							</g>
																						</g>
																					</g>
																				</g>
																			</g>
																		</g>
																	</g>
																</g>
															</g>
														</g>
													</g>
												</g>
											</g>
										</g>
										<g>
											<g>
												<g>
													<g>
														<g>
															<g>
																<g>
																	<g>
																		<g>
																			<g>
																				<g>
																					<g>
																						<g>
																							<g>
																								<g>
																									<g>
																										<g>
																											<g>
																												<g>
																													<g>
																														<path style="fill:#263238;" d="M272.763,173.189c-0.042-0.222,2.365-0.914,6.286-1.856
																															c0.996-0.214,1.928-0.519,2.023-1.225c0.158-0.755-0.382-1.794-0.998-2.915
																															c-1.215-2.335-2.485-4.784-3.819-7.35c-5.331-10.476-9.309-19.135-8.885-19.346
																															c0.423-0.211,5.09,8.109,10.421,18.585c1.29,2.586,2.524,5.051,3.698,7.41
																															c0.507,1.103,1.304,2.331,0.955,3.899c-0.189,0.783-0.869,1.41-1.497,1.655
																															c-0.625,0.267-1.191,0.34-1.686,0.425C275.283,173.124,272.802,173.412,272.763,173.189z"/>
																													</g>
																												</g>
																											</g>
																										</g>
																									</g>
																								</g>
																							</g>
																						</g>
																					</g>
																				</g>
																			</g>
																		</g>
																	</g>
																</g>
															</g>
														</g>
													</g>
												</g>
											</g>
										</g>
										<g>
											<g>
												<g>
													<g>
														<g>
															<g>
																<g>
																	<g>
																		<g>
																			<g>
																				<g>
																					<g>
																						<g>
																							<g>
																								<g>
																									<g>
																										<g>
																											<g>
																												<g>
																													<path style="fill:#FF9A6C;" d="M280.586,217.763c0,0-19.107,3.341-39.422-6.039
																														c0,0,11.525,20.32,39.861,14.521L280.586,217.763z"/>
																												</g>
																											</g>
																										</g>
																									</g>
																								</g>
																							</g>
																						</g>
																					</g>
																				</g>
																			</g>
																		</g>
																	</g>
																</g>
															</g>
														</g>
													</g>
												</g>
											</g>
										</g>
									</g>
								</g>
							</g>
							<g>
								<g>
									<g>
										<g>
											<g>
												<g>
													<g>
														<g>
															<g>
																<g>
																	<g>
																		<g>
																			<g>
																				<g>
																					<g>
																						<g>
																							<g>
																								<g>
																									<g>
																										<path style="fill:#263238;" d="M255.101,133.219c-0.272,1.116-4.269,1.037-8.838,2.101
																											c-4.593,0.971-8.179,2.734-8.899,1.838c-0.324-0.43,0.217-1.51,1.614-2.715
																											c1.383-1.2,3.663-2.447,6.41-3.061c2.747-0.607,5.34-0.444,7.102,0.058
																											C254.265,131.942,255.212,132.692,255.101,133.219z"/>
																									</g>
																								</g>
																							</g>
																						</g>
																					</g>
																				</g>
																			</g>
																		</g>
																	</g>
																</g>
															</g>
														</g>
													</g>
												</g>
											</g>
										</g>
									</g>
								</g>
							</g>
							<g>
								<g>
									<g>
										<g>
											<g>
												<g>
													<g>
														<g>
															<g>
																<g>
																	<g>
																		<g>
																			<g>
																				<g>
																					<g>
																						<g>
																							<g>
																								<g>
																									<g>
																										<path style="fill:#263238;" d="M293.03,126.885c-0.696,0.983-3.905,0.392-7.647,0.756
																											c-3.752,0.249-6.836,1.355-7.667,0.497c-0.369-0.421,0.032-1.373,1.322-2.373
																											c1.27-0.994,3.474-1.935,6.051-2.146c2.574-0.208,4.888,0.361,6.288,1.138
																											C292.798,125.533,293.333,126.409,293.03,126.885z"/>
																									</g>
																								</g>
																							</g>
																						</g>
																					</g>
																				</g>
																			</g>
																		</g>
																	</g>
																</g>
															</g>
														</g>
													</g>
												</g>
											</g>
										</g>
									</g>
								</g>
							</g>
						</g>
					</g>
					<g>
						<g>
							<g>
								<g>
									<g>
										<path style="fill:#263238;" d="M158.563,154.907c2.464-5.144-3.046-10.469,0.882-15.297
											c3.583-4.404,13.572-5.053,16.919-9.526c2.615-3.493,2.688-4.383,2.623-7.532c-0.081-3.944,0.87-20.587,24.861-25.157
											l4.105,14.874c1.472-0.783,3.006-1.473,4.522-2.114c19.31-8.174,39.596-14.038,60.29-17.425
											c2.725,4.183,0.517,10.065-3.289,13.296c-3.806,3.231-8.784,4.617-13.402,6.515c-4.618,1.898-9.322,4.744-11.1,9.408
											c-1.891,4.962,0.023,10.704-1.616,15.753c-2.82,8.689-14.719,11.842-17.489,20.546
											c-2.095,6.583,1.897,13.392,3.058,20.202c1.317,7.717-1.292,16.004-6.791,21.575c-4.337,4.394-1.495,13.25-1.495,13.25
											l-77.497-39.618C138.975,164.765,155.19,161.947,158.563,154.907z"/>
									</g>
								</g>
							</g>
						</g>
					</g>
				</g>
			</g>
			<g>
				<g>
					<g>
						<path style="fill:#FF9A6C;" d="M271.636,180.902c-3.939-0.829-8.89-2.059-12.829-2.888c-1.628,3.275-0.917,7.557,1.681,10.13
							c2.598,2.573,6.887,3.243,10.146,1.583"/>
					</g>
				</g>
				<g>
					<g>
						<g>
							<path style="fill:#263238;" d="M270.634,189.727c0.03,0.055-0.367,0.38-1.221,0.729c-0.851,0.326-2.192,0.658-3.859,0.496
								c-1.646-0.15-3.652-0.798-5.319-2.337c-1.659-1.528-2.782-3.927-2.854-6.518c-0.047-1.545,0.297-3.053,0.936-4.328
								l0.192-0.383l0.411,0.091c3.78,0.836,7.058,1.606,9.385,2.199c2.327,0.594,3.702,1.011,3.675,1.141
								c-0.027,0.129-1.452-0.05-3.819-0.455c-2.366-0.406-5.674-1.038-9.466-1.814l0.603-0.292c-0.537,1.118-0.832,2.44-0.79,3.808
								c0.064,2.295,1.03,4.426,2.445,5.799c1.423,1.389,3.199,2.064,4.7,2.297c1.517,0.246,2.784,0.059,3.631-0.125
								C270.132,189.833,270.593,189.645,270.634,189.727z"/>
						</g>
					</g>
				</g>
			</g>
		</g>
		<g>
			<g>
				<g>
					<g>
						<g>
							<path style="fill:#FF725E;" d="M185.386,246.764l37.762-12.032l0,0c6.162,10.688,15.126,16.824,28.907,16.714
								c14.611-0.116,22.766-6.647,29.881-17.949l7.166,1.236l47.482,8.827l6.407,80.059l-14.468,80.462l23.571,68.283h-174.08
								l10.43-74.677l-20.278-145.286L185.386,246.764z"/>
						</g>
					</g>
					<g>
						<g>
							<path style="fill:#FF725E;" d="M171.327,253.4l-3.162-1c0,0-18.136,7.921-32.205,43.585
								c-12.795,32.432-12.795,32.432-12.795,32.432l46.351,36.103l17.018-49.411L171.327,253.4z"/>
						</g>
					</g>
				</g>
				<g>
					<g>
						<g>
							<path style="fill:#263238;" d="M289.103,234.732c0.018,0.006-0.072,0.294-0.263,0.84c-0.175,0.552-0.498,1.344-0.947,2.354
								c-0.91,2.011-2.502,4.846-5.124,7.937c-2.641,3.058-6.372,6.355-11.304,8.921c-4.902,2.591-11.033,4.276-17.571,4.509
								c-6.541,0.199-12.791-1.078-17.886-3.339c-5.123-2.234-9.105-5.277-11.98-8.153c-2.86-2.911-4.671-5.633-5.737-7.578
								c-0.527-0.978-0.912-1.747-1.13-2.285c-0.233-0.532-0.347-0.814-0.329-0.821c0.018-0.007,0.167,0.262,0.433,0.779
								c0.251,0.523,0.667,1.275,1.22,2.233c1.12,1.906,2.968,4.575,5.836,7.425c2.884,2.816,6.845,5.791,11.909,7.971
								c5.035,2.206,11.194,3.449,17.643,3.253c6.445-0.23,12.489-1.876,17.335-4.408c4.878-2.508,8.594-5.736,11.247-8.735
								c2.635-3.031,4.269-5.816,5.235-7.791c0.477-0.992,0.832-1.769,1.041-2.308C288.957,235.005,289.085,234.727,289.103,234.732
								z"/>
						</g>
					</g>
				</g>
				<g>
					<g>
						<g>
							<path style="fill:#263238;" d="M171.347,289.531c-0.087,0.118-5.554-3.087-12.21-7.157
								c-6.658-4.072-11.984-7.468-11.897-7.586c0.087-0.118,5.553,3.086,12.211,7.158
								C166.107,286.016,171.434,289.413,171.347,289.531z"/>
						</g>
					</g>
				</g>
				<g>
					<g>
						<path style="fill:#FFFFFF;" d="M326.69,274.178c0.003,0.144-38.611,1.092-86.236,2.117
							c-47.641,1.026-86.252,1.74-86.255,1.596c-0.003-0.144,38.603-1.091,86.244-2.117
							C288.068,274.749,326.687,274.035,326.69,274.178z"/>
					</g>
				</g>
				<g>
					<g>
						<path style="fill:#FFFFFF;" d="M177.013,337.226c-0.011,0.014-0.175-0.099-0.475-0.326c-0.342-0.267-0.771-0.601-1.298-1.012
							c-1.169-0.941-2.764-2.227-4.712-3.796c-4.015-3.262-9.466-7.692-15.489-12.587c-6.005-4.921-11.438-9.374-15.439-12.653
							c-1.919-1.604-3.491-2.919-4.642-3.881c-0.505-0.436-0.918-0.792-1.246-1.076c-0.281-0.251-0.424-0.389-0.413-0.403
							c0.011-0.014,0.175,0.097,0.477,0.32c0.344,0.263,0.777,0.594,1.306,0.999c1.177,0.931,2.784,2.201,4.746,3.752
							c4.027,3.249,9.495,7.661,15.54,12.538c6.056,4.91,11.506,9.395,15.395,12.707c1.904,1.622,3.464,2.951,4.606,3.923
							c0.501,0.441,0.91,0.801,1.236,1.087C176.883,337.073,177.024,337.212,177.013,337.226z"/>
					</g>
				</g>
				<g>
					<g>
						<path style="fill:#FFFFFF;" d="M330.318,316.295c0,0.009-0.132,0.022-0.392,0.038c-0.285,0.015-0.666,0.035-1.151,0.06
							c-1.041,0.042-2.527,0.102-4.427,0.179c-3.875,0.124-9.432,0.301-16.287,0.521c-13.754,0.39-32.759,0.8-53.753,1.017
							c-21.001,0.213-40.012,0.191-53.771,0.081c-6.858-0.079-12.417-0.143-16.294-0.188c-1.901-0.038-3.388-0.068-4.429-0.089
							c-0.486-0.015-0.867-0.027-1.152-0.036c-0.259-0.011-0.392-0.021-0.392-0.03c0-0.009,0.133-0.017,0.393-0.023
							c0.285-0.004,0.666-0.009,1.152-0.016c1.042-0.002,2.529-0.005,4.43-0.009c3.876,0.005,9.435,0.013,16.294,0.022
							c13.759,0.015,32.767-0.021,53.765-0.234c20.99-0.216,39.993-0.568,53.749-0.864c6.857-0.149,12.415-0.271,16.291-0.355
							c1.901-0.035,3.388-0.062,4.43-0.081c0.486-0.003,0.868-0.006,1.152-0.008C330.184,316.281,330.317,316.286,330.318,316.295z"
							/>
					</g>
				</g>
				<g>
					<g>
						<path style="fill:#FFFFFF;" d="M329.805,363.135c0,0.144-32.64,0.26-72.895,0.26c-40.269,0-72.902-0.117-72.902-0.26
							s32.633-0.26,72.902-0.26C297.165,362.875,329.805,362.992,329.805,363.135z"/>
					</g>
				</g>
				<g>
					<g>
						<path style="fill:#FFFFFF;" d="M326.147,404.418c0,0.144-30.885,0.26-68.976,0.26c-38.104,0-68.982-0.117-68.982-0.26
							c0-0.144,30.879-0.26,68.982-0.26C295.262,404.158,326.147,404.275,326.147,404.418z"/>
					</g>
				</g>
				<g>
					<g>
						<path style="fill:#FFFFFF;" d="M344.437,450.927c0,0.144-36.267,0.26-80.994,0.26c-44.743,0-81.002-0.117-81.002-0.26
							c0-0.144,36.259-0.26,81.002-0.26C308.17,450.667,344.437,450.783,344.437,450.927z"/>
					</g>
				</g>
			</g>
			<g>
				<g>
					<path style="fill:#FFBF9D;" d="M142.737,359.168c6.081-17.898,11.236-50.068,15.805-68.723"/>
				</g>
				<g>
					<g>
						<path style="fill:#FF9A6C;" d="M158.542,290.446c0.017,0.004-0.022,0.249-0.114,0.71c-0.108,0.51-0.249,1.178-0.426,2.011
							c-0.38,1.804-0.91,4.316-1.559,7.395c-1.278,6.307-3.024,14.923-4.954,24.443c-1.98,9.541-3.944,18.147-5.647,24.306
							c-0.833,3.083-1.598,5.555-2.161,7.25c-0.28,0.804-0.504,1.45-0.675,1.943c-0.16,0.442-0.252,0.671-0.269,0.666
							s0.042-0.246,0.169-0.699c0.148-0.5,0.341-1.155,0.582-1.97c0.503-1.711,1.213-4.193,1.999-7.283
							c1.609-6.172,3.514-14.781,5.493-24.318c1.971-9.536,3.713-18.181,5.103-24.414c0.687-3.118,1.284-5.633,1.721-7.364
							c0.216-0.824,0.389-1.485,0.521-1.99C158.45,290.677,158.524,290.441,158.542,290.446z"/>
					</g>
				</g>
			</g>
			<g style="opacity:0.3;">
				<g>
					<path d="M173.095,287.959c-0.769,16.698-2.182,30.055,6.43,47.504C177.644,319.461,173.095,287.959,173.095,287.959z"/>
				</g>
			</g>
			<g>
				<g>
					<path style="fill:#263238;" d="M299.654,418.161c0,0.018-0.273,0.031-0.793,0.039c-0.569,0.003-1.325,0.006-2.273,0.01
						c-1.974,0.003-4.831-0.044-8.36-0.151c-7.057-0.209-16.803-0.741-27.525-1.813c-10.725-1.081-20.383-2.497-27.34-3.695
						c-3.479-0.597-6.288-1.118-8.222-1.514c-0.928-0.193-1.669-0.346-2.226-0.462c-0.508-0.111-0.773-0.178-0.769-0.196
						c0.003-0.018,0.275,0.015,0.789,0.093c0.561,0.091,1.307,0.213,2.243,0.366c2,0.328,4.804,0.787,8.245,1.35
						c6.967,1.104,16.621,2.461,27.333,3.54c10.709,1.071,20.439,1.661,27.486,1.964c3.485,0.132,6.324,0.239,8.35,0.316
						c0.947,0.036,1.703,0.066,2.271,0.087C299.382,418.121,299.654,418.143,299.654,418.161z"/>
				</g>
			</g>
			<g>
				<g>
					<path style="fill:#263238;" d="M266.597,427.395c0.007,0.144-7.769,0.645-17.367,1.12c-9.601,0.475-17.387,0.743-17.394,0.599
						c-0.007-0.143,7.768-0.645,17.369-1.12C258.802,427.52,266.59,427.252,266.597,427.395z"/>
				</g>
			</g>
			<g>
				<g>
					<path style="fill:#263238;" d="M170.727,275.082c0.009-0.001,0.033,0.104,0.072,0.313c0.041,0.236,0.094,0.542,0.16,0.925
						c0.134,0.849,0.324,2.044,0.564,3.565c0.473,3.134,1.148,7.61,1.98,13.126c1.627,11.12,3.866,26.427,6.339,43.334
						c2.415,16.921,4.601,32.237,6.189,43.363c0.763,5.526,1.383,10.009,1.816,13.149c0.2,1.527,0.356,2.726,0.468,3.579
						c0.045,0.387,0.081,0.694,0.109,0.932c0.022,0.211,0.028,0.319,0.019,0.32c-0.009,0.001-0.033-0.105-0.072-0.313
						c-0.041-0.236-0.093-0.541-0.16-0.925c-0.135-0.849-0.324-2.044-0.564-3.565c-0.473-3.134-1.148-7.609-1.98-13.125
						c-1.627-11.12-3.866-26.428-6.34-43.34c-2.414-16.915-4.6-32.229-6.188-43.355c-0.763-5.526-1.383-10.01-1.816-13.15
						c-0.2-1.527-0.356-2.727-0.468-3.579c-0.045-0.387-0.081-0.695-0.109-0.933C170.725,275.191,170.718,275.083,170.727,275.082z"
						/>
				</g>
			</g>
		</g>
		<g style="opacity:0.3;">
			<g>
				<path d="M259.071,369.506c1.406,5.695,7.358,12.871,14.121,16.073c5.78,2.737,10.149,3.375,16.525,2.875
					c10.092-0.791,17.434-7.684,24.372-15.056c16.968-18.03,22.128-40.995,30.625-59.162L259.071,369.506z"/>
			</g>
		</g>
		<g>
			<g>
				<path style="fill:#FFBF9D;" d="M95.859,344.648c0,0-6.941,30.022,20.432,35.699c8.763,1.817,16.477,0.4,22.632-2.01
					c7.497-2.936,15.406-10.707,20.313-17.09l2.124-2.843l-14.434-12.977l24.166-118.671l-21.897-11.172
					c0,0-23.496,47.553-29.616,63.615C109.966,304.431,100.057,323.598,95.859,344.648z"/>
			</g>
			<g>
				<g>
					<path style="fill:#455A64;" d="M193.776,155.311h-15.263v-3.329c0-0.82,0.665-1.485,1.485-1.485h12.293
						c0.82,0,1.485,0.665,1.485,1.485V155.311z"/>
				</g>
				<g>
					<polygon style="fill:#455A64;" points="195.821,155.311 172.271,155.311 171.361,211.051 255.717,211.051 255.717,155.311 
											"/>
				</g>
				<g>
					<g>
						<path style="fill:#263238;" d="M254.194,168.815c0,0.144-18.581,0.26-41.497,0.26c-22.924,0-41.501-0.117-41.501-0.26
							s18.577-0.26,41.501-0.26C235.613,168.555,254.194,168.671,254.194,168.815z"/>
					</g>
				</g>
				<g>
					<g>
						<path style="fill:#263238;" d="M255.27,155.311c0,0.144-18.581,0.26-41.497,0.26c-22.924,0-41.501-0.117-41.501-0.26
							c0-0.144,18.577-0.26,41.501-0.26C236.689,155.051,255.27,155.168,255.27,155.311z"/>
					</g>
				</g>
				<g>
					<g>
						
							<ellipse transform="matrix(0.7071 -0.7071 0.7071 0.7071 -70.6106 207.6807)" style="fill:#E0E0E0;" cx="215.387" cy="189.075" rx="18.33" ry="18.33"/>
						<path style="fill:#263238;" d="M215.387,207.905c-10.383,0-18.83-8.447-18.83-18.83c0-10.383,8.447-18.83,18.83-18.83
							c10.383,0,18.831,8.447,18.831,18.83C234.218,199.458,225.771,207.905,215.387,207.905z M215.387,171.245
							c-9.832,0-17.83,7.998-17.83,17.83c0,9.832,7.998,17.83,17.83,17.83c9.832,0,17.831-7.999,17.831-17.83
							C233.218,179.243,225.219,171.245,215.387,171.245z"/>
					</g>
					<g>
						<circle style="fill:#263238;" cx="215.387" cy="189.075" r="16.047"/>
					</g>
					<g style="opacity:0.3;">
						<circle cx="215.387" cy="189.075" r="9.419"/>
					</g>
				</g>
				<g>
					<g>
						<rect x="236.314" y="157.558" style="fill:#E0E0E0;" width="13.542" height="9.327"/>
					</g>
					<g>
						<g>
							<path style="fill:#263238;" d="M249.855,166.885c-0.015-0.015-0.03-0.258-0.046-0.701c-0.014-0.506-0.032-1.135-0.053-1.899
								c-0.028-1.693-0.065-3.979-0.11-6.727l0.209,0.209c-3.792,0.014-8.473,0.032-13.54,0.051
								c-0.058,0.056,0.492-0.493,0.259-0.259v0.002v0.005v0.01v0.02v0.039v0.078v0.156l0,0.311l0,0.618
								c0,0.411-0.001,0.819-0.001,1.224c-0.001,0.809-0.003,1.605-0.004,2.386c-0.006,1.559-0.011,3.057-0.017,4.477l-0.238-0.238
								c3.944,0.02,7.296,0.072,9.69,0.117c1.143,0.026,2.08,0.047,2.809,0.064C249.472,166.848,249.837,166.867,249.855,166.885
								c0.019,0.019-0.31,0.037-0.941,0.056c-0.715,0.017-1.634,0.038-2.755,0.064c-2.379,0.045-5.798,0.098-9.845,0.117
								l-0.237,0.001l-0.001-0.239c-0.005-1.42-0.011-2.918-0.017-4.477c-0.001-0.781-0.003-1.577-0.004-2.386
								c0-0.405-0.001-0.813-0.001-1.224l0-0.618l0-0.311v-0.156v-0.078v-0.039v-0.02v-0.01v-0.005v-0.002
								c-0.233,0.232,0.317-0.319,0.262-0.262c5.068,0.019,9.749,0.037,13.54,0.051l0.211,0.001l-0.002,0.209
								c-0.023,2.885-0.071,5.243-0.11,6.857c-0.022,0.745-0.039,1.358-0.054,1.852C249.885,166.687,249.87,166.9,249.855,166.885z"
								/>
						</g>
					</g>
				</g>
				<g>
					<g>
						<path style="fill:#263238;" d="M181.379,210.878c-0.144,0-0.26-9.321-0.26-20.816c0-11.499,0.117-20.818,0.26-20.818
							s0.26,9.319,0.26,20.818C181.64,201.557,181.523,210.878,181.379,210.878z"/>
					</g>
				</g>
				<g>
					<g>
						<path style="fill:#263238;" d="M246.004,210.878c-0.144,0-0.26-9.321-0.26-20.816c0-11.499,0.117-20.818,0.26-20.818
							s0.26,9.319,0.26,20.818C246.265,201.557,246.148,210.878,246.004,210.878z"/>
					</g>
				</g>
				<g>
					<g>
						<path style="fill:#E0E0E0;" d="M199.278,162.225c0,1.673-1.356,3.028-3.028,3.028c-1.673,0-3.028-1.356-3.028-3.028
							c0-1.673,1.356-3.029,3.028-3.029C197.922,159.197,199.278,160.553,199.278,162.225z"/>
					</g>
					<g>
						<g>
							<path style="fill:#263238;" d="M199.278,162.225c-0.045,0.001-0.054-0.269-0.193-0.715c-0.137-0.438-0.452-1.069-1.115-1.546
								c-0.641-0.479-1.677-0.736-2.671-0.358c-0.985,0.348-1.829,1.397-1.818,2.618c-0.011,1.222,0.833,2.271,1.818,2.619
								c0.993,0.378,2.03,0.121,2.671-0.358c0.663-0.477,0.978-1.109,1.115-1.546C199.224,162.495,199.233,162.224,199.278,162.225
								c0.026-0.002,0.089,0.271,0.004,0.764c-0.085,0.482-0.37,1.21-1.088,1.79c-0.692,0.58-1.881,0.933-3.057,0.516
								c-1.166-0.379-2.19-1.616-2.175-3.07c-0.014-1.453,1.01-2.691,2.175-3.069c1.176-0.417,2.365-0.064,3.057,0.516
								c0.717,0.58,1.004,1.308,1.088,1.79C199.367,161.954,199.304,162.227,199.278,162.225z"/>
						</g>
					</g>
				</g>
			</g>
			<g>
				<path style="fill:#FFBF9D;" d="M188.915,146.934c0,0-8.744-4.861-10.967-5.009c-2.223-0.148-14.228,6.225-15.117,7.41
					c-0.889,1.186-6.521,21.046-6.521,21.046s-12.153,1.927-9.633,12.005c0,0,0.296,8.892,1.037,12.746
					c0.741,3.853,1.482,20.453,1.482,20.453l20.749,13.191l12.301-21.638l4.298-9.93l-18.23-29.512l2.223-13.32l6.966-4.297
					C177.503,150.077,185.507,154.315,188.915,146.934z"/>
			</g>
			<g>
				<path style="fill:#FFBF9D;" d="M159.467,169.788c0,0,8.997-6.451,11.731-7.173c2.734-0.722,4.288-0.837,6.44,0
					c2.152,0.837,12.425,14.651,14.944,17.215c2.519,2.564,4.902,7.053,4.902,7.053s-2.75,4.198-7.293,2.219l4.065,11.291
					c0,0-2.989,5.619-7.293,0l0.247,0.824c0.779,2.593,0.806,5.353,0.079,7.961l-1.283,4.604c0,0-4.782,0-5.021-8.368l-4.184-6.563
					l-8.13-1.447l-0.239,3.945c0,0,2.063,7.293,2.765,12.792c0.702,5.499-4.558,11.477-4.558,11.477l-15.781-12.194
					c0,0-2.391-27.497-2.271-31.561c0.119-4.065,3.706-5.021,3.706-5.021L159.467,169.788z"/>
			</g>
			<g>
				<g>
					<path style="fill:#FF9A6C;" d="M190.506,189.621c-0.033,0.015-0.315-0.503-0.799-1.453c-0.513-1.035-1.187-2.398-2.003-4.044
						c-0.841-1.742-1.824-3.779-2.91-6.027c-0.555-1.125-1.088-2.357-1.729-3.532c-0.33-0.58-0.72-1.137-1.227-1.566
						c-0.502-0.433-1.132-0.697-1.811-0.777c-1.376-0.156-2.747,0.297-4.065,0.645c-1.321,0.359-2.596,0.705-3.814,1.036
						c-2.412,0.643-4.598,1.226-6.467,1.725c-1.78,0.456-3.253,0.833-4.372,1.119c-1.035,0.253-1.612,0.377-1.622,0.342
						c-0.009-0.035,0.549-0.224,1.568-0.537c1.108-0.327,2.566-0.758,4.328-1.279c1.86-0.53,4.036-1.149,6.437-1.833
						c1.216-0.34,2.488-0.696,3.806-1.065c1.309-0.348,2.716-0.838,4.263-0.67c0.763,0.086,1.514,0.402,2.083,0.899
						c0.575,0.491,0.992,1.101,1.335,1.71c0.665,1.235,1.171,2.439,1.719,3.578c1.048,2.266,1.997,4.319,2.809,6.074
						c0.754,1.675,1.379,3.062,1.853,4.115C190.318,189.059,190.539,189.606,190.506,189.621z"/>
				</g>
			</g>
			<g>
				<g>
					<path style="fill:#FF9A6C;" d="M187.644,202.234c-0.032,0.009-0.213-0.499-0.47-1.437c-0.264-0.935-0.572-2.309-1.071-3.959
						c-0.514-1.62-1.244-3.626-2.892-5.144c-0.83-0.744-1.86-1.345-2.976-1.87c-1.133-0.523-2.304-1.063-3.503-1.617
						c-4.826-2.165-9.248-4.025-12.4-5.484c-1.579-0.722-2.843-1.338-3.711-1.773c-0.865-0.442-1.335-0.703-1.32-0.735
						c0.016-0.033,0.515,0.166,1.405,0.551c0.979,0.42,2.248,0.965,3.774,1.62c3.186,1.37,7.626,3.175,12.465,5.346
						c1.209,0.542,2.381,1.092,3.509,1.631c1.136,0.543,2.206,1.175,3.079,1.975c1.745,1.652,2.444,3.742,2.923,5.395
						c0.46,1.686,0.712,3.068,0.915,4.016C187.567,201.699,187.681,202.223,187.644,202.234z"/>
				</g>
			</g>
			<g>
				<g>
					<path style="fill:#FF9A6C;" d="M171.9,162.472c0.042,0.058-0.967,0.899-2.634,2.21c-1.667,1.312-3.991,3.095-6.577,5.038
						c-2.587,1.944-4.946,3.68-6.669,4.917c-1.724,1.236-2.812,1.973-2.855,1.916c-0.044-0.057,0.965-0.896,2.632-2.208
						c1.667-1.312,3.992-3.096,6.58-5.041c2.587-1.944,4.947-3.682,6.67-4.918C170.771,163.15,171.858,162.414,171.9,162.472z"/>
				</g>
			</g>
			<g>
				<g>
					<path style="fill:#FF9A6C;" d="M178.753,188.958c-0.044,0.031-0.374-0.318-0.706-1.04c-0.33-0.714-0.627-1.832-0.49-3.12
						l0.329,0.272c-0.371,0.12-0.763,0.239-1.169,0.347c-2.996,0.803-5.531,0.684-5.522,0.55c-0.007-0.154,2.468-0.269,5.389-1.054
						c0.393-0.112,0.775-0.221,1.148-0.327l0.378-0.108l-0.048,0.38c-0.15,1.181,0.059,2.232,0.291,2.942
						C178.586,188.516,178.813,188.921,178.753,188.958z"/>
				</g>
			</g>
			<g>
				<g>
					<path style="fill:#FF9A6C;" d="M186.008,213.783c0,0-0.765-0.026-2.031-0.583c-0.617-0.289-1.347-0.84-1.783-1.75
						c-0.42-0.926-0.559-2.007-0.847-3.187c-0.254-1.184-0.567-2.461-1.131-3.754c-0.546-1.296-1.39-2.555-2.225-3.939
						c-0.41-0.683-0.814-1.406-1.444-1.842c-0.316-0.232-0.652-0.3-1.08-0.331c-0.415-0.033-0.846-0.043-1.282-0.051
						c-1.738-0.057-3.61,0.009-5.443-0.714l0.344-0.136c-0.054,0.149-0.126,0.307-0.176,0.472c-0.568,1.736-0.355,3.607,0.124,5.276
						c0.44,1.701,1.384,3.121,2.184,4.566c0.399,0.722,0.749,1.463,0.994,2.219c0.235,0.742,0.46,1.463,0.65,2.169
						c0.388,1.41,0.674,2.747,0.837,3.984c0.337,2.476,0.121,4.534-0.285,5.869c-0.193,0.671-0.404,1.174-0.579,1.496
						c-0.17,0.325-0.266,0.49-0.282,0.482c-0.054-0.025,0.334-0.698,0.665-2.03c0.338-1.326,0.493-3.337,0.116-5.766
						c-0.183-1.214-0.486-2.528-0.887-3.919c-0.42-1.395-0.816-2.885-1.647-4.273c-0.789-1.4-1.788-2.885-2.255-4.657
						c-0.5-1.723-0.744-3.693-0.129-5.581c0.055-0.179,0.132-0.351,0.191-0.513l0.088-0.238l0.256,0.102
						c1.654,0.66,3.513,0.625,5.245,0.682c0.438,0.01,0.875,0.022,1.315,0.059c0.425,0.024,0.952,0.14,1.316,0.424
						c0.763,0.545,1.167,1.328,1.575,2.008c0.811,1.37,1.661,2.666,2.209,4.014c0.562,1.335,0.863,2.658,1.094,3.845
						c0.26,1.175,0.391,2.299,0.751,3.141c0.379,0.851,1.032,1.387,1.614,1.694C185.26,213.614,186.031,213.718,186.008,213.783z"/>
				</g>
			</g>
			<g>
				<g>
					<g>
						<path style="fill:#455A64;" d="M185.726,116.143c0.07,0,0.139,1.029,0.172,2.695c0.033,1.664,0.027,3.972-0.123,6.51
							c-0.15,2.532-0.214,4.823-0.275,6.486c-0.061,1.662-0.122,2.691-0.196,2.691c-0.07,0-0.139-1.029-0.172-2.695
							c-0.033-1.664-0.027-3.972,0.123-6.511c0.15-2.531,0.214-4.822,0.275-6.485C185.591,117.173,185.652,116.143,185.726,116.143z
							"/>
					</g>
				</g>
				<g>
					<g>
						<path style="fill:#455A64;" d="M181.327,133.524c-0.188,0.227-2.346-2.469-4.813-5.833c-1.238-1.69-2.327-3.242-3.093-4.381
							c-0.766-1.139-1.208-1.866-1.15-1.908c0.058-0.042,0.606,0.609,1.448,1.692c0.842,1.084,1.978,2.6,3.214,4.289
							c1.16,1.608,2.21,3.066,3.133,4.344C180.536,132.396,180.922,132.947,181.327,133.524z"/>
					</g>
				</g>
				<g>
					<g>
						<path style="fill:#455A64;" d="M180.566,136.843c0.043,0.292-3.404,0.095-7.555-0.318c-2.084-0.209-3.966-0.436-5.325-0.628
							c-1.359-0.192-2.196-0.349-2.188-0.42c0.008-0.071,0.858-0.044,2.227,0.054c1.369,0.098,3.256,0.267,5.338,0.476
							c1.971,0.212,3.758,0.405,5.325,0.574C179.198,136.678,179.866,136.759,180.566,136.843z"/>
					</g>
				</g>
				<g>
					<g>
						<path style="fill:#455A64;" d="M189.569,134.322c0.405-0.577,0.792-1.128,1.26-1.796c0.922-1.279,1.973-2.736,3.132-4.344
							c1.237-1.689,2.372-3.205,3.214-4.289c0.842-1.084,1.39-1.734,1.448-1.692c0.058,0.042-0.384,0.769-1.15,1.908
							c-0.766,1.139-1.855,2.691-3.092,4.381C191.915,131.853,189.758,134.549,189.569,134.322z"/>
					</g>
				</g>
				<g>
					<g>
						<path style="fill:#455A64;" d="M190.331,137.642c0.7-0.084,1.368-0.165,2.178-0.263c1.568-0.169,3.354-0.361,5.325-0.574
							c2.082-0.209,3.97-0.378,5.339-0.476c1.369-0.098,2.219-0.125,2.227-0.054c0.008,0.071-0.829,0.228-2.188,0.42
							c-1.359,0.192-3.242,0.419-5.326,0.628C193.735,137.736,190.288,137.933,190.331,137.642z"/>
					</g>
				</g>
			</g>
			<g>
				<g>
					<path style="fill:#FFFFFF;" d="M209.606,187.894l3.14,1.181l-2.726,0.773c-0.91,0.258-1.632,0.952-1.926,1.851l-0.986,3.015
						l-1.213-3.024c-0.301-0.751-0.908-1.337-1.668-1.614l-2.758-1.001l2.987-1.227c0.723-0.297,1.292-0.879,1.572-1.608
						l1.079-2.804l0.774,2.607C208.135,186.896,208.773,187.581,209.606,187.894z"/>
				</g>
				<g>
					<g>
						<path style="fill:#FFFFFF;" d="M214.641,202.167c0.006,0.055-0.959,0.211-2.509-0.003c-1.538-0.205-3.668-0.872-5.597-2.312
							c-1.931-1.439-3.178-3.291-3.813-4.706c-0.647-1.425-0.772-2.393-0.718-2.404c0.085-0.025,0.336,0.899,1.048,2.24
							c0.701,1.336,1.945,3.074,3.794,4.453c1.848,1.378,3.868,2.075,5.349,2.367C213.683,202.101,214.641,202.079,214.641,202.167z
							"/>
					</g>
				</g>
				<g>
					<g>
						<path style="fill:#FFFFFF;" d="M228.928,190.882c-0.091-0.008,0.04-1.11-0.157-2.86c-0.188-1.739-0.8-4.145-2.23-6.408
							c-1.431-2.264-3.341-3.85-4.832-4.766c-1.496-0.929-2.548-1.284-2.515-1.369c0.011-0.031,0.284,0.023,0.761,0.181
							c0.477,0.157,1.152,0.436,1.942,0.871c1.575,0.856,3.6,2.454,5.085,4.805c1.485,2.35,2.06,4.864,2.157,6.654
							c0.054,0.9,0.016,1.63-0.047,2.128C229.029,190.616,228.961,190.886,228.928,190.882z"/>
					</g>
				</g>
			</g>
		</g>
		<g>
			<g>
				<path style="fill:#FFBF9D;" d="M243.084,239.473c0,0,6.904,110.875,11.156,121.185c6.887,16.697,18.035,23.021,36.138,16.112
					c20.723-7.909,56.617-73.067,56.617-73.067l-19.472-44.138l-39.037,58.686l-21.639-89.477L243.084,239.473z"/>
			</g>
			<g>
				<g>
					<g>
						<path style="fill:#FFBF9D;" d="M247.018,292.157l-3.523-45.819c0,0-3.581-2.506-3.46-7.122
							c0.121-4.616,0.778-9.413,0.778-9.413l0.199-10.761c0,0-3.734-2.521-4.832-5.466c-1.097-2.945-0.923-5.616,0.506-7.694
							c1.429-2.078,0.692-1.006,0.692-1.006l0.024-4.349c0,0-0.926-0.28-0.747-3.24c0.179-2.96,4.246-11.55,4.246-11.55
							s-4.11,1.251-5.432-1.413c-0.204-0.41,3.518-10.692,5.621-12.462c2.103-1.77,6.618-2.217,9.24-1.722
							c3.206,0.605,4.849,3.344,7.045,5.75c2.019,2.21,14.447,16.943,14.828,19.201c0.381,2.258-0.892,5.725-0.892,5.725
							s0.732,1.963,0.581,5.176s-3.156,30.594-3.156,30.594l13.615,56.299l7.365,30.03"/>
					</g>
					<g>
						<g>
							<path style="fill:#FF9A6C;" d="M289.717,322.915c0,0-0.046-0.134-0.119-0.403c-0.074-0.284-0.178-0.681-0.314-1.2
								c-0.273-1.076-0.67-2.643-1.185-4.678c-1.024-4.11-2.516-10.097-4.403-17.673c-3.706-15.205-8.964-36.78-15.189-62.318
								l-0.01-0.04l0.004-0.042c0.591-5.529,1.209-11.315,1.849-17.3c0.305-2.993,0.614-6.036,0.928-9.121
								c0.137-1.54,0.32-3.102,0.375-4.648c0.027-1.539-0.12-3.134-0.582-4.587l-0.03-0.093l0.029-0.084
								c0.361-1.042,0.654-2.136,0.823-3.238c0.129-1.085,0.299-2.281-0.31-3.173c-1.119-1.951-2.574-3.785-3.977-5.635
								c-2.862-3.679-5.877-7.335-8.985-10.973c-0.579-0.677-1.156-1.332-1.752-1.995l-1.724-2.012
								c-1.138-1.309-2.407-2.552-4.016-3.078c-1.594-0.511-3.371-0.473-5.047-0.289c-1.671,0.219-3.382,0.643-4.69,1.622
								c-0.616,0.488-1.045,1.236-1.475,1.948c-0.412,0.732-0.796,1.481-1.148,2.246c-0.712,1.524-1.35,3.075-1.937,4.633
								c-0.286,0.781-0.574,1.561-0.819,2.345l-0.175,0.587c-0.032,0.099-0.049,0.192-0.072,0.288
								c-0.029,0.095-0.038,0.213-0.048,0.194c-0.029-0.002-0.015,0.037,0.02,0.082l0.074,0.12l0.149,0.24
								c0.134,0.13,0.235,0.295,0.392,0.401c0.578,0.484,1.358,0.696,2.139,0.727c0.78,0.042,1.591-0.07,2.336-0.27l0.527-0.141
								l-0.227,0.489c-1.137,2.444-2.204,4.893-3.109,7.353c-0.434,1.23-0.883,2.473-1.071,3.714
								c-0.091,0.609-0.089,1.268-0.035,1.88c0.026,0.31,0.085,0.612,0.177,0.891c0.072,0.264,0.278,0.563,0.382,0.613l0.173,0.083
								l-0.001,0.15c-0.009,1.476-0.018,2.918-0.027,4.349l-0.435-0.137l0.159-0.231l0.02-0.029l0.01-0.014l0,0.001
								c0.174,0.122-0.394-0.267,0.39,0.274l-0.005,0.007l-0.04,0.058l-0.079,0.115l-0.318,0.461
								c-0.208,0.306-0.432,0.616-0.617,0.916c-0.382,0.607-0.648,1.278-0.809,1.97c-0.328,1.389-0.203,2.847,0.174,4.206
								c0.337,1.394,1.061,2.582,1.988,3.632c0.915,1.045,1.977,1.964,3.082,2.751l0.101,0.072l-0.002,0.118
								c-0.073,3.71-0.143,7.292-0.211,10.76l0,0.012l-0.002,0.013c-0.405,3.128-0.678,6.168-0.779,9.098
								c-0.19,2.902,1.259,5.637,3.357,7.256l0.073,0.056l0.006,0.082c1.053,14.149,1.904,25.6,2.495,33.533
								c0.282,3.949,0.501,7.018,0.651,9.118c0.068,1.032,0.12,1.822,0.156,2.372c0.032,0.535,0.035,0.81,0.035,0.81
								s-0.039-0.272-0.089-0.806c-0.048-0.549-0.118-1.338-0.208-2.368c-0.173-2.098-0.425-5.165-0.75-9.111
								c-0.629-7.929-1.538-19.376-2.661-33.52l0.079,0.138c-2.22-1.693-3.724-4.546-3.542-7.573
								c0.093-2.95,0.359-5.994,0.758-9.143l-0.002,0.025c0.06-3.468,0.123-7.05,0.187-10.761l0.098,0.189
								c-1.151-0.816-2.222-1.74-3.174-2.821c-0.951-1.059-1.75-2.38-2.092-3.808c-0.394-1.412-0.534-2.949-0.186-4.436
								c0.171-0.74,0.456-1.461,0.864-2.113c0.205-0.332,0.418-0.626,0.628-0.937l0.317-0.462l0.079-0.116l0.04-0.058l0.005-0.007
								c0.786,0.539,0.219,0.147,0.395,0.267l0-0.001l-0.01,0.014l-0.02,0.029l-0.159,0.232l-0.439,0.639l0.004-0.776
								c0.007-1.431,0.014-2.873,0.02-4.349l0.172,0.232c-0.48-0.248-0.563-0.593-0.701-0.919c-0.109-0.331-0.172-0.666-0.201-0.999
								c-0.059-0.671-0.062-1.319,0.034-1.995c0.202-1.332,0.654-2.567,1.091-3.817c0.911-2.486,1.977-4.938,3.119-7.399l0.3,0.347
								c-0.823,0.221-1.651,0.335-2.508,0.293c-0.844-0.035-1.739-0.261-2.439-0.843c-0.347-0.308-0.629-0.605-0.803-1.115
								c-0.019-0.228,0.027-0.311,0.046-0.417c0.025-0.106,0.047-0.216,0.079-0.315l0.18-0.605c0.25-0.8,0.538-1.584,0.826-2.372
								c0.59-1.569,1.231-3.13,1.95-4.671c0.355-0.772,0.744-1.534,1.166-2.284c0.446-0.732,0.873-1.51,1.604-2.098
								c1.454-1.082,3.217-1.496,4.944-1.73c1.738-0.186,3.532-0.242,5.278,0.311c1.753,0.576,3.089,1.905,4.241,3.227l1.721,2.009
								c0.587,0.652,1.182,1.327,1.757,2.001c3.115,3.646,6.131,7.304,9,10.995c1.412,1.867,2.854,3.674,4.022,5.709
								c0.154,0.242,0.274,0.535,0.374,0.847c0.093,0.302,0.098,0.6,0.112,0.897c0.016,0.594-0.038,1.177-0.124,1.75
								c-0.177,1.148-0.473,2.251-0.85,3.337l0-0.177c0.501,1.58,0.635,3.181,0.61,4.776c-0.059,1.595-0.243,3.138-0.381,4.686
								c-0.317,3.086-0.63,6.13-0.938,9.124c-0.647,5.984-1.274,11.771-1.872,17.299l-0.005-0.081
								c6.149,25.556,11.344,47.146,15.005,62.362c1.832,7.59,3.28,13.587,4.274,17.705c0.484,2.043,0.858,3.616,1.114,4.695
								c0.12,0.523,0.211,0.924,0.277,1.209C289.696,322.774,289.717,322.915,289.717,322.915z"/>
						</g>
					</g>
				</g>
				<g>
					<g>
						<path style="fill:#FFBF9D;" d="M240.902,185.737c0.941-2.03,2.082-4.249,4.186-5.01c1.331-0.481,2.834-0.265,4.134,0.292
							c1.301,0.557,2.437,1.43,3.554,2.299c6.192,4.818,12.317,9.863,17.076,16.1"/>
					</g>
					<g>
						<g>
							<path style="fill:#FF9A6C;" d="M269.852,199.418c-0.029,0.022-0.389-0.384-1.02-1.132c-0.649-0.733-1.568-1.809-2.784-3.064
								c-2.406-2.536-5.989-5.782-10.161-9.115c-1.046-0.829-2.068-1.639-3.056-2.422c-0.991-0.779-1.941-1.524-2.934-2.07
								c-0.987-0.553-2.024-0.884-3.017-0.933c-0.992-0.057-1.907,0.206-2.614,0.665c-1.425,0.937-2.113,2.254-2.606,3.071
								c-0.478,0.85-0.721,1.337-0.758,1.319c-0.028-0.013,0.152-0.526,0.579-1.414c0.448-0.854,1.078-2.229,2.585-3.286
								c0.747-0.516,1.76-0.832,2.832-0.787c1.071,0.032,2.19,0.376,3.229,0.943c1.047,0.56,2.025,1.317,3.019,2.089
								c0.992,0.782,2.018,1.59,3.069,2.419c4.183,3.342,7.753,6.654,10.103,9.269c1.188,1.295,2.07,2.413,2.673,3.188
								C269.574,198.948,269.88,199.396,269.852,199.418z"/>
						</g>
					</g>
				</g>
				<g>
					<g>
						<path style="fill:#FFBF9D;" d="M237.29,200.52c0.438-1.553,0.886-3.131,1.75-4.494c0.864-1.363,2.217-2.505,3.816-2.725
							c1.943-0.266,3.782,0.834,5.435,1.89c3.361,2.147,6.721,4.294,10.081,6.442"/>
					</g>
					<g>
						<g>
							<path style="fill:#FF9A6C;" d="M258.372,201.633c-0.019,0.03-0.362-0.148-0.966-0.497c-0.603-0.349-1.468-0.867-2.529-1.518
								c-2.128-1.278-5.028-3.18-8.249-5.123c-0.818-0.444-1.66-0.797-2.504-0.925c-0.843-0.136-1.674-0.018-2.386,0.308
								c-1.443,0.657-2.368,1.874-2.935,2.936c-0.575,1.081-0.883,2.043-1.117,2.695c-0.227,0.657-0.36,1.02-0.396,1.01
								c-0.033-0.01,0.034-0.39,0.202-1.068c0.176-0.674,0.43-1.663,0.983-2.806c0.549-1.123,1.486-2.452,3.064-3.204
								c0.78-0.375,1.73-0.521,2.659-0.376c0.933,0.135,1.83,0.512,2.678,0.972c3.284,1.981,6.107,3.904,8.199,5.27
								c1.036,0.69,1.87,1.256,2.44,1.658C258.085,201.366,258.391,201.602,258.372,201.633z"/>
						</g>
					</g>
				</g>
				<g>
					<g>
						<path style="fill:#FFBF9D;" d="M237.355,204.836c1.961-1.376,4.2-2.82,6.561-2.421c1.88,0.317,3.353,1.736,4.698,3.086
							c2.689,2.698,5.378,5.396,8.067,8.094"/>
					</g>
					<g>
						<g>
							<path style="fill:#FF9A6C;" d="M256.681,213.595c-0.051,0.051-1.058-0.868-2.645-2.393c-1.587-1.523-3.753-3.664-6.124-6.031
								c-1.179-1.16-2.438-2.169-3.805-2.471c-1.362-0.321-2.649,0.052-3.631,0.468c-1.971,0.902-3.065,1.761-3.121,1.668
								c-0.02-0.028,0.237-0.255,0.731-0.625c0.499-0.363,1.228-0.892,2.239-1.379c0.994-0.471,2.367-0.926,3.887-0.6
								c1.523,0.312,2.869,1.393,4.064,2.567c2.382,2.378,4.499,4.552,6.021,6.144C255.817,212.534,256.732,213.544,256.681,213.595
								z"/>
						</g>
					</g>
				</g>
				<g>
					<g>
						<path style="fill:#FFBF9D;" d="M240.309,214.239c2.116,2.37,4.493,4.508,7.075,6.361"/>
					</g>
					<g>
						<g>
							<path style="fill:#FF9A6C;" d="M247.384,220.6c-0.076,0.114-1.916-1.016-3.886-2.792c-1.976-1.771-3.294-3.48-3.189-3.568
								c0.113-0.099,1.588,1.435,3.537,3.181C245.789,219.172,247.471,220.477,247.384,220.6z"/>
						</g>
					</g>
				</g>
				<g>
					<g>
						<path style="fill:#FFBF9D;" d="M259.383,217.127c0.925,2.305,0.793,5.011-0.352,7.216"/>
					</g>
					<g>
						<g>
							<path style="fill:#FF9A6C;" d="M259.031,224.342c-0.143-0.068,0.609-1.572,0.692-3.582c0.113-2.009-0.489-3.579-0.34-3.633
								c0.108-0.075,0.976,1.507,0.861,3.658C260.149,222.937,259.131,224.428,259.031,224.342z"/>
						</g>
					</g>
				</g>
				<g>
					<g>
						<path style="fill:#FFBF9D;" d="M264.792,207.766c1.527,0.577,2.814,1.766,3.509,3.243c0.696,1.477,0.793,3.226,0.265,4.771"/>
					</g>
					<g>
						<g>
							<path style="fill:#FF9A6C;" d="M268.567,215.78c-0.078-0.026,0.076-0.555,0.119-1.417c0.047-0.855-0.066-2.066-0.619-3.243
								c-0.555-1.177-1.416-2.035-2.106-2.543c-0.692-0.516-1.198-0.734-1.168-0.811c0.018-0.058,0.583,0.038,1.373,0.505
								c0.783,0.456,1.767,1.343,2.372,2.628c0.604,1.284,0.661,2.608,0.514,3.502C268.909,215.305,268.622,215.803,268.567,215.78z
								"/>
						</g>
					</g>
				</g>
			</g>
			<g>
				<g>
					<path style="fill:#FF9A6C;" d="M296.13,352.651c-0.036,0.005-0.145-0.487-0.312-1.379c-0.185-0.99-0.421-2.259-0.705-3.78
						c-0.603-3.189-1.506-7.58-2.703-12.383c-1.201-4.804-2.467-9.105-3.433-12.203c-0.464-1.475-0.851-2.707-1.154-3.668
						c-0.272-0.867-0.407-1.352-0.373-1.364c0.034-0.012,0.233,0.45,0.564,1.297c0.334,0.846,0.784,2.082,1.312,3.62
						c1.058,3.075,2.384,7.373,3.588,12.191c1.2,4.817,2.049,9.234,2.56,12.446c0.257,1.606,0.44,2.909,0.543,3.813
						C296.124,352.144,296.165,352.646,296.13,352.651z"/>
				</g>
			</g>
			<g>
				<g>
					<path style="fill:#FF725E;" d="M316.196,248.091c6.598-6.866,17.404-7.862,24.883-1.968c3.024,2.383,5.865,5.412,7.847,9.213
						c2.935,5.627,7.51,20.061,7.052,34.846c-0.722,23.313-11.318,64.524-11.318,64.524l-57.071-39.468l-2.514-10.252l14.782-32.573
						l10.731-18.488L316.196,248.091z"/>
				</g>
				<g>
					<g>
						<path style="fill:#263238;" d="M331.636,242.346c-0.009,0.062-1.05-0.209-2.957-0.182c-1.892,0.054-4.679,0.526-7.695,2.122
							c-3.033,1.548-6.131,4.291-8.832,7.899c-2.722,3.596-5.172,7.949-7.775,12.475c-5.161,9.093-9.27,17.629-12.078,23.877
							c-1.404,3.125-2.486,5.677-3.24,7.439c-0.36,0.845-0.648,1.521-0.865,2.03c-0.203,0.462-0.317,0.702-0.334,0.695
							c-0.017-0.007,0.065-0.259,0.236-0.734c0.195-0.519,0.452-1.207,0.775-2.068c0.697-1.786,1.729-4.363,3.092-7.512
							c2.724-6.294,6.79-14.873,11.961-23.984c2.608-4.533,5.072-8.886,7.847-12.51c2.749-3.63,5.935-6.402,9.045-7.934
							c3.091-1.581,5.942-2.005,7.861-1.997C330.612,241.997,331.636,242.346,331.636,242.346z"/>
					</g>
				</g>
				<g>
					<g>
						<path style="fill:#FFFFFF;" d="M351.21,323.599c-0.01,0.015-0.221-0.099-0.615-0.33c-0.436-0.263-1.003-0.606-1.708-1.033
							c-1.53-0.936-3.655-2.237-6.259-3.83c-5.29-3.224-12.64-7.609-20.909-12.182c-4.141-2.278-8.122-4.38-11.769-6.241
							c-3.661-1.831-6.972-3.456-9.794-4.728c-1.402-0.656-2.684-1.22-3.813-1.709c-1.124-0.498-2.095-0.922-2.898-1.248
							c-0.758-0.323-1.367-0.582-1.835-0.782c-0.418-0.184-0.634-0.289-0.628-0.306c0.006-0.017,0.235,0.055,0.665,0.208
							c0.478,0.176,1.099,0.406,1.873,0.691c0.815,0.297,1.799,0.694,2.936,1.168c1.141,0.464,2.436,1.005,3.85,1.641
							c2.847,1.232,6.179,2.825,9.859,4.635c3.665,1.84,7.659,3.933,11.805,6.213c8.28,4.579,15.608,9.018,20.852,12.325
							c2.625,1.648,4.729,3.014,6.174,3.972c0.684,0.461,1.234,0.831,1.656,1.115C351.028,323.441,351.22,323.584,351.21,323.599z"
							/>
					</g>
				</g>
				<g>
					<g>
						<path style="fill:#FFFFFF;" d="M355.926,283.366c-0.011,0.014-0.175-0.089-0.475-0.296c-0.344-0.246-0.773-0.553-1.298-0.928
							c-0.554-0.415-1.24-0.91-2.072-1.435c-0.825-0.534-1.741-1.177-2.818-1.787c-2.105-1.299-4.711-2.676-7.644-4.122
							c-2.949-1.416-6.239-2.876-9.718-4.354c-3.483-1.474-6.806-2.877-9.802-4.216c-2.991-1.35-5.659-2.629-7.844-3.812
							c-1.107-0.562-2.068-1.147-2.924-1.637c-0.86-0.483-1.577-0.939-2.155-1.325c-0.538-0.358-0.979-0.65-1.332-0.884
							c-0.301-0.207-0.454-0.323-0.445-0.338c0.01-0.015,0.182,0.071,0.501,0.25c0.366,0.212,0.822,0.476,1.381,0.8
							c0.592,0.358,1.322,0.788,2.193,1.245c0.867,0.464,1.836,1.025,2.95,1.564c2.198,1.137,4.874,2.376,7.868,3.699
							c3.001,1.311,6.325,2.699,9.811,4.175c3.483,1.479,6.777,2.957,9.726,4.402c2.934,1.475,5.536,2.893,7.627,4.239
							c1.07,0.633,1.976,1.302,2.789,1.861c0.82,0.55,1.492,1.071,2.029,1.512c0.502,0.408,0.913,0.741,1.241,1.008
							C355.796,283.223,355.937,283.353,355.926,283.366z"/>
					</g>
				</g>
			</g>
		</g>
	</g>
</g>
</svg>
