<?xml version="1.0" encoding="utf-8"?>
<!-- Generator: Adobe Illustrator 27.5.0, SVG Export Plug-In . SVG Version: 6.00 Build 0)  -->
<svg version="1.1" xmlns="http://www.w3.org/2000/svg" xmlns:xlink="http://www.w3.org/1999/xlink" x="0px" y="0px"
	 viewBox="0 0 500 500" style="enable-background:new 0 0 500 500;" xml:space="preserve">
<g id="Background_Complete">
	<g>
		<g>
			<g>
				<g>
					<g>
						<g>
							<path style="fill:#F5F5F5;" d="M377.707,306.165c-15.786-13.767-17.273-36.323-14.453-56.15
								c0.47-3.31,0.483-6.851,2.377-9.595c1.895-2.743,5.796-4.338,8.62-2.618c2.342,1.427,3.107,4.413,4.232,6.934
								c1.496,3.356,3.95,6.263,6.989,8.281c1.997,1.326,4.542,2.279,6.754,1.352c3.036-1.272,3.8-5.194,4.136-8.501
								c0.625-6.162,1.251-12.324,1.875-18.485c0.335-3.306,0.689-6.68,2.055-9.705c1.365-3.025,3.95-5.693,7.188-6.235
								c3.238-0.541,6.929,1.689,7.245,4.995c0.131,1.375-0.293,2.743-0.349,4.124c-0.056,1.382,0.419,2.968,1.681,3.49
								c1.277,0.53,2.7-0.265,3.792-1.125c3.77-2.968,6.547-7.016,9.17-11.057c2.623-4.04,5.194-8.189,8.68-11.494
								c3.486-3.305,8.077-5.727,12.837-5.485c4.761,0.242,9.487,3.706,10.182,8.48c0.697,4.787-2.53,9.22-5.893,12.671
								c-4.99,5.121-10.713,9.509-16.932,12.982c-1.121,0.627-2.336,1.304-2.866,2.485c-0.955,2.125,0.896,4.538,2.993,5.496
								c2.374,1.086,5.074,1.118,7.617,1.699c2.543,0.581,5.212,2.018,5.924,4.558c0.989,3.523-2.216,6.758-5.245,8.777
								c-6.065,4.043-12.814,7.025-19.86,8.778c-2.526,0.627-5.168,1.132-7.312,2.628c-2.144,1.497-3.647,4.339-2.714,6.793
								c0.934,2.458,3.893,3.53,6.489,3.332c2.595-0.197,5.024-1.334,7.548-1.988c4.725-1.224,10.554-0.28,13.04,3.958
								c1.633,2.785,1.415,6.395,0.116,9.365c-1.297,2.97-3.544,5.407-5.889,7.625c-8.197,7.753-18.253,13.622-29.18,16.139
								C397.627,311.185,387.761,311.122,377.707,306.165"/>
						</g>
					</g>
				</g>
			</g>
		</g>
		<g>
			<g>
				<g>
					<g>
						<g>
							<g>
								<path style="fill:#E0E0E0;" d="M384.188,294.244c4.011-9.727,9.293-20.025,15.186-30.606
									c1.483-2.639,2.949-5.248,4.393-7.818c1.448-2.563,2.883-5.104,4.441-7.503c3.095-4.813,6.438-9.204,9.741-13.273
									c3.302-4.072,6.585-7.816,9.679-11.293c3.104-3.473,6.057-6.655,8.872-9.441c5.616-5.594,10.67-9.562,14.251-12.144
									c1.788-1.297,3.208-2.258,4.18-2.896c0.467-0.302,0.833-0.54,1.109-0.719c0.252-0.158,0.383-0.235,0.389-0.227
									c0.007,0.009-0.114,0.104-0.354,0.279c-0.267,0.191-0.623,0.445-1.075,0.769c-0.948,0.671-2.345,1.663-4.11,2.987
									c-3.532,2.638-8.526,6.644-14.087,12.26c-2.789,2.797-5.716,5.989-8.798,9.472c-3.076,3.491-6.339,7.24-9.622,11.311
									c-3.282,4.069-6.602,8.451-9.673,13.242c-1.546,2.388-2.966,4.909-4.415,7.478c-1.443,2.569-2.906,5.177-4.388,7.815
									c-5.888,10.573-11.172,20.838-15.2,30.524"/>
							</g>
						</g>
					</g>
				</g>
			</g>
		</g>
		<g>
			<g>
				<g>
					<g>
						<g>
							<g>
								<path style="fill:#E0E0E0;" d="M408.385,248.311c-0.042,0.002-0.1-0.512-0.171-1.444c-0.075-0.932-0.139-2.283-0.194-3.953
									c-0.113-3.34-0.111-7.958-0.089-13.048c0.022-5.094-0.042-9.698-0.205-13.027c-0.077-1.665-0.153-3.012-0.217-3.942
									c-0.059-0.931-0.072-1.449-0.03-1.454c0.042-0.005,0.135,0.503,0.266,1.429c0.137,0.925,0.279,2.271,0.411,3.937
									c0.275,3.334,0.408,7.957,0.386,13.055c-0.034,5.024-0.065,9.568-0.089,13.041c-0.001,1.569,0,2.891,0,3.952
									C408.448,247.791,408.427,248.309,408.385,248.311z"/>
							</g>
						</g>
					</g>
				</g>
			</g>
		</g>
		<g>
			<g>
				<g>
					<g>
						<g>
							<g>
								<path style="fill:#E0E0E0;" d="M451.717,244.951c-0.004,0.042-0.615,0.047-1.716,0.02c-1.1-0.02-2.692-0.059-4.66-0.043
									c-3.936,0.001-9.372,0.192-15.361,0.665c-5.99,0.484-11.392,1.153-15.285,1.75c-1.95,0.284-3.521,0.557-4.608,0.739
									c-1.087,0.186-1.692,0.27-1.702,0.228c-0.009-0.042,0.581-0.205,1.656-0.465c1.075-0.254,2.639-0.593,4.586-0.935
									c3.887-0.709,9.299-1.449,15.307-1.935c6.006-0.474,11.466-0.597,15.413-0.485c1.974,0.04,3.568,0.144,4.668,0.24
									C451.114,244.832,451.719,244.907,451.717,244.951z"/>
							</g>
						</g>
					</g>
				</g>
			</g>
		</g>
		<g>
			<g>
				<g>
					<g>
						<g>
							<g>
								<path style="fill:#E0E0E0;" d="M384.795,293.519c-0.02,0.007-0.1-0.182-0.236-0.549c-0.152-0.437-0.337-0.97-0.561-1.615
									c-0.481-1.404-1.123-3.455-1.884-5.999c-1.525-5.087-3.41-12.18-5.385-20.035c-1.976-7.858-3.793-14.959-5.209-20.07
									c-0.696-2.486-1.27-4.53-1.695-6.05c-0.181-0.659-0.33-1.203-0.452-1.649c-0.097-0.378-0.138-0.581-0.118-0.588
									c0.02-0.005,0.1,0.183,0.236,0.551c0.151,0.437,0.336,0.969,0.561,1.614c0.481,1.405,1.123,3.455,1.884,5.999
									c1.525,5.087,3.41,12.18,5.385,20.038c1.975,7.856,3.792,14.956,5.208,20.068c0.697,2.485,1.27,4.53,1.695,6.048
									c0.181,0.659,0.33,1.204,0.452,1.649C384.774,293.31,384.815,293.512,384.795,293.519z"/>
							</g>
						</g>
					</g>
				</g>
			</g>
		</g>
		<g>
			<g>
				<g>
					<g>
						<g>
							<g>
								<path style="fill:#E0E0E0;" d="M443.2,281.41c0.003,0.021-0.198,0.079-0.585,0.171c-0.457,0.1-1.019,0.223-1.698,0.373
									c-1.567,0.328-3.682,0.77-6.255,1.307c-5.282,1.105-12.559,2.715-20.598,4.505c-8.041,1.792-15.341,3.336-20.647,4.332
									c-2.653,0.499-4.803,0.881-6.295,1.114c-0.689,0.104-1.257,0.189-1.719,0.259c-0.394,0.052-0.604,0.069-0.607,0.048
									c-0.003-0.021,0.199-0.079,0.585-0.172c0.456-0.099,1.017-0.222,1.698-0.372c1.567-0.328,3.681-0.769,6.254-1.307
									c5.282-1.104,12.56-2.715,20.602-4.506c8.039-1.791,15.338-3.335,20.644-4.331c2.653-0.499,4.803-0.881,6.296-1.114
									c0.689-0.104,1.256-0.19,1.719-0.259C442.988,281.406,443.196,281.389,443.2,281.41z"/>
							</g>
						</g>
					</g>
				</g>
			</g>
		</g>
	</g>
	<g>
		<g>
			<g>
				<path style="fill:#EBEBEB;" d="M48.558,135.186c0,0-6.233,2.525,0.956,15.758c7.19,13.233,12.102,19.75,12.102,19.75
					s1.294,3.082-1.314,3.633c-2.608,0.552-8.403-0.219-9.487,3.018c-1.125,3.357,1.372,6.432,6.342,9.058
					c4.97,2.625,15.647,8.777,16.61,9.337c0.946,0.55,1.917,1.974,0.2,2.635c-1.717,0.661-14.661,2.351-13.491,8.446
					c1.17,6.094,16.217,11.134,17.851,11.716c1.634,0.583,2.039,1.258,1.93,2.15c-0.109,0.892-4.514,1.05-8.175,1.682
					c-3.662,0.632-7.798,2.006-6.828,5.466c0.97,3.46,9.989,10.547,31.483,12.093l10.007,0.064l5.222-8.588
					c10.056-19.06,8.811-30.463,6.387-33.115c-2.423-2.653-5.777,0.13-8.25,2.904c-2.473,2.774-4.937,6.428-5.751,6.049
					c-0.814-0.379-1.174-1.08-0.804-2.775c0.37-1.695,4.051-17.13-0.503-21.346c-4.553-4.216-12.835,5.876-14.303,6.983
					c-1.468,1.107-2.164-0.47-2.13-1.564c0.034-1.114,0.46-13.429,0.86-19.035c0.4-5.606-0.889-9.352-4.333-10.173
					c-3.321-0.792-5.731,4.534-7.579,6.456c-1.848,1.922-3.778-0.807-3.778-0.807s-2.933-7.615-10.362-20.716
					c-7.429-13.101-12.985-9.019-12.985-9.019"/>
			</g>
		</g>
		<g>
			<g>
				<g>
					<path style="fill:#E0E0E0;" d="M107.323,242.33c-5.418-9.643-14.76-26.943-22.857-41.754
						c-8.095-14.806-15.436-28.205-20.805-37.874c-2.685-4.824-4.859-8.731-6.37-11.444c-0.746-1.343-1.328-2.39-1.73-3.113
						c-0.19-0.349-0.337-0.619-0.443-0.813c-0.098-0.184-0.142-0.282-0.142-0.282s0.062,0.088,0.169,0.267
						c0.112,0.19,0.268,0.456,0.47,0.798c0.414,0.717,1.013,1.754,1.781,3.085c1.543,2.68,3.749,6.575,6.456,11.397
						c5.418,9.643,12.791,23.026,20.885,37.832c8.098,14.811,17.408,32.127,22.777,41.796"/>
				</g>
			</g>
		</g>
		<g>
			<g>
				<g>
					<path style="fill:#E0E0E0;" d="M58.878,178.75c0.007-0.02,0.257,0.044,0.702,0.176c0.447,0.131,1.086,0.339,1.875,0.603
						c1.575,0.532,3.733,1.322,6.097,2.238c2.329,0.911,4.434,1.735,6.045,2.365c0.728,0.279,1.342,0.515,1.835,0.705
						c0.434,0.165,0.672,0.265,0.665,0.286s-0.257-0.041-0.704-0.171c-0.446-0.132-1.087-0.34-1.872-0.613
						c-1.57-0.548-3.717-1.366-6.081-2.281c-2.334-0.894-4.444-1.702-6.059-2.321c-0.729-0.276-1.345-0.509-1.84-0.696
						C59.108,178.873,58.871,178.771,58.878,178.75z"/>
				</g>
			</g>
		</g>
		<g>
			<g>
				<g>
					<path style="fill:#E0E0E0;" d="M76.764,184.466c-0.081-0.027,1.352-4.546,3.201-10.092c1.85-5.548,3.415-10.022,3.497-9.995
						c0.081,0.027-1.352,4.545-3.202,10.093C78.411,180.018,76.845,184.493,76.764,184.466z"/>
				</g>
			</g>
		</g>
		<g>
			<g>
				<g>
					<path style="fill:#E0E0E0;" d="M88.171,207.768c-0.017-0.013,0.123-0.236,0.39-0.628c0.306-0.443,0.689-0.995,1.143-1.651
						c0.962-1.395,2.284-3.328,3.663-5.514c1.385-2.184,2.569-4.203,3.415-5.672c0.399-0.691,0.735-1.273,1.004-1.739
						c0.239-0.41,0.381-0.632,0.4-0.622c0.019,0.01-0.086,0.251-0.293,0.679c-0.207,0.427-0.518,1.04-0.918,1.789
						c-0.798,1.499-1.956,3.542-3.345,5.732c-1.383,2.192-2.737,4.111-3.747,5.476c-0.508,0.681-0.925,1.227-1.224,1.595
						C88.361,207.582,88.189,207.78,88.171,207.768z"/>
				</g>
			</g>
		</g>
		<g>
			<g>
				<g>
					<path style="fill:#E0E0E0;" d="M70.856,206.159c0.002-0.021,0.245-0.022,0.683-0.006c0.504,0.027,1.124,0.06,1.854,0.099
						c1.565,0.097,3.724,0.252,6.108,0.443c2.384,0.191,4.542,0.381,6.102,0.534c0.728,0.078,1.344,0.144,1.846,0.197
						c0.435,0.054,0.675,0.093,0.674,0.115c-0.002,0.021-0.245,0.022-0.683,0.006c-0.504-0.027-1.124-0.06-1.854-0.099
						c-1.565-0.097-3.724-0.252-6.109-0.443c-2.384-0.191-4.541-0.381-6.101-0.534c-0.727-0.078-1.344-0.144-1.846-0.197
						C71.094,206.22,70.854,206.18,70.856,206.159z"/>
				</g>
			</g>
		</g>
		<g>
			<g>
				<g>
					<path style="fill:#E0E0E0;" d="M78.313,228.01c0.002-0.021,0.313-0.02,0.874,0.001c0.619,0.031,1.418,0.07,2.377,0.118
						c2.006,0.113,4.775,0.291,7.833,0.506c3.058,0.215,5.826,0.428,7.828,0.597c0.956,0.087,1.752,0.16,2.37,0.216
						c0.559,0.058,0.867,0.1,0.866,0.122c-0.002,0.021-0.313,0.02-0.874-0.001c-0.619-0.031-1.418-0.07-2.377-0.118
						c-2.006-0.113-4.776-0.291-7.834-0.506c-3.057-0.215-5.824-0.428-7.826-0.597c-0.956-0.087-1.752-0.16-2.37-0.216
						C78.62,228.073,78.311,228.031,78.313,228.01z"/>
				</g>
			</g>
		</g>
		<g>
			<g>
				<g>
					<path style="fill:#E0E0E0;" d="M99.941,229.383c-0.018-0.012,0.152-0.299,0.474-0.808c0.354-0.554,0.816-1.276,1.373-2.146
						c1.157-1.813,2.746-4.323,4.422-7.144c1.68-2.819,3.134-5.41,4.173-7.293c0.5-0.904,0.915-1.655,1.232-2.23
						c0.293-0.525,0.465-0.812,0.484-0.802c0.019,0.01-0.116,0.315-0.376,0.858c-0.26,0.543-0.649,1.323-1.146,2.278
						c-0.991,1.912-2.416,4.525-4.1,7.349c-1.678,2.825-3.299,5.322-4.505,7.106c-0.605,0.891-1.102,1.606-1.456,2.093
						C100.162,229.131,99.958,229.395,99.941,229.383z"/>
				</g>
			</g>
		</g>
	</g>
	<g>
		<g>
			<g>
				
					<rect x="394.382" y="339.348" transform="matrix(0.1907 -0.9817 0.9817 0.1907 -32.5545 724.5842)" style="fill:#EBEBEB;" width="57.545" height="85.374"/>
			</g>
		</g>
		<g>
			<g>
				<g>
					<g>
						<path style="fill:#E0E0E0;" d="M470.68,362.661c0.013,0.023-0.306,0.229-0.926,0.6c-0.689,0.401-1.596,0.93-2.73,1.591
							c-2.462,1.394-5.9,3.342-10.121,5.732c-8.652,4.814-20.494,11.404-33.611,18.704l-0.277,0.154l-0.206-0.242
							c-0.157-0.185-0.327-0.384-0.498-0.585c-9.811-11.595-18.69-22.088-25.182-29.76c-3.153-3.784-5.723-6.868-7.563-9.076
							c-0.842-1.036-1.516-1.865-2.026-2.493c-0.457-0.576-0.687-0.886-0.666-0.903c0.02-0.017,0.29,0.259,0.785,0.802
							c0.538,0.604,1.249,1.402,2.137,2.399c1.886,2.169,4.52,5.199,7.751,8.916c6.536,7.634,15.476,18.075,25.355,29.613
							c0.17,0.2,0.341,0.4,0.498,0.585l-0.482-0.088c13.161-7.22,25.042-13.739,33.723-18.502c4.27-2.301,7.749-4.176,10.239-5.518
							c1.163-0.609,2.094-1.095,2.8-1.465C470.323,362.798,470.667,362.638,470.68,362.661z"/>
					</g>
				</g>
			</g>
		</g>
		<g>
			<g>
				<g>
					<path style="fill:#E0E0E0;" d="M375.9,402.872c-0.134-0.167,7.672-6.686,17.434-14.56c9.765-7.876,17.787-14.124,17.922-13.957
						c0.134,0.166-7.67,6.684-17.435,14.561C384.059,396.789,376.035,403.039,375.9,402.872z"/>
				</g>
			</g>
		</g>
		<g>
			<g>
				<g>
					<path style="fill:#E0E0E0;" d="M439.251,379.06c0.191-0.097,4.925,8.799,10.573,19.868c5.65,11.073,10.074,20.125,9.884,20.222
						c-0.191,0.097-4.924-8.797-10.574-19.87C443.486,388.211,439.06,379.157,439.251,379.06z"/>
				</g>
			</g>
		</g>
	</g>
	<g>
		<g>
			<g>
				<g>
					<path style="fill:#E0E0E0;" d="M434.082,99.641c0,0.033-0.493,0.064-1.431,0.095c-1.026,0.022-2.392,0.051-4.104,0.088
						c-3.662,0.036-8.794,0.087-15.094,0.149c-12.83,0.035-30.394,0.084-49.797,0.138c-1.216,0-2.425,0-3.55-0.001l-0.471,0
						l0.001-0.469c0.057-18.601,0.108-35.281,0.145-47.427c0.061-5.956,0.111-10.795,0.147-14.25
						c0.036-1.609,0.064-2.893,0.086-3.862c0.03-0.882,0.06-1.344,0.092-1.344s0.062,0.462,0.092,1.344
						c0.021,0.969,0.05,2.253,0.086,3.862c0.036,3.455,0.085,8.293,0.147,14.25c0.037,12.146,0.088,28.826,0.145,47.427
						l-0.469-0.469c1.125,0,2.334,0,3.55-0.001c19.403,0.054,36.967,0.102,49.797,0.138c6.3,0.062,11.432,0.113,15.094,0.149
						c1.712,0.037,3.078,0.066,4.104,0.088C433.589,99.577,434.082,99.609,434.082,99.641z"/>
				</g>
			</g>
		</g>
		<g>
			<g>
				<g>
					<path style="fill:#E0E0E0;" d="M425.863,48.985c0.042,0.05-0.746,0.798-2.208,2.108c-1.595,1.4-3.7,3.248-6.245,5.483
						c-5.3,4.598-12.664,10.901-20.834,17.818l-1.238,1.047l-0.318,0.269l-0.304-0.283c-3.266-3.035-6.384-5.933-9.266-8.611
						l0.577,0.013c-5.456,4.5-10.141,8.364-13.608,11.224c-1.601,1.28-2.918,2.333-3.949,3.159
						c-0.928,0.722-1.443,1.093-1.475,1.055c-0.032-0.038,0.422-0.482,1.292-1.273c0.99-0.875,2.253-1.992,3.788-3.35
						c3.412-2.926,8.022-6.88,13.39-11.484l0.291-0.25l0.287,0.264c2.895,2.663,6.029,5.545,9.31,8.563l-0.622-0.013l1.237-1.048
						c8.17-6.917,15.602-13.139,21.012-17.608c2.624-2.142,4.794-3.913,6.438-5.255C424.953,49.59,425.821,48.936,425.863,48.985z"
						/>
				</g>
			</g>
		</g>
		<g>
			<g>
				<g>
					<path style="fill:#E0E0E0;" d="M425.863,64.484c-0.126,0-0.24-1.756-0.325-4.616c-0.084-2.861-0.139-6.826-0.145-11.245
						l0.469,0.469c-0.253,0-0.525,0.001-0.799,0.001c-4.602,0-8.768-0.053-11.783-0.138c-3.015-0.085-4.88-0.202-4.88-0.332
						c0-0.13,1.865-0.247,4.88-0.332c3.015-0.085,7.181-0.138,11.783-0.138c0.274,0,0.546,0,0.799,0l0.47,0l0,0.469
						c-0.006,4.419-0.061,8.385-0.145,11.245C426.103,62.729,425.989,64.484,425.863,64.484z"/>
				</g>
			</g>
		</g>
	</g>
	<g>
		<g>
			<g>
				<g>
					<g>
						<path style="fill:#E0E0E0;" d="M45.48,346.181c1.428-0.863,2.949-1.518,4.517-1.963l0.93-4.471l7.554-0.133l1.087,4.435
							c1.583,0.39,3.126,0.991,4.583,1.803l3.818-2.503l5.435,5.248l-2.366,3.902c0.863,1.429,1.518,2.95,1.963,4.518l4.471,0.93
							l0.133,7.554l-4.435,1.087c-0.39,1.583-0.991,3.125-1.803,4.583l2.502,3.818l-5.247,5.435l-3.903-2.367
							c-1.428,0.863-2.949,1.518-4.518,1.963l-0.931,4.471l-7.554,0.133l-1.087-4.435c-1.583-0.39-3.125-0.991-4.583-1.803
							l-3.818,2.503l-5.435-5.248l2.366-3.903c-0.863-1.429-1.518-2.949-1.963-4.518l-4.471-0.93l-0.132-7.554l4.435-1.088
							c0.39-1.583,0.991-3.125,1.803-4.583l-2.502-3.818l5.247-5.435L45.48,346.181L45.48,346.181z M49.507,356.244
							c-3.109,3.22-3.019,8.351,0.201,11.46c3.22,3.109,8.351,3.019,11.46-0.202c3.109-3.22,3.019-8.351-0.201-11.46
							C57.746,352.934,52.616,353.024,49.507,356.244z"/>
					</g>
				</g>
			</g>
			<g>
				<g>
					<g>
						<g>
							<path style="fill:#E0E0E0;" d="M49.507,356.244c0,0,0.424-0.597,1.509-1.324c1.065-0.71,2.927-1.499,5.287-1.25
								c1.162,0.131,2.434,0.51,3.594,1.277c1.147,0.767,2.23,1.858,2.906,3.274c0.356,0.695,0.603,1.468,0.737,2.275
								c0.146,0.805,0.166,1.652,0.046,2.495c-0.205,1.693-1.006,3.361-2.25,4.673c-1.266,1.29-2.906,2.149-4.591,2.414
								c-0.838,0.151-1.685,0.16-2.496,0.042c-0.811-0.106-1.592-0.325-2.3-0.657c-1.439-0.626-2.568-1.67-3.375-2.79
								c-0.807-1.132-1.23-2.39-1.402-3.547c-0.332-2.35,0.392-4.238,1.064-5.328C48.924,356.689,49.507,356.244,49.507,356.244
								c0.044,0.037-0.489,0.532-1.114,1.644c-0.61,1.093-1.256,2.938-0.896,5.188c0.185,1.108,0.608,2.304,1.391,3.373
								c0.783,1.057,1.866,2.04,3.235,2.622c0.673,0.31,1.414,0.513,2.183,0.608c0.767,0.107,1.569,0.095,2.361-0.051
								c1.593-0.256,3.136-1.07,4.334-2.288c1.175-1.24,1.933-2.81,2.133-4.411c0.118-0.796,0.102-1.598-0.032-2.361
								c-0.122-0.764-0.351-1.498-0.684-2.16c-0.629-1.348-1.65-2.396-2.733-3.141c-1.096-0.745-2.306-1.126-3.42-1.272
								c-2.262-0.281-4.083,0.429-5.154,1.077C50.021,355.737,49.545,356.287,49.507,356.244z"/>
						</g>
					</g>
				</g>
			</g>
			<g>
				<g>
					<g>
						<g>
							<path style="fill:#E0E0E0;" d="M45.48,346.181c0,0.007-0.084-0.038-0.252-0.133c-0.184-0.106-0.43-0.248-0.749-0.433
								c-0.682-0.403-1.665-0.984-2.942-1.737l0.092-0.012c-1.335,1.399-3.091,3.24-5.216,5.465l0.014-0.146
								c0.763,1.154,1.611,2.436,2.518,3.807l0.045,0.069l-0.04,0.073c-0.742,1.344-1.365,2.874-1.774,4.553l-0.022,0.089
								l-0.09,0.022c-1.381,0.343-2.877,0.714-4.432,1.1l0.126-0.163c0.047,2.378,0.097,4.903,0.15,7.553l-0.145-0.176
								c1.384,0.285,2.909,0.599,4.472,0.922l0.114,0.023l0.032,0.112c0.415,1.458,1.064,3.009,1.95,4.466l0.063,0.103l-0.063,0.104
								c-0.732,1.211-1.539,2.546-2.361,3.906l-0.033-0.256c1.709,1.646,3.552,3.421,5.441,5.241l-0.269-0.025
								c1.188-0.781,2.493-1.638,3.815-2.506l0.112-0.073l0.117,0.065c1.333,0.743,2.889,1.377,4.529,1.778l0.132,0.032l0.032,0.132
								c0.341,1.389,0.714,2.904,1.09,4.435l-0.225-0.173c2.392-0.043,4.955-0.089,7.554-0.136l-0.222,0.184
								c0.293-1.412,0.61-2.936,0.929-4.471l0.029-0.138l0.135-0.038c1.488-0.421,3.028-1.071,4.457-1.936l0.004-0.002l0.122-0.072
								l0.119,0.072c1.311,0.794,2.613,1.584,3.903,2.367l-0.287,0.037c1.774-1.836,3.524-3.648,5.248-5.434l-0.027,0.286
								c-0.842-1.286-1.675-2.559-2.5-3.819l-0.076-0.116l0.067-0.12c0.802-1.437,1.399-2.966,1.784-4.526l0.033-0.132l0.132-0.032
								c1.5-0.367,2.977-0.728,4.436-1.084l-0.169,0.219c-0.043-2.579-0.084-5.098-0.125-7.553l0.17,0.205
								c-1.516-0.318-3.006-0.63-4.469-0.936l-0.124-0.026l-0.034-0.121c-0.453-1.602-1.113-3.106-1.935-4.47l-0.063-0.105
								l0.063-0.104c0.813-1.337,1.603-2.633,2.373-3.898l0.031,0.239c-1.908-1.85-3.709-3.596-5.424-5.259l0.221,0.021
								c-1.345,0.877-2.607,1.699-3.824,2.493l-0.085,0.055l-0.088-0.049c-1.521-0.851-3.047-1.427-4.539-1.801l-0.09-0.023
								l-0.021-0.089c-0.39-1.613-0.741-3.066-1.073-4.438l0.136,0.104c-2.927,0.039-5.42,0.071-7.554,0.099l0.1-0.083
								c-0.383,1.783-0.697,3.246-0.959,4.465l-0.01,0.045l-0.043,0.012c-1.599,0.446-2.723,0.968-3.454,1.329
								c-0.349,0.182-0.617,0.322-0.812,0.425C45.567,346.144,45.48,346.188,45.48,346.181c0-0.006,0.086-0.065,0.252-0.171
								c0.173-0.106,0.434-0.266,0.796-0.459c0.723-0.384,1.844-0.932,3.449-1.404l-0.052,0.057
								c0.246-1.222,0.541-2.689,0.901-4.477l0.016-0.081l0.084-0.002c2.134-0.047,4.627-0.101,7.553-0.165l0.109-0.003l0.027,0.107
								c0.341,1.37,0.701,2.821,1.102,4.431l-0.112-0.112c1.519,0.371,3.074,0.947,4.628,1.806l-0.173,0.006
								c1.213-0.799,2.471-1.628,3.812-2.512l0.118-0.078l0.103,0.099c1.722,1.655,3.53,3.394,5.446,5.237l0.111,0.107l-0.08,0.133
								c-0.766,1.268-1.55,2.567-2.36,3.906l0-0.208c0.844,1.392,1.524,2.928,1.991,4.565l-0.158-0.147
								c1.464,0.303,2.954,0.611,4.472,0.925l0.167,0.035l0.003,0.171c0.046,2.456,0.092,4.975,0.14,7.553l0.003,0.177l-0.172,0.042
								c-1.458,0.359-2.935,0.722-4.434,1.091l0.165-0.164c-0.393,1.599-1.001,3.166-1.822,4.64l-0.009-0.236
								c0.826,1.26,1.661,2.532,2.504,3.816l0.101,0.154l-0.128,0.132c-1.724,1.787-3.473,3.6-5.246,5.437l-0.129,0.133
								l-0.159-0.096c-1.29-0.782-2.593-1.572-3.903-2.366l0.24,0l-0.004,0.002c-1.465,0.887-3.045,1.554-4.57,1.985l0.163-0.176
								c-0.32,1.535-0.637,3.059-0.931,4.47l-0.038,0.181l-0.184,0.003c-2.599,0.044-5.162,0.088-7.554,0.129l-0.182,0.003
								l-0.043-0.177c-0.374-1.531-0.745-3.046-1.084-4.436l0.164,0.165c-1.68-0.413-3.274-1.065-4.636-1.828l0.228-0.008
								c-1.324,0.866-2.631,1.721-3.82,2.499l-0.145,0.095l-0.124-0.12c-1.885-1.824-3.724-3.604-5.429-5.254l-0.119-0.115
								l0.086-0.141c0.826-1.357,1.637-2.69,2.372-3.899l0,0.207c-0.901-1.492-1.558-3.079-1.976-4.569l0.146,0.135
								c-1.562-0.328-3.086-0.648-4.469-0.939l-0.143-0.03l-0.002-0.146c-0.041-2.65-0.079-5.175-0.115-7.554l-0.002-0.133
								l0.128-0.031c1.558-0.377,3.055-0.74,4.438-1.075l-0.111,0.112c0.426-1.705,1.069-3.254,1.832-4.613l0.005,0.141
								c-0.896-1.379-1.733-2.668-2.487-3.828l-0.052-0.08l0.066-0.067c2.149-2.201,3.927-4.021,5.279-5.405l0.042-0.043l0.05,0.031
								c1.247,0.776,2.208,1.374,2.875,1.789c0.315,0.2,0.558,0.354,0.739,0.469C45.395,346.117,45.48,346.175,45.48,346.181z"/>
						</g>
					</g>
				</g>
			</g>
		</g>
		<g>
			<g>
				<g>
					<g>
						<path style="fill:#F5F5F5;" d="M99.868,324.993c0.855-0.517,1.765-0.908,2.704-1.175l0.557-2.676l4.522-0.079l0.651,2.655
							c0.948,0.233,1.871,0.593,2.744,1.079l2.285-1.498l3.254,3.142l-1.417,2.336c0.517,0.855,0.909,1.766,1.175,2.704l2.676,0.557
							l0.079,4.522l-2.655,0.651c-0.234,0.947-0.593,1.871-1.079,2.743l1.498,2.285l-3.141,3.254l-2.336-1.417
							c-0.855,0.517-1.765,0.908-2.704,1.175l-0.557,2.676l-4.522,0.079l-0.651-2.655c-0.948-0.233-1.871-0.593-2.743-1.079
							l-2.285,1.498l-3.254-3.141l1.417-2.336c-0.517-0.855-0.909-1.765-1.175-2.704l-2.676-0.557l-0.079-4.522l2.655-0.651
							c0.233-0.947,0.593-1.871,1.079-2.743l-1.498-2.285l3.141-3.253L99.868,324.993L99.868,324.993z M102.279,331.016
							c-1.861,1.928-1.807,4.999,0.121,6.86c1.928,1.861,4.999,1.807,6.86-0.121c1.861-1.928,1.807-4.999-0.121-6.86
							C107.211,329.035,104.14,329.089,102.279,331.016z"/>
					</g>
				</g>
			</g>
			<g>
				<g>
					<g>
						<g>
							<path style="fill:#F5F5F5;" d="M102.279,331.016c0,0,0.254-0.357,0.903-0.793c0.638-0.425,1.752-0.897,3.165-0.748
								c0.696,0.078,1.457,0.305,2.151,0.764c0.687,0.459,1.335,1.112,1.74,1.96c0.213,0.416,0.361,0.879,0.441,1.362
								c0.087,0.482,0.099,0.989,0.027,1.493c-0.123,1.013-0.602,2.012-1.347,2.797c-0.758,0.772-1.74,1.286-2.748,1.445
								c-0.502,0.09-1.009,0.096-1.494,0.025c-0.486-0.063-0.953-0.195-1.377-0.393c-0.862-0.375-1.537-1-2.02-1.67
								c-0.483-0.678-0.737-1.431-0.839-2.123c-0.199-1.407,0.235-2.537,0.637-3.189
								C101.93,331.283,102.279,331.016,102.279,331.016c0.026,0.022-0.293,0.319-0.667,0.984c-0.365,0.655-0.752,1.759-0.536,3.106
								c0.111,0.663,0.364,1.379,0.833,2.019c0.468,0.633,1.117,1.221,1.937,1.569c0.403,0.185,0.847,0.307,1.307,0.364
								c0.459,0.064,0.939,0.057,1.413-0.031c0.954-0.153,1.877-0.641,2.594-1.37c0.703-0.742,1.157-1.682,1.277-2.64
								c0.071-0.477,0.061-0.957-0.019-1.413c-0.073-0.458-0.21-0.897-0.41-1.293c-0.377-0.807-0.988-1.434-1.636-1.88
								c-0.656-0.446-1.38-0.674-2.047-0.761c-1.354-0.168-2.444,0.257-3.085,0.645
								C102.587,330.713,102.302,331.042,102.279,331.016z"/>
						</g>
					</g>
				</g>
			</g>
			<g>
				<g>
					<g>
						<g>
							<path style="fill:#F5F5F5;" d="M99.868,324.993c0,0.004-0.051-0.023-0.151-0.08c-0.11-0.063-0.257-0.149-0.448-0.259
								c-0.409-0.241-0.997-0.589-1.761-1.04l0.055-0.007c-0.799,0.838-1.851,1.939-3.122,3.272l0.008-0.088
								c0.457,0.691,0.964,1.458,1.507,2.279l0.027,0.041l-0.024,0.044c-0.444,0.804-0.817,1.72-1.062,2.725l-0.013,0.054
								l-0.054,0.013c-0.827,0.205-1.722,0.427-2.653,0.658l0.075-0.098c0.028,1.424,0.058,2.935,0.09,4.521l-0.087-0.105
								c0.829,0.171,1.742,0.359,2.677,0.552l0.068,0.014l0.019,0.067c0.249,0.873,0.637,1.801,1.167,2.673l0.038,0.062
								l-0.038,0.063c-0.438,0.725-0.921,1.524-1.413,2.338l-0.02-0.154c1.023,0.986,2.126,2.048,3.257,3.137l-0.161-0.015
								c0.711-0.467,1.493-0.98,2.284-1.5l0.067-0.044l0.07,0.039c0.798,0.445,1.729,0.824,2.711,1.064l0.079,0.019l0.02,0.079
								c0.204,0.832,0.427,1.738,0.653,2.655l-0.135-0.104c1.432-0.026,2.966-0.053,4.522-0.081l-0.133,0.11
								c0.176-0.845,0.365-1.757,0.556-2.676l0.017-0.083l0.081-0.023c0.89-0.252,1.813-0.641,2.668-1.159l0.002-0.001l0.073-0.043
								l0.071,0.043c0.785,0.476,1.564,0.948,2.336,1.417l-0.172,0.022c1.062-1.099,2.109-2.184,3.142-3.253l-0.016,0.171
								c-0.504-0.77-1.003-1.532-1.497-2.286l-0.045-0.069l0.04-0.072c0.48-0.86,0.837-1.775,1.068-2.709l0.02-0.079l0.079-0.019
								c0.898-0.22,1.782-0.436,2.655-0.649l-0.101,0.131c-0.025-1.543-0.05-3.051-0.075-4.522l0.102,0.123
								c-0.908-0.19-1.799-0.377-2.675-0.56l-0.074-0.016l-0.02-0.073c-0.271-0.959-0.666-1.859-1.158-2.676l-0.038-0.063
								l0.038-0.062c0.487-0.8,0.959-1.576,1.42-2.334l0.019,0.143c-1.142-1.107-2.221-2.153-3.247-3.148l0.132,0.013
								c-0.805,0.525-1.56,1.017-2.289,1.492l-0.051,0.033l-0.052-0.029c-0.911-0.51-1.824-0.854-2.717-1.078l-0.054-0.014
								l-0.013-0.053c-0.233-0.966-0.443-1.835-0.642-2.657l0.081,0.063c-1.752,0.023-3.244,0.043-4.522,0.059l0.06-0.05
								c-0.229,1.068-0.417,1.943-0.574,2.673l-0.006,0.027l-0.026,0.007c-0.957,0.267-1.63,0.579-2.068,0.795
								c-0.209,0.109-0.369,0.193-0.486,0.254C99.92,324.971,99.868,324.996,99.868,324.993c0-0.004,0.052-0.039,0.151-0.103
								c0.103-0.064,0.26-0.159,0.477-0.275c0.433-0.23,1.104-0.558,2.064-0.841l-0.031,0.034c0.147-0.731,0.324-1.609,0.54-2.68
								l0.01-0.048l0.05-0.001c1.277-0.028,2.77-0.061,4.521-0.099l0.065-0.001l0.016,0.064c0.204,0.82,0.42,1.689,0.66,2.652
								l-0.067-0.067c0.909,0.222,1.84,0.567,2.77,1.081l-0.103,0.004c0.726-0.479,1.479-0.975,2.282-1.504l0.071-0.047l0.062,0.059
								c1.031,0.991,2.113,2.032,3.26,3.135l0.066,0.064l-0.048,0.079c-0.459,0.759-0.928,1.537-1.412,2.339l0-0.125
								c0.505,0.833,0.912,1.753,1.192,2.733l-0.094-0.088c0.876,0.181,1.769,0.366,2.677,0.554l0.1,0.021l0.002,0.103
								c0.027,1.47,0.055,2.978,0.084,4.521l0.002,0.106l-0.103,0.025c-0.873,0.215-1.757,0.432-2.654,0.653l0.099-0.098
								c-0.235,0.957-0.6,1.895-1.091,2.778l-0.005-0.141c0.495,0.754,0.994,1.516,1.499,2.285l0.06,0.092l-0.076,0.079
								c-1.032,1.069-2.079,2.155-3.14,3.254l-0.077,0.08l-0.095-0.058c-0.772-0.468-1.552-0.941-2.336-1.416l0.144,0l-0.003,0.001
								c-0.877,0.531-1.823,0.93-2.736,1.188l0.098-0.105c-0.191,0.919-0.381,1.831-0.557,2.676l-0.022,0.108l-0.11,0.002
								c-1.556,0.027-3.09,0.053-4.522,0.077l-0.109,0.002l-0.026-0.106c-0.224-0.916-0.446-1.824-0.649-2.655l0.098,0.099
								c-1.005-0.247-1.96-0.638-2.775-1.094l0.137-0.005c-0.792,0.518-1.575,1.03-2.287,1.496l-0.087,0.057l-0.074-0.072
								c-1.128-1.092-2.229-2.157-3.25-3.145l-0.071-0.069l0.051-0.085c0.494-0.813,0.98-1.61,1.42-2.334l0,0.124
								c-0.539-0.893-0.933-1.843-1.183-2.735l0.087,0.081c-0.935-0.196-1.847-0.388-2.675-0.562l-0.086-0.018l-0.001-0.087
								c-0.024-1.587-0.047-3.098-0.069-4.522l-0.001-0.079l0.077-0.019c0.932-0.226,1.829-0.443,2.657-0.643l-0.067,0.067
								c0.255-1.02,0.64-1.948,1.097-2.761l0.003,0.084c-0.536-0.826-1.037-1.597-1.489-2.291l-0.031-0.048l0.039-0.04
								c1.287-1.318,2.351-2.407,3.16-3.235l0.025-0.026l0.03,0.019c0.747,0.465,1.322,0.823,1.721,1.071
								c0.188,0.12,0.334,0.212,0.443,0.281C99.818,324.954,99.868,324.989,99.868,324.993z"/>
						</g>
					</g>
				</g>
			</g>
		</g>
		<g>
			<g>
				<g>
					<g>
						<path style="fill:#E0E0E0;" d="M114.4,443.411l-0.005-0.02l-2.059-8.397c-3.033-0.749-5.95-1.897-8.671-3.412l-7.245,4.75
							l-0.015-0.015l-10.324-9.968l0.01-0.017l4.481-7.39c-1.611-2.668-2.86-5.543-3.714-8.547l-8.484-1.767l-0.001-0.02
							l-0.252-14.347l0.02-0.005l8.398-2.059c0.748-3.03,1.896-5.947,3.411-8.671l-4.748-7.246l0.014-0.015l9.967-10.323l0.017,0.01
							l7.391,4.482c2.665-1.609,5.54-2.858,8.546-3.714l1.766-8.485l0.02-0.001l14.348-0.251l0.005,0.02l2.058,8.397
							c3.037,0.75,5.954,1.897,8.672,3.412l7.245-4.75l0.015,0.015l10.324,9.968l-0.01,0.017l-4.481,7.39
							c1.609,2.665,2.859,5.54,3.714,8.548l8.484,1.766l0,0.021l0.252,14.348l-0.02,0.005l-8.398,2.058
							c-0.749,3.033-1.896,5.95-3.411,8.672l4.749,7.245l-0.014,0.015l-9.967,10.323l-0.017-0.01l-7.39-4.48
							c-2.667,1.609-5.542,2.858-8.547,3.713l-1.766,8.485l-0.02,0.001L114.4,443.411z M103.663,431.524l0.013,0.008
							c2.726,1.519,5.648,2.669,8.686,3.418l0.015,0.004l0.004,0.015l2.058,8.393l14.288-0.25l1.764-8.476l0.015-0.005
							c3.01-0.854,5.891-2.106,8.563-3.72l0.013-0.008l0.013,0.008l7.386,4.479l9.925-10.281l-4.744-7.237l0.007-0.013
							c1.519-2.727,2.669-5.649,3.417-8.688l0.004-0.015l0.015-0.004l8.393-2.057l-0.251-14.288l-8.475-1.764l-0.004-0.015
							c-0.856-3.014-2.108-5.895-3.721-8.563l-0.008-0.013l0.008-0.013l4.479-7.386l-10.281-9.926l-7.237,4.744l-0.013-0.008
							c-2.722-1.518-5.645-2.668-8.687-3.418l-0.015-0.004l-0.004-0.015l-2.057-8.393l-14.288,0.25l-1.764,8.476l-0.015,0.005
							c-3.011,0.855-5.892,2.108-8.562,3.721l-0.013,0.008l-0.013-0.008l-7.387-4.479l-9.925,10.281l4.744,7.238l-0.007,0.013
							c-1.52,2.729-2.669,5.65-3.417,8.686l-0.004,0.015l-0.015,0.004l-8.393,2.058l0.25,14.287l8.476,1.765l0.004,0.015
							c0.854,3.01,2.106,5.89,3.721,8.563l0.008,0.013l-0.008,0.013l-4.479,7.386l10.281,9.926L103.663,431.524z M121.28,415.627
							c-4.01,0-7.795-1.527-10.688-4.32c-2.959-2.857-4.628-6.694-4.701-10.807c-0.072-4.112,1.462-8.007,4.318-10.966l0,0
							c2.857-2.958,6.695-4.628,10.807-4.7c0.093-0.001,0.186-0.002,0.278-0.002c4.009,0,7.795,1.527,10.687,4.32
							c2.959,2.856,4.628,6.693,4.7,10.807c0.072,4.111-1.462,8.006-4.318,10.965c-2.857,2.959-6.694,4.628-10.807,4.7
							C121.466,415.626,121.373,415.627,121.28,415.627z M110.229,389.552l0.018,0.018c-2.848,2.949-4.376,6.831-4.304,10.93
							c0.072,4.099,1.736,7.925,4.686,10.772c2.882,2.782,6.656,4.306,10.652,4.306c0.092,0,0.185-0.001,0.277-0.003
							c4.099-0.072,7.924-1.736,10.771-4.685c2.848-2.949,4.376-6.83,4.304-10.93c-0.072-4.099-1.736-7.924-4.685-10.771
							c-2.882-2.782-6.656-4.306-10.652-4.306c-0.092,0-0.185,0.001-0.277,0.003c-4.099,0.071-7.924,1.735-10.771,4.685
							L110.229,389.552z"/>
					</g>
				</g>
			</g>
			<g>
				<g>
					<g>
						<g>
							<path style="fill:#E0E0E0;" d="M110.229,389.552c0,0,0.804-1.133,2.862-2.512c2.02-1.346,5.551-2.844,10.029-2.371
								c2.205,0.248,4.617,0.967,6.816,2.422c2.175,1.454,4.229,3.524,5.512,6.211c0.676,1.319,1.144,2.785,1.398,4.315
								c0.276,1.527,0.316,3.134,0.086,4.732c-0.389,3.212-1.908,6.376-4.267,8.863c-2.402,2.447-5.512,4.077-8.709,4.579
								c-1.59,0.286-3.197,0.303-4.733,0.08c-1.538-0.2-3.02-0.617-4.362-1.246c-2.73-1.188-4.871-3.168-6.401-5.291
								c-1.531-2.146-2.334-4.533-2.659-6.727c-0.629-4.458,0.744-8.04,2.018-10.106
								C109.124,390.396,110.229,389.552,110.229,389.552c0.083,0.07-0.928,1.009-2.112,3.119c-1.158,2.074-2.383,5.572-1.699,9.841
								c0.352,2.102,1.153,4.37,2.639,6.398c1.484,2.005,3.539,3.87,6.136,4.973c1.277,0.588,2.683,0.972,4.141,1.154
								c1.455,0.203,2.977,0.18,4.479-0.097c3.022-0.486,5.948-2.03,8.22-4.34c2.228-2.352,3.667-5.329,4.046-8.366
								c0.224-1.51,0.194-3.031-0.061-4.478c-0.232-1.45-0.665-2.842-1.298-4.097c-1.194-2.557-3.129-4.544-5.185-5.958
								c-2.078-1.413-4.373-2.135-6.486-2.413c-4.29-0.534-7.743,0.813-9.775,2.044C111.204,388.59,110.302,389.633,110.229,389.552
								z"/>
						</g>
					</g>
				</g>
			</g>
			<g>
				<g>
					<g>
						<g>
							<path style="fill:#E0E0E0;" d="M102.59,370.465c0,0.012-0.16-0.072-0.478-0.252c-0.348-0.202-0.815-0.471-1.42-0.821
								c-1.295-0.764-3.159-1.866-5.58-3.296l0.174-0.023c-2.533,2.654-5.864,6.145-9.893,10.367l0.027-0.277
								c1.447,2.188,3.055,4.62,4.775,7.222l0.086,0.13l-0.076,0.138c-1.407,2.548-2.589,5.451-3.365,8.636l-0.041,0.169
								l-0.171,0.043c-2.62,0.651-5.457,1.354-8.407,2.087l0.239-0.31c0.09,4.511,0.185,9.299,0.285,14.326l-0.276-0.333
								c2.626,0.541,5.518,1.137,8.482,1.748l0.216,0.045l0.061,0.212c0.788,2.766,2.018,5.707,3.698,8.471l0.119,0.196
								l-0.119,0.198c-1.388,2.296-2.919,4.829-4.478,7.409l-0.063-0.486c3.242,3.123,6.738,6.49,10.321,9.941l-0.51-0.048
								c2.254-1.481,4.729-3.106,7.237-4.754l0.212-0.139l0.221,0.123c2.527,1.409,5.48,2.612,8.591,3.372l0.25,0.061l0.062,0.251
								c0.647,2.635,1.354,5.509,2.068,8.412l-0.427-0.329c4.537-0.082,9.399-0.169,14.328-0.258l-0.421,0.349
								c0.557-2.679,1.157-5.569,1.763-8.48l0.054-0.262l0.256-0.072c2.821-0.798,5.744-2.032,8.453-3.672l0.008-0.004l0.231-0.137
								l0.225,0.137c2.486,1.507,4.956,3.005,7.403,4.489l-0.545,0.07c3.364-3.483,6.684-6.919,9.955-10.307l-0.051,0.542
								c-1.597-2.439-3.178-4.853-4.743-7.244l-0.144-0.219l0.128-0.228c1.522-2.726,2.653-5.626,3.383-8.584l0.063-0.251
								l0.251-0.061c2.845-0.696,5.647-1.38,8.414-2.056l-0.32,0.415c-0.081-4.891-0.16-9.669-0.237-14.327l0.323,0.39
								c-2.876-0.602-5.702-1.194-8.477-1.775l-0.235-0.049l-0.065-0.23c-0.858-3.038-2.111-5.891-3.669-8.479l-0.12-0.199
								l0.12-0.197c1.543-2.536,3.039-4.994,4.501-7.395l0.059,0.453c-3.619-3.509-7.036-6.821-10.289-9.974l0.419,0.039
								c-2.551,1.663-4.944,3.223-7.253,4.728l-0.161,0.105l-0.166-0.093c-2.886-1.615-5.779-2.706-8.609-3.415l-0.171-0.043
								l-0.041-0.169c-0.739-3.06-1.405-5.816-2.034-8.419l0.258,0.198c-5.551,0.073-10.28,0.135-14.329,0.188l0.19-0.157
								c-0.727,3.383-1.322,6.157-1.819,8.469l-0.018,0.085l-0.082,0.023c-3.032,0.846-5.165,1.836-6.552,2.52
								c-0.662,0.346-1.17,0.611-1.541,0.805C102.755,370.395,102.59,370.477,102.59,370.465c0.001-0.011,0.164-0.124,0.478-0.325
								c0.328-0.201,0.824-0.504,1.51-0.87c1.371-0.729,3.497-1.768,6.541-2.664l-0.1,0.107c0.467-2.317,1.027-5.1,1.71-8.492
								l0.031-0.154l0.16-0.004c4.048-0.089,8.776-0.193,14.326-0.314l0.207-0.005l0.051,0.203c0.646,2.599,1.33,5.351,2.09,8.405
								l-0.212-0.212c2.881,0.703,5.832,1.796,8.778,3.425l-0.327,0.012c2.301-1.516,4.687-3.088,7.23-4.764l0.224-0.148
								l0.195,0.188c3.265,3.14,6.695,6.438,10.329,9.932l0.211,0.203l-0.152,0.251c-1.453,2.405-2.941,4.869-4.475,7.41
								l0.001-0.394c1.601,2.64,2.891,5.554,3.776,8.658l-0.299-0.279c2.777,0.575,5.604,1.159,8.482,1.754l0.317,0.066l0.006,0.325
								c0.086,4.658,0.175,9.436,0.266,14.327l0.006,0.335l-0.326,0.08c-2.766,0.68-5.567,1.369-8.411,2.069l0.312-0.312
								c-0.744,3.032-1.9,6.005-3.456,8.801l-0.016-0.447c1.568,2.389,3.151,4.802,4.749,7.239l0.191,0.291l-0.242,0.251
								c-3.27,3.389-6.588,6.827-9.95,10.312l-0.244,0.253l-0.301-0.183c-2.448-1.483-4.918-2.981-7.403-4.487l0.456,0l-0.008,0.004
								c-2.778,1.683-5.776,2.948-8.668,3.765l0.31-0.333c-0.606,2.911-1.209,5.802-1.766,8.48l-0.072,0.343l-0.35,0.006
								c-4.929,0.084-9.791,0.168-14.328,0.245l-0.345,0.006L114,443.489c-0.71-2.903-1.413-5.778-2.057-8.414l0.312,0.312
								c-3.186-0.783-6.209-2.02-8.794-3.468l0.433-0.016c-2.511,1.642-4.989,3.264-7.246,4.739l-0.275,0.18l-0.235-0.228
								c-3.575-3.46-7.063-6.836-10.297-9.966l-0.226-0.218l0.163-0.268c1.567-2.575,3.104-5.103,4.499-7.395l0,0.393
								c-1.709-2.83-2.955-5.839-3.748-8.666l0.276,0.256c-2.963-0.622-5.852-1.23-8.477-1.781l-0.272-0.057l-0.005-0.276
								c-0.077-5.027-0.15-9.816-0.219-14.328l-0.004-0.252l0.243-0.059c2.954-0.715,5.795-1.403,8.418-2.039l-0.212,0.212
								c0.808-3.233,2.028-6.173,3.475-8.749l0.009,0.267c-1.699-2.616-3.287-5.06-4.717-7.26l-0.098-0.151l0.124-0.127
								c4.077-4.175,7.448-7.626,10.012-10.252l0.08-0.082l0.094,0.059c2.366,1.472,4.189,2.606,5.454,3.393
								c0.597,0.379,1.058,0.672,1.402,0.891C102.43,370.344,102.591,370.453,102.59,370.465z"/>
						</g>
					</g>
				</g>
			</g>
		</g>
	</g>
</g>
<g id="Background_Simple" style="display:none;">
	<path style="display:inline;fill:#EBEBEB;" d="M454.175,189.361l-2.396-3.535c-20.198-29.796-56.717-47.758-95.22-45.578
		c-4.949,0.28-9.878,0.88-14.74,1.812c-35.007,6.708-65.467,30.406-78.093,60.757c-7.425,17.85-9.5,38.401-23.591,52.569
		c-18.339,18.439-49.474,19.018-76.847,18.254c-27.374-0.764-58.529-0.112-76.779,18.399c-11.429,11.593-15.062,28.08-14.14,43.607
		c2.44,41.106,34.437,77.862,75.13,96.131c40.693,18.269,88.603,19.906,133.139,11.869c62.389-11.258,121.72-42.176,157.383-89.93
		C473.683,305.963,482.709,240.903,454.175,189.361z"/>
	<circle style="display:inline;fill:#EBEBEB;" cx="88.553" cy="92.165" r="45.604"/>
</g>
<g id="Document">
	<g>
		<g>
			
				<rect x="102.844" y="67.8" transform="matrix(0.9973 -0.0738 0.0738 0.9973 -18.4808 19.4002)" style="fill:#FFFFFF;" width="300.645" height="383.742"/>
			<path style="fill:#263238;" d="M116.959,462.653l-0.037-0.498L88.553,78.96l0.499-0.037L389.376,56.69l0.037,0.499
				l28.368,383.194l-0.498,0.037L116.959,462.653z M89.624,79.884l28.258,381.698l298.828-22.124L388.452,57.761L89.624,79.884z"/>
		</g>
		<g>
			
				<rect x="281.757" y="76.907" transform="matrix(0.9973 -0.0738 0.0738 0.9973 -4.9905 24.0094)" style="fill:#FF725E;" width="80.999" height="5.201"/>
		</g>
		<g>
			<g>
				<path style="fill:#FF725E;" d="M361.493,113.756c0.001,0.018-0.169,0.048-0.494,0.089c-0.385,0.042-0.855,0.093-1.424,0.155
					c-1.318,0.12-3.091,0.28-5.245,0.476c-4.505,0.374-10.589,0.88-17.312,1.439c-6.764,0.556-12.892,1-17.33,1.287
					c-2.159,0.128-3.936,0.233-5.257,0.311c-0.572,0.023-1.044,0.042-1.431,0.057c-0.328,0.007-0.5,0.003-0.502-0.015
					c-0.001-0.018,0.169-0.048,0.494-0.089c0.385-0.042,0.855-0.093,1.424-0.155c1.318-0.12,3.09-0.28,5.245-0.476
					c4.505-0.374,10.589-0.88,17.315-1.439c6.762-0.556,12.889-1,17.327-1.287c2.159-0.128,3.936-0.233,5.258-0.311
					c0.572-0.023,1.044-0.042,1.431-0.058C361.319,113.734,361.492,113.738,361.493,113.756z"/>
			</g>
		</g>
		<g>
			<g>
				<g>
					<path style="fill:#263238;" d="M366.335,133.313c0.011,0.144-17.603,1.564-39.336,3.173
						c-21.74,1.609-39.367,2.798-39.378,2.654c-0.011-0.143,17.599-1.564,39.34-3.173
						C348.693,134.358,366.324,133.17,366.335,133.313z"/>
				</g>
			</g>
			<g>
				<g>
					<path style="fill:#263238;" d="M367.663,158.245c0.011,0.143-17.603,1.564-39.336,3.173
						c-21.74,1.609-39.367,2.798-39.378,2.654c-0.011-0.143,17.599-1.564,39.34-3.173
						C350.022,159.29,367.653,158.102,367.663,158.245z"/>
				</g>
			</g>
			<g>
				<g>
					<path style="fill:#263238;" d="M367.663,145.779c0.011,0.143-17.603,1.564-39.336,3.173
						c-21.74,1.609-39.367,2.798-39.378,2.654c-0.011-0.143,17.599-1.564,39.34-3.173
						C350.022,146.824,367.653,145.636,367.663,145.779z"/>
				</g>
			</g>
		</g>
		<g>
			<g>
				<g>
					<path style="fill:#FF725E;" d="M202.451,320.339c0.011,0.144-9.12,0.936-20.39,1.771c-11.275,0.835-20.42,1.395-20.43,1.251
						c-0.011-0.143,9.118-0.936,20.392-1.771C193.293,320.756,202.44,320.196,202.451,320.339z"/>
				</g>
			</g>
			<g>
				<g>
					<path style="fill:#FF725E;" d="M185.393,344.303c0.011,0.143-12.221,1.166-27.318,2.284
						c-15.102,1.118-27.348,1.908-27.359,1.764c-0.011-0.143,12.219-1.166,27.32-2.284
						C173.133,344.949,185.382,344.16,185.393,344.303z"/>
				</g>
			</g>
			<g>
				<g>
					<path style="fill:#263238;" d="M284.982,346.33c0.011,0.143-34.362,2.805-76.764,5.944c-42.417,3.14-76.799,5.569-76.81,5.425
						c-0.011-0.143,34.355-2.804,76.772-5.945C250.582,348.615,284.972,346.186,284.982,346.33z"/>
				</g>
			</g>
			<g>
				<g>
					<path style="fill:#FF725E;" d="M187.113,367.545c0.011,0.143-12.221,1.166-27.318,2.284
						c-15.102,1.118-27.348,1.908-27.359,1.764c-0.011-0.143,12.219-1.166,27.32-2.284
						C174.853,368.192,187.103,367.402,187.113,367.545z"/>
				</g>
			</g>
			<g>
				<g>
					<path style="fill:#263238;" d="M286.703,369.572c0.011,0.143-34.362,2.805-76.764,5.944c-42.417,3.14-76.799,5.569-76.81,5.425
						c-0.011-0.143,34.355-2.805,76.772-5.945C252.302,371.857,286.693,369.428,286.703,369.572z"/>
				</g>
			</g>
			<g>
				<g>
					<path style="fill:#FF725E;" d="M188.834,390.787c0.011,0.143-12.222,1.166-27.318,2.284
						c-15.101,1.118-27.348,1.908-27.359,1.764c-0.011-0.143,12.219-1.166,27.32-2.284
						C176.574,391.434,188.823,390.644,188.834,390.787z"/>
				</g>
			</g>
			<g>
				<g>
					<path style="fill:#263238;" d="M288.424,392.814c0.011,0.144-34.362,2.805-76.764,5.944c-42.417,3.14-76.799,5.569-76.81,5.425
						c-0.011-0.143,34.355-2.804,76.772-5.945C254.023,395.099,288.413,392.67,288.424,392.814z"/>
				</g>
			</g>
			<g>
				<g>
					<path style="fill:#FF725E;" d="M192.625,414.316c0.011,0.143-12.221,1.166-27.318,2.283
						c-15.102,1.118-27.348,1.908-27.359,1.764c-0.011-0.143,12.219-1.166,27.32-2.284
						C180.365,414.962,192.615,414.172,192.625,414.316z"/>
				</g>
			</g>
			<g>
				<g>
					<path style="fill:#263238;" d="M292.215,416.342c0.011,0.143-34.362,2.805-76.764,5.944c-42.417,3.14-76.799,5.569-76.81,5.425
						c-0.011-0.143,34.355-2.805,76.772-5.945C257.815,418.628,292.205,416.199,292.215,416.342z"/>
				</g>
			</g>
			<g>
				<g>
					
						<rect x="133.057" y="316.382" transform="matrix(0.9973 -0.0738 0.0738 0.9973 -23.4118 11.398)" style="fill:#FF725E;" width="18.8" height="11.945"/>
				</g>
				<g>
					
						<rect x="139.262" y="328.305" transform="matrix(0.9973 -0.0738 0.0738 0.9973 -23.9892 11.4629)" style="fill:#FF725E;" width="7.549" height="3.739"/>
				</g>
			</g>
			<g>
				<g>
					<path style="fill:#FF725E;" d="M149.806,331.422c0.013,0.143-2.798,0.513-6.277,0.825c-3.481,0.312-6.312,0.449-6.325,0.306
						c-0.013-0.143,2.797-0.512,6.278-0.825C146.962,331.416,149.793,331.279,149.806,331.422z"/>
				</g>
			</g>
		</g>
		<g>
			<g>
				<g>
					<polygon style="fill:#FF725E;" points="302.872,302.179 314.594,295.755 326.131,300.133 315.325,306.933 					"/>
				</g>
				<g>
					<polygon style="fill:#FF725E;" points="305.675,304.866 306.151,312.171 324.207,310.583 323.587,303.54 315.245,308.583 					
						"/>
				</g>
			</g>
			<g>
				<g>
					<path style="fill:#FF725E;" d="M376.999,303.603c0.011,0.143-9.12,0.936-20.39,1.771c-11.275,0.835-20.42,1.395-20.431,1.251
						c-0.011-0.143,9.117-0.936,20.392-1.771C367.841,304.02,376.988,303.46,376.999,303.603z"/>
				</g>
			</g>
			<g>
				<g>
					<path style="fill:#263238;" d="M335.127,328.696c0.011,0.143-6.264,0.725-14.012,1.298c-7.751,0.574-14.041,0.923-14.052,0.779
						c-0.011-0.143,6.262-0.725,14.014-1.298C328.825,328.901,335.117,328.552,335.127,328.696z"/>
				</g>
			</g>
			<g>
				<g>
					<path style="fill:#263238;" d="M386.637,335.044c0.011,0.144-17.628,1.566-39.392,3.178
						c-21.771,1.612-39.423,2.802-39.434,2.658c-0.011-0.143,17.624-1.566,39.395-3.178
						C368.971,336.091,386.626,334.901,386.637,335.044z"/>
				</g>
			</g>
			<g>
				<g>
					<path style="fill:#263238;" d="M337.23,354.664c0.011,0.143-6.264,0.725-14.012,1.299c-7.751,0.574-14.041,0.923-14.052,0.779
						c-0.011-0.143,6.262-0.725,14.013-1.298C330.928,354.87,337.22,354.521,337.23,354.664z"/>
				</g>
			</g>
			<g>
				<g>
					<path style="fill:#263238;" d="M388.74,361.013c0.011,0.143-17.628,1.566-39.392,3.177
						c-21.771,1.612-39.423,2.802-39.434,2.658c-0.011-0.143,17.624-1.566,39.395-3.178
						C371.074,362.06,388.729,360.869,388.74,361.013z"/>
				</g>
			</g>
			<g>
				<g>
					<path style="fill:#263238;" d="M338.828,380.323c0.011,0.143-6.264,0.725-14.012,1.299c-7.751,0.574-14.041,0.923-14.052,0.779
						c-0.011-0.143,6.262-0.725,14.013-1.298C332.526,380.529,338.818,380.18,338.828,380.323z"/>
				</g>
			</g>
			<g>
				<g>
					<path style="fill:#263238;" d="M390.338,386.672c0.011,0.143-17.628,1.566-39.392,3.177
						c-21.771,1.612-39.423,2.802-39.434,2.658s17.624-1.566,39.395-3.178C372.672,387.719,390.328,386.529,390.338,386.672z"/>
				</g>
			</g>
			<g>
				<g>
					<path style="fill:#263238;" d="M341.692,407.459c0.011,0.143-6.264,0.725-14.012,1.298c-7.751,0.574-14.041,0.923-14.052,0.779
						c-0.011-0.143,6.262-0.725,14.013-1.298C335.39,407.665,341.681,407.316,341.692,407.459z"/>
				</g>
			</g>
			<g>
				<g>
					<path style="fill:#263238;" d="M393.202,413.808c0.011,0.143-17.628,1.566-39.392,3.177
						c-21.771,1.612-39.423,2.802-39.434,2.658c-0.011-0.143,17.624-1.566,39.395-3.178
						C375.535,414.855,393.191,413.664,393.202,413.808z"/>
				</g>
			</g>
		</g>
		<g>
			<g>
				<g>
					<g>
						<path style="fill:#FF725E;" d="M296.426,113.006c1.53-0.779,2.532-2.491,2.4-4.41c-0.176-2.514-2.229-4.42-4.587-4.256
							c-2.357,0.163-4.126,2.334-3.95,4.848c0.135,1.937,1.388,3.501,3.034,4.047c-6.493,1.475-5.667,8.59-5.667,8.59l15.533-1.078
							C303.188,120.748,303.008,113.507,296.426,113.006z"/>
					</g>
				</g>
			</g>
		</g>
		<g>
			<g>
				<g>
					<g>
						<g>
							<path style="fill:#263238;" d="M321.734,213.824c0.011,0.143-6.313,0.729-14.123,1.307
								c-7.813,0.578-14.152,0.931-14.163,0.787c-0.011-0.143,6.312-0.728,14.125-1.307
								C315.382,214.033,321.723,213.68,321.734,213.824z"/>
						</g>
					</g>
					<g>
						<g>
							<path style="fill:#263238;" d="M322.804,226.309c0.011,0.143-6.313,0.729-14.123,1.307
								c-7.813,0.578-14.152,0.931-14.163,0.787c-0.011-0.143,6.312-0.728,14.125-1.307
								C316.452,226.518,322.793,226.165,322.804,226.309z"/>
						</g>
					</g>
				</g>
				<g>
					<g>
						<path style="fill:#E0E0E0;" d="M377.663,211.149l-46.03,3.408c-0.859,0.064-1.607-0.581-1.67-1.44l0,0
							c-0.064-0.859,0.581-1.607,1.44-1.67l46.03-3.408c0.859-0.064,1.607,0.581,1.67,1.44l0,0
							C379.166,210.337,378.522,211.085,377.663,211.149z"/>
					</g>
					<g>
						<path style="fill:#FF725E;" d="M370.936,211.647l-39.303,2.91c-0.859,0.064-1.607-0.581-1.67-1.44l0,0
							c-0.064-0.859,0.581-1.607,1.44-1.67l39.303-2.91c0.859-0.064,1.607,0.581,1.67,1.44l0,0
							C372.439,210.835,371.794,211.583,370.936,211.647z"/>
					</g>
				</g>
				<g>
					<g>
						<path style="fill:#E0E0E0;" d="M378.533,222.896l-46.03,3.408c-0.859,0.064-1.607-0.581-1.67-1.44l0,0
							c-0.064-0.859,0.581-1.607,1.44-1.67l46.03-3.408c0.859-0.064,1.607,0.581,1.67,1.44l0,0
							C380.036,222.085,379.391,222.833,378.533,222.896z"/>
					</g>
					<g>
						<path style="fill:#FF725E;" d="M364.799,223.913l-32.297,2.391c-0.859,0.064-1.607-0.581-1.67-1.44l0,0
							c-0.064-0.859,0.581-1.607,1.44-1.67l32.297-2.391c0.859-0.064,1.607,0.581,1.67,1.44l0,0
							C366.303,223.102,365.658,223.85,364.799,223.913z"/>
					</g>
				</g>
				<g>
					<g>
						<g>
							<path style="fill:#263238;" d="M324.163,239.057c0.011,0.144-6.313,0.729-14.123,1.307
								c-7.813,0.578-14.152,0.931-14.163,0.787c-0.011-0.143,6.312-0.728,14.125-1.307
								C317.811,239.266,324.152,238.913,324.163,239.057z"/>
						</g>
					</g>
					<g>
						<g>
							<path style="fill:#263238;" d="M325.233,251.542c0.011,0.143-6.313,0.729-14.123,1.307
								c-7.813,0.578-14.152,0.931-14.163,0.787c-0.011-0.143,6.312-0.728,14.125-1.307
								C318.881,251.751,325.222,251.398,325.233,251.542z"/>
						</g>
					</g>
				</g>
				<g>
					<g>
						<path style="fill:#E0E0E0;" d="M380.092,236.382l-46.03,3.408c-0.859,0.064-1.607-0.581-1.67-1.44l0,0
							c-0.064-0.859,0.581-1.607,1.44-1.67l46.03-3.408c0.859-0.064,1.607,0.581,1.67,1.44l0,0
							C381.595,235.57,380.95,236.318,380.092,236.382z"/>
					</g>
					<g>
						<path style="fill:#FF725E;" d="M373.365,236.88l-39.303,2.91c-0.859,0.064-1.607-0.581-1.67-1.44l0,0
							c-0.064-0.859,0.581-1.607,1.44-1.67l39.303-2.91c0.859-0.064,1.607,0.581,1.67,1.44l0,0
							C374.868,236.068,374.223,236.816,373.365,236.88z"/>
					</g>
				</g>
				<g>
					<g>
						<path style="fill:#E0E0E0;" d="M380.961,248.13l-46.031,3.408c-0.859,0.064-1.607-0.581-1.67-1.44l0,0
							c-0.064-0.859,0.581-1.607,1.44-1.67l46.03-3.408c0.859-0.064,1.607,0.581,1.67,1.44l0,0
							C382.465,247.318,381.82,248.066,380.961,248.13z"/>
					</g>
					<g>
						<path style="fill:#FF725E;" d="M367.228,249.146l-32.297,2.391c-0.859,0.064-1.607-0.581-1.67-1.44l0,0
							c-0.064-0.859,0.581-1.607,1.44-1.67l32.297-2.391c0.859-0.064,1.607,0.581,1.67,1.44l0,0
							C368.731,248.335,368.087,249.083,367.228,249.146z"/>
					</g>
				</g>
				<g>
					<g>
						<g>
							<path style="fill:#263238;" d="M326.836,264.852c0.011,0.143-6.313,0.729-14.123,1.307
								c-7.813,0.578-14.153,0.931-14.163,0.787s6.312-0.728,14.125-1.307C320.484,265.061,326.826,264.709,326.836,264.852z"/>
						</g>
					</g>
				</g>
				<g>
					<g>
						<path style="fill:#E0E0E0;" d="M382.765,262.177l-46.03,3.408c-0.859,0.064-1.607-0.581-1.67-1.44l0,0
							c-0.063-0.859,0.581-1.607,1.44-1.67l46.031-3.408c0.859-0.064,1.607,0.581,1.67,1.44h0
							C384.269,261.366,383.624,262.114,382.765,262.177z"/>
					</g>
					<g>
						<path style="fill:#FF725E;" d="M362.268,263.695l-25.533,1.89c-0.859,0.064-1.607-0.581-1.67-1.44l0,0
							c-0.063-0.859,0.581-1.607,1.44-1.67l25.533-1.89c0.859-0.064,1.607,0.581,1.67,1.44l0,0
							C363.772,262.883,363.127,263.631,362.268,263.695z"/>
					</g>
				</g>
			</g>
			<g>
				<g>
					<path style="fill:#FF725E;" d="M306.423,201.098l-1.618-2.852c0.716-1.162,1.13-2.53,1.13-3.995
						c0-4.213-3.416-7.629-7.629-7.629c-4.214,0-7.629,3.416-7.629,7.629c0,4.213,3.416,7.629,7.629,7.629
						c1.759,0,3.378-0.597,4.669-1.598l-0.003,0.003L306.423,201.098z"/>
				</g>
			</g>
			<g>
				<g>
					<path style="fill:#FF725E;" d="M365.533,190.254c0.011,0.144-10.655,1.054-23.82,2.032
						c-13.169,0.979-23.851,1.657-23.861,1.513c-0.011-0.143,10.653-1.053,23.823-2.033
						C354.839,190.788,365.522,190.11,365.533,190.254z"/>
				</g>
			</g>
		</g>
	</g>
</g>
<g id="Character">
	<g>
		<polygon style="fill:#EBEBEB;" points="95.091,79.376 114.191,305.326 282.721,292.791 264.517,66.435 		"/>
	</g>
	<g>
		
			<rect x="109.9" y="64.497" transform="matrix(0.9973 -0.0738 0.0738 0.9973 -12.6108 14.7656)" style="fill:#FAFAFA;" width="167.026" height="226.918"/>
		<path style="fill:#263238;" d="M118.043,297.806l-0.037-0.498l-16.79-226.797l0.498-0.037l167.069-12.369l0.037,0.498
			l16.79,226.798l-0.498,0.037L118.043,297.806z M102.287,71.434l16.68,225.301l165.574-12.258L267.86,59.176L102.287,71.434z"/>
	</g>
	<g>
		<g>
			<path style="fill:#263238;" d="M234.811,92.899c-0.009,0.001-0.033-0.128-0.071-0.38c-0.039-0.278-0.091-0.649-0.158-1.122
				c-0.131-1.017-0.318-2.467-0.556-4.321c-0.234-1.887-0.518-4.182-0.847-6.841c-0.182-1.33-0.276-2.775-0.646-4.229
				c-0.191-0.723-0.463-1.451-0.907-2.088c-0.443-0.629-1.072-1.165-1.841-1.411c-1.537-0.516-3.423,0-4.723,1.199
				c-1.323,1.223-2.058,3.058-2.424,4.971c-0.736,3.882-0.368,8.162,0.394,12.543c0.393,2.193,0.812,4.454,1.31,6.728
				c0.513,2.265,1.203,4.562,2.445,6.613c1.228,2.026,3.136,3.752,5.458,4.534c1.152,0.381,2.408,0.519,3.606,0.258
				c1.206-0.227,2.316-0.865,3.241-1.698c1.846-1.718,2.869-4.151,3.166-6.592c0.324-2.46,0.071-4.93-0.191-7.341
				c-0.539-4.837-1.059-9.502-1.555-13.948c-0.246-2.222-0.487-4.39-0.72-6.496c-0.234-2.106-0.444-4.149-0.818-6.09
				c-0.363-1.941-0.901-3.783-1.709-5.418c-0.807-1.632-1.909-3.031-3.217-4.061c-2.647-2.058-5.811-2.696-8.44-2.546
				c-2.658,0.157-4.872,1.094-6.27,2.335c-1.424,1.231-2.062,2.609-2.4,3.525c-0.323,0.937-0.392,1.46-0.425,1.453
				c0,0,0.031-0.528,0.326-1.487c0.31-0.937,0.927-2.358,2.366-3.644c1.413-1.296,3.672-2.286,6.385-2.473
				c2.686-0.181,5.933,0.439,8.685,2.546c1.361,1.056,2.511,2.498,3.349,4.171c0.839,1.675,1.396,3.553,1.773,5.516
				c0.388,1.964,0.607,4.018,0.849,6.121c0.241,2.105,0.488,4.272,0.742,6.493c0.505,4.445,1.035,9.11,1.585,13.945
				c0.266,2.415,0.529,4.923,0.198,7.465c-0.306,2.524-1.367,5.087-3.327,6.908c-0.983,0.888-2.181,1.578-3.489,1.824
				c-1.299,0.281-2.652,0.13-3.875-0.276c-2.464-0.834-4.449-2.645-5.729-4.76c-1.284-2.129-1.981-4.48-2.494-6.768
				c-0.499-2.3-0.909-4.548-1.298-6.757c-0.753-4.406-1.115-8.742-0.345-12.707c0.385-1.96,1.153-3.881,2.575-5.184
				c1.411-1.28,3.415-1.826,5.114-1.252c0.848,0.278,1.538,0.877,2.01,1.56c0.473,0.691,0.75,1.458,0.941,2.205
				c0.368,1.507,0.446,2.948,0.615,4.278c0.295,2.663,0.55,4.961,0.759,6.851c0.197,1.858,0.351,3.313,0.459,4.332
				c0.045,0.475,0.08,0.849,0.106,1.128C234.813,92.767,234.82,92.898,234.811,92.899z"/>
		</g>
	</g>
	<g>
		<g>
			<path style="fill:#263238;" d="M166.22,84.872l-13.225-5.496c-3.574,2.276-9.4,8.524-11.024,15.505
				c-0.96,4.127-1.199,7.455-0.98,11.687c0.218,4.232-0.162,8.708-2.502,12.241c-1.666,2.515-4.355,4.704-4.404,7.721
				c-0.058,3.475,3.539,6.462,2.807,9.859c-0.587,2.721-3.617,4.096-5.203,6.384c-2.302,3.32-1.189,7.858,0.311,11.61
				c3.618,9.051-4.083,22.072,2.704,29.069c6.683-5.49,26.47-15.667,33.153-21.156c1.485-1.219,3.018-2.501,3.815-4.249
				c1.158-2.54,0.53-5.494-0.072-8.22C166.906,128.546,165.091,106.633,166.22,84.872z"/>
		</g>
		<g>
			<g>
				<path style="fill:none;stroke:#FFC7BF;stroke-width:0.05;stroke-miterlimit:10;" d="M192.074,254.748"/>
			</g>
		</g>
		<g>
			<g>
				<path style="fill:#263238;" d="M245.28,240.945l-6.52-6.606l-69.703,19.659c0,0-3.828,30.645-3.434,32.603
					c0.394,1.958-0.028,7.556-0.028,7.556l96.189-7.492C261.783,286.664,262.9,260.57,245.28,240.945z"/>
			</g>
			<g>
				<g>
					<path style="fill:#455A64;" d="M187.907,267.579c0.03,0.02-0.111,0.295-0.394,0.777c-0.29,0.477-0.717,1.163-1.312,1.97
						c-0.598,0.802-1.362,1.737-2.385,2.609c-1.018,0.873-2.329,1.629-3.805,2.101c-2.927,0.956-5.732,1.18-7.728,1.152
						c-1.001-0.012-1.808-0.072-2.363-0.136c-0.555-0.064-0.859-0.123-0.856-0.158c0.006-0.083,1.237-0.008,3.215-0.074
						c1.972-0.066,4.711-0.345,7.572-1.279c1.419-0.454,2.664-1.157,3.66-1.975c0.999-0.816,1.775-1.703,2.401-2.465
						C187.145,268.556,187.838,267.532,187.907,267.579z"/>
				</g>
			</g>
			<g>
				<g>
					<path style="fill:#455A64;" d="M210.844,290.703c-0.035,0.007-0.131-0.332-0.274-0.95c-0.144-0.618-0.327-1.517-0.535-2.632
						c-0.414-2.229-0.901-5.326-1.282-8.766c-0.379-3.441-0.579-6.57-0.661-8.836c-0.041-1.133-0.058-2.05-0.053-2.685
						c0.004-0.634,0.024-0.986,0.06-0.987c0.075-0.003,0.184,1.394,0.36,3.65c0.176,2.256,0.434,5.37,0.811,8.8
						c0.38,3.429,0.807,6.524,1.128,8.764C210.719,289.302,210.918,290.689,210.844,290.703z"/>
				</g>
			</g>
			<g>
				<g>
					<path style="fill:#455A64;" d="M217.497,289.101c-0.143,0.013-0.735-5.177-1.321-11.59c-0.587-6.416-0.946-11.625-0.803-11.639
						c0.143-0.013,0.735,5.176,1.321,11.591C217.28,283.877,217.64,289.088,217.497,289.101z"/>
				</g>
			</g>
			<g>
				<g>
					<path style="fill:#455A64;" d="M251.297,253.337c0.025,0.025-0.204,0.308-0.645,0.796c-0.442,0.486-1.092,1.181-1.948,1.994
						c-0.857,0.809-1.926,1.737-3.257,2.581c-1.328,0.836-2.938,1.58-4.755,1.877c-1.818,0.316-3.619,0.015-5.085-0.566
						c-1.479-0.575-2.666-1.375-3.608-2.084c-0.942-0.716-1.646-1.36-2.122-1.815c-0.475-0.456-0.718-0.728-0.695-0.753
						c0.06-0.07,1.134,0.92,3.033,2.27c0.954,0.66,2.134,1.406,3.562,1.933c1.419,0.532,3.105,0.799,4.831,0.501
						c1.727-0.281,3.283-0.981,4.586-1.771c1.306-0.797,2.382-1.68,3.261-2.446C250.202,254.303,251.237,253.277,251.297,253.337z"
						/>
				</g>
			</g>
			<g>
				<g>
					<path style="fill:#455A64;" d="M256.634,272.735c0.015,0.033-0.314,0.225-0.922,0.543c-0.709,0.37-1.568,0.818-2.574,1.343
						c-2.169,1.139-5.134,2.769-8.311,4.732c-3.176,1.967-5.959,3.892-7.947,5.325c-0.919,0.666-1.703,1.234-2.351,1.703
						c-0.556,0.402-0.875,0.611-0.897,0.583c-0.023-0.028,0.253-0.29,0.772-0.742c0.517-0.453,1.286-1.083,2.256-1.839
						c1.937-1.513,4.701-3.496,7.893-5.473c3.193-1.973,6.201-3.561,8.42-4.618c1.109-0.53,2.016-0.938,2.653-1.198
						C256.261,272.832,256.619,272.703,256.634,272.735z"/>
				</g>
			</g>
			<g>
				<g>
					<path style="fill:#455A64;" d="M193.048,264.573c-0.066,0.022-0.311-0.484-0.625-1.335c-0.308-0.852-0.697-2.056-0.882-3.451
						c-0.188-1.395-0.054-2.694,0.203-3.579c0.253-0.889,0.554-1.378,0.608-1.354c0.154,0.047-0.71,2.163-0.295,4.867
						c0.177,1.339,0.501,2.536,0.717,3.408C192.997,264.001,193.119,264.55,193.048,264.573z"/>
				</g>
			</g>
			<g>
				<g>
					<path style="fill:#455A64;" d="M197.251,264.816c-0.071,0.014-0.246-0.534-0.486-1.43c-0.228-0.898-0.557-2.148-0.654-3.592
						c-0.045-0.721-0.008-1.419,0.104-2.043c0.13-0.621,0.316-1.166,0.541-1.588c0.446-0.849,0.896-1.243,0.936-1.208
						c0.072,0.053-0.266,0.524-0.6,1.359c-0.344,0.833-0.566,2.064-0.461,3.447c0.092,1.38,0.358,2.633,0.495,3.548
						C197.272,264.225,197.321,264.802,197.251,264.816z"/>
				</g>
			</g>
			<g>
				<g>
					<path style="fill:#455A64;" d="M222.997,262.404c-0.175,0.017,0.164-3.457-1.516-7.255c-1.621-3.825-4.387-5.954-4.255-6.07
						c0.033-0.045,0.764,0.409,1.74,1.39c0.975,0.975,2.146,2.527,2.993,4.473c0.84,1.948,1.171,3.864,1.215,5.242
						C223.221,261.567,223.053,262.411,222.997,262.404z"/>
				</g>
			</g>
			<g>
				<g>
					<path style="fill:#455A64;" d="M227.625,260.776c-0.166,0.022-0.392-3.103-1.835-6.62c-1.409-3.533-3.418-5.935-3.284-6.035
						c0.048-0.041,0.612,0.505,1.367,1.521c0.755,1.014,1.67,2.522,2.399,4.318c0.724,1.797,1.115,3.518,1.277,4.771
						C227.715,259.987,227.688,260.772,227.625,260.776z"/>
				</g>
			</g>
			<g>
				<g>
					<path style="fill:#455A64;" d="M209.925,257.331c-0.017-0.016,0.18-0.27,0.694-0.511c0.503-0.238,1.368-0.406,2.353-0.088
						c0.486,0.161,0.991,0.459,1.4,0.925c0.399,0.473,0.663,1.12,0.688,1.812c0.032,0.691-0.15,1.421-0.554,2.061
						c-0.401,0.636-1.075,1.166-1.876,1.341c-1.606,0.326-3.202-0.561-3.774-1.849c-0.304-0.66-0.263-1.341-0.172-1.924
						c0.108-0.587,0.301-1.134,0.667-1.542c0.735-0.749,1.569-0.986,2.13-1.017c0.58-0.025,0.856,0.198,0.836,0.215
						c-0.016,0.044-0.298-0.097-0.817-0.013c-0.5,0.08-1.269,0.375-1.872,1.058c-0.275,0.333-0.44,0.833-0.518,1.368
						c-0.067,0.534-0.076,1.141,0.181,1.654c0.485,1.064,1.894,1.822,3.227,1.542c1.347-0.291,2.115-1.705,2.062-2.876
						c-0.01-0.596-0.218-1.142-0.541-1.554c-0.335-0.406-0.764-0.688-1.192-0.853c-0.868-0.327-1.666-0.236-2.156-0.07
						C210.192,257.175,209.953,257.368,209.925,257.331z"/>
				</g>
			</g>
		</g>
		<g>
			<g>
				<path style="fill:#FF725E;" d="M147.619,160.255c-0.548,0.668-16.586,10.886-19.002,17.47
					c-2.417,6.584,1.473,33.417,2.139,38.058c0.665,4.641,9.771,22.157,9.771,22.157s-1.911,7.557,0.598,12.22
					c2.509,4.663,7.003,6.737,7.003,6.737l16.121-8.827l-10.016-45.258L147.619,160.255z"/>
			</g>
			<g>
				<path style="fill:#FFFFFF;" d="M149.367,207.79c0.462-0.648,1.084-1.068,1.458-1.561c0.374-0.493,1.202-0.712,1.595-0.235
					c0.447,0.542-0.042,1.333-0.516,1.852c1.629,0.068,2.858-2.155,4.428-1.714c1.026,0.288,1.406,1.664,0.995,2.648
					c-0.411,0.984-1.348,1.635-2.271,2.168c-0.923,0.533-1.912,1.031-2.563,1.875c-0.341,0.442-0.559,1.11-0.192,1.531
					c0.624,0.714,2.089-0.129,2.645,0.638c0.376,0.519-0.077,1.22-0.51,1.693c-1.573,1.72-3.145,3.439-4.718,5.159
					c-0.416,0.455-0.861,0.929-1.449,1.114c-0.588,0.186-1.355-0.043-1.54-0.631c-0.182-0.578,0.268-1.174,0.783-1.492
					c0.515-0.318,1.124-0.487,1.585-0.88c0.461-0.393,0.707-1.158,0.288-1.595c-0.522-0.544-1.423-0.089-2.016,0.377
					c-1.835,1.442-3.67,2.883-5.505,4.325c-0.404,0.317-0.835,0.646-1.345,0.71c-0.51,0.064-1.104-0.257-1.141-0.769
					c-0.019-0.266,0.111-0.518,0.244-0.75c1.002-1.746,2.396-3.265,4.05-4.411c0.627-0.434,1.305-0.83,1.764-1.439
					c0.459-0.609,0.636-1.514,0.177-2.123c-1.081,1.016-2.278,1.908-3.561,2.653c-0.458,0.266-1.114,0.484-1.453,0.078
					c-0.35-0.419,0.012-1.038,0.367-1.453c1.899-2.226,3.798-4.452,5.698-6.679c0.484-0.568,1.053-1.179,1.798-1.223L149.367,207.79
					z"/>
			</g>
			<g>
				<path style="fill:#FF725E;" d="M157.296,145.614l-1.262,7.902l-11.87,9.506c0,0-2.803,17.856-0.132,36.024
					c0,0,17.343,47.001,17.766,49.048c0.787,3.81,7.794,7.018,7.794,7.018s26.425,0.243,35.504-1.067
					c9.079-1.31,31.037-15.154,33.105-16.996c2.068-1.842,4.467-10.676,4.467-10.676l-16.156-45.263l-0.907-31.836l-24.15-6.199
					l-8.202-6.349L157.296,145.614z"/>
			</g>
			<g>
				<path style="fill:#FFFFFF;" d="M228.517,178.63c0.462-0.648,1.084-1.068,1.458-1.561s1.202-0.712,1.596-0.235
					c0.447,0.542-0.043,1.333-0.516,1.852c1.629,0.068,2.858-2.155,4.428-1.714c1.026,0.289,1.406,1.664,0.995,2.648
					c-0.411,0.984-1.348,1.635-2.271,2.168c-0.923,0.533-1.912,1.032-2.563,1.875c-0.341,0.442-0.559,1.111-0.191,1.531
					c0.624,0.714,2.089-0.129,2.645,0.638c0.376,0.519-0.077,1.22-0.51,1.693c-1.573,1.72-3.145,3.439-4.718,5.159
					c-0.416,0.455-0.861,0.929-1.449,1.114c-0.588,0.186-1.355-0.043-1.54-0.631c-0.182-0.578,0.268-1.174,0.783-1.492
					c0.515-0.318,1.124-0.487,1.585-0.88c0.461-0.393,0.707-1.158,0.288-1.595c-0.522-0.544-1.423-0.089-2.016,0.377
					c-1.835,1.442-3.67,2.883-5.505,4.325c-0.404,0.317-0.835,0.646-1.345,0.71c-0.51,0.064-1.105-0.257-1.141-0.769
					c-0.019-0.266,0.111-0.518,0.244-0.75c1.002-1.746,2.396-3.264,4.05-4.411c0.627-0.435,1.305-0.83,1.764-1.439
					c0.459-0.609,0.636-1.514,0.177-2.123c-1.081,1.016-2.278,1.908-3.561,2.653c-0.458,0.266-1.114,0.484-1.453,0.078
					c-0.35-0.419,0.012-1.038,0.367-1.453c1.899-2.226,3.798-4.452,5.698-6.679c0.484-0.568,1.053-1.179,1.798-1.223L228.517,178.63
					z"/>
			</g>
			<g>
				<path style="fill:#FF725E;" d="M225.211,149.313c0,0,13.372,4.641,16.864,12.669c3.492,8.028,16.903,46.023,16.068,52.956
					c-0.834,6.933-3.077,15.021-9.131,15.368c-6.055,0.347-13.009-5.813-13.009-5.813l-5.445-8.847l0.289-9.271l-6.174-24.682
					L225.211,149.313z"/>
			</g>
			<g>
				<path style="fill:#967262;" d="M157.814,149.483c0.005,0.055,27.615,33.834,27.615,33.834l3.753-31.292l5.225-15.414
					l-35.956,8.888L157.814,149.483z"/>
			</g>
			<g style="opacity:0.3;">
				<g>
					<path d="M214.814,147.047c-1.63-0.819-3.594-0.172-5.243,0.607c-9.338,4.408-19.487,9.752-22.228,19.708l-0.114,6.018
						c0.859,3.622,4.606,6.013,8.315,6.321c3.71,0.308,7.353-1.063,10.678-2.737c2.98-1.501,5.828-3.266,8.498-5.266
						c1.483-1.111,3.014-2.467,3.286-4.3c0.371-2.499-1.723-4.674-2.2-7.155c-0.445-2.314,0.548-4.628,1.008-6.939
						C217.275,150.992,216.92,148.105,214.814,147.047z"/>
				</g>
			</g>
			<g>
				<g>
					<path style="fill:#263238;" d="M144.032,199.046c0.017-0.006,0.109,0.194,0.269,0.582c0.175,0.44,0.399,1.005,0.676,1.703
						c0.577,1.483,1.391,3.638,2.367,6.311c1.977,5.337,4.493,12.789,7.326,20.99c1.425,4.1,2.815,7.994,4.094,11.531
						c0.646,1.766,1.23,3.457,1.858,4.997c0.634,1.537,1.332,2.921,2.108,4.096c1.549,2.364,3.383,3.814,4.711,4.654
						c1.348,0.828,2.176,1.145,2.15,1.202c-0.007,0.017-0.213-0.059-0.602-0.22c-0.396-0.146-0.949-0.425-1.653-0.809
						c-1.376-0.796-3.289-2.233-4.912-4.622c-0.812-1.187-1.542-2.588-2.201-4.135c-0.653-1.552-1.251-3.236-1.91-4.998
						c-1.304-3.529-2.71-7.421-4.135-11.524c-2.795-8.188-5.324-15.598-7.181-21.037c-0.917-2.641-1.667-4.8-2.211-6.364
						c-0.24-0.712-0.433-1.288-0.584-1.737C144.075,199.265,144.015,199.053,144.032,199.046z"/>
				</g>
			</g>
			<g>
				<g>
					<path style="fill:#263238;" d="M185.299,184.388c-0.011,0.008-0.1-0.094-0.264-0.298c-0.187-0.24-0.42-0.54-0.706-0.909
						c-0.616-0.796-1.518-1.959-2.697-3.398c-2.357-2.879-5.852-6.858-10.433-11.104l0.398-0.167
						c-0.107,4.581-0.226,9.722-0.353,15.143c-0.012,0.478-0.024,0.953-0.035,1.394l-0.027,1.068l-0.467-0.959
						c-4.241-8.711-8.051-16.54-10.832-22.252c-1.339-2.805-2.428-5.088-3.209-6.725c-0.351-0.761-0.633-1.37-0.847-1.835
						c-0.188-0.422-0.28-0.646-0.264-0.654c0.016-0.008,0.138,0.202,0.356,0.609c0.236,0.454,0.546,1.05,0.933,1.793
						c0.817,1.62,1.956,3.878,3.356,6.653c2.817,5.695,6.678,13.498,10.975,22.182l-0.494,0.108
						c0.011-0.441,0.023-0.916,0.035-1.394c0.143-5.42,0.279-10.561,0.4-15.141l0.014-0.528l0.384,0.36
						c4.574,4.295,8.033,8.335,10.332,11.272c1.151,1.469,2.019,2.662,2.597,3.487c0.263,0.387,0.477,0.701,0.648,0.953
						C185.241,184.264,185.31,184.381,185.299,184.388z"/>
				</g>
			</g>
			<g>
				<g>
					<path style="fill:#263238;" d="M224.624,208.821c0.104,0.099-7.958,8.728-18.004,19.269
						c-10.05,10.546-18.279,19.011-18.383,18.912c-0.104-0.099,7.956-8.726,18.006-19.271
						C216.29,217.189,224.52,208.722,224.624,208.821z"/>
				</g>
			</g>
			<g>
				<g>
					<path style="fill:#263238;" d="M209.627,252.312c-0.078,0.013-0.322-1.197-0.773-3.134c-0.449-1.938-1.133-4.598-2.068-7.482
						c-0.939-2.884-1.949-5.438-2.724-7.27c-0.774-1.832-1.287-2.954-1.216-2.99c0.058-0.03,0.688,1.036,1.552,2.839
						c0.865,1.802,1.938,4.355,2.884,7.26c0.942,2.905,1.574,5.601,1.933,7.568C209.575,251.07,209.691,252.302,209.627,252.312z"/>
				</g>
			</g>
			<g>
				<g>
					<path style="fill:#263238;" d="M141.933,197.386c-0.081,0.119-3.089-1.777-6.717-4.234c-3.63-2.458-6.507-4.546-6.426-4.665
						c0.081-0.119,3.088,1.776,6.718,4.234C139.137,195.179,142.014,197.267,141.933,197.386z"/>
				</g>
			</g>
			<g>
				<g>
					<path style="fill:#263238;" d="M249.012,230.305c0.001,0.013-0.119,0.024-0.352,0.032c-0.279,0.004-0.617,0.01-1.028,0.016
						c-0.452,0.03-1.001-0.049-1.646-0.136c-0.654-0.045-1.369-0.27-2.179-0.48c-1.585-0.517-3.43-1.449-5.155-2.992
						c-1.71-1.548-3.317-3.634-4.425-6.239l-0.004-0.009l-0.004-0.017c-0.937-3.796-1.979-8.017-3.077-12.46
						c-2.042-8.458-3.89-16.112-5.246-21.729c-0.636-2.739-1.155-4.977-1.532-6.599c-0.16-0.738-0.29-1.335-0.391-1.8
						c-0.084-0.413-0.119-0.632-0.102-0.636c0.017-0.004,0.087,0.206,0.204,0.611c0.125,0.459,0.286,1.048,0.486,1.777
						c0.416,1.612,0.99,3.837,1.693,6.559c1.394,5.607,3.295,13.248,5.394,21.693c1.082,4.447,2.109,8.671,3.033,12.471
						l-0.008-0.026c1.043,2.502,2.604,4.588,4.246,6.111c1.66,1.527,3.439,2.467,4.978,3.013
						C247.037,230.453,249.027,230.169,249.012,230.305z"/>
				</g>
			</g>
			<g>
				<g>
					<path style="fill:#263238;" d="M151.332,230.918c0.004,0.088-0.775,0.139-1.976,0.438c-1.201,0.293-2.815,0.902-4.374,1.96
						c-1.555,1.066-2.711,2.347-3.422,3.358c-0.716,1.01-1.048,1.716-1.128,1.68c-0.052-0.019,0.162-0.787,0.821-1.883
						c0.652-1.094,1.816-2.476,3.436-3.585c1.623-1.103,3.334-1.682,4.591-1.89C150.54,230.781,151.333,230.863,151.332,230.918z"/>
				</g>
			</g>
			<g>
				<g>
					<path style="fill:#263238;" d="M151.509,229.777c0.056,0.123-1.982,1.118-4.685,1.785c-2.701,0.678-4.967,0.754-4.976,0.619
						c-0.015-0.152,2.194-0.457,4.85-1.124C149.356,230.401,151.451,229.636,151.509,229.777z"/>
				</g>
			</g>
			<g>
				<path style="fill:#FFFFFF;" d="M148.384,174.228c0.462-0.648,1.084-1.068,1.458-1.561c0.374-0.493,1.202-0.712,1.596-0.235
					c0.447,0.542-0.043,1.333-0.516,1.852c1.629,0.068,2.858-2.155,4.427-1.714c1.026,0.288,1.406,1.664,0.995,2.648
					c-0.411,0.984-1.348,1.635-2.271,2.168c-0.923,0.533-1.912,1.031-2.563,1.875c-0.341,0.442-0.559,1.111-0.191,1.531
					c0.624,0.714,2.089-0.129,2.645,0.638c0.376,0.519-0.077,1.22-0.51,1.693c-1.573,1.72-3.145,3.44-4.718,5.159
					c-0.416,0.455-0.861,0.929-1.449,1.114s-1.355-0.043-1.54-0.631c-0.182-0.578,0.268-1.174,0.783-1.492
					c0.515-0.318,1.124-0.487,1.585-0.88c0.461-0.393,0.707-1.158,0.288-1.595c-0.522-0.544-1.423-0.089-2.016,0.377
					c-1.835,1.442-3.67,2.883-5.505,4.325c-0.404,0.317-0.835,0.646-1.345,0.71c-0.51,0.064-1.105-0.257-1.141-0.769
					c-0.019-0.266,0.111-0.518,0.244-0.75c1.002-1.746,2.396-3.265,4.05-4.411c0.627-0.434,1.305-0.83,1.764-1.439
					c0.459-0.609,0.636-1.514,0.177-2.123c-1.081,1.016-2.278,1.908-3.561,2.653c-0.458,0.266-1.114,0.484-1.453,0.078
					c-0.35-0.419,0.012-1.038,0.367-1.453c1.899-2.226,3.798-4.452,5.698-6.679c0.484-0.567,1.053-1.179,1.798-1.223
					L148.384,174.228z"/>
			</g>
			<g>
				<path style="fill:#FFFFFF;" d="M190.397,187.806c0.462-0.648,1.084-1.068,1.458-1.561c0.374-0.493,1.202-0.712,1.596-0.235
					c0.447,0.542-0.042,1.333-0.516,1.851c1.629,0.068,2.858-2.155,4.428-1.713c1.026,0.289,1.406,1.664,0.995,2.648
					c-0.411,0.984-1.348,1.635-2.271,2.168c-0.923,0.533-1.912,1.032-2.563,1.875c-0.341,0.442-0.559,1.111-0.191,1.531
					c0.624,0.714,2.089-0.129,2.645,0.638c0.376,0.519-0.077,1.22-0.51,1.693c-1.573,1.72-3.145,3.439-4.718,5.159
					c-0.416,0.455-0.861,0.929-1.449,1.114c-0.588,0.186-1.355-0.043-1.54-0.631c-0.182-0.578,0.268-1.174,0.783-1.492
					c0.515-0.318,1.124-0.487,1.585-0.88c0.461-0.393,0.707-1.158,0.288-1.595c-0.522-0.544-1.423-0.089-2.016,0.377
					c-1.835,1.442-3.67,2.883-5.505,4.325c-0.404,0.317-0.835,0.646-1.345,0.71c-0.51,0.064-1.104-0.257-1.141-0.769
					c-0.019-0.266,0.111-0.518,0.244-0.75c1.002-1.746,2.396-3.264,4.05-4.411c0.627-0.434,1.305-0.83,1.764-1.439
					c0.459-0.609,0.636-1.514,0.177-2.123c-1.081,1.016-2.278,1.908-3.561,2.653c-0.458,0.266-1.114,0.484-1.453,0.078
					c-0.35-0.419,0.012-1.038,0.367-1.453c1.899-2.226,3.799-4.452,5.698-6.679c0.484-0.567,1.053-1.179,1.798-1.223
					L190.397,187.806z"/>
			</g>
			<g>
				<path style="fill:#FFFFFF;" d="M174.395,227.618c0.462-0.648,1.084-1.068,1.458-1.561c0.374-0.493,1.202-0.712,1.595-0.235
					c0.447,0.542-0.042,1.333-0.516,1.852c1.629,0.068,2.858-2.155,4.427-1.714c1.026,0.288,1.406,1.664,0.995,2.648
					c-0.411,0.984-1.348,1.635-2.271,2.168c-0.923,0.533-1.912,1.031-2.563,1.875c-0.341,0.442-0.559,1.111-0.191,1.531
					c0.624,0.714,2.089-0.129,2.645,0.638c0.376,0.519-0.077,1.22-0.51,1.693c-1.573,1.72-3.145,3.439-4.718,5.159
					c-0.416,0.455-0.86,0.929-1.449,1.114s-1.355-0.043-1.54-0.631c-0.181-0.578,0.268-1.174,0.783-1.492
					c0.515-0.318,1.124-0.487,1.585-0.88c0.461-0.393,0.707-1.158,0.288-1.595c-0.522-0.544-1.423-0.089-2.016,0.377
					c-1.835,1.442-3.67,2.883-5.505,4.325c-0.404,0.317-0.835,0.646-1.345,0.71c-0.51,0.064-1.105-0.257-1.141-0.769
					c-0.019-0.266,0.111-0.518,0.244-0.75c1.002-1.746,2.396-3.264,4.05-4.411c0.627-0.434,1.305-0.83,1.764-1.439
					s0.636-1.514,0.177-2.123c-1.081,1.016-2.278,1.908-3.561,2.653c-0.458,0.266-1.114,0.484-1.453,0.078
					c-0.35-0.419,0.012-1.038,0.366-1.453c1.899-2.226,3.799-4.452,5.698-6.679c0.484-0.567,1.053-1.179,1.798-1.223
					L174.395,227.618z"/>
			</g>
			<g>
				<path style="fill:#FFFFFF;" d="M222.162,224.117c0.462-0.648,1.084-1.068,1.458-1.561c0.374-0.493,1.202-0.712,1.595-0.235
					c0.447,0.542-0.042,1.332-0.516,1.851c1.629,0.068,2.858-2.155,4.428-1.713c1.026,0.288,1.406,1.664,0.995,2.647
					c-0.411,0.984-1.348,1.635-2.271,2.168c-0.923,0.533-1.912,1.032-2.563,1.875c-0.341,0.442-0.559,1.111-0.191,1.531
					c0.624,0.714,2.089-0.129,2.645,0.638c0.376,0.519-0.077,1.22-0.51,1.693c-1.573,1.72-3.145,3.439-4.718,5.159
					c-0.416,0.455-0.861,0.929-1.449,1.114c-0.588,0.186-1.355-0.043-1.54-0.631c-0.181-0.578,0.268-1.174,0.783-1.492
					c0.515-0.318,1.124-0.487,1.585-0.88c0.461-0.393,0.707-1.158,0.288-1.595c-0.522-0.544-1.423-0.089-2.016,0.377
					c-1.835,1.442-3.67,2.883-5.505,4.325c-0.404,0.317-0.835,0.646-1.345,0.71c-0.51,0.064-1.104-0.257-1.141-0.769
					c-0.019-0.266,0.111-0.518,0.244-0.75c1.002-1.746,2.396-3.264,4.05-4.411c0.626-0.435,1.305-0.83,1.764-1.439
					s0.636-1.514,0.177-2.123c-1.081,1.016-2.278,1.908-3.56,2.653c-0.458,0.266-1.114,0.484-1.453,0.078
					c-0.35-0.419,0.012-1.038,0.367-1.453c1.899-2.226,3.799-4.452,5.698-6.679c0.484-0.568,1.053-1.179,1.798-1.223
					L222.162,224.117z"/>
			</g>
			<g>
				<g>
					<path style="fill:#263238;" d="M203.922,229.472c-0.016,0.008-0.11-0.133-0.275-0.411c-0.19-0.333-0.42-0.738-0.699-1.227
						c-0.601-1.069-1.434-2.635-2.432-4.587c-1.998-3.902-4.605-9.374-7.176-15.552c-2.567-6.182-4.607-11.891-5.963-16.06
						c-0.679-2.084-1.201-3.779-1.535-4.959c-0.15-0.542-0.274-0.991-0.376-1.361c-0.08-0.313-0.115-0.479-0.097-0.485
						c0.017-0.005,0.085,0.151,0.197,0.454c0.127,0.361,0.282,0.8,0.469,1.33c0.426,1.234,0.997,2.89,1.691,4.902
						c1.443,4.133,3.533,9.809,6.095,15.978c2.565,6.165,5.113,11.65,7.025,15.588c0.936,1.911,1.707,3.484,2.282,4.656
						c0.244,0.507,0.446,0.926,0.612,1.271C203.875,229.306,203.938,229.464,203.922,229.472z"/>
				</g>
			</g>
			<g>
				<path style="fill:#FFFFFF;" d="M258.18,214.143c0.014,0.746-3.454,2.314-4.197,2.242l-0.874-0.273
					c-0.556,0.569-1.236,0.888-1.682,1.317c-0.446,0.429-1.298,0.518-1.613-0.014c-0.358-0.604,0.248-1.31,0.796-1.75
					c-1.599-0.319-3.157,1.687-4.639,1.009c-0.97-0.444-1.132-1.861-0.574-2.77c0.558-0.909,1.584-1.407,2.579-1.791
					c0.995-0.384,2.048-0.724,2.822-1.457c0.405-0.384,0.724-1.011,0.426-1.483c-0.506-0.801-2.084-0.195-2.514-1.039
					c-0.291-0.571,0.265-1.193,0.765-1.594c1.82-1.456,4.305-3.49,6.125-4.945C255.6,201.594,258.114,210.718,258.18,214.143z"/>
			</g>
			<g style="opacity:0.3;">
				<g>
					<path d="M188.495,246.436c14.507-7.911,27.443-20.642,34.464-35.599L188.495,246.436z"/>
				</g>
			</g>
			<g style="opacity:0.3;">
				<g>
					<path d="M140.43,238.354c2.841-6.102,8.425-7.776,13.859-7.701c0.185-0.617-0.323-1.269-0.932-1.477
						c-0.609-0.208-1.276-0.091-1.907,0.033c-2.61,0.513-5.259,1.143-7.503,2.572c-2.243,1.429-3.358,3.735-3.431,6.394"/>
				</g>
			</g>
			<g style="opacity:0.3;">
				<g>
					<path d="M155.728,153.861c3.643,13.555,9.48,26.327,17.02,38.165c2.787-4.283,4-9.565,3.362-14.635
						c2.077,2.722,5.008,4.783,8.271,5.816c-3.854-5.284-7.851-10.322-12.856-14.532c0,0-0.429,16.98-0.411,16.536
						C165.875,174.704,160.794,164.349,155.728,153.861"/>
				</g>
			</g>
		</g>
		<g>
			<g>
				<path style="fill:#263238;" d="M199.79,106.66c-1.493,4.846-3.614,8.585-8.312,10.492c-4.11,1.668-8.758,1.352-13.102,0.457
					c-14.106-2.906-28.917-10.425-36.406-22.727l4.04-8.724c4.231-6.647,14.573-14.532,26.572-10.631c0,0,9.645-3.48,18.804,4.346
					C200.546,87.698,199.79,106.66,199.79,106.66z"/>
			</g>
			<g>
				<g>
					<g>
						<path style="fill:#967262;" d="M165.889,82.174c-8.242-1.034-18.876,9.011-19.559,17.289
							c-0.759,9.197-1.323,20.456-0.365,27.348c1.926,13.859,12.481,15.823,12.481,15.823l-0.51,7.049l31.567-6.063l1.354-49.433
							l0.175-4.458L165.889,82.174z"/>
					</g>
					<g>
						<g>
							<g>
								<g>
									<g>
										<g>
											<g>
												<g>
													<g>
														<g>
															<g>
																<g>
																	<g>
																		<g>
																			<g>
																				<g>
																					<path style="fill:#263238;" d="M151.457,109.441c-0.051,0.935,0.698,1.749,1.674,1.821
																						c0.974,0.071,1.806-0.627,1.857-1.562c0.051-0.935-0.698-1.75-1.672-1.822
																						C152.341,107.806,151.509,108.506,151.457,109.441z"/>
																				</g>
																			</g>
																		</g>
																	</g>
																</g>
															</g>
														</g>
													</g>
												</g>
											</g>
										</g>
									</g>
								</g>
							</g>
						</g>
					</g>
					<g>
						<g>
							<g>
								<g>
									<g>
										<g>
											<g>
												<g>
													<g>
														<g>
															<g>
																<g>
																	<g>
																		<g>
																			<g>
																				<g>
																					<g>
																						<path style="fill:#263238;" d="M149.138,105.389c0.215,0.235,1.577-0.732,3.484-0.69
																							c1.905,0.015,3.285,1.023,3.497,0.793c0.104-0.101-0.112-0.523-0.713-0.978
																							c-0.591-0.453-1.606-0.903-2.794-0.921c-1.188-0.017-2.195,0.401-2.778,0.838
																							C149.238,104.869,149.031,105.284,149.138,105.389z"/>
																					</g>
																				</g>
																			</g>
																		</g>
																	</g>
																</g>
															</g>
														</g>
													</g>
												</g>
											</g>
										</g>
									</g>
								</g>
							</g>
						</g>
					</g>
					<g>
						<g>
							<g>
								<g>
									<g>
										<g>
											<g>
												<g>
													<g>
														<g>
															<g>
																<g>
																	<g>
																		<g>
																			<g>
																				<g>
																					<path style="fill:#263238;" d="M169.26,110.127c-0.051,0.935,0.698,1.749,1.674,1.821
																						c0.974,0.071,1.806-0.627,1.857-1.562c0.051-0.935-0.698-1.751-1.672-1.822
																						C170.144,108.492,169.311,109.192,169.26,110.127z"/>
																				</g>
																			</g>
																		</g>
																	</g>
																</g>
															</g>
														</g>
													</g>
												</g>
											</g>
										</g>
									</g>
								</g>
							</g>
						</g>
					</g>
					<g>
						<g>
							<g>
								<g>
									<g>
										<g>
											<g>
												<g>
													<g>
														<g>
															<g>
																<g>
																	<g>
																		<g>
																			<g>
																				<g>
																					<g>
																						<path style="fill:#263238;" d="M167.873,106.109c0.216,0.235,1.579-0.732,3.484-0.69
																							c1.905,0.015,3.285,1.023,3.497,0.793c0.103-0.101-0.11-0.522-0.713-0.978
																							c-0.591-0.454-1.606-0.903-2.793-0.921c-1.188-0.017-2.195,0.401-2.779,0.837
																							C167.975,105.589,167.767,106.003,167.873,106.109z"/>
																					</g>
																				</g>
																			</g>
																		</g>
																	</g>
																</g>
															</g>
														</g>
													</g>
												</g>
											</g>
										</g>
									</g>
								</g>
							</g>
						</g>
					</g>
					<g>
						<g>
							<g>
								<g>
									<g>
										<g>
											<g>
												<g>
													<g>
														<g>
															<g>
																<g>
																	<g>
																		<g>
																			<g>
																				<g>
																					<path style="fill:#263238;" d="M160.679,120.114c0.011-0.108-1.171-0.336-3.086-0.619
																						c-0.486-0.06-0.945-0.165-1.02-0.499c-0.108-0.354,0.106-0.875,0.353-1.437c0.48-1.17,0.984-2.395,1.512-3.679
																						c2.102-5.24,3.633-9.552,3.422-9.635c-0.212-0.083-2.088,4.097-4.189,9.337
																						c-0.506,1.292-0.991,2.524-1.451,3.703c-0.195,0.55-0.524,1.171-0.29,1.906
																						c0.124,0.366,0.477,0.637,0.787,0.727c0.31,0.101,0.584,0.112,0.824,0.131
																						C159.471,120.191,160.669,120.223,160.679,120.114z"/>
																				</g>
																			</g>
																		</g>
																	</g>
																</g>
															</g>
														</g>
													</g>
												</g>
											</g>
										</g>
									</g>
								</g>
							</g>
						</g>
					</g>
					<g>
						<g>
							<g>
								<g>
									<g>
										<g>
											<g>
												<g>
													<g>
														<g>
															<g>
																<g>
																	<g>
																		<g>
																			<g>
																				<path style="fill:#77574A;" d="M158.451,142.671c0,0,9.755,0.761,19.071-4.596c0,0-5.05,9.542-19.325,7.999
																					L158.451,142.671z"/>
																			</g>
																		</g>
																	</g>
																</g>
															</g>
														</g>
													</g>
												</g>
											</g>
										</g>
									</g>
								</g>
							</g>
						</g>
					</g>
					<g>
						<g>
							<g>
								<g>
									<g>
										<g>
											<g>
												<g>
													<g>
														<g>
															<g>
																<g>
																	<g>
																		<g>
																			<g>
																				<path style="fill:#77574A;" d="M161.396,124.725c0.704-0.893,1.914-1.368,3.105-1.216
																					c0.826,0.105,1.654,0.52,2.143,1.204c0.49,0.683,0.576,1.642,0.107,2.276c-0.529,0.713-1.607,0.859-2.512,0.584
																					c-0.906-0.277-1.677-0.891-2.409-1.502c-0.202-0.169-0.409-0.346-0.534-0.575
																					c-0.124-0.229-0.145-0.525,0.017-0.71"/>
																			</g>
																		</g>
																	</g>
																</g>
															</g>
														</g>
													</g>
												</g>
											</g>
										</g>
									</g>
								</g>
							</g>
						</g>
					</g>
					<g>
						<g>
							<g>
								<g>
									<g>
										<g>
											<g>
												<g>
													<g>
														<g>
															<g>
																<g>
																	<g>
																		<g>
																			<g>
																				<g>
																					<path style="fill:#263238;" d="M166.264,121.543c-0.31-0.024-0.354,2.045-2.154,3.48
																						c-1.797,1.439-3.999,1.164-4.02,1.453c-0.031,0.129,0.484,0.411,1.414,0.455
																						c0.913,0.049,2.253-0.218,3.354-1.096c1.098-0.88,1.586-2.073,1.673-2.921
																						C166.627,122.05,166.406,121.533,166.264,121.543z"/>
																				</g>
																			</g>
																		</g>
																	</g>
																</g>
															</g>
														</g>
													</g>
												</g>
											</g>
										</g>
									</g>
								</g>
							</g>
						</g>
					</g>
					<g>
						<g>
							<g>
								<g>
									<g>
										<g>
											<g>
												<g>
													<g>
														<g>
															<g>
																<g>
																	<path style="fill:#263238;" d="M167.525,98.627c0.178,0.522,2.087,0.313,4.318,0.626
																		c2.238,0.268,4.029,0.958,4.335,0.499c0.137-0.22-0.168-0.713-0.888-1.23c-0.713-0.515-1.858-1.014-3.198-1.19
																		c-1.34-0.173-2.574,0.017-3.395,0.332C167.871,97.98,167.45,98.38,167.525,98.627z"/>
																</g>
															</g>
														</g>
													</g>
												</g>
											</g>
										</g>
									</g>
								</g>
							</g>
						</g>
					</g>
					<g>
						<g>
							<g>
								<g>
									<g>
										<g>
											<g>
												<g>
													<g>
														<g>
															<g>
																<g>
																	<path style="fill:#263238;" d="M149.946,99.885c0.327,0.439,1.649,0.015,3.229,0.025
																		c1.58-0.046,2.911,0.348,3.228-0.099c0.139-0.217-0.063-0.655-0.64-1.076c-0.568-0.42-1.525-0.772-2.611-0.761
																		c-1.086,0.013-2.034,0.388-2.592,0.82C149.994,99.228,149.802,99.671,149.946,99.885z"/>
																</g>
															</g>
														</g>
													</g>
												</g>
											</g>
										</g>
									</g>
								</g>
							</g>
						</g>
					</g>
				</g>
			</g>
			<g>
				<path style="fill:#263238;" d="M189.75,88.351c-1.108-2.328-3.842-3.288-6.265-4.17c-3.417-1.244-6.736-2.77-10.227-3.789
					c-3.491-1.019-7.231-1.518-10.765-0.656c-3.649,0.89-6.811,3.157-9.604,5.668c-3.681,3.309-7.022,7.367-7.936,12.232l0.015,1.67
					c7.935-2.256,15.819-10.54,21.566-16.458c4.924,6.901,13.163,19.181,20.424,22.19c0.495-3.525,3.055-8.646,3.286-12.199
					C190.343,91.319,190.404,89.725,189.75,88.351z"/>
			</g>
			<g>
				<path style="fill:#263238;" d="M216.419,144.15c-0.538-2.759-3.265-4.427-5.654-5.908c-2.39-1.481-4.954-3.606-4.818-6.414
					c0.143-2.938,3.274-5.225,3.016-8.155c-0.271-3.076-3.903-4.496-5.837-6.904c-2.793-3.479-3.334-5.647-3.336-10.109
					c-0.004-8.734-3.495-20.134-11.177-24.29l-10.052,8.43c2.916,8.155,5.878,16.675,4.855,25.275
					c-0.607,5.103-2.611,10.068-2.322,15.2c0.31,5.503,3.222,10.524,4.215,15.946c0.941,5.14,0.127,10.428,0.395,15.647
					c0.267,5.218,1.979,10.867,6.411,13.635c5.566-2.665,11.131-5.33,16.697-7.994c1.805-0.865,3.845-2.036,4.105-4.021
					c0.267-2.037-1.507-3.753-1.975-5.754C209.722,153.51,217.445,149.415,216.419,144.15z"/>
			</g>
			<g>
				<g>
					<path style="fill:#455A64;" d="M199.514,101.487c0.017,0.066-0.923,0.394-2.477,0.823c-1.553,0.414-3.733,0.954-6.213,1.109
						c-2.483,0.156-4.734-0.223-6.286-0.676c-1.557-0.457-2.456-0.903-2.435-0.955c0.043-0.209,3.806,1.438,8.691,1.111
						c2.421-0.151,4.588-0.626,6.157-0.948C198.52,101.616,199.495,101.414,199.514,101.487z"/>
				</g>
			</g>
			<g>
				<g>
					<path style="fill:#455A64;" d="M199.833,104.697c0.027,0.048-0.787,0.603-2.248,1.231c-1.456,0.623-3.612,1.247-6.057,1.299
						c-2.444,0.05-4.615-0.415-6.135-0.837c-1.523-0.435-2.424-0.817-2.405-0.876c0.024-0.077,0.965,0.18,2.494,0.519
						c1.527,0.327,3.663,0.722,6.035,0.674c2.372-0.052,4.47-0.598,5.936-1.122C198.919,105.056,199.792,104.619,199.833,104.697z"
						/>
				</g>
			</g>
			<g>
				<g>
					<path style="fill:#455A64;" d="M141.197,99.525c0.025-0.15,1.217-0.036,2.657-0.216c1.442-0.166,2.573-0.56,2.633-0.42
						c0.063,0.12-1.038,0.758-2.571,0.937C142.385,100.016,141.164,99.657,141.197,99.525z"/>
				</g>
			</g>
			<g>
				<g>
					<path style="fill:#455A64;" d="M140.696,101.113c0.093-0.122,1.155,0.605,2.627,1.104c1.467,0.515,2.751,0.598,2.749,0.751
						c0.013,0.134-1.352,0.288-2.919-0.259C141.582,102.173,140.603,101.209,140.696,101.113z"/>
				</g>
			</g>
			<g>
				<g>
					<path style="fill:#263238;" d="M187.455,169.793c0,0-0.266-0.024-0.729-0.214c-0.462-0.185-1.128-0.556-1.782-1.26
						c-0.656-0.69-1.285-1.748-1.499-3.109c-0.101-0.678-0.072-1.433,0.152-2.186c0.219-0.753,0.618-1.476,1.055-2.198
						c0.437-0.724,0.927-1.454,1.288-2.274c0.348-0.821,0.559-1.738,0.569-2.702c0.012-1.933-0.689-3.966-1.787-5.859
						c-1.089-1.908-2.637-3.668-4.078-5.628c-1.44-1.939-2.813-4.198-3.234-6.812c-0.466-2.59-0.133-5.173,0.442-7.538
						c0.594-2.376,1.487-4.558,2.345-6.611c0.864-2.053,1.701-3.99,2.335-5.854c0.641-1.861,1.07-3.645,1.272-5.305
						c0.441-3.318,0.107-6.064-0.468-7.833c-0.559-1.793-1.296-2.585-1.232-2.622c0.014-0.011,0.175,0.193,0.471,0.596
						c0.264,0.421,0.647,1.059,0.953,1.961c0.646,1.783,1.042,4.572,0.641,7.943c-0.182,1.686-0.598,3.51-1.228,5.398
						c-0.624,1.891-1.451,3.847-2.301,5.901c-0.845,2.055-1.717,4.218-2.293,6.549c-0.558,2.322-0.873,4.836-0.424,7.324
						c0.403,2.503,1.712,4.672,3.133,6.6c1.419,1.943,2.97,3.719,4.083,5.691c1.114,1.949,1.833,4.06,1.802,6.104
						c-0.02,1.018-0.254,1.994-0.633,2.859c-0.392,0.86-0.9,1.594-1.342,2.304c-0.443,0.708-0.835,1.397-1.052,2.102
						c-0.221,0.699-0.263,1.405-0.18,2.05c0.176,1.293,0.751,2.327,1.362,3.013C186.347,169.585,187.507,169.715,187.455,169.793z"
						/>
				</g>
			</g>
			<g>
				<g>
					<path style="fill:#455A64;" d="M173.068,75.381c0.062,0.151-2.176,0.719-3.998,2.735c-1.862,1.981-2.245,4.258-2.4,4.208
						c-0.059-0.008-0.057-0.583,0.211-1.467c0.263-0.88,0.847-2.05,1.806-3.094c0.963-1.041,2.08-1.718,2.936-2.052
						C172.483,75.372,173.056,75.323,173.068,75.381z"/>
				</g>
			</g>
		</g>
		<g>
			<g>
				<path style="fill:#967262;" d="M226.06,169.377l-6.815-10.726l-0.466-10.55l2.669-7.218c0,0,2.131-0.509,2.482,2.034
					c0.352,2.543-0.789,5.618-0.789,5.618l1.458,5.123c0,0,0.481,0.547,0.934-1.58c0.453-2.127-0.335-17.921-0.344-19.01
					c-0.009-1.09,0.077-3.668,1.687-3.431c1.61,0.237,2.119,2.368,2.128,3.457c0.009,1.09,1.176,11.682,1.176,11.682
					s0.375,0.954,0.758,0.817c0.383-0.137-0.335-11.369-0.412-13.146c-0.077-1.777-0.467-5.704,1.615-5.713
					c2.081-0.008,2.08,1.975,2.196,4.145c0.116,2.17,1.477,14.329,1.477,14.329s0.317,0.762,0.613-0.259
					c0.295-1.021,0.669-14.245,0.905-14.863c0.236-0.618,1.444-1.432,2.386,0.061c0.941,1.493,0.721,4.981,0.59,11.151
					c-0.119,5.553-0.29,7.856,0.347,8.288c0.638,0.432,2.977-2.976,2.977-2.976s2.843-7.318,5.248-7.061
					c2.405,0.257,0.792,2.134,0.38,3.829c-0.35,1.438-4.558,10.026-4.649,10.106c-0.091,0.08-4.226,15.363-4.226,15.363
					l9.133,17.472c1.592,3.046,2.274,6.516,1.774,9.917c-0.549,3.732-2.465,7.889-7.932,9.596c-4.036,1.26-7.002-0.547-8.959-2.668
					c-1.712-1.856-2.795-4.205-3.228-6.693C229.998,189.734,226.06,169.377,226.06,169.377L226.06,169.377z"/>
			</g>
			<g>
				<g>
					<path style="fill:#77574A;" d="M232.855,161.675c-0.089-0.008,0.015-0.812-0.214-2.058c-0.222-1.232-0.861-2.93-2.219-4.287
						c-1.023-1.067-2.341-1.628-3.437-1.747c-1.113-0.124-1.937,0.264-2.338,0.526l-0.094,0.062l-0.042-0.087
						c-0.136-0.287-0.192-0.442-0.164-0.458c0.028-0.016,0.137,0.107,0.323,0.365l-0.136-0.025c0.355-0.356,1.249-0.883,2.484-0.806
						c1.208,0.065,2.667,0.653,3.773,1.804c1.458,1.457,2.077,3.297,2.214,4.6C233.148,160.886,232.907,161.689,232.855,161.675z"/>
				</g>
			</g>
			<g>
				<g>
					<path style="fill:#77574A;" d="M238.611,153.573c0.09,0.122-0.833,0.915-1.734,2.085c-0.912,1.162-1.453,2.252-1.593,2.194
						c-0.129-0.042,0.218-1.282,1.182-2.514C237.422,154.101,238.538,153.459,238.611,153.573z"/>
				</g>
			</g>
		</g>
		<g>
			<path style="fill:#967262;" d="M146.21,249.096c0.066,0.665,0.003,6.942,4.884,12.057c4.882,5.115,7.075,6.913,7.075,6.913
				l17.22,7.728c0,0,4.489,0.681,9.018-3.714c2.815-2.732,3.499-4.501,3.499-4.501s5.166,2.31,7.182,2.222
				c3.397-0.147,2.863-2.547,2.863-2.547s-11.371-6.262-14.075-8.681c-2.703-2.419-10.476-4.013-16.003-3.29l-3.198-0.628
				l-1.156-4.3c0,0-6.24-9.299-11.964-6.044C145.834,247.566,146.21,249.096,146.21,249.096z"/>
		</g>
	</g>
</g>
</svg>
