<?xml version="1.0" encoding="utf-8"?>
<!-- Generator: Adobe Illustrator 27.5.0, SVG Export Plug-In . SVG Version: 6.00 Build 0)  -->
<svg version="1.1" xmlns="http://www.w3.org/2000/svg" xmlns:xlink="http://www.w3.org/1999/xlink" x="0px" y="0px"
	 viewBox="0 0 500 500" style="enable-background:new 0 0 500 500;" xml:space="preserve">
<g id="Background_Complete">
	<g>
		<g>
			<path style="fill:#F5F5F5;" d="M409.539,208.588c-13.233-19.247-44.084-22.971-61.516-7.426
				c-0.357-15.634-10.711-30.588-25.218-36.424c-14.508-5.837-32.333-2.219-43.417,8.812c2.498-8.748-6.686-17.278-15.772-17.751
				c-9.085-0.473-17.482,4.414-25.277,9.106c-7.795,4.692-16.249,9.518-25.327,8.905c-9.827-0.664-17.999-7.518-27.185-11.07
				c-22.476-8.691-50.926,6.734-55.907,30.311c-24.879-10.044-56.799,6.401-63.064,32.489l364.289,4.254
				C428.689,219.438,419.938,210.849,409.539,208.588z"/>
		</g>
	</g>
	<g>
		<g>
			<g>
				<path style="fill:#FAFAFA;" d="M394.876,91.356c0.63-4.577-5.83-8.342-10.684-8.734c-2.315-0.187-4.719,0.167-6.912-0.597
					c-4.751-1.656-6.649-7.794-11.285-9.75c-3.466-1.462-7.456-0.16-10.816,1.531c-3.36,1.691-6.681,3.819-10.435,4.06
					c-3.265,0.209-6.811-1.002-9.668,0.593c-2.129,1.189-3.244,3.642-5.206,5.089c-1.92,1.416-4.424,1.716-6.805,1.845
					c-2.382,0.13-4.848,0.154-7.016,1.147c-2.169,0.993-3.963,3.286-3.513,5.629L394.876,91.356z"/>
			</g>
		</g>
	</g>
	<g>
		<g>
			<g>
				<path style="fill:#FAFAFA;" d="M77.769,53.698c0.352-2.554-3.253-4.655-5.961-4.873c-1.292-0.104-2.633,0.093-3.857-0.333
					c-2.651-0.924-3.71-4.349-6.297-5.44c-1.934-0.816-4.161-0.09-6.035,0.854c-1.875,0.944-3.728,2.131-5.822,2.265
					c-1.822,0.117-3.801-0.559-5.395,0.331c-1.188,0.663-1.81,2.032-2.905,2.839c-1.071,0.79-2.468,0.957-3.797,1.03
					c-1.329,0.072-2.705,0.086-3.915,0.64c-1.21,0.554-2.211,1.834-1.96,3.141L77.769,53.698z"/>
			</g>
		</g>
	</g>
	<g>
		<g>
			<g>
				<path style="fill:#EBEBEB;" d="M453.257,138.049c0.724-5.262-6.702-9.59-12.281-10.04c-2.661-0.215-5.425,0.192-7.946-0.686
					c-5.462-1.904-7.643-8.96-12.973-11.208c-3.984-1.68-8.571-0.185-12.434,1.759s-7.68,4.391-11.995,4.667
					c-3.754,0.24-7.83-1.152-11.114,0.682c-2.447,1.366-3.729,4.186-5.985,5.85c-2.207,1.628-5.085,1.972-7.823,2.121
					c-2.738,0.149-5.573,0.176-8.066,1.318c-2.493,1.142-4.556,3.778-4.038,6.471L453.257,138.049z"/>
			</g>
		</g>
	</g>
	<g>
		<g>
			<g>
				<path style="fill:#EBEBEB;" d="M443.066,47.768c0.51-3.704-4.717-6.75-8.644-7.067c-1.873-0.151-3.818,0.135-5.593-0.483
					c-3.844-1.34-5.38-6.307-9.131-7.889c-2.804-1.183-6.033-0.13-8.752,1.238c-2.719,1.368-5.406,3.09-8.443,3.285
					c-2.642,0.169-5.511-0.811-7.823,0.48c-1.722,0.962-2.625,2.947-4.212,4.118c-1.553,1.146-3.579,1.388-5.507,1.493
					c-1.927,0.105-3.922,0.124-5.677,0.928c-1.755,0.803-3.207,2.659-2.842,4.554L443.066,47.768z"/>
			</g>
		</g>
	</g>
	<g>
		<g>
			<g>
				<path style="fill:#EBEBEB;" d="M92.818,136.2c0.379-2.756-3.51-5.023-6.432-5.258c-1.394-0.112-2.841,0.101-4.161-0.359
					c-2.86-0.997-4.003-4.692-6.794-5.87c-2.087-0.88-4.489-0.097-6.512,0.922c-2.023,1.018-4.022,2.299-6.282,2.444
					c-1.966,0.126-4.101-0.603-5.821,0.357c-1.282,0.716-1.953,2.193-3.134,3.064c-1.156,0.852-2.663,1.033-4.097,1.111
					s-2.918,0.092-4.224,0.69c-1.306,0.598-2.386,1.979-2.115,3.389L92.818,136.2z"/>
			</g>
		</g>
	</g>
	<g>
		<g>
			<g>
				<path style="fill:#F5F5F5;" d="M195.617,93.928c0.801-5.823-7.416-10.613-13.591-11.11c-2.945-0.237-6.003,0.213-8.793-0.76
					c-6.044-2.107-8.459-9.915-14.356-12.403c-4.409-1.86-9.485-0.204-13.76,1.947c-4.275,2.151-8.499,4.859-13.274,5.164
					c-4.154,0.266-8.665-1.275-12.299,0.755c-2.708,1.512-4.127,4.633-6.623,6.474c-2.442,1.801-5.628,2.183-8.658,2.347
					c-3.03,0.165-6.167,0.195-8.926,1.459c-2.759,1.263-5.041,4.181-4.469,7.161L195.617,93.928z"/>
			</g>
		</g>
	</g>
	<g>
		<g>
			<g>
				<g>
					<path style="fill:#EBEBEB;" d="M27.855,302.906c0,0-8.522,1.21-3.68,19.868c4.843,18.658,8.931,28.269,8.931,28.269
						s0.656,4.228-2.754,4.107c-3.41-0.12-10.369-2.868-12.716,0.818c-2.434,3.823-0.282,8.414,5.08,13.21
						c5.362,4.796,16.724,15.735,17.747,16.728c1.005,0.975,1.771,3.044-0.565,3.335c-2.336,0.29-18.937-1.608-19.366,6.323
						c-0.429,7.931,16.704,18.838,18.554,20.066c1.85,1.228,2.144,2.193,1.733,3.267c-0.41,1.074-5.931-0.09-10.674-0.436
						c-4.744-0.346-10.305,0.083-10.169,4.68c0.136,4.597,9.149,16.186,35.37,24.745l12.409,3.171l9.139-9.054
						c18.378-20.568,20.353-35.116,18.162-39.16c-2.191-4.043-7.216-1.623-11.144,1.059c-3.928,2.682-8.118,6.46-9.012,5.737
						c-0.895-0.722-1.125-1.704-0.141-3.695c0.983-1.991,10.323-20.026,5.969-26.67c-4.354-6.643-17.757,3.334-19.923,4.256
						c-2.166,0.922-2.542-1.252-2.163-2.6c0.387-1.373,4.719-16.538,6.948-23.378c2.229-6.84,1.784-11.891-2.24-13.974
						c-3.881-2.009-8.52,3.861-11.408,5.677c-2.888,1.816-4.444-2.169-4.444-2.169s-1.29-10.365-6.472-28.932
						c-5.181-18.567-13.343-15.213-13.343-15.213"/>
				</g>
			</g>
		</g>
		<g>
			<g>
				<g>
					<g>
						<path style="fill:#E0E0E0;" d="M67.751,454.14C64,440.489,57.74,416.116,52.257,395.217
							c-5.481-20.891-10.461-39.801-14.143-53.469c-1.845-6.821-3.339-12.345-4.377-16.182c-0.512-1.898-0.911-3.379-1.187-4.401
							c-0.128-0.492-0.228-0.874-0.299-1.147c-0.065-0.259-0.089-0.395-0.089-0.395s0.05,0.128,0.128,0.383
							c0.08,0.271,0.192,0.649,0.337,1.137c0.292,1.018,0.716,2.491,1.259,4.381c1.089,3.806,2.626,9.324,4.499,16.15
							c3.751,13.651,8.775,32.551,14.256,53.442c5.483,20.898,11.699,45.282,15.381,58.95"/>
					</g>
				</g>
			</g>
		</g>
		<g>
			<g>
				<g>
					<g>
						<path style="fill:#E0E0E0;" d="M27.217,360.204c0.015-0.023,0.305,0.133,0.818,0.436c0.514,0.3,1.245,0.757,2.142,1.328
							c1.792,1.148,4.228,2.796,6.882,4.663c2.611,1.851,4.972,3.524,6.778,4.805c0.817,0.572,1.507,1.054,2.062,1.442
							c0.488,0.339,0.752,0.537,0.738,0.56c-0.014,0.023-0.306-0.131-0.821-0.43c-0.514-0.302-1.245-0.758-2.136-1.34
							c-1.782-1.166-4.194-2.845-6.848-4.712c-2.623-1.831-4.995-3.487-6.809-4.754c-0.821-0.568-1.513-1.047-2.07-1.433
							C27.464,360.427,27.202,360.227,27.217,360.204z"/>
					</g>
				</g>
			</g>
		</g>
		<g>
			<g>
				<g>
					<g>
						<path style="fill:#E0E0E0;" d="M47.668,372.827c-0.093-0.059,3.084-5.229,7.094-11.547c4.012-6.32,7.338-11.394,7.43-11.335
							c0.093,0.059-3.083,5.228-7.095,11.548C51.087,367.811,47.76,372.886,47.668,372.827z"/>
					</g>
				</g>
			</g>
		</g>
		<g>
			<g>
				<g>
					<g>
						<path style="fill:#E0E0E0;" d="M54.639,405.294c-0.017-0.021,0.225-0.255,0.678-0.659c0.517-0.455,1.163-1.024,1.929-1.698
							c1.626-1.436,3.864-3.428,6.253-5.717c2.395-2.284,4.49-4.427,5.994-5.99c0.709-0.735,1.306-1.354,1.784-1.85
							c0.424-0.435,0.668-0.667,0.688-0.649c0.021,0.018-0.184,0.285-0.573,0.753c-0.389,0.467-0.964,1.132-1.693,1.938
							c-1.454,1.615-3.523,3.795-5.924,6.086c-2.395,2.296-4.669,4.261-6.345,5.644c-0.841,0.688-1.528,1.238-2.013,1.604
							C54.932,405.122,54.656,405.315,54.639,405.294z"/>
					</g>
				</g>
			</g>
		</g>
		<g>
			<g>
				<g>
					<g>
						<path style="fill:#E0E0E0;" d="M33.628,397.947c0.009-0.026,0.311,0.048,0.851,0.204c0.618,0.189,1.377,0.422,2.273,0.696
							c1.914,0.604,4.548,1.464,7.45,2.437c2.903,0.973,5.523,1.876,7.414,2.548c0.88,0.321,1.625,0.594,2.232,0.815
							c0.524,0.201,0.81,0.324,0.801,0.35c-0.009,0.026-0.311-0.048-0.851-0.204c-0.618-0.189-1.377-0.421-2.272-0.696
							c-1.913-0.604-4.548-1.464-7.451-2.437c-2.902-0.973-5.522-1.875-7.413-2.547c-0.879-0.321-1.625-0.594-2.232-0.815
							C33.905,398.097,33.62,397.973,33.628,397.947z"/>
					</g>
				</g>
			</g>
		</g>
		<g>
			<g>
				<g>
					<g>
						<path style="fill:#E0E0E0;" d="M36.141,427.392c0.008-0.026,0.395,0.072,1.086,0.271c0.76,0.229,1.739,0.525,2.916,0.88
							c2.457,0.76,5.842,1.836,9.573,3.048c3.732,1.212,7.104,2.331,9.538,3.159c1.16,0.404,2.127,0.74,2.876,1.001
							c0.676,0.245,1.046,0.392,1.038,0.418c-0.009,0.026-0.395-0.072-1.086-0.271c-0.76-0.229-1.739-0.525-2.916-0.881
							c-2.457-0.76-5.842-1.836-9.574-3.048c-3.731-1.212-7.103-2.33-9.537-3.159c-1.16-0.404-2.127-0.74-2.876-1
							C36.503,427.565,36.133,427.418,36.141,427.392z"/>
					</g>
				</g>
			</g>
		</g>
		<g>
			<g>
				<g>
					<g>
						<path style="fill:#E0E0E0;" d="M62.582,435.777c-0.018-0.021,0.281-0.325,0.838-0.857c0.611-0.578,1.408-1.332,2.368-2.241
							c1.998-1.895,4.746-4.522,7.699-7.508c2.958-2.982,5.564-5.752,7.436-7.77c0.9-0.969,1.647-1.773,2.22-2.389
							c0.527-0.562,0.828-0.865,0.848-0.846c0.021,0.018-0.241,0.355-0.732,0.949c-0.491,0.594-1.215,1.442-2.127,2.475
							c-1.821,2.069-4.399,4.874-7.362,7.861c-2.957,2.991-5.742,5.591-7.79,7.434c-1.027,0.919-1.865,1.655-2.456,2.15
							C62.934,435.533,62.6,435.798,62.582,435.777z"/>
					</g>
				</g>
			</g>
		</g>
	</g>
	<g>
		<g>
			<g>
				<g>
					<g>
						<g>
							<g>
								<path style="fill:#F5F5F5;" d="M422.149,455.153c-20.727-11.473-28.514-36.999-30.928-60.577
									c-0.403-3.935-1.362-8.011-0.082-11.69c1.282-3.678,5.032-6.588,8.536-5.39c2.906,0.995,4.547,4.216,6.447,6.806
									c2.527,3.446,5.959,6.112,9.776,7.593c2.508,0.973,5.501,1.367,7.622-0.309c2.91-2.301,2.654-7.022,2.107-10.917
									c-1.021-7.258-2.04-14.516-3.06-21.773c-0.547-3.894-1.093-7.872-0.458-11.727c0.636-3.855,2.678-7.637,6.005-9.153
									c3.328-1.516,7.903,0.03,9.149,3.744c0.518,1.545,0.438,3.235,0.757,4.838c0.319,1.604,1.265,3.297,2.762,3.549
									c1.516,0.257,2.826-1.05,3.762-2.341c3.233-4.454,5.103-9.875,6.81-15.245c1.708-5.37,3.328-10.85,6.164-15.613
									c2.836-4.763,7.1-8.815,12.277-9.851c5.178-1.035,11.203,1.643,13.259,6.94c2.062,5.312-0.185,11.3-2.849,16.197
									c-3.952,7.266-8.891,13.891-14.616,19.601c-1.031,1.03-2.15,2.144-2.395,3.648c-0.442,2.708,2.208,4.97,4.722,5.494
									c2.847,0.593,5.754-0.115,8.644-0.149c2.89-0.034,6.149,0.882,7.611,3.606c2.029,3.778-0.525,8.383-3.222,11.54
									c-5.402,6.323-11.829,11.615-18.913,15.575c-2.54,1.419-5.238,2.728-7.129,5.04c-1.891,2.313-2.724,5.995-1.049,8.56
									c1.677,2.568,5.148,2.984,7.882,2.04c2.732-0.943,5.027-2.921,7.558-4.369c4.737-2.712,11.255-3.235,15.086,0.952
									c2.518,2.752,3.274,6.963,2.695,10.737c-0.577,3.774-2.32,7.196-4.229,10.394c-6.672,11.178-15.858,20.703-26.898,26.613
									C444.913,455.426,434.304,458.076,422.149,455.153"/>
							</g>
						</g>
					</g>
				</g>
			</g>
		</g>
		<g>
			<g>
				<g>
					<g>
						<g>
							<g>
								<g>
									<path style="fill:#E0E0E0;" d="M425.836,439.655c1.637-12.292,4.48-25.591,7.904-39.385
										c0.868-3.444,1.725-6.848,2.57-10.203c0.851-3.346,1.695-6.665,2.708-9.853c2.002-6.388,4.385-12.36,6.815-17.951
										c2.428-5.594,4.924-10.804,7.292-15.658c2.379-4.85,4.676-9.324,6.935-13.305c4.494-7.983,8.832-13.94,11.967-17.897
										c1.564-1.986,2.825-3.482,3.693-4.484c0.419-0.477,0.746-0.851,0.993-1.133c0.227-0.252,0.347-0.376,0.356-0.368
										c0.009,0.009-0.094,0.151-0.304,0.419c-0.235,0.294-0.547,0.684-0.943,1.181c-0.833,1.034-2.062,2.559-3.593,4.569
										c-3.068,4.009-7.33,9.993-11.759,17.986c-2.226,3.986-4.493,8.465-6.846,13.32c-2.344,4.863-4.819,10.076-7.226,15.663
										c-2.407,5.585-4.768,11.54-6.751,17.896c-1.004,3.173-1.837,6.463-2.688,9.818c-0.844,3.353-1.699,6.755-2.566,10.198
										c-3.42,13.783-6.275,27.045-7.942,39.294"/>
								</g>
							</g>
						</g>
					</g>
				</g>
			</g>
		</g>
		<g>
			<g>
				<g>
					<g>
						<g>
							<g>
								<g>
									<path style="fill:#E0E0E0;" d="M439.206,380.159c-0.044,0.014-0.248-0.561-0.58-1.613
										c-0.336-1.051-0.776-2.586-1.293-4.492c-1.038-3.809-2.303-9.12-3.677-14.979c-1.375-5.863-2.707-11.14-3.796-14.923
										c-0.54-1.893-0.991-3.421-1.315-4.472c-0.319-1.054-0.475-1.646-0.431-1.664c0.044-0.017,0.283,0.542,0.678,1.57
										c0.401,1.025,0.923,2.534,1.521,4.414c1.21,3.758,2.622,9.037,3.997,14.905c1.343,5.786,2.556,11.021,3.484,15.02
										c0.43,1.804,0.793,3.324,1.085,4.544C439.132,379.543,439.252,380.145,439.206,380.159z"/>
								</g>
							</g>
						</g>
					</g>
				</g>
			</g>
		</g>
		<g>
			<g>
				<g>
					<g>
						<g>
							<g>
								<g>
									<path style="fill:#E0E0E0;" d="M484.806,364.334c0.008,0.049-0.648,0.224-1.837,0.497c-1.187,0.28-2.907,0.676-5.015,1.237
										c-4.225,1.087-10.009,2.808-16.309,5.005c-6.298,2.21-11.914,4.471-15.93,6.231c-2.015,0.865-3.627,1.613-4.744,2.122
										c-1.116,0.514-1.742,0.777-1.764,0.732c-0.021-0.046,0.568-0.396,1.65-0.991c1.085-0.589,2.671-1.411,4.667-2.341
										c3.978-1.888,9.586-4.233,15.903-6.451c6.318-2.203,12.147-3.852,16.414-4.812c2.13-0.499,3.871-0.819,5.078-1.013
										C484.126,364.365,484.797,364.284,484.806,364.334z"/>
								</g>
							</g>
						</g>
					</g>
				</g>
			</g>
		</g>
		<g>
			<g>
				<g>
					<g>
						<g>
							<g>
								<g>
									<path style="fill:#E0E0E0;" d="M426.288,438.654c-0.02,0.013-0.158-0.182-0.404-0.567c-0.283-0.46-0.628-1.022-1.045-1.702
										c-0.902-1.482-2.155-3.663-3.669-6.378c-3.033-5.429-7.004-13.064-11.28-21.552c-4.279-8.491-8.178-16.155-11.101-21.641
										c-1.429-2.666-2.606-4.858-3.48-6.488c-0.375-0.708-0.684-1.292-0.938-1.771c-0.208-0.408-0.308-0.629-0.288-0.644
										c0.02-0.012,0.158,0.183,0.404,0.568c0.283,0.46,0.627,1.021,1.045,1.701c0.902,1.482,2.154,3.663,3.669,6.378
										c3.033,5.428,7.004,13.064,11.281,21.555c4.277,8.488,8.176,16.151,11.1,21.638c1.431,2.665,2.606,4.858,3.48,6.487
										c0.376,0.708,0.685,1.293,0.938,1.772C426.208,438.42,426.308,438.641,426.288,438.654z"/>
								</g>
							</g>
						</g>
					</g>
				</g>
			</g>
		</g>
		<g>
			<g>
				<g>
					<g>
						<g>
							<g>
								<g>
									<path style="fill:#E0E0E0;" d="M485.669,408.609c0.009,0.023-0.191,0.146-0.581,0.357
										c-0.464,0.242-1.032,0.538-1.721,0.897c-1.592,0.81-3.742,1.902-6.357,3.23c-5.367,2.729-12.739,6.589-20.878,10.866
										c-8.142,4.28-15.555,8.07-20.978,10.68c-2.711,1.306-4.915,2.339-6.452,3.019c-0.711,0.309-1.298,0.564-1.775,0.772
										c-0.409,0.169-0.629,0.246-0.638,0.223c-0.009-0.023,0.192-0.146,0.581-0.359c0.462-0.24,1.031-0.536,1.721-0.896
										c1.592-0.81,3.741-1.901,6.356-3.23c5.368-2.728,12.74-6.589,20.882-10.868c8.139-4.278,15.551-8.068,20.975-10.678
										c2.711-1.306,4.915-2.339,6.454-3.019c0.711-0.309,1.297-0.565,1.775-0.772
										C485.44,408.663,485.659,408.586,485.669,408.609z"/>
								</g>
							</g>
						</g>
					</g>
				</g>
			</g>
		</g>
	</g>
</g>
<g id="Background_Simple" style="display:none;">
	<path style="display:inline;fill:#EBEBEB;" d="M312.837,65.703l-0.811,0.342c-6.837,2.88-11.669,9.242-12.336,16.631
		c-0.086,0.95-0.104,1.906-0.05,2.86c0.384,6.87,4.464,13.423,10.459,16.8c3.526,1.986,7.774,3.042,10.333,6.177
		c3.331,4.08,2.543,10.016,1.584,15.194c-0.959,5.178-1.732,11.121,1.616,15.186c2.097,2.546,5.448,3.767,8.73,4.092
		c8.69,0.86,17.33-4.038,22.348-11.184c5.018-7.146,6.76-16.2,6.375-24.924c-0.539-12.221-5.289-24.494-14.26-32.81
		C337.854,65.75,324.477,61.94,312.837,65.703z"/>
	<path style="display:inline;fill:#EBEBEB;" d="M141.814,165.831c4.161-4.294,13.839-7.445,19.639-5.992
		c5.8,1.453,10.668,6.162,12.312,11.911c2.026,7.081-0.396,15.593,4.146,21.392c3.178,4.057,8.68,5.265,13.274,7.603
		c10.291,5.236,16.424,17.596,14.368,28.959c-2.056,11.363-12.13,20.791-23.603,22.09c-11.711,1.326-23.04-5.115-31.514-13.307
		c-8.724-8.435-16.773-23.586-17.912-35.668C131.217,188.946,131.2,178.039,141.814,165.831"/>
	<circle style="display:inline;fill:#EBEBEB;" cx="281.1" cy="39.852" r="18.066"/>
	<path style="display:inline;fill:#EBEBEB;" d="M332.767,183.728c-4.194-8.973-16.074-13.411-25.124-9.386l-1.288,0.632
		c-8.723,4.691-12.487,16.802-7.96,25.611c4.527,8.809,16.565,12.799,25.458,8.438C332.746,204.662,336.961,192.701,332.767,183.728
		z"/>
</g>
<g id="Floor">
	<g>
		<g>
			<g>
				<path style="fill:#263238;" d="M484.727,478.355c0,0.144-105.547,0.26-235.716,0.26c-130.214,0-235.739-0.117-235.739-0.26
					c0-0.144,105.525-0.26,235.739-0.26C379.18,478.094,484.727,478.211,484.727,478.355z"/>
			</g>
		</g>
	</g>
</g>
<g id="Device">
	<g>
		<g>
			<g>
				<g>
					<g>
						<g>
							<g>
								<g>
									<g>
										<g>
											<g>
												<path style="fill:#455A64;" d="M423.353,472.816H70.774c-8.045,0-14.567-6.522-14.567-14.567V234.96
													c0-8.045,6.522-14.567,14.567-14.567h352.579c8.045,0,14.567,6.522,14.567,14.567v223.289
													C437.92,466.294,431.398,472.816,423.353,472.816z"/>
											</g>
										</g>
									</g>
								</g>
							</g>
						</g>
						<g>
							<g>
								<g>
									<g>
										<g>
											<g>
												<path style="fill:#455A64;" d="M437.422,478.601H58.712c-9.623,0-17.424-7.801-17.424-17.424v-4.663h413.557v4.663
													C454.846,470.8,447.045,478.601,437.422,478.601z"/>
											</g>
										</g>
									</g>
								</g>
							</g>
						</g>
						<g>
							<g>
								<g>
									<g>
										<g>
											<g>
												<rect x="66.453" y="230.422" style="fill:#263238;" width="360.154" height="213.168"/>
											</g>
										</g>
									</g>
								</g>
							</g>
						</g>
						<g>
							<g>
								<g>
									<g>
										<g>
											<g>
												<polygon style="fill:#263238;" points="209.434,454.147 214.566,462.31 286.778,462.31 291.544,454.147 												"/>
											</g>
										</g>
									</g>
								</g>
							</g>
						</g>
					</g>
					<g>
						<g>
							<g>
								<g>
									<g>
										<g>
											<g>
												<g>
													<g>
														<g>
															<path style="fill:#EBEBEB;" d="M416.656,442.908H77.144c-1.808,0-3.273-1.465-3.273-3.273V240.911
																c0-1.808,1.465-3.273,3.273-3.273h339.513c1.807,0,3.272,1.465,3.272,3.273v198.724
																C419.929,441.443,418.464,442.908,416.656,442.908z"/>
														</g>
													</g>
												</g>
											</g>
										</g>
									</g>
								</g>
								<g>
									<g>
										<g>
											<g>
												<g>
													<g>
														<g>
															<polygon style="fill:#FAFAFA;" points="419.559,443.208 73.5,443.208 73.871,252.979 419.559,252.979 
																															"/>
														</g>
													</g>
												</g>
											</g>
										</g>
									</g>
								</g>
								<g>
									<g>
										<g>
											<g>
												<g>
													<g>
														<g>
															<path style="fill:#263238;" d="M102.253,245.566c0,1.526-1.237,2.764-2.764,2.764c-1.526,0-2.763-1.237-2.763-2.764
																c0-1.527,1.237-2.763,2.763-2.763C101.015,242.802,102.253,244.039,102.253,245.566z"/>
														</g>
													</g>
												</g>
											</g>
										</g>
									</g>
								</g>
								<g>
									<g>
										<g>
											<g>
												<g>
													<g>
														<g>
															<path style="fill:#263238;" d="M85.502,245.566c0,1.526-1.237,2.764-2.764,2.764c-1.526,0-2.764-1.237-2.764-2.764
																c0-1.527,1.238-2.763,2.764-2.763C84.265,242.802,85.502,244.039,85.502,245.566z"/>
														</g>
													</g>
												</g>
											</g>
										</g>
									</g>
								</g>
								<g>
									<g>
										<g>
											<g>
												<g>
													<g>
														<g>
															<path style="fill:#263238;" d="M93.543,245.566c0,1.526-1.237,2.764-2.764,2.764c-1.526,0-2.764-1.237-2.764-2.764
																c0-1.527,1.237-2.763,2.764-2.763C92.306,242.802,93.543,244.039,93.543,245.566z"/>
														</g>
													</g>
												</g>
											</g>
										</g>
									</g>
								</g>
							</g>
						</g>
					</g>
					<g>
						<g>
							<g>
								<g>
									<g>
										<g>
											<path style="fill:#263238;" d="M434.64,454.147c0,0.137-84.722,0.247-189.207,0.247
												c-104.522,0-189.226-0.111-189.226-0.247c0-0.136,84.704-0.247,189.226-0.247
												C349.918,453.9,434.64,454.01,434.64,454.147z"/>
										</g>
									</g>
								</g>
							</g>
						</g>
					</g>
				</g>
			</g>
		</g>
	</g>
	<g>
		<g>
			<g>
				<g>
					<path style="fill:#E8505B;" d="M383.105,334.879c-9.74,8.137-14.216,22.073-11.036,34.36
						c-8.98-1.788-18.767,1.163-25.262,7.617c-6.495,6.454-9.508,16.221-7.778,25.212c-9.915-6.819-25.057-4.264-32.185,5.43
						c-0.152-6.402-0.402-13.148-3.767-18.597c-3.365-5.449-11.004-8.811-16.392-5.35c4.059-4.612,4.671-11.922,1.436-17.145
						c-3.234-5.223-10.052-7.932-15.989-6.353c-0.152-7.688-5.023-62.064-9.036-107.945h-34.046
						c-3.948,45.082-8.573,96.86-8.721,104.348c-5.937-1.578-12.754,1.13-15.989,6.353c-3.235,5.223-2.622,12.533,1.436,17.145
						c-5.388-3.461-13.027-0.098-16.392,5.35c-3.365,5.449-3.615,12.194-3.767,18.597c-7.128-9.695-22.271-12.249-32.185-5.43
						c1.73-8.991-1.283-18.759-7.778-25.212c-6.495-6.453-16.282-9.404-25.261-7.617c3.18-12.287-1.295-26.223-11.036-34.36
						c-9.74-8.137-24.25-10.063-35.775-4.747v116.574H418.88V330.132C407.355,324.816,392.845,326.742,383.105,334.879z"/>
				</g>
			</g>
			<g style="opacity:0.8;">
				<g>
					<g>
						<path style="fill:#FFFFFF;" d="M383.105,334.879c-9.74,8.137-14.216,22.073-11.036,34.36
							c-8.98-1.788-18.767,1.163-25.262,7.617c-6.495,6.454-9.508,16.221-7.778,25.212c-9.915-6.819-25.057-4.264-32.185,5.43
							c-0.152-6.402-0.402-13.148-3.767-18.597c-3.365-5.449-11.004-8.811-16.392-5.35c4.059-4.612,4.671-11.922,1.436-17.145
							c-3.234-5.223-10.052-7.932-15.989-6.353c-0.152-7.688-5.023-62.064-9.036-107.945h-34.046
							c-3.948,45.082-8.573,96.86-8.721,104.348c-5.937-1.578-12.754,1.13-15.989,6.353c-3.235,5.223-2.622,12.533,1.436,17.145
							c-5.388-3.461-13.027-0.098-16.392,5.35c-3.365,5.449-3.615,12.194-3.767,18.597c-7.128-9.695-22.271-12.249-32.185-5.43
							c1.73-8.991-1.283-18.759-7.778-25.212c-6.495-6.453-16.282-9.404-25.261-7.617c3.18-12.287-1.295-26.223-11.036-34.36
							c-9.74-8.137-24.25-10.063-35.775-4.747v116.574H418.88V330.132C407.355,324.816,392.845,326.742,383.105,334.879z"/>
					</g>
				</g>
			</g>
		</g>
		<g>
			<g>
				<path style="fill:#E8505B;" d="M381.03,419.839c-12.35-8.296-28.181-11.219-42.68-7.878
					c-14.499,3.34-27.455,12.895-34.93,25.758c-3.005-4.111-7.033-7.414-11.576-9.704c0.318-0.862,0.597-1.74,0.802-2.639
					c2.039-8.925-1.803-18.907-9.302-24.16c-5.317-3.725-12.238-4.897-18.559-3.501l-10.219-145.606H241.14v133.839
					c-8.302,1.268-14.088,11.103-11.163,18.976c-5.777,0.843-11.019,4.738-13.493,10.026c-0.805,1.721-0.924,5.358-0.232,9.477
					c-10.083,0.136-20.071,5.131-26.037,13.293c-7.475-12.864-20.432-22.418-34.93-25.758c-14.499-3.34-30.329-0.418-42.68,7.878
					c-3.511-17.001-22.52-29.08-39.402-25.038v48.533l155.787-0.203c1.03,0.288,2.12,0.457,3.286,0.457l38.088-0.449l150.069,0.196
					v-48.533C403.55,390.759,384.541,402.838,381.03,419.839z"/>
			</g>
		</g>
		<g style="opacity:0.6;">
			<g>
				<path style="fill:#FFFFFF;" d="M381.03,419.839c-12.35-8.296-28.181-11.219-42.68-7.878
					c-14.499,3.34-27.455,12.895-34.93,25.758c-3.005-4.111-7.033-7.414-11.576-9.704c0.318-0.862,0.597-1.74,0.802-2.639
					c2.039-8.925-1.803-18.907-9.302-24.16c-5.317-3.725-12.238-4.897-18.559-3.501l-10.219-145.606H241.14v133.839
					c-8.302,1.268-14.088,11.103-11.163,18.976c-5.777,0.843-11.019,4.738-13.493,10.026c-0.805,1.721-0.924,5.358-0.232,9.477
					c-10.083,0.136-20.071,5.131-26.037,13.293c-7.475-12.864-20.432-22.418-34.93-25.758c-14.499-3.34-30.329-0.418-42.68,7.878
					c-3.511-17.001-22.52-29.08-39.402-25.038v48.533l155.787-0.203c1.03,0.288,2.12,0.457,3.286,0.457l38.088-0.449l150.069,0.196
					v-48.533C403.55,390.759,384.541,402.838,381.03,419.839z"/>
			</g>
		</g>
	</g>
</g>
<g id="Rocket">
	<g>
		<g>
			<g>
				<g>
					<g>
						<g>
							<g>
								<path style="fill:#E8505B;" d="M233.253,206.526c-7.686,3.65-11.16,14.173-7.159,21.682
									c1.578,2.962,4.152,5.569,4.493,8.908c0.524,5.119-4.32,9.124-5.816,14.048c-1.754,5.774,2.078,12.62,7.916,14.145
									c2.63,0.687,5.779,0.568,7.54,2.637c2.249,2.641,0.626,7.03,2.549,9.918c1.736,2.607,5.787,2.734,8.396,1.003
									c2.609-1.731,4.048-4.745,5.077-7.703c1.029-2.958,1.803-6.071,3.58-8.65c1.956-2.838,4.949-4.769,7.327-7.264
									c5.723-6.004,7.471-15.013,6.184-23.207c-1.287-8.194-5.259-15.721-9.747-22.696"/>
							</g>
						</g>
					</g>
				</g>
				<g style="opacity:0.3;">
					<g>
						<g>
							<g>
								<g>
									<path style="fill:#FFFFFF;" d="M233.253,206.526c-7.686,3.65-11.16,14.173-7.159,21.682
										c1.578,2.962,4.152,5.569,4.493,8.908c0.524,5.119-4.32,9.124-5.816,14.048c-1.754,5.774,2.078,12.62,7.916,14.145
										c2.63,0.687,5.779,0.568,7.54,2.637c2.249,2.641,0.626,7.03,2.549,9.918c1.736,2.607,5.787,2.734,8.396,1.003
										c2.609-1.731,4.048-4.745,5.077-7.703c1.029-2.958,1.803-6.071,3.58-8.65c1.956-2.838,4.949-4.769,7.327-7.264
										c5.723-6.004,7.471-15.013,6.184-23.207c-1.287-8.194-5.259-15.721-9.747-22.696"/>
								</g>
							</g>
						</g>
					</g>
				</g>
			</g>
			<g>
				<g>
					<g>
						<g>
							<path style="fill:#E8505B;" d="M240,210.852c-6.508,2.866-9.361,11.896-5.682,17.981c2.248,3.717,6.61,7.074,5.553,11.287
								c-0.717,2.857-3.782,4.609-4.662,7.42c-1.172,3.742,2.374,7.712,6.267,8.185c3.893,0.473,7.666-1.612,10.613-4.2
								c10.216-8.973,12.701-26.603,6.335-38.618"/>
						</g>
					</g>
				</g>
			</g>
		</g>
		<g>
			<g>
				<g>
					<g>
						<path style="fill:#E8505B;" d="M273.565,153.609c0,0,33.438,22.122,29.785,60.37l-30.744-13.796L273.565,153.609z"/>
					</g>
				</g>
			</g>
		</g>
		<g>
			<g>
				<polygon style="fill:#263238;" points="218.002,199.428 225.596,212.017 265.012,212.017 272.606,200.149 				"/>
			</g>
		</g>
		<g>
			<g>
				<path style="fill:#E8505B;" d="M243.263,72.401c-15.578,1.042-27.585,14.147-27.264,29.757l2.003,97.991h54.604l1.824-98.049
					C274.748,84.981,260.347,71.258,243.263,72.401z"/>
			</g>
		</g>
		<g style="opacity:0.8;">
			<g>
				<path style="fill:#FFFFFF;" d="M243.263,72.401c-15.578,1.042-27.585,14.147-27.264,29.757l2.003,97.991h54.604l1.824-98.049
					C274.748,84.981,260.347,71.258,243.263,72.401z"/>
			</g>
		</g>
		<g>
			<g>
				<g>
					<g>
						<path style="fill:#E8505B;" d="M217.043,153.609c0,0-33.438,22.122-29.786,60.37l30.744-13.796L217.043,153.609z"/>
					</g>
				</g>
			</g>
		</g>
		<g>
			<g>
				<g>
					<g>
						<path style="fill:#E8505B;" d="M216.305,98.909c11.542-10.109,47.793-9.889,57.526-1.662
							c-2.504-36.38-30.28-49.984-30.28-49.984C215.127,66.929,216.305,98.909,216.305,98.909z"/>
					</g>
				</g>
			</g>
		</g>
		<g>
			<g>
				<g>
					<g>
						<g>
							<path style="fill:#263238;" d="M243.55,47.263c0,0,0.114,0.096,0.326,0.293c0.217,0.205,0.529,0.499,0.936,0.882
								c0.412,0.392,0.918,0.874,1.516,1.443c0.299,0.286,0.622,0.593,0.966,0.922c0.324,0.35,0.668,0.722,1.033,1.116
								c0.724,0.794,1.542,1.665,2.411,2.642c0.819,1.02,1.709,2.128,2.665,3.318c0.453,0.615,0.895,1.269,1.366,1.935
								c0.455,0.676,0.978,1.339,1.419,2.085c0.895,1.483,1.886,3.025,2.734,4.754c1.776,3.408,3.386,7.332,4.509,11.717
								c0.581,2.187,1.009,4.493,1.312,6.883c0.163,1.192,0.26,2.416,0.425,3.631c0.146,1.222,0.124,2.517,0.134,3.773
								c0.017,10.156-0.128,21.316-0.259,33.032c-0.283,23.439-0.61,44.654-0.862,60.01c-0.135,7.672-0.244,13.882-0.32,18.185
								c-0.045,2.14-0.08,3.804-0.104,4.944c-0.015,0.559-0.027,0.987-0.035,1.286c-0.009,0.29-0.022,0.438-0.022,0.438
								s-0.008-0.149-0.008-0.438c0.001-0.299,0.003-0.727,0.005-1.286c0.011-1.139,0.027-2.804,0.048-4.945
								c0.054-4.303,0.131-10.513,0.226-18.186c0.199-15.364,0.473-36.576,0.776-60.011c0.131-11.715,0.285-22.877,0.282-33.027
								c-0.01-1.279,0.019-2.502-0.124-3.734c-0.166-1.237-0.259-2.448-0.419-3.638c-0.298-2.381-0.719-4.677-1.292-6.855
								c-1.108-4.368-2.7-8.281-4.458-11.682c-0.838-1.726-1.821-3.266-2.707-4.749c-0.436-0.746-0.955-1.409-1.406-2.085
								c-0.467-0.666-0.905-1.322-1.353-1.937c-0.947-1.193-1.828-2.303-2.64-3.326c-0.861-0.98-1.672-1.855-2.388-2.654
								c-0.361-0.397-0.701-0.771-1.021-1.124c-0.34-0.332-0.659-0.642-0.955-0.931c-0.589-0.576-1.089-1.064-1.495-1.462
								c-0.398-0.393-0.703-0.694-0.915-0.903C243.65,47.373,243.55,47.263,243.55,47.263z"/>
						</g>
					</g>
				</g>
			</g>
		</g>
		<g>
			<g>
				<g>
					<g>
						<g>
							<path style="fill:#FAFAFA;" d="M246.339,106.721c7.227,1.596,11.693,9.192,9.977,16.966
								c-1.717,7.774-8.967,12.783-16.193,11.187c-7.227-1.596-11.693-9.192-9.977-16.966
								C231.863,110.134,239.113,105.125,246.339,106.721z"/>
						</g>
					</g>
				</g>
			</g>
			<g>
				<g>
					<g>
						<g>
							<g>
								<path style="fill:#263238;" d="M246.339,106.721c-0.001,0.005-0.078-0.002-0.226-0.022
									c-0.162-0.023-0.378-0.054-0.655-0.093c-0.145-0.022-0.305-0.046-0.481-0.072c-0.18-0.008-0.376-0.016-0.587-0.025
									c-0.212-0.01-0.44-0.02-0.684-0.03c-0.244,0-0.503,0.027-0.778,0.04c-0.552,0.006-1.153,0.129-1.813,0.236
									c-0.647,0.165-1.358,0.329-2.078,0.636c-1.449,0.569-3.008,1.485-4.435,2.834c-1.418,1.346-2.736,3.112-3.57,5.267
									c-0.2,0.541-0.422,1.085-0.554,1.667c-0.073,0.288-0.164,0.576-0.225,0.872c-0.051,0.298-0.102,0.599-0.153,0.901
									l-0.077,0.456l-0.035,0.464c-0.023,0.311-0.047,0.623-0.07,0.938c0.006,0.316,0.011,0.633,0.017,0.953l0.01,0.481
									l0.054,0.481c0.246,2.57,1.203,5.234,2.956,7.442c1.704,2.245,4.294,3.905,7.197,4.582c2.918,0.61,5.968,0.195,8.46-1.124
									c2.52-1.265,4.51-3.278,5.816-5.506l0.252-0.414l0.211-0.432c0.14-0.288,0.278-0.573,0.416-0.857
									c0.111-0.295,0.222-0.589,0.331-0.88l0.164-0.436l0.122-0.446c0.081-0.296,0.161-0.59,0.241-0.882
									c0.07-0.294,0.108-0.593,0.163-0.885c0.125-0.584,0.153-1.171,0.2-1.746c0.151-2.307-0.301-4.463-1.021-6.281
									c-0.726-1.825-1.755-3.312-2.83-4.438c-0.523-0.581-1.099-1.029-1.617-1.451c-0.553-0.375-1.047-0.739-1.545-0.977
									c-0.243-0.128-0.468-0.261-0.688-0.364c-0.225-0.093-0.436-0.179-0.633-0.26c-0.195-0.081-0.376-0.156-0.543-0.224
									c-0.17-0.05-0.326-0.096-0.466-0.138c-0.267-0.081-0.477-0.144-0.633-0.192
									C246.411,106.752,246.338,106.726,246.339,106.721c0.001-0.005,0.076,0.011,0.221,0.046c0.159,0.04,0.372,0.095,0.643,0.164
									c0.143,0.038,0.3,0.079,0.473,0.125c0.169,0.065,0.353,0.136,0.551,0.212c0.2,0.077,0.414,0.161,0.643,0.249
									c0.225,0.1,0.453,0.23,0.701,0.355c0.507,0.233,1.01,0.593,1.575,0.966c0.528,0.42,1.116,0.867,1.652,1.45
									c1.1,1.129,2.155,2.628,2.905,4.474c0.743,1.84,1.214,4.028,1.072,6.372c-0.044,0.584-0.07,1.181-0.195,1.775
									c-0.055,0.298-0.093,0.601-0.163,0.9c-0.08,0.297-0.16,0.596-0.241,0.898l-0.123,0.454l-0.165,0.444
									c-0.111,0.297-0.222,0.596-0.334,0.897c-0.139,0.289-0.279,0.581-0.421,0.874l-0.214,0.44l-0.255,0.422
									c-1.323,2.273-3.347,4.33-5.919,5.626c-2.543,1.35-5.667,1.78-8.654,1.154c-2.972-0.691-5.624-2.396-7.361-4.691
									c-1.787-2.258-2.756-4.976-2.999-7.594l-0.054-0.49l-0.009-0.49c-0.004-0.325-0.009-0.649-0.014-0.97
									c0.025-0.32,0.05-0.638,0.074-0.954l0.037-0.472l0.079-0.463c0.054-0.308,0.107-0.613,0.159-0.916
									c0.063-0.301,0.156-0.592,0.232-0.885c0.137-0.591,0.364-1.143,0.57-1.692c0.858-2.186,2.206-3.972,3.655-5.328
									c1.457-1.359,3.045-2.275,4.519-2.836c0.731-0.303,1.453-0.462,2.109-0.62c0.669-0.1,1.277-0.215,1.835-0.213
									c0.277-0.009,0.539-0.031,0.785-0.027c0.245,0.016,0.474,0.031,0.688,0.044c0.212,0.014,0.408,0.027,0.589,0.039
									c0.176,0.031,0.337,0.06,0.482,0.086c0.275,0.052,0.491,0.092,0.652,0.122C246.266,106.699,246.34,106.716,246.339,106.721z
									"/>
							</g>
						</g>
					</g>
				</g>
			</g>
		</g>
		<g>
			<g>
				<path style="fill:#E0E0E0;" d="M218.002,199.428"/>
			</g>
		</g>
		<g>
			<g>
				<g>
					<path style="fill:#263238;" d="M229.42,118.642c-0.004,0.171-3.082,0.086-6.788,0.758c-3.711,0.647-6.571,1.788-6.634,1.628
						c-0.027-0.065,0.654-0.436,1.823-0.885c1.167-0.45,2.83-0.955,4.714-1.291c1.884-0.333,3.619-0.433,4.869-0.412
						C228.655,118.458,229.423,118.571,229.42,118.642z"/>
				</g>
			</g>
		</g>
		<g>
			<g>
				<g>
					<path style="fill:#263238;" d="M273.565,118.622c-0.016,0.08-0.948-0.042-2.452-0.229c-1.504-0.188-3.581-0.425-5.883-0.588
						c-2.303-0.161-4.394-0.218-5.909-0.242c-1.515-0.025-2.456-0.036-2.46-0.117c-0.004-0.073,0.931-0.201,2.454-0.277
						c1.522-0.076,3.632-0.082,5.954,0.08c2.321,0.165,4.41,0.466,5.906,0.754C272.671,118.292,273.579,118.55,273.565,118.622z"/>
				</g>
			</g>
		</g>
		<g>
			<g>
				<g>
					<path style="fill:#263238;" d="M273.869,174.7c-0.002,0.019-0.202,0.017-0.58-0.005c-0.44-0.032-0.986-0.073-1.651-0.121
						c-1.513-0.116-3.565-0.273-6.065-0.465c-5.122-0.362-12.21-0.709-20.043-0.704c-7.836,0.012-14.924,0.373-20.045,0.746
						c-2.5,0.197-4.552,0.358-6.064,0.477c-0.665,0.05-1.21,0.092-1.65,0.125c-0.378,0.022-0.578,0.025-0.58,0.006
						c-0.002-0.019,0.193-0.059,0.567-0.117c0.437-0.061,0.979-0.137,1.64-0.229c1.425-0.192,3.494-0.419,6.055-0.654
						c5.121-0.474,12.223-0.898,20.076-0.91c7.851-0.004,14.953,0.405,20.075,0.868c2.561,0.23,4.631,0.453,6.057,0.642
						c0.661,0.091,1.204,0.165,1.641,0.225C273.675,174.642,273.871,174.681,273.869,174.7z"/>
				</g>
			</g>
		</g>
		<g>
			<g>
				<g>
					<path style="fill:#263238;" d="M230.871,132.687c0.004,0.083-0.339,0.115-0.574,0.505c-0.112,0.185-0.186,0.454-0.108,0.684
						c0.066,0.227,0.314,0.403,0.623,0.429c0.31,0.021,0.582-0.113,0.683-0.328c0.113-0.215,0.081-0.492-0.001-0.692
						c-0.172-0.422-0.505-0.506-0.488-0.587c-0.025-0.068,0.461-0.145,0.833,0.398c0.164,0.254,0.295,0.655,0.124,1.092
						c-0.168,0.449-0.703,0.721-1.194,0.673c-0.492-0.028-0.979-0.38-1.075-0.85c-0.101-0.458,0.09-0.834,0.291-1.059
						C230.437,132.472,230.906,132.623,230.871,132.687z"/>
				</g>
			</g>
		</g>
		<g>
			<g>
				<g>
					<path style="fill:#263238;" d="M242.771,139.105c0.004,0.083-0.339,0.115-0.574,0.505c-0.112,0.185-0.186,0.454-0.108,0.684
						c0.067,0.227,0.314,0.403,0.623,0.429c0.31,0.021,0.582-0.113,0.683-0.328c0.113-0.215,0.081-0.492-0.001-0.692
						c-0.172-0.422-0.505-0.506-0.488-0.587c-0.025-0.068,0.461-0.145,0.833,0.398c0.164,0.254,0.295,0.655,0.124,1.092
						c-0.168,0.449-0.703,0.721-1.194,0.673c-0.492-0.028-0.979-0.38-1.075-0.85c-0.101-0.458,0.09-0.834,0.291-1.059
						C242.338,138.89,242.807,139.041,242.771,139.105z"/>
				</g>
			</g>
		</g>
		<g>
			<g>
				<g>
					<path style="fill:#263238;" d="M255.904,133.633c0.004,0.083-0.339,0.115-0.574,0.505c-0.112,0.185-0.186,0.454-0.108,0.684
						c0.067,0.227,0.314,0.403,0.623,0.429c0.31,0.022,0.582-0.113,0.683-0.328c0.113-0.215,0.081-0.492-0.001-0.692
						c-0.172-0.422-0.505-0.506-0.488-0.587c-0.025-0.068,0.461-0.145,0.833,0.398c0.164,0.254,0.295,0.655,0.124,1.092
						c-0.168,0.449-0.703,0.721-1.194,0.673c-0.492-0.028-0.979-0.38-1.075-0.85c-0.101-0.458,0.09-0.834,0.291-1.059
						C255.471,133.419,255.94,133.57,255.904,133.633z"/>
				</g>
			</g>
		</g>
		<g>
			<g>
				<g>
					<path style="fill:#263238;" d="M260.167,123.82c0.004,0.083-0.339,0.115-0.574,0.504c-0.112,0.185-0.186,0.454-0.108,0.684
						c0.066,0.227,0.314,0.403,0.623,0.429c0.31,0.021,0.582-0.113,0.683-0.328c0.113-0.215,0.081-0.492-0.001-0.692
						c-0.172-0.422-0.505-0.506-0.488-0.587c-0.025-0.068,0.461-0.145,0.833,0.398c0.164,0.254,0.295,0.655,0.124,1.092
						c-0.168,0.449-0.703,0.721-1.194,0.673c-0.492-0.028-0.979-0.38-1.075-0.85c-0.101-0.458,0.09-0.834,0.291-1.059
						C259.734,123.605,260.203,123.756,260.167,123.82z"/>
				</g>
			</g>
		</g>
		<g>
			<g>
				<g>
					<path style="fill:#263238;" d="M226.531,122.87c0.004,0.083-0.339,0.115-0.574,0.505c-0.112,0.185-0.186,0.454-0.108,0.684
						c0.066,0.227,0.314,0.403,0.623,0.429c0.31,0.021,0.582-0.113,0.683-0.328c0.113-0.215,0.081-0.492-0.001-0.692
						c-0.172-0.422-0.505-0.506-0.488-0.587c-0.025-0.068,0.461-0.145,0.833,0.398c0.164,0.254,0.295,0.655,0.124,1.092
						c-0.168,0.449-0.703,0.721-1.194,0.673c-0.492-0.028-0.979-0.38-1.075-0.85c-0.101-0.458,0.09-0.834,0.291-1.059
						C226.098,122.656,226.566,122.807,226.531,122.87z"/>
				</g>
			</g>
		</g>
		<g>
			<g>
				<g>
					<path style="fill:#263238;" d="M255.88,109.411c-0.004-0.083,0.339-0.115,0.574-0.504c0.112-0.185,0.186-0.454,0.108-0.684
						c-0.067-0.227-0.314-0.403-0.623-0.429c-0.31-0.021-0.582,0.113-0.683,0.328c-0.113,0.215-0.081,0.492,0.001,0.692
						c0.172,0.422,0.505,0.506,0.488,0.587c0.025,0.068-0.461,0.145-0.833-0.398c-0.164-0.254-0.295-0.655-0.124-1.092
						c0.168-0.449,0.703-0.721,1.194-0.673c0.492,0.028,0.979,0.38,1.075,0.85c0.101,0.458-0.09,0.834-0.291,1.059
						C256.313,109.625,255.844,109.474,255.88,109.411z"/>
				</g>
			</g>
		</g>
		<g>
			<g>
				<g>
					<path style="fill:#263238;" d="M242.747,103.593c-0.004-0.083,0.339-0.115,0.574-0.504c0.112-0.185,0.186-0.454,0.108-0.684
						c-0.067-0.227-0.314-0.403-0.623-0.429c-0.31-0.021-0.582,0.113-0.683,0.328c-0.113,0.215-0.081,0.492,0.001,0.692
						c0.172,0.422,0.505,0.506,0.488,0.587c0.025,0.068-0.461,0.145-0.833-0.398c-0.164-0.254-0.295-0.655-0.124-1.092
						c0.168-0.449,0.703-0.721,1.194-0.673c0.492,0.028,0.979,0.38,1.075,0.85c0.101,0.458-0.09,0.834-0.291,1.059
						C243.18,103.807,242.711,103.656,242.747,103.593z"/>
				</g>
			</g>
		</g>
		<g>
			<g>
				<g>
					<path style="fill:#263238;" d="M229.767,109.411c-0.004-0.083,0.339-0.115,0.574-0.504c0.112-0.185,0.186-0.454,0.108-0.684
						c-0.067-0.227-0.314-0.403-0.623-0.429c-0.31-0.021-0.582,0.113-0.683,0.328c-0.113,0.215-0.081,0.492,0.001,0.692
						c0.172,0.422,0.505,0.506,0.488,0.587c0.025,0.068-0.461,0.145-0.833-0.398c-0.164-0.254-0.295-0.655-0.124-1.092
						c0.168-0.449,0.703-0.721,1.194-0.673c0.492,0.028,0.979,0.38,1.075,0.85c0.101,0.458-0.09,0.834-0.291,1.059
						C230.2,109.625,229.731,109.474,229.767,109.411z"/>
				</g>
			</g>
		</g>
		<g>
			<g>
				<g>
					<g>
						<g>
							<g>
								<path style="fill:#E8505B;" d="M241.093,157.633l1.166,58.509c0.034,1.695,1.433,3.044,3.128,3.016l0,0
									c1.666-0.028,3.007-1.369,3.026-3.035c0.116-10.539,0.502-46.044,0.567-58.569c0.013-2.417-2.133-4.256-4.524-3.901l0,0
									C242.494,153.945,241.053,155.649,241.093,157.633z"/>
							</g>
						</g>
					</g>
				</g>
			</g>
			<g style="opacity:0.3;">
				<g>
					<g>
						<g>
							<g>
								<path d="M241.093,157.633l1.166,58.509c0.034,1.695,1.433,3.044,3.128,3.016l0,0c1.666-0.028,3.007-1.369,3.026-3.035
									c0.116-10.539,0.502-46.044,0.567-58.569c0.013-2.417-2.133-4.256-4.524-3.901l0,0
									C242.494,153.945,241.053,155.649,241.093,157.633z"/>
							</g>
						</g>
					</g>
				</g>
			</g>
		</g>
		<g>
			<g>
				<g>
					<path style="fill:#FFFFFF;" d="M242.898,50.599c0.177,0.198-1.771,2.084-4.595,5.382c-1.42,1.642-3.011,3.677-4.674,6.006
						c-1.633,2.351-3.32,5.007-4.894,7.908c-1.552,2.915-2.838,5.787-3.899,8.446c-1.026,2.671-1.847,5.121-2.433,7.212
						c-1.194,4.174-1.693,6.839-1.955,6.801c-0.193-0.023-0.109-2.763,0.81-7.089c0.449-2.164,1.167-4.702,2.137-7.463
						c1.004-2.748,2.279-5.712,3.869-8.697c1.613-2.971,3.381-5.669,5.12-8.021c1.768-2.332,3.489-4.331,5.047-5.898
						C240.532,52.033,242.772,50.45,242.898,50.599z"/>
				</g>
			</g>
		</g>
		<g>
			<g>
				<g>
					<path style="fill:#FFFFFF;" d="M215.765,159.429c0.161,0.247-2.606,2.046-6.464,5.622c-0.478,0.454-0.976,0.928-1.495,1.421
						c-0.517,0.496-1.004,1.064-1.537,1.621c-1.087,1.097-2.109,2.393-3.22,3.722c-2.126,2.737-4.266,5.898-6.155,9.423
						c-1.848,3.549-3.253,7.099-4.315,10.398c-0.471,1.667-0.966,3.242-1.26,4.758c-0.159,0.755-0.354,1.477-0.473,2.184
						c-0.115,0.706-0.225,1.385-0.331,2.035c-0.78,5.202-0.706,8.5-1,8.507c-0.115,0.004-0.226-0.814-0.327-2.31
						c-0.023-0.382-0.047-0.797-0.074-1.246c-0.011-0.456,0.013-0.95,0.023-1.483c0.04-1.063,0.027-2.283,0.207-3.615
						c0.074-0.67,0.151-1.37,0.231-2.097c0.087-0.729,0.254-1.474,0.388-2.254c0.242-1.566,0.697-3.196,1.142-4.92
						c1.008-3.413,2.411-7.087,4.313-10.737c1.943-3.627,4.186-6.856,6.436-9.612c1.174-1.339,2.263-2.633,3.42-3.716
						c0.568-0.55,1.09-1.108,1.643-1.591c0.556-0.476,1.09-0.934,1.602-1.373c0.998-0.899,2.013-1.577,2.869-2.209
						c0.434-0.308,0.83-0.606,1.212-0.854c0.386-0.231,0.743-0.445,1.071-0.641C214.966,159.701,215.704,159.332,215.765,159.429z"
						/>
				</g>
			</g>
		</g>
	</g>
	<g>
		<g>
			<g>
				<path style="fill:#E8505B;" d="M172.73,350.21c-2.652-1.521-4.195-4.77-3.698-7.786c0.497-3.017,3-5.599,6-6.189
					c2.741-0.539,6.164,0.236,7.892-1.959c1.569-1.993,0.385-4.64,1.074-7.848c0.67-3.119,3.437-4.708,6.47-4.664
					c3.033,0.045,5.844,2.013,7.358,4.642c1.514,2.629,2.47,6.68,2.116,9.692c-0.813,6.914-4.504,10.456-9.09,13.385
					C186.266,352.411,177.567,353.078,172.73,350.21"/>
			</g>
		</g>
		<g style="opacity:0.8;">
			<g>
				<g>
					<path style="fill:#FFFFFF;" d="M172.73,350.21c-2.652-1.521-4.195-4.77-3.698-7.786c0.497-3.017,3-5.599,6-6.189
						c2.741-0.539,6.164,0.236,7.892-1.959c1.569-1.993,0.385-4.64,1.074-7.848c0.67-3.119,3.437-4.708,6.47-4.664
						c3.033,0.045,5.844,2.013,7.358,4.642c1.514,2.629,2.47,6.68,2.116,9.692c-0.813,6.914-4.504,10.456-9.09,13.385
						C186.266,352.411,177.567,353.078,172.73,350.21"/>
				</g>
			</g>
		</g>
	</g>
	<g>
		<g>
			<g>
				<path style="fill:#E8505B;" d="M284.92,294.819c2.215-4.229,7.191-6.831,11.927-6.237c4.737,0.594,8.916,4.345,10.017,8.99
					c1.006,4.244,0.002,9.632,3.53,12.196c3.205,2.329,7.263,0.322,12.31,1.205c4.906,0.858,7.553,5.081,7.665,9.816
					c0.112,4.735-2.791,9.239-6.801,11.759s-10.274,4.255-14.996,3.883c-10.836-0.854-16.584-6.401-21.43-13.38
					C282.297,316.072,280.734,302.538,284.92,294.819"/>
			</g>
		</g>
		<g style="opacity:0.8;">
			<g>
				<g>
					<path style="fill:#FFFFFF;" d="M284.92,294.819c2.215-4.229,7.191-6.831,11.927-6.237c4.737,0.594,8.916,4.345,10.017,8.99
						c1.006,4.244,0.002,9.632,3.53,12.196c3.205,2.329,7.263,0.322,12.31,1.205c4.906,0.858,7.553,5.081,7.665,9.816
						c0.112,4.735-2.791,9.239-6.801,11.759s-10.274,4.255-14.996,3.883c-10.836-0.854-16.584-6.401-21.43-13.38
						C282.297,316.072,280.734,302.538,284.92,294.819"/>
				</g>
			</g>
		</g>
	</g>
	<g>
		<g>
			<g>
				<path style="fill:#E8505B;" d="M204.107,280.637c-1.852,0.811-4.064,3.527-3.951,6.565c0.148,3.986,4.288,7.331,8.216,6.637
					c3.928-0.693,6.673-5.254,5.447-9.049C212.592,280.995,207.698,278.902,204.107,280.637"/>
			</g>
		</g>
		<g style="opacity:0.8;">
			<g>
				<g>
					<path style="fill:#FFFFFF;" d="M204.107,280.637c-1.852,0.811-4.064,3.527-3.951,6.565c0.148,3.986,4.288,7.331,8.216,6.637
						c3.928-0.693,6.673-5.254,5.447-9.049C212.592,280.995,207.698,278.902,204.107,280.637"/>
				</g>
			</g>
		</g>
	</g>
	<g>
		<g>
			<g>
				<path style="fill:#E8505B;" d="M310.43,364.501c-0.926,0.405-2.032,1.763-1.975,3.282c0.074,1.993,2.144,3.665,4.108,3.319
					c1.964-0.347,3.336-2.627,2.723-4.525C314.673,364.68,312.226,363.634,310.43,364.501"/>
			</g>
		</g>
		<g style="opacity:0.8;">
			<g>
				<g>
					<path style="fill:#FFFFFF;" d="M310.43,364.501c-0.926,0.405-2.032,1.763-1.975,3.282c0.074,1.993,2.144,3.665,4.108,3.319
						c1.964-0.347,3.336-2.627,2.723-4.525C314.673,364.68,312.226,363.634,310.43,364.501"/>
				</g>
			</g>
		</g>
	</g>
</g>
<g id="Button">
	<g>
		<g>
			<g>
				<path style="fill:#E8505B;" d="M282.578,379.387h-62.152c-10.904,0-19.743-8.839-19.743-19.743v-2.767
					c0-10.904,8.839-19.743,19.743-19.743h62.152c10.904,0,19.743,8.839,19.743,19.743v2.767
					C302.321,370.547,293.482,379.387,282.578,379.387z"/>
			</g>
		</g>
		<g>
			<g>
				<path style="fill:#FFFFFF;" d="M231.068,361.052l0.689-1.528c0.739,0.538,1.842,0.914,2.894,0.914
					c1.203,0,1.691-0.4,1.691-0.939c0-1.641-5.099-0.514-5.099-3.771c0-1.491,1.203-2.732,3.695-2.732
					c1.103,0,2.23,0.264,3.044,0.777l-0.626,1.541c-0.814-0.464-1.654-0.689-2.431-0.689c-1.202,0-1.666,0.451-1.666,1.002
					c0,1.616,5.099,0.501,5.099,3.721c0,1.466-1.215,2.719-3.721,2.719C233.248,362.067,231.845,361.654,231.068,361.052z"/>
			</g>
			<g>
				<path style="fill:#FFFFFF;" d="M241.436,354.801h-2.806v-1.654h7.641v1.654h-2.806v7.115h-2.029V354.801z"/>
			</g>
			<g>
				<path style="fill:#FFFFFF;" d="M252.693,360.037h-4.071l-0.776,1.879h-2.079l3.908-8.77h2.004l3.922,8.77h-2.13L252.693,360.037
					z M252.054,358.496l-1.391-3.357l-1.391,3.357H252.054z"/>
			</g>
			<g>
				<path style="fill:#FFFFFF;" d="M262.096,361.916l-1.691-2.442h-0.1h-1.767v2.442h-2.029v-8.77h3.796
					c2.343,0,3.808,1.216,3.808,3.183c0,1.315-0.663,2.279-1.804,2.769l1.967,2.818H262.096z M260.192,354.801h-1.653v3.057h1.653
					c1.24,0,1.867-0.576,1.867-1.528C262.059,355.365,261.432,354.801,260.192,354.801z"/>
			</g>
			<g>
				<path style="fill:#FFFFFF;" d="M267.402,354.801h-2.807v-1.654h7.642v1.654h-2.806v7.115h-2.029V354.801z"/>
			</g>
		</g>
	</g>
</g>
<g id="Character">
	<g>
		<g>
			<g>
				<g>
					<g>
						<g>
							<g>
								<path style="fill:#E8505B;" d="M405.181,458.752l11.818,4.145l-0.126,11.366c-5.658,1.596-6.45,4.457-6.45,4.457
									l11.826-0.27l10.29-20.924l-8.141-5.326l-15.216-6.656"/>
							</g>
						</g>
					</g>
					<g style="opacity:0.6;">
						<g>
							<g>
								<polygon style="fill:#FFFFFF;" points="432.538,457.525 422.248,478.449 410.422,478.72 411.714,476.912 421.319,476.164 
									430.806,456.392 								"/>
							</g>
						</g>
					</g>
				</g>
				<g>
					<g>
						<g>
							<g>
								<path style="fill:#263238;" d="M416.831,469.058c0.09,0.119,0.764-0.284,1.679-0.278c0.915-0.021,1.595,0.371,1.683,0.25
									c0.109-0.092-0.573-0.786-1.688-0.771C417.391,468.263,416.72,468.968,416.831,469.058z"/>
							</g>
						</g>
					</g>
				</g>
				<g>
					<g>
						<g>
							<g>
								<path style="fill:#263238;" d="M416.958,466.237c0.121,0.081,0.631-0.629,1.57-0.834c0.937-0.215,1.702,0.21,1.776,0.085
									c0.039-0.054-0.102-0.249-0.438-0.423c-0.33-0.173-0.871-0.299-1.452-0.169c-0.58,0.13-1.016,0.475-1.241,0.772
									C416.944,465.968,416.9,466.204,416.958,466.237z"/>
							</g>
						</g>
					</g>
				</g>
				<g>
					<g>
						<g>
							<g>
								<path style="fill:#263238;" d="M416.8,462.62c0.131,0.062,0.519-0.63,1.336-0.934c0.814-0.314,1.563-0.052,1.62-0.185
									c0.03-0.06-0.123-0.222-0.453-0.337c-0.324-0.116-0.836-0.159-1.35,0.035c-0.514,0.195-0.869,0.566-1.035,0.867
									C416.746,462.373,416.738,462.595,416.8,462.62z"/>
							</g>
						</g>
					</g>
				</g>
				<g>
					<g>
						<g>
							<g>
								<path style="fill:#263238;" d="M415.931,462.613c0.145-0.035,0.055-0.781,0.41-1.58c0.332-0.81,0.932-1.26,0.857-1.39
									c-0.041-0.136-0.919,0.196-1.335,1.186C415.436,461.814,415.803,462.678,415.931,462.613z"/>
							</g>
						</g>
					</g>
				</g>
				<g>
					<g>
						<g>
							<g>
								<path style="fill:#263238;" d="M414.531,461.281c0.071,0.004,0.173-0.603,0.278-1.588c0.052-0.569,0.105-1.144,0.159-1.732
									c0.01-0.326,0.097-0.654,0-1.102c-0.056-0.222-0.191-0.447-0.421-0.587c-0.23-0.157-0.598-0.129-0.805,0.032
									c-0.41,0.322-0.528,0.696-0.672,1.047c-0.127,0.36-0.192,0.724-0.214,1.07c-0.04,0.696,0.109,1.314,0.313,1.79
									c0.422,0.965,1.015,1.311,1.037,1.267c0.07-0.063-0.4-0.491-0.693-1.397c-0.143-0.448-0.238-1.01-0.178-1.623
									c0.032-0.305,0.099-0.621,0.214-0.931c0.115-0.298,0.286-0.652,0.486-0.792c0.099-0.062,0.163-0.064,0.248-0.018
									c0.086,0.051,0.163,0.154,0.194,0.275c0.07,0.251,0.018,0.618,0.014,0.942c-0.016,0.59-0.032,1.167-0.047,1.738
									C414.431,460.662,414.459,461.276,414.531,461.281z"/>
							</g>
						</g>
					</g>
				</g>
				<g>
					<g>
						<g>
							<g>
								<path style="fill:#263238;" d="M414.339,461.796c0.046-0.031-0.302-0.548-1.212-0.845c-0.875-0.273-2.418-0.216-3.355,1.198
									c-0.048,0.134-0.038,0.323,0.051,0.458c0.087,0.139,0.208,0.209,0.31,0.254c0.213,0.09,0.393,0.092,0.553,0.112
									c0.334,0.03,0.658,0.026,0.963-0.002c0.611-0.056,1.145-0.215,1.565-0.398c0.847-0.372,1.238-0.802,1.2-0.847
									c-0.048-0.069-0.507,0.242-1.328,0.502c-0.409,0.129-0.91,0.239-1.471,0.265c-0.28,0.013-0.575,0.007-0.877-0.027
									c-0.155-0.02-0.307-0.034-0.398-0.079c-0.102-0.061-0.074-0.043-0.073-0.079c0.011-0.057,0.124-0.179,0.234-0.281
									c0.109-0.103,0.225-0.196,0.347-0.277c0.242-0.164,0.501-0.286,0.759-0.367c0.517-0.165,1.02-0.155,1.43-0.075
									C413.862,461.479,414.287,461.864,414.339,461.796z"/>
							</g>
						</g>
					</g>
				</g>
				<g style="opacity:0.6;">
					<g>
						<g>
							<path style="fill:#FFFFFF;" d="M423.096,457.377c0.017,0.775,0.659,1.389,1.433,1.372c0.775-0.017,1.389-0.659,1.372-1.434
								c-0.017-0.775-0.659-1.389-1.434-1.372C423.693,455.96,423.079,456.602,423.096,457.377z"/>
						</g>
					</g>
				</g>
			</g>
		</g>
		<g>
			<g>
				<g>
					<g>
						<g>
							<path style="fill:#E8505B;" d="M344.536,453.998l0.16,15.485c0,0-15.685,5.363-15.934,8.228l30.035,0.767l0.74-24.137
								L344.536,453.998z"/>
						</g>
					</g>
				</g>
				<g style="opacity:0.6;">
					<g>
						<g>
							<g>
								<path style="fill:#FFFFFF;" d="M354.017,468.418c0.577,0.174,0.962,0.838,0.812,1.422s-0.822,0.981-1.402,0.818
									c-0.58-0.164-1.067-0.946-0.852-1.51c0.214-0.564,1.029-0.987,1.552-0.689"/>
							</g>
						</g>
					</g>
				</g>
				<g style="opacity:0.6;">
					<g>
						<g>
							<path style="fill:#FFFFFF;" d="M358.797,478.478l-0.02-2.436l-28.789,0.175c0,0-1.352,0.547-1.225,1.493L358.797,478.478z"/>
						</g>
					</g>
				</g>
				<g>
					<g>
						<g>
							<g>
								<path style="fill:#263238;" d="M344.213,469.317c0.001,0.147,0.733,0.232,1.442,0.722c0.722,0.471,1.078,1.116,1.215,1.062
									c0.136-0.025-0.06-0.907-0.93-1.486C345.076,469.03,344.185,469.182,344.213,469.317z"/>
							</g>
						</g>
					</g>
				</g>
				<g>
					<g>
						<g>
							<g>
								<path style="fill:#263238;" d="M341.03,470.54c-0.037,0.141,0.592,0.407,1.074,1.04c0.501,0.619,0.609,1.293,0.755,1.29
									c0.137,0.027,0.261-0.83-0.354-1.605C341.898,470.483,341.037,470.4,341.03,470.54z"/>
							</g>
						</g>
					</g>
				</g>
				<g>
					<g>
						<g>
							<g>
								<path style="fill:#263238;" d="M339.144,474.264c0.133,0.035,0.355-0.693-0.001-1.505c-0.35-0.816-1.034-1.15-1.099-1.03
									c-0.086,0.118,0.348,0.561,0.63,1.233C338.973,473.627,338.999,474.246,339.144,474.264z"/>
							</g>
						</g>
					</g>
				</g>
				<g>
					<g>
						<g>
							<g>
								<path style="fill:#263238;" d="M344.568,465.784c0.058,0.135,0.736-0.05,1.564,0.028c0.829,0.061,1.467,0.355,1.547,0.231
									c0.087-0.104-0.528-0.663-1.504-0.74C345.199,465.218,344.499,465.668,344.568,465.784z"/>
							</g>
						</g>
					</g>
				</g>
			</g>
			<g style="opacity:0.3;">
				<g>
					<g>
						<polygon points="344.571,457.065 344.596,459.824 359.361,460.067 359.443,457.583 						"/>
					</g>
				</g>
			</g>
			<g>
				<g>
					<g>
						<g>
							<path style="fill:#263238;" d="M344.593,462.66c-0.003,0.061,0.574,0.166,1.505,0.031c0.463-0.068,1.01-0.205,1.586-0.443
								c0.288-0.119,0.582-0.264,0.875-0.436c0.141-0.086,0.307-0.171,0.463-0.342c0.167-0.149,0.269-0.535,0.087-0.778
								c-0.148-0.235-0.417-0.341-0.634-0.352c-0.221-0.013-0.402,0.027-0.566,0.064c-0.337,0.073-0.653,0.175-0.943,0.297
								c-0.581,0.246-1.055,0.565-1.41,0.875c-0.713,0.628-0.965,1.169-0.916,1.199c0.065,0.05,0.416-0.401,1.139-0.915
								c0.36-0.256,0.819-0.518,1.361-0.722c0.271-0.1,0.563-0.185,0.87-0.244c0.32-0.075,0.591-0.071,0.669,0.073
								c0.028,0.055,0.031,0.076-0.037,0.168c-0.071,0.084-0.202,0.165-0.341,0.25c-0.27,0.167-0.541,0.31-0.806,0.434
								c-0.53,0.247-1.036,0.411-1.468,0.52C345.16,462.555,344.593,462.58,344.593,462.66z"/>
						</g>
					</g>
				</g>
			</g>
			<g>
				<g>
					<g>
						<g>
							<path style="fill:#263238;" d="M344.779,462.875c0.051,0.024,0.356-0.494,0.434-1.443c0.037-0.47,0.003-1.043-0.163-1.652
								c-0.085-0.304-0.202-0.616-0.36-0.923c-0.169-0.301-0.373-0.704-0.94-0.784c-0.297-0.019-0.55,0.207-0.639,0.403
								c-0.104,0.201-0.129,0.375-0.168,0.548c-0.064,0.349-0.066,0.694-0.027,1.013c0.078,0.642,0.326,1.18,0.603,1.57
								c0.567,0.793,1.175,0.984,1.188,0.935c0.051-0.073-0.453-0.368-0.883-1.128c-0.212-0.374-0.396-0.866-0.44-1.426
								c-0.022-0.279-0.011-0.574,0.05-0.868c0.055-0.318,0.181-0.572,0.3-0.537c0.149,0.001,0.397,0.248,0.513,0.506
								c0.147,0.273,0.263,0.552,0.352,0.825c0.174,0.547,0.243,1.069,0.253,1.508C344.871,462.306,344.7,462.85,344.779,462.875z"
								/>
						</g>
					</g>
				</g>
			</g>
		</g>
		<g>
			<g>
				<g>
					<g>
						<g>
							<polygon style="fill:#263238;" points="414.355,446.107 379.77,433.246 416.128,428.142 417.959,410.43 349.968,416.363 
								340.366,430.185 342.895,447.53 409.137,464.371 							"/>
						</g>
					</g>
				</g>
				<g>
					<g>
						<g>
							<path style="fill:#263238;" d="M341.024,458.503l-3.311-63.299c0.18-6.165,3.538-11.798,8.876-14.888l0,0
								c4.414-2.556,9.712-3.095,14.551-1.482l44.113,14.707l24.211,6.225c0,0,4.123,10.174,1.699,18.078
								c-2.373,7.737-10.851,12.883-18.313,10.672c-9.266-2.746-51.808-21.041-51.808-21.041v51.544L341.024,458.503z"/>
						</g>
					</g>
				</g>
				<g>
					<g>
						<g>
							<g>
								<path style="fill:#455A64;" d="M412.209,428.685c-0.003,0.007-0.092-0.023-0.263-0.086c-0.19-0.073-0.44-0.169-0.756-0.291
									c-0.685-0.274-1.655-0.662-2.893-1.158c-2.529-1.031-6.148-2.508-10.61-4.328c-8.964-3.699-21.309-8.794-34.945-14.421
									c-0.609-0.253-1.216-0.504-1.779-0.737l0.283-0.189c-0.025,14.322-0.047,27.197-0.063,36.521
									c-0.027,4.633-0.049,8.381-0.064,10.999c-0.016,1.277-0.029,2.277-0.038,2.983c-0.008,0.324-0.015,0.58-0.02,0.775
									c-0.007,0.174-0.014,0.264-0.021,0.264s-0.014-0.089-0.021-0.264c-0.005-0.196-0.012-0.452-0.02-0.775
									c-0.009-0.707-0.022-1.707-0.038-2.983c-0.015-2.618-0.037-6.367-0.064-10.999c-0.016-9.324-0.038-22.2-0.062-36.521
									l0-0.307l0.284,0.118c0.563,0.233,1.169,0.485,1.779,0.737c13.618,5.671,25.947,10.804,34.899,14.532
									c4.441,1.871,8.043,3.388,10.56,4.448c1.225,0.526,2.185,0.938,2.863,1.229c0.31,0.138,0.554,0.246,0.741,0.329
									C412.128,428.636,412.212,428.678,412.209,428.685z"/>
							</g>
						</g>
					</g>
				</g>
				<g>
					<g>
						<g>
							<g>
								<path style="fill:#455A64;" d="M371.468,428.757c0.012-0.099,2.184,0.288,4.532,1.598c2.357,1.295,3.837,2.93,3.759,2.993
									c-0.085,0.094-1.658-1.373-3.958-2.635C373.512,429.434,371.433,428.879,371.468,428.757z"/>
							</g>
						</g>
					</g>
				</g>
			</g>
			<g>
				<g>
					<g>
						<g>
							<path style="fill:#455A64;" d="M357.204,398.911c0.095-0.053,1.231,1.819,2.332,4.281c1.106,2.46,1.748,4.554,1.646,4.589
								c-0.111,0.04-0.921-1.978-2.02-4.422C358.069,400.915,357.101,398.967,357.204,398.911z"/>
						</g>
					</g>
				</g>
			</g>
		</g>
		<g>
			<g>
				<polygon style="fill:#FFBE9D;" points="357.302,371.018 349.501,369.56 341.305,377.92 342.818,383.245 352.373,379.726 				"/>
			</g>
		</g>
		<g>
			<g>
				<g>
					<g>
						<path style="fill:#FFBE9D;" d="M285.225,351.937l8.875-1.969l14.279,2.237l-0.552,9.106c0,0-4.426,0.642-6.025,0.123
							c-1.599-0.519-2.923-0.066-2.923-0.066s0.869,1.794-0.633,2.087c-1.502,0.293-3.95,0.915-4.407-1.207
							c0,0-1.136,0.173-1.671-1.218c0,0-1.162,0.417-1.678-1.613c-0.516-2.03-0.225-5.075,3.791-6.046
							c0.21-0.046,0.304-0.534-0.089-0.513l-6.346,1.188C287.849,354.046,283.624,354.208,285.225,351.937z"/>
					</g>
				</g>
			</g>
			<g>
				<g>
					<g>
						<g>
							<path style="fill:#EB996E;" d="M292.777,358.291c-0.004-0.053,0.574-0.152,1.512-0.271c0.478-0.043,1.005-0.16,1.681-0.149
								c0.334,0.022,0.728,0.139,0.993,0.473c0.276,0.345,0.252,0.85,0.058,1.212c-0.422,0.766-1.243,0.954-1.811,1.113
								c-0.607,0.169-1.165,0.289-1.638,0.356c-0.948,0.135-1.54,0.093-1.542,0.047c-0.004-0.059,0.58-0.113,1.494-0.313
								c0.457-0.1,0.996-0.243,1.589-0.429c0.298-0.098,0.615-0.178,0.89-0.323c0.275-0.144,0.546-0.356,0.683-0.626
								c0.143-0.276,0.147-0.6-0.015-0.807c-0.163-0.216-0.45-0.327-0.73-0.352c-0.574-0.03-1.165,0.057-1.629,0.067
								C293.368,358.339,292.782,358.344,292.777,358.291z"/>
						</g>
					</g>
				</g>
			</g>
			<g>
				<g>
					<g>
						<g>
							<path style="fill:#EB996E;" d="M294.305,356.335c0.033,0.104-0.449,0.334-0.789,0.861c-0.355,0.516-0.386,1.056-0.493,1.064
								c-0.099,0.032-0.253-0.634,0.181-1.279C293.631,356.333,294.297,356.229,294.305,356.335z"/>
						</g>
					</g>
				</g>
			</g>
			<g>
				<g>
					<g>
						<g>
							<path style="fill:#EB996E;" d="M296.736,359.578c0.009-0.022,0.091-0.029,0.237,0.028c0.17,0.05,0.302,0.291,0.42,0.484
								c0.151,0.235,0.26,0.597,0.148,0.989c-0.102,0.418-0.544,0.691-0.923,0.786c-0.749,0.205-1.426,0.383-1.944,0.431
								c-0.514,0.052-0.833,0-0.834-0.049c-0.001-0.056,0.308-0.101,0.789-0.218c0.48-0.112,1.143-0.33,1.881-0.531
								c0.354-0.1,0.616-0.266,0.7-0.529c0.093-0.261,0.045-0.544-0.051-0.747c-0.114-0.254-0.155-0.415-0.262-0.488
								C296.797,359.65,296.724,359.604,296.736,359.578z"/>
						</g>
					</g>
				</g>
			</g>
			<g>
				<g>
					<g>
						<g>
							<path style="fill:#EB996E;" d="M297.332,361.128c-0.025-0.039,0.099-0.182,0.379-0.22c0.277-0.041,0.651,0.058,0.987,0.265
								c0.405,0.262,0.489,0.688,0.509,0.935c0.016,0.263-0.032,0.419-0.081,0.422c-0.054,0.004-0.102-0.147-0.18-0.367
								c-0.078-0.216-0.2-0.515-0.442-0.662c-0.296-0.181-0.581-0.293-0.791-0.323C297.502,361.144,297.357,361.179,297.332,361.128
								z"/>
						</g>
					</g>
				</g>
			</g>
			<g>
				<g>
					<g>
						<g>
							<path style="fill:#FFBE9D;" d="M301.747,354.051l-4.009,1.59l-3.778,2.661c0,0-0.011,0.914,2.128,0.579
								c2.138-0.334,3.76-1.465,3.76-1.465s2.797,1.763,5.265,1.355"/>
						</g>
					</g>
				</g>
				<g>
					<g>
						<g>
							<g>
								<path style="fill:#EB996E;" d="M305.113,358.773c0.003,0.018-0.133,0.051-0.393,0.097c-0.261,0.035-0.65,0.058-1.14,0.011
									c-0.982-0.088-2.353-0.475-3.819-1.32l0.182-0.004c-1.244,0.804-2.852,1.522-4.716,1.588
									c-0.276-0.003-0.557-0.023-0.834-0.128c-0.266-0.107-0.58-0.298-0.618-0.716l-0.008-0.092l0.089-0.061
									c1.396-0.968,2.685-1.861,3.798-2.632l0.016-0.011l0.015-0.006c1.225-0.467,2.235-0.844,2.942-1.096
									c0.707-0.252,1.111-0.38,1.122-0.35c0.011,0.03-0.371,0.213-1.059,0.514c-0.688,0.301-1.682,0.72-2.895,1.22l0.031-0.017
									c-1.102,0.788-2.377,1.701-3.759,2.69l0.08-0.153c0.006,0.115,0.169,0.288,0.376,0.354c0.208,0.08,0.457,0.101,0.706,0.103
									c1.729-0.056,3.337-0.743,4.525-1.483l0.093-0.058l0.089,0.054c1.393,0.839,2.727,1.27,3.668,1.409
									C304.551,358.835,305.107,358.719,305.113,358.773z"/>
							</g>
						</g>
					</g>
				</g>
			</g>
			<g>
				<g>
					<g>
						<g>
							<path style="fill:#EB996E;" d="M295.932,353.854c-0.017,0.101-0.471,0.096-0.934-0.188c-0.465-0.282-0.683-0.686-0.603-0.748
								c0.082-0.07,0.393,0.177,0.797,0.42C295.592,353.586,295.954,353.748,295.932,353.854z"/>
						</g>
					</g>
				</g>
			</g>
		</g>
		<g>
			<g>
				<g>
					<g>
						<g>
							<path style="fill:#E8505B;" d="M307.608,363.695l33.862,4.91c3.364,1.069,7.014,0.765,10.154-0.847l30.154-15.472
								l-9.03-19.91l0,0c-1.282,0.471-2.764,1.049-3.398,1.435l-24.81,17.882l-36.042-1.264L307.608,363.695z"/>
						</g>
					</g>
				</g>
				<g>
					<g>
						<g>
							<g>
								<polygon style="fill:#FFBE9D;" points="428.79,399.62 426.632,395.833 403.547,390.054 406.266,394.749 								"/>
							</g>
						</g>
					</g>
					<g>
						<g>
							<g>
								<path style="fill:#E8505B;" d="M372.749,332.377c0.032,0.808-3.388,25.86-3.388,30.978s9.801,10.673,9.801,10.673
									l10.732,22.786h38.223l-13.067-24.536l-5.908-19.654c-2.239-7.449-2.009-11.291-7.553-16.747l-10.692-7.194L372.749,332.377
									z"/>
							</g>
						</g>
					</g>
					<g>
						<g>
							<g>
								<path style="fill:#E8505B;" d="M383.851,352.161l6.42,26.936l-32.378-9.123l-5.52,9.752l42.13,19.189
									c5.189,2.364,11.327,0.693,14.602-3.975l0,0c1.987-2.831,2.636-6.389,1.779-9.739l-9.434-36.855
									c-1.299-5.074-6.634-7.975-11.599-6.307l0,0C385.62,343.46,383.067,347.766,383.851,352.161z"/>
							</g>
						</g>
					</g>
					<g>
						<g>
							<g>
								<g>
									<path style="fill:#263238;" d="M379.762,375.302c-0.007,0.013-0.734-1.315-0.972-1.432
										c-0.238-0.116-0.583-0.298-1.021-0.545c-0.873-0.496-2.124-1.25-3.551-2.355c-1.392-1.12-3.082-2.561-4.179-4.749
										c-1.038-2.241-0.964-5-0.586-7.698c0.391-2.726,0.952-5.264,1.281-7.611c0.359-2.34,0.607-4.458,0.739-6.242
										c0.138-1.784,0.16-3.232,0.155-4.233c-0.004-1.001-0.033-1.555,0.002-1.558c0.014-0.001,0.036,0.136,0.066,0.399
										c0.032,0.263,0.064,0.652,0.091,1.154c0.054,1.004,0.076,2.461-0.025,4.257c-0.095,1.796-0.314,3.927-0.654,6.278
										c-0.309,2.355-0.862,4.918-1.248,7.611c-0.377,2.675-0.444,5.354,0.522,7.484c1.024,2.094,2.663,3.55,4.017,4.682
										c1.388,1.121,2.608,1.908,3.452,2.445C378.698,373.721,379.777,375.274,379.762,375.302z"/>
								</g>
							</g>
						</g>
					</g>
					<g>
						<g>
							<g>
								<g>
									<path style="fill:#263238;" d="M392.637,330.483c0.019,0.021-0.19,0.252-0.584,0.653c-0.394,0.402-0.979,0.968-1.715,1.655
										c-1.471,1.373-3.559,3.211-5.954,5.133c-2.398,1.92-4.647,3.558-6.308,4.694c-0.83,0.569-1.51,1.017-1.988,1.313
										c-0.478,0.298-0.749,0.451-0.765,0.428c-0.016-0.023,0.225-0.221,0.674-0.559c0.522-0.388,1.16-0.861,1.91-1.418
										c1.614-1.194,3.829-2.863,6.22-4.778c2.389-1.916,4.5-3.714,6.017-5.029c0.707-0.611,1.308-1.13,1.8-1.556
										C392.372,330.655,392.618,330.463,392.637,330.483z"/>
								</g>
							</g>
						</g>
					</g>
					<g>
						<g>
							<g>
								<g>
									<path style="fill:#263238;" d="M383.851,352.161c0.012-0.003,0.066,0.173,0.159,0.514c0.098,0.374,0.228,0.873,0.392,1.502
										c0.336,1.349,0.81,3.251,1.4,5.618c1.169,4.828,2.796,11.544,4.663,19.255l0.08,0.33l-0.328-0.092
										c-2.619-0.736-5.397-1.517-8.255-2.32c-9.36-2.66-17.854-5.075-24.109-6.852l0.169-0.069
										c-1.716,2.975-3.111,5.394-4.096,7.103c-0.478,0.811-0.856,1.452-1.132,1.921c-0.122,0.199-0.222,0.362-0.304,0.494
										c-0.07,0.11-0.11,0.165-0.116,0.161c-0.006-0.004,0.02-0.065,0.078-0.182c0.072-0.138,0.16-0.307,0.267-0.515
										c0.26-0.478,0.615-1.132,1.064-1.959c0.958-1.725,2.313-4.165,3.981-7.168l0.056-0.101l0.113,0.031
										c6.262,1.749,14.768,4.125,24.14,6.742c2.857,0.807,5.634,1.592,8.252,2.331l-0.248,0.238
										c-1.812-7.724-3.389-14.452-4.524-19.288c-0.542-2.379-0.977-4.29-1.285-5.646c-0.137-0.636-0.246-1.14-0.327-1.518
										C383.87,352.346,383.839,352.164,383.851,352.161z"/>
								</g>
							</g>
						</g>
					</g>
					<g>
						<g>
							<g>
								<g>
									<path style="fill:#263238;" d="M401.594,350.484c0.014-0.003,0.068,0.156,0.158,0.462c0.097,0.35,0.222,0.795,0.375,1.345
										c0.321,1.224,0.764,2.907,1.304,4.964c1.074,4.247,2.536,10.028,4.152,16.415c0.793,3.212,1.569,6.26,2.224,9.057
										c0.648,2.795,0.935,5.426,0.618,7.603c-0.293,2.179-1.092,3.823-1.808,4.807c-0.715,0.998-1.293,1.376-1.293,1.376
										c-0.035-0.034,0.5-0.459,1.161-1.466c0.663-0.994,1.402-2.617,1.652-4.753c0.273-2.133-0.034-4.709-0.699-7.482
										c-0.694-2.785-1.455-5.837-2.254-9.042c-1.57-6.398-2.991-12.189-4.035-16.444c-0.488-2.07-0.887-3.764-1.177-4.996
										c-0.123-0.557-0.222-1.009-0.3-1.363C401.607,350.654,401.58,350.488,401.594,350.484z"/>
								</g>
							</g>
						</g>
					</g>
					<g style="opacity:0.3;">
						<g>
							<g>
								<g>
									<path d="M407.468,396.815c4.741,0.437,7.492-2.267,7.999-5.966c0.28-2.038-0.394-4.073-1.058-6.02
										c-2.906-8.521-5.845-17.113-10.456-24.845c1.742,7.737,3.964,15.166,5.705,22.903c0.569,2.527,0.777,3.999,0.736,6.589
										C410.353,392.066,409.192,394.882,407.468,396.815"/>
								</g>
							</g>
						</g>
					</g>
				</g>
			</g>
			<g>
				<g>
					<g>
						<path style="fill:#FAFAFA;" d="M368.596,358.04c-0.045,0.041-0.831-0.717-1.914-2.108c-1.083-1.388-2.424-3.44-3.555-5.886
							c-1.126-2.45-1.815-4.802-2.167-6.527c-0.354-1.727-0.42-2.816-0.36-2.824c0.082-0.012,0.276,1.054,0.718,2.739
							c0.439,1.685,1.173,3.981,2.282,6.393c1.114,2.409,2.383,4.458,3.379,5.886C367.974,357.145,368.659,357.985,368.596,358.04z"
							/>
					</g>
				</g>
			</g>
			<g>
				<g>
					<g>
						<path style="fill:#FAFAFA;" d="M359.317,363.526c-0.06,0.037-0.646-0.787-1.519-2.166c-0.873-1.379-2.026-3.319-3.217-5.506
							c-1.191-2.189-2.195-4.209-2.88-5.691c-0.685-1.482-1.059-2.421-0.996-2.451c0.066-0.032,0.557,0.851,1.325,2.287
							c0.855,1.594,1.878,3.5,3.008,5.606c1.156,2.092,2.202,3.984,3.077,5.567C358.904,362.596,359.379,363.487,359.317,363.526z"
							/>
					</g>
				</g>
			</g>
			<g>
				<g>
					<g>
						<path style="fill:#FAFAFA;" d="M346.553,368.51c-0.142,0.023-0.842-3.559-1.564-8c-0.722-4.443-1.192-8.062-1.05-8.085
							c0.142-0.023,0.842,3.559,1.564,8.001C346.225,364.867,346.695,368.487,346.553,368.51z"/>
					</g>
				</g>
			</g>
			<g>
				<g>
					<g>
						<path style="fill:#FAFAFA;" d="M335.193,367.742c-0.07,0.003-0.181-0.869-0.266-2.286c-0.085-1.417-0.134-3.379-0.083-5.544
							c0.052-2.166,0.193-4.124,0.345-5.535c0.152-1.411,0.304-2.277,0.374-2.271c0.074,0.007,0.051,0.884-0.007,2.298
							c-0.058,1.414-0.141,3.364-0.192,5.52c-0.05,2.155-0.06,4.108-0.069,5.522C335.286,366.861,335.267,367.738,335.193,367.742z"
							/>
					</g>
				</g>
			</g>
			<g>
				<g>
					<g>
						<path style="fill:#FAFAFA;" d="M323.815,351.195c0.069-0.004,0.189,0.807,0.285,2.127c0.097,1.32,0.161,3.148,0.125,5.168
							c-0.037,2.02-0.167,3.845-0.311,5.161c-0.144,1.316-0.292,2.122-0.361,2.115c-0.15-0.015,0.084-3.268,0.151-7.285
							C323.781,354.465,323.664,351.205,323.815,351.195z"/>
					</g>
				</g>
			</g>
			<g>
				<g>
					<g>
						<path style="fill:#FAFAFA;" d="M314.48,352.397c0.143,0.013,0.014,2.745-0.288,6.1c-0.302,3.357-0.664,6.067-0.807,6.054
							c-0.143-0.013-0.014-2.744,0.288-6.101C313.975,355.095,314.337,352.384,314.48,352.397z"/>
					</g>
				</g>
			</g>
			<g>
				<g>
					<g>
						<path style="fill:#FAFAFA;" d="M370.77,343.145c-0.146,0.046-0.752-1.611-1.771-3.513c-1.009-1.909-2.042-3.338-1.923-3.433
							c0.101-0.09,1.346,1.227,2.383,3.188C370.505,341.343,370.901,343.111,370.77,343.145z"/>
					</g>
				</g>
			</g>
			<g>
				<g>
					<g>
						<path style="fill:#FAFAFA;" d="M388.371,370.361c0,0.036-0.278,0.066-0.785,0.09c-0.507,0.03-1.241,0.017-2.147-0.048
							c-1.809-0.127-4.307-0.566-6.913-1.537c-2.604-0.979-4.777-2.287-6.225-3.379c-0.726-0.545-1.289-1.017-1.651-1.373
							c-0.367-0.35-0.557-0.556-0.533-0.583c0.057-0.065,0.91,0.655,2.396,1.655c1.483,1.001,3.64,2.232,6.195,3.192
							c2.557,0.952,4.991,1.44,6.767,1.659C387.254,370.258,388.371,370.274,388.371,370.361z"/>
					</g>
				</g>
			</g>
			<g>
				<g>
					<g>
						<path style="fill:#FAFAFA;" d="M384.723,357.592c-0.011,0.066-0.811,0.005-2.086-0.228c-1.274-0.233-3.018-0.658-4.889-1.302
							c-1.871-0.646-3.507-1.385-4.654-1.987c-1.148-0.601-1.816-1.046-1.784-1.105c0.074-0.14,2.903,1.333,6.607,2.599
							C381.615,356.853,384.751,357.436,384.723,357.592z"/>
					</g>
				</g>
			</g>
			<g>
				<g>
					<g>
						<path style="fill:#FAFAFA;" d="M382.604,348.406c0.024,0.124-2.487,0.299-5.301-0.841c-2.825-1.115-4.523-2.973-4.42-3.047
							c0.104-0.126,1.896,1.495,4.613,2.563C380.199,348.181,382.615,348.243,382.604,348.406z"/>
					</g>
				</g>
			</g>
			<g>
				<g>
					<g>
						<path style="fill:#FAFAFA;" d="M397.571,341.873c-0.048,0.081-0.828-0.452-2.252-0.848c-1.402-0.402-3.52-0.576-5.621,0.203
							c-2.099,0.787-3.586,2.306-4.381,3.528c-0.816,1.232-1.057,2.145-1.146,2.115c-0.049-0.005,0.065-0.972,0.833-2.31
							c0.746-1.322,2.275-2.982,4.512-3.821c2.239-0.831,4.482-0.578,5.911-0.067C396.885,341.181,397.604,341.836,397.571,341.873z
							"/>
					</g>
				</g>
			</g>
			<g>
				<g>
					<g>
						<path style="fill:#FAFAFA;" d="M399.335,354.149c0.029,0.058-0.6,0.458-1.7,0.947c-1.097,0.49-2.676,1.042-4.48,1.404
							c-1.805,0.358-3.475,0.455-4.676,0.424c-1.203-0.03-1.937-0.157-1.933-0.222c0.005-0.163,2.965,0.01,6.507-0.712
							C396.6,355.296,399.268,354,399.335,354.149z"/>
					</g>
				</g>
			</g>
			<g>
				<g>
					<g>
						<path style="fill:#FAFAFA;" d="M404.461,369.56c0.014,0.143-3.132,0.567-7.025,0.947c-3.895,0.38-7.063,0.572-7.077,0.428
							c-0.014-0.143,3.131-0.567,7.026-0.947C401.279,369.609,404.447,369.417,404.461,369.56z"/>
					</g>
				</g>
			</g>
			<g>
				<g>
					<g>
						<path style="fill:#FAFAFA;" d="M408.969,390.909c-0.01,0.034-0.293-0.023-0.799-0.158c-0.507-0.128-1.225-0.368-2.096-0.708
							c-1.745-0.673-4.062-1.848-6.44-3.418c-2.378-1.572-4.396-3.176-5.829-4.362c-1.431-1.189-2.283-1.963-2.239-2.018
							c0.046-0.057,0.98,0.616,2.467,1.729c1.489,1.109,3.532,2.659,5.887,4.216c2.356,1.555,4.609,2.762,6.298,3.514
							C407.904,390.463,408.995,390.827,408.969,390.909z"/>
					</g>
				</g>
			</g>
			<g>
				<g>
					<g>
						<path style="fill:#FAFAFA;" d="M384.729,394.162c-0.063,0.003-0.178-0.862-0.159-2.269c0.017-1.406,0.203-3.354,0.709-5.446
							c0.51-2.092,1.238-3.909,1.867-5.166c0.629-1.259,1.127-1.975,1.182-1.943c0.15,0.075-1.56,3.107-2.544,7.232
							C384.768,390.685,384.897,394.164,384.729,394.162z"/>
					</g>
				</g>
			</g>
			<g>
				<g>
					<g>
						<path style="fill:#FAFAFA;" d="M372.538,387.626c-0.122,0.025-0.402-2.845,0.636-6.184c1.011-3.348,2.851-5.569,2.938-5.479
							c0.139,0.088-1.462,2.382-2.44,5.632C372.662,384.834,372.703,387.631,372.538,387.626z"/>
					</g>
				</g>
			</g>
			<g>
				<g>
					<g>
						<path style="fill:#FAFAFA;" d="M365.74,371.673c0.122,0.115-2.102,2.133-3.725,5.375c-1.661,3.225-1.977,6.21-2.143,6.179
							c-0.062-0.006-0.066-0.757,0.15-1.948c0.214-1.189,0.691-2.812,1.528-4.467c0.842-1.652,1.87-2.994,2.704-3.869
							C365.09,372.066,365.699,371.627,365.74,371.673z"/>
					</g>
				</g>
			</g>
			<g>
				<g>
					<g>
						<path style="fill:#FAFAFA;" d="M410.66,357.704c0.106,0.08-0.971,1.361-2.844,2.094c-1.867,0.75-3.529,0.554-3.507,0.423
							c-0.003-0.157,1.565-0.2,3.315-0.907C409.383,358.63,410.555,357.588,410.66,357.704z"/>
					</g>
				</g>
			</g>
			<g>
				<g>
					<g>
						<path style="fill:#FAFAFA;" d="M406.077,343.666c0.121,0.058-0.506,1.372-1.871,2.482c-1.358,1.12-2.77,1.475-2.803,1.345
							c-0.055-0.144,1.198-0.692,2.473-1.748C405.162,344.704,405.947,343.583,406.077,343.666z"/>
					</g>
				</g>
			</g>
			<g>
				<g>
					<g>
						<path style="fill:#FAFAFA;" d="M389.755,334.325c0.085-0.104,1.196,0.766,2.012,2.268c0.827,1.497,0.963,2.901,0.829,2.917
							c-0.15,0.032-0.502-1.253-1.285-2.667C390.541,335.423,389.647,334.434,389.755,334.325z"/>
					</g>
				</g>
			</g>
			<g>
				<g>
					<g>
						<path style="fill:#FAFAFA;" d="M414.015,370.91c0.077,0.11-1.213,1.039-3.084,1.517c-1.869,0.491-3.447,0.305-3.433,0.172
							c0.002-0.154,1.518-0.205,3.303-0.676C412.589,371.468,413.939,370.776,414.015,370.91z"/>
					</g>
				</g>
			</g>
			<g>
				<g>
					<g>
						<path style="fill:#FAFAFA;" d="M421.007,383.215c0.012,0.143-2.425,0.466-5.442,0.722c-3.018,0.255-5.474,0.346-5.487,0.203
							c-0.012-0.143,2.424-0.466,5.443-0.721C418.539,383.163,420.995,383.072,421.007,383.215z"/>
					</g>
				</g>
			</g>
			<g>
				<g>
					<g>
						<path style="fill:#FAFAFA;" d="M425.861,393.118c-0.004,0.144-3.608,0.17-8.05,0.059c-4.444-0.111-8.042-0.318-8.038-0.462
							c0.004-0.144,3.608-0.17,8.051-0.059C422.266,392.768,425.865,392.975,425.861,393.118z"/>
					</g>
				</g>
			</g>
		</g>
		<g>
			<g>
				<g>
					<g>
						<g>
							<path style="fill:#263238;" d="M390.473,293.877c0.663,3.39,5.534,4.738,6.015,8.159c0.206,1.468-0.494,2.926-0.443,4.407
								c0.069,1.991,1.452,3.663,2.16,5.526c1.458,3.838-0.189,8.389-3.27,11.103c-3.081,2.714-7.313,3.807-11.418,3.892"/>
						</g>
					</g>
				</g>
			</g>
			<g>
				<g>
					<g>
						<g>
							<g>
								<path style="fill:#263238;" d="M362.893,297.376c0.424,1.809-0.526,3.635-1.527,5.2c-1.001,1.565-2.13,3.21-2.106,5.068
									c0.042,3.293,3.665,5.784,3.519,9.073c-0.079,1.763-1.26,3.356-1.237,5.121c0.022,1.707,1.175,3.199,2.484,4.294
									c1.309,1.095,2.564,0.707,3.761,1.923c1.261,1.282,3.158,2.502,4.851,3.109c3.837,1.376,7.634-2.092,9.259-2.863"/>
							</g>
						</g>
					</g>
				</g>
				<g>
					<g>
						<g>
							<g>
								<path style="fill:#263238;" d="M391.468,295.732c-0.215-1.667-1.953-2.707-3.594-3.072
									c-1.641-0.364-3.395-0.322-4.919-1.031c-1.349-0.628-2.371-1.779-3.569-2.663c-2.939-2.168-7.061-2.608-10.391-1.109
									c-3.33,1.499-5.734,4.877-6.06,8.514c-0.22,2.458,0.627,5.189,2.738,6.465c2.451,1.482,5.593,0.57,8.275-0.435
									c2.682-1.005,5.73-2.06,8.301-0.798c1.55,0.761,2.602,2.231,3.689,3.574c1.086,1.343,2.395,2.682,4.096,2.983
									c1.701,0.301,3.74-1.004,3.533-2.719"/>
							</g>
						</g>
					</g>
				</g>
				<g>
					<g>
						<g>
							<g>
								<g>
									<g>
										<g>
											<g>
												<g>
													<g>
														<path style="fill:#FFBE9D;" d="M392.053,331.137l-4.046-32.384c-0.196-1.447-1.467-2.503-2.925-2.431l-15.327-1.431
															c-4.8,0.236-7.035,6.54-6.596,11.326c0.488,5.318,1.294,11.79,2.529,15.622c2.484,7.705,8.696,7.768,8.696,7.768
															c-0.001-0.01,1.159,11.379,1.613,14.195"/>
													</g>
												</g>
											</g>
											<g>
												<g>
													<g>
														<g>
															<g>
																<g>
																	<g>
																		<g>
																			<g>
																				<g>
																					<g>
																						<path style="fill:#263238;" d="M365.26,312.127c0.064,0.538,0.573,0.927,1.136,0.87
																							c0.562-0.057,0.967-0.538,0.902-1.076c-0.065-0.538-0.573-0.928-1.135-0.871
																							C365.6,311.107,365.195,311.589,365.26,312.127z"/>
																					</g>
																				</g>
																			</g>
																		</g>
																	</g>
																</g>
															</g>
														</g>
													</g>
												</g>
												<g>
													<g>
														<g>
															<g>
																<g>
																	<g>
																		<g>
																			<g>
																				<g>
																					<g>
																						<g>
																							<path style="fill:#263238;" d="M364.972,310.134c0.146,0.113,0.825-0.575,1.916-0.742
																								c1.087-0.182,1.974,0.254,2.072,0.102c0.049-0.068-0.116-0.287-0.504-0.486
																								c-0.382-0.199-1.005-0.354-1.684-0.245c-0.678,0.109-1.211,0.448-1.499,0.755
																								C364.977,309.828,364.901,310.085,364.972,310.134z"/>
																						</g>
																					</g>
																				</g>
																			</g>
																		</g>
																	</g>
																</g>
															</g>
														</g>
													</g>
												</g>
											</g>
											<g>
												<g>
													<g>
														<g>
															<g>
																<g>
																	<g>
																		<g>
																			<g>
																				<g>
																					<g>
																						<path style="fill:#263238;" d="M376.245,310.524c0.064,0.538,0.573,0.927,1.136,0.87
																							c0.562-0.057,0.966-0.538,0.902-1.076c-0.064-0.538-0.573-0.928-1.135-0.871
																							C376.585,309.504,376.181,309.986,376.245,310.524z"/>
																					</g>
																				</g>
																			</g>
																		</g>
																	</g>
																</g>
															</g>
														</g>
													</g>
												</g>
												<g>
													<g>
														<g>
															<g>
																<g>
																	<g>
																		<g>
																			<g>
																				<g>
																					<g>
																						<g>
																							<path style="fill:#263238;" d="M375.72,308.669c0.146,0.112,0.826-0.575,1.917-0.742
																								c1.087-0.182,1.975,0.254,2.072,0.102c0.049-0.068-0.115-0.287-0.504-0.486
																								c-0.382-0.199-1.005-0.354-1.684-0.245c-0.678,0.11-1.211,0.449-1.499,0.755
																								C375.727,308.363,375.65,308.62,375.72,308.669z"/>
																						</g>
																					</g>
																				</g>
																			</g>
																		</g>
																	</g>
																</g>
															</g>
														</g>
													</g>
												</g>
											</g>
											<g>
												<g>
													<g>
														<g>
															<g>
																<g>
																	<g>
																		<g>
																			<g>
																				<g>
																					<g>
																						<path style="fill:#263238;" d="M373.022,317.371c-0.005-0.063-0.7-0.074-1.821-0.044
																							c-0.283,0.015-0.555,0-0.632-0.182c-0.097-0.191-0.027-0.509,0.057-0.854
																							c0.157-0.714,0.321-1.463,0.493-2.248c0.673-3.196,1.115-5.807,0.986-5.833
																							c-0.129-0.026-0.78,2.544-1.453,5.74c-0.159,0.787-0.312,1.538-0.457,2.255
																							c-0.056,0.333-0.181,0.72,0.026,1.115c0.107,0.196,0.335,0.315,0.521,0.336
																							c0.187,0.027,0.344,0.005,0.483-0.008C372.341,317.535,373.028,317.434,373.022,317.371z"/>
																					</g>
																				</g>
																			</g>
																		</g>
																	</g>
																</g>
															</g>
														</g>
													</g>
												</g>
											</g>
											<g>
												<g>
													<g>
														<g>
															<g>
																<g>
																	<g>
																		<g>
																			<g>
																				<g>
																					<path style="fill:#EB996E;" d="M374.385,329.605c0,0,5.282-0.356,10.055-4.34
																						c-0.086,0.033-2.137,6.09-9.836,6.458L374.385,329.605z"/>
																				</g>
																			</g>
																		</g>
																	</g>
																</g>
															</g>
														</g>
													</g>
												</g>
											</g>
											<g>
												<g>
													<g>
														<g>
															<g>
																<g>
																	<g>
																		<g>
																			<g>
																				<g>
																					<path style="fill:#EB996E;" d="M373.893,319.927c0.311-0.579,0.954-0.971,1.648-1.004
																						c0.481-0.023,0.995,0.131,1.342,0.472c0.347,0.34,0.493,0.878,0.289,1.286c-0.23,0.46-0.83,0.651-1.373,0.584
																						c-0.543-0.067-1.044-0.34-1.523-0.615c-0.132-0.076-0.268-0.156-0.362-0.274
																						c-0.094-0.118-0.136-0.285-0.062-0.406"/>
																				</g>
																			</g>
																		</g>
																	</g>
																</g>
															</g>
														</g>
													</g>
												</g>
											</g>
											<g>
												<g>
													<g>
														<g>
															<g>
																<g>
																	<g>
																		<g>
																			<g>
																				<g>
																					<g>
																						<path style="fill:#263238;" d="M376.349,317.625c-0.179,0.017,0.003,1.201-0.879,2.199
																							c-0.88,1-2.162,1.064-2.146,1.231c-0.005,0.077,0.317,0.186,0.851,0.118c0.525-0.063,1.262-0.35,1.802-0.96
																							c0.538-0.611,0.696-1.34,0.661-1.832C376.606,317.879,376.428,317.606,376.349,317.625z"/>
																					</g>
																				</g>
																			</g>
																		</g>
																	</g>
																</g>
															</g>
														</g>
													</g>
												</g>
											</g>
										</g>
									</g>
								</g>
								<g>
									<g>
										<g>
											<g>
												<g>
													<g>
														<g>
															<g>
																<g>
																	<g>
																		<path style="fill:#263238;" d="M374.745,305.697c0.154,0.28,1.22-0.03,2.523-0.075
																			c1.302-0.071,2.392,0.143,2.52-0.15c0.056-0.139-0.167-0.39-0.629-0.612c-0.458-0.222-1.16-0.392-1.941-0.358
																			c-0.781,0.036-1.465,0.267-1.901,0.529C374.877,305.293,374.677,305.563,374.745,305.697z"/>
																	</g>
																</g>
															</g>
														</g>
													</g>
												</g>
											</g>
										</g>
									</g>
								</g>
								<g>
									<g>
										<g>
											<g>
												<g>
													<g>
														<g>
															<g>
																<g>
																	<g>
																		<path style="fill:#263238;" d="M364.882,306.917c0.23,0.218,0.941-0.156,1.843-0.309
																			c0.896-0.184,1.694-0.093,1.83-0.38c0.058-0.138-0.102-0.367-0.472-0.549c-0.366-0.182-0.946-0.288-1.564-0.172
																			c-0.617,0.116-1.12,0.424-1.395,0.727C364.843,306.538,364.778,306.809,364.882,306.917z"/>
																	</g>
																</g>
															</g>
														</g>
													</g>
												</g>
											</g>
										</g>
									</g>
								</g>
							</g>
						</g>
					</g>
				</g>
				<g>
					<g>
						<g>
							<g>
								<path style="fill:#263238;" d="M392.491,322.999c-2.103,0.781-2.471-0.294-4.332-1.546c-1.861-1.252-3.064-3.43-3.133-5.672
									c-0.061-1.978,0.673-4.117-0.289-5.847c-1.272-2.287-4.793-2.496-6.078-4.776c-0.747-1.325-0.536-3.046-1.349-4.332
									c-0.764-1.209-2.247-1.74-3.651-2.011c-1.404-0.271-2.881-0.377-4.133-1.068c-1.252-0.691-2.207-2.217-1.679-3.547
									c6.003-0.225,12.033,0.269,17.92,1.467c1.365,0.278,2.81,0.642,3.753,1.668c0.998,1.085,1.207,2.657,1.368,4.122
									c0.789,7.143,1.578,14.287,2.367,21.431"/>
							</g>
						</g>
					</g>
				</g>
			</g>
			<g>
				<g>
					<g>
						<g>
							<path style="fill:#263238;" d="M394.914,306.104c-0.162-2.642,1.594-5.287,4.092-6.164c2.498-0.877,5.522,0.09,7.047,2.254
								c1.45,2.057,1.499,4.832,0.832,7.258c-0.793,2.884-2.898,5.737-5.871,6.069c-2.796,0.313-5.417-1.773-6.638-4.308
								c-1.221-2.535-1.348-5.44-1.454-8.251"/>
						</g>
					</g>
				</g>
			</g>
			<g>
				<g>
					<g>
						<g>
							<g>
								<path style="fill:#455A64;" d="M398.169,316.676c0.01,0.008,0.171-0.155,0.341-0.524c0.174-0.364,0.342-0.945,0.34-1.673
									c0.004-0.727-0.154-1.586-0.466-2.484c-0.308-0.904-0.775-1.828-1.166-2.826c-0.395-0.993-0.663-1.984-0.634-2.895
									c0.023-0.905,0.319-1.717,0.391-2.44c0.09-0.725-0.032-1.331-0.22-1.697c-0.186-0.37-0.382-0.504-0.392-0.49
									c-0.024,0.02,0.132,0.183,0.267,0.544c0.138,0.358,0.214,0.925,0.099,1.608c-0.096,0.687-0.421,1.484-0.468,2.464
									c-0.05,0.975,0.227,2.022,0.63,3.034c0.4,1.018,0.875,1.937,1.188,2.805c0.32,0.868,0.495,1.688,0.522,2.381
									C398.673,315.893,398.095,316.651,398.169,316.676z"/>
							</g>
						</g>
					</g>
				</g>
			</g>
			<g>
				<g>
					<g>
						<g>
							<g>
								<path style="fill:#455A64;" d="M396.786,307.174c-0.025,0.024,0.437,0.515,1.398,0.994c0.946,0.479,2.442,0.888,4.082,0.659
									c1.641-0.231,2.967-1.034,3.745-1.755c0.792-0.725,1.102-1.323,1.071-1.34c-0.049-0.038-0.427,0.5-1.233,1.151
									c-0.794,0.65-2.075,1.377-3.632,1.596c-1.557,0.217-2.989-0.13-3.93-0.537C397.334,307.537,396.822,307.124,396.786,307.174
									z"/>
							</g>
						</g>
					</g>
				</g>
			</g>
			<g>
				<g>
					<g>
						<g>
							<g>
								<path style="fill:#455A64;" d="M397.373,308.349c-0.031,0.021,0.243,0.501,0.865,1.134c0.617,0.633,1.617,1.385,2.878,1.898
									c1.263,0.509,2.504,0.665,3.388,0.639c0.887-0.023,1.418-0.176,1.41-0.213c-0.008-0.059-0.546,0.006-1.407-0.036
									c-0.859-0.038-2.043-0.227-3.26-0.716c-1.214-0.495-2.196-1.183-2.839-1.754
									C397.761,308.734,397.419,308.313,397.373,308.349z"/>
							</g>
						</g>
					</g>
				</g>
			</g>
			<g>
				<g>
					<g>
						<g>
							<g>
								<path style="fill:#455A64;" d="M397.105,319.554c0.005,0.003,0.029-0.035,0.071-0.112c0.037-0.079,0.11-0.189,0.168-0.35
									c0.133-0.314,0.275-0.809,0.302-1.463c0.027-0.65-0.09-1.469-0.495-2.312c-0.386-0.844-1.151-1.695-2.228-2.182
									c-1.042-0.513-2.334-0.78-3.275-1.709c-0.468-0.452-0.737-1.093-0.722-1.787c-0.001-0.694,0.203-1.408,0.363-2.158
									c0.38-1.51,0.107-3.279-0.846-4.699c-0.479-0.705-1.123-1.332-1.917-1.738c-0.792-0.423-1.699-0.562-2.581-0.622
									c-0.886-0.06-1.757-0.038-2.587-0.152c-0.827-0.111-1.638-0.346-2.275-0.815c-0.649-0.459-1.008-1.181-1.235-1.928
									c-0.229-0.747-0.411-1.53-0.735-2.237c-0.62-1.42-1.58-2.614-2.721-3.4c-1.142-0.792-2.444-1.145-3.618-1.135
									c-1.18,0.002-2.232,0.387-2.98,0.944c-0.759,0.55-1.239,1.223-1.525,1.808c-0.283,0.591-0.378,1.098-0.406,1.438
									c-0.03,0.341,0.003,0.52,0.003,0.52c0.054,0.013-0.055-0.751,0.525-1.896c0.295-0.559,0.777-1.196,1.516-1.709
									c0.729-0.52,1.735-0.869,2.866-0.856c1.125,0.006,2.368,0.358,3.451,1.125c1.085,0.762,2.001,1.915,2.591,3.29
									c0.309,0.684,0.478,1.431,0.712,2.209c0.226,0.766,0.626,1.591,1.351,2.104c0.706,0.521,1.572,0.766,2.432,0.884
									c0.869,0.12,1.743,0.097,2.611,0.157c0.863,0.057,1.716,0.193,2.444,0.582c0.736,0.375,1.339,0.957,1.792,1.619
									c0.901,1.342,1.171,2.991,0.815,4.441c-0.151,0.737-0.361,1.469-0.355,2.226c-0.016,0.756,0.306,1.506,0.825,1.991
									c1.041,0.997,2.366,1.24,3.375,1.727c1.041,0.455,1.765,1.238,2.158,2.045c0.405,0.801,0.54,1.59,0.534,2.222
									C397.49,318.91,397.049,319.54,397.105,319.554z"/>
							</g>
						</g>
					</g>
				</g>
			</g>
			<g>
				<g>
					<g>
						<g>
							<g>
								<path style="fill:#455A64;" d="M393.093,297.588c0,0,0.056-0.126,0.04-0.38c-0.012-0.249-0.111-0.635-0.427-1.007
									c-0.309-0.368-0.814-0.734-1.493-0.884c-0.686-0.147-1.483-0.012-2.28,0.283c-0.803,0.288-1.609,0.754-2.52,1.084
									c-0.895,0.323-1.992,0.523-2.928,0.002c-0.94-0.505-1.536-1.545-2.141-2.575c-0.598-1.056-1.375-2.092-2.338-2.964
									c-1.926-1.75-4.325-2.78-6.587-2.922c-1.13-0.064-2.23,0.131-3.143,0.581c-0.911,0.448-1.63,1.116-2.075,1.859
									c-0.455,0.739-0.605,1.552-0.544,2.231c0.051,0.685,0.275,1.246,0.528,1.651c0.252,0.409,0.535,0.663,0.737,0.808
									c0.203,0.147,0.325,0.198,0.329,0.191c0.036-0.037-0.484-0.262-0.948-1.069c-0.225-0.399-0.42-0.942-0.45-1.594
									c-0.039-0.648,0.118-1.4,0.56-2.089c0.431-0.691,1.121-1.313,1.99-1.726c0.867-0.414,1.912-0.591,2.997-0.52
									c2.171,0.152,4.504,1.16,6.369,2.858c0.938,0.851,1.682,1.838,2.279,2.88c0.609,1.02,1.226,2.12,2.284,2.686
									c0.516,0.284,1.108,0.375,1.651,0.339c0.549-0.033,1.057-0.182,1.528-0.353c0.943-0.357,1.733-0.832,2.508-1.125
									c0.765-0.301,1.522-0.44,2.153-0.323c0.635,0.121,1.124,0.449,1.429,0.781c0.313,0.336,0.426,0.689,0.46,0.925
									C393.101,297.455,393.072,297.586,393.093,297.588z"/>
							</g>
						</g>
					</g>
				</g>
			</g>
		</g>
	</g>
</g>
</svg>
