<svg xmlns="http://www.w3.org/2000/svg" version="1.1" xmlns:xlink="http://www.w3.org/1999/xlink" xmlns:svgjs="http://svgjs.dev/svgjs" width="3000" height="2000" preserveAspectRatio="none" viewBox="0 0 3000 2000"><g clip-path="url(&quot;#SvgjsClipPath1053&quot;)" fill="none"><rect width="3000" height="2000" x="0" y="0" fill="rgba(254, 227, 229, 1)"></rect><circle r="333.335" cx="44.74" cy="-18.25" stroke="#365aa3" stroke-opacity="0.25" stroke-width="2"></circle><circle r="333.335" cx="1487.39" cy="1403.78" stroke="#365aa3" stroke-opacity="0.25" stroke-width="2"></circle><circle r="328.88" cx="1639.9" cy="835.07" stroke="#365aa3" stroke-opacity="0.25" stroke-width="2"></circle><circle r="643.85" cx="398.15" cy="0.57" stroke="#365aa3" stroke-opacity="0.25" stroke-width="2"></circle><circle r="381.055" cx="528.63" cy="461.17" stroke="#365aa3" stroke-opacity="0.25" stroke-width="2"></circle><circle r="315.54" cx="2863.11" cy="292.14" stroke="#365aa3" stroke-opacity="0.25" stroke-width="2"></circle><circle r="524.88" cx="779.75" cy="1651.52" stroke="#365aa3" stroke-opacity="0.25" stroke-width="2"></circle><circle r="540.69" cx="1323.7" cy="233.76" stroke="#365aa3" stroke-opacity="0.25" stroke-width="2"></circle><circle r="335.905" cx="2340.51" cy="1564.62" stroke="#365aa3" stroke-opacity="0.25" stroke-width="2"></circle><circle r="577.515" cx="1878.96" cy="905.85" stroke="#365aa3" stroke-opacity="0.25" stroke-width="2"></circle><circle r="665.855" cx="1578.7" cy="147.17" stroke="#365aa3" stroke-opacity="0.25" stroke-width="2"></circle><circle r="211.66" cx="1161.42" cy="1373.57" stroke="#365aa3" stroke-opacity="0.25" stroke-width="2"></circle><circle r="513.005" cx="1039.53" cy="1287.69" stroke="#365aa3" stroke-opacity="0.25" stroke-width="2"></circle><circle r="323.71" cx="2036.72" cy="1054.48" stroke="#365aa3" stroke-opacity="0.25" stroke-width="2"></circle><circle r="408.73" cx="915.54" cy="174.54" stroke="#365aa3" stroke-opacity="0.25" stroke-width="2"></circle><circle r="255.27" cx="1979.09" cy="1565.3" stroke="#365aa3" stroke-opacity="0.25" stroke-width="2"></circle><circle r="477.17" cx="1030.95" cy="1016.24" stroke="#365aa3" stroke-opacity="0.25" stroke-width="2"></circle><circle r="514.15" cx="36.81" cy="1554.72" stroke="#365aa3" stroke-opacity="0.25" stroke-width="2"></circle><circle r="242.815" cx="1256.48" cy="274.08" stroke="#365aa3" stroke-opacity="0.25" stroke-width="2"></circle><circle r="339.1" cx="770.26" cy="1476.62" stroke="#365aa3" stroke-opacity="0.25" stroke-width="2"></circle><circle r="505.7" cx="303.94" cy="1311.2" stroke="#365aa3" stroke-opacity="0.25" stroke-width="2"></circle><circle r="401.75" cx="2476.94" cy="387.19" stroke="#365aa3" stroke-opacity="0.25" stroke-width="2"></circle><circle r="418.395" cx="2059.64" cy="1189.77" stroke="#365aa3" stroke-opacity="0.25" stroke-width="2"></circle><circle r="343.38" cx="2671.7" cy="1019.41" stroke="#365aa3" stroke-opacity="0.25" stroke-width="2"></circle><circle r="532.785" cx="429.03" cy="1711.38" stroke="#365aa3" stroke-opacity="0.25" stroke-width="2"></circle><circle r="583.32" cx="1380.02" cy="1050.71" stroke="#365aa3" stroke-opacity="0.25" stroke-width="2"></circle><circle r="642.985" cx="2643.39" cy="1027.79" stroke="#365aa3" stroke-opacity="0.25" stroke-width="2"></circle><circle r="371.085" cx="1825.23" cy="595.67" stroke="#365aa3" stroke-opacity="0.25" stroke-width="2"></circle><circle r="602.23" cx="2285.55" cy="1633.87" stroke="#365aa3" stroke-opacity="0.25" stroke-width="2"></circle><circle r="608.66" cx="796.71" cy="424.3" stroke="#365aa3" stroke-opacity="0.25" stroke-width="2"></circle><circle r="439.685" cx="184.39" cy="897.8" stroke="#365aa3" stroke-opacity="0.25" stroke-width="2"></circle><circle r="306" cx="1428.22" cy="590.29" stroke="#365aa3" stroke-opacity="0.25" stroke-width="2"></circle><circle r="192.46" cx="1145.17" cy="307.65" stroke="#365aa3" stroke-opacity="0.25" stroke-width="2"></circle><circle r="342.735" cx="624.29" cy="272.46" stroke="#365aa3" stroke-opacity="0.25" stroke-width="2"></circle><circle r="241.23" cx="677.73" cy="906.45" stroke="#365aa3" stroke-opacity="0.25" stroke-width="2"></circle><circle r="611.285" cx="2676" cy="410.31" stroke="#365aa3" stroke-opacity="0.25" stroke-width="2"></circle><circle r="634.23" cx="2354.79" cy="1398.9" stroke="#365aa3" stroke-opacity="0.25" stroke-width="2"></circle><circle r="554.865" cx="335.6" cy="1315.84" stroke="#365aa3" stroke-opacity="0.25" stroke-width="2"></circle><circle r="348.845" cx="277.56" cy="678.83" stroke="#365aa3" stroke-opacity="0.25" stroke-width="2"></circle><circle r="168.76" cx="1685.85" cy="1168.6" stroke="#365aa3" stroke-opacity="0.25" stroke-width="2"></circle><circle r="409.195" cx="532.22" cy="710.77" stroke="#365aa3" stroke-opacity="0.25" stroke-width="2"></circle><circle r="405.67" cx="510.78" cy="1489.64" stroke="#365aa3" stroke-opacity="0.25" stroke-width="2"></circle><circle r="182.44" cx="1029.4" cy="329.78" stroke="#365aa3" stroke-opacity="0.25" stroke-width="2"></circle><circle r="538.925" cx="1913.93" cy="689.15" stroke="#365aa3" stroke-opacity="0.25" stroke-width="2"></circle><circle r="649.325" cx="518.91" cy="883.74" stroke="#365aa3" stroke-opacity="0.25" stroke-width="2"></circle><circle r="235.805" cx="2485.89" cy="739" stroke="#365aa3" stroke-opacity="0.25" stroke-width="2"></circle><circle r="607.84" cx="943.86" cy="1198.59" stroke="#365aa3" stroke-opacity="0.25" stroke-width="2"></circle><circle r="619.815" cx="353.2" cy="1064.17" stroke="#365aa3" stroke-opacity="0.25" stroke-width="2"></circle><circle r="475.5" cx="1293.75" cy="1210.13" stroke="#365aa3" stroke-opacity="0.25" stroke-width="2"></circle><circle r="440.93" cx="2967.68" cy="485.22" stroke="#365aa3" stroke-opacity="0.25" stroke-width="2"></circle><circle r="384.22" cx="1528.43" cy="1554.45" stroke="#365aa3" stroke-opacity="0.25" stroke-width="2"></circle><circle r="645.63" cx="1158.29" cy="767.31" stroke="#365aa3" stroke-opacity="0.25" stroke-width="2"></circle><circle r="598.57" cx="1521.58" cy="958.73" stroke="#365aa3" stroke-opacity="0.25" stroke-width="2"></circle><circle r="547.225" cx="520.43" cy="1355.11" stroke="#365aa3" stroke-opacity="0.25" stroke-width="2"></circle><circle r="345.08" cx="1879.54" cy="1984.91" stroke="#365aa3" stroke-opacity="0.25" stroke-width="2"></circle><circle r="278.94" cx="1145.65" cy="1978.89" stroke="#365aa3" stroke-opacity="0.25" stroke-width="2"></circle><circle r="216.05" cx="2526.9" cy="1037.03" stroke="#365aa3" stroke-opacity="0.25" stroke-width="2"></circle><circle r="328.325" cx="1196.5" cy="549.77" stroke="#365aa3" stroke-opacity="0.25" stroke-width="2"></circle><circle r="285.69" cx="1309.89" cy="1093.6" stroke="#365aa3" stroke-opacity="0.25" stroke-width="2"></circle><circle r="656.31" cx="881.44" cy="1900.15" stroke="#365aa3" stroke-opacity="0.25" stroke-width="2"></circle><circle r="311.595" cx="2563.53" cy="1528.7" stroke="#365aa3" stroke-opacity="0.25" stroke-width="2"></circle><circle r="499.48" cx="1242.59" cy="1539.86" stroke="#365aa3" stroke-opacity="0.25" stroke-width="2"></circle><circle r="395.47" cx="1682.79" cy="571.31" stroke="#365aa3" stroke-opacity="0.25" stroke-width="2"></circle><circle r="179.3" cx="2758.17" cy="993.36" stroke="#365aa3" stroke-opacity="0.25" stroke-width="2"></circle><circle r="239.785" cx="2540.97" cy="1717.77" stroke="#365aa3" stroke-opacity="0.25" stroke-width="2"></circle><circle r="316.98" cx="1188.77" cy="1272.69" stroke="#365aa3" stroke-opacity="0.25" stroke-width="2"></circle><circle r="296.965" cx="2224.97" cy="1477.02" stroke="#365aa3" stroke-opacity="0.25" stroke-width="2"></circle><circle r="187.39" cx="410.73" cy="1787.27" stroke="#365aa3" stroke-opacity="0.25" stroke-width="2"></circle><circle r="627.355" cx="114.57" cy="149.43" stroke="#365aa3" stroke-opacity="0.25" stroke-width="2"></circle><circle r="268.68" cx="715.62" cy="633.17" stroke="#365aa3" stroke-opacity="0.25" stroke-width="2"></circle><circle r="412.625" cx="289.7" cy="173.25" stroke="#365aa3" stroke-opacity="0.25" stroke-width="2"></circle><circle r="548.15" cx="396.97" cy="1669.47" stroke="#365aa3" stroke-opacity="0.25" stroke-width="2"></circle><circle r="210.14" cx="944.13" cy="172.98" stroke="#365aa3" stroke-opacity="0.25" stroke-width="2"></circle><circle r="207.815" cx="784.62" cy="628.86" stroke="#365aa3" stroke-opacity="0.25" stroke-width="2"></circle><circle r="579.015" cx="2633.64" cy="1779.49" stroke="#365aa3" stroke-opacity="0.25" stroke-width="2"></circle><circle r="541.91" cx="218.6" cy="1446.24" stroke="#365aa3" stroke-opacity="0.25" stroke-width="2"></circle><circle r="331.13" cx="1048.22" cy="1714.41" stroke="#365aa3" stroke-opacity="0.25" stroke-width="2"></circle><circle r="543.975" cx="2504.95" cy="309.28" stroke="#365aa3" stroke-opacity="0.25" stroke-width="2"></circle><circle r="329.39" cx="1807.93" cy="1353.39" stroke="#365aa3" stroke-opacity="0.25" stroke-width="2"></circle><circle r="390.42" cx="1118.97" cy="1364.39" stroke="#365aa3" stroke-opacity="0.25" stroke-width="2"></circle><circle r="224.62" cx="2540.43" cy="139.38" stroke="#365aa3" stroke-opacity="0.25" stroke-width="2"></circle><circle r="530.025" cx="993.71" cy="1974.45" stroke="#365aa3" stroke-opacity="0.25" stroke-width="2"></circle><circle r="658.24" cx="2422.7" cy="422" stroke="#365aa3" stroke-opacity="0.25" stroke-width="2"></circle><circle r="504.7" cx="2440.79" cy="1074.88" stroke="#365aa3" stroke-opacity="0.25" stroke-width="2"></circle><circle r="200.27" cx="2952.54" cy="1478.98" stroke="#365aa3" stroke-opacity="0.25" stroke-width="2"></circle><circle r="306.035" cx="1185.87" cy="764.01" stroke="#365aa3" stroke-opacity="0.25" stroke-width="2"></circle><circle r="607.45" cx="831.75" cy="1082.5" stroke="#365aa3" stroke-opacity="0.25" stroke-width="2"></circle><circle r="220.08" cx="2468" cy="510.6" stroke="#365aa3" stroke-opacity="0.25" stroke-width="2"></circle><circle r="367.435" cx="1063.19" cy="839.67" stroke="#365aa3" stroke-opacity="0.25" stroke-width="2"></circle><circle r="356.815" cx="1384.57" cy="745.53" stroke="#365aa3" stroke-opacity="0.25" stroke-width="2"></circle><circle r="451.315" cx="2394.33" cy="437.64" stroke="#365aa3" stroke-opacity="0.25" stroke-width="2"></circle><circle r="564.92" cx="75.35" cy="15.37" stroke="#365aa3" stroke-opacity="0.25" stroke-width="2"></circle><circle r="527.065" cx="521.81" cy="766.19" stroke="#365aa3" stroke-opacity="0.25" stroke-width="2"></circle><circle r="412.455" cx="477.09" cy="985.07" stroke="#365aa3" stroke-opacity="0.25" stroke-width="2"></circle><circle r="545.365" cx="2558.95" cy="1951.19" stroke="#365aa3" stroke-opacity="0.25" stroke-width="2"></circle><circle r="665.99" cx="1198.86" cy="135.48" stroke="#365aa3" stroke-opacity="0.25" stroke-width="2"></circle><circle r="236.795" cx="1049.56" cy="74.23" stroke="#365aa3" stroke-opacity="0.25" stroke-width="2"></circle><circle r="266.925" cx="1653.9" cy="1783.35" stroke="#365aa3" stroke-opacity="0.25" stroke-width="2"></circle><circle r="383.89" cx="1801.45" cy="842.32" stroke="#365aa3" stroke-opacity="0.25" stroke-width="2"></circle><circle r="531.08" cx="855.14" cy="1763.66" stroke="#365aa3" stroke-opacity="0.25" stroke-width="2"></circle><circle r="623.145" cx="2695.78" cy="216.66" stroke="#365aa3" stroke-opacity="0.25" stroke-width="2"></circle><circle r="257.58" cx="1837.61" cy="1102.02" stroke="#365aa3" stroke-opacity="0.25" stroke-width="2"></circle><circle r="253.485" cx="583.16" cy="1185.27" stroke="#365aa3" stroke-opacity="0.25" stroke-width="2"></circle><circle r="524.07" cx="587.52" cy="1318.92" stroke="#365aa3" stroke-opacity="0.25" stroke-width="2"></circle><circle r="296.77" cx="1945.42" cy="414.65" stroke="#365aa3" stroke-opacity="0.25" stroke-width="2"></circle><circle r="310.615" cx="278.62" cy="1269.3" stroke="#365aa3" stroke-opacity="0.25" stroke-width="2"></circle><circle r="585.745" cx="2555.9" cy="321.66" stroke="#365aa3" stroke-opacity="0.25" stroke-width="2"></circle><circle r="538.82" cx="649.47" cy="621.99" stroke="#365aa3" stroke-opacity="0.25" stroke-width="2"></circle><circle r="308.13" cx="2085.61" cy="1847.39" stroke="#365aa3" stroke-opacity="0.25" stroke-width="2"></circle><circle r="250.58" cx="2774.77" cy="1175.89" stroke="#365aa3" stroke-opacity="0.25" stroke-width="2"></circle><circle r="263.055" cx="2061.01" cy="6.31" stroke="#365aa3" stroke-opacity="0.25" stroke-width="2"></circle><circle r="345.545" cx="1589.15" cy="403.01" stroke="#365aa3" stroke-opacity="0.25" stroke-width="2"></circle><circle r="418.515" cx="39.39" cy="1013.37" stroke="#365aa3" stroke-opacity="0.25" stroke-width="2"></circle><circle r="486.685" cx="2395.11" cy="805.18" stroke="#365aa3" stroke-opacity="0.25" stroke-width="2"></circle><circle r="511.2" cx="725.81" cy="531.06" stroke="#365aa3" stroke-opacity="0.25" stroke-width="2"></circle><circle r="371.34" cx="2818.96" cy="1818.41" stroke="#365aa3" stroke-opacity="0.25" stroke-width="2"></circle><circle r="180.345" cx="1659.8" cy="1028.87" stroke="#365aa3" stroke-opacity="0.25" stroke-width="2"></circle><circle r="229.955" cx="257.27" cy="492.45" stroke="#365aa3" stroke-opacity="0.25" stroke-width="2"></circle><circle r="634.935" cx="1920.51" cy="720.28" stroke="#365aa3" stroke-opacity="0.25" stroke-width="2"></circle><circle r="387.795" cx="1184.23" cy="170.85" stroke="#365aa3" stroke-opacity="0.25" stroke-width="2"></circle><circle r="562.445" cx="1707.02" cy="857.88" stroke="#365aa3" stroke-opacity="0.25" stroke-width="2"></circle><circle r="600.61" cx="2081.51" cy="1451.77" stroke="#365aa3" stroke-opacity="0.25" stroke-width="2"></circle><circle r="590.19" cx="1127.13" cy="1783.98" stroke="#365aa3" stroke-opacity="0.25" stroke-width="2"></circle><circle r="462.92" cx="1187.62" cy="1097.84" stroke="#365aa3" stroke-opacity="0.25" stroke-width="2"></circle><circle r="485.8" cx="499.34" cy="422.33" stroke="#365aa3" stroke-opacity="0.25" stroke-width="2"></circle><circle r="209.815" cx="774.22" cy="203.28" stroke="#365aa3" stroke-opacity="0.25" stroke-width="2"></circle><circle r="592.61" cx="1965.28" cy="1485.29" stroke="#365aa3" stroke-opacity="0.25" stroke-width="2"></circle><circle r="314.695" cx="2156.52" cy="964.71" stroke="#365aa3" stroke-opacity="0.25" stroke-width="2"></circle><circle r="412.285" cx="121.94" cy="1223.49" stroke="#365aa3" stroke-opacity="0.25" stroke-width="2"></circle><circle r="210.195" cx="1037.16" cy="1387.88" stroke="#365aa3" stroke-opacity="0.25" stroke-width="2"></circle><circle r="660.13" cx="675" cy="590.77" stroke="#365aa3" stroke-opacity="0.25" stroke-width="2"></circle><circle r="577.315" cx="2655.73" cy="1285.08" stroke="#365aa3" stroke-opacity="0.25" stroke-width="2"></circle><circle r="576.145" cx="44.08" cy="1764.06" stroke="#365aa3" stroke-opacity="0.25" stroke-width="2"></circle></g><defs><clipPath id="SvgjsClipPath1053"><rect width="3000" height="2000" x="0" y="0"></rect></clipPath></defs></svg>