<svg xmlns="http://www.w3.org/2000/svg" version="1.1" xmlns:xlink="http://www.w3.org/1999/xlink" xmlns:svgjs="http://svgjs.dev/svgjs" width="1440" height="560" preserveAspectRatio="none" viewBox="0 0 1440 560"><g mask="url(&quot;#SvgjsMask1078&quot;)" fill="none"><rect width="1440" height="560" x="0" y="0" fill="rgba(255, 249, 249, 1)"></rect><path d="M1512 560L0 560 L0 215.29Q40.5 183.79, 72 224.29Q108.33 140.62, 192 176.95Q264.05 129, 312 201.05Q350.28 119.34, 432 157.62Q462.35 115.97, 504 146.31Q587.45 109.76, 624 193.21Q667.09 164.3, 696 207.39Q755.54 194.93, 768 254.47Q775.15 189.62, 840 196.77Q865.56 150.34, 912 175.9Q996.51 140.42, 1032 224.93Q1061.15 134.09, 1152 163.24Q1225.57 116.81, 1272 190.38Q1311.96 110.34, 1392 150.3Q1463.61 101.91, 1512 173.52z" fill="rgba(254, 243, 244, 1)"></path><path d="M1560 560L0 560 L0 325.68Q25.7 279.38, 72 305.09Q157.38 270.46, 192 355.84Q239.48 331.31, 264 378.79Q286.39 281.19, 384 303.58Q428.79 276.37, 456 321.15Q525.79 270.94, 576 340.74Q635.2 327.94, 648 387.15Q676.57 343.71, 720 372.28Q729.44 261.71, 840 271.15Q892.06 203.21, 960 255.27Q1067.04 242.31, 1080 349.35Q1092.16 289.51, 1152 301.68Q1196.85 274.52, 1224 319.37Q1230.68 254.06, 1296 260.74Q1322.44 215.18, 1368 241.62Q1420.1 221.72, 1440 273.81Q1534.27 248.07, 1560 342.34z" fill="rgba(254, 232, 234, 1)"></path><path d="M1488 560L0 560 L0 400.51Q9.81 338.32, 72 348.13Q138.19 294.32, 192 360.52Q271.38 319.89, 312 399.27Q387.49 402.76, 384 478.25Q366.67 388.92, 456 371.59Q483.88 327.46, 528 355.34Q578.98 334.32, 600 385.3Q676.82 342.12, 720 418.94Q774.55 401.49, 792 456.04Q864.76 408.8, 912 481.56Q936.46 386.02, 1032 410.48Q1053.81 360.28, 1104 382.09Q1134.48 340.57, 1176 371.05Q1229.96 353.01, 1248 406.98Q1345.81 384.79, 1368 482.6Q1434.07 428.67, 1488 494.74z" fill="rgba(255, 202, 205, 1)"></path><path d="M1536 560L0 560 L0 510.12Q72.39 510.51, 72 582.91Q56.17 495.08, 144 479.24Q192.04 407.28, 264 455.33Q348 419.32, 384 503.32Q493.19 492.5, 504 601.69Q527.9 505.59, 624 529.49Q672.42 457.91, 744 506.34Q799.78 490.12, 816 545.9Q874.41 532.31, 888 590.71Q889.04 519.75, 960 520.79Q975.61 464.39, 1032 480Q1100.72 428.73, 1152 497.45Q1193.22 418.67, 1272 459.9Q1316.38 432.28, 1344 476.67Q1396.07 456.74, 1416 508.81Q1449.52 422.33, 1536 455.85z" fill="rgba(255, 167, 172, 1)"></path></g><defs><mask id="SvgjsMask1078"><rect width="1440" height="560" fill="#ffffff"></rect></mask></defs></svg>