<svg xmlns="http://www.w3.org/2000/svg" version="1.1" xmlns:xlink="http://www.w3.org/1999/xlink" xmlns:svgjs="http://svgjs.dev/svgjs" viewBox="0 0 800 800" opacity="0.51"><defs><filter id="bbburst-blur-1" x="-100%" y="-100%" width="400%" height="400%"><feGaussianBlur in="SourceGraphic" stdDeviation="1"></feGaussianBlur></filter><filter id="bbburst-blur-2" x="-100%" y="-100%" width="400%" height="400%"><feGaussianBlur in="SourceGraphic" stdDeviation="2"></feGaussianBlur></filter><filter id="bbburst-blur-3" x="-100%" y="-100%" width="400%" height="400%"><feGaussianBlur in="SourceGraphic" stdDeviation="4"></feGaussianBlur></filter><filter id="bbburst-blur-4" x="-100%" y="-100%" width="400%" height="400%"><feGaussianBlur in="SourceGraphic" stdDeviation="12"></feGaussianBlur></filter><symbol id="bbburst-shape-6" viewBox="0 0 133 116"><path d="M59.7487 10.2513c-13.6683-13.66839-35.8291-13.66839-49.4974 0-13.66839 13.6683-13.66839 35.8291 0 49.4974l49.4974-49.4974ZM66.5 66.5 41.7513 91.2487 66.5 115.997l24.7487-24.7483L66.5 66.5Zm56.249-6.7513c13.668-13.6683 13.668-35.8291 0-49.4974-13.669-13.66839-35.8294-13.66839-49.4977 0l49.4977 49.4974Zm-112.4977 0 31.5 31.5 49.4974-49.4974-31.5-31.5-49.4974 49.4974Zm80.9974 31.5 31.5003-31.5-49.4977-49.4974-31.5 31.5 49.4974 49.4974Z"></path></symbol><symbol id="bbburst-shape-7" viewBox="0 0 139 124"><path fill-rule="evenodd" clip-rule="evenodd" d="M70.1641 15.0917C54.6093.764854 37.8293-2.10782 24.4032 2.82615 10.3804 7.97941.763366 21.4591 1.00047 37.0608c.1068 7.0273 2.86132 13.7317 7.0039 20.2001C12.1442 63.7249 17.853 70.2322 24.25 76.9024c3.8209 3.9842 7.8871 8.0312 12.0767 12.201h.0001c10.0335 9.9862 20.7748 20.6766 30.5497 32.8956 1.38 1.725 3.8972 2.005 5.6223.624.6706-.536 1.1228-1.244 1.3439-2.011 9.5768-11.748 20.0328-22.0735 29.8163-31.7351 4.19-4.1373 8.256-8.1528 12.078-12.1062 6.396-6.6176 12.106-13.0752 16.247-19.4911 4.144-6.4196 6.905-13.0811 7.012-20.0691.237-15.5124-9.399-28.8902-23.411-33.99923-13.32-4.85681-29.9542-2.08621-45.4209 11.88043Zm-3.7351 7.4919C52.1278 8.44857 37.6826 6.46918 27.1626 10.3352 16.2859 14.3323 8.8148 24.7824 8.99955 36.9392c.07575 4.9844 2.03755 10.2234 5.74165 16.0072 3.707 5.7881 8.9752 11.8418 15.2827 18.4187 3.5798 3.7328 7.4978 7.6329 11.6 11.7163 9.0476 9.0063 18.9911 18.9046 28.1786 29.8666 9.2999-11.068 19.4036-21.0473 28.5839-30.1144l.0007-.0006c4.1019-4.0508 8.0189-7.9196 11.5979-11.6222 6.307-6.5252 11.573-12.5298 15.278-18.2697 3.703-5.7362 5.658-10.924 5.734-15.8531.184-12.0276-7.267-22.3914-18.153-26.3608-10.71-3.90518-25.4722-1.80041-40.0023 12.867-1.5547 1.5694-4.0874 1.5813-5.6568.0265-.3146-.3116-.5666-.6625-.7559-1.0371Z"></path></symbol><symbol id="bbburst-shape-10" viewBox="0 0 145 145"><circle cx="72.5" cy="72.5" r="61.5" fill="none" stroke-width="22"></circle></symbol><symbol id="bbburst-shape-11" viewBox="0 0 194 167"><path d="M10.398 161 97 11l86.603 150H10.397Z" stroke-width="11"></path></symbol></defs><use xlink:href="#bbburst-shape-11" width="86.55974791205546" opacity="0.202641062982452" transform="matrix(0.9997797124435545,0.02098872521816215,-0.02098872521816215,0.9997797124435545,193.0544397408327,-157.35385650605505)" fill="none" stroke="#ff5c58" filter="url(#bbburst-blur-3)"></use><use xlink:href="#bbburst-shape-10" width="20.635982268362795" opacity="0.8675930429751346" transform="matrix(0.7443256825752455,0.6678167999226247,-0.6678167999226247,0.7443256825752455,994.5702923382048,379.9554287846822)" fill="none" stroke="#2c2891"></use><use xlink:href="#bbburst-shape-11" width="17.434309633740007" opacity="0.8605147756871209" transform="matrix(0.9656997520851492,0.25966129635099894,-0.25966129635099894,0.9656997520851492,766.6890733160357,357.7357955853193)" fill="none" stroke="#ff5c58"></use><use xlink:href="#bbburst-shape-6" width="31.414648929223986" opacity="0.6221334086270385" transform="matrix(0.8016985703136147,0.597728535672429,-0.597728535672429,0.8016985703136147,776.0966546792738,186.94454592328321)" fill="#ffbd9b" filter="url(#bbburst-blur-1)"></use><use xlink:href="#bbburst-shape-11" width="29.849890384113756" opacity="0.6653264970837288" transform="matrix(0.8656339716156791,-0.5006773683569746,0.5006773683569746,0.8656339716156791,253.69014992487945,426.73752463243164)" fill="none" stroke="#2c2891"></use><use xlink:href="#bbburst-shape-7" width="23.371152865365705" opacity="0.8243123902741278" transform="matrix(0.9868041396696535,-0.16191846692343348,0.16191846692343348,0.9868041396696535,582.1308613482087,303.02401394541727)" fill="#ff5c58"></use><use xlink:href="#bbburst-shape-7" width="16.139631570003477" opacity="0.8874028043926663" transform="matrix(0.9414633862021577,-0.33711525097623046,0.33711525097623046,0.9414633862021577,638.2414283302722,315.21165795615656)" fill="#ffbd9b"></use><use xlink:href="#bbburst-shape-10" width="65.56914658646839" opacity="0.13918292376856634" transform="matrix(0.9065227541605749,-0.4221569568171604,0.4221569568171604,0.9065227541605749,-120.15147778709579,-18.177620605283664)" fill="none" stroke="#ff5c58" filter="url(#bbburst-blur-3)"></use><use xlink:href="#bbburst-shape-6" width="48.28611960030204" opacity="0.3854548461572168" transform="matrix(0.7724629453679752,-0.6350598381518332,0.6350598381518332,0.7724629453679752,-78.21291956628349,401.52676769186866)" fill="#ffbd9b" filter="url(#bbburst-blur-2)"></use><use xlink:href="#bbburst-shape-6" width="13.582488023362293" opacity="0.7966351421117897" transform="matrix(0.824085485511143,-0.566465455760423,0.566465455760423,0.824085485511143,366.4749020223203,445.6036611854847)" fill="#ffa6d5"></use><use xlink:href="#bbburst-shape-7" width="25.13463953909304" opacity="0.6945317950478379" transform="matrix(0.7463590097736157,-0.665543558702019,0.665543558702019,0.7463590097736157,491.18002229704257,206.2101396580377)" fill="#ff5c58"></use><use xlink:href="#bbburst-shape-11" width="31.840693122533214" opacity="0.7050746484493118" transform="matrix(0.861267664158616,0.5081515627003045,-0.5081515627003045,0.861267664158616,729.5598152487665,308.20379279352915)" fill="none" stroke="#00a19d"></use><use xlink:href="#bbburst-shape-7" width="49.99157309878999" opacity="0.5026178364370697" transform="matrix(0.805673300747599,-0.5923601374691488,0.5923601374691488,0.805673300747599,153.01183734780426,183.6271895533077)" fill="#2c2891" filter="url(#bbburst-blur-1)"></use><use xlink:href="#bbburst-shape-10" width="16.261114141040146" opacity="0.8469846814443598" transform="matrix(0.8846385739310977,-0.46627737829874805,0.46627737829874805,0.8846385739310977,571.2132674660681,300.9965538021016)" fill="none" stroke="#ff5c58"></use><use xlink:href="#bbburst-shape-7" width="42.652311192643424" opacity="0.6239499776681426" transform="matrix(0.8791599260984557,-0.476526834860911,0.476526834860911,0.8791599260984557,423.7915233017475,121.48006504681632)" fill="#2c2891" filter="url(#bbburst-blur-1)"></use><use xlink:href="#bbburst-shape-7" width="16.346208711761015" opacity="0.8335285099752309" transform="matrix(0.9958557171306752,0.09094718609252554,-0.09094718609252554,0.9958557171306752,662.9911683480703,380.29262658645195)" fill="#ffa6d5"></use><use xlink:href="#bbburst-shape-10" width="33.08569345534002" opacity="0.7042164349179356" transform="matrix(0.9697972162830392,-0.24391260584411797,0.24391260584411797,0.9697972162830392,581.9700484219255,139.3779327052667)" fill="none" stroke="#2c2891"></use><use xlink:href="#bbburst-shape-7" width="57.08491831477201" opacity="0.2552037660585098" transform="matrix(0.962518000696778,0.27121780607968443,-0.27121780607968443,0.962518000696778,799.6407828477162,-333.1806754695316)" fill="#00a19d" filter="url(#bbburst-blur-2)"></use><use xlink:href="#bbburst-shape-6" width="32.63844684213495" opacity="0.7138146986859139" transform="matrix(0.9800865478575878,-0.19857079016964294,0.19857079016964294,0.9800865478575878,542.0707341441993,175.63552566404286)" fill="#00a19d"></use><use xlink:href="#bbburst-shape-11" width="15.834976444067545" opacity="0.9220303389924722" transform="matrix(0.8958220959631513,-0.4444128400307382,0.4444128400307382,0.8958220959631513,595.3332234970546,369.5718826855984)" fill="none" stroke="#ffa6d5"></use><use xlink:href="#bbburst-shape-6" width="15.075920699053492" opacity="0.935866848744455" transform="matrix(0.9749162200676438,-0.22257215425344132,0.22257215425344132,0.9749162200676438,657.3075343718057,367.34923292046705)" fill="#00a19d"></use><use xlink:href="#bbburst-shape-10" width="11.176631326876219" opacity="0.9807179838286277" transform="matrix(0.8662779546722658,0.4995623136795208,-0.4995623136795208,0.8662779546722658,982.4353730743555,436.05708314335544)" fill="none" stroke="#00a19d"></use><use xlink:href="#bbburst-shape-10" width="74.14971551851139" opacity="0.008905828094822432" transform="matrix(0.8122562139849467,0.5833008167685353,-0.5833008167685353,0.8122562139849467,297.8049897660881,-242.71574794521752)" fill="none" stroke="#00a19d" filter="url(#bbburst-blur-3)"></use><use xlink:href="#bbburst-shape-10" width="16.886757560175756" opacity="0.8125045448740941" transform="matrix(0.7737556850155878,0.6334841275881018,-0.6334841275881018,0.7737556850155878,871.5264063952247,418.72236338551227)" fill="none" stroke="#00a19d"></use><use xlink:href="#bbburst-shape-7" width="55.57225237770614" opacity="0.3451467989506125" transform="matrix(0.8838972545597872,-0.4676811343016423,0.4676811343016423,0.8838972545597872,64.44175969528948,66.41258591031493)" fill="#2c2891" filter="url(#bbburst-blur-2)"></use><use xlink:href="#bbburst-shape-6" width="22.28620245065942" opacity="0.7565712111508848" transform="matrix(0.7515809951976039,0.6596408171556543,-0.6596408171556543,0.7515809951976039,1019.5523337887446,251.25461597824062)" fill="#2c2891"></use><use xlink:href="#bbburst-shape-10" width="17.09962008334674" opacity="0.9015935436264724" transform="matrix(0.9849747208058496,0.1726985795350926,-0.1726985795350926,0.9849747208058496,775.0972968307799,355.9210180586001)" fill="none" stroke="#ff5c58"></use><use xlink:href="#bbburst-shape-10" width="61.49601726673092" opacity="0.39357685277351073" transform="matrix(0.8770934064747559,-0.48031984793313365,0.48031984793313365,0.8770934064747559,179.80444328776366,9.1031640438718)" fill="none" stroke="#00a19d" filter="url(#bbburst-blur-2)"></use><use xlink:href="#bbburst-shape-7" width="34.82066859586539" opacity="0.4703895956937626" transform="matrix(0.7427093286170287,0.6696139583261707,-0.6696139583261707,0.7427093286170287,979.7442837275604,-33.09482034893887)" fill="#ff5c58" filter="url(#bbburst-blur-1)"></use><use xlink:href="#bbburst-shape-10" width="27.363183463169484" opacity="0.5582055027058846" transform="matrix(0.9743514527930512,-0.22503165652874374,0.22503165652874374,0.9743514527930512,650.5637978543982,-26.045250125947234)" fill="none" stroke="#2c2891" filter="url(#bbburst-blur-1)"></use><use xlink:href="#bbburst-shape-7" width="26.223789955039216" opacity="0.7182044898836323" transform="matrix(0.9495676363906523,-0.313562280766469,0.313562280766469,0.9495676363906523,382.78198996127514,386.51841992233625)" fill="#00a19d"></use><use xlink:href="#bbburst-shape-6" width="28.682620889580825" opacity="0.7817119139003992" transform="matrix(0.9079449627131407,-0.4190894232545526,0.4190894232545526,0.9079449627131407,528.3394709302165,244.41888374738585)" fill="#2c2891"></use><use xlink:href="#bbburst-shape-7" width="42.23646433881347" opacity="0.22062996345470787" transform="matrix(0.8112967681268671,-0.5846345474113726,0.5846345474113726,0.8112967681268671,-188.67795461056681,236.0659225941214)" fill="#ffa6d5" filter="url(#bbburst-blur-3)"></use><use xlink:href="#bbburst-shape-7" width="67.92327849778006" opacity="0.30455195671730373" transform="matrix(0.754217427132022,0.6566247578414578,-0.6566247578414578,0.754217427132022,411.42348519991003,171.74906986867018)" fill="#ffbd9b" filter="url(#bbburst-blur-2)"></use><use xlink:href="#bbburst-shape-11" width="27.653518379509862" opacity="0.7013889636447344" transform="matrix(0.8736949004745349,-0.486474275666034,0.486474275666034,0.8736949004745349,368.0181488426888,260.77067041742265)" fill="none" stroke="#ffbd9b"></use><use xlink:href="#bbburst-shape-10" width="51.27320906098282" opacity="0.11709541299744808" transform="matrix(0.8356694617440446,-0.5492326926799049,0.5492326926799049,0.8356694617440446,58.026419626609794,-247.27947691797135)" fill="none" stroke="#ffa6d5" filter="url(#bbburst-blur-3)"></use><use xlink:href="#bbburst-shape-10" width="16.502389433267876" opacity="0.8988352912877068" transform="matrix(0.9787336524746978,0.20513516888514655,-0.20513516888514655,0.9787336524746978,774.3042736405657,389.5113674319676)" fill="none" stroke="#ffbd9b"></use><use xlink:href="#bbburst-shape-10" width="12.087088061228776" opacity="0.903957061425271" transform="matrix(0.9777101003588948,-0.20995942383279628,0.20995942383279628,0.9777101003588948,651.9522630146885,333.7503966208309)" fill="none" stroke="#00a19d"></use><use xlink:href="#bbburst-shape-11" width="51.867637041484514" opacity="0.5236322010976258" transform="matrix(0.8155155874459222,0.5787351092103643,-0.5787351092103643,0.8155155874459222,729.0903834633556,74.04645091145846)" fill="none" stroke="#00a19d" filter="url(#bbburst-blur-1)"></use><use xlink:href="#bbburst-shape-6" width="45.45912140441325" opacity="0.41890733385885015" transform="matrix(0.9370551158025233,-0.34918148568949026,0.34918148568949026,0.9370551158025233,370.8512742846837,-82.3938234630885)" fill="#ffbd9b" filter="url(#bbburst-blur-2)"></use><use xlink:href="#bbburst-shape-10" width="24.285211391637006" opacity="0.8247088602700381" transform="matrix(0.7604679374437938,-0.6493754816128972,0.6493754816128972,0.7604679374437938,429.51928801455836,360.78029117735815)" fill="none" stroke="#2c2891"></use><use xlink:href="#bbburst-shape-7" width="60.80519736561999" opacity="0.283297530591345" transform="matrix(0.9975917824883402,-0.06935874502711237,0.06935874502711237,0.9975917824883402,331.97436641141564,-184.9639718410389)" fill="#00a19d" filter="url(#bbburst-blur-2)"></use><use xlink:href="#bbburst-shape-10" width="19.951295262704257" opacity="0.8088772833002331" transform="matrix(0.9964945443514072,-0.0836577735651704,0.0836577735651704,0.9964945443514072,730.5065337778757,212.9030976559638)" fill="none" stroke="#2c2891"></use><use xlink:href="#bbburst-shape-7" width="21.1935262440645" opacity="0.7487000474714047" transform="matrix(0.9981348605766698,-0.0610475233043247,0.0610475233043247,0.9981348605766698,525.4453996030959,325.2337627295246)" fill="#ff5c58"></use><use xlink:href="#bbburst-shape-10" width="32.76673395245746" opacity="0.6143555989516738" transform="matrix(0.9985895822073454,0.05309280842976209,-0.05309280842976209,0.9985895822073454,485.21274613747875,183.97125416531668)" fill="none" stroke="#ff5c58" filter="url(#bbburst-blur-1)"></use><use xlink:href="#bbburst-shape-7" width="50.241934239644785" opacity="0.23554039038122843" transform="matrix(0.9936420469556783,0.11258544542581722,-0.11258544542581722,0.9936420469556783,491.9466933200281,-290.8635066970028)" fill="#00a19d" filter="url(#bbburst-blur-3)"></use><use xlink:href="#bbburst-shape-7" width="13.17059174306965" opacity="0.7614710185379958" transform="matrix(0.8447213187785252,0.5352064028027591,-0.5352064028027591,0.8447213187785252,770.7431603531369,439.16228765091455)" fill="#ff5c58"></use><use xlink:href="#bbburst-shape-7" width="53.591312076618365" opacity="0.4962689511145131" transform="matrix(0.7697680965572452,0.6383236463759083,-0.6383236463759083,0.7697680965572452,534.8549067839958,411.34354531720214)" fill="#2c2891" filter="url(#bbburst-blur-1)"></use><use xlink:href="#bbburst-shape-7" width="17.532403113273606" opacity="0.8673544907058881" transform="matrix(0.8897107538575141,-0.4565246701661302,0.4565246701661302,0.8897107538575141,509.54359088891414,360.9798292571881)" fill="#2c2891"></use><use xlink:href="#bbburst-shape-10" width="10.809070028173132" opacity="0.9533492705889142" transform="matrix(0.9508582679399953,0.3096264754347602,-0.3096264754347602,0.9508582679399953,904.3388371580317,373.6018475743919)" fill="none" stroke="#ffa6d5"></use><use xlink:href="#bbburst-shape-7" width="64.34812705843711" opacity="0.36308426949379546" transform="matrix(0.9879489335404876,-0.15478018192331072,0.15478018192331072,0.9879489335404876,523.6067996891777,-200.40509644574973)" fill="#ffbd9b" filter="url(#bbburst-blur-2)"></use><use xlink:href="#bbburst-shape-6" width="43.5858893886862" opacity="0.3698506999132529" transform="matrix(0.8518869821859886,0.5237256625200346,-0.5237256625200346,0.8518869821859886,936.0509738250628,-179.92342588813054)" fill="#2c2891" filter="url(#bbburst-blur-2)"></use><use xlink:href="#bbburst-shape-7" width="34.231362702074335" opacity="0.6557698911363135" transform="matrix(0.900615908219146,0.4346159061316125,-0.4346159061316125,0.900615908219146,633.051104510986,319.5990558409658)" fill="#00a19d"></use><use xlink:href="#bbburst-shape-10" width="33.358989462969106" opacity="0.6298531144053454" transform="matrix(0.712179510219768,0.7019973968777458,-0.7019973968777458,0.712179510219768,1004.508255875114,138.91981556855677)" fill="none" stroke="#2c2891" filter="url(#bbburst-blur-1)"></use><use xlink:href="#bbburst-shape-7" width="14.935721019892565" opacity="0.8674729028329733" transform="matrix(0.7815077044588885,-0.6238955905208807,0.6238955905208807,0.7815077044588885,413.0186100745733,475.95744461528903)" fill="#2c2891"></use><use xlink:href="#bbburst-shape-10" width="37.48969411383478" opacity="0.21680017427459664" transform="matrix(0.8822956774421726,0.4706955890667105,-0.4706955890667105,0.8822956774421726,739.8290916054626,-309.8185375584524)" fill="none" stroke="#ffa6d5" filter="url(#bbburst-blur-3)"></use><use xlink:href="#bbburst-shape-6" width="22.297640229736285" opacity="0.7706986756378771" transform="matrix(0.9379584123200061,-0.34674777109324495,0.34674777109324495,0.9379584123200061,454.1749983558301,310.78249848459416)" fill="#ffa6d5"></use><use xlink:href="#bbburst-shape-7" width="39.81460979748221" opacity="0.528287404549302" transform="matrix(0.7360922819959226,0.6768811951783231,-0.6768811951783231,0.7360922819959226,891.6327096515672,49.83347496230812)" fill="#ff5c58" filter="url(#bbburst-blur-1)"></use><use xlink:href="#bbburst-shape-11" width="41.65645801584244" opacity="0.5591457335945356" transform="matrix(0.8026435407955181,0.5964590064868108,-0.5964590064868108,0.8026435407955181,612.7890250380752,302.54494759860444)" fill="none" stroke="#2c2891" filter="url(#bbburst-blur-1)"></use><use xlink:href="#bbburst-shape-10" width="13.005619150418635" opacity="0.9587852838466626" transform="matrix(0.7900393850539791,0.6130560904709541,-0.6130560904709541,0.7900393850539791,1001.4184922580521,465.7303419370936)" fill="none" stroke="#ffa6d5"></use><use xlink:href="#bbburst-shape-10" width="52.034246165130796" opacity="0.2662068653624181" transform="matrix(0.9541202740637458,-0.2994236173392518,0.2994236173392518,0.9541202740637458,-74.26638118787251,348.4956520729743)" fill="none" stroke="#ff5c58" filter="url(#bbburst-blur-2)"></use><use xlink:href="#bbburst-shape-7" width="48.39511336089296" opacity="0.4461414854372503" transform="matrix(0.82848618597206,-0.5600094996100238,0.5600094996100238,0.82848618597206,49.66063883467419,257.326939906238)" fill="#ffa6d5" filter="url(#bbburst-blur-2)"></use><use xlink:href="#bbburst-shape-10" width="11.895131770556809" opacity="0.9301715813299318" transform="matrix(0.9550637512456104,0.2964004572477291,-0.2964004572477291,0.9550637512456104,844.9940040301367,399.8557857037266)" fill="none" stroke="#ff5c58"></use><use xlink:href="#bbburst-shape-11" width="30.354557291158827" opacity="0.7734030155766827" transform="matrix(0.7341162957415543,-0.6790237582932565,0.6790237582932565,0.7341162957415543,360.2968267936125,352.67833275303457)" fill="none" stroke="#2c2891"></use><use xlink:href="#bbburst-shape-10" width="40.69692453520758" opacity="0.5924657818630606" transform="matrix(0.8865686211597134,0.46259710329288134,-0.46259710329288134,0.8865686211597134,562.6750589816806,384.90398813040724)" fill="none" stroke="#ffa6d5" filter="url(#bbburst-blur-1)"></use></svg>