<?xml version="1.0" encoding="utf-8"?>
<!-- Generator: Adobe Illustrator 27.5.0, SVG Export Plug-In . SVG Version: 6.00 Build 0)  -->
<svg version="1.1" xmlns="http://www.w3.org/2000/svg" xmlns:xlink="http://www.w3.org/1999/xlink" x="0px" y="0px"
	 viewBox="0 0 500 500" style="enable-background:new 0 0 500 500;" xml:space="preserve">
<g id="Background_Complete">
	<g>
		<g>
			<g>
				<g>
					<g>
						<path style="fill:#F5F5F5;" d="M278.438,462.058c-17.234-8.16-24.111-27.555-26.541-45.624
							c-0.406-3.016-1.27-6.122-0.289-8.995c0.982-2.872,4.006-5.233,6.905-4.424c2.404,0.672,3.813,3.098,5.422,5.03
							c2.14,2.57,5.008,4.511,8.17,5.528c2.077,0.668,4.542,0.874,6.252-0.484c2.345-1.865,2.046-5.49,1.522-8.47
							c-0.976-5.553-1.95-11.107-2.925-16.659c-0.523-2.979-1.047-6.023-0.599-9.011c0.449-2.988,2.054-5.964,4.756-7.239
							c2.704-1.275,6.489-0.232,7.582,2.586c0.455,1.173,0.421,2.476,0.713,3.7c0.292,1.224,1.101,2.497,2.335,2.642
							c1.25,0.148,2.3-0.899,3.044-1.923c2.569-3.532,4.002-7.765,5.302-11.954c1.3-4.188,2.526-8.459,4.764-12.216
							c2.238-3.757,5.661-7.014,9.891-7.979c4.231-0.964,9.228,0.902,11.017,4.913c1.794,4.022,0.062,8.703-2.031,12.559
							c-3.106,5.72-7.036,10.979-11.627,15.559c-0.827,0.826-1.724,1.72-1.897,2.885c-0.312,2.098,1.907,3.754,3.981,4.076
							c2.348,0.364,4.722-0.275,7.094-0.394c2.372-0.12,5.065,0.48,6.317,2.529c1.737,2.842-0.272,6.469-2.426,8.986
							c-4.314,5.041-9.491,9.322-15.231,12.599c-2.058,1.174-4.248,2.269-5.757,4.11c-1.509,1.842-2.123,4.702-0.699,6.622
							c1.426,1.922,4.283,2.13,6.509,1.315c2.225-0.814,4.072-2.411,6.122-3.607c3.837-2.241,9.178-2.854,12.403,0.245
							c2.119,2.037,2.82,5.253,2.417,8.177c-0.402,2.923-1.768,5.613-3.275,8.136c-5.266,8.819-12.626,16.447-21.577,21.352
							C297.132,461.533,288.472,463.916,278.438,462.058"/>
					</g>
				</g>
			</g>
		</g>
		<g>
			<g>
				<g>
					<g>
						<g>
							<path style="fill:#E0E0E0;" d="M281.17,450.011c1.11-9.514,3.193-19.842,5.741-30.569c0.647-2.679,1.287-5.327,1.917-7.936
								c0.635-2.603,1.265-5.185,2.036-7.671c1.522-4.982,3.366-9.655,5.254-14.036c1.887-4.384,3.838-8.475,5.689-12.287
								c1.861-3.81,3.662-7.328,5.44-10.464c3.538-6.289,6.986-11.014,9.485-14.162c1.246-1.579,2.253-2.771,2.947-3.57
								c0.335-0.38,0.596-0.679,0.794-0.904c0.181-0.201,0.278-0.301,0.285-0.295c0.008,0.006-0.074,0.119-0.241,0.332
								c-0.187,0.234-0.436,0.544-0.752,0.94c-0.665,0.822-1.644,2.036-2.863,3.633c-2.443,3.185-5.828,7.928-9.312,14.224
								c-1.752,3.14-3.528,6.66-5.368,10.473c-1.832,3.819-3.765,7.91-5.635,12.289c-1.87,4.376-3.696,9.036-5.202,13.992
								c-0.764,2.474-1.385,5.034-2.02,7.643c-0.629,2.608-1.267,5.254-1.913,7.932c-2.546,10.719-4.638,21.018-5.774,30.5"/>
						</g>
					</g>
				</g>
			</g>
		</g>
		<g>
			<g>
				<g>
					<g>
						<g>
							<path style="fill:#E0E0E0;" d="M291.018,403.787c-0.036,0.012-0.214-0.424-0.507-1.223c-0.296-0.798-0.686-1.966-1.147-3.416
								c-0.924-2.898-2.064-6.945-3.303-11.41c-1.24-4.468-2.434-8.486-3.399-11.363c-0.479-1.439-0.878-2.601-1.164-3.4
								c-0.282-0.801-0.421-1.252-0.386-1.267c0.035-0.015,0.242,0.408,0.587,1.187c0.349,0.776,0.806,1.921,1.333,3.348
								c1.065,2.853,2.324,6.871,3.565,11.343c1.212,4.41,2.308,8.399,3.145,11.448c0.387,1.375,0.714,2.533,0.977,3.463
								C290.945,403.316,291.055,403.775,291.018,403.787z"/>
						</g>
					</g>
				</g>
			</g>
		</g>
		<g>
			<g>
				<g>
					<g>
						<g>
							<path style="fill:#E0E0E0;" d="M328.153,390.133c0.007,0.038-0.527,0.194-1.499,0.442c-0.969,0.254-2.373,0.614-4.094,1.115
								c-3.448,0.973-8.164,2.484-13.294,4.38c-5.129,1.905-9.696,3.826-12.959,5.311c-1.638,0.731-2.947,1.358-3.855,1.787
								c-0.906,0.432-1.416,0.654-1.434,0.62c-0.018-0.035,0.459-0.323,1.336-0.816c0.879-0.488,2.166-1.172,3.786-1.952
								c3.23-1.582,7.79-3.568,12.933-5.479c5.145-1.9,9.899-3.357,13.384-4.234c1.739-0.453,3.162-0.755,4.149-0.944
								C327.595,390.179,328.144,390.095,328.153,390.133z"/>
						</g>
					</g>
				</g>
			</g>
		</g>
		<g>
			<g>
				<g>
					<g>
						<g>
							<path style="fill:#E0E0E0;" d="M281.522,449.226c-0.016,0.011-0.133-0.135-0.342-0.423c-0.241-0.345-0.535-0.766-0.89-1.276
								c-0.768-1.112-1.838-2.75-3.133-4.79c-2.593-4.08-5.998-9.829-9.669-16.223c-3.674-6.397-7.02-12.169-9.525-16.297
								c-1.224-2.006-2.232-3.655-2.98-4.881c-0.322-0.533-0.587-0.972-0.804-1.333c-0.178-0.308-0.265-0.474-0.249-0.486
								c0.016-0.01,0.133,0.136,0.343,0.424c0.241,0.345,0.534,0.765,0.89,1.275c0.768,1.112,1.838,2.75,3.133,4.79
								c2.593,4.08,5.998,9.829,9.671,16.226c3.672,6.395,7.019,12.166,9.523,16.295c1.225,2.005,2.232,3.655,2.98,4.88
								c0.322,0.533,0.587,0.973,0.804,1.333C281.452,449.048,281.539,449.215,281.522,449.226z"/>
						</g>
					</g>
				</g>
			</g>
		</g>
		<g>
			<g>
				<g>
					<g>
						<g>
							<path style="fill:#E0E0E0;" d="M329.702,424.182c0.008,0.018-0.154,0.118-0.47,0.294c-0.376,0.201-0.837,0.447-1.396,0.746
								c-1.292,0.674-3.036,1.585-5.158,2.691c-4.355,2.274-10.333,5.483-16.934,9.038c-6.603,3.557-12.617,6.714-17.02,8.898
								c-2.201,1.093-3.991,1.959-5.24,2.532c-0.578,0.261-1.055,0.476-1.442,0.652c-0.332,0.143-0.512,0.21-0.52,0.192
								c-0.008-0.018,0.155-0.118,0.47-0.295c0.375-0.2,0.836-0.446,1.396-0.745c1.292-0.675,3.035-1.584,5.157-2.691
								c4.355-2.273,10.334-5.483,16.937-9.039c6.601-3.556,12.614-6.713,17.017-8.897c2.201-1.093,3.991-1.959,5.241-2.532
								c0.578-0.261,1.054-0.477,1.442-0.652C329.514,424.231,329.693,424.165,329.702,424.182z"/>
						</g>
					</g>
				</g>
			</g>
		</g>
	</g>
	<g>
		<g>
			<g>
				<path style="fill:#EBEBEB;" d="M153.398,247.411c0,0-11.882,1.651-5.211,27.674c6.671,26.023,12.329,39.435,12.329,39.435
					s0.896,5.895-3.855,5.712c-4.752-0.182-14.439-4.04-17.725,1.087c-3.408,5.318-0.429,11.725,7.024,18.431
					c7.452,6.707,23.241,21.999,24.663,23.387c1.397,1.363,2.455,4.25-0.801,4.645c-3.257,0.395-26.385-2.32-27.016,8.732
					c-0.631,11.052,23.2,26.324,25.774,28.043c2.573,1.72,2.979,3.065,2.402,4.56c-0.577,1.495-8.265-0.15-14.874-0.653
					c-6.61-0.503-14.362,0.073-14.192,6.48c0.17,6.407,12.683,22.596,49.189,34.634l17.281,4.471l12.775-12.58
					c25.698-28.588,28.512-48.855,25.476-54.499c-3.036-5.644-10.049-2.292-15.536,1.429c-5.486,3.721-11.34,8.969-12.583,7.958
					c-1.244-1.01-1.56-2.38-0.181-5.15c1.378-2.771,14.47-27.867,8.43-37.143c-6.039-9.277-24.761,4.572-27.783,5.848
					c-3.022,1.276-3.538-1.756-3.003-3.633c0.544-1.911,6.646-23.028,9.781-32.551c3.134-9.523,2.536-16.564-3.064-19.484
					c-5.4-2.816-11.889,5.345-15.922,7.865c-4.033,2.519-6.184-3.041-6.184-3.041s-1.755-14.451-8.898-40.348
					c-7.143-25.898-18.532-21.257-18.532-21.257"/>
			</g>
		</g>
		<g>
			<g>
				<g>
					<path style="fill:#E0E0E0;" d="M208.367,458.346c-5.171-19.04-13.793-53.035-21.347-82.183
						c-7.551-29.138-14.413-55.513-19.486-74.577c-2.542-9.513-4.602-17.219-6.032-22.571c-0.706-2.648-1.256-4.712-1.636-6.139
						c-0.177-0.686-0.314-1.218-0.412-1.6c-0.09-0.361-0.122-0.55-0.122-0.55s0.069,0.179,0.177,0.535
						c0.111,0.378,0.266,0.906,0.465,1.586c0.404,1.42,0.988,3.475,1.736,6.111c1.502,5.309,3.621,13.006,6.203,22.527
						c5.171,19.04,12.093,45.401,19.644,74.539c7.554,29.148,16.115,63.156,21.189,82.22"/>
				</g>
			</g>
		</g>
		<g>
			<g>
				<g>
					<path style="fill:#E0E0E0;" d="M152.269,327.262c0.021-0.032,0.425,0.187,1.138,0.611c0.716,0.421,1.732,1.06,2.98,1.861
						c2.493,1.607,5.88,3.914,9.572,6.527c3.631,2.59,6.914,4.932,9.426,6.724c1.137,0.8,2.096,1.476,2.867,2.019
						c0.679,0.474,1.046,0.751,1.026,0.784c-0.02,0.032-0.426-0.184-1.143-0.602c-0.714-0.423-1.731-1.062-2.971-1.876
						c-2.478-1.632-5.834-3.982-9.524-6.595c-3.647-2.563-6.946-4.88-9.47-6.654c-1.142-0.795-2.105-1.466-2.88-2.005
						C152.613,327.574,152.249,327.294,152.269,327.262z"/>
				</g>
			</g>
		</g>
		<g>
			<g>
				<g>
					<path style="fill:#E0E0E0;" d="M180.718,344.94c-0.129-0.083,4.32-7.275,9.935-16.062c5.617-8.791,10.274-15.848,10.403-15.766
						c0.129,0.082-4.319,7.273-9.936,16.064C185.504,337.964,180.847,345.023,180.718,344.94z"/>
				</g>
			</g>
		</g>
		<g>
			<g>
				<g>
					<path style="fill:#E0E0E0;" d="M190.298,390.217c-0.024-0.03,0.315-0.355,0.948-0.916c0.723-0.632,1.625-1.422,2.696-2.359
						c2.273-1.994,5.4-4.762,8.738-7.942c3.347-3.174,6.275-6.151,8.378-8.323c0.991-1.022,1.825-1.882,2.494-2.572
						c0.592-0.604,0.934-0.927,0.962-0.901c0.029,0.026-0.258,0.397-0.802,1.047c-0.545,0.649-1.348,1.574-2.368,2.694
						c-2.033,2.245-4.926,5.275-8.282,8.457c-3.348,3.189-6.525,5.918-8.867,7.839c-1.175,0.956-2.134,1.719-2.813,2.226
						C190.707,389.979,190.322,390.247,190.298,390.217z"/>
				</g>
			</g>
		</g>
		<g>
			<g>
				<g>
					<path style="fill:#E0E0E0;" d="M161.047,379.891c0.012-0.036,0.433,0.068,1.185,0.287c0.861,0.266,1.917,0.593,3.164,0.979
						c2.664,0.849,6.332,2.059,10.372,3.428c4.042,1.369,7.69,2.637,10.322,3.582c1.225,0.452,2.262,0.834,3.108,1.146
						c0.73,0.282,1.127,0.456,1.115,0.492c-0.012,0.036-0.433-0.068-1.185-0.287c-0.86-0.266-1.917-0.593-3.164-0.979
						c-2.664-0.849-6.332-2.059-10.374-3.428c-4.04-1.369-7.688-2.637-10.32-3.581c-1.224-0.451-2.262-0.834-3.108-1.146
						C161.432,380.1,161.034,379.927,161.047,379.891z"/>
				</g>
			</g>
		</g>
		<g>
			<g>
				<g>
					<path style="fill:#E0E0E0;" d="M164.426,420.936c0.012-0.036,0.55,0.102,1.512,0.383c1.058,0.323,2.422,0.74,4.06,1.239
						c3.421,1.069,8.134,2.583,13.329,4.288c5.196,1.705,9.891,3.278,13.28,4.443c1.615,0.568,2.961,1.04,4.005,1.407
						c0.942,0.344,1.456,0.551,1.444,0.588c-0.012,0.036-0.549-0.102-1.512-0.382c-1.058-0.323-2.422-0.739-4.06-1.239
						c-3.421-1.069-8.134-2.583-13.331-4.288c-5.195-1.704-9.889-3.277-13.278-4.442c-1.615-0.568-2.961-1.04-4.005-1.407
						C164.929,421.18,164.414,420.972,164.426,420.936z"/>
				</g>
			</g>
		</g>
		<g>
			<g>
				<g>
					<path style="fill:#E0E0E0;" d="M201.239,432.733c-0.026-0.029,0.393-0.451,1.172-1.191c0.854-0.803,1.968-1.851,3.31-3.114
						c2.792-2.632,6.634-6.282,10.761-10.431c4.135-4.144,7.778-7.993,10.396-10.798c1.258-1.346,2.303-2.464,3.103-3.32
						c0.736-0.781,1.157-1.201,1.186-1.176c0.029,0.025-0.337,0.494-1.024,1.32c-0.687,0.826-1.699,2.005-2.975,3.44
						c-2.546,2.875-6.151,6.774-10.293,10.925c-4.134,4.156-8.025,7.768-10.888,10.328c-1.435,1.277-2.606,2.298-3.431,2.986
						C201.732,432.394,201.264,432.762,201.239,432.733z"/>
				</g>
			</g>
		</g>
	</g>
	<g>
		<path style="fill:#F5F5F5;" d="M101.799,92.239l-9.759-3.045c0,0-2.556,8.194-11.117,5.684c-4.446-1.303-5.835-4.916-6.075-7.426
			c-0.278-2.915,0.966-5.75,3.161-7.687c2.507-2.213,6.908-3.562,13.123-0.351l6.865-22.004l-9.65-3.01l-4.021,12.889
			c0,0-14.625-0.724-19.278,14.191c-4.452,14.27,7.311,21.577,12.789,23.286C82.026,106.073,96.612,109.512,101.799,92.239z"/>
		
			<rect x="90.839" y="41.994" transform="matrix(-0.9546 -0.2978 0.2978 -0.9546 173.6486 120.0265)" style="fill:#F5F5F5;" width="10.259" height="9.581"/>
	</g>
	<g>
		<path style="fill:#EBEBEB;" d="M128.734,67.395l3.908-1.031c0,0-0.866-3.281,2.529-4.24c1.763-0.498,2.987,0.42,3.595,1.21
			c0.705,0.918,0.885,2.129,0.557,3.239c-0.374,1.268-1.565,2.644-4.321,2.875l2.324,8.812l3.864-1.019l-1.361-5.162
			c0,0,5.05-2.831,3.475-8.803c-1.507-5.715-6.982-5.69-9.176-5.111C132.449,58.607,126.842,60.521,128.734,67.395z"/>
		
			<rect x="138.209" y="79.499" transform="matrix(0.9669 -0.2551 0.2551 0.9669 -16.1217 38.4606)" style="fill:#EBEBEB;" width="4.056" height="3.788"/>
	</g>
	<g>
		<path style="fill:#EBEBEB;" d="M451.543,168.606l3.8,1.377c0,0,1.156-3.191,4.492-2.046c1.733,0.594,2.217,2.046,2.267,3.041
			c0.058,1.156-0.484,2.254-1.386,2.98c-1.03,0.829-2.792,1.283-5.189-0.096l-3.104,8.568l3.757,1.361l1.818-5.019
			c0,0,5.763,0.547,7.867-5.261c2.013-5.557-2.503-8.653-4.636-9.425C459.6,163.495,453.9,161.876,451.543,168.606z"/>
		
			<rect x="451.007" y="184.768" transform="matrix(0.9402 0.3406 -0.3406 0.9402 90.6692 -143.1477)" style="fill:#EBEBEB;" width="4.056" height="3.788"/>
	</g>
	<g>
		<path style="fill:#F5F5F5;" d="M48.255,212.129l8.042-3.098c0,0-2.601-6.753,4.369-9.577c3.62-1.467,6.43,0.192,7.902,1.726
			c1.71,1.78,2.372,4.305,1.937,6.734c-0.498,2.775-2.699,5.97-8.487,7.103l6.986,18.133l7.952-3.064l-4.092-10.622
			c0,0,10.042-7.18,5.307-19.471c-4.531-11.76-16.129-10.429-20.643-8.689C54.076,192.635,42.638,198,48.255,212.129z"/>
		
			<rect x="71.584" y="235.07" transform="matrix(0.9331 -0.3595 0.3595 0.9331 -80.8839 43.2739)" style="fill:#F5F5F5;" width="8.649" height="8.078"/>
	</g>
	<g>
		<path style="fill:#F5F5F5;" d="M454.67,242.639l-5.699,2.196c0,0,1.843,4.785-3.096,6.787c-2.565,1.039-4.556-0.136-5.6-1.223
			c-1.212-1.262-1.681-3.051-1.372-4.772c0.353-1.966,1.913-4.231,6.014-5.034l-4.95-12.85l-5.635,2.171l2.9,7.527
			c0,0-7.117,5.088-3.761,13.798c3.21,8.334,11.43,7.39,14.629,6.158C450.545,256.453,458.651,252.651,454.67,242.639z"/>
		
			<rect x="432.009" y="220.657" transform="matrix(-0.9331 0.3595 -0.3595 -0.9331 921.4157 275.6906)" style="fill:#F5F5F5;" width="6.129" height="5.724"/>
	</g>
</g>
<g id="Background_Simple" style="display:none;">
	<path style="display:inline;fill:#EBEBEB;" d="M440.297,102.517c-23.614-35.231-63.693-60.282-106.101-60.93
		c-42.408-0.648-85.276,25.617-99.56,65.551c-6.963,19.466-7.186,40.619-11.276,60.884c-4.09,20.265-13.573,41.35-32.115,50.494
		c-25.112,12.384-54.893-1.763-82.861-0.428c-31.649,1.511-60.34,24.648-71.5,54.302c-11.16,29.655-5.737,64.253,11.247,91.002
		c16.984,26.748,44.58,45.854,74.688,55.727c30.108,9.873,101.068,15.614,132.469,11.385l0,0c14.796-0.642,29.484-2.993,43.68-7.213
		c43.181-12.836,78.326-34.393,107.546-64.706c34.839-36.142,56.559-84.467,61.421-134.43
		C472.045,181.943,463.911,137.748,440.297,102.517z"/>
</g>
<g id="Floor">
	<g>
		<path style="fill:#263238;" d="M470.771,463.772c0,0.144-98.851,0.26-220.761,0.26c-121.953,0-220.782-0.117-220.782-0.26
			s98.829-0.26,220.782-0.26C371.921,463.511,470.771,463.628,470.771,463.772z"/>
	</g>
</g>
<g id="Plant">
	<g>
		<g>
			<g>
				<g>
					<path style="fill:#E8505B;" d="M92.637,437.801c0.949-3.677-1.462-7.37-4.165-10.038c-2.703-2.668-5.935-5.059-7.341-8.586
						c-2.278-5.716,0.785-13.116-3.103-17.885c-2.287-2.806-6.389-3.744-8.418-6.741c-1.065-1.572-1.409-3.504-1.827-5.356
						c-2.134-9.446-6.862-18.293-13.529-25.316c-0.464,8.412,1.392,16.94,5.308,24.399c1.574,2.998,3.508,5.921,4.03,9.267
						c0.847,5.434-2.186,11.031-0.851,16.366c1.526,6.101,8.38,10.185,8.705,16.466c0.275,5.31-4.353,9.971-4.008,15.277
						c0.147,2.259,1.196,4.357,2.363,6.297c4.106,6.826,10.137,11.527,19.279,11.374l11.197,0.392L92.637,437.801z"/>
				</g>
			</g>
		</g>
		<g style="opacity:0.3;">
			<g>
				<g>
					<g>
						<path d="M92.637,437.801c0.949-3.677-1.462-7.37-4.165-10.038c-2.703-2.668-5.935-5.059-7.341-8.586
							c-2.278-5.716,0.785-13.116-3.103-17.885c-2.287-2.806-6.389-3.744-8.418-6.741c-1.065-1.572-1.409-3.504-1.827-5.356
							c-2.134-9.446-6.862-18.293-13.529-25.316c-0.464,8.412,1.392,16.94,5.308,24.399c1.574,2.998,3.508,5.921,4.03,9.267
							c0.847,5.434-2.186,11.031-0.851,16.366c1.526,6.101,8.38,10.185,8.705,16.466c0.275,5.31-4.353,9.971-4.008,15.277
							c0.147,2.259,1.196,4.357,2.363,6.297c4.106,6.826,10.137,11.527,19.279,11.374l11.197,0.392L92.637,437.801z"/>
					</g>
				</g>
			</g>
		</g>
		<g>
			<g>
				<g>
					<g>
						<g>
							<g>
								<path style="fill:#263238;" d="M102.543,464.012c0,0,1.068,0.248,3.083-0.067c1.004-0.147,2.239-0.413,3.639-0.916
									c1.392-0.509,2.976-1.234,4.494-2.461c0.729-0.637,1.457-1.422,1.848-2.463c0.386-1.036,0.456-2.176,0.527-3.345
									c0.06-1.171,0.061-2.389,0.261-3.622c0.189-1.233,0.673-2.444,1.368-3.601c1.321-2.319,3.512-4.515,4.221-7.664
									c0.766-3.097,0.217-6.449-0.304-9.815c-0.52-3.358-1.023-7.02,0.261-10.519c1.201-3.502,3.657-6.663,4.884-10.611
									c1.222-3.987,0.653-8.276,0.911-12.506c0.118-2.125,0.529-4.249,1.459-6.217c0.906-1.982,2.163-3.851,3.144-5.938
									c1.987-4.218,2.338-8.999,2.882-13.685c0.265-2.361,0.533-4.746,0.803-7.155c0.267-2.421,0.482-4.831,1.244-7.161
									c0.69-2.347,1.689-4.617,2.679-6.93c0.484-1.163,0.997-2.327,1.299-3.619c0.219-1.32,0.282-2.555,0.361-3.851
									c0.126-2.567,0.02-5.169-0.298-7.751c-0.304-2.584-0.77-5.146-1.048-7.736c-0.017-0.153-0.034-0.306-0.05-0.447
									l-0.058-0.516l-0.459,0.229c-2.398,1.201-4.451,2.989-6.028,5.087c-1.604,2.084-2.771,4.435-3.704,6.825
									c-1.87,4.811-2.544,9.853-3.487,14.663c-0.921,4.811-2.134,9.544-4.601,13.543c-1.227,1.994-2.712,3.815-4.011,5.76
									c-1.296,1.931-2.436,4.053-2.779,6.382c-0.662,4.737,1.947,8.897,1.404,13.091c-0.194,2.084-1.023,4.033-2.043,5.811
									c-1.017,1.789-2.212,3.448-3.346,5.116c-1.133,1.667-2.212,3.358-3.006,5.166c-0.808,1.802-1.253,3.729-1.376,5.613
									c-0.273,3.776,0.263,7.358-0.014,10.74c-0.227,3.387-1.417,6.458-2.763,9.203c-1.354,2.755-2.861,5.246-4.123,7.662
									c-0.635,1.207-1.22,2.385-1.697,3.568c-0.505,1.18-0.753,2.39-0.983,3.54c-0.368,2.322-0.332,4.484-0.083,6.392
									c0.487,3.836,1.917,6.598,3.204,8.15c0.295,0.414,0.637,0.707,0.906,0.981c0.263,0.283,0.523,0.474,0.735,0.624
									C102.32,463.871,102.543,464.012,102.543,464.012c0.049-0.057-0.922-0.571-2.168-2.144c-1.233-1.561-2.601-4.303-3.04-8.096
									c-0.225-1.885-0.238-4.02,0.143-6.299c0.236-1.126,0.489-2.312,0.99-3.457c0.476-1.155,1.068-2.328,1.708-3.521
									c1.272-2.394,2.795-4.875,4.178-7.648c1.373-2.758,2.609-5.89,2.86-9.365c0.294-3.454-0.226-7.049,0.06-10.736
									c0.129-1.844,0.562-3.682,1.35-5.425c0.776-1.749,1.839-3.408,2.972-5.063c1.133-1.656,2.342-3.322,3.388-5.148
									c1.046-1.814,1.924-3.843,2.137-6.049c0.54-4.468-2.05-8.656-1.377-13.059c0.323-2.178,1.406-4.208,2.685-6.104
									c1.278-1.909,2.771-3.731,4.035-5.776c2.545-4.114,3.778-8.937,4.708-13.768c0.952-4.841,1.626-9.829,3.463-14.541
									c0.914-2.342,2.057-4.634,3.606-6.646c1.525-2.027,3.49-3.732,5.774-4.878l-0.516-0.286
									c0.016,0.142,0.033,0.297,0.051,0.452c0.281,2.62,0.749,5.187,1.05,7.741c0.315,2.553,0.419,5.103,0.297,7.633
									c-0.073,1.248-0.149,2.558-0.344,3.735c-0.274,1.178-0.776,2.339-1.256,3.491c-0.983,2.304-1.996,4.608-2.699,7.006
									c-0.778,2.386-1.001,4.888-1.261,7.28c-0.267,2.411-0.532,4.798-0.794,7.16c-0.535,4.705-0.886,9.409-2.8,13.482
									c-0.946,2.027-2.201,3.902-3.133,5.949c-0.962,2.043-1.389,4.287-1.501,6.447c-0.244,4.321,0.318,8.545-0.851,12.373
									c-1.161,3.81-3.603,6.988-4.838,10.601c-1.321,3.651-0.774,7.432-0.24,10.78c0.541,3.371,1.084,6.653,0.362,9.63
									c-0.647,3.008-2.776,5.183-4.124,7.569c-0.701,1.184-1.204,2.465-1.389,3.745c-0.196,1.275-0.186,2.505-0.235,3.666
									c-0.058,1.153-0.124,2.285-0.478,3.255c-0.352,0.967-1.037,1.731-1.737,2.356c-1.462,1.21-3.018,1.95-4.386,2.474
									c-1.377,0.519-2.596,0.805-3.587,0.973c-0.992,0.18-1.762,0.205-2.278,0.22C102.81,464.003,102.543,464.012,102.543,464.012
									z"/>
							</g>
						</g>
					</g>
				</g>
				<g>
					<g>
						<g>
							<g>
								<path style="fill:#263238;" d="M137.923,332.097c-0.012-0.003-0.049,0.112-0.108,0.338
									c-0.066,0.268-0.147,0.599-0.247,1.008c-0.22,0.882-0.483,2.213-0.905,3.877c-0.44,1.658-1.456,3.535-2.324,5.848
									c-0.903,2.295-1.819,4.954-2.661,7.943c-0.854,2.986-1.611,6.302-2.402,9.854c-0.816,3.546-1.631,7.349-3.584,10.936
									c-0.918,1.819-1.951,3.66-2.772,5.674c-0.841,2.014-1.295,4.216-1.612,6.425c-0.538,4.436-1.352,8.94-2.414,13.547
									c-2.245,9.176-4.384,17.916-6.331,25.874c-1.994,7.931-3.791,15.078-5.306,21.102c-1.474,5.97-2.672,10.821-3.517,14.242
									c-0.389,1.642-0.697,2.938-0.921,3.881c-0.09,0.411-0.163,0.744-0.222,1.014c-0.046,0.23-0.064,0.348-0.052,0.352
									c0.012,0.003,0.054-0.11,0.123-0.333c0.077-0.265,0.173-0.592,0.291-0.996c0.255-0.935,0.607-2.22,1.052-3.848
									c0.898-3.408,2.171-8.239,3.738-14.185c1.558-6.014,3.405-13.147,5.456-21.064c1.966-7.96,4.124-16.702,6.391-25.881
									c1.063-4.602,1.885-9.189,2.41-13.603c0.311-2.195,0.744-4.317,1.552-6.27c0.791-1.963,1.809-3.794,2.727-5.633
									c1.97-3.654,2.79-7.573,3.575-11.104c0.766-3.561,1.492-6.868,2.31-9.848c0.807-2.982,1.684-5.637,2.547-7.934
									c0.824-2.306,1.807-4.205,2.219-5.919c0.388-1.704,0.601-3.022,0.777-3.92c0.072-0.415,0.13-0.751,0.177-1.023
									C137.923,332.219,137.935,332.099,137.923,332.097z"/>
							</g>
						</g>
					</g>
				</g>
			</g>
			<g>
				<g>
					<g>
						<g>
							<path style="fill:#E8505B;" d="M104.519,464.046c7.314-4.348,9.413-17.543,6.362-25.486
								c-3.051-7.943-8.391-15.2-9.215-23.668c-0.633-6.51,1.499-13.191-0.017-19.553c-2.046-8.587-10.429-15.238-10.333-24.064
								c0.054-4.952,2.872-9.612,2.647-14.56c-0.275-6.069-4.933-10.883-7.818-16.229c-4.416-8.183-4.706-17.858-6.216-27.033
								c-1.51-9.175-5.006-19.001-13.138-23.51c-1.201,7.789-3.251,13.124-2.607,23.677c0.231,3.79,4.634,11.045,5.233,19.351
								c0.358,4.964,0.606,9.936,0.909,14.904c0.295,4.835,0.608,9.757,2.341,14.28c1.328,3.466,3.462,6.615,4.448,10.193
								c1.855,6.732-0.582,14.023,0.916,20.844c1.269,5.778,5.268,10.751,6.085,16.611c1.148,8.233-4.18,16.787-1.453,24.639
								c1.354,3.897,4.559,7.025,5.468,11.049c0.706,3.122-0.064,6.427,0.576,9.563c1.03,5.053,10.667,8.977,15.814,8.664"/>
						</g>
					</g>
				</g>
				<g>
					<g>
						<g>
							<g>
								<path style="fill:#263238;" d="M68.807,297.675c-0.012,0.002-0.001,0.151,0.032,0.44c0.042,0.327,0.097,0.749,0.165,1.28
									c0.168,1.125,0.356,2.777,0.737,4.913c0.409,2.148,1.515,4.566,2.4,7.482c0.933,2.907,1.862,6.261,2.682,10.015
									c0.835,3.753,1.533,7.906,2.266,12.376c0.758,4.437,1.532,9.34,3.749,13.994c1.026,2.338,2.177,4.678,3.041,7.171
									c0.885,2.484,1.293,5.156,1.543,7.903c0.378,5.518,1.113,11.256,2.145,17.038c2.24,11.542,4.374,22.535,6.316,32.541
									c2.047,9.967,3.891,18.946,5.444,26.505c1.568,7.504,2.84,13.592,3.731,17.856c0.448,2.068,0.8,3.692,1.05,4.848
									c0.121,0.521,0.217,0.936,0.291,1.257c0.069,0.282,0.111,0.426,0.123,0.423c0.012-0.003-0.005-0.151-0.051-0.438
									c-0.057-0.325-0.13-0.744-0.221-1.271c-0.219-1.162-0.526-2.795-0.918-4.874c-0.837-4.275-2.033-10.379-3.507-17.902
									c-1.51-7.568-3.302-16.557-5.292-26.536c-1.924-10.003-4.037-20.993-6.257-32.531c-1.032-5.788-1.762-11.442-2.152-16.982
									c-0.255-2.763-0.68-5.515-1.595-8.062c-0.89-2.546-2.057-4.896-3.084-7.214c-2.205-4.585-2.979-9.373-3.768-13.826
									c-0.758-4.462-1.488-8.627-2.357-12.388c-0.856-3.763-1.823-7.123-2.796-10.029c-0.929-2.926-2.07-5.323-2.509-7.416
									c-0.417-2.097-0.654-3.766-0.867-4.876c-0.097-0.526-0.175-0.944-0.235-1.269C68.855,297.818,68.82,297.673,68.807,297.675z
									"/>
							</g>
						</g>
					</g>
				</g>
			</g>
		</g>
	</g>
</g>
<g id="Speech_Bubble">
	<g>
		<g>
			<path style="fill:#E8505B;" d="M421.474,88.773h-3.981c0,0,0,3.342-3.474,3.402c-1.804,0.031-2.739-1.151-3.119-2.056
				c-0.441-1.051-0.308-2.249,0.284-3.224c0.675-1.113,2.155-2.125,4.838-1.652v-8.976h-3.936v5.258c0,0-5.521,1.427-5.521,7.511
				c0,5.821,5.22,7.173,7.455,7.173C415.728,96.209,421.549,95.796,421.474,88.773z"/>
			
				<rect x="412.038" y="70.687" transform="matrix(-1 -1.224647e-16 1.224647e-16 -1 828.0702 145.1058)" style="fill:#E8505B;" width="3.995" height="3.731"/>
		</g>
		<g>
			<g>
				<g>
					<g>
						<g>
							<g>
								<path style="fill:#263238;" d="M443.276,83.446c0.011,0,0.014-0.17,0.008-0.504c-0.01-0.366-0.024-0.856-0.042-1.48
									c-0.015-0.325-0.015-0.691-0.048-1.091c-0.056-0.401-0.117-0.836-0.183-1.306c-0.068-0.474-0.141-0.982-0.219-1.524
									c-0.132-0.535-0.273-1.102-0.422-1.702c-0.615-2.392-1.666-5.29-3.598-8.253c-1.9-2.961-4.618-6.038-8.312-8.535
									c-3.698-2.451-8.352-4.341-13.577-4.842c-1.308-0.049-2.638-0.207-3.99-0.081c-0.675,0.047-1.361,0.033-2.041,0.132
									c-0.68,0.102-1.365,0.206-2.055,0.31c-2.726,0.557-5.519,1.368-8.121,2.773c-2.607,1.372-5.089,3.142-7.298,5.304
									c-2.165,2.204-4.043,4.777-5.49,7.642c-1.459,2.856-2.467,6.021-2.859,9.315c-0.162,0.816-0.161,1.651-0.211,2.484
									c-0.055,0.834-0.085,1.671-0.046,2.512c0.068,1.68,0.279,3.365,0.635,5.03c0.77,3.618,2.243,7.024,4.214,10.015
									l-0.031-0.304c-1.393,3.471-2.76,6.877-4.094,10.201l-0.242,0.604l0.627-0.172c3.743-1.029,7.384-2.03,10.905-2.998
									l-0.269-0.052c3.804,2.863,8.148,4.687,12.462,5.443c2.155,0.379,4.306,0.54,6.384,0.397
									c1.042-0.044,2.068-0.094,3.066-0.29c0.501-0.078,0.998-0.155,1.492-0.232c0.491-0.091,0.966-0.241,1.444-0.357
									c7.676-1.971,13.346-6.699,16.591-11.381c1.651-2.344,2.835-4.656,3.573-6.773c0.189-0.528,0.371-1.036,0.546-1.526
									c0.128-0.503,0.25-0.986,0.368-1.448c0.114-0.462,0.224-0.904,0.328-1.325c0.082-0.425,0.125-0.835,0.184-1.219
									c0.098-0.771,0.231-1.449,0.26-2.043c0.02-0.584,0.036-1.083,0.05-1.499c0.008-0.38,0.015-0.681,0.02-0.915
									C443.288,83.551,443.285,83.446,443.276,83.446c-0.009,0-0.023,0.104-0.042,0.309c-0.018,0.233-0.042,0.534-0.072,0.912
									c-0.028,0.413-0.061,0.909-0.101,1.489c-0.046,0.589-0.194,1.26-0.307,2.024c-0.55,3.002-1.748,7.503-5.109,12.101
									c-3.246,4.591-8.862,9.199-16.408,11.095c-0.47,0.111-0.937,0.257-1.419,0.343c-0.485,0.073-0.974,0.146-1.466,0.22
									c-0.98,0.188-1.988,0.231-3.011,0.27c-2.04,0.132-4.149-0.034-6.259-0.413c-4.224-0.756-8.471-2.556-12.19-5.369
									l-0.122-0.092l-0.148,0.04c-3.523,0.961-7.166,1.955-10.911,2.976l0.384,0.431c1.338-3.323,2.709-6.727,4.106-10.196
									l0.064-0.16l-0.095-0.145c-1.925-2.926-3.363-6.256-4.116-9.791c-0.348-1.627-0.555-3.275-0.622-4.917
									c-0.039-0.822-0.009-1.641,0.044-2.456c0.049-0.815,0.046-1.632,0.205-2.429c0.381-3.221,1.362-6.315,2.786-9.109
									c1.412-2.803,3.244-5.324,5.357-7.485c2.158-2.119,4.583-3.858,7.132-5.209c2.543-1.384,5.276-2.186,7.946-2.743
									c0.676-0.104,1.348-0.208,2.014-0.311c0.667-0.1,1.34-0.088,2.001-0.137c1.326-0.131,2.632,0.021,3.916,0.062
									c5.13,0.468,9.711,2.298,13.367,4.684c3.651,2.433,6.355,5.442,8.261,8.347c1.937,2.906,3.012,5.758,3.66,8.119
									c0.158,0.593,0.307,1.153,0.448,1.681c0.088,0.536,0.17,1.039,0.247,1.508c0.077,0.465,0.148,0.897,0.213,1.294
									c0.044,0.397,0.054,0.76,0.08,1.083c0.045,0.622,0.081,1.109,0.107,1.473C443.244,83.276,443.264,83.446,443.276,83.446z"/>
							</g>
						</g>
					</g>
				</g>
			</g>
		</g>
	</g>
</g>
<g id="Question_Mark">
	<g>
		<g>
			<g>
				<path style="fill:#E8505B;" d="M145.067,201.384h57.753c0,0,0-48.491,50.393-49.359c26.171-0.451,39.741,16.692,45.254,29.826
					c6.402,15.251,4.465,32.633-4.113,46.775c-9.796,16.151-30.892,32.379-69.814,25.522l-0.368,128.669h57.106v-76.278
					c0,0,80.092-20.704,80.092-108.969c0-84.451-68.293-102.694-104.995-103.866c-20.424-0.652-27.827-1.53-53.087,2.056
					C171.098,100.33,144.386,137.706,145.067,201.384z"/>
				<rect x="224.012" y="409.643" style="fill:#E8505B;" width="57.956" height="54.129"/>
				<rect x="224.012" y="409.643" style="opacity:0.1;" width="57.956" height="54.129"/>
				<path style="opacity:0.1;" d="M145.067,201.384h57.753c0,0,0-48.491,50.393-49.359c26.171-0.451,39.741,16.692,45.254,29.826
					c6.402,15.251,4.465,32.633-4.113,46.775c-9.796,16.151-30.892,32.379-69.814,25.522l-0.368,128.669h57.106v-76.278
					c0,0,80.092-20.704,80.092-108.969c0-84.451-68.293-102.694-104.995-103.866c-20.424-0.652-27.827-1.53-53.087,2.056
					C171.098,100.33,144.386,137.706,145.067,201.384z"/>
			</g>
			<g>
				<path style="fill:#E8505B;" d="M121.144,201.384h57.753c0,0,0-48.491,50.393-49.359c26.171-0.451,39.741,16.692,45.254,29.826
					c6.402,15.251,4.465,32.633-4.113,46.775c-9.796,16.151-31.261,30.831-70.182,23.973v130.217h57.106v-76.278
					c0,0,80.092-20.704,80.092-108.969c0-84.451-75.733-104.065-108.151-104.065C204.505,93.506,120.055,99.499,121.144,201.384z"/>
				<path style="opacity:0.3;" d="M121.144,201.384h57.753c0,0,0-48.491,50.393-49.359c26.171-0.451,39.741,16.692,45.254,29.826
					c6.402,15.251,4.465,32.633-4.113,46.775c-9.796,16.151-31.261,30.831-70.182,23.973v130.217h57.106v-76.278
					c0,0,80.092-20.704,80.092-108.969c0-84.451-75.733-104.065-108.151-104.065C204.505,93.506,120.055,99.499,121.144,201.384z"/>
				<rect x="200.089" y="409.643" style="fill:#E8505B;" width="57.956" height="54.129"/>
				<rect x="200.089" y="409.643" style="opacity:0.3;" width="57.956" height="54.129"/>
			</g>
		</g>
		<g>
			<path style="fill:#263238;" d="M235.813,152.294c-0.003,0.018-0.301-0.001-0.864-0.053c-0.565-0.029-1.387-0.188-2.461-0.2
				c-2.139-0.142-5.253-0.087-9.056,0.376c-3.799,0.476-8.287,1.417-13.073,3.075c-2.379,0.858-4.853,1.843-7.284,3.133
				c-2.452,1.243-4.879,2.764-7.123,4.613c-2.257,1.83-4.166,3.966-5.83,6.16c-1.67,2.187-3.116,4.421-4.369,6.62
				c-2.456,4.428-4.134,8.7-5.172,12.385c-1.062,3.683-1.526,6.763-1.737,8.894c-0.123,1.066-0.155,1.898-0.185,2.463
				c-0.033,0.564-0.059,0.861-0.077,0.861c-0.018,0-0.027-0.297-0.028-0.864c-0.004-0.567-0.005-1.404,0.088-2.478
				c0.149-2.147,0.56-5.256,1.584-8.976c1-3.724,2.654-8.041,5.108-12.52c1.252-2.224,2.702-4.483,4.383-6.696
				c1.67-2.214,3.604-4.386,5.904-6.252c2.281-1.879,4.74-3.414,7.219-4.664c2.46-1.297,4.959-2.281,7.361-3.133
				c4.831-1.646,9.358-2.555,13.186-2.987c3.832-0.418,6.967-0.417,9.113-0.212c1.077,0.043,1.9,0.235,2.462,0.298
				C235.523,152.223,235.816,152.276,235.813,152.294z"/>
		</g>
		<g>
			<path style="fill:#263238;" d="M322.829,141.983c-0.008,0.005-0.071-0.072-0.188-0.227c-0.131-0.18-0.298-0.409-0.506-0.695
				c-0.456-0.647-1.092-1.55-1.9-2.697c-0.416-0.582-0.851-1.25-1.376-1.944c-0.556-0.674-1.158-1.404-1.803-2.187
				c-0.647-0.787-1.337-1.626-2.067-2.516c-0.753-0.872-1.629-1.723-2.504-2.655c-0.896-0.913-1.787-1.917-2.802-2.875
				c-1.036-0.937-2.114-1.911-3.229-2.919c-0.563-0.498-1.113-1.031-1.712-1.526c-0.611-0.481-1.231-0.969-1.861-1.465
				c-1.269-0.977-2.53-2.044-3.905-3.028c-5.48-3.97-11.891-7.786-18.923-11.176c-1.779-0.805-3.537-1.6-5.27-2.383
				c-1.773-0.688-3.519-1.366-5.236-2.032c-1.702-0.706-3.443-1.208-5.124-1.763c-1.691-0.525-3.32-1.133-4.969-1.518
				c-1.636-0.43-3.232-0.849-4.783-1.257c-1.55-0.411-3.09-0.654-4.56-0.975c-1.479-0.276-2.89-0.644-4.277-0.817
				c-1.382-0.2-2.709-0.392-3.977-0.575c-2.527-0.433-4.846-0.519-6.87-0.723c-1.014-0.08-1.956-0.188-2.826-0.229
				c-0.868-0.023-1.663-0.045-2.383-0.064c-1.403-0.045-2.507-0.081-3.299-0.106c-0.353-0.017-0.636-0.03-0.858-0.041
				c-0.193-0.012-0.293-0.023-0.293-0.032c0-0.009,0.099-0.016,0.292-0.021c0.223-0.003,0.506-0.006,0.859-0.011
				c0.793,0.002,1.898,0.005,3.304,0.008c0.721,0.006,1.519,0.012,2.389,0.019c0.873,0.026,1.818,0.12,2.835,0.186
				c2.031,0.177,4.359,0.238,6.896,0.648c1.273,0.173,2.606,0.355,3.994,0.544c1.393,0.163,2.811,0.522,4.297,0.79
				c1.477,0.313,3.025,0.548,4.582,0.953c1.558,0.402,3.162,0.816,4.806,1.24c1.657,0.381,3.294,0.985,4.993,1.507
				c1.69,0.553,3.438,1.053,5.149,1.758c1.724,0.666,3.479,1.344,5.26,2.033c1.74,0.786,3.506,1.583,5.292,2.391
				c7.061,3.404,13.494,7.25,18.983,11.259c1.377,0.994,2.639,2.071,3.909,3.059c0.629,0.501,1.25,0.995,1.86,1.481
				c0.599,0.5,1.149,1.039,1.711,1.543c1.113,1.02,2.188,2.006,3.223,2.954c1.012,0.97,1.899,1.987,2.79,2.911
				c0.87,0.945,1.741,1.807,2.486,2.691c0.723,0.902,1.405,1.753,2.044,2.551c0.635,0.795,1.228,1.536,1.775,2.221
				c0.515,0.705,0.939,1.384,1.343,1.977c0.776,1.173,1.386,2.096,1.823,2.757c0.19,0.298,0.343,0.536,0.463,0.723
				C322.788,141.892,322.836,141.979,322.829,141.983z"/>
		</g>
		<g>
			<path style="fill:#263238;" d="M316.812,265.978c0.014,0.011-0.137,0.217-0.437,0.6c-0.336,0.418-0.779,0.969-1.332,1.657
				c-0.577,0.721-1.298,1.591-2.18,2.562c-0.876,0.976-1.845,2.115-3.007,3.289c-1.138,1.197-2.393,2.5-3.809,3.831
				c-1.377,1.371-2.94,2.738-4.566,4.197c-3.308,2.852-7.077,5.84-11.22,8.716c-4.163,2.85-8.296,5.311-12.139,7.389
				c-1.942,1.002-3.775,1.976-5.547,2.776c-1.747,0.85-3.412,1.559-4.935,2.198c-1.51,0.669-2.92,1.168-4.143,1.64
				c-1.221,0.479-2.29,0.844-3.169,1.127c-0.839,0.272-1.511,0.49-2.022,0.656c-0.464,0.144-0.71,0.212-0.716,0.195
				c-0.006-0.017,0.229-0.118,0.682-0.294c0.502-0.189,1.162-0.437,1.987-0.747c0.867-0.312,1.924-0.703,3.132-1.207
				c1.211-0.497,2.607-1.019,4.104-1.707c1.51-0.658,3.16-1.385,4.894-2.249c1.758-0.814,3.577-1.799,5.505-2.808
				c3.816-2.094,7.925-4.556,12.071-7.395c4.126-2.865,7.888-5.828,11.202-8.65c1.629-1.443,3.197-2.793,4.582-4.146
				c1.424-1.313,2.69-2.597,3.842-3.774c1.176-1.154,2.16-2.274,3.055-3.228c0.901-0.95,1.643-1.799,2.242-2.499
				c0.583-0.661,1.051-1.19,1.405-1.592C316.62,266.15,316.798,265.966,316.812,265.978z"/>
		</g>
		<g>
			<path style="fill:#263238;" d="M256.345,378.283c-0.144,0-0.26-16.063-0.26-35.873c0-19.817,0.117-35.876,0.26-35.876
				c0.144,0,0.26,16.059,0.26,35.876C256.605,362.22,256.489,378.283,256.345,378.283z"/>
		</g>
		<g>
			<path style="fill:#263238;" d="M258.548,460.101c-0.144,0-0.26-11.272-0.26-25.174c0-13.906,0.117-25.176,0.26-25.176
				c0.144,0,0.26,11.27,0.26,25.176C258.808,448.829,258.691,460.101,258.548,460.101z"/>
		</g>
	</g>
</g>
<g id="Character">
	<g>
		<g>
			<path style="fill:#E8505B;" d="M315.399,193.709c-1.009,2.014,2.728,3.637,4.884,4.289c2.156,0.652,4.456,0.584,6.705,0.462
				c2.98-0.161,6.068-0.439,8.66-1.919c2.303-1.315,4.02-3.49,5.22-5.855c1.2-2.365,1.928-4.936,2.65-7.488
				C343.517,183.198,319.891,184.745,315.399,193.709z"/>
			<g style="opacity:0.4;">
				<path d="M315.399,193.709c-1.009,2.014,2.728,3.637,4.884,4.289c2.156,0.652,4.456,0.584,6.705,0.462
					c2.98-0.161,6.068-0.439,8.66-1.919c2.303-1.315,4.02-3.49,5.22-5.855c1.2-2.365,1.928-4.936,2.65-7.488
					C343.517,183.198,319.891,184.745,315.399,193.709z"/>
			</g>
			<g>
				<path style="fill:#E8505B;" d="M382.144,187.306c3.855,2.755,8.599,4.244,13.336,4.187c2.27-0.027,4.675-0.466,6.351-1.997
					c0.771-0.704,1.346-1.605,2.14-2.284c0.539-0.46,1.169-0.81,1.676-1.305c0.507-0.495,0.889-1.205,0.736-1.897
					c-0.156-0.708-0.75-1.85-1.381-2.208c-2.714-1.54-5.951-1.484-9.07-1.413c-3.119,0.072-6.193,0.799-9.15,1.794
					c-2.418,0.814-4.953,1.962-6.18,4.2"/>
				<g style="opacity:0.4;">
					<path d="M406.383,184.009c-0.156-0.708-1.142-1.651-1.773-2.009c-2.714-1.54-5.559-1.683-8.678-1.611
						c-3.119,0.072-6.193,0.799-9.15,1.794c-2.418,0.814-4.953,1.962-6.18,4.2l1.542,0.924c3.855,2.754,8.599,4.244,13.336,4.187
						c2.27-0.027,4.675-0.466,6.35-1.997c0.771-0.704,1.346-1.605,2.14-2.284c0.539-0.46,1.169-0.81,1.676-1.305
						C406.153,185.411,406.535,184.701,406.383,184.009z"/>
				</g>
			</g>
			<path style="fill:#E8505B;" d="M336.02,223.203l49.851,0.653c0.438,0.006,0.752-0.419,0.618-0.836l-5.848-18.24
				c0,0,0.862-9.114,2.053-20.083c1.807-16.645,4.212-37.573,4.243-37.516c-3.404-9.555-23.523-11.185-23.523-11.185l-22.931,1.364
				l-0.807-1.346l-6.599,3.068c-1.44,0.67-2.82,1.451-4.14,2.335c-4.354,2.917-14.861,9.6-16.776,17.057
				c-4.427,17.242,3.072,36.493,3.072,36.493l4.813-3.762c1.258-0.955,2.454-1.776,3.82-2.553l9.661,25.885
				c0,0-2.011,1.225-2.096,3.323C331.347,219.957,332.472,222.485,336.02,223.203"/>
			<g style="opacity:0.3;">
				<path d="M357.39,192.681c1.581-8.498,0.746-17.237-0.095-25.839c-2.768,7.038-2.667,14.97-5.596,21.942
					c-0.316,0.752-0.67,1.502-0.78,2.31c-0.111,0.808,0.065,1.704,0.666,2.255c0.796,0.728,1.983,0.336,3.054,0.207
					C355.772,193.42,356.369,193.032,357.39,192.681"/>
			</g>
			<g style="opacity:0.4;">
				<path d="M339.028,212.355c4.025,1.395,8.257-1.193,12.492-1.653c2.798-0.304,5.599,0.338,8.377,0.789
					c5.613,0.911,11.35,1.052,17.001,0.417c0.862-0.097,1.746-0.219,2.501-0.645c0.755-0.426,1.363-1.617,1.307-2.482
					c-9.414-0.966-18.829-1.542-28.244-2.508c-2.36-0.242-4.796-0.477-7.062,0.225c-2.846,0.882-5.039,3.117-7.044,5.32"/>
			</g>
			<path style="fill:#E8505B;" d="M404.944,180.715c-4.076-9.163-18.425-34.525-18.425-34.525l-11.114,13.933l2.594,27.351
				c0,0,5.868-6.551,22.276-6.681c3.824-0.03,6.107,3.216,6.107,3.216L404.944,180.715z"/>
			<g>
				<path style="fill:#263238;" d="M338.228,175.874c-0.139,0.037-0.978-2.641-1.873-5.982c-0.896-3.342-1.509-6.08-1.37-6.117
					c0.139-0.037,0.977,2.641,1.873,5.982C337.753,173.098,338.366,175.837,338.228,175.874z"/>
			</g>
			<g>
				<path style="fill:#263238;" d="M374.566,158.269c0.025-0.026,0.389,0.285,1.028,0.874c0.624,0.603,1.506,1.503,2.476,2.721
					c1.94,2.402,4.314,6.158,5.306,10.859c0.497,2.337,0.578,4.644,0.319,6.699c-0.258,2.046-0.65,3.845-0.901,5.369
					c-0.265,1.52-0.42,2.757-0.5,3.616c-0.078,0.858-0.099,1.337-0.139,1.337c-0.031,0.001-0.079-0.479-0.063-1.349
					c0.018-0.869,0.119-2.126,0.339-3.661c0.206-1.536,0.561-3.351,0.788-5.368c0.227-2.007,0.134-4.252-0.351-6.534
					c-0.967-4.59-3.243-8.308-5.088-10.741C375.93,159.626,374.489,158.345,374.566,158.269z"/>
			</g>
			<g>
				<path style="fill:#263238;" d="M364.388,221.023c0.008,0.035-0.377,0.145-1.085,0.316c-0.353,0.091-0.788,0.187-1.302,0.253
					c-0.512,0.072-1.093,0.183-1.745,0.212c-1.299,0.125-2.858,0.121-4.579-0.026c-1.717-0.179-3.592-0.521-5.501-1.102
					c-1.903-0.603-3.642-1.383-5.159-2.208c-1.502-0.853-2.789-1.734-3.788-2.572c-0.521-0.393-0.936-0.814-1.318-1.163
					c-0.386-0.345-0.69-0.67-0.929-0.945c-0.487-0.541-0.742-0.85-0.716-0.875c0.075-0.072,1.148,1.128,3.191,2.694
					c1.014,0.79,2.302,1.624,3.79,2.44c1.503,0.787,3.216,1.54,5.084,2.132c1.874,0.57,3.711,0.919,5.396,1.122
					c1.688,0.17,3.222,0.212,4.505,0.135C362.802,221.303,364.367,220.921,364.388,221.023z"/>
			</g>
			<g>
				<path style="fill:#263238;" d="M379.783,215.32c0.06-0.013,0.255,0.533,0.385,1.459c0.119,0.921,0.144,2.25-0.269,3.645
					c-0.396,1.402-1.23,2.501-1.959,3.097c-0.731,0.609-1.293,0.801-1.318,0.75c-0.044-0.075,0.442-0.379,1.066-1.019
					c0.625-0.632,1.34-1.666,1.711-2.977C380.157,217.634,379.587,215.332,379.783,215.32z"/>
			</g>
			<g>
				<path style="fill:#263238;" d="M377.072,218.843c0.13-0.031,0.395,1.429-0.253,3.077c-0.633,1.654-1.813,2.554-1.888,2.443
					c-0.111-0.109,0.823-1.103,1.402-2.631C376.935,220.213,376.917,218.848,377.072,218.843z"/>
			</g>
			<g>
				<path style="fill:#263238;" d="M368.146,185.938c0.106,0.108-0.818,1.152-1.778,2.56c-0.969,1.403-1.611,2.64-1.749,2.58
					c-0.128-0.049,0.317-1.422,1.32-2.875C366.933,186.746,368.054,185.837,368.146,185.938z"/>
			</g>
			<g>
				<path style="fill:#263238;" d="M333.933,161.721c-0.055,0.065-0.846-0.574-2.211-1.465c-1.362-0.893-3.333-1.995-5.657-2.866
					c-2.327-0.865-4.539-1.324-6.153-1.542c-1.615-0.221-2.63-0.257-2.63-0.342c-0.001-0.059,1.02-0.154,2.67-0.024
					c1.647,0.127,3.919,0.538,6.294,1.421c2.372,0.889,4.357,2.068,5.684,3.051C333.262,160.936,333.972,161.677,333.933,161.721z"
					/>
			</g>
			<g>
				<path style="fill:#263238;" d="M386.525,145.858c0.096,0.137-2.6,1.784-5.052,4.728c-2.483,2.919-3.645,5.857-3.797,5.785
					c-0.059-0.023,0.154-0.784,0.697-1.94c0.54-1.154,1.446-2.685,2.702-4.181c1.26-1.493,2.613-2.646,3.658-3.375
					C385.778,146.144,386.493,145.805,386.525,145.858z"/>
			</g>
			<g>
				<path style="fill:#263238;" d="M365.938,137.618c0.017-0.007,0.093,0.152,0.225,0.463c0.148,0.306,0.3,0.779,0.466,1.402
					c0.316,1.242,0.486,3.152-0.019,5.416c-0.52,2.236-1.768,4.841-4.08,6.892c-2.292,2.064-5.666,3.289-9.2,3.277
					c-3.543-0.024-6.866-1.235-9.289-3.105c-2.454-1.846-4.077-4.153-5.112-6.196c-1.017-2.068-1.49-3.885-1.703-5.146
					c-0.103-0.633-0.165-1.125-0.18-1.463c-0.023-0.336-0.027-0.512-0.009-0.514c0.052-0.006,0.114,0.699,0.388,1.937
					c0.271,1.236,0.792,3.01,1.831,5.017c1.057,1.983,2.674,4.21,5.071,5.979c2.364,1.791,5.577,2.944,9.005,2.969
					c3.418,0.011,6.667-1.156,8.882-3.117c2.239-1.95,3.487-4.454,4.037-6.617c0.536-2.189,0.429-4.054,0.179-5.286
					C366.184,138.285,365.877,137.641,365.938,137.618z"/>
			</g>
			<g style="opacity:0.3;">
				<path d="M369.436,187.711c-0.015-0.5-0.08-1.088-0.514-1.338c-0.273-0.157-0.624-0.123-0.906,0.015
					c-0.283,0.138-0.51,0.366-0.724,0.597c-1.211,1.312-2.057,2.594-2.673,4.27l4.902-0.423
					C369.49,189.799,369.468,188.745,369.436,187.711z"/>
			</g>
			<g style="opacity:0.3;">
				<path d="M385.708,177.399c-0.376-2.804-1.808-5.369-3.553-7.595c2.111,6.921,1.405,10.825,0.217,15.564l0.256-0.662
					C383.99,181.936,386.084,180.202,385.708,177.399z"/>
			</g>
		</g>
		<g>
			<g>
				<polygon style="fill:#FFBE9D;" points="375.917,409.859 372.926,454.713 353.425,454.484 350.355,407.852 				"/>
			</g>
			<g>
				<g>
					<g>
						<g>
							<path style="fill:#E8505B;" d="M373.483,448.809l0.004,1.297c0,0,21.981,8.847,22.212,13.019l-43.659-0.256l0.679-14.525
								C359.192,451.389,365.984,451.767,373.483,448.809z"/>
						</g>
					</g>
					<g>
						<g>
							<g>
								<path style="fill:#FFFFFF;" d="M357.112,453.015c-0.846,0.226-1.436,1.173-1.245,2.027c0.191,0.855,1.148,1.463,1.999,1.251
									c0.85-0.211,1.593-1.326,1.307-2.154c-0.285-0.828-1.449-1.48-2.223-1.071"/>
							</g>
						</g>
					</g>
					<g>
						<g>
							<path style="fill:#263238;" d="M352.04,462.869l0.163-3.493l41.785,1.524c0,0,1.939,0.857,1.711,2.225L352.04,462.869z"/>
						</g>
					</g>
					<g>
						<g>
							<g>
								<path style="fill:#263238;" d="M373.639,450.229c-0.008,0.213-1.075,0.303-2.128,0.983
									c-1.071,0.652-1.617,1.572-1.812,1.486c-0.196-0.042,0.129-1.315,1.418-2.115
									C372.399,449.772,373.687,450.034,373.639,450.229z"/>
							</g>
						</g>
					</g>
					<g>
						<g>
							<g>
								<path style="fill:#263238;" d="M378.207,452.15c0.048,0.207-0.878,0.564-1.607,1.462c-0.756,0.876-0.944,1.85-1.156,1.839
									c-0.201,0.032-0.341-1.217,0.587-2.316C376.949,452.029,378.204,451.947,378.207,452.15z"/>
							</g>
						</g>
					</g>
					<g>
						<g>
							<g>
								<path style="fill:#263238;" d="M380.776,457.646c-0.194,0.045-0.484-1.022,0.07-2.187c0.546-1.169,1.554-1.623,1.643-1.445
									c0.119,0.176-0.532,0.799-0.972,1.762C381.054,456.727,380.988,457.626,380.776,457.646z"/>
							</g>
						</g>
					</g>
				</g>
			</g>
		</g>
		<g>
			<path style="fill:#263238;" d="M372.361,81.854c1.125-2.805-0.238-6.196-2.673-7.986c-2.435-1.79-5.679-2.176-8.663-1.703
				c-2.985,0.472-5.783,1.718-8.542,2.951c-2.502-2.514-6.457-3.466-9.829-2.365c-3.372,1.101-6.003,4.204-6.539,7.71
				c-2.149-0.545-4.572,0.189-6.057,1.835c-1.485,1.646-1.967,4.132-1.204,6.214l13.517,4.748l14.763,25.967
				c4.316,3.683,11.374,3.584,15.584-0.22c4.21-3.804,5.023-10.816,1.794-15.482c0.834-0.729,1.519-1.609,2.074-2.565
				c2.34-1.446,4.171-3.703,4.777-6.398C382.648,88.851,378.173,82.535,372.361,81.854z"/>
			<g>
				<g>
					<g>
						<g>
							<g>
								<g>
									<g>
										<g>
											<g>
												<g>
													<g>
														<g>
															<g>
																<g>
																	<g>
																		<g>
																			<g>
																				<path style="fill:#FFBE9D;" d="M363.413,135.995c-0.839-4.227-1.424-7.122-1.416-7.092
																					c0,0,7.97-3.103,7.421-14.236c-0.273-5.536-2.385-14.265-4.344-21.351c-1.763-6.378-7.709-13.41-14.006-11.377
																					l-19.044,9.301c-1.913,0.617-2.248,2.414-1.797,4.373l0.031,0.955l7.41,30.658l3.13,13.702
																					c1.385,5.83,6.991,9.639,12.921,8.78l0,0C360.282,148.759,364.705,142.5,363.413,135.995z"/>
																			</g>
																		</g>
																	</g>
																</g>
															</g>
														</g>
													</g>
													<g>
														<g>
															<g>
																<g>
																	<g>
																		<g>
																			<g>
																				<g>
																					<path style="fill:#263238;" d="M364.948,100.723c0.179,0.724-0.287,1.473-1.04,1.674
																						c-0.751,0.2-1.507-0.223-1.686-0.947c-0.179-0.724,0.287-1.474,1.038-1.674
																						C364.013,99.575,364.769,99.999,364.948,100.723z"/>
																				</g>
																			</g>
																		</g>
																	</g>
																</g>
															</g>
														</g>
														<g>
															<g>
																<g>
																	<g>
																		<g>
																			<g>
																				<g>
																					<g>
																						<path style="fill:#263238;" d="M364.127,98.594c-0.134,0.216-1.343-0.339-2.829-0.023
																							c-1.489,0.294-2.42,1.288-2.619,1.14c-0.096-0.064,0.01-0.426,0.413-0.871
																							c0.395-0.442,1.123-0.945,2.05-1.135c0.927-0.189,1.778-0.012,2.299,0.243
																							C363.971,98.202,364.194,98.496,364.127,98.594z"/>
																					</g>
																				</g>
																			</g>
																		</g>
																	</g>
																</g>
															</g>
														</g>
													</g>
													<g>
														<g>
															<g>
																<g>
																	<g>
																		<g>
																			<g>
																				<g>
																					<path style="fill:#263238;" d="M350.478,104.04c0.179,0.724-0.287,1.473-1.04,1.674
																						c-0.752,0.2-1.507-0.223-1.686-0.947c-0.179-0.724,0.287-1.474,1.038-1.674
																						C349.544,102.892,350.299,103.316,350.478,104.04z"/>
																				</g>
																			</g>
																		</g>
																	</g>
																</g>
															</g>
														</g>
														<g>
															<g>
																<g>
																	<g>
																		<g>
																			<g>
																				<g>
																					<g>
																						<path style="fill:#263238;" d="M349.749,102.119c-0.134,0.216-1.344-0.339-2.829-0.023
																							c-1.489,0.294-2.42,1.288-2.619,1.14c-0.096-0.064,0.008-0.425,0.413-0.871
																							c0.395-0.443,1.123-0.945,2.05-1.136c0.927-0.189,1.778-0.011,2.299,0.243
																							C349.592,101.728,349.816,102.021,349.749,102.119z"/>
																					</g>
																				</g>
																			</g>
																		</g>
																	</g>
																</g>
															</g>
														</g>
													</g>
													<g>
														<g>
															<g>
																<g>
																	<g>
																		<g>
																			<g>
																				<g>
																					<path style="fill:#263238;" d="M357.279,111.525c-0.025-0.083,0.866-0.437,2.324-0.942
																						c0.371-0.119,0.715-0.27,0.725-0.542c0.032-0.293-0.213-0.669-0.489-1.072
																						c-0.55-0.844-1.125-1.728-1.729-2.655c-2.423-3.789-4.262-6.937-4.108-7.033
																						c0.153-0.096,2.242,2.897,4.664,6.686c0.588,0.936,1.15,1.829,1.686,2.683c0.234,0.401,0.584,0.839,0.51,1.449
																						c-0.043,0.305-0.278,0.569-0.508,0.686c-0.228,0.125-0.44,0.174-0.626,0.225
																						C358.236,111.405,357.303,111.608,357.279,111.525z"/>
																				</g>
																			</g>
																		</g>
																	</g>
																</g>
															</g>
														</g>
													</g>
													<g>
														<g>
															<g>
																<g>
																	<g>
																		<g>
																			<g>
																				<path style="fill:#EB996E;" d="M361.997,128.904c0,0-7.15,1.988-15.236-0.822c0,0,5.235,6.84,15.806,3.57
																					L361.997,128.904z"/>
																			</g>
																		</g>
																	</g>
																</g>
															</g>
														</g>
													</g>
												</g>
											</g>
										</g>
										<g>
											<g>
												<g>
													<g>
														<g>
															<g>
																<g>
																	<path style="fill:#263238;" d="M350.03,99.999c-0.099,0.428-1.628,0.417-3.371,0.846
																		c-1.752,0.394-3.116,1.086-3.395,0.747c-0.126-0.163,0.076-0.579,0.604-1.046c0.524-0.466,1.39-0.954,2.438-1.202
																		c1.048-0.245,2.041-0.195,2.717-0.012C349.704,99.515,350.071,99.797,350.03,99.999z"/>
																</g>
															</g>
														</g>
													</g>
												</g>
											</g>
										</g>
										<g>
											<g>
												<g>
													<g>
														<g>
															<g>
																<g>
																	<path style="fill:#263238;" d="M363.563,93.865c-0.239,0.402-1.524,0.306-2.984,0.596
																		c-1.469,0.246-2.643,0.791-3.002,0.498c-0.16-0.146-0.037-0.524,0.435-0.957c0.464-0.43,1.298-0.877,2.305-1.061
																		c1.007-0.183,1.939-0.059,2.518,0.181C363.422,93.359,363.664,93.672,363.563,93.865z"/>
																</g>
															</g>
														</g>
													</g>
												</g>
											</g>
										</g>
									</g>
								</g>
							</g>
						</g>
						<g>
							<path style="fill:#263238;" d="M336.708,84.078c0.439,2.159,1.878,4.093,3.82,5.135c1.942,1.042,4.349,1.17,6.391,0.342
								c1.584-0.643,3.216-1.849,4.824-1.268c1.691,0.612,2.221,2.859,3.791,3.737c2.242,1.255,4.943-0.919,7.503-0.704
								c1.977,0.166,3.51,1.705,5.059,2.946c1.548,1.241,3.698,2.281,5.446,1.341c-0.466-1.65-0.939-3.317-1.77-4.817
								c-0.831-1.5-2.066-2.839-3.663-3.464c-0.875-0.342-1.834-0.463-2.67-0.892c-1.805-0.927-2.614-3.026-3.931-4.571
								c-1.697-1.991-4.402-3.075-7.004-2.807c-2.165,0.223-4.218,1.313-6.393,1.22c-1.608-0.068-3.148-0.783-4.757-0.756
								c-3.133,0.052-5.487,2.797-7.225,5.404"/>
						</g>
					</g>
				</g>
				<path style="fill:#263238;" d="M347.246,86.367c-1.431-0.106-4.378-0.408-5.346-1.429c-2.102-2.219-5.238-3.382-8.042-2.638
					c-2.803,0.743-5.061,3.547-5.02,6.662c-3.426,0.738-6.326,3.587-7.3,7.171c-0.974,3.584,0.019,7.759,2.498,10.505
					c0.649,0.719,1.641,2.377,1.641,2.377s-1.286,1.605-1.78,2.697c-2.285,5.059,3.918,6.997,3.918,6.997
					c0.017,3.401,3.151,3.385,5.163,3.375c1.934-0.01,3.124,5.352,4.689,5.144l-1.59-16.562c0.193,0.077,0.43,0.127,0.733,0.132
					c3.791,0.068,2.802-7.104,1.574-8.959c1.069-1.435,2.149-2.889,2.841-4.575c0.693-1.685,0.737-5.897,0.148-7.667
					C342.695,89.403,347.875,86.413,347.246,86.367z"/>
				<g>
					<g>
						<g>
							<g>
								<g>
									<g>
										<g>
											<g>
												<g>
													<g>
														<g>
															<path style="fill:#FFBE9D;" d="M336.645,111.542c-0.59-2.269-3.406-3.282-5.155-1.72
																c-0.96,0.857-1.532,2.299-0.927,4.713c1.615,6.437,7.744,3.489,7.709,3.301
																C338.25,117.72,337.336,114.2,336.645,111.542z"/>
														</g>
													</g>
												</g>
											</g>
										</g>
									</g>
								</g>
							</g>
						</g>
					</g>
					<g>
						<g>
							<g>
								<g>
									<g>
										<g>
											<g>
												<g>
													<g>
														<g>
															<g>
																<path style="fill:#EB996E;" d="M335.694,115.89c-0.034-0.013-0.093,0.107-0.26,0.241
																	c-0.164,0.131-0.467,0.269-0.834,0.228c-0.743-0.079-1.586-1.015-1.908-2.168c-0.163-0.582-0.181-1.17-0.089-1.684
																	c0.078-0.52,0.3-0.926,0.628-1.072c0.321-0.164,0.615-0.02,0.739,0.141c0.132,0.158,0.123,0.297,0.16,0.3
																	c0.022,0.012,0.111-0.143-0.007-0.395c-0.059-0.121-0.172-0.254-0.354-0.34c-0.186-0.087-0.429-0.094-0.661-0.008
																	c-0.488,0.159-0.82,0.727-0.921,1.292c-0.128,0.574-0.122,1.238,0.061,1.892c0.367,1.287,1.335,2.334,2.333,2.37
																	c0.482,0.005,0.826-0.227,0.983-0.428C335.721,116.049,335.719,115.896,335.694,115.89z"/>
															</g>
														</g>
													</g>
												</g>
											</g>
										</g>
									</g>
								</g>
							</g>
						</g>
					</g>
				</g>
			</g>
			<g>
				<path style="fill:#455A64;" d="M371.174,102.55c-0.04-0.049,0.582-0.449,1.404-1.454c0.804-0.996,1.783-2.692,2.01-5.001
					c0.11-1.141,0.054-2.426-0.359-3.708c-0.412-1.274-1.149-2.556-2.286-3.552c-2.219-2.018-5.895-2.952-9.192-1.79
					c-0.301,0.097-0.58,0.247-0.865,0.365c-0.273,0.143-0.531,0.304-0.786,0.447l-0.396,0.223l-0.006-0.441
					c-0.01-0.775-0.301-1.526-0.809-2.101c-0.503-0.579-1.154-1.019-1.847-1.32c-1.405-0.618-2.914-0.629-4.293-0.314
					c-2.76,0.627-5.102,1.889-7.313,2.143c-2.19,0.28-4.009-0.264-4.988-1.002c-0.506-0.353-0.79-0.747-0.978-1
					c-0.161-0.277-0.237-0.424-0.222-0.432c0.052-0.042,0.321,0.614,1.31,1.273c0.969,0.657,2.721,1.125,4.83,0.81
					c1.047-0.155,2.166-0.529,3.358-0.969c1.193-0.436,2.469-0.959,3.904-1.279c0.717-0.153,1.47-0.266,2.26-0.226
					c0.784,0.041,1.575,0.219,2.33,0.536c0.751,0.322,1.468,0.796,2.038,1.448c0.575,0.645,0.93,1.53,0.938,2.437l-0.402-0.218
					c0.272-0.155,0.547-0.326,0.838-0.479c0.303-0.127,0.601-0.286,0.921-0.389c3.508-1.231,7.353-0.229,9.69,1.923
					c1.194,1.064,1.965,2.438,2.378,3.782c0.415,1.354,0.45,2.694,0.312,3.876c-0.284,2.39-1.349,4.111-2.221,5.091
					c-0.441,0.494-0.828,0.839-1.115,1.035C371.336,102.465,371.185,102.565,371.174,102.55z"/>
			</g>
			<g>
				<path style="fill:#455A64;" d="M369.865,79.944c-0.037,0.073-0.684-0.506-2.072-0.711c-0.684-0.089-1.549-0.085-2.462,0.223
					c-0.911,0.283-1.872,0.887-2.534,1.843l-0.245,0.353l-0.15-0.4c-0.809-2.157-3.172-4.208-6.1-4.53
					c-2.199-0.253-4.2,0.738-5.864,1.695c-1.676,0.981-3.206,1.941-4.648,2.405c-1.425,0.501-2.688,0.556-3.518,0.414
					c-0.417-0.073-0.73-0.171-0.934-0.257c-0.203-0.088-0.305-0.142-0.299-0.159c0.016-0.047,0.446,0.133,1.257,0.214
					c0.809,0.076,2.004-0.031,3.368-0.559c1.38-0.493,2.844-1.454,4.531-2.473c0.85-0.497,1.767-1.007,2.802-1.368
					c1.026-0.369,2.19-0.554,3.358-0.43c3.144,0.347,5.637,2.557,6.465,4.887l-0.395-0.047c0.754-1.047,1.816-1.668,2.797-1.94
					c0.984-0.297,1.9-0.263,2.613-0.13c0.718,0.14,1.239,0.396,1.568,0.599C369.727,79.788,369.878,79.928,369.865,79.944z"/>
			</g>
			<path style="fill:#E8505B;" d="M356.703,114.481c-0.453-0.438-1.131-0.581-1.757-0.51c-0.588,0.067-1.312,0.592-1.685,1.23
				c-0.009,0.012-0.017,0.025-0.025,0.038c-0.016,0.028-0.041,0.053-0.056,0.082l0.024-0.017c-0.136,0.227-0.216,0.493-0.188,0.755
				c0.064,0.591,0.513,1.087,1.044,1.352c0.845,0.423,1.964,0.3,2.62-0.38C357.336,116.352,357.382,115.137,356.703,114.481z"/>
			<g>
				<path style="fill:#263238;" d="M357.202,117.591c-0.078,0.015-0.175-0.297-0.441-0.716c-0.26-0.417-0.726-0.94-1.392-1.245
					c-0.668-0.302-1.369-0.31-1.854-0.231c-0.491,0.075-0.79,0.206-0.83,0.138c-0.036-0.052,0.209-0.311,0.741-0.495
					c0.52-0.185,1.352-0.25,2.158,0.115c0.804,0.368,1.302,1.038,1.504,1.551C357.299,117.229,357.265,117.584,357.202,117.591z"/>
			</g>
			<g>
				<path style="fill:#E8505B;" d="M336.792,118.828c0.049-0.031,0.286,0.501-0.089,1.259c-0.187,0.36-0.532,0.758-1.066,0.964
					c-0.534,0.215-1.218,0.134-1.763-0.21c-0.546-0.342-0.914-0.925-0.952-1.5c-0.046-0.571,0.165-1.054,0.408-1.378
					c0.522-0.666,1.104-0.681,1.097-0.624c0.034,0.079-0.439,0.227-0.791,0.829c-0.168,0.294-0.296,0.697-0.237,1.121
					c0.049,0.42,0.33,0.842,0.752,1.111c0.425,0.265,0.927,0.335,1.326,0.198c0.407-0.13,0.716-0.42,0.908-0.698
					C336.776,119.322,336.706,118.831,336.792,118.828z"/>
			</g>
			<g>
				<path style="fill:#E8505B;" d="M333.415,118.443c0.056,0.026-0.03,0.341-0.465,0.554c-0.212,0.098-0.507,0.16-0.831,0.081
					c-0.327-0.076-0.639-0.319-0.818-0.65c-0.179-0.331-0.213-0.725-0.097-1.041c0.111-0.315,0.324-0.527,0.523-0.651
					c0.416-0.248,0.727-0.148,0.718-0.087c0.006,0.078-0.245,0.129-0.494,0.379c-0.255,0.241-0.443,0.706-0.191,1.151
					c0.235,0.454,0.728,0.551,1.068,0.47C333.173,118.577,333.353,118.396,333.415,118.443z"/>
			</g>
		</g>
		<g>
			<path style="fill:#FFBE9D;" d="M344.413,207.254c0,0,24.759,1.436,39.394,1.57c11.336,0.104,16.389-2.907,18.655-10.19
				c1.903-6.115-2.186-17.841-2.186-17.841c-7.665,0.038-12.395,1.095-17.328,3.407l1.315,5.362l-39.92,3.442L344.413,207.254z"/>
			<g>
				<path style="fill:#EB996E;" d="M392.584,195.283c-0.137,0.093-1.301-2.076-3.737-3.709c-2.411-1.672-4.856-1.962-4.819-2.124
					c0.006-0.061,0.621-0.076,1.588,0.139c0.964,0.211,2.268,0.701,3.524,1.555c1.253,0.858,2.186,1.892,2.735,2.712
					C392.428,194.676,392.638,195.255,392.584,195.283z"/>
			</g>
			<g>
				<path style="fill:#FFBE9D;" d="M335.347,184.164L335.347,184.164c0,0-7.659,1.837-13.282,5.597l5.98,16.263
					c1.998,5.337,8.118,7.96,12.965,5.191c7.53-4.302,10.186-16.864,10.186-16.864l8.276-35.878l-13.71-8.59L335.347,184.164"/>
				<g>
					<path style="fill:#FFBE9D;" d="M345.762,149.883l0.553-11.8l-3.061-11.951c-0.17-0.662-0.253-1.488,0.283-1.891
						c0.56-0.421,1.399-0.4,1.849,0.059c0.838,0.857,4.836,11.353,4.836,11.353s6.067-3.646,7.15-3.824
						c1.083-0.178,2.433,3.087,2.518,3.345c0.085,0.258,0.011,2.193,0.011,2.193s3.752,0.112,4.088,0.627
						c0.336,0.515,0.433,3.183,0.433,3.183s1.586,0.509,1.842,1.712c0.256,1.204,0.766,3.182,0.018,3.616
						c-0.748,0.434-2.327,1.303-2.327,1.303s-0.636,6.122-0.8,6.679c-0.164,0.557-3.681,3.985-3.681,3.985L345.762,149.883z"/>
					<g>
						<path style="fill:#EB996E;" d="M333.011,211.462c0.016-0.033,0.374,0.213,1.149,0.465c0.767,0.258,1.982,0.491,3.534,0.28
							c1.535-0.207,3.427-0.881,5.118-2.36c1.668-1.509,3.356-3.509,4.759-6.024c0.698-1.258,1.326-2.639,1.853-4.131
							c0.54-1.49,0.891-3.106,1.283-4.794c0.785-3.37,1.63-6.998,2.529-10.853c1.805-7.714,3.823-16.338,5.996-25.627l0.016-0.069
							l0.052-0.051c0.688-0.675,1.38-1.37,2.065-2.085c0.341-0.358,0.682-0.721,1.009-1.094c0.159-0.186,0.327-0.378,0.454-0.564
							c0.117-0.121,0.121-0.362,0.168-0.617c0.271-2.002,0.482-4.071,0.704-6.154l0.014-0.132l0.117-0.066
							c0.625-0.351,1.261-0.707,1.906-1.068c0.145-0.086,0.359-0.19,0.449-0.262c0.079-0.064,0.15-0.177,0.18-0.335
							c0.074-0.305,0.05-0.677,0.012-1.036c-0.091-0.705-0.256-1.523-0.444-2.174c-0.249-0.607-0.935-1.044-1.592-1.284
							l-0.173-0.063l-0.007-0.174c-0.025-0.579-0.064-1.176-0.129-1.768c-0.034-0.296-0.072-0.595-0.133-0.878
							c-0.032-0.134-0.07-0.288-0.115-0.37c-0.031-0.066-0.017-0.016-0.062-0.059c-0.053-0.023-0.096-0.052-0.168-0.07
							c-1.111-0.306-2.421-0.351-3.662-0.413l-0.26-0.013l0.008-0.257c0.019-0.617,0.045-1.306,0.017-1.954
							c0.016-0.171-0.139-0.43-0.233-0.67c-0.107-0.241-0.223-0.479-0.343-0.713c-0.242-0.466-0.507-0.922-0.818-1.32
							c-0.155-0.195-0.326-0.385-0.508-0.499c-0.204-0.122-0.29-0.15-0.532-0.061c-0.464,0.163-0.944,0.414-1.41,0.646
							c-1.867,0.971-3.68,2.032-5.458,3.088l-0.261,0.155l-0.112-0.28c-0.946-2.368-1.88-4.706-2.8-7.011
							c-0.46-1.152-0.917-2.296-1.37-3.431c-0.165-0.574-0.566-0.898-1.099-1.029c-0.529-0.135-1.053,0.028-1.301,0.477
							c-0.125,0.212-0.179,0.467-0.152,0.712c0.029,0.223,0.139,0.56,0.204,0.834c0.152,0.577,0.302,1.151,0.453,1.722
							c0.3,1.143,0.598,2.276,0.893,3.398c0.589,2.244,1.167,4.446,1.733,6.602l0.009,0.035l-0.002,0.036
							c-0.199,4.106-0.39,8.047-0.572,11.799l-0.001,0.028l-0.008,0.025c-3.779,12.297-6.913,22.496-9.11,29.645
							c-1.104,3.542-1.972,6.328-2.571,8.251c-0.298,0.931-0.528,1.653-0.692,2.164c-0.16,0.488-0.258,0.735-0.258,0.735
							s0.056-0.26,0.195-0.755c0.149-0.515,0.359-1.243,0.63-2.183c0.573-1.932,1.403-4.729,2.458-8.286
							c2.154-7.162,5.228-17.379,8.934-29.699l-0.009,0.053c0.17-3.753,0.349-7.693,0.535-11.801l0.008,0.071
							c-0.571-2.154-1.154-4.355-1.749-6.598c-0.297-1.122-0.597-2.254-0.9-3.397c-0.151-0.571-0.303-1.145-0.456-1.722
							c-0.072-0.306-0.163-0.537-0.219-0.907c-0.038-0.35,0.037-0.712,0.216-1.018c0.181-0.307,0.459-0.556,0.81-0.681
							c0.35-0.116,0.701-0.105,1.034-0.033c0.331,0.079,0.654,0.227,0.916,0.466c0.267,0.22,0.449,0.599,0.539,0.862
							c0.455,1.135,0.913,2.278,1.374,3.43c0.923,2.304,1.859,4.642,2.807,7.01l-0.373-0.125c1.787-1.063,3.596-2.123,5.487-3.108
							c0.482-0.239,0.944-0.486,1.484-0.677c0.147-0.043,0.291-0.096,0.503-0.071c0.182,0.026,0.351,0.099,0.474,0.189
							c0.268,0.174,0.456,0.393,0.633,0.612c0.346,0.444,0.62,0.92,0.873,1.405c0.125,0.243,0.244,0.489,0.355,0.739
							c0.092,0.258,0.26,0.47,0.277,0.849c0.031,0.709,0.003,1.375-0.016,2.008l-0.252-0.27c1.287,0.07,2.532,0.091,3.818,0.443
							c0.079,0.02,0.171,0.069,0.258,0.112c0.078,0.038,0.238,0.18,0.258,0.262c0.097,0.192,0.123,0.344,0.165,0.506
							c0.068,0.317,0.106,0.624,0.141,0.931c0.067,0.613,0.106,1.212,0.131,1.807l-0.18-0.237c0.773,0.293,1.539,0.742,1.911,1.58
							c0.242,0.824,0.369,1.519,0.479,2.315c0.038,0.391,0.075,0.786-0.024,1.215c-0.042,0.208-0.152,0.45-0.363,0.618
							c-0.208,0.151-0.338,0.199-0.51,0.303c-0.648,0.362-1.287,0.72-1.916,1.071l0.131-0.197c-0.225,2.09-0.437,4.148-0.714,6.175
							l-0.064,0.388c-0.01,0.119-0.104,0.34-0.185,0.436c-0.159,0.232-0.325,0.418-0.493,0.614
							c-0.337,0.383-0.681,0.749-1.027,1.109c-0.692,0.719-1.387,1.414-2.081,2.093l0.068-0.12
							c-2.199,9.282-4.242,17.901-6.068,25.61c-0.916,3.851-1.779,7.475-2.579,10.841c-0.399,1.677-0.766,3.317-1.322,4.822
							c-0.543,1.508-1.188,2.902-1.904,4.169c-1.439,2.535-3.163,4.542-4.868,6.052c-1.752,1.499-3.687,2.158-5.254,2.344
							c-1.584,0.189-2.816-0.076-3.583-0.362c-0.387-0.143-0.67-0.276-0.85-0.385C333.099,211.522,333.007,211.468,333.011,211.462z
							"/>
					</g>
					<g>
						<path style="fill:#EB996E;" d="M359.898,137.348c-0.004,0.073-0.339,0.111-0.867,0.136c-0.526,0.03-1.249,0.045-1.992,0.236
							c-0.739,0.191-1.338,0.562-1.697,0.906c-0.366,0.341-0.526,0.631-0.599,0.6c-0.059-0.019-0.019-0.384,0.324-0.845
							c0.333-0.461,1.001-0.95,1.841-1.166c0.836-0.213,1.605-0.163,2.137-0.1C359.581,137.186,359.902,137.278,359.898,137.348z"/>
					</g>
					<g>
						<path style="fill:#EB996E;" d="M356.964,137.458c-0.135-0.05-0.143-0.359-0.02-0.69c0.124-0.331,0.333-0.558,0.468-0.507
							c0.135,0.05,0.143,0.359,0.02,0.69C357.309,137.281,357.099,137.508,356.964,137.458z"/>
					</g>
					<g>
						<path style="fill:#EB996E;" d="M364.584,141.089c-0.002,0.151-1.34,0.307-2.968,0.41c-0.806,0.072-1.413,0.361-1.652,0.795
							c-0.264,0.409-0.176,0.748-0.252,0.77c-0.048,0.046-0.319-0.337-0.077-0.935c0.112-0.282,0.357-0.595,0.715-0.794
							c0.352-0.203,0.779-0.302,1.203-0.352C363.234,140.874,364.587,140.953,364.584,141.089z"/>
					</g>
					<g>
						<path style="fill:#EB996E;" d="M363.917,144.687c0.144,0.007,0.227,0.746,0.186,1.651c-0.041,0.906-0.19,1.634-0.334,1.628
							c-0.144-0.007-0.227-0.746-0.186-1.651C363.624,145.409,363.773,144.68,363.917,144.687z"/>
					</g>
				</g>
			</g>
		</g>
		<g>
			<path style="fill:#FFFFFF;" d="M368.074,171.621l0.889-3.066c0.178-0.615,0.954-0.81,1.402-0.353l1.16,1.184l0.725-2.883
				c0.191-0.76,1.228-0.865,1.567-0.158l1.637,3.414L368.074,171.621z"/>
			<g>
				<path style="fill:#FFFFFF;" d="M375.47,171.071c0.035,0.14-1.547,0.651-3.532,1.143c-1.985,0.492-3.622,0.777-3.657,0.637
					c-0.035-0.14,1.546-0.651,3.532-1.143C373.798,171.217,375.435,170.932,375.47,171.071z"/>
			</g>
		</g>
		<g>
			<path style="fill:#FFFFFF;" d="M316.002,153.977c0.024,0.02-0.372,0.385-0.889,1.188c-0.513,0.802-1.08,2.088-1.356,3.776
				c-0.294,1.684-0.307,3.731-0.18,5.991c0.11,2.263,0.293,4.748,0.57,7.348c0.549,5.203,1.393,9.87,2.111,13.221
				c0.356,1.677,0.676,3.027,0.897,3.96c0.099,0.414,0.184,0.768,0.258,1.074c0.057,0.246,0.076,0.378,0.076,0.378
				s-0.047-0.125-0.117-0.367c-0.084-0.303-0.181-0.654-0.296-1.065c-0.246-0.927-0.588-2.273-0.963-3.948
				c-0.756-3.347-1.624-8.018-2.174-13.23c-0.277-2.604-0.455-5.094-0.554-7.361c-0.117-2.264-0.089-4.328,0.227-6.026
				c0.297-1.702,0.893-2.998,1.433-3.795C315.589,154.322,316.002,153.977,316.002,153.977z"/>
		</g>
		<g>
			<path style="fill:#FFFFFF;" d="M337.046,140.382c0.003,0.007-0.075,0.049-0.225,0.123c-0.204,0.097-0.421,0.201-0.66,0.315
				c-0.573,0.272-1.398,0.675-2.391,1.223c-1.998,1.074-4.661,2.734-7.514,4.696c-2.855,1.963-5.386,3.818-7.234,5.139
				c-0.85,0.602-1.581,1.119-2.196,1.555c-0.219,0.15-0.418,0.285-0.605,0.412c-0.14,0.092-0.215,0.138-0.219,0.132
				c-0.004-0.006,0.063-0.063,0.194-0.166c0.179-0.137,0.371-0.283,0.582-0.444c0.604-0.45,1.322-0.986,2.156-1.608
				c1.826-1.351,4.344-3.226,7.203-5.192c2.858-1.965,5.541-3.61,7.563-4.654c1.004-0.533,1.843-0.917,2.427-1.167
				c0.246-0.101,0.468-0.193,0.677-0.279C336.96,140.404,337.043,140.375,337.046,140.382z"/>
		</g>
		<g>
			<path style="fill:#FFFFFF;" d="M384.737,146.887c-0.005,0.005-0.063-0.039-0.167-0.126c-0.143-0.124-0.291-0.253-0.45-0.39
				c-0.393-0.333-0.979-0.8-1.751-1.306c-1.528-1.037-3.811-2.206-6.429-3.253c-2.621-1.047-5.07-1.791-6.854-2.281
				c-0.891-0.247-1.618-0.429-2.121-0.553c-0.204-0.052-0.394-0.101-0.578-0.147c-0.132-0.036-0.2-0.058-0.199-0.065
				c0.001-0.007,0.073,0.001,0.207,0.024c0.187,0.035,0.38,0.071,0.587,0.109c0.509,0.1,1.242,0.26,2.141,0.49
				c1.798,0.454,4.262,1.178,6.894,2.23c2.629,1.051,4.916,2.249,6.434,3.325C383.984,146.001,384.737,146.887,384.737,146.887z"/>
		</g>
		<g>
			<path style="fill:#FFFFFF;" d="M337.329,223.219c-0.005,0.012-0.145-0.031-0.39-0.134c-0.244-0.103-0.591-0.272-0.992-0.531
				c-0.785-0.497-1.854-1.473-2.175-2.945c-0.331-1.443-0.02-2.806,0.387-3.659c0.202-0.433,0.414-0.758,0.578-0.967
				c0.164-0.209,0.269-0.312,0.279-0.305c0.034,0.024-0.361,0.468-0.722,1.33c-0.363,0.848-0.638,2.166-0.319,3.554
				c0.303,1.399,1.303,2.349,2.055,2.87C336.797,222.967,337.346,223.183,337.329,223.219z"/>
		</g>
		<g>
			<path style="fill:#FFFFFF;" d="M334.146,212.392c0.055-0.016,0.268,0.546,0.476,1.255c0.207,0.71,0.331,1.298,0.276,1.314
				c-0.055,0.016-0.268-0.546-0.476-1.256C334.214,212.997,334.091,212.408,334.146,212.392z"/>
		</g>
		<g>
			<g>
				<path style="fill:#263238;" d="M347.666,436.598l30.504-0.153l-0.553-105.459l-0.284-107.27l-41.313-0.513l-7.427,14.002
					c-2.996,5.649-5.033,11.788-5.715,18.147c-0.519,4.846,3.112,20.65,4.38,24.672l11.371,36.061L347.666,436.598z"/>
				<path style="fill:#263238;" d="M386.283,223.861l33.516,91.371c3.936,12.246,2.621,24.387-4.132,35.699l-38.914,75.955
					l-21.88-27.372l32.56-68.044l-28.704-46.504l4.83-61.008l13.52-0.217L386.283,223.861z"/>
			</g>
			<g>
				<path style="fill:#455A64;" d="M374.547,254.471c0,0,0.025,0.158,0.047,0.468c0.021,0.333,0.05,0.79,0.087,1.377
					c0.066,1.236,0.161,3.016,0.283,5.297c0.224,4.626,0.545,11.277,0.942,19.486c0.379,8.235,0.83,18.03,1.33,28.904
					c0.245,5.44,0.501,11.15,0.768,17.069c0.19,2.958,0.103,5.975,0.139,9.035c0.009,3.06,0.019,6.164,0.028,9.306
					c0.042,25.132,0.08,47.88,0.108,64.373c-0.011,8.219-0.021,14.877-0.027,19.507c-0.015,2.284-0.026,4.066-0.034,5.303
					c-0.009,0.588-0.017,1.046-0.022,1.379c-0.008,0.311-0.025,0.47-0.025,0.47s-0.018-0.159-0.028-0.47
					c-0.007-0.333-0.017-0.791-0.03-1.379c-0.015-1.237-0.036-3.019-0.064-5.303c-0.033-4.63-0.08-11.288-0.139-19.505
					c-0.067-16.491-0.159-39.236-0.26-64.365c-0.009-3.141-0.017-6.245-0.025-9.305c-0.034-3.059,0.056-6.076-0.131-9.034
					c-0.256-5.918-0.502-11.627-0.737-17.067c-0.459-10.874-0.872-20.669-1.219-28.904c-0.327-8.211-0.592-14.864-0.777-19.491
					c-0.08-2.283-0.142-4.064-0.185-5.301c-0.015-0.588-0.027-1.046-0.035-1.379C374.536,254.631,374.547,254.471,374.547,254.471z"
					/>
			</g>
			<g>
				<path style="fill:#455A64;" d="M373.783,225.664c0.036-0.004,0.109,0.35,0.211,0.993c0.104,0.643,0.228,1.577,0.361,2.734
					c0.267,2.313,0.548,5.52,0.709,9.07c0.159,3.552,0.168,6.771,0.111,9.099c-0.029,1.164-0.068,2.105-0.113,2.755
					c-0.044,0.65-0.085,1.009-0.121,1.008c-0.076-0.002-0.097-1.441-0.134-3.765c-0.036-2.324-0.104-5.533-0.263-9.074
					c-0.161-3.54-0.382-6.742-0.555-9.059C373.817,227.108,373.708,225.672,373.783,225.664z"/>
			</g>
			<g>
				<path style="fill:#455A64;" d="M367.061,227.722c0.053,0.066-0.52,0.325-0.677,1.14c-0.073,0.389,0.008,0.886,0.388,1.219
					c0.361,0.336,0.992,0.504,1.5,0.274c0.506-0.234,0.792-0.822,0.773-1.315c-0.004-0.505-0.327-0.891-0.669-1.09
					c-0.719-0.413-1.29-0.149-1.305-0.232c-0.014-0.027,0.096-0.133,0.354-0.208c0.254-0.074,0.669-0.093,1.121,0.113
					c0.44,0.187,0.941,0.69,0.978,1.391c0.049,0.667-0.289,1.457-1.035,1.813c-0.757,0.332-1.577,0.072-2.049-0.401
					c-0.506-0.487-0.561-1.194-0.414-1.65c0.139-0.476,0.425-0.779,0.647-0.923C366.899,227.708,367.05,227.694,367.061,227.722z"/>
			</g>
			<g>
				<path style="fill:#455A64;" d="M351.058,225.911c0.028-0.007,0.152,0.326,0.274,0.957c0.125,0.629,0.202,1.568,0.089,2.718
					c-0.11,1.149-0.457,2.506-1.154,3.874c-0.691,1.366-1.767,2.727-3.208,3.778c-1.457,1.03-3.091,1.614-4.607,1.832
					c-1.52,0.223-2.917,0.118-4.04-0.145c-1.126-0.26-1.99-0.633-2.547-0.953c-0.558-0.317-0.835-0.541-0.819-0.566
					c0.049-0.102,1.23,0.744,3.439,1.158c2.155,0.43,5.479,0.235,8.27-1.749c2.77-2.009,4.019-5.096,4.301-7.275
					C351.37,227.314,350.946,225.925,351.058,225.911z"/>
			</g>
			<g>
				<path style="fill:#455A64;" d="M390.296,234.665c0.001,0.05-0.757,0.107-1.921-0.227c-1.159-0.325-2.684-1.143-3.936-2.517
					c-1.247-1.38-1.914-2.977-2.126-4.162c-0.221-1.191-0.091-1.94-0.041-1.934c0.093-0.001,0.098,0.735,0.399,1.85
					c0.294,1.114,0.974,2.589,2.153,3.896c1.187,1.299,2.589,2.119,3.669,2.518C389.573,234.497,390.305,234.573,390.296,234.665z"
					/>
			</g>
			<g>
				<path style="fill:#455A64;" d="M402.209,333.172c0.036,0.046-0.577,0.658-1.768,1.406c-0.598,0.365-1.353,0.762-2.275,0.994
					c-0.913,0.237-2.018,0.269-3.07-0.081c-2.13-0.703-3.459-2.303-4.272-3.4c-0.814-1.134-1.224-1.887-1.172-1.924
					c0.064-0.047,0.587,0.639,1.462,1.697c0.874,1.027,2.192,2.494,4.141,3.131c1.957,0.654,3.832-0.115,5.005-0.737
					C401.462,333.612,402.159,333.103,402.209,333.172z"/>
			</g>
			<g>
				<path style="fill:#455A64;" d="M394.574,339.008c-0.117,0.083-1.531-1.703-3.157-3.989c-1.626-2.287-2.85-4.208-2.732-4.292
					c0.117-0.083,1.53,1.703,3.157,3.99C393.468,337.003,394.691,338.925,394.574,339.008z"/>
			</g>
			<g>
				<path style="fill:#FAFAFA;" d="M343.325,258.018c-0.134,0.053-0.49-0.522-0.795-1.286c-0.306-0.764-0.445-1.426-0.311-1.48
					c0.133-0.053,0.489,0.523,0.795,1.286C343.319,257.302,343.459,257.965,343.325,258.018z"/>
			</g>
			<g>
				<path style="fill:#FAFAFA;" d="M362.688,260.784c-0.144,0-0.26-0.495-0.26-1.106c0-0.611,0.117-1.107,0.26-1.107
					c0.144,0,0.26,0.495,0.26,1.107C362.948,260.289,362.832,260.784,362.688,260.784z"/>
			</g>
			<g>
				<path style="fill:#FAFAFA;" d="M354.731,271.297c-0.144,0.01-0.302-0.602-0.354-1.365c-0.052-0.764,0.022-1.391,0.166-1.401
					c0.144-0.01,0.302,0.602,0.354,1.365C354.949,270.66,354.875,271.288,354.731,271.297z"/>
			</g>
			<g>
				<path style="fill:#FAFAFA;" d="M340.19,279.04c-0.119,0.088-0.532-0.281-1.067-0.665c-0.531-0.391-1.008-0.67-0.962-0.81
					c0.039-0.134,0.662-0.054,1.268,0.389C340.038,278.394,340.306,278.961,340.19,279.04z"/>
			</g>
			<g>
				<path style="fill:#FAFAFA;" d="M365.823,288.814c-0.12-0.08,0.031-0.516,0.336-0.974c0.306-0.458,0.65-0.765,0.77-0.685
					c0.12,0.08-0.031,0.516-0.337,0.974C366.287,288.587,365.942,288.894,365.823,288.814z"/>
			</g>
			<g>
				<path style="fill:#FAFAFA;" d="M349.964,291.58c-0.144,0-0.26-0.826-0.26-1.844c0-1.019,0.117-1.844,0.26-1.844
					c0.144,0,0.26,0.826,0.26,1.844C350.224,290.754,350.108,291.58,349.964,291.58z"/>
			</g>
			<g>
				<path style="fill:#FAFAFA;" d="M344.823,302.797c-0.085,0.116-0.607-0.119-1.168-0.526c-0.561-0.407-0.946-0.831-0.862-0.948
					c0.085-0.116,0.607,0.119,1.168,0.526C344.522,302.256,344.908,302.681,344.823,302.797z"/>
			</g>
			<g>
				<path style="fill:#FAFAFA;" d="M360.844,306.701c0.058,0.131-0.266,0.403-0.724,0.607c-0.458,0.204-0.877,0.262-0.936,0.131
					c-0.058-0.131,0.266-0.403,0.724-0.607C360.366,306.629,360.785,306.57,360.844,306.701z"/>
			</g>
			<g>
				<path style="fill:#FAFAFA;" d="M349.964,324.957c-0.129,0.064-0.646-0.709-1.155-1.727c-0.509-1.019-0.818-1.896-0.689-1.961
					c0.129-0.064,0.646,0.709,1.155,1.728C349.784,324.015,350.092,324.893,349.964,324.957z"/>
			</g>
			<g>
				<path style="fill:#FAFAFA;" d="M367.667,323.298c-0.127-0.068,0.101-0.742,0.508-1.506c0.407-0.764,0.84-1.328,0.967-1.26
					c0.127,0.068-0.1,0.742-0.508,1.506C368.227,322.801,367.794,323.366,367.667,323.298z"/>
			</g>
			<g>
				<path style="fill:#FAFAFA;" d="M359.922,338.788c-0.148-0.022-0.136-0.811-0.289-1.75c-0.143-0.94-0.397-1.687-0.264-1.754
					c0.12-0.068,0.618,0.64,0.778,1.673C360.313,337.988,360.057,338.816,359.922,338.788z"/>
			</g>
			<g>
				<path style="fill:#FAFAFA;" d="M351.624,347.639c-0.107,0.097-0.606-0.279-1.115-0.839c-0.509-0.56-0.836-1.093-0.729-1.189
					c0.106-0.097,0.605,0.279,1.115,0.839C351.403,347.01,351.73,347.543,351.624,347.639z"/>
			</g>
			<g>
				<path style="fill:#FAFAFA;" d="M371.764,350.999c-0.103-0.101,0.265-0.64,0.821-1.204c0.556-0.564,1.09-0.94,1.192-0.839
					c0.102,0.101-0.265,0.64-0.821,1.205C372.4,350.724,371.866,351.099,371.764,350.999z"/>
			</g>
			<g>
				<path style="fill:#FAFAFA;" d="M360.18,364.247c-0.142-0.022-0.144-0.784-0.005-1.702c0.139-0.919,0.368-1.646,0.51-1.624
					c0.142,0.022,0.144,0.784,0.005,1.703C360.55,363.542,360.322,364.269,360.18,364.247z"/>
			</g>
			<g>
				<path style="fill:#FAFAFA;" d="M352.385,370.676c-0.124,0.073-0.561-0.443-0.976-1.151c-0.415-0.709-0.651-1.342-0.526-1.415
					c0.124-0.073,0.561,0.443,0.976,1.151C352.273,369.97,352.509,370.603,352.385,370.676z"/>
			</g>
			<g>
				<path style="fill:#FAFAFA;" d="M371.163,378.793c0.084,0.117-0.426,0.625-1.138,1.135c-0.712,0.51-1.358,0.828-1.442,0.712
					c-0.084-0.117,0.426-0.625,1.138-1.135C370.434,378.995,371.079,378.676,371.163,378.793z"/>
			</g>
			<g>
				<path style="fill:#FAFAFA;" d="M355.523,389.324c-0.14-0.051,0.038-0.857,0.122-1.851c0.092-0.994,0.057-1.818,0.204-1.844
					c0.135-0.029,0.412,0.816,0.315,1.89C356.072,388.593,355.652,389.377,355.523,389.324z"/>
			</g>
			<g>
				<path style="fill:#FAFAFA;" d="M361.766,404.436c-0.112,0.09-0.534-0.25-0.941-0.759c-0.407-0.509-0.647-0.995-0.534-1.085
					c0.112-0.09,0.534,0.25,0.941,0.759C361.639,403.861,361.878,404.347,361.766,404.436z"/>
			</g>
			<g>
				<path style="fill:#FAFAFA;" d="M354.943,414.579c-0.119,0.082-0.669-0.513-1.229-1.328c-0.56-0.815-0.918-1.541-0.8-1.623
					c0.118-0.081,0.669,0.513,1.229,1.328C354.703,413.771,355.061,414.497,354.943,414.579z"/>
			</g>
			<g>
				<path style="fill:#FAFAFA;" d="M373.752,401.855c-0.135-0.051-0.12-0.422,0.033-0.829c0.153-0.408,0.386-0.697,0.521-0.646
					c0.135,0.05,0.12,0.422-0.033,0.829C374.12,401.616,373.887,401.905,373.752,401.855z"/>
			</g>
			<g>
				<path style="fill:#FAFAFA;" d="M365.454,426.012c-0.132-0.069,0.119-0.781,0.313-1.672c0.202-0.889,0.276-1.641,0.424-1.647
					c0.138-0.012,0.302,0.792,0.084,1.76C366.063,425.422,365.574,426.081,365.454,426.012z"/>
			</g>
			<g>
				<path style="fill:#FAFAFA;" d="M370.847,271.459c-0.13,0.061-0.447-0.341-0.708-0.899c-0.261-0.557-0.367-1.059-0.236-1.119
					c0.13-0.061,0.447,0.341,0.708,0.899C370.871,270.897,370.977,271.398,370.847,271.459z"/>
			</g>
			<g>
				<path style="fill:#FAFAFA;" d="M356.971,240.315c0.079,0.127-0.625,0.689-1.368,1.489c-0.75,0.794-1.266,1.532-1.398,1.462
					c-0.124-0.06,0.214-0.965,1.018-1.818C356.022,240.591,356.904,240.195,356.971,240.315z"/>
			</g>
			<g>
				<path style="fill:#FAFAFA;" d="M369.326,239.946c-0.145,0.029-0.38-0.565-0.727-1.25c-0.34-0.689-0.674-1.234-0.564-1.332
					c0.101-0.096,0.653,0.34,1.03,1.099C369.446,239.22,369.464,239.923,369.326,239.946z"/>
			</g>
			<g>
				<path style="fill:#FAFAFA;" d="M330.833,250.107c-0.134-0.053,0.003-0.716,0.305-1.481c0.303-0.765,0.656-1.342,0.79-1.29
					c0.134,0.053-0.003,0.716-0.306,1.481C331.32,249.583,330.966,250.16,330.833,250.107z"/>
			</g>
			<g>
				<path style="fill:#FAFAFA;" d="M332.076,265.21c-0.092,0.111-0.662-0.213-1.273-0.722c-0.611-0.509-1.032-1.012-0.94-1.122
					c0.092-0.111,0.662,0.213,1.273,0.722C331.748,264.597,332.168,265.099,332.076,265.21z"/>
			</g>
			<g>
				<path style="fill:#FAFAFA;" d="M357.34,228.329c-0.134,0.053-0.407-0.316-0.611-0.825c-0.204-0.509-0.26-0.965-0.127-1.019
					c0.134-0.053,0.407,0.316,0.611,0.825C357.417,227.819,357.473,228.275,357.34,228.329z"/>
			</g>
			<g>
				<path style="fill:#FAFAFA;" d="M381.529,235.712c-0.141-0.031-0.128-0.633,0.028-1.345c0.156-0.712,0.396-1.265,0.537-1.234
					c0.14,0.031,0.128,0.633-0.028,1.345C381.909,235.19,381.669,235.743,381.529,235.712z"/>
			</g>
			<g>
				<path style="fill:#FAFAFA;" d="M387.214,247.138c-0.133-0.055,0.048-0.801,0.405-1.667c0.357-0.866,0.753-1.523,0.886-1.468
					c0.133,0.055-0.048,0.801-0.405,1.667C387.743,246.536,387.347,247.193,387.214,247.138z"/>
			</g>
			<g>
				<path style="fill:#FAFAFA;" d="M383.157,256.358c-0.129,0.064-0.604-0.627-1.063-1.543c-0.458-0.917-0.726-1.712-0.597-1.776
					c0.129-0.064,0.604,0.627,1.063,1.543C383.018,255.499,383.285,256.294,383.157,256.358z"/>
			</g>
			<g>
				<path style="fill:#FAFAFA;" d="M391.824,265.579c-0.134-0.052-0.037-0.63,0.218-1.292c0.255-0.662,0.57-1.157,0.704-1.105
					c0.134,0.052,0.037,0.63-0.218,1.292C392.273,265.135,391.958,265.63,391.824,265.579z"/>
			</g>
			<g>
				<path style="fill:#FAFAFA;" d="M384.079,274.615c-0.122,0.076-0.427-0.192-0.682-0.599c-0.255-0.408-0.362-0.799-0.24-0.876
					c0.122-0.076,0.427,0.192,0.682,0.6C384.093,274.146,384.201,274.539,384.079,274.615z"/>
			</g>
			<g>
				<path style="fill:#FAFAFA;" d="M385.732,293.246c-0.105,0.098-0.728-0.401-1.39-1.114c-0.662-0.713-1.113-1.37-1.008-1.468
					c0.105-0.098,0.727,0.401,1.389,1.114C385.386,292.491,385.837,293.148,385.732,293.246z"/>
			</g>
			<g>
				<path style="fill:#FAFAFA;" d="M395.881,282.544c-0.113,0.089-0.659-0.417-1.219-1.13c-0.56-0.713-0.923-1.363-0.81-1.452
					c0.113-0.089,0.659,0.417,1.219,1.13C395.632,281.805,395.994,282.455,395.881,282.544z"/>
			</g>
			<g>
				<path style="fill:#FAFAFA;" d="M401.449,297.314c-0.13-0.062,0.097-0.813,0.507-1.677c0.41-0.865,0.847-1.515,0.977-1.454
					c0.13,0.062-0.097,0.812-0.507,1.677C402.017,296.724,401.579,297.375,401.449,297.314z"/>
			</g>
			<g>
				<path style="fill:#FAFAFA;" d="M389.611,309.467c-0.127,0.077-0.591-0.479-1.235-1.067c-0.638-0.595-1.229-1.013-1.162-1.146
					c0.057-0.127,0.814,0.112,1.516,0.763C389.434,308.665,389.733,309.4,389.611,309.467z"/>
			</g>
			<g>
				<path style="fill:#FAFAFA;" d="M390.349,322.007c0,0.144-0.495,0.26-1.106,0.26c-0.611,0-1.106-0.117-1.106-0.26
					s0.495-0.26,1.106-0.26C389.853,321.747,390.349,321.863,390.349,322.007z"/>
			</g>
			<g>
				<path style="fill:#FAFAFA;" d="M402.52,318.503c-0.126-0.078,0.131-0.701,0.322-1.487c0.201-0.784,0.267-1.454,0.415-1.464
					c0.138-0.016,0.311,0.715,0.09,1.59C403.131,318.019,402.634,318.582,402.52,318.503z"/>
			</g>
			<g>
				<path style="fill:#FAFAFA;" d="M414.611,322.708c-0.136,0.048-0.505-0.653-0.825-1.564c-0.32-0.912-0.469-1.689-0.333-1.737
					c0.136-0.048,0.505,0.653,0.825,1.565C414.597,321.883,414.747,322.66,414.611,322.708z"/>
			</g>
			<g>
				<path style="fill:#FAFAFA;" d="M412.685,339.906c-0.127-0.067,0.181-0.906,0.688-1.874c0.508-0.969,1.022-1.699,1.15-1.633
					c0.127,0.067-0.181,0.906-0.689,1.874C413.327,339.242,412.812,339.973,412.685,339.906z"/>
			</g>
			<g>
				<path style="fill:#FAFAFA;" d="M401.649,350.015c-0.133,0.055-0.544-0.638-0.917-1.548c-0.374-0.91-0.569-1.691-0.436-1.746
					c0.133-0.055,0.544,0.638,0.917,1.548C401.587,349.179,401.783,349.961,401.649,350.015z"/>
			</g>
			<g>
				<path style="fill:#FAFAFA;" d="M389.427,353.909c0,0.144-0.413,0.26-0.922,0.26c-0.509,0-0.922-0.117-0.922-0.26
					s0.413-0.26,0.922-0.26C389.014,353.649,389.427,353.765,389.427,353.909z"/>
			</g>
			<g>
				<path style="fill:#FAFAFA;" d="M396.434,369.953c-0.139,0.037-0.417-0.552-0.62-1.316c-0.204-0.764-0.256-1.413-0.117-1.45
					c0.139-0.037,0.417,0.552,0.62,1.316C396.521,369.266,396.573,369.915,396.434,369.953z"/>
			</g>
			<g>
				<path style="fill:#FAFAFA;" d="M387.583,364.605c-0.123-0.074,0.024-0.547,0.33-1.056c0.306-0.509,0.653-0.862,0.777-0.788
					c0.123,0.074-0.024,0.547-0.33,1.056C388.054,364.326,387.706,364.679,387.583,364.605z"/>
			</g>
			<g>
				<path style="fill:#FAFAFA;" d="M387.398,382.308c-0.143,0.017-0.341-0.671-0.443-1.537c-0.102-0.866-0.069-1.581,0.074-1.598
					c0.143-0.017,0.341,0.671,0.443,1.537C387.574,381.576,387.541,382.291,387.398,382.308z"/>
			</g>
		</g>
	</g>
</g>
</svg>
