<?xml version="1.0" encoding="utf-8"?>
<!-- Generator: Adobe Illustrator 27.5.0, SVG Export Plug-In . SVG Version: 6.00 Build 0)  -->
<svg version="1.1" xmlns="http://www.w3.org/2000/svg" xmlns:xlink="http://www.w3.org/1999/xlink" x="0px" y="0px"
	 viewBox="0 0 500 500" style="enable-background:new 0 0 500 500;" xml:space="preserve">
<g id="Background_Complete">
	<g>
		<g>
			<path style="fill:#F5F5F5;" d="M91.168,68.464c0-22.5-20.334-40.252-43.629-35.879c-14.652,2.75-26.329,14.716-28.895,29.402
				c-1.604,9.179,0.29,17.814,4.477,24.941h-0.02l0.104,0.137c1.402,2.362,3.157,4.05,4.931,6.532l21.219,28.108
				c2.64,3.498,7.894,3.497,10.534,0l20.866-27.644c0,0,3.895-4.644,5.308-7.032l0.075-0.1h-0.015
				C89.31,81.505,91.168,75.209,91.168,68.464z M54.623,84.376c-8.882,0-16.083-7.201-16.083-16.083
				c0-8.882,7.201-16.083,16.083-16.083c8.883,0,16.083,7.201,16.083,16.083C70.706,77.175,63.506,84.376,54.623,84.376z"/>
		</g>
	</g>
	<g>
		<g>
			<path style="fill:#F5F5F5;" d="M485.365,290.123c0-9.919-8.964-17.745-19.234-15.817c-6.459,1.212-11.607,6.488-12.738,12.962
				c-0.707,4.047,0.128,7.853,1.974,10.995h-0.009l0.046,0.061c0.618,1.041,1.392,1.785,2.174,2.879l9.354,12.391
				c1.164,1.542,3.48,1.542,4.644,0l9.199-12.187c0,0,1.717-2.047,2.34-3.1l0.033-0.044h-0.007
				C484.545,295.872,485.365,293.096,485.365,290.123z M469.254,297.138c-3.916,0-7.09-3.174-7.09-7.09
				c0-3.916,3.174-7.09,7.09-7.09c3.916,0,7.09,3.174,7.09,7.09C476.344,293.964,473.17,297.138,469.254,297.138z"/>
		</g>
	</g>
	<g>
		<g>
			<g>
				
					<ellipse transform="matrix(0.7071 -0.7071 0.7071 0.7071 -157.299 397.5936)" style="fill:#F5F5F5;" cx="401.288" cy="388.674" rx="40.34" ry="40.34"/>
			</g>
		</g>
		<g>
			<g>
				<path style="fill:#FFFFFF;" d="M401.288,422.249c-18.514,0-33.576-15.062-33.576-33.576s15.062-33.576,33.576-33.576
					s33.576,15.062,33.576,33.576S419.802,422.249,401.288,422.249z M401.288,360.844c-15.345,0-27.83,12.484-27.83,27.83
					s12.484,27.83,27.83,27.83c15.345,0,27.83-12.484,27.83-27.83S416.633,360.844,401.288,360.844z"/>
			</g>
		</g>
		<g>
			<g>
				<path style="fill:#FFFFFF;" d="M401.063,400.152c-6.819,0-12.366-5.547-12.366-12.365c0-6.819,5.547-12.366,12.366-12.366
					c6.819,0,12.366,5.547,12.366,12.366C413.429,394.605,407.882,400.152,401.063,400.152z M401.063,381.167
					c-3.65,0-6.62,2.97-6.62,6.62c0,3.65,2.97,6.619,6.62,6.619c3.65,0,6.62-2.97,6.62-6.619
					C407.683,384.137,404.714,381.167,401.063,381.167z"/>
			</g>
		</g>
		<g>
			<g>
				<polygon style="fill:#E0E0E0;" points="401.063,387.787 385.432,387.787 388.158,392.609 351.368,409.47 352.61,411.539 
					389.522,394.874 392.052,399.663 				"/>
			</g>
		</g>
		<g>
			<g>
				<path style="fill:#E0E0E0;" d="M351.368,409.47l-0.391-0.38c-1.929-1.879-4.719-2.575-7.304-1.823l-14.675,4.272l8.172,3.591
					l-3.283,8.731l13.768-4.91c3.105-1.108,5.118-4.119,4.954-7.412l0,0L351.368,409.47z"/>
			</g>
		</g>
	</g>
	<g>
		<g>
			<g>
				<g>
					<path style="fill:#E0E0E0;" d="M173.347,417.931c0.004-0.006,0.106-0.04,0.302-0.099c0.217-0.063,0.503-0.147,0.868-0.254
						c0.784-0.224,1.903-0.543,3.344-0.954c2.927-0.822,7.161-2.01,12.504-3.51l-0.112,0.201c-0.64-2.143-1.358-4.546-2.128-7.121
						l-0.035-0.118l0.1-0.083c3.133-2.614,6.216-6.054,8.719-10.262c1.247-2.109,2.239-4.467,2.92-6.99
						c0.712-2.525,0.808-5.269,0.472-8.001c-0.851-5.449-3.623-10.996-8.218-14.998c-4.535-4.032-10.591-6.703-17.023-7.327
						c-4.795-0.467-9.57,0.636-13.672,2.735c-4.157,2.011-7.645,5.053-10.184,8.57c-2.563,3.526-3.913,7.651-4.381,11.642
						c-0.059,1.006-0.218,1.999-0.195,2.986c0.028,0.988,0.056,1.964,0.084,2.928c0.182,1.92,0.49,3.783,1,5.543
						c0.526,1.753,1.21,3.404,2.034,4.92c0.84,1.509,1.826,2.869,2.884,4.089c2.13,2.436,4.58,4.256,6.964,5.62
						c4.803,2.716,9.248,3.816,12.403,4.288l0.072,0.011l0.014,0.065c0.416,1.983,0.734,3.497,0.954,4.542
						c0.101,0.499,0.18,0.886,0.237,1.171C173.327,417.787,173.351,417.924,173.347,417.931c-0.004,0.007-0.038-0.115-0.101-0.366
						c-0.067-0.277-0.159-0.653-0.277-1.138c-0.248-1.052-0.606-2.577-1.076-4.574l0.085,0.076
						c-3.197-0.426-7.671-1.482-12.55-4.189c-2.42-1.36-4.915-3.187-7.095-5.651c-1.082-1.234-2.093-2.613-2.956-4.146
						c-0.847-1.54-1.551-3.218-2.094-5c-0.526-1.789-0.847-3.681-1.039-5.63c-0.031-0.979-0.063-1.97-0.096-2.972
						c-0.027-1.002,0.13-2.013,0.188-3.037c0.463-4.063,1.832-8.281,4.442-11.887c2.585-3.597,6.139-6.701,10.369-8.753
						c4.164-2.139,9.061-3.274,13.962-2.796c6.556,0.637,12.707,3.355,17.33,7.473c2.315,2.053,4.242,4.473,5.612,7.113
						c0.397,0.632,0.656,1.327,0.954,1.998c0.294,0.673,0.6,1.337,0.786,2.041c0.211,0.694,0.439,1.379,0.631,2.068
						c0.126,0.707,0.251,1.41,0.376,2.108c0.338,2.803,0.227,5.616-0.507,8.189c-0.702,2.571-1.723,4.965-2.995,7.097
						c-2.56,4.258-5.673,7.696-8.873,10.333l0.064-0.201c0.751,2.581,1.452,4.989,2.077,7.137l0.046,0.159l-0.158,0.042
						c-5.404,1.436-9.687,2.575-12.646,3.362c-1.435,0.375-2.548,0.665-3.329,0.869c-0.357,0.09-0.637,0.161-0.849,0.215
						C173.437,417.918,173.343,417.938,173.347,417.931z"/>
				</g>
			</g>
		</g>
		<g>
			<g>
				<g>
					<path style="fill:#E0E0E0;" d="M191.951,417.944c0.04,0.146-3.852,1.338-8.692,2.663c-4.842,1.325-8.797,2.281-8.837,2.136
						c-0.04-0.146,3.851-1.338,8.693-2.663C187.954,418.755,191.911,417.799,191.951,417.944z"/>
				</g>
			</g>
		</g>
		<g>
			<g>
				<g>
					<path style="fill:#E0E0E0;" d="M188.086,426.123c0.056,0.134-1.255,0.796-3.005,1.212c-1.75,0.423-3.218,0.429-3.229,0.283
						c-0.015-0.156,1.395-0.402,3.101-0.815C186.66,426.398,188.029,425.978,188.086,426.123z"/>
				</g>
			</g>
		</g>
		<g>
			<g>
				<g>
					<path style="fill:#E0E0E0;" d="M176.921,416.955c-0.009,0.002-0.042-0.094-0.097-0.285c-0.061-0.221-0.137-0.5-0.232-0.848
						c-0.202-0.787-0.484-1.883-0.841-3.274c-0.717-2.889-1.737-7-2.994-12.064c-0.625-2.552-1.309-5.342-2.042-8.336
						c-0.179-0.726-0.435-1.466-0.878-2.063c-0.41-0.612-1.186-0.93-1.824-0.606c-0.629,0.309-0.933,1.141-0.94,1.906
						c-0.018,0.783,0.359,1.537,0.892,2.153c1.086,1.239,2.921,1.768,4.628,1.536c1.735-0.209,3.263-1.437,4.057-3.072
						c0.821-1.623,1.012-3.594,0.579-5.424c-0.217-0.911-0.578-1.829-1.243-2.446c-0.627-0.609-1.705-0.828-2.397-0.333
						c-0.694,0.496-0.81,1.591-0.451,2.386c0.363,0.837,1.102,1.481,1.867,2.047c1.529,1.133,3.292,1.973,5.114,2.11
						c0.905,0.065,1.818-0.049,2.623-0.392c0.803-0.357,1.518-0.908,2.045-1.594c0.531-0.676,0.883-1.494,0.923-2.32
						c0.051-0.827-0.208-1.654-0.756-2.242c-0.529-0.594-1.334-0.929-2.051-0.705c-0.719,0.211-1.261,0.873-1.519,1.582
						c-0.496,1.472-0.058,3.11,0.118,4.615c0.484,3.04,1.029,5.862,1.527,8.437c1.033,5.113,1.871,9.263,2.46,12.18
						c0.285,1.407,0.509,2.516,0.67,3.312c0.067,0.354,0.12,0.639,0.163,0.864c0.034,0.195,0.047,0.296,0.037,0.298
						c-0.009,0.002-0.04-0.095-0.092-0.286c-0.056-0.222-0.127-0.503-0.216-0.852c-0.185-0.791-0.443-1.892-0.771-3.29
						c-0.65-2.862-1.576-7.007-2.631-12.149c-0.523-2.572-1.09-5.391-1.596-8.442c-0.111-0.768-0.244-1.538-0.325-2.345
						c-0.077-0.803-0.091-1.667,0.203-2.505c0.296-0.814,0.905-1.605,1.831-1.89c0.937-0.295,1.953,0.148,2.563,0.838
						c0.646,0.687,0.956,1.665,0.897,2.609c-0.045,0.951-0.442,1.866-1.023,2.613c-0.58,0.757-1.358,1.362-2.247,1.759
						c-0.903,0.387-1.897,0.509-2.872,0.441c-1.966-0.146-3.81-1.034-5.4-2.207c-0.785-0.585-1.605-1.271-2.044-2.267
						c-0.426-0.971-0.342-2.313,0.633-3.047c1.002-0.685,2.311-0.36,3.086,0.375c0.796,0.747,1.169,1.756,1.402,2.721
						c0.459,1.956,0.256,4.043-0.63,5.793c-0.846,1.754-2.552,3.125-4.462,3.347c-1.865,0.245-3.852-0.322-5.079-1.719
						c-0.592-0.682-1.03-1.565-1.007-2.491c0.022-0.88,0.335-1.877,1.221-2.334c0.434-0.219,0.937-0.221,1.374-0.064
						c0.445,0.157,0.783,0.48,1.035,0.821c0.504,0.694,0.759,1.475,0.945,2.24c0.71,3,1.372,5.796,1.977,8.353
						c1.186,5.08,2.148,9.205,2.825,12.103c0.315,1.401,0.563,2.504,0.741,3.297c0.073,0.353,0.133,0.636,0.179,0.861
						C176.915,416.852,176.93,416.953,176.921,416.955z"/>
				</g>
			</g>
		</g>
		<g>
			<g>
				<g>
					<path style="fill:#E0E0E0;" d="M191.313,421.682c0.04,0.146-3.112,1.134-7.039,2.207c-3.928,1.073-7.144,1.825-7.184,1.679
						c-0.04-0.146,3.112-1.134,7.04-2.207C188.057,422.289,191.273,421.537,191.313,421.682z"/>
				</g>
			</g>
		</g>
	</g>
</g>
<g id="Background_Simple" style="display:none;">
	<g style="display:inline;">
		<path style="fill:#F5F5F5;" d="M437.847,94.603l-2.434-4.01c-20.516-33.808-57.609-54.188-96.717-51.715
			c-5.027,0.318-10.033,0.998-14.971,2.056c-35.557,7.611-66.497,34.5-79.321,68.937c-7.542,20.253-9.649,43.571-23.962,59.647
			c-18.627,20.922-50.251,21.579-78.055,20.712c-27.804-0.867-59.449-0.128-77.985,20.877
			c-11.609,13.154-15.299,31.861-14.362,49.478c2.478,46.641,34.979,88.345,76.311,109.074
			c41.332,20.729,89.996,22.586,135.232,13.467c63.37-12.774,123.634-47.855,159.857-102.038
			C457.662,226.903,466.83,153.084,437.847,94.603z"/>
	</g>
	<g style="display:inline;">
		
			<ellipse transform="matrix(0.1701 -0.9854 0.9854 0.1701 -74.7087 707.4697)" style="fill:#F5F5F5;" cx="382.68" cy="398.09" rx="27.094" ry="27.094"/>
	</g>
</g>
<g id="Floor">
	<g>
		<g>
			<path style="fill:#263238;" d="M463.143,467.857c0,0.144-95.435,0.26-213.133,0.26c-117.739,0-213.153-0.117-213.153-0.26
				c0-0.144,95.415-0.26,213.153-0.26C367.708,467.596,463.143,467.713,463.143,467.857z"/>
		</g>
	</g>
</g>
<g id="Screen">
	<g>
		<g>
			<rect x="54.681" y="65.604" style="fill:#E0E0E0;" width="390.852" height="25.038"/>
		</g>
		<g>
			<rect x="54.623" y="113.644" style="fill:#FFFFFF;" width="390.852" height="219.199"/>
		</g>
		<g>
			<polygon style="fill:#EBEBEB;" points="54.681,90.455 108.346,90.455 113.664,74.968 200.656,74.968 205.974,90.455 
				445.533,90.455 445.533,114.166 54.681,114.166 			"/>
		</g>
		<g>
			<path style="fill:#263238;" d="M67.58,75.587c0,1.622-1.315,2.937-2.937,2.937c-1.622,0-2.937-1.315-2.937-2.937
				c0-1.622,1.315-2.937,2.937-2.937C66.265,72.649,67.58,73.964,67.58,75.587z"/>
		</g>
		<g>
			<path style="fill:#263238;" d="M76.67,75.587c0,1.622-1.315,2.937-2.937,2.937c-1.622,0-2.937-1.315-2.937-2.937
				c0-1.622,1.315-2.937,2.937-2.937C75.355,72.649,76.67,73.964,76.67,75.587z"/>
		</g>
		<g>
			<path style="fill:#263238;" d="M85.761,75.587c0,1.622-1.315,2.937-2.937,2.937c-1.622,0-2.937-1.315-2.937-2.937
				c0-1.622,1.315-2.937,2.937-2.937C84.446,72.649,85.761,73.964,85.761,75.587z"/>
		</g>
		<g>
			<path style="fill:#FAFAFA;" d="M402.331,109.451H134.181c-4.11,0-7.442-3.332-7.442-7.442l0,0c0-4.11,3.332-7.442,7.442-7.442
				h268.151c4.11,0,7.442,3.332,7.442,7.442l0,0C409.773,106.12,406.442,109.451,402.331,109.451z"/>
		</g>
		<g>
			<path style="fill:#E0E0E0;" d="M140.599,103.001v2.514h-1.273v-2.318c0-0.71-0.327-1.037-0.89-1.037
				c-0.612,0-1.053,0.375-1.053,1.184v2.171h-1.273v-6.057h1.273v2.123c0.343-0.343,0.833-0.522,1.396-0.522
				C139.816,101.058,140.599,101.662,140.599,103.001z"/>
			<path style="fill:#E0E0E0;" d="M144.585,105.303c-0.261,0.188-0.645,0.278-1.037,0.278c-1.037,0-1.641-0.531-1.641-1.576v-1.804
				h-0.677v-0.979h0.677v-1.069h1.274v1.069h1.094v0.979h-1.094v1.788c0,0.375,0.204,0.58,0.547,0.58
				c0.188,0,0.376-0.057,0.514-0.164L144.585,105.303z"/>
			<path style="fill:#E0E0E0;" d="M148.039,105.303c-0.261,0.188-0.645,0.278-1.037,0.278c-1.037,0-1.641-0.531-1.641-1.576v-1.804
				h-0.677v-0.979h0.677v-1.069h1.274v1.069h1.094v0.979h-1.094v1.788c0,0.375,0.204,0.58,0.547,0.58
				c0.188,0,0.376-0.057,0.514-0.164L148.039,105.303z"/>
			<path style="fill:#E0E0E0;" d="M153.542,103.319c0,1.379-0.955,2.261-2.188,2.261c-0.547,0-0.996-0.171-1.322-0.531v2.049h-1.273
				v-5.976h1.216v0.506c0.318-0.384,0.792-0.571,1.379-0.571C152.587,101.058,153.542,101.939,153.542,103.319z M152.252,103.319
				c0-0.759-0.481-1.216-1.118-1.216s-1.119,0.457-1.119,1.216c0,0.759,0.482,1.216,1.119,1.216S152.252,104.078,152.252,103.319z"
				/>
			<path style="fill:#E0E0E0;" d="M154.082,101.849c0-0.473,0.351-0.784,0.792-0.784c0.441,0,0.792,0.311,0.792,0.784
				c0,0.465-0.351,0.8-0.792,0.8C154.433,102.65,154.082,102.315,154.082,101.849z M154.082,104.78c0-0.473,0.351-0.784,0.792-0.784
				c0.441,0,0.792,0.311,0.792,0.784c0,0.465-0.351,0.8-0.792,0.8C154.433,105.58,154.082,105.245,154.082,104.78z"/>
			<path style="fill:#E0E0E0;" d="M158.801,98.641h1.135l-2.694,7.69h-1.135L158.801,98.641z"/>
			<path style="fill:#E0E0E0;" d="M161.406,98.641h1.135l-2.694,7.69h-1.135L161.406,98.641z"/>
		</g>
		<g>
			<g>
				<path style="fill:#FAFAFA;" d="M402.089,153.063H168.463c-7.285,0-13.191-5.906-13.191-13.191l0,0
					c0-7.285,5.906-13.191,13.191-13.191h233.626c7.285,0,13.191,5.906,13.191,13.191l0,0
					C415.28,147.157,409.374,153.063,402.089,153.063z"/>
			</g>
			<g>
				<g>
					<path style="fill:#263238;" d="M402.089,153.063c-0.034-0.11,2.018,0.239,5.399-1.222c1.636-0.768,3.602-2.043,5.163-4.219
						c0.78-1.075,1.478-2.348,1.936-3.813c0.449-1.464,0.668-3.107,0.547-4.83c-0.118-1.72-0.59-3.519-1.484-5.214
						c-0.886-1.698-2.237-3.254-3.932-4.486c-1.686-1.25-3.79-2.066-6.042-2.356c-1.126-0.127-2.296-0.105-3.491-0.1
						c-1.193,0.002-2.407,0.003-3.643,0.005c-9.887,0.011-21.144,0.024-33.587,0.038c-49.782,0.02-118.538,0.047-194.478,0.076
						c-2.321,0.037-4.654,0.612-6.626,1.834c-2.002,1.168-3.624,2.915-4.747,4.917c-2.205,4.041-2.065,9.237,0.422,13.055
						c1.186,1.934,2.932,3.491,4.904,4.559c2.001,1.037,4.234,1.564,6.488,1.499c4.553,0.001,9.07,0.001,13.547,0.002
						c17.908,0.005,35.181,0.01,51.636,0.015c32.908,0.021,62.543,0.04,87.433,0.056c24.882,0.035,45.018,0.063,58.944,0.083
						c6.953,0.021,12.353,0.038,16.026,0.049c1.826,0.011,3.22,0.02,4.168,0.026C401.608,153.045,402.089,153.063,402.089,153.063
						s-0.481,0.018-1.42,0.027c-0.948,0.006-2.342,0.015-4.168,0.026c-3.672,0.011-9.073,0.028-16.026,0.049
						c-13.926,0.02-34.062,0.048-58.944,0.083c-24.89,0.016-54.525,0.035-87.433,0.056c-16.455,0.005-33.729,0.01-51.636,0.015
						c-4.477,0.001-8.993,0.002-13.547,0.002c-2.306,0.068-4.657-0.478-6.729-1.557c-2.052-1.109-3.866-2.729-5.101-4.739
						c-2.586-3.973-2.736-9.374-0.44-13.58c1.168-2.083,2.855-3.898,4.937-5.115c2.051-1.27,4.48-1.871,6.893-1.908
						c75.94,0.03,144.696,0.057,194.478,0.076c12.443,0.014,23.699,0.027,33.587,0.038c1.236,0.002,2.45,0.004,3.643,0.005
						c1.189-0.001,2.366-0.021,3.523,0.113c2.298,0.302,4.441,1.143,6.155,2.423c1.723,1.262,3.091,2.851,3.986,4.582
						c0.903,1.728,1.375,3.559,1.487,5.306c0.115,1.749-0.115,3.415-0.578,4.897c-0.472,1.483-1.186,2.768-1.982,3.851
						c-1.593,2.192-3.588,3.464-5.244,4.223c-1.685,0.753-3.094,0.953-4.021,1.074C402.57,153.063,402.089,153.063,402.089,153.063z
						"/>
				</g>
			</g>
		</g>
		<g>
			<path style="fill:#E0E0E0;" d="M173.816,142.681l0.498-1.105c0.535,0.39,1.332,0.662,2.094,0.662c0.87,0,1.224-0.29,1.224-0.68
				c0-1.187-3.689-0.372-3.689-2.728c0-1.079,0.87-1.976,2.674-1.976c0.797,0,1.613,0.19,2.202,0.562l-0.453,1.115
				c-0.589-0.336-1.196-0.499-1.758-0.499c-0.87,0-1.206,0.326-1.206,0.725c0,1.169,3.689,0.362,3.689,2.692
				c0,1.06-0.879,1.967-2.692,1.967C175.393,143.415,174.378,143.116,173.816,142.681z"/>
			<path style="fill:#E0E0E0;" d="M184.75,141.267h-3.689c0.136,0.607,0.653,0.979,1.396,0.979c0.517,0,0.888-0.154,1.224-0.471
				l0.753,0.816c-0.454,0.517-1.133,0.788-2.012,0.788c-1.686,0-2.783-1.06-2.783-2.51c0-1.46,1.115-2.511,2.601-2.511
				c1.432,0,2.538,0.961,2.538,2.529C184.777,140.995,184.759,141.149,184.75,141.267z M181.043,140.442h2.402
				c-0.1-0.616-0.562-1.015-1.196-1.015C181.605,139.427,181.142,139.817,181.043,140.442z"/>
			<path style="fill:#E0E0E0;" d="M189.901,140.524v2.783h-1.323v-0.607c-0.263,0.444-0.77,0.68-1.486,0.68
				c-1.142,0-1.822-0.634-1.822-1.477c0-0.861,0.607-1.46,2.094-1.46h1.124c0-0.607-0.362-0.96-1.124-0.96
				c-0.517,0-1.051,0.172-1.405,0.453l-0.508-0.988c0.535-0.38,1.323-0.589,2.103-0.589
				C189.04,138.358,189.901,139.047,189.901,140.524z M188.487,141.765v-0.498h-0.97c-0.662,0-0.87,0.245-0.87,0.571
				c0,0.354,0.299,0.589,0.798,0.589C187.916,142.427,188.324,142.21,188.487,141.765z"/>
			<path style="fill:#E0E0E0;" d="M194.209,138.358v1.305c-0.118-0.009-0.208-0.018-0.317-0.018c-0.78,0-1.296,0.426-1.296,1.359
				v2.302h-1.413v-4.877h1.35v0.644C192.877,138.602,193.457,138.358,194.209,138.358z"/>
			<path style="fill:#E0E0E0;" d="M194.647,140.868c0-1.468,1.133-2.511,2.719-2.511c1.024,0,1.831,0.444,2.184,1.242l-1.097,0.589
				c-0.263-0.462-0.652-0.67-1.097-0.67c-0.716,0-1.278,0.499-1.278,1.351c0,0.852,0.562,1.35,1.278,1.35
				c0.444,0,0.834-0.199,1.097-0.67l1.097,0.598c-0.354,0.779-1.16,1.232-2.184,1.232
				C195.779,143.379,194.647,142.337,194.647,140.868z"/>
			<path style="fill:#E0E0E0;" d="M205.317,140.515v2.792h-1.414v-2.574c0-0.788-0.362-1.151-0.988-1.151
				c-0.68,0-1.169,0.417-1.169,1.314v2.411h-1.414v-6.725h1.414v2.356c0.381-0.381,0.925-0.58,1.55-0.58
				C204.447,138.358,205.317,139.028,205.317,140.515z"/>
			<path style="fill:#E0E0E0;" d="M208.82,142.49c0-0.525,0.39-0.87,0.879-0.87c0.489,0,0.879,0.345,0.879,0.87
				c0,0.517-0.39,0.888-0.879,0.888C209.21,143.379,208.82,143.007,208.82,142.49z"/>
			<path style="fill:#E0E0E0;" d="M211.196,142.49c0-0.525,0.39-0.87,0.879-0.87c0.489,0,0.879,0.345,0.879,0.87
				c0,0.517-0.39,0.888-0.879,0.888C211.586,143.379,211.196,143.007,211.196,142.49z"/>
			<path style="fill:#E0E0E0;" d="M213.572,142.49c0-0.525,0.39-0.87,0.879-0.87c0.489,0,0.879,0.345,0.879,0.87
				c0,0.517-0.39,0.888-0.879,0.888C213.962,143.379,213.572,143.007,213.572,142.49z"/>
		</g>
		<g>
			<g>
				<path d="M128.069,176.024c0,0.144-9.377,0.26-20.941,0.26c-11.568,0-20.943-0.117-20.943-0.26c0-0.144,9.375-0.26,20.943-0.26
					C118.693,175.763,128.069,175.88,128.069,176.024z"/>
			</g>
		</g>
		<g>
			<rect x="86.186" y="187.99" style="fill:#FF725E;" width="43.518" height="43.518"/>
		</g>
		<g>
			<g>
				<path d="M394.155,198.248c0,0.144-54.02,0.26-120.643,0.26c-66.645,0-120.654-0.117-120.654-0.26s54.009-0.26,120.654-0.26
					C340.134,197.987,394.155,198.104,394.155,198.248z"/>
			</g>
		</g>
		<g>
			<g>
				<path d="M218.855,214.633c0,0.144-14.235,0.26-31.79,0.26c-17.561,0-31.793-0.117-31.793-0.26c0-0.144,14.232-0.26,31.793-0.26
					C204.62,214.372,218.855,214.489,218.855,214.633z"/>
			</g>
		</g>
		<g>
			<g>
				<path style="fill:#E0E0E0;" d="M355.586,229.825c0,0.144-44.845,0.26-100.152,0.26c-55.326,0-100.162-0.117-100.162-0.26
					s44.836-0.26,100.162-0.26C310.741,229.565,355.586,229.681,355.586,229.825z"/>
			</g>
		</g>
		<g>
			<g>
				<path d="M128.069,253.97c0,0.144-9.377,0.26-20.941,0.26c-11.568,0-20.943-0.117-20.943-0.26c0-0.144,9.375-0.26,20.943-0.26
					C118.693,253.71,128.069,253.826,128.069,253.97z"/>
			</g>
		</g>
		<g>
			<rect x="86.186" y="265.937" style="fill:#FF725E;" width="43.518" height="43.518"/>
		</g>
		<g>
			<g>
				<path d="M408.491,276.194c0,0.144-57.23,0.26-127.81,0.26c-70.605,0-127.822-0.117-127.822-0.26s57.218-0.26,127.822-0.26
					C351.261,275.934,408.491,276.05,408.491,276.194z"/>
			</g>
		</g>
		<g>
			<g>
				<path d="M218.855,292.579c0,0.144-14.235,0.26-31.79,0.26c-17.561,0-31.793-0.116-31.793-0.26c0-0.144,14.232-0.26,31.793-0.26
					C204.62,292.319,218.855,292.435,218.855,292.579z"/>
			</g>
		</g>
		<g>
			<g>
				<path style="fill:#E0E0E0;" d="M390.473,307.771c0,0.144-52.656,0.26-117.595,0.26c-64.961,0-117.606-0.116-117.606-0.26
					c0-0.144,52.644-0.26,117.606-0.26C337.817,307.511,390.473,307.628,390.473,307.771z"/>
			</g>
		</g>
		<g>
			<g>
				<path style="fill:#263238;" d="M445.533,333.366c-0.001-1.714-0.082-104.793-0.209-267.762l0.209,0.209
					c-108.187,0.014-243.889,0.032-390.821,0.051h-0.031l0.26-0.26c-0.008,95.574-0.016,186.386-0.023,267.761l-0.238-0.238
					C285.232,333.268,443.413,333.364,445.533,333.366c-2.119,0.001-160.302,0.098-390.852,0.238l-0.238,0v-0.238
					c-0.007-81.375-0.014-172.187-0.022-267.761v-0.26h0.261h0.031c146.931,0.019,282.634,0.037,390.821,0.051h0.21l0,0.209
					C445.615,228.573,445.535,331.652,445.533,333.366z"/>
			</g>
		</g>
		<g>
			<g>
				<path d="M190.104,85.004c0,0.144-13.8,0.26-30.82,0.26c-17.026,0-30.823-0.117-30.823-0.26s13.798-0.26,30.823-0.26
					C176.304,84.743,190.104,84.86,190.104,85.004z"/>
			</g>
		</g>
		<g>
			<rect x="79.757" y="134.224" style="fill:#455A64;" width="54.742" height="16.49"/>
		</g>
		<g>
			<g>
				<path style="fill:#FF725E;" d="M231.431,177.413c0,0.144-17.022,0.26-38.014,0.26c-21,0-38.018-0.117-38.018-0.26
					s17.018-0.26,38.018-0.26C214.409,177.153,231.431,177.269,231.431,177.413z"/>
			</g>
		</g>
		<g>
			<g>
				<path style="fill:#FF725E;" d="M231.431,253.97c0,0.144-17.022,0.26-38.014,0.26c-21,0-38.018-0.117-38.018-0.26
					c0-0.144,17.018-0.26,38.018-0.26C214.409,253.71,231.431,253.826,231.431,253.97z"/>
			</g>
		</g>
		<g>
			<g>
				<path style="fill:#FF725E;" d="M397.06,144.261c-3.504,0-6.354-2.851-6.354-6.354c0-3.504,2.851-6.355,6.354-6.355
					s6.355,2.851,6.355,6.355C403.415,141.411,400.564,144.261,397.06,144.261z M397.06,132.553c-2.952,0-5.354,2.402-5.354,5.355
					c0,2.952,2.402,5.354,5.354,5.354c2.952,0,5.355-2.402,5.355-5.354C402.415,134.954,400.012,132.553,397.06,132.553z"/>
			</g>
			<g>
				<path style="fill:#FF725E;" d="M404.866,147.08c-0.127,0-0.255-0.048-0.353-0.145l-4.141-4.111
					c-0.195-0.195-0.197-0.511-0.002-0.708c0.194-0.195,0.511-0.197,0.707-0.002l4.141,4.111c0.195,0.195,0.197,0.511,0.002,0.708
					C405.123,147.031,404.995,147.08,404.866,147.08z"/>
			</g>
		</g>
		<g>
			<g>
				<path d="M299.881,213.507c0,0.144-16.376,0.26-36.572,0.26c-20.203,0-36.576-0.117-36.576-0.26s16.373-0.26,36.576-0.26
					C283.505,213.247,299.881,213.364,299.881,213.507z"/>
			</g>
		</g>
		<g>
			<g>
				<path d="M347.146,212.382c0,0.144-8.566,0.26-19.13,0.26c-10.568,0-19.132-0.117-19.132-0.26s8.564-0.26,19.132-0.26
					C338.58,212.122,347.146,212.238,347.146,212.382z"/>
			</g>
		</g>
		<g>
			<g>
				<path d="M299.535,292.579c0,0.144-16.376,0.26-36.572,0.26c-20.203,0-36.576-0.116-36.576-0.26c0-0.144,16.373-0.26,36.576-0.26
					C283.158,292.319,299.535,292.435,299.535,292.579z"/>
			</g>
		</g>
	</g>
</g>
<g id="Plant">
	<g>
		<g>
			<path style="fill:#455A64;" d="M103.216,313.16c-8.113,4.203-14.334,11.438-18.808,19.405
				c-4.473,7.967-7.356,16.709-10.212,25.388l-2.499,44.762c9.44-16.06,17.017-34.939,19.064-53.456
				c-2.094-0.186-4.188-0.373-6.282-0.56c4.212-0.643,7.748-3.695,9.997-7.314c2.25-3.619,3.408-7.792,4.538-11.9
				c-2.555,0.38-5.11,0.76-7.665,1.139C97.352,326.62,101.703,320.216,103.216,313.16z"/>
		</g>
		<g style="opacity:0.3;">
			<g>
				<path d="M103.216,313.16c-8.113,4.203-14.334,11.438-18.808,19.405c-4.473,7.967-7.356,16.709-10.212,25.388l-2.499,44.762
					c9.44-16.06,17.017-34.939,19.064-53.456c-2.094-0.186-4.188-0.373-6.282-0.56c4.212-0.643,7.748-3.695,9.997-7.314
					c2.25-3.619,3.408-7.792,4.538-11.9c-2.555,0.38-5.11,0.76-7.665,1.139C97.352,326.62,101.703,320.216,103.216,313.16z"/>
			</g>
		</g>
		<g>
			<path style="fill:#455A64;" d="M70.299,413.203c0,0-20.49-24.525-20.254-47.938h8.277c0,0-8.991-5.912-8.279-9.223
				c0.711-3.311,0.948-15.845,0.948-15.845l7.568,1.892c0,0-5.676-2.838-6.385-7.331c-0.709-4.493,1.655-25.304,1.655-25.304
				s9.223,9.696,12.061,19.629c2.838,9.933,10.287,21.52,8.1,51.791C71.803,411.145,70.299,413.203,70.299,413.203z"/>
		</g>
		<g>
			<path style="fill:#455A64;" d="M80.687,415.518c0,0,22.199-14.788,27.131-33.663l-6.655-1.811c0,0,8.522-2.786,8.674-5.604
				s2.704-12.946,2.704-12.946l-6.498-0.135c0,0,5.184-1.04,6.738-4.497c1.553-3.457,4.205-20.706,4.205-20.706
				s-9.536,5.777-13.991,13.142c-4.455,7.365-12.979,15.051-17.843,39.867C80.289,413.981,80.687,415.518,80.687,415.518z"/>
		</g>
		<g>
			<g>
				<path style="fill:#263238;" d="M59.427,330.837c0.009-0.002,0.036,0.084,0.08,0.253c0.049,0.199,0.11,0.447,0.185,0.753
					c0.16,0.704,0.382,1.676,0.663,2.908c0.573,2.526,1.331,6.197,2.199,10.746c1.749,9.096,3.814,21.732,5.443,35.773
					c1.618,14.047,2.49,26.823,2.863,36.078c0.192,4.627,0.292,8.374,0.31,10.964c0.008,1.263,0.014,2.26,0.018,2.982
					c-0.004,0.316-0.006,0.57-0.008,0.776c-0.005,0.175-0.012,0.264-0.021,0.264c-0.009,0-0.02-0.089-0.033-0.264
					c-0.011-0.205-0.026-0.459-0.043-0.775c-0.028-0.721-0.067-1.717-0.116-2.979c-0.081-2.587-0.237-6.33-0.475-10.951
					c-0.467-9.244-1.396-22.002-3.012-36.035c-1.628-14.027-3.634-26.66-5.288-35.766c-0.822-4.554-1.524-8.234-2.036-10.771
					c-0.24-1.24-0.43-2.218-0.567-2.927c-0.055-0.311-0.099-0.562-0.135-0.764C59.428,330.929,59.418,330.839,59.427,330.837z"/>
			</g>
		</g>
		<g>
			<path style="fill:#455A64;" d="M67.457,428.222c0,0-18.751-21.276-24.573-34.137l4.395-1.878c-3.186,0.526-6.45-0.844-8.92-2.923
				c-2.47-2.079-4.284-4.814-6.063-7.509l5.79-0.978c-5.265-1.478-9.904-5.071-12.651-9.8c6.833,1.124,13.014,4.877,18.108,9.567
				c4.125,3.799,7.618,8.208,10.973,12.714c1.636,2.198,3.068,4.539,4.261,7.006C61.927,406.798,67.468,420.408,67.457,428.222z"/>
		</g>
		<g>
			<g>
				<path style="fill:#263238;" d="M108.113,348.54c0.008,0.004-0.019,0.078-0.08,0.22c-0.076,0.168-0.169,0.372-0.282,0.621
					c-0.277,0.581-0.654,1.37-1.13,2.366c-0.998,2.046-2.415,5.02-4.132,8.71c-3.439,7.376-7.975,17.669-12.458,29.25
					c-4.475,11.588-8.043,22.256-10.461,30.027c-1.211,3.885-2.164,7.039-2.801,9.224c-0.318,1.057-0.57,1.894-0.756,2.51
					c-0.084,0.26-0.152,0.473-0.209,0.649c-0.05,0.146-0.08,0.219-0.089,0.217c-0.009-0.002,0.004-0.081,0.037-0.231
					c0.043-0.18,0.096-0.397,0.16-0.663c0.162-0.623,0.383-1.47,0.662-2.538c0.578-2.203,1.477-5.374,2.644-9.276
					c2.33-7.805,5.847-18.506,10.328-30.108c4.489-11.594,9.084-21.877,12.611-29.219c1.762-3.672,3.23-6.624,4.284-8.643
					c0.512-0.978,0.919-1.753,1.218-2.323c0.132-0.24,0.239-0.436,0.328-0.598C108.062,348.602,108.105,348.536,108.113,348.54z"/>
			</g>
		</g>
		<g>
			<g>
				<path style="fill:#263238;" d="M69.048,437.339c-0.036,0.004-0.141-0.537-0.3-1.517c-0.151-0.981-0.402-2.395-0.751-4.132
					c-0.693-3.475-1.905-8.231-3.809-13.292c-1.916-5.058-4.15-9.428-5.927-12.495c-0.886-1.535-1.632-2.762-2.167-3.598
					c-0.528-0.84-0.807-1.315-0.777-1.336c0.029-0.021,0.364,0.416,0.946,1.224c0.588,0.803,1.384,2.005,2.315,3.522
					c1.866,3.031,4.169,7.407,6.097,12.499c1.917,5.094,3.08,9.899,3.684,13.407c0.304,1.754,0.501,3.182,0.59,4.174
					C69.047,436.786,69.084,437.335,69.048,437.339z"/>
			</g>
		</g>
		<g>
			<rect x="52.751" y="432.334" style="fill:#FF725E;" width="41.039" height="8.372"/>
		</g>
		<g>
			<polygon style="fill:#FF725E;" points="56.661,440.706 61.101,468.864 85.899,468.864 90.037,440.706 			"/>
		</g>
		<g>
			<g>
				<path style="fill:#263238;" d="M91.273,440.706c0,0.144-7.763,0.26-17.338,0.26c-9.578,0-17.34-0.116-17.34-0.26
					c0-0.144,7.762-0.26,17.34-0.26C83.509,440.445,91.273,440.562,91.273,440.706z"/>
			</g>
		</g>
	</g>
</g>
<g id="Character">
	<g>
		<g>
			<g>
				<g>
					<g>
						<g>
							<g>
								<g>
									<g>
										<g>
											<g>
												<g>
													<g>
														<g>
															<path style="fill:#455A64;" d="M270.02,448.086v20.769l41.88-0.203c-0.304-4.211-23.289-12.614-23.289-12.614
																l0.457-7.952H270.02z"/>
														</g>
													</g>
												</g>
											</g>
										</g>
									</g>
								</g>
							</g>
						</g>
					</g>
					<g style="opacity:0.6;">
						<g>
							<g>
								<g>
									<g>
										<g>
											<g>
												<g>
													<g>
														<g>
															<g>
																<path style="fill:#FFFFFF;" d="M276.794,454.158c-0.803,0.246-1.346,1.214-1.147,2.075
																	c0.2,0.86,1.125,1.455,1.932,1.224c0.807-0.231,1.493-1.372,1.204-2.203c-0.289-0.831-1.412-1.466-2.143-1.037"/>
															</g>
														</g>
													</g>
												</g>
											</g>
										</g>
									</g>
								</g>
							</g>
						</g>
					</g>
					<g>
						<g>
							<g>
								<g>
									<g>
										<g>
											<g>
												<g>
													<g>
														<g>
															<path style="fill:#263238;" d="M270.02,468.855v-3.317l39.985,0.473c0,0,2.085,1.255,1.895,2.642L270.02,468.855z"/>
														</g>
													</g>
												</g>
											</g>
										</g>
									</g>
								</g>
							</g>
						</g>
					</g>
					<g>
						<g>
							<g>
								<g>
									<g>
										<g>
											<g>
												<g>
													<g>
														<g>
															<g>
																<path style="fill:#263238;" d="M288.61,456.439c-0.003,0.216-1.019,0.329-2.01,1.037
																	c-1.009,0.681-1.511,1.621-1.699,1.539c-0.188-0.039,0.097-1.332,1.311-2.167
																	C287.418,456.003,288.652,456.241,288.61,456.439z"/>
															</g>
														</g>
													</g>
												</g>
											</g>
										</g>
									</g>
								</g>
							</g>
						</g>
					</g>
					<g>
						<g>
							<g>
								<g>
									<g>
										<g>
											<g>
												<g>
													<g>
														<g>
															<g>
																<path style="fill:#263238;" d="M294.097,458.361c0.049,0.208-0.827,0.588-1.504,1.51
																	c-0.704,0.9-0.864,1.889-1.067,1.882c-0.191,0.037-0.349-1.223,0.514-2.352
																	C292.895,458.264,294.09,458.156,294.097,458.361z"/>
															</g>
														</g>
													</g>
												</g>
											</g>
										</g>
									</g>
								</g>
							</g>
						</g>
					</g>
					<g>
						<g>
							<g>
								<g>
									<g>
										<g>
											<g>
												<g>
													<g>
														<g>
															<g>
																<path style="fill:#263238;" d="M296.566,463.654c-0.184,0.049-0.483-1.024,0.023-2.211
																	c0.498-1.192,1.45-1.672,1.539-1.494c0.117,0.176-0.491,0.818-0.892,1.8
																	C296.813,462.72,296.767,463.63,296.566,463.654z"/>
															</g>
														</g>
													</g>
												</g>
											</g>
										</g>
									</g>
								</g>
							</g>
						</g>
					</g>
					<g>
						<g>
							<g>
								<g>
									<g>
										<g>
											<g>
												<g>
													<g>
														<g>
															<g>
																<path style="fill:#263238;" d="M288.204,450.534c-0.082,0.198-1.02-0.086-2.169,0.014
																	c-1.151,0.076-2.04,0.498-2.148,0.315c-0.12-0.154,0.742-0.965,2.097-1.063
																	C287.337,449.691,288.301,450.363,288.204,450.534z"/>
															</g>
														</g>
													</g>
												</g>
											</g>
										</g>
									</g>
								</g>
							</g>
						</g>
					</g>
				</g>
			</g>
		</g>
		<g>
			<g>
				<g>
					<g>
						<path style="fill:#263238;" d="M288.436,457.369c0.031,0.005,0.137-0.443,0.09-1.269c-0.06-0.814-0.309-2.032-1.109-3.274
							c-0.404-0.612-0.934-1.225-1.638-1.724c-0.34-0.238-0.871-0.5-1.414-0.248c-0.509,0.244-0.796,0.813-0.825,1.368
							c0.053,2.137,1.588,4.109,3.68,4.859c2.146,0.751,4.415-0.176,5.657-1.68c0.304-0.383,0.598-0.772,0.751-1.282
							c0.071-0.249,0.105-0.544,0.006-0.831c-0.095-0.282-0.319-0.507-0.569-0.601c-0.506-0.173-0.935-0.021-1.305,0.129
							c-0.364,0.175-0.676,0.355-0.975,0.555c-1.188,0.791-1.946,1.706-2.394,2.37c-0.45,0.669-0.606,1.096-0.577,1.112
							c0.094,0.096,0.867-1.64,3.189-3.099c0.56-0.321,1.295-0.783,1.887-0.577c0.26,0.107,0.363,0.412,0.239,0.776
							c-0.11,0.358-0.378,0.721-0.658,1.058c-1.133,1.329-3.183,2.136-5.064,1.469c-1.858-0.625-3.26-2.514-3.316-4.221
							c0.01-0.395,0.214-0.758,0.493-0.899c0.268-0.143,0.62-0.023,0.933,0.185c0.643,0.431,1.162,0.987,1.559,1.542
							c0.792,1.13,1.095,2.266,1.221,3.043C288.411,456.915,288.386,457.366,288.436,457.369z"/>
					</g>
				</g>
			</g>
		</g>
		<g>
			<g>
				<g>
					<g>
						<g>
							<g>
								<g>
									<polygon style="fill:#455A64;" points="254.714,451.094 255.424,456.436 254.95,468.491 239.248,468.874 238.689,456.436 
										240.475,449.049 									"/>
								</g>
							</g>
						</g>
					</g>
				</g>
			</g>
		</g>
		<g>
			<g>
				<g>
					<g>
						<g>
							<g>
								<g>
									<g>
										<path style="fill:#263238;" d="M247.187,467.583c-0.096,0.005,0.131-3.682,0.505-8.235
											c0.374-4.554,0.755-8.248,0.85-8.253c0.095-0.005-0.131,3.682-0.505,8.236
											C247.663,463.883,247.282,467.578,247.187,467.583z"/>
									</g>
								</g>
							</g>
						</g>
					</g>
				</g>
			</g>
		</g>
		<g>
			<g>
				<g>
					<g>
						<g>
							<g>
								<g>
									<polygon style="fill:#263238;" points="255.012,466.484 239.149,466.668 239.149,468.874 255.023,468.855 									"/>
								</g>
							</g>
						</g>
					</g>
				</g>
			</g>
		</g>
		<g>
			<g>
				<g>
					<g>
						<g>
							<g>
								<g>
									<g>
										<path style="fill:#263238;" d="M239.188,459.554c-0.024-0.018,0.111-0.25,0.402-0.636c0.291-0.386,0.753-0.917,1.4-1.497
											c0.647-0.578,1.487-1.206,2.536-1.702c1.039-0.505,2.306-0.861,3.66-0.848c2.716,0.004,5,1.333,6.125,2.659
											c0.584,0.654,0.944,1.269,1.15,1.708c0.202,0.442,0.277,0.7,0.25,0.711c-0.086,0.048-0.465-0.981-1.644-2.187
											c-1.142-1.211-3.309-2.408-5.886-2.415c-2.569-0.014-4.686,1.284-5.972,2.332
											C239.893,458.748,239.254,459.608,239.188,459.554z"/>
									</g>
								</g>
							</g>
						</g>
					</g>
				</g>
			</g>
		</g>
		<g>
			<g>
				<g>
					<g>
						<g>
							<g>
								<g>
									<path style="fill:#B78876;" d="M247.119,114.736l-0.166,54.286l23.29,1.111l0.673-13.204c0,0,8.272,1.643,10.406-6.04
										c1.364-4.908,1.023-42.834,1.023-42.834L247.119,114.736z"/>
								</g>
							</g>
						</g>
					</g>
				</g>
			</g>
			<g>
				<g>
					<g>
						<g>
							<g>
								<g>
									<path style="fill:#263238;" d="M285.41,111.877c-3.668,1.05-4.465,7.046-4.465,7.046l-5.754,12.709
										c-2.931-2.295-6.867-2.163-7.612,2.988c-0.538,3.722,4.09,4.475,4.09,4.475c-2.694,4.585-4.522,8.293-8.444,12.654
										c-4.245,4.72-6.624,5.195-11.228,5.272h-5.077c0,0-2.485-8.067-7.087-28.242c-5.106-22.382,21.361-19.499,26.268-25.212
										C274.09,94.261,296.974,108.567,285.41,111.877z"/>
								</g>
							</g>
						</g>
					</g>
				</g>
			</g>
			<g>
				<path style="fill:#263238;" d="M291.874,107.015c-0.379-2.383-2.662-4.377-5.071-4.225c0.863-1.21,0.451-3.029-0.659-4.017
					c-1.11-0.989-2.724-1.245-4.193-1.023c-1.47,0.222-2.837,0.867-4.18,1.504c-0.241-1.136-1.678-3.017-2.699-3.572
					c-2.048-1.114-3.332-1.114-4.493-1.114c-7.146-0.001-10.914,4.897-14.748,9.882c-0.658,0.856-1.31,1.811-2.318,2.199
					c-0.679,0.262-1.43,0.228-2.158,0.242c-5.443,0.106-10.711,3.382-13.214,8.217c-2.503,4.835-4.37,16.026,2.104,22.963
					l3.904,8.713l37.332-29.58c0.265,0.138,2.605,1.279,4.406,0.332c4.47-2.353,2.595-6.277,2.595-6.277
					C288.838,111.074,292.253,109.398,291.874,107.015z"/>
			</g>
			<g>
				<g>
					<g>
						<g>
							<path style="fill:#455A64;" d="M257.32,136.108c0.151-0.016,0.381,1.868-0.133,4.122c-0.501,2.258-1.517,3.86-1.646,3.781
								c-0.156-0.078,0.591-1.741,1.071-3.911C257.107,137.935,257.146,136.112,257.32,136.108z"/>
						</g>
					</g>
				</g>
			</g>
			<g>
				<g>
					<g>
						<g>
							<path style="fill:#455A64;" d="M260.136,133.444c0.157,0.007,0.191,1.802-0.216,3.968c-0.401,2.168-1.08,3.83-1.229,3.78
								c-0.161-0.051,0.257-1.762,0.649-3.888C259.74,135.18,259.968,133.434,260.136,133.444z"/>
						</g>
					</g>
				</g>
			</g>
			<g>
				<g>
					<g>
						<g>
							<path style="fill:#455A64;" d="M268.203,124.485c0.056,0.078-0.604,0.559-1.441,1.54c-0.845,0.971-1.806,2.49-2.51,4.332
								c-0.705,1.843-1.092,3.609-1.391,4.882c-0.293,1.277-0.494,2.068-0.577,2.053c-0.078-0.013-0.022-0.826,0.167-2.13
								c0.197-1.3,0.523-3.111,1.251-5.017c0.727-1.906,1.795-3.467,2.754-4.403C267.41,124.793,268.17,124.427,268.203,124.485z"/>
						</g>
					</g>
				</g>
			</g>
			<g>
				<g>
					<g>
						<g>
							<path style="fill:#455A64;" d="M271.464,118.385c0.068-0.019,0.307,0.525,0.452,1.469c0.148,0.939,0.152,2.285-0.202,3.706
								c-0.359,1.421-0.997,2.605-1.57,3.364c-0.573,0.764-1.04,1.131-1.091,1.082c-0.146-0.112,1.43-1.864,2.089-4.59
								C271.846,120.704,271.284,118.415,271.464,118.385z"/>
						</g>
					</g>
				</g>
			</g>
			<g>
				<g>
					<g>
						<g>
							<path style="fill:#455A64;" d="M243.668,131.943c-0.079,0.142-0.793-0.105-1.593-0.552c-0.8-0.447-1.385-0.925-1.305-1.067
								c0.079-0.142,0.792,0.105,1.593,0.552C243.163,131.323,243.748,131.801,243.668,131.943z"/>
						</g>
					</g>
				</g>
			</g>
			<g>
				<g>
					<g>
						<g>
							<path style="fill:#455A64;" d="M254.92,126.147c0.154,0.022,0.059,1.173-0.665,2.361c-0.716,1.194-1.69,1.814-1.781,1.688
								c-0.111-0.13,0.621-0.896,1.276-1.993C254.417,127.114,254.754,126.11,254.92,126.147z"/>
						</g>
					</g>
				</g>
			</g>
			<g>
				<g>
					<g>
						<g>
							<path style="fill:#455A64;" d="M258.38,124.289c0.15,0.033-0.094,1.412-1.036,2.822c-0.933,1.417-2.108,2.177-2.198,2.052
								c-0.11-0.132,0.832-1.047,1.706-2.378C257.739,125.463,258.216,124.239,258.38,124.289z"/>
						</g>
					</g>
				</g>
			</g>
			<g>
				<g>
					<g>
						<g>
							<path style="fill:#455A64;" d="M275.578,101.554c-0.041,0.047-0.437-0.332-1.277-0.81c-0.84-0.462-2.182-0.966-3.902-1.009
								c-1.704-0.053-3.796,0.353-5.725,1.538c-1.93,1.184-3.637,3.113-4.876,5.432c-0.903,1.685-1.528,3.44-1.979,5.09
								l-0.093,0.341l-0.313-0.164c-1.729-0.908-3.561-1.307-5.196-1.329c-1.642-0.045-3.087,0.256-4.23,0.639
								c-2.302,0.786-3.394,1.821-3.453,1.727c-0.018-0.021,0.241-0.28,0.779-0.69c0.542-0.403,1.391-0.926,2.555-1.372
								c1.161-0.441,2.647-0.798,4.355-0.788c1.701-0.013,3.624,0.372,5.456,1.314l-0.406,0.177
								c0.444-1.687,1.075-3.487,2.006-5.225c1.279-2.392,3.068-4.397,5.115-5.617c2.051-1.223,4.247-1.599,6.024-1.49
								c1.794,0.099,3.172,0.691,4.002,1.229c0.409,0.286,0.716,0.517,0.895,0.71C275.501,101.438,275.592,101.539,275.578,101.554z
								"/>
						</g>
					</g>
				</g>
			</g>
			<g>
				<g>
					<g>
						<g>
							<path style="fill:#455A64;" d="M287.825,104.508c-0.042-0.011,0.648-0.174,1.336,0.606c0.315,0.376,0.604,0.968,0.536,1.7
								c-0.071,0.73-0.575,1.483-1.354,1.934c-0.766,0.469-1.815,0.626-2.829,0.389c-1.02-0.222-2.001-0.763-2.919-1.415
								c-0.926-0.647-1.815-1.4-2.855-1.956c-1.038-0.564-2.207-0.975-3.441-1.21c-2.479-0.462-4.942-0.183-7.022,0.481
								c-2.092,0.671-3.829,1.678-5.191,2.638c-2.719,1.955-4.06,3.591-4.143,3.507c-0.027-0.024,0.284-0.446,0.921-1.147
								c0.644-0.693,1.616-1.672,2.977-2.696c1.356-1.021,3.115-2.095,5.268-2.818c2.146-0.717,4.705-1.027,7.299-0.544
								c1.292,0.246,2.52,0.682,3.61,1.283c1.101,0.6,2.001,1.381,2.892,2.02c0.885,0.647,1.792,1.16,2.713,1.381
								c0.917,0.232,1.82,0.116,2.513-0.274c0.696-0.372,1.147-1.009,1.234-1.613c0.088-0.613-0.132-1.162-0.389-1.517
								C288.428,104.515,287.795,104.574,287.825,104.508z"/>
						</g>
					</g>
				</g>
			</g>
		</g>
		<g>
			<path style="fill:#B78876;" d="M396.331,146.159c-0.879-0.781-12.739,4.195-12.739,4.195s-8.849,6.941-12.492,11.042l-2.25,1.871
				l-33.657,26.174l-41.401-17.223l-8.982,23.097c0,0,46.478,18.502,53.559,15.334c7.696-3.443,36.345-33.427,36.412-33.53
				c0,0,0.001-0.001,0.001-0.001l4.137-3.986c0,0,2.189-0.043,3.848-0.141c1.659-0.098,6.519-3.327,6.519-3.327
				s0.702-1.263,0.942-2.831c0.24-1.568-0.899-2.056-0.899-2.056s0.273-1.015,0.084-2.336c-0.189-1.321-1.954-2.854-1.954-2.854
				s0.697-0.569,1.106-2.091c0.409-1.523-1.563-2.96-1.563-2.96s6.883-4.681,8.555-5.502
				C397.229,148.215,397.21,146.939,396.331,146.159z"/>
		</g>
		<g>
			<g>
				<path style="fill:#263238;" d="M299.88,382.692c0.138-1.52,0.214-2.688,0.214-3.42l4.675-74.634c0,0-3.93-21.795-5.788-27.579
					l-16.713-6.469l-22.263,8.672c-0.148-1.797-0.238-2.899-0.238-2.899l-32.794,11.335c0,0-0.849,22.372,0,29.182
					c0.272,2.187,1.131,7.839,2.17,14.498h0c0,0,1.056,14.472,1.273,15.28c0.795,2.95,0.979,10.176,0.979,17.417
					c0,9.202,0.5,20.151,1.074,25.357c0.574,5.205,0.853,62.439,0.853,62.439h24.197l3.107-91.166
					c0.521-9.77,1.304-24.71,1.806-35.518l5.683,33.661c0,1.234,3.458,20.479,3.458,20.479s-1.266,9.029-1.483,18.261
					c-0.399,16.967-2.394,54.283-2.394,54.283h23.687l0,0C291.383,451.872,298.496,397.985,299.88,382.692L299.88,382.692
					L299.88,382.692z"/>
			</g>
			<g>
				<path style="fill:#455A64;" d="M303.957,300.166c-0.031,0.054-0.89-0.344-2.183-1.164c-1.292-0.817-2.997-2.085-4.68-3.71
					c-1.68-1.629-3.004-3.292-3.863-4.556c-0.861-1.265-1.288-2.111-1.235-2.143c0.067-0.042,0.601,0.733,1.527,1.93
					c0.925,1.197,2.271,2.797,3.926,4.402c1.658,1.6,3.301,2.893,4.527,3.778C303.204,299.59,303.996,300.098,303.957,300.166z"/>
			</g>
			<g>
				<path style="fill:#455A64;" d="M261.72,313.729c-0.032,0.016-0.195-0.249-0.464-0.744c-0.274-0.492-0.625-1.228-1.019-2.155
					c-0.789-1.852-1.671-4.513-2.204-7.548c-0.526-3.038-0.596-5.84-0.479-7.85c0.056-1.005,0.138-1.817,0.23-2.372
					c0.086-0.556,0.15-0.861,0.185-0.857c0.083,0.009-0.032,1.245-0.053,3.24c-0.023,1.994,0.103,4.754,0.622,7.751
					c0.526,2.995,1.34,5.634,2.036,7.503C261.268,312.568,261.795,313.692,261.72,313.729z"/>
			</g>
			<g>
				<g>
					<path style="fill:#455A64;" d="M265.241,341.83c-0.037,0.006-0.145-0.457-0.311-1.299c-0.174-0.949-0.394-2.146-0.655-3.571
						c-0.527-3.133-1.22-7.254-1.986-11.81c-1.338-8.372-2.249-14.072-2.672-16.723c0.111-0.042,0.58,1.827,1.144,4.833
						c0.577,3.012,1.303,7.186,2.058,11.803c0.754,4.616,1.395,8.802,1.831,11.837c0.194,1.436,0.357,2.642,0.487,3.599
						C265.238,341.351,265.278,341.824,265.241,341.83z"/>
				</g>
			</g>
		</g>
		<g>
			<g>
				<path style="fill:#B78876;" d="M208.134,217.347c0,0-3.197,22.494-3.794,30.376c-0.359,4.745,4.46,11.045,8.138,11.506
					c3.737,0.468,16.083,1.198,16.083,1.198l1.029-14.107l-0.321-2.805l-3.85-0.725l1.16-22.375L208.134,217.347z"/>
			</g>
			<g>
				<g>
					<path style="fill:#AA6550;" d="M226.072,221.171c0.037-0.001,0.086,0.433,0.143,1.222c0.059,0.788,0.109,1.931,0.137,3.344
						c0.064,2.826-0.001,6.733-0.243,11.037c-0.242,4.305-0.585,8.192-0.865,11.002c-0.14,1.405-0.266,2.54-0.366,3.324
						c-0.099,0.784-0.172,1.215-0.209,1.212c-0.037-0.003-0.035-0.441,0.001-1.23c0.053-0.9,0.118-2.016,0.196-3.337
						c0.189-2.935,0.435-6.764,0.707-11c0.242-4.295,0.367-8.187,0.4-11.006c0.013-1.322,0.024-2.439,0.033-3.339
						C226.014,221.61,226.036,221.172,226.072,221.171z"/>
				</g>
			</g>
		</g>
		<g style="opacity:0.3;">
			<g>
				<path d="M227.286,288.106c6.3,2.34,13.204,2.537,19.899,1.951c6.695-0.586,13.305-1.924,19.996-2.559
					c10.115-0.96,20.383-0.295,30.291,1.961c0.702,0.16,1.426,0.328,2.135,0.203c0.709-0.125,1.405-0.628,1.516-1.34
					c0.173-1.118-1.051-1.898-2.094-2.337c-22.771-9.579-49.608-8.979-71.929,1.608"/>
			</g>
		</g>
		<g>
			<g>
				<path style="fill:#FF725E;" d="M323.746,182.441l-35.514-17.683c-9.334-1.09-16.882-0.738-16.882-0.738h-23.507
					c0,0-28.488,8.402-33.189,16.146l-12.21,36.602l24.135,3.646l0,0l3.011,26.295c0,0-2.995,30.449-2.995,34.874
					c0,4.425,0.377,6.115,0.377,6.115s48.293-7.343,60.185-3.471c11.892,3.872,15.106,3.471,15.106,3.471
					s-0.994-12.639-1.876-19.971l-2.757-36.693l-2.036-28.017l22.35,6.84L323.746,182.441z"/>
			</g>
			<g>
				<path style="fill:#263238;" d="M226.358,220.701c-0.088,0.01-0.325-1.514-0.861-3.947c-0.538-2.432-1.427-5.766-2.794-9.337
					c-1.368-3.572-2.933-6.693-4.143-8.916c-0.574-1.032-1.061-1.909-1.458-2.624c-0.348-0.618-0.526-0.969-0.493-0.987
					c0.033-0.017,0.272,0.3,0.679,0.891c0.41,0.588,0.966,1.461,1.617,2.557c1.304,2.191,2.937,5.313,4.316,8.914
					c1.379,3.6,2.215,6.977,2.658,9.437c0.22,1.231,0.365,2.232,0.428,2.927C226.375,220.311,226.395,220.697,226.358,220.701z"/>
			</g>
			<g>
				<path style="fill:#263238;" d="M271.909,231.094c0.017,0.006-0.027,0.172-0.125,0.483c-0.122,0.365-0.272,0.812-0.453,1.353
					c-0.197,0.588-0.451,1.302-0.783,2.117c-0.327,0.817-0.677,1.758-1.138,2.766c-0.869,2.04-2.026,4.416-3.423,6.995
					c-1.422,2.564-3.099,5.323-5.031,8.103c-1.95,2.769-3.967,5.29-5.89,7.505c-1.944,2.196-3.781,4.097-5.399,5.612
					c-0.789,0.779-1.553,1.429-2.209,2.017c-0.652,0.591-1.236,1.075-1.721,1.461c-0.446,0.355-0.815,0.649-1.116,0.888
					c-0.259,0.199-0.4,0.296-0.411,0.283c-0.011-0.013,0.108-0.138,0.345-0.362c0.284-0.259,0.631-0.576,1.052-0.96
					c0.464-0.409,1.027-0.913,1.659-1.522c0.635-0.606,1.379-1.272,2.149-2.065c1.58-1.543,3.38-3.46,5.295-5.662
					c1.893-2.22,3.887-4.736,5.827-7.489c1.922-2.765,3.601-5.499,5.038-8.038c1.412-2.553,2.597-4.901,3.505-6.913
					c0.48-0.995,0.852-1.922,1.203-2.726c0.356-0.803,0.637-1.504,0.862-2.08c0.217-0.527,0.395-0.962,0.542-1.317
					C271.816,231.243,271.892,231.088,271.909,231.094z"/>
			</g>
			<g>
				<g>
					<path style="fill:#263238;" d="M288.318,167.183c0.103,0.048-1.328,1.466-1.871,4.456c-0.277,1.475-0.283,3.281,0.033,5.249
						c0.304,1.969,0.898,4.101,1.501,6.341c1.225,4.476,2.523,8.474,3.508,11.352c0.47,1.359,0.864,2.5,1.178,3.406
						c0.278,0.805,0.418,1.256,0.384,1.27c-0.034,0.014-0.24-0.411-0.578-1.194c-0.336-0.784-0.801-1.927-1.34-3.353
						c-1.078-2.852-2.438-6.846-3.668-11.338c-0.604-2.245-1.188-4.392-1.472-6.41c-0.297-2.012-0.251-3.884,0.084-5.396
						c0.323-1.517,0.896-2.657,1.375-3.37C287.937,167.482,288.298,167.164,288.318,167.183z"/>
				</g>
			</g>
		</g>
		<g>
			<g>
				<path style="fill:#FFFFFF;" d="M221.297,205.713c0.036,0.04-0.597,0.676-1.893,1.285c-1.277,0.61-3.28,1.113-5.464,0.782
					c-2.185-0.333-3.948-1.409-4.986-2.372c-1.056-0.967-1.471-1.763-1.424-1.79c0.07-0.055,0.587,0.651,1.663,1.509
					c1.062,0.857,2.761,1.822,4.825,2.137c2.064,0.313,3.973-0.102,5.242-0.605C220.543,206.16,221.246,205.639,221.297,205.713z"/>
			</g>
		</g>
		<g>
			<g>
				<path style="fill:#FFFFFF;" d="M289.374,189.2c0.016,0.007-0.087,0.272-0.299,0.769c-0.215,0.496-0.558,1.217-1.048,2.122
					c-0.996,1.79-2.614,4.341-5.281,6.907c-2.646,2.541-6.461,5.069-11.271,6.134c-2.387,0.533-4.997,0.72-7.644,0.328
					c-2.657-0.359-5.274-1.393-7.735-2.749c-4.911-2.743-9.056-6.214-13.597-7.872c-4.503-1.729-9.031-1.529-12.538-0.691
					c-3.549,0.852-6.139,2.395-7.79,3.571c-1.64,1.216-2.408,2.062-2.454,2.014c0,0,0.713-0.898,2.332-2.176
					c1.629-1.237,4.226-2.853,7.822-3.766c3.551-0.897,8.171-1.146,12.795,0.6c4.65,1.675,8.834,5.163,13.679,7.864
					c2.43,1.338,4.974,2.344,7.558,2.701c2.577,0.388,5.128,0.217,7.467-0.292c4.715-1.017,8.479-3.46,11.122-5.934
					c2.663-2.496,4.314-4.991,5.357-6.739c0.514-0.883,0.885-1.587,1.129-2.067C289.223,189.443,289.358,189.193,289.374,189.2z"/>
			</g>
		</g>
		<g>
			<g>
				<path style="fill:#FFFFFF;" d="M311.607,176.375c0.027-0.011,0.215,0.39,0.462,1.151c0.239,0.762,0.497,1.902,0.576,3.337
					c0.069,1.43-0.031,3.165-0.557,4.999c-0.507,1.833-1.419,3.769-2.81,5.484c-1.397,1.724-3.093,2.956-4.457,4.215
					c-1.395,1.235-2.448,2.538-3.025,3.811c-0.592,1.262-0.726,2.411-0.663,3.183c0.06,0.777,0.225,1.192,0.177,1.208
					c-0.017,0.006-0.067-0.092-0.148-0.288c-0.079-0.196-0.174-0.498-0.231-0.899c-0.129-0.796-0.047-2.017,0.528-3.354
					c0.554-1.345,1.638-2.743,3.036-4.014c1.372-1.299,3.04-2.535,4.378-4.191c2.718-3.334,3.483-7.375,3.403-10.141
					C312.21,178.058,311.494,176.403,311.607,176.375z"/>
			</g>
		</g>
		<g>
			<g>
				<path style="fill:#FFFFFF;" d="M253.844,260.683c0.008,0.033-0.36,0.169-1.042,0.363c-0.682,0.191-1.678,0.45-2.943,0.629
					c-1.257,0.151-2.829,0.265-4.488-0.262c-0.823-0.26-1.642-0.706-2.354-1.325c-0.708-0.622-1.3-1.376-1.92-2.101
					c-0.615-0.732-1.277-1.356-2.009-1.854c-0.735-0.49-1.52-0.845-2.292-1.099c-1.553-0.512-3.061-0.552-4.287-0.411
					c-1.234,0.143-2.192,0.503-2.822,0.795c-0.636,0.289-0.968,0.499-0.995,0.458c-0.014-0.019,0.28-0.287,0.903-0.639
					c0.617-0.355,1.587-0.782,2.862-0.979c1.267-0.194,2.844-0.193,4.483,0.318c0.816,0.255,1.647,0.618,2.431,1.132
					c0.778,0.518,1.498,1.196,2.122,1.94c0.63,0.739,1.205,1.473,1.862,2.058c0.656,0.578,1.402,0.996,2.167,1.251
					c1.539,0.519,3.06,0.456,4.296,0.352C252.305,261.021,253.823,260.585,253.844,260.683z"/>
			</g>
		</g>
		<g>
			<g>
				<path style="fill:#FFFFFF;" d="M299.83,258.546c0.01,0.015-0.098,0.107-0.316,0.27c-0.223,0.155-0.532,0.418-0.986,0.667
					c-0.876,0.549-2.241,1.216-4.042,1.691c-1.797,0.443-4.042,0.727-6.49,0.375c-2.445-0.295-5.074-1.278-7.376-2.959
					c-2.295-1.689-4.107-3.685-5.899-5.305c-1.768-1.647-3.565-2.89-5.237-3.608c-1.662-0.741-3.148-0.935-4.159-0.92
					c-1.016,0.017-1.572,0.169-1.583,0.117c-0.004-0.017,0.13-0.063,0.394-0.135c0.262-0.077,0.661-0.148,1.181-0.185
					c1.033-0.079,2.582,0.065,4.31,0.784c1.734,0.691,3.609,1.945,5.415,3.591c1.829,1.62,3.648,3.596,5.884,5.24
					c2.236,1.63,4.759,2.59,7.136,2.904c2.375,0.368,4.566,0.13,6.335-0.257c1.772-0.419,3.135-1.022,4.03-1.51
					C299.331,258.828,299.802,258.504,299.83,258.546z"/>
			</g>
		</g>
	</g>
</g>
<g id="Magnifying_Glass">
	<g>
		<g>
			<g>
				<g>
					<g>
						<g>
							<g>
								<path style="fill:#263238;" d="M384.834,116.061c-9.321-4.44-17.386-11.726-22.739-21.438
									c-6.592-11.961-8.131-25.774-4.335-38.893c3.797-13.12,12.476-23.976,24.438-30.568
									c24.692-13.609,55.853-4.59,69.463,20.104l0,0c6.592,11.962,8.131,25.775,4.334,38.894s-12.475,23.975-24.438,30.567
									C416.576,122.982,399.211,122.91,384.834,116.061z M427.447,26.916c-13.417-6.391-29.616-6.459-43.595,1.244
									c-11.16,6.15-19.259,16.28-22.801,28.52c-3.544,12.241-2.107,25.129,4.044,36.29c6.15,11.162,16.279,19.259,28.521,22.801
									c12.24,3.543,25.129,2.107,36.29-4.044c11.16-6.15,19.258-16.279,22.801-28.52c3.544-12.241,2.107-25.129-4.044-36.29
									C443.669,37.858,436.142,31.058,427.447,26.916z"/>
							</g>
						</g>
					</g>
				</g>
				<g>
					<g>
						<g>
							<g>
								<path style="fill:#263238;" d="M471.107,171.949L471.107,171.949c-2.987,1.842-6.902,0.915-8.745-2.072l-33.437-54.183
									c-0.316-0.513-0.157-1.186,0.356-1.502l7.133-4.401c0.501-0.309,1.156-0.165,1.482,0.325l35.168,52.905
									C475.053,166.015,474.167,170.062,471.107,171.949z"/>
							</g>
						</g>
					</g>
				</g>
			</g>
			<g>
				<g>
					<g>
						<g>
							<g>
								<path style="fill:#455A64;" d="M386.063,113.48c-9.321-4.44-17.387-11.726-22.739-21.438
									c-6.592-11.961-8.131-25.774-4.335-38.894c3.797-13.12,12.476-23.976,24.438-30.568
									c24.692-13.609,55.853-4.59,69.463,20.104l0,0c6.591,11.962,8.131,25.775,4.334,38.894
									c-3.797,13.119-12.475,23.975-24.438,30.567C417.805,120.402,400.44,120.329,386.063,113.48z M428.676,24.336
									c-13.417-6.391-29.616-6.459-43.595,1.244C373.92,31.73,365.822,41.86,362.28,54.1c-3.544,12.241-2.107,25.129,4.044,36.29
									c6.15,11.162,16.279,19.259,28.521,22.801c12.24,3.543,25.129,2.107,36.29-4.044c11.16-6.15,19.258-16.279,22.801-28.52
									c3.544-12.241,2.107-25.129-4.044-36.29C444.899,35.277,437.371,28.478,428.676,24.336z"/>
							</g>
						</g>
					</g>
				</g>
				<g>
					<g>
						<g>
							<g>
								<path style="fill:#455A64;" d="M472.482,171.102l-0.517,0.319c-2.332,1.438-5.388,0.715-6.827-1.617l-35.557-57.619
									l8.959-5.529l35.558,57.62C475.537,166.607,474.813,169.664,472.482,171.102z"/>
							</g>
						</g>
					</g>
				</g>
			</g>
		</g>
		<g>
			<g>
				<g>
					<g>
						<path style="fill:#E0E0E0;" d="M369.937,55.219c-0.033-0.007,0.069-0.567,0.284-1.579c0.099-0.508,0.24-1.125,0.472-1.823
							c0.223-0.7,0.432-1.514,0.799-2.366c0.172-0.433,0.35-0.884,0.536-1.352c0.191-0.468,0.441-0.932,0.673-1.425
							c0.446-0.997,1.055-1.99,1.669-3.051c1.309-2.072,2.934-4.236,4.896-6.279c1.989-2.018,4.109-3.702,6.145-5.066
							c1.044-0.643,2.021-1.279,3.005-1.752c0.486-0.245,0.943-0.508,1.406-0.712c0.463-0.198,0.909-0.389,1.337-0.572
							c0.841-0.39,1.65-0.621,2.343-0.862c0.691-0.251,1.304-0.409,1.81-0.521c1.005-0.242,1.563-0.36,1.57-0.327
							c0.008,0.033-0.535,0.213-1.519,0.51c-0.495,0.14-1.095,0.323-1.773,0.597c-0.68,0.265-1.472,0.515-2.296,0.922
							c-0.419,0.19-0.856,0.389-1.31,0.595c-0.454,0.21-0.901,0.479-1.378,0.729c-0.965,0.483-1.922,1.125-2.947,1.769
							c-1.997,1.368-4.08,3.04-6.044,5.032c-1.937,2.016-3.551,4.144-4.865,6.177c-0.616,1.042-1.232,2.016-1.688,2.993
							c-0.237,0.483-0.494,0.938-0.691,1.397c-0.194,0.459-0.38,0.901-0.559,1.326c-0.384,0.835-0.613,1.634-0.859,2.32
							c-0.255,0.685-0.422,1.29-0.548,1.788C370.135,54.679,369.97,55.226,369.937,55.219z"/>
					</g>
				</g>
			</g>
		</g>
	</g>
</g>
</svg>
